<svg width="256" height="137" viewBox="0 0 256 137" fill="none" xmlns="http://www.w3.org/2000/svg">
<g clip-path="url(#clip0_1451_53161)">
<rect x="-0.5" y="0.5" width="203" height="95" rx="1.5" transform="matrix(-1 0 0 1 255 41)" fill="white" stroke="#6B360D"/>
<path opacity="0.05" d="M222 137L167.333 41H135L189.667 137H222Z" fill="#6B360D"/>
<path opacity="0.1" d="M185.333 41L240 137H230L175.333 41H185.333Z" fill="#6B360D"/>
<path d="M71.052 120.952C71.676 121.192 72.15 121.534 72.474 121.978C72.81 122.41 72.978 122.932 72.978 123.544V123.742C72.978 124.738 72.594 125.53 71.826 126.118C71.07 126.706 70.056 127 68.784 127H61.656V115.192H68.406C69.726 115.192 70.752 115.456 71.484 115.984C72.228 116.5 72.6 117.232 72.6 118.18V118.396C72.6 118.96 72.468 119.458 72.204 119.89C71.94 120.322 71.556 120.676 71.052 120.952ZM63.456 116.794V120.232H68.388C69.984 120.232 70.782 119.692 70.782 118.612V118.396C70.782 117.88 70.578 117.484 70.17 117.208C69.762 116.932 69.174 116.794 68.406 116.794H63.456ZM71.16 123.49C71.16 122.398 70.356 121.852 68.748 121.852H63.456V125.398H68.748C69.504 125.398 70.092 125.248 70.512 124.948C70.944 124.636 71.16 124.216 71.16 123.688V123.49ZM77.3908 118.09V121.762H83.7988V118.09H85.5268V127H83.7988V123.292H77.3908V127H75.6628V118.09H77.3908ZM98.9327 118.09V118.342L93.8567 127.99C93.4607 128.734 92.9987 129.262 92.4707 129.574C91.9547 129.898 91.2467 130.06 90.3467 130.06H88.5467V128.53H90.3467C90.8507 128.53 91.2287 128.452 91.4807 128.296C91.7327 128.152 91.9727 127.858 92.2007 127.414L92.3627 127.126L87.7187 118.342V118.09H89.5547L93.3347 125.434L97.0967 118.09H98.9327ZM102.862 118.09V125.47H108.1V118.09H109.828V125.47H115.048V118.09H116.776V127H101.134V118.09H102.862ZM130.859 125.47V127H129.671C129.083 127 128.591 126.886 128.195 126.658C127.799 126.43 127.523 126.106 127.367 125.686C126.887 126.202 126.311 126.586 125.639 126.838C124.967 127.09 124.175 127.216 123.263 127.216C121.979 127.216 120.989 126.994 120.293 126.55C119.597 126.094 119.249 125.446 119.249 124.606C119.249 123.886 119.519 123.31 120.059 122.878C120.599 122.446 121.391 122.176 122.435 122.068L127.241 121.564C127.205 120.892 126.923 120.382 126.395 120.034C125.867 119.686 125.111 119.512 124.127 119.512C123.179 119.512 122.423 119.674 121.859 119.998C121.295 120.322 121.013 120.754 121.013 121.294V121.366H119.303V121.294C119.303 120.622 119.501 120.028 119.897 119.512C120.305 118.984 120.875 118.582 121.607 118.306C122.339 118.018 123.185 117.874 124.145 117.874C125.669 117.874 126.851 118.21 127.691 118.882C128.531 119.554 128.951 120.496 128.951 121.708V124.48C128.951 124.792 129.047 125.038 129.239 125.218C129.431 125.386 129.707 125.47 130.067 125.47H130.859ZM123.227 125.686C124.199 125.686 125.033 125.536 125.729 125.236C126.425 124.924 126.929 124.486 127.241 123.922V122.968L122.813 123.436C122.189 123.496 121.721 123.622 121.409 123.814C121.109 124.006 120.959 124.27 120.959 124.606C120.959 125.326 121.715 125.686 123.227 125.686ZM142.177 123.112H133.591C133.651 123.892 133.987 124.51 134.599 124.966C135.211 125.41 136.027 125.632 137.047 125.632C137.995 125.632 138.763 125.476 139.351 125.164C139.951 124.84 140.275 124.414 140.323 123.886H142.177C142.081 124.93 141.577 125.746 140.665 126.334C139.765 126.922 138.559 127.216 137.047 127.216C135.979 127.216 135.049 127.036 134.257 126.676C133.465 126.304 132.853 125.782 132.421 125.11C132.001 124.438 131.791 123.652 131.791 122.752V122.374C131.791 121.462 132.001 120.67 132.421 119.998C132.853 119.314 133.465 118.792 134.257 118.432C135.049 118.06 135.979 117.874 137.047 117.874C138.643 117.874 139.897 118.27 140.809 119.062C141.721 119.842 142.177 120.922 142.177 122.302V123.112ZM137.047 119.458C136.087 119.458 135.307 119.656 134.707 120.052C134.119 120.436 133.759 120.976 133.627 121.672H140.341C140.233 120.976 139.891 120.436 139.315 120.052C138.739 119.656 137.983 119.458 137.047 119.458ZM157.925 118.09V127H156.269V119.872L155.855 120.61L152.003 127H150.473L146.621 120.61L146.207 119.872V127H144.551V118.09H146.999L151.247 125.2L155.477 118.09H157.925ZM172.009 125.47V127H170.821C170.233 127 169.741 126.886 169.345 126.658C168.949 126.43 168.673 126.106 168.517 125.686C168.037 126.202 167.461 126.586 166.789 126.838C166.117 127.09 165.325 127.216 164.413 127.216C163.129 127.216 162.139 126.994 161.443 126.55C160.747 126.094 160.399 125.446 160.399 124.606C160.399 123.886 160.669 123.31 161.209 122.878C161.749 122.446 162.541 122.176 163.585 122.068L168.391 121.564C168.355 120.892 168.073 120.382 167.545 120.034C167.017 119.686 166.261 119.512 165.277 119.512C164.329 119.512 163.573 119.674 163.009 119.998C162.445 120.322 162.163 120.754 162.163 121.294V121.366H160.453V121.294C160.453 120.622 160.651 120.028 161.047 119.512C161.455 118.984 162.025 118.582 162.757 118.306C163.489 118.018 164.335 117.874 165.295 117.874C166.819 117.874 168.001 118.21 168.841 118.882C169.681 119.554 170.101 120.496 170.101 121.708V124.48C170.101 124.792 170.197 125.038 170.389 125.218C170.581 125.386 170.857 125.47 171.217 125.47H172.009ZM164.377 125.686C165.349 125.686 166.183 125.536 166.879 125.236C167.575 124.924 168.079 124.486 168.391 123.922V122.968L163.963 123.436C163.339 123.496 162.871 123.622 162.559 123.814C162.259 124.006 162.109 124.27 162.109 124.606C162.109 125.326 162.865 125.686 164.377 125.686ZM183.436 126.982H181.708V124.066H179.044L175.48 127H173.248V126.784L176.56 124.066C175.492 124.018 174.664 123.748 174.076 123.256C173.488 122.752 173.194 122.068 173.194 121.204V121.006C173.194 120.082 173.512 119.368 174.148 118.864C174.796 118.348 175.696 118.09 176.848 118.09H183.436V126.982ZM181.708 122.59V119.602H176.974C175.642 119.602 174.976 120.07 174.976 121.006V121.204C174.976 122.128 175.642 122.59 176.974 122.59H181.708Z" fill="#6B360D"/>
<g opacity="0.75">
<path d="M238.207 58.0846C238.207 58.0806 238.207 58.0765 238.207 58.0725C238.207 58.0726 238.207 58.0724 238.207 58.0725C238.207 58.0721 238.207 58.0714 238.207 58.071C238.207 58.0711 238.207 58.0709 238.207 58.071L238.207 53.071C238.207 52.7948 238.431 52.571 238.707 52.571C238.983 52.571 239.207 52.7948 239.207 53.071V56.8639L244.717 51.3535C244.913 51.1582 245.229 51.1582 245.425 51.3535C245.62 51.5487 245.62 51.8653 245.425 52.0606L239.914 57.571L243.707 57.571C243.983 57.571 244.207 57.7948 244.207 58.071C244.207 58.3471 243.983 58.571 243.707 58.571L238.707 58.571C238.435 58.571 238.214 58.3544 238.207 58.0846Z" fill="#6B360D"/>
</g>
<path opacity="0.75" d="M73.6 58.82V59H72.412L70.564 55.88L68.716 59H67.516V58.82L69.82 55.04L67.54 51.308V51.128H68.728L70.564 54.2L72.388 51.128H73.576V51.308L71.308 55.04L73.6 58.82ZM76.5765 59.144C75.8165 59.144 75.2085 58.924 74.7525 58.484C74.2965 58.044 74.0685 57.46 74.0685 56.732V55.328C74.0685 54.592 74.2965 54.004 74.7525 53.564C75.2085 53.124 75.8165 52.904 76.5765 52.904C77.3445 52.904 77.9565 53.124 78.4125 53.564C78.8765 54.004 79.1085 54.592 79.1085 55.328V56.732C79.1085 57.46 78.8765 58.044 78.4125 58.484C77.9565 58.924 77.3445 59.144 76.5765 59.144ZM76.5885 58.124C77.0285 58.124 77.3765 57.996 77.6325 57.74C77.8965 57.484 78.0285 57.14 78.0285 56.708V55.364C78.0285 54.916 77.9005 54.564 77.6445 54.308C77.3885 54.052 77.0365 53.924 76.5885 53.924C76.1485 53.924 75.7965 54.052 75.5325 54.308C75.2765 54.564 75.1485 54.916 75.1485 55.364V56.708C75.1485 57.148 75.2765 57.496 75.5325 57.752C75.7965 58 76.1485 58.124 76.5885 58.124ZM84.9067 53.048V59H83.8147V56.96C83.2707 57.072 82.7707 57.128 82.3147 57.128C81.6267 57.128 81.0827 56.96 80.6827 56.624C80.2827 56.28 80.0827 55.816 80.0827 55.232V53.048H81.1627V55.112C81.1627 55.448 81.2747 55.704 81.4987 55.88C81.7307 56.056 82.0587 56.144 82.4827 56.144C82.8907 56.144 83.3347 56.1 83.8147 56.012V53.048H84.9067ZM91.7751 53.048V53.216L89.2911 59.696C89.1071 60.176 88.8711 60.52 88.5831 60.728C88.3031 60.936 87.9151 61.04 87.4191 61.04H86.4711V60.056H87.3231C87.5711 60.056 87.7631 60.012 87.8991 59.924C88.0431 59.836 88.1671 59.652 88.2711 59.372L88.3791 59.072L86.0391 53.216V53.048H87.1431L88.9431 57.668L90.6711 53.048H91.7751Z" fill="#6B360D"/>
<path opacity="0.75" d="M242.123 122.008C242.891 122.008 243.503 122.212 243.959 122.62C244.423 123.028 244.655 123.572 244.655 124.252V124.816C244.655 125.52 244.419 126.084 243.947 126.508C243.475 126.924 242.847 127.132 242.063 127.132C241.271 127.132 240.643 126.956 240.179 126.604C239.715 126.244 239.483 125.752 239.483 125.128V125.008H240.335V125.128C240.335 125.504 240.487 125.8 240.791 126.016C241.095 126.232 241.507 126.34 242.027 126.34C242.571 126.34 242.999 126.208 243.311 125.944C243.623 125.672 243.779 125.3 243.779 124.828V124.264C243.779 123.816 243.619 123.464 243.299 123.208C242.987 122.944 242.563 122.812 242.027 122.812C241.555 122.812 241.167 122.92 240.863 123.136C240.559 123.344 240.395 123.62 240.371 123.964H239.531L239.783 119.128H244.343V119.932H240.563L240.431 122.572C240.855 122.196 241.419 122.008 242.123 122.008Z" fill="#6B360D"/>
<g opacity="0.75">
<rect opacity="0.25" x="61" y="51" width="2" height="8" fill="#6B360D"/>
<rect x="61" y="57" width="2" height="2" fill="#6B360D"/>
</g>
</g>
<path opacity="0.25" d="M255.611 40.3492L203.603 0.20837C203.428 0.0732764 203.213 0 202.992 0H1C0.447715 0 0 0.447714 0 0.999999V95.8521C0 96.168 0.149347 96.4654 0.402795 96.6541L52.9811 135.802C53.1537 135.931 53.3631 136 53.5783 136H255C255.552 136 256 135.552 256 135V41.1408C256 40.8309 255.856 40.5385 255.611 40.3492Z" fill="url(#paint0_linear_1451_53161)"/>
<g clip-path="url(#clip1_1451_53161)">
<rect width="204" height="96" rx="2" fill="#6B360D"/>
<path opacity="0.05" d="M0 68L204 41.2531V21.751L0 48.4979V68Z" fill="white"/>
<path opacity="0.1" d="M0 43.6226L204 16.8756V12.0001L0 38.747V43.6226Z" fill="white"/>
<path opacity="0.75" d="M38.068 10.308L36.004 14.052L38.056 17.82V18H36.88L34.96 14.52H33.868V18H32.74V14.52H31.636L29.716 18H28.528V17.82L30.604 14.052L28.516 10.308V10.128H29.704L31.588 13.5H32.74V10.128H33.868V13.5H35.008L36.88 10.128H38.068V10.308ZM40.2891 12.048V16.284L43.0971 12.048H44.0931V18H43.0371V13.764L40.2411 18H39.2451V12.048H40.2891ZM49.7587 14.964C50.0787 15.084 50.3227 15.26 50.4907 15.492C50.6667 15.724 50.7547 15.996 50.7547 16.308V16.476C50.7547 16.956 50.5787 17.332 50.2267 17.604C49.8747 17.868 49.3547 18 48.6667 18H45.6787V12.048H48.5227C49.2187 12.048 49.7387 12.18 50.0827 12.444C50.4267 12.7 50.5987 13.072 50.5987 13.56V13.716C50.5987 14.012 50.5267 14.268 50.3827 14.484C50.2387 14.692 50.0307 14.852 49.7587 14.964ZM46.7587 12.924V14.568H48.5947C48.8827 14.568 49.1067 14.5 49.2667 14.364C49.4347 14.22 49.5187 14.032 49.5187 13.8V13.668C49.5187 13.436 49.4347 13.256 49.2667 13.128C49.1067 12.992 48.8787 12.924 48.5827 12.924H46.7587ZM49.6747 16.2C49.6747 15.952 49.5907 15.764 49.4227 15.636C49.2547 15.5 49.0187 15.432 48.7147 15.432H46.7587V17.124H48.7267C49.0147 17.124 49.2427 17.056 49.4107 16.92C49.5867 16.776 49.6747 16.584 49.6747 16.344V16.2ZM57.24 12.048V12.216L54.756 18.696C54.572 19.176 54.336 19.52 54.048 19.728C53.768 19.936 53.38 20.04 52.884 20.04H51.936V19.056H52.788C53.036 19.056 53.228 19.012 53.364 18.924C53.508 18.836 53.632 18.652 53.736 18.372L53.844 18.072L51.504 12.216V12.048H52.608L54.408 16.668L56.136 12.048H57.24Z" fill="white"/>
<g opacity="0.75">
<rect width="2" height="8" transform="matrix(-1 0 0 1 23 10)" fill="white"/>
<rect width="2" height="6" transform="matrix(-1 0 0 1 19 12)" fill="white"/>
<rect width="2" height="4" transform="matrix(-1 0 0 1 15 14)" fill="white"/>
<rect width="2" height="2" transform="matrix(-1 0 0 1 11 16)" fill="white"/>
</g>
<path opacity="0.5" d="M191.032 86H190.168V79.628C189.872 79.788 189.492 79.868 189.028 79.868H188.104V79.076H188.992C189.376 79.076 189.668 78.996 189.868 78.836C190.068 78.668 190.168 78.432 190.168 78.128H191.032V86Z" fill="white"/>
<g opacity="0.75">
<path d="M190 9C189.724 9 189.5 9.22386 189.5 9.5V13.5H185.5C185.224 13.5 185 13.7239 185 14C185 14.2761 185.224 14.5 185.5 14.5H189.5V18.5C189.5 18.7761 189.724 19 190 19C190.276 19 190.5 18.7761 190.5 18.5V14.5H194.5C194.776 14.5 195 14.2761 195 14C195 13.7239 194.776 13.5 194.5 13.5H190.5V9.5C190.5 9.22386 190.276 9 190 9Z" fill="white"/>
</g>
<path d="M20.096 74.192V75.794H11.456V79.106H16.73C18.086 79.106 19.136 79.4 19.88 79.988C20.636 80.564 21.014 81.38 21.014 82.436V82.67C21.014 83.714 20.636 84.53 19.88 85.118C19.124 85.706 18.074 86 16.73 86H9.656V74.192H20.096ZM16.712 84.398C17.48 84.398 18.086 84.242 18.53 83.93C18.986 83.618 19.214 83.198 19.214 82.67V82.436C19.214 81.896 18.992 81.476 18.548 81.176C18.104 80.864 17.492 80.708 16.712 80.708H11.456V84.398H16.712ZM34.9308 84.47V86H33.7428C33.1548 86 32.6628 85.886 32.2668 85.658C31.8708 85.43 31.5948 85.106 31.4388 84.686C30.9588 85.202 30.3828 85.586 29.7108 85.838C29.0388 86.09 28.2468 86.216 27.3348 86.216C26.0508 86.216 25.0608 85.994 24.3648 85.55C23.6688 85.094 23.3208 84.446 23.3208 83.606C23.3208 82.886 23.5908 82.31 24.1308 81.878C24.6708 81.446 25.4628 81.176 26.5068 81.068L31.3128 80.564C31.2768 79.892 30.9948 79.382 30.4668 79.034C29.9388 78.686 29.1828 78.512 28.1988 78.512C27.2508 78.512 26.4948 78.674 25.9308 78.998C25.3668 79.322 25.0848 79.754 25.0848 80.294V80.366H23.3748V80.294C23.3748 79.622 23.5728 79.028 23.9688 78.512C24.3768 77.984 24.9468 77.582 25.6788 77.306C26.4108 77.018 27.2568 76.874 28.2168 76.874C29.7408 76.874 30.9228 77.21 31.7628 77.882C32.6028 78.554 33.0228 79.496 33.0228 80.708V83.48C33.0228 83.792 33.1188 84.038 33.3108 84.218C33.5028 84.386 33.7788 84.47 34.1388 84.47H34.9308ZM27.2988 84.686C28.2708 84.686 29.1048 84.536 29.8008 84.236C30.4968 83.924 31.0008 83.486 31.3128 82.922V81.968L26.8848 82.436C26.2608 82.496 25.7928 82.622 25.4808 82.814C25.1808 83.006 25.0308 83.27 25.0308 83.606C25.0308 84.326 25.7868 84.686 27.2988 84.686ZM44.7736 81.464C45.2656 81.668 45.6436 81.938 45.9076 82.274C46.1836 82.598 46.3216 82.964 46.3216 83.372V83.498C46.3216 84.386 45.8956 85.064 45.0436 85.532C44.1916 85.988 42.9436 86.216 41.2996 86.216C37.7476 86.216 35.9716 84.98 35.9716 82.508V82.382H37.6816V82.508C37.6816 83.252 37.9756 83.804 38.5636 84.164C39.1636 84.512 40.0876 84.686 41.3356 84.686C43.4716 84.686 44.5396 84.266 44.5396 83.426V83.3C44.5396 82.616 43.8976 82.274 42.6136 82.274H39.6256V80.762H42.4156C43.6756 80.762 44.3056 80.408 44.3056 79.7V79.574C44.3056 79.19 44.0356 78.902 43.4956 78.71C42.9676 78.506 42.1816 78.404 41.1376 78.404C39.9376 78.404 39.0616 78.578 38.5096 78.926C37.9576 79.274 37.6816 79.832 37.6816 80.6V80.726H35.9716V80.6C35.9716 79.376 36.4156 78.452 37.3036 77.828C38.1916 77.192 39.4996 76.874 41.2276 76.874C42.7876 76.874 43.9816 77.108 44.8096 77.576C45.6496 78.032 46.0696 78.686 46.0696 79.538V79.664C46.0696 80.036 45.9556 80.378 45.7276 80.69C45.4996 80.99 45.1816 81.248 44.7736 81.464ZM53.5143 86.216C52.4223 86.216 51.4743 86.036 50.6703 85.676C49.8663 85.304 49.2483 84.782 48.8163 84.11C48.3843 83.426 48.1683 82.628 48.1683 81.716V81.41C48.1683 80.486 48.3843 79.682 48.8163 78.998C49.2483 78.314 49.8663 77.792 50.6703 77.432C51.4743 77.06 52.4223 76.874 53.5143 76.874C54.5943 76.874 55.5303 77.06 56.3223 77.432C57.1263 77.792 57.7383 78.314 58.1583 78.998C58.5903 79.682 58.8063 80.486 58.8063 81.41V81.716C58.8063 82.628 58.5903 83.426 58.1583 84.11C57.7383 84.782 57.1263 85.304 56.3223 85.676C55.5303 86.036 54.5943 86.216 53.5143 86.216ZM53.4963 84.632C54.6003 84.632 55.4643 84.374 56.0883 83.858C56.7123 83.342 57.0243 82.628 57.0243 81.716V81.41C57.0243 80.486 56.7123 79.766 56.0883 79.25C55.4643 78.722 54.6003 78.458 53.4963 78.458C52.3683 78.458 51.4923 78.716 50.8683 79.232C50.2563 79.748 49.9503 80.474 49.9503 81.41V81.716C49.9503 82.628 50.2623 83.342 50.8863 83.858C51.5223 84.374 52.3923 84.632 53.4963 84.632ZM69.9045 81.482C70.3965 81.638 70.7685 81.878 71.0205 82.202C71.2845 82.514 71.4165 82.898 71.4165 83.354V83.534C71.4165 84.314 71.1105 84.92 70.4985 85.352C69.8985 85.784 69.0465 86 67.9425 86H61.1745V77.09H67.7085C68.8125 77.09 69.6645 77.3 70.2645 77.72C70.8765 78.128 71.1825 78.716 71.1825 79.484V79.664C71.1825 80.492 70.7565 81.098 69.9045 81.482ZM62.9025 78.422V80.834H67.6365C68.2005 80.834 68.6325 80.738 68.9325 80.546C69.2445 80.342 69.4005 80.054 69.4005 79.682V79.502C69.4005 79.154 69.2505 78.89 68.9505 78.71C68.6505 78.518 68.2125 78.422 67.6365 78.422H62.9025ZM69.6345 83.318C69.6345 82.958 69.4845 82.682 69.1845 82.49C68.8845 82.298 68.4525 82.202 67.8885 82.202H62.9025V84.65H67.8885C68.4525 84.65 68.8845 84.554 69.1845 84.362C69.4845 84.158 69.6345 83.87 69.6345 83.498V83.318ZM85.2218 84.47V86H84.0338C83.4458 86 82.9538 85.886 82.5578 85.658C82.1618 85.43 81.8858 85.106 81.7298 84.686C81.2498 85.202 80.6738 85.586 80.0018 85.838C79.3298 86.09 78.5378 86.216 77.6258 86.216C76.3418 86.216 75.3518 85.994 74.6558 85.55C73.9598 85.094 73.6118 84.446 73.6118 83.606C73.6118 82.886 73.8818 82.31 74.4218 81.878C74.9618 81.446 75.7538 81.176 76.7978 81.068L81.6038 80.564C81.5678 79.892 81.2858 79.382 80.7578 79.034C80.2298 78.686 79.4738 78.512 78.4898 78.512C77.5418 78.512 76.7858 78.674 76.2218 78.998C75.6578 79.322 75.3758 79.754 75.3758 80.294V80.366H73.6658V80.294C73.6658 79.622 73.8638 79.028 74.2598 78.512C74.6678 77.984 75.2378 77.582 75.9698 77.306C76.7018 77.018 77.5478 76.874 78.5078 76.874C80.0318 76.874 81.2138 77.21 82.0538 77.882C82.8938 78.554 83.3138 79.496 83.3138 80.708V83.48C83.3138 83.792 83.4098 84.038 83.6018 84.218C83.7938 84.386 84.0698 84.47 84.4298 84.47H85.2218ZM77.5898 84.686C78.5618 84.686 79.3958 84.536 80.0918 84.236C80.7878 83.924 81.2918 83.486 81.6038 82.922V81.968L77.1758 82.436C76.5518 82.496 76.0838 82.622 75.7718 82.814C75.4718 83.006 75.3218 83.27 75.3218 83.606C75.3218 84.326 76.0778 84.686 77.5898 84.686ZM96.6486 85.982H94.9206V83.066H92.2566L88.6926 86H86.4606V85.784L89.7726 83.066C88.7046 83.018 87.8766 82.748 87.2886 82.256C86.7006 81.752 86.4066 81.068 86.4066 80.204V80.006C86.4066 79.082 86.7246 78.368 87.3606 77.864C88.0086 77.348 88.9086 77.09 90.0606 77.09H96.6486V85.982ZM94.9206 81.59V78.602H90.1866C88.8546 78.602 88.1886 79.07 88.1886 80.006V80.204C88.1886 81.128 88.8546 81.59 90.1866 81.59H94.9206Z" fill="white"/>
</g>
<path d="M230.176 17.4409L237.669 25.9095C238.731 27.1089 240.602 27.1089 241.664 25.9095L249.157 17.4409C251.387 14.9199 252.546 11.7495 250.87 8.72623C248.934 5.23323 245.386 4.51931 242.303 6.865C241.243 7.67148 240.372 8.59246 239.947 9.07028C239.8 9.23632 239.533 9.23632 239.386 9.07028C238.961 8.59246 238.091 7.67148 237.03 6.865C233.947 4.51931 230.399 5.23323 228.463 8.72623C226.787 11.7495 227.946 14.9199 230.176 17.4409Z" fill="#A71714"/>
<defs>
<linearGradient id="paint0_linear_1451_53161" x1="83.2263" y1="-4.0785e-06" x2="210.5" y2="158.638" gradientUnits="userSpaceOnUse">
<stop stop-color="#6B360D"/>
<stop offset="1" stop-color="#6B360D" stop-opacity="0"/>
</linearGradient>
<clipPath id="clip0_1451_53161">
<rect width="204" height="96" fill="white" transform="translate(52 41)"/>
</clipPath>
<clipPath id="clip1_1451_53161">
<rect width="204" height="96" fill="white"/>
</clipPath>
</defs>
</svg>
