<svg width="300" height="64" viewBox="0 0 300 64" fill="none" xmlns="http://www.w3.org/2000/svg">
<g opacity="0.5">
<mask id="mask0_1401_51653" style="mask-type:alpha" maskUnits="userSpaceOnUse" x="0" y="40" width="300" height="24">
<path d="M0 62C0 63.1046 0.895431 64 2 64H298C299.105 64 300 63.1046 300 62V42C300 40.8954 299.105 40 298 40H2C0.895429 40 0 40.8954 0 42V62Z" fill="url(#paint0_linear_1401_51653)"/>
</mask>
<g mask="url(#mask0_1401_51653)">
<path d="M2 40.5C1.79569 40.5 1.60212 40.5406 1.42595 40.6136L1.23442 40.1518C0.745542 40.3545 0.354491 40.7455 0.151761 41.2344L0.613624 41.426C0.54057 41.6021 0.5 41.7957 0.5 42V43H0V45H0.5V47H0V49H0.5V51H0V53H0.5V55H0V57H0.5V59H0V61H0.5V62C0.5 62.2043 0.54057 62.3979 0.613624 62.574L0.151761 62.7656C0.354492 63.2545 0.745544 63.6455 1.23442 63.8482L1.42595 63.3864C1.60212 63.4594 1.79569 63.5 2 63.5H3V64H5V63.5H7V64H9V63.5H11V64H13V63.5H15V64H17V63.5H19V64H21V63.5H23V64H25V63.5H27V64H29V63.5H31V64H33V63.5H35V64H37V63.5H39V64H41V63.5H43V64H45V63.5H47V64H49V63.5H51V64H53V63.5H55V64H57V63.5H59V64H61V63.5H63V64H65V63.5H67V64H69V63.5H71V64H73V63.5H75V64H77V63.5H79V64H81V63.5H83V64H85V63.5H87V64H89V63.5H91V64H93V63.5H95V64H97V63.5H99V64H101V63.5H103V64H105V63.5H107V64H109V63.5H111V64H113V63.5H115V64H117V63.5H119V64H121V63.5H123V64H125V63.5H127V64H129V63.5H131V64H133V63.5H135V64H137V63.5H139V64H141V63.5H143V64H145V63.5H147V64H149V63.5H151V64H153V63.5H155V64H157V63.5H159V64H161V63.5H163V64H165V63.5H167V64H169V63.5H171V64H173V63.5H175V64H177V63.5H179V64H181V63.5H183V64H185V63.5H187V64H189V63.5H191V64H193V63.5H195V64H197V63.5H199V64H201V63.5H203V64H205V63.5H207V64H209V63.5H211V64H213V63.5H215V64H217V63.5H219V64H221V63.5H223V64H225V63.5H227V64H229V63.5H231V64H233V63.5H235V64H237V63.5H239V64H241V63.5H243V64H245V63.5H247V64H249V63.5H251V64H253V63.5H255V64H257V63.5H259V64H261V63.5H263V64H265V63.5H267V64H269V63.5H271V64H273V63.5H275V64H277V63.5H279V64H281V63.5H283V64H285V63.5H287V64H289V63.5H291V64H293V63.5H295V64H297V63.5H298C298.204 63.5 298.398 63.4594 298.574 63.3864L298.766 63.8482C299.254 63.6455 299.646 63.2545 299.848 62.7656L299.386 62.574C299.459 62.3979 299.5 62.2043 299.5 62V61H300V59H299.5V57H300V55H299.5V53H300V51H299.5V49H300V47H299.5V45H300V43H299.5V42C299.5 41.7957 299.459 41.6021 299.386 41.426L299.848 41.2344C299.646 40.7455 299.254 40.3545 298.766 40.1518L298.574 40.6136C298.398 40.5406 298.204 40.5 298 40.5H297V40H295V40.5H293V40H291V40.5H289V40H287V40.5H285V40H283V40.5H281V40H279V40.5H277V40H275V40.5H273V40H271V40.5H269V40H267V40.5H265V40H263V40.5H261V40H259V40.5H257V40H255V40.5H253V40H251V40.5H249V40H247V40.5H245V40H243V40.5H241V40H239V40.5H237V40H235V40.5H233V40H231V40.5H229V40H227V40.5H225V40H223V40.5H221V40H219V40.5H217V40H215V40.5H213V40H211V40.5H209V40H207V40.5H205V40H203V40.5H201V40H199V40.5H197V40H195V40.5H193V40H191V40.5H189V40H187V40.5H185V40H183V40.5H181V40H179V40.5H177V40H175V40.5H173V40H171V40.5H169V40H167V40.5H165V40H163V40.5H161V40H159V40.5H157V40H155V40.5H153V40H151V40.5H149V40H147V40.5H145V40H143V40.5H141V40H139V40.5H137V40H135V40.5H133V40H131V40.5H129V40H127V40.5H125V40H123V40.5H121V40H119V40.5H117V40H115V40.5H113V40H111V40.5H109V40H107V40.5H105V40H103V40.5H101V40H99V40.5H97V40H95V40.5H93V40H91V40.5H89V40H87V40.5H85V40H83V40.5H81V40H79V40.5H77V40H75V40.5H73V40H71V40.5H69V40H67V40.5H65V40H63V40.5H61V40H59V40.5H57V40H55V40.5H53V40H51V40.5H49V40H47V40.5H45V40H43V40.5H41V40H39V40.5H37V40H35V40.5H33V40H31V40.5H29V40H27V40.5H25V40H23V40.5H21V40H19V40.5H17V40H15V40.5H13V40H11V40.5H8.99999V40H7V40.5H4.99999V40H3V40.5H2Z" stroke="#6B360D" stroke-dasharray="2 2"/>
</g>
</g>
<g clip-path="url(#clip0_1401_51653)">
<rect width="108" height="60" transform="translate(4)" fill="white"/>
<rect opacity="0.5" x="4.5" y="0.5" width="107" height="59" rx="1.5" stroke="#6B360D"/>
<path opacity="0.75" d="M24.2 10.6H29.66V11.572H25.328V13.96H27.2C27.752 13.96 28.232 14.02 28.64 14.14C29.048 14.26 29.384 14.432 29.648 14.656C29.92 14.88 30.12 15.148 30.248 15.46C30.376 15.764 30.44 16.104 30.44 16.48C30.44 16.856 30.376 17.2 30.248 17.512C30.12 17.816 29.92 18.08 29.648 18.304C29.384 18.528 29.048 18.7 28.64 18.82C28.232 18.94 27.752 19 27.2 19H24.2V10.6ZM27.14 18.016C27.94 18.016 28.5 17.884 28.82 17.62C29.148 17.348 29.312 16.968 29.312 16.48C29.312 15.992 29.148 15.616 28.82 15.352C28.5 15.08 27.94 14.944 27.14 14.944H25.328V18.016H27.14ZM34.5805 19.12C34.1725 19.12 33.7845 19.056 33.4165 18.928C33.0485 18.792 32.7245 18.592 32.4445 18.328C32.1645 18.056 31.9405 17.716 31.7725 17.308C31.6045 16.9 31.5205 16.424 31.5205 15.88V15.64C31.5205 15.128 31.6045 14.676 31.7725 14.284C31.9405 13.892 32.1645 13.568 32.4445 13.312C32.7245 13.048 33.0485 12.852 33.4165 12.724C33.7845 12.588 34.1725 12.52 34.5805 12.52C34.9885 12.52 35.3765 12.588 35.7445 12.724C36.1125 12.852 36.4365 13.048 36.7165 13.312C36.9965 13.568 37.2205 13.892 37.3885 14.284C37.5565 14.676 37.6405 15.128 37.6405 15.64V15.88C37.6405 16.424 37.5565 16.9 37.3885 17.308C37.2205 17.716 36.9965 18.056 36.7165 18.328C36.4365 18.592 36.1125 18.792 35.7445 18.928C35.3765 19.056 34.9885 19.12 34.5805 19.12ZM34.5805 18.16C34.8205 18.16 35.0605 18.12 35.3005 18.04C35.5405 17.952 35.7525 17.82 35.9365 17.644C36.1205 17.46 36.2685 17.224 36.3805 16.936C36.5005 16.648 36.5605 16.296 36.5605 15.88V15.64C36.5605 15.256 36.5005 14.928 36.3805 14.656C36.2685 14.384 36.1205 14.16 35.9365 13.984C35.7525 13.808 35.5405 13.68 35.3005 13.6C35.0605 13.52 34.8205 13.48 34.5805 13.48C34.3405 13.48 34.1005 13.52 33.8605 13.6C33.6205 13.68 33.4085 13.808 33.2245 13.984C33.0405 14.16 32.8885 14.384 32.7685 14.656C32.6565 14.928 32.6005 15.256 32.6005 15.64V15.88C32.6005 16.296 32.6565 16.648 32.7685 16.936C32.8885 17.224 33.0405 17.46 33.2245 17.644C33.4085 17.82 33.6205 17.952 33.8605 18.04C34.1005 18.12 34.3405 18.16 34.5805 18.16ZM39.1358 12.64H40.1918V15.292H41.0918C41.1238 14.836 41.2238 14.436 41.3918 14.092C41.5598 13.74 41.7718 13.448 42.0278 13.216C42.2918 12.984 42.5918 12.812 42.9278 12.7C43.2638 12.58 43.6198 12.52 43.9958 12.52C44.4038 12.52 44.7838 12.588 45.1358 12.724C45.4958 12.852 45.8078 13.048 46.0718 13.312C46.3358 13.568 46.5438 13.892 46.6958 14.284C46.8558 14.676 46.9358 15.128 46.9358 15.64V15.88C46.9358 16.424 46.8558 16.9 46.6958 17.308C46.5438 17.716 46.3358 18.056 46.0718 18.328C45.8078 18.592 45.4958 18.792 45.1358 18.928C44.7838 19.056 44.4038 19.12 43.9958 19.12C43.6198 19.12 43.2598 19.064 42.9158 18.952C42.5798 18.832 42.2798 18.652 42.0158 18.412C41.7598 18.172 41.5478 17.872 41.3798 17.512C41.2198 17.144 41.1238 16.716 41.0918 16.228H40.1918V19H39.1358V12.64ZM43.9958 18.16C44.2358 18.16 44.4678 18.12 44.6918 18.04C44.9158 17.952 45.1118 17.82 45.2798 17.644C45.4558 17.46 45.5958 17.224 45.6998 16.936C45.8038 16.648 45.8558 16.296 45.8558 15.88V15.64C45.8558 15.256 45.8038 14.928 45.6998 14.656C45.5958 14.384 45.4558 14.16 45.2798 13.984C45.1118 13.808 44.9158 13.68 44.6918 13.6C44.4678 13.52 44.2358 13.48 43.9958 13.48C43.7558 13.48 43.5238 13.52 43.2998 13.6C43.0758 13.68 42.8758 13.808 42.6998 13.984C42.5318 14.16 42.3958 14.384 42.2918 14.656C42.1878 14.928 42.1358 15.256 42.1358 15.64V15.88C42.1358 16.296 42.1878 16.648 42.2918 16.936C42.3958 17.224 42.5318 17.46 42.6998 17.644C42.8758 17.82 43.0758 17.952 43.2998 18.04C43.5238 18.12 43.7558 18.16 43.9958 18.16ZM50.9005 19.12C50.4925 19.12 50.1125 19.056 49.7605 18.928C49.4085 18.792 49.1045 18.592 48.8485 18.328C48.5925 18.056 48.3885 17.716 48.2365 17.308C48.0925 16.9 48.0205 16.424 48.0205 15.88V15.64C48.0205 15.128 48.1005 14.676 48.2605 14.284C48.4205 13.892 48.6325 13.568 48.8965 13.312C49.1605 13.048 49.4645 12.852 49.8085 12.724C50.1605 12.588 50.5245 12.52 50.9005 12.52C51.2765 12.52 51.6125 12.572 51.9085 12.676C52.2125 12.78 52.4725 12.924 52.6885 13.108C52.9125 13.292 53.0925 13.508 53.2285 13.756C53.3725 14.004 53.4765 14.272 53.5405 14.56H52.4605C52.3965 14.408 52.3205 14.268 52.2325 14.14C52.1525 14.004 52.0485 13.888 51.9205 13.792C51.8005 13.696 51.6565 13.62 51.4885 13.564C51.3205 13.508 51.1245 13.48 50.9005 13.48C50.6685 13.48 50.4445 13.524 50.2285 13.612C50.0125 13.692 49.8205 13.82 49.6525 13.996C49.4845 14.164 49.3485 14.384 49.2445 14.656C49.1485 14.928 49.1005 15.256 49.1005 15.64V15.88C49.1005 16.288 49.1485 16.64 49.2445 16.936C49.3485 17.224 49.4845 17.46 49.6525 17.644C49.8205 17.82 50.0125 17.952 50.2285 18.04C50.4445 18.12 50.6685 18.16 50.9005 18.16C51.2925 18.16 51.6205 18.064 51.8845 17.872C52.1565 17.68 52.3485 17.416 52.4605 17.08H53.5405C53.3885 17.712 53.0765 18.212 52.6045 18.58C52.1325 18.94 51.5645 19.12 50.9005 19.12ZM54.9795 12.64H56.0355V15.04H57.5595C58.3595 15.04 58.9475 15.216 59.3235 15.568C59.7075 15.92 59.8995 16.408 59.8995 17.032C59.8995 17.64 59.7075 18.12 59.3235 18.472C58.9475 18.824 58.3595 19 57.5595 19H54.9795V12.64ZM57.4995 18.064C57.9955 18.064 58.3435 17.976 58.5435 17.8C58.7435 17.624 58.8435 17.364 58.8435 17.02C58.8435 16.676 58.7435 16.416 58.5435 16.24C58.3435 16.064 57.9955 15.976 57.4995 15.976H56.0355V18.064H57.4995Z" fill="#6B360D"/>
<g opacity="0.75">
<path d="M98 10C97.7239 10 97.5 10.2239 97.5 10.5V13.5H94.5C94.2239 13.5 94 13.7239 94 14C94 14.2761 94.2239 14.5 94.5 14.5H97.5V17.5C97.5 17.7761 97.7239 18 98 18C98.2761 18 98.5 17.7761 98.5 17.5V14.5H101.5C101.776 14.5 102 14.2761 102 14C102 13.7239 101.776 13.5 101.5 13.5H98.5V10.5C98.5 10.2239 98.2761 10 98 10Z" fill="#6B360D"/>
<path d="M100.828 11.1716C100.633 10.9763 100.317 10.9763 100.121 11.1716L99 12.2929C98.8047 12.4882 98.8047 12.8047 99 13C99.1953 13.1953 99.5119 13.1953 99.7071 13L100.828 11.8787C101.024 11.6834 101.024 11.3668 100.828 11.1716Z" fill="#6B360D"/>
<path d="M100.121 16.8286C100.317 17.0239 100.633 17.0239 100.828 16.8286C101.024 16.6333 101.024 16.3168 100.828 16.1215L99.7071 15.0002C99.5119 14.8049 99.1953 14.8049 99 15.0002C98.8047 15.1954 98.8047 15.512 99 15.7073L100.121 16.8286Z" fill="#6B360D"/>
<path d="M97.0156 12.3085C97.2109 12.5038 97.2109 12.8204 97.0156 13.0156C96.8204 13.2109 96.5038 13.2109 96.3085 13.0156L95.1716 11.8787C94.9763 11.6834 94.9763 11.3668 95.1716 11.1716C95.3668 10.9763 95.6834 10.9763 95.8787 11.1716L97.0156 12.3085Z" fill="#6B360D"/>
<path d="M97.0156 14.9846C97.2109 15.1798 97.2109 15.4964 97.0156 15.6917L95.8787 16.8286C95.6834 17.0239 95.3668 17.0239 95.1716 16.8286C94.9763 16.6333 94.9763 16.3168 95.1716 16.1215L96.3085 14.9846C96.5038 14.7893 96.8204 14.7893 97.0156 14.9846Z" fill="#6B360D"/>
</g>
<path opacity="0.75" d="M98.036 45.26C98.796 45.26 99.392 45.452 99.824 45.836C100.256 46.22 100.472 46.752 100.472 47.432V47.828C100.472 48.54 100.24 49.104 99.776 49.52C99.32 49.928 98.696 50.132 97.904 50.132C97.112 50.132 96.484 49.94 96.02 49.556C95.556 49.172 95.324 48.648 95.324 47.984V47.756H96.176V47.984C96.176 48.408 96.332 48.74 96.644 48.98C96.956 49.22 97.376 49.34 97.904 49.34C98.432 49.34 98.848 49.208 99.152 48.944C99.456 48.68 99.608 48.312 99.608 47.84V47.456C99.608 47 99.452 46.644 99.14 46.388C98.836 46.132 98.408 46.004 97.856 46.004H96.872V45.32L99.32 42.908H95.456V42.128H100.436V42.908L98.036 45.26Z" fill="#6B360D"/>
<path d="M13.962 50V37.4H18.876C19.98 37.4 20.922 37.574 21.702 37.922C22.482 38.27 23.082 38.774 23.502 39.434C23.922 40.094 24.132 40.88 24.132 41.792C24.132 42.704 23.922 43.49 23.502 44.15C23.082 44.798 22.482 45.302 21.702 45.662C20.922 46.01 19.98 46.184 18.876 46.184H14.952L15.762 45.338V50H13.962ZM15.762 45.518L14.952 44.618H18.822C19.974 44.618 20.844 44.372 21.432 43.88C22.032 43.388 22.332 42.692 22.332 41.792C22.332 40.892 22.032 40.196 21.432 39.704C20.844 39.212 19.974 38.966 18.822 38.966H14.952L15.762 38.066V45.518ZM30.3987 50.108C29.4387 50.108 28.5867 49.898 27.8427 49.478C27.0987 49.058 26.5107 48.482 26.0787 47.75C25.6467 47.006 25.4307 46.166 25.4307 45.23C25.4307 44.282 25.6467 43.442 26.0787 42.71C26.5107 41.978 27.0987 41.408 27.8427 41C28.5867 40.58 29.4387 40.37 30.3987 40.37C31.3467 40.37 32.1927 40.58 32.9367 41C33.6927 41.408 34.2807 41.978 34.7007 42.71C35.1327 43.43 35.3487 44.27 35.3487 45.23C35.3487 46.178 35.1327 47.018 34.7007 47.75C34.2807 48.482 33.6927 49.058 32.9367 49.478C32.1927 49.898 31.3467 50.108 30.3987 50.108ZM30.3987 48.596C31.0107 48.596 31.5567 48.458 32.0367 48.182C32.5287 47.906 32.9127 47.516 33.1887 47.012C33.4647 46.496 33.6027 45.902 33.6027 45.23C33.6027 44.546 33.4647 43.958 33.1887 43.466C32.9127 42.962 32.5287 42.572 32.0367 42.296C31.5567 42.02 31.0107 41.882 30.3987 41.882C29.7867 41.882 29.2407 42.02 28.7607 42.296C28.2807 42.572 27.8967 42.962 27.6087 43.466C27.3207 43.958 27.1767 44.546 27.1767 45.23C27.1767 45.902 27.3207 46.496 27.6087 47.012C27.8967 47.516 28.2807 47.906 28.7607 48.182C29.2407 48.458 29.7867 48.596 30.3987 48.596ZM36.1896 49.982L36.2976 48.524C36.3816 48.536 36.4596 48.548 36.5316 48.56C36.6036 48.572 36.6696 48.578 36.7296 48.578C37.1136 48.578 37.4136 48.446 37.6296 48.182C37.8576 47.918 38.0256 47.57 38.1336 47.138C38.2416 46.694 38.3196 46.196 38.3676 45.644C38.4156 45.092 38.4516 44.54 38.4756 43.988L38.6376 40.46H45.9636V50H44.2356V41.468L44.6496 41.972H39.7536L40.1496 41.45L40.0236 44.096C39.9876 44.936 39.9216 45.722 39.8256 46.454C39.7296 47.186 39.5796 47.828 39.3756 48.38C39.1836 48.932 38.9136 49.364 38.5656 49.676C38.2296 49.988 37.7916 50.144 37.2516 50.144C37.0956 50.144 36.9276 50.126 36.7476 50.09C36.5796 50.066 36.3936 50.03 36.1896 49.982ZM53.5529 50.108C52.5329 50.108 51.6329 49.898 50.8529 49.478C50.0849 49.058 49.4849 48.482 49.0529 47.75C48.6329 47.018 48.4229 46.178 48.4229 45.23C48.4229 44.282 48.6269 43.442 49.0349 42.71C49.4549 41.978 50.0249 41.408 50.7449 41C51.4769 40.58 52.2989 40.37 53.2109 40.37C54.1349 40.37 54.9509 40.574 55.6589 40.982C56.3669 41.39 56.9189 41.966 57.3149 42.71C57.7229 43.442 57.9269 44.3 57.9269 45.284C57.9269 45.356 57.9209 45.44 57.9089 45.536C57.9089 45.632 57.9029 45.722 57.8909 45.806H49.7729V44.564H56.9909L56.2889 44.996C56.3009 44.384 56.1749 43.838 55.9109 43.358C55.6469 42.878 55.2809 42.506 54.8129 42.242C54.3569 41.966 53.8229 41.828 53.2109 41.828C52.6109 41.828 52.0769 41.966 51.6089 42.242C51.1409 42.506 50.7749 42.884 50.5109 43.376C50.2469 43.856 50.1149 44.408 50.1149 45.032V45.32C50.1149 45.956 50.2589 46.526 50.5469 47.03C50.8469 47.522 51.2609 47.906 51.7889 48.182C52.3169 48.458 52.9229 48.596 53.6069 48.596C54.1709 48.596 54.6809 48.5 55.1369 48.308C55.6049 48.116 56.0129 47.828 56.3609 47.444L57.3149 48.56C56.8829 49.064 56.3429 49.448 55.6949 49.712C55.0589 49.976 54.3449 50.108 53.5529 50.108ZM60.6076 50V40.46H65.0356C66.1516 40.46 67.0276 40.676 67.6636 41.108C68.3116 41.528 68.6356 42.128 68.6356 42.908C68.6356 43.688 68.3296 44.294 67.7176 44.726C67.1176 45.146 66.3196 45.356 65.3236 45.356L65.5936 44.888C66.7336 44.888 67.5796 45.098 68.1316 45.518C68.6836 45.938 68.9596 46.556 68.9596 47.372C68.9596 48.2 68.6476 48.848 68.0236 49.316C67.4116 49.772 66.4696 50 65.1976 50H60.6076ZM62.2996 48.668H65.0716C65.7916 48.668 66.3316 48.56 66.6916 48.344C67.0516 48.116 67.2316 47.756 67.2316 47.264C67.2316 46.76 67.0636 46.394 66.7276 46.166C66.4036 45.926 65.8876 45.806 65.1796 45.806H62.2996V48.668ZM62.2996 44.564H64.8916C65.5516 44.564 66.0496 44.444 66.3856 44.204C66.7336 43.952 66.9076 43.604 66.9076 43.16C66.9076 42.704 66.7336 42.362 66.3856 42.134C66.0496 41.906 65.5516 41.792 64.8916 41.792H62.2996V44.564ZM77.5142 50V47.984L77.4242 47.606V44.168C77.4242 43.436 77.2082 42.872 76.7762 42.476C76.3562 42.068 75.7202 41.864 74.8682 41.864C74.3042 41.864 73.7522 41.96 73.2122 42.152C72.6722 42.332 72.2162 42.578 71.8442 42.89L71.1242 41.594C71.6162 41.198 72.2042 40.898 72.8882 40.694C73.5842 40.478 74.3102 40.37 75.0662 40.37C76.3742 40.37 77.3822 40.688 78.0902 41.324C78.7982 41.96 79.1522 42.932 79.1522 44.24V50H77.5142ZM74.3822 50.108C73.6742 50.108 73.0502 49.988 72.5102 49.748C71.9822 49.508 71.5742 49.178 71.2862 48.758C70.9982 48.326 70.8542 47.84 70.8542 47.3C70.8542 46.784 70.9742 46.316 71.2142 45.896C71.4662 45.476 71.8682 45.14 72.4202 44.888C72.9842 44.636 73.7402 44.51 74.6882 44.51H77.7122V45.752H74.7602C73.8962 45.752 73.3142 45.896 73.0142 46.184C72.7142 46.472 72.5642 46.82 72.5642 47.228C72.5642 47.696 72.7502 48.074 73.1222 48.362C73.4942 48.638 74.0102 48.776 74.6702 48.776C75.3182 48.776 75.8822 48.632 76.3622 48.344C76.8542 48.056 77.2082 47.636 77.4242 47.084L77.7662 48.272C77.5382 48.836 77.1362 49.286 76.5602 49.622C75.9842 49.946 75.2582 50.108 74.3822 50.108ZM88.3658 50V46.652L88.6358 46.976H85.5938C84.3218 46.976 83.3258 46.706 82.6058 46.166C81.8978 45.626 81.5438 44.84 81.5438 43.808C81.5438 42.704 81.9218 41.87 82.6778 41.306C83.4458 40.742 84.4658 40.46 85.7378 40.46H89.9138V50H88.3658ZM81.4538 50L84.0458 46.346H85.8278L83.3078 50H81.4538ZM88.3658 46.112V41.486L88.6358 41.972H85.7918C84.9998 41.972 84.3878 42.122 83.9558 42.422C83.5238 42.71 83.3078 43.19 83.3078 43.862C83.3078 45.11 84.1118 45.734 85.7198 45.734H88.6358L88.3658 46.112Z" fill="#6B360D"/>
<g opacity="0.75">
<rect width="2" height="4" transform="matrix(-1 0 0 1 19 14)" fill="#6B360D"/>
<rect width="2" height="2" transform="matrix(-1 0 0 1 15 16)" fill="#6B360D"/>
</g>
</g>
<g clip-path="url(#clip1_1401_51653)">
<rect width="180" height="60" transform="translate(116)" fill="white"/>
<g opacity="0.1">
<path d="M283.104 0.000488281H264.555L296 20.5757V8.43886L283.104 0.000488281Z" fill="#6B360D"/>
<path d="M296 38.7809L236.733 0.000488281H218.184L296 50.9177V38.7809Z" fill="#6B360D"/>
<path d="M282.058 60.0005L190.362 0.000488281H171.813L263.51 60.0005H282.058Z" fill="#6B360D"/>
<path d="M235.687 60.0005L143.99 0.000488281H125.442L217.139 60.0005H235.687Z" fill="#6B360D"/>
<path d="M189.316 60.0005L116 12.0276V24.1644L170.768 60.0005H189.316Z" fill="#6B360D"/>
<path d="M142.945 60.0005L116 42.3696V54.5064L124.396 60.0005H142.945Z" fill="#6B360D"/>
</g>
<rect opacity="0.6" x="116.5" y="0.5" width="179" height="59" rx="1.5" stroke="#6B360D"/>
<path opacity="0.75" d="M135.26 19.12C134.788 19.12 134.34 19.04 133.916 18.88C133.492 18.712 133.116 18.456 132.788 18.112C132.46 17.76 132.2 17.316 132.008 16.78C131.816 16.244 131.72 15.604 131.72 14.86V14.62C131.72 13.9 131.816 13.28 132.008 12.76C132.2 12.24 132.46 11.812 132.788 11.476C133.116 11.14 133.492 10.892 133.916 10.732C134.34 10.564 134.788 10.48 135.26 10.48C135.716 10.48 136.132 10.54 136.508 10.66C136.892 10.78 137.228 10.952 137.516 11.176C137.804 11.4 138.036 11.676 138.212 12.004C138.396 12.332 138.512 12.704 138.56 13.12H137.36C137.248 12.576 137.012 12.168 136.652 11.896C136.292 11.624 135.828 11.488 135.26 11.488C134.964 11.488 134.676 11.544 134.396 11.656C134.116 11.768 133.864 11.948 133.64 12.196C133.424 12.436 133.248 12.756 133.112 13.156C132.984 13.556 132.92 14.044 132.92 14.62V14.86C132.92 15.468 132.992 15.98 133.136 16.396C133.28 16.804 133.464 17.136 133.688 17.392C133.912 17.648 134.164 17.832 134.444 17.944C134.724 18.056 134.996 18.112 135.26 18.112C135.884 18.112 136.372 17.96 136.724 17.656C137.076 17.352 137.288 16.96 137.36 16.48H138.56C138.496 16.944 138.368 17.344 138.176 17.68C137.984 18.008 137.74 18.28 137.444 18.496C137.156 18.712 136.824 18.872 136.448 18.976C136.08 19.072 135.684 19.12 135.26 19.12ZM141.568 13.576H139.396V12.64H144.796V13.576H142.624V19H141.568V13.576ZM145.999 12.64H146.983V13.84C147.199 13.416 147.499 13.092 147.883 12.868C148.275 12.636 148.727 12.52 149.239 12.52C150.039 12.52 150.679 12.784 151.159 13.312C151.639 13.832 151.879 14.608 151.879 15.64V15.88C151.879 16.424 151.815 16.9 151.687 17.308C151.559 17.708 151.379 18.044 151.147 18.316C150.915 18.58 150.635 18.78 150.307 18.916C149.987 19.052 149.631 19.12 149.239 19.12C148.695 19.12 148.239 19 147.871 18.76C147.511 18.52 147.239 18.22 147.055 17.86V21.4H145.999V12.64ZM148.999 18.184C149.255 18.184 149.495 18.136 149.719 18.04C149.943 17.936 150.135 17.788 150.295 17.596C150.463 17.404 150.591 17.164 150.679 16.876C150.775 16.588 150.823 16.256 150.823 15.88V15.64C150.823 15.296 150.775 14.988 150.679 14.716C150.591 14.444 150.463 14.216 150.295 14.032C150.135 13.84 149.943 13.696 149.719 13.6C149.495 13.504 149.255 13.456 148.999 13.456C148.711 13.456 148.447 13.504 148.207 13.6C147.967 13.688 147.763 13.816 147.595 13.984C147.427 14.144 147.295 14.336 147.199 14.56C147.103 14.784 147.055 15.024 147.055 15.28V16.24C147.055 16.528 147.103 16.792 147.199 17.032C147.295 17.272 147.427 17.476 147.595 17.644C147.763 17.812 147.967 17.944 148.207 18.04C148.447 18.136 148.711 18.184 148.999 18.184ZM155.194 19.12C154.842 19.12 154.53 19.072 154.258 18.976C153.994 18.872 153.77 18.732 153.586 18.556C153.402 18.38 153.262 18.172 153.166 17.932C153.07 17.692 153.022 17.428 153.022 17.14C153.022 16.508 153.206 16.052 153.574 15.772C153.95 15.492 154.486 15.352 155.182 15.352H157.246V14.92C157.246 14.376 157.122 14 156.874 13.792C156.634 13.584 156.27 13.48 155.782 13.48C155.326 13.48 154.994 13.568 154.786 13.744C154.578 13.912 154.462 14.104 154.438 14.32H153.382C153.398 14.064 153.466 13.828 153.586 13.612C153.714 13.388 153.882 13.196 154.09 13.036C154.306 12.876 154.562 12.752 154.858 12.664C155.154 12.568 155.482 12.52 155.842 12.52C156.594 12.52 157.19 12.7 157.63 13.06C158.078 13.412 158.302 13.992 158.302 14.8V17.38C158.302 17.716 158.302 18.012 158.302 18.268C158.31 18.516 158.33 18.76 158.362 19H157.438C157.414 18.816 157.398 18.644 157.39 18.484C157.382 18.316 157.378 18.128 157.378 17.92C157.21 18.256 156.938 18.54 156.562 18.772C156.186 19.004 155.73 19.12 155.194 19.12ZM155.422 18.16C155.67 18.16 155.902 18.128 156.118 18.064C156.342 17.992 156.538 17.892 156.706 17.764C156.874 17.628 157.006 17.464 157.102 17.272C157.198 17.08 157.246 16.856 157.246 16.6V16.168H155.362C154.97 16.168 154.662 16.248 154.438 16.408C154.214 16.56 154.102 16.804 154.102 17.14C154.102 17.436 154.206 17.68 154.414 17.872C154.63 18.064 154.966 18.16 155.422 18.16ZM159.447 18.064H160.227C160.315 17.944 160.395 17.76 160.467 17.512C160.539 17.264 160.603 16.972 160.659 16.636C160.715 16.3 160.755 15.936 160.779 15.544C160.811 15.144 160.827 14.736 160.827 14.32V12.64H165.267V18.064H166.167V20.5H165.159V19H160.455V20.5H159.447V18.064ZM164.211 18.064V13.576H161.859V14.56C161.859 14.896 161.847 15.232 161.823 15.568C161.799 15.896 161.763 16.212 161.715 16.516C161.667 16.812 161.607 17.096 161.535 17.368C161.471 17.632 161.395 17.864 161.307 18.064H164.211ZM169.362 19.12C169.01 19.12 168.698 19.072 168.426 18.976C168.162 18.872 167.938 18.732 167.754 18.556C167.57 18.38 167.43 18.172 167.334 17.932C167.238 17.692 167.19 17.428 167.19 17.14C167.19 16.508 167.374 16.052 167.742 15.772C168.118 15.492 168.654 15.352 169.35 15.352H171.414V14.92C171.414 14.376 171.29 14 171.042 13.792C170.802 13.584 170.438 13.48 169.95 13.48C169.494 13.48 169.162 13.568 168.954 13.744C168.746 13.912 168.63 14.104 168.606 14.32H167.55C167.566 14.064 167.634 13.828 167.754 13.612C167.882 13.388 168.05 13.196 168.258 13.036C168.474 12.876 168.73 12.752 169.026 12.664C169.322 12.568 169.65 12.52 170.01 12.52C170.762 12.52 171.358 12.7 171.798 13.06C172.246 13.412 172.47 13.992 172.47 14.8V17.38C172.47 17.716 172.47 18.012 172.47 18.268C172.478 18.516 172.498 18.76 172.53 19H171.606C171.582 18.816 171.566 18.644 171.558 18.484C171.55 18.316 171.546 18.128 171.546 17.92C171.378 18.256 171.106 18.54 170.73 18.772C170.354 19.004 169.898 19.12 169.362 19.12ZM169.59 18.16C169.838 18.16 170.07 18.128 170.286 18.064C170.51 17.992 170.706 17.892 170.874 17.764C171.042 17.628 171.174 17.464 171.27 17.272C171.366 17.08 171.414 16.856 171.414 16.6V16.168H169.53C169.138 16.168 168.83 16.248 168.606 16.408C168.382 16.56 168.27 16.804 168.27 17.14C168.27 17.436 168.374 17.68 168.582 17.872C168.798 18.064 169.134 18.16 169.59 18.16ZM174.335 12.64H175.391V15.292H176.291C176.323 14.836 176.423 14.436 176.591 14.092C176.759 13.74 176.971 13.448 177.227 13.216C177.491 12.984 177.791 12.812 178.127 12.7C178.463 12.58 178.819 12.52 179.195 12.52C179.603 12.52 179.983 12.588 180.335 12.724C180.695 12.852 181.007 13.048 181.271 13.312C181.535 13.568 181.743 13.892 181.895 14.284C182.055 14.676 182.135 15.128 182.135 15.64V15.88C182.135 16.424 182.055 16.9 181.895 17.308C181.743 17.716 181.535 18.056 181.271 18.328C181.007 18.592 180.695 18.792 180.335 18.928C179.983 19.056 179.603 19.12 179.195 19.12C178.819 19.12 178.459 19.064 178.115 18.952C177.779 18.832 177.479 18.652 177.215 18.412C176.959 18.172 176.747 17.872 176.579 17.512C176.419 17.144 176.323 16.716 176.291 16.228H175.391V19H174.335V12.64ZM179.195 18.16C179.435 18.16 179.667 18.12 179.891 18.04C180.115 17.952 180.311 17.82 180.479 17.644C180.655 17.46 180.795 17.224 180.899 16.936C181.003 16.648 181.055 16.296 181.055 15.88V15.64C181.055 15.256 181.003 14.928 180.899 14.656C180.795 14.384 180.655 14.16 180.479 13.984C180.311 13.808 180.115 13.68 179.891 13.6C179.667 13.52 179.435 13.48 179.195 13.48C178.955 13.48 178.723 13.52 178.499 13.6C178.275 13.68 178.075 13.808 177.899 13.984C177.731 14.16 177.595 14.384 177.491 14.656C177.387 14.928 177.335 15.256 177.335 15.64V15.88C177.335 16.296 177.387 16.648 177.491 16.936C177.595 17.224 177.731 17.46 177.899 17.644C178.075 17.82 178.275 17.952 178.499 18.04C178.723 18.12 178.955 18.16 179.195 18.16Z" fill="#6B360D"/>
<g opacity="0.75">
<rect opacity="0.25" x="125" y="10" width="2" height="8" fill="#6B360D"/>
<rect x="125" y="16" width="2" height="2" fill="#6B360D"/>
</g>
<g opacity="0.75">
<path d="M285.535 17.5354C285.731 17.3401 285.731 17.0235 285.535 16.8283L282.707 13.9999L285.535 11.1714C285.731 10.9762 285.731 10.6596 285.535 10.4643C285.34 10.2691 285.024 10.2691 284.828 10.4643L282 13.2927L279.171 10.4643C278.976 10.2691 278.66 10.2691 278.464 10.4643C278.269 10.6596 278.269 10.9762 278.464 11.1714L281.293 13.9999L278.464 16.8283C278.269 17.0235 278.269 17.3401 278.464 17.5354C278.66 17.7307 278.976 17.7307 279.171 17.5354L282 14.707L284.828 17.5354C285.024 17.7306 285.34 17.7306 285.535 17.5354Z" fill="#6B360D"/>
</g>
<path opacity="0.75" d="M285.215 48.188H283.835V50H282.971V48.188H278.999V47.384C279.415 46.48 279.759 45.608 280.031 44.768C280.303 43.928 280.519 43.048 280.679 42.128H281.567V42.272C281.247 44 280.707 45.704 279.947 47.384H282.971V43.544H283.835V47.384H285.215V48.188Z" fill="#6B360D"/>
<path d="M125.962 50V37.4H135.466V38.93H127.744V42.53H131.668C133.168 42.53 134.308 42.842 135.088 43.466C135.868 44.09 136.258 44.996 136.258 46.184C136.258 47.408 135.832 48.35 134.98 49.01C134.14 49.67 132.934 50 131.362 50H125.962ZM127.744 48.578H131.29C132.334 48.578 133.12 48.38 133.648 47.984C134.188 47.588 134.458 47 134.458 46.22C134.458 44.708 133.402 43.952 131.29 43.952H127.744V48.578ZM142.926 50.108C141.966 50.108 141.114 49.898 140.37 49.478C139.626 49.058 139.038 48.482 138.606 47.75C138.174 47.006 137.958 46.166 137.958 45.23C137.958 44.282 138.174 43.442 138.606 42.71C139.038 41.978 139.626 41.408 140.37 41C141.114 40.58 141.966 40.37 142.926 40.37C143.874 40.37 144.72 40.58 145.464 41C146.22 41.408 146.808 41.978 147.228 42.71C147.66 43.43 147.876 44.27 147.876 45.23C147.876 46.178 147.66 47.018 147.228 47.75C146.808 48.482 146.22 49.058 145.464 49.478C144.72 49.898 143.874 50.108 142.926 50.108ZM142.926 48.596C143.538 48.596 144.084 48.458 144.564 48.182C145.056 47.906 145.44 47.516 145.716 47.012C145.992 46.496 146.13 45.902 146.13 45.23C146.13 44.546 145.992 43.958 145.716 43.466C145.44 42.962 145.056 42.572 144.564 42.296C144.084 42.02 143.538 41.882 142.926 41.882C142.314 41.882 141.768 42.02 141.288 42.296C140.808 42.572 140.424 42.962 140.136 43.466C139.848 43.958 139.704 44.546 139.704 45.23C139.704 45.902 139.848 46.496 140.136 47.012C140.424 47.516 140.808 47.906 141.288 48.182C141.768 48.458 142.314 48.596 142.926 48.596ZM148.717 49.982L148.825 48.524C148.909 48.536 148.987 48.548 149.059 48.56C149.131 48.572 149.197 48.578 149.257 48.578C149.641 48.578 149.941 48.446 150.157 48.182C150.385 47.918 150.553 47.57 150.661 47.138C150.769 46.694 150.847 46.196 150.895 45.644C150.943 45.092 150.979 44.54 151.003 43.988L151.165 40.46H158.491V50H156.763V41.468L157.177 41.972H152.281L152.677 41.45L152.551 44.096C152.515 44.936 152.449 45.722 152.353 46.454C152.257 47.186 152.107 47.828 151.903 48.38C151.711 48.932 151.441 49.364 151.093 49.676C150.757 49.988 150.319 50.144 149.779 50.144C149.623 50.144 149.455 50.126 149.275 50.09C149.107 50.066 148.921 50.03 148.717 49.982ZM166.08 50.108C165.06 50.108 164.16 49.898 163.38 49.478C162.612 49.058 162.012 48.482 161.58 47.75C161.16 47.018 160.95 46.178 160.95 45.23C160.95 44.282 161.154 43.442 161.562 42.71C161.982 41.978 162.552 41.408 163.272 41C164.004 40.58 164.826 40.37 165.738 40.37C166.662 40.37 167.478 40.574 168.186 40.982C168.894 41.39 169.446 41.966 169.842 42.71C170.25 43.442 170.454 44.3 170.454 45.284C170.454 45.356 170.448 45.44 170.436 45.536C170.436 45.632 170.43 45.722 170.418 45.806H162.3V44.564H169.518L168.816 44.996C168.828 44.384 168.702 43.838 168.438 43.358C168.174 42.878 167.808 42.506 167.34 42.242C166.884 41.966 166.35 41.828 165.738 41.828C165.138 41.828 164.604 41.966 164.136 42.242C163.668 42.506 163.302 42.884 163.038 43.376C162.774 43.856 162.642 44.408 162.642 45.032V45.32C162.642 45.956 162.786 46.526 163.074 47.03C163.374 47.522 163.788 47.906 164.316 48.182C164.844 48.458 165.45 48.596 166.134 48.596C166.698 48.596 167.208 48.5 167.664 48.308C168.132 48.116 168.54 47.828 168.888 47.444L169.842 48.56C169.41 49.064 168.87 49.448 168.222 49.712C167.586 49.976 166.872 50.108 166.08 50.108ZM173.135 50V40.46H177.563C178.679 40.46 179.555 40.676 180.191 41.108C180.839 41.528 181.163 42.128 181.163 42.908C181.163 43.688 180.857 44.294 180.245 44.726C179.645 45.146 178.847 45.356 177.851 45.356L178.121 44.888C179.261 44.888 180.107 45.098 180.659 45.518C181.211 45.938 181.487 46.556 181.487 47.372C181.487 48.2 181.175 48.848 180.551 49.316C179.939 49.772 178.997 50 177.725 50H173.135ZM174.827 48.668H177.599C178.319 48.668 178.859 48.56 179.219 48.344C179.579 48.116 179.759 47.756 179.759 47.264C179.759 46.76 179.591 46.394 179.255 46.166C178.931 45.926 178.415 45.806 177.707 45.806H174.827V48.668ZM174.827 44.564H177.419C178.079 44.564 178.577 44.444 178.913 44.204C179.261 43.952 179.435 43.604 179.435 43.16C179.435 42.704 179.261 42.362 178.913 42.134C178.577 41.906 178.079 41.792 177.419 41.792H174.827V44.564ZM190.042 50V47.984L189.952 47.606V44.168C189.952 43.436 189.736 42.872 189.304 42.476C188.884 42.068 188.248 41.864 187.396 41.864C186.832 41.864 186.28 41.96 185.74 42.152C185.2 42.332 184.744 42.578 184.372 42.89L183.652 41.594C184.144 41.198 184.732 40.898 185.416 40.694C186.112 40.478 186.838 40.37 187.594 40.37C188.902 40.37 189.91 40.688 190.618 41.324C191.326 41.96 191.68 42.932 191.68 44.24V50H190.042ZM186.91 50.108C186.202 50.108 185.578 49.988 185.038 49.748C184.51 49.508 184.102 49.178 183.814 48.758C183.526 48.326 183.382 47.84 183.382 47.3C183.382 46.784 183.502 46.316 183.742 45.896C183.994 45.476 184.396 45.14 184.948 44.888C185.512 44.636 186.268 44.51 187.216 44.51H190.24V45.752H187.288C186.424 45.752 185.842 45.896 185.542 46.184C185.242 46.472 185.092 46.82 185.092 47.228C185.092 47.696 185.278 48.074 185.65 48.362C186.022 48.638 186.538 48.776 187.198 48.776C187.846 48.776 188.41 48.632 188.89 48.344C189.382 48.056 189.736 47.636 189.952 47.084L190.294 48.272C190.066 48.836 189.664 49.286 189.088 49.622C188.512 49.946 187.786 50.108 186.91 50.108ZM200.893 50V46.652L201.163 46.976H198.121C196.849 46.976 195.853 46.706 195.133 46.166C194.425 45.626 194.071 44.84 194.071 43.808C194.071 42.704 194.449 41.87 195.205 41.306C195.973 40.742 196.993 40.46 198.265 40.46H202.441V50H200.893ZM193.981 50L196.573 46.346H198.355L195.835 50H193.981ZM200.893 46.112V41.486L201.163 41.972H198.319C197.527 41.972 196.915 42.122 196.483 42.422C196.051 42.71 195.835 43.19 195.835 43.862C195.835 45.11 196.639 45.734 198.247 45.734H201.163L200.893 46.112Z" fill="#6B360D"/>
</g>
<defs>
<linearGradient id="paint0_linear_1401_51653" x1="150" y1="64" x2="150" y2="40" gradientUnits="userSpaceOnUse">
<stop stop-color="white"/>
<stop offset="1" stop-color="white" stop-opacity="0"/>
</linearGradient>
<clipPath id="clip0_1401_51653">
<rect width="108" height="60" fill="white" transform="translate(4)"/>
</clipPath>
<clipPath id="clip1_1401_51653">
<rect width="180" height="60" fill="white" transform="translate(116)"/>
</clipPath>
</defs>
</svg>
