<svg width="300" height="64" viewBox="0 0 300 64" fill="none" xmlns="http://www.w3.org/2000/svg">
<g opacity="0.25">
<mask id="mask0_1401_51625" style="mask-type:alpha" maskUnits="userSpaceOnUse" x="0" y="40" width="300" height="24">
<path d="M0 62C0 63.1046 0.895431 64 2 64H298C299.105 64 300 63.1046 300 62V42C300 40.8954 299.105 40 298 40H2C0.895429 40 0 40.8954 0 42V62Z" fill="url(#paint0_linear_1401_51625)"/>
</mask>
<g mask="url(#mask0_1401_51625)">
<path d="M2 63.5H298C298.828 63.5 299.5 62.8284 299.5 62V42C299.5 41.1716 298.828 40.5 298 40.5H2C1.17157 40.5 0.5 41.1716 0.5 42V62C0.5 62.8284 1.17157 63.5 2 63.5Z" stroke="#6B360D"/>
</g>
</g>
<g clip-path="url(#clip0_1401_51625)">
<rect opacity="0.75" width="108" height="60" rx="2" transform="matrix(-1 0 0 1 112 0)" fill="#6B360D"/>
<path opacity="0.75" d="M27.2 10.6H32.66V11.572H28.328V13.96H30.2C30.752 13.96 31.232 14.02 31.64 14.14C32.048 14.26 32.384 14.432 32.648 14.656C32.92 14.88 33.12 15.148 33.248 15.46C33.376 15.764 33.44 16.104 33.44 16.48C33.44 16.856 33.376 17.2 33.248 17.512C33.12 17.816 32.92 18.08 32.648 18.304C32.384 18.528 32.048 18.7 31.64 18.82C31.232 18.94 30.752 19 30.2 19H27.2V10.6ZM30.14 18.016C30.94 18.016 31.5 17.884 31.82 17.62C32.148 17.348 32.312 16.968 32.312 16.48C32.312 15.992 32.148 15.616 31.82 15.352C31.5 15.08 30.94 14.944 30.14 14.944H28.328V18.016H30.14ZM37.5805 19.12C37.1725 19.12 36.7845 19.056 36.4165 18.928C36.0485 18.8 35.7245 18.604 35.4445 18.34C35.1645 18.068 34.9405 17.728 34.7725 17.32C34.6045 16.912 34.5205 16.432 34.5205 15.88V15.64C34.5205 15.112 34.6005 14.656 34.7605 14.272C34.9205 13.88 35.1325 13.556 35.3965 13.3C35.6685 13.036 35.9805 12.84 36.3325 12.712C36.6925 12.584 37.0685 12.52 37.4605 12.52C38.3965 12.52 39.1205 12.776 39.6325 13.288C40.1445 13.8 40.4005 14.524 40.4005 15.46V16.132H35.5765C35.5765 16.508 35.6365 16.824 35.7565 17.08C35.8765 17.336 36.0325 17.544 36.2245 17.704C36.4165 17.864 36.6285 17.98 36.8605 18.052C37.1005 18.124 37.3405 18.16 37.5805 18.16C38.0605 18.16 38.4285 18.08 38.6845 17.92C38.9485 17.76 39.1365 17.54 39.2485 17.26H40.2805C40.2165 17.564 40.1005 17.832 39.9325 18.064C39.7725 18.296 39.5725 18.492 39.3325 18.652C39.1005 18.804 38.8325 18.92 38.5285 19C38.2325 19.08 37.9165 19.12 37.5805 19.12ZM37.5205 13.48C37.2725 13.48 37.0325 13.516 36.8005 13.588C36.5685 13.652 36.3605 13.76 36.1765 13.912C36.0005 14.056 35.8565 14.24 35.7445 14.464C35.6325 14.688 35.5765 14.956 35.5765 15.268H39.4045C39.3965 14.94 39.3405 14.664 39.2365 14.44C39.1405 14.208 39.0085 14.024 38.8405 13.888C38.6725 13.744 38.4725 13.64 38.2405 13.576C38.0165 13.512 37.7765 13.48 37.5205 13.48ZM44.3614 19.12C43.9534 19.12 43.5734 19.056 43.2214 18.928C42.8694 18.792 42.5654 18.592 42.3094 18.328C42.0534 18.056 41.8494 17.716 41.6974 17.308C41.5534 16.9 41.4814 16.424 41.4814 15.88V15.64C41.4814 15.128 41.5614 14.676 41.7214 14.284C41.8814 13.892 42.0934 13.568 42.3574 13.312C42.6214 13.048 42.9254 12.852 43.2694 12.724C43.6214 12.588 43.9854 12.52 44.3614 12.52C44.7374 12.52 45.0734 12.572 45.3694 12.676C45.6734 12.78 45.9334 12.924 46.1494 13.108C46.3734 13.292 46.5534 13.508 46.6894 13.756C46.8334 14.004 46.9374 14.272 47.0014 14.56H45.9214C45.8574 14.408 45.7814 14.268 45.6934 14.14C45.6134 14.004 45.5094 13.888 45.3814 13.792C45.2614 13.696 45.1174 13.62 44.9494 13.564C44.7814 13.508 44.5854 13.48 44.3614 13.48C44.1294 13.48 43.9054 13.524 43.6894 13.612C43.4734 13.692 43.2814 13.82 43.1134 13.996C42.9454 14.164 42.8094 14.384 42.7054 14.656C42.6094 14.928 42.5614 15.256 42.5614 15.64V15.88C42.5614 16.288 42.6094 16.64 42.7054 16.936C42.8094 17.224 42.9454 17.46 43.1134 17.644C43.2814 17.82 43.4734 17.952 43.6894 18.04C43.9054 18.12 44.1294 18.16 44.3614 18.16C44.7534 18.16 45.0814 18.064 45.3454 17.872C45.6174 17.68 45.8094 17.416 45.9214 17.08H47.0014C46.8494 17.712 46.5374 18.212 46.0654 18.58C45.5934 18.94 45.0254 19.12 44.3614 19.12ZM48.4405 12.64H49.4965V17.44L52.7845 12.64H53.8405V19H52.7845V14.2L49.4965 19H48.4405V12.64ZM57.2167 13.576H55.0447V12.64H60.4447V13.576H58.2727V19H57.2167V13.576Z" fill="white"/>
<g opacity="0.75">
<path d="M94.5 10.5C94.5 10.2239 94.7239 10 95 10C95.2761 10 95.5 10.2239 95.5 10.5V17.5C95.5 17.7761 95.2761 18 95 18C94.7239 18 94.5 17.7761 94.5 17.5V10.5Z" fill="white"/>
<path d="M97.5 10.5C97.5 10.2239 97.7239 10 98 10C98.2761 10 98.5 10.2239 98.5 10.5V17.5C98.5 17.7761 98.2761 18 98 18C97.7239 18 97.5 17.7761 97.5 17.5V10.5Z" fill="white"/>
<path d="M101 10C100.724 10 100.5 10.2239 100.5 10.5V17.5C100.5 17.7761 100.724 18 101 18C101.276 18 101.5 17.7761 101.5 17.5V10.5C101.5 10.2239 101.276 10 101 10Z" fill="white"/>
</g>
<path opacity="0.75" d="M100.357 42.128V42.908C98.725 45.508 97.909 47.776 97.909 49.712V50H97.045V49.712C97.045 48.784 97.253 47.728 97.669 46.544C98.085 45.352 98.673 44.14 99.433 42.908H95.413V42.128H100.357Z" fill="white"/>
<path d="M12.576 48.632L13.206 47.3C13.758 47.732 14.364 48.056 15.024 48.272C15.696 48.488 16.362 48.602 17.022 48.614C17.682 48.614 18.288 48.524 18.84 48.344C19.404 48.164 19.854 47.894 20.19 47.534C20.526 47.174 20.694 46.73 20.694 46.202C20.694 45.554 20.43 45.062 19.902 44.726C19.386 44.39 18.666 44.222 17.742 44.222H14.934V42.764H17.616C18.42 42.764 19.044 42.602 19.488 42.278C19.944 41.942 20.172 41.48 20.172 40.892C20.172 40.448 20.034 40.076 19.758 39.776C19.494 39.464 19.128 39.23 18.66 39.074C18.204 38.918 17.682 38.84 17.094 38.84C16.518 38.828 15.924 38.906 15.312 39.074C14.7 39.23 14.112 39.482 13.548 39.83L12.972 38.354C13.74 37.922 14.538 37.622 15.366 37.454C16.206 37.274 17.016 37.22 17.796 37.292C18.576 37.352 19.278 37.532 19.902 37.832C20.538 38.12 21.042 38.504 21.414 38.984C21.798 39.452 21.99 40.016 21.99 40.676C21.99 41.276 21.834 41.81 21.522 42.278C21.21 42.734 20.778 43.088 20.226 43.34C19.674 43.58 19.032 43.7 18.3 43.7L18.372 43.214C19.212 43.214 19.938 43.352 20.55 43.628C21.174 43.892 21.654 44.27 21.99 44.762C22.338 45.254 22.512 45.824 22.512 46.472C22.512 47.084 22.356 47.63 22.044 48.11C21.732 48.578 21.306 48.974 20.766 49.298C20.238 49.61 19.632 49.838 18.948 49.982C18.276 50.126 17.568 50.174 16.824 50.126C16.08 50.078 15.342 49.934 14.61 49.694C13.89 49.454 13.212 49.1 12.576 48.632ZM31.0728 50V47.984L30.9828 47.606V44.168C30.9828 43.436 30.7668 42.872 30.3348 42.476C29.9148 42.068 29.2788 41.864 28.4268 41.864C27.8628 41.864 27.3108 41.96 26.7708 42.152C26.2308 42.332 25.7748 42.578 25.4028 42.89L24.6828 41.594C25.1748 41.198 25.7628 40.898 26.4468 40.694C27.1428 40.478 27.8688 40.37 28.6248 40.37C29.9328 40.37 30.9408 40.688 31.6488 41.324C32.3568 41.96 32.7108 42.932 32.7108 44.24V50H31.0728ZM27.9408 50.108C27.2328 50.108 26.6088 49.988 26.0688 49.748C25.5408 49.508 25.1328 49.178 24.8448 48.758C24.5568 48.326 24.4128 47.84 24.4128 47.3C24.4128 46.784 24.5328 46.316 24.7728 45.896C25.0248 45.476 25.4268 45.14 25.9788 44.888C26.5428 44.636 27.2988 44.51 28.2468 44.51H31.2708V45.752H28.3188C27.4548 45.752 26.8728 45.896 26.5728 46.184C26.2728 46.472 26.1228 46.82 26.1228 47.228C26.1228 47.696 26.3088 48.074 26.6808 48.362C27.0528 48.638 27.5688 48.776 28.2288 48.776C28.8768 48.776 29.4408 48.632 29.9208 48.344C30.4128 48.056 30.7668 47.636 30.9828 47.084L31.3248 48.272C31.0968 48.836 30.6948 49.286 30.1188 49.622C29.5428 49.946 28.8168 50.108 27.9408 50.108ZM42.1584 48.488L41.7624 48.938V40.46H43.4904V48.938L43.0584 48.488H48.0984L47.6844 48.938V40.46H49.4124V50H35.8224V40.46H37.5504V48.938L37.1364 48.488H42.1584ZM49.1964 52.034V49.55L49.6104 50H47.5944V48.488H50.8164V52.034H49.1964ZM52.7678 50V40.46H54.4958V47.408L60.3457 40.46H61.9118V50H60.1837V43.052L54.3518 50H52.7678ZM67.1558 50V41.522L67.5878 41.972H63.6638V40.46H72.3758V41.972H68.4698L68.8838 41.522V50H67.1558ZM79.9928 50V47.984L79.9028 47.606V44.168C79.9028 43.436 79.6868 42.872 79.2548 42.476C78.8348 42.068 78.1988 41.864 77.3468 41.864C76.7828 41.864 76.2308 41.96 75.6908 42.152C75.1508 42.332 74.6948 42.578 74.3228 42.89L73.6028 41.594C74.0948 41.198 74.6828 40.898 75.3668 40.694C76.0628 40.478 76.7888 40.37 77.5448 40.37C78.8528 40.37 79.8608 40.688 80.5688 41.324C81.2768 41.96 81.6308 42.932 81.6308 44.24V50H79.9928ZM76.8608 50.108C76.1528 50.108 75.5288 49.988 74.9888 49.748C74.4608 49.508 74.0528 49.178 73.7648 48.758C73.4768 48.326 73.3328 47.84 73.3328 47.3C73.3328 46.784 73.4528 46.316 73.6928 45.896C73.9448 45.476 74.3468 45.14 74.8988 44.888C75.4628 44.636 76.2188 44.51 77.1668 44.51H80.1908V45.752H77.2388C76.3748 45.752 75.7928 45.896 75.4928 46.184C75.1928 46.472 75.0428 46.82 75.0428 47.228C75.0428 47.696 75.2288 48.074 75.6008 48.362C75.9728 48.638 76.4888 48.776 77.1488 48.776C77.7968 48.776 78.3608 48.632 78.8408 48.344C79.3328 48.056 79.6868 47.636 79.9028 47.084L80.2448 48.272C80.0168 48.836 79.6148 49.286 79.0388 49.622C78.4628 49.946 77.7368 50.108 76.8608 50.108Z" fill="white"/>
<g opacity="0.75">
<rect width="2" height="6" transform="matrix(-1 0 0 1 22 12)" fill="white"/>
<rect width="2" height="4" transform="matrix(-1 0 0 1 18 14)" fill="white"/>
<rect width="2" height="2" transform="matrix(-1 0 0 1 14 16)" fill="white"/>
</g>
</g>
<g clip-path="url(#clip1_1401_51625)">
<rect opacity="0.75" width="180" height="60" rx="2" transform="matrix(-1 0 0 1 296 0)" fill="#6B360D"/>
<path opacity="0.75" d="M144.24 18.016H145.14C145.292 17.712 145.42 17.336 145.524 16.888C145.628 16.44 145.708 15.96 145.764 15.448C145.82 14.928 145.86 14.396 145.884 13.852C145.908 13.3 145.92 12.776 145.92 12.28V10.6H151.38V18.016H152.4V20.56H151.32V19H145.32V20.56H144.24V18.016ZM150.252 18.016V11.584H147.024V12.52C147.024 13.736 146.968 14.788 146.856 15.676C146.752 16.564 146.58 17.344 146.34 18.016H150.252ZM156.248 19.12C155.84 19.12 155.452 19.056 155.084 18.928C154.716 18.8 154.392 18.604 154.112 18.34C153.832 18.068 153.608 17.728 153.44 17.32C153.272 16.912 153.188 16.432 153.188 15.88V15.64C153.188 15.112 153.268 14.656 153.428 14.272C153.588 13.88 153.8 13.556 154.064 13.3C154.336 13.036 154.648 12.84 155 12.712C155.36 12.584 155.736 12.52 156.128 12.52C157.064 12.52 157.788 12.776 158.3 13.288C158.812 13.8 159.068 14.524 159.068 15.46V16.132H154.244C154.244 16.508 154.304 16.824 154.424 17.08C154.544 17.336 154.7 17.544 154.892 17.704C155.084 17.864 155.296 17.98 155.528 18.052C155.768 18.124 156.008 18.16 156.248 18.16C156.728 18.16 157.096 18.08 157.352 17.92C157.616 17.76 157.804 17.54 157.916 17.26H158.948C158.884 17.564 158.768 17.832 158.6 18.064C158.44 18.296 158.24 18.492 158 18.652C157.768 18.804 157.5 18.92 157.196 19C156.9 19.08 156.584 19.12 156.248 19.12ZM156.188 13.48C155.94 13.48 155.7 13.516 155.468 13.588C155.236 13.652 155.028 13.76 154.844 13.912C154.668 14.056 154.524 14.24 154.412 14.464C154.3 14.688 154.244 14.956 154.244 15.268H158.072C158.064 14.94 158.008 14.664 157.904 14.44C157.808 14.208 157.676 14.024 157.508 13.888C157.34 13.744 157.14 13.64 156.908 13.576C156.684 13.512 156.444 13.48 156.188 13.48ZM160.152 19.12C160.032 19.12 159.912 19.108 159.792 19.084V18.028C159.832 18.036 159.892 18.04 159.972 18.04C160.148 18.04 160.3 17.984 160.428 17.872C160.564 17.76 160.672 17.564 160.752 17.284C160.832 17.004 160.892 16.624 160.932 16.144C160.972 15.664 160.992 15.056 160.992 14.32V12.64H165.552V19H164.496V13.576H162.048V14.56C162.048 15.448 162.008 16.184 161.928 16.768C161.848 17.352 161.728 17.82 161.568 18.172C161.416 18.516 161.22 18.76 160.98 18.904C160.74 19.048 160.464 19.12 160.152 19.12ZM169.284 19.12C168.932 19.12 168.62 19.072 168.348 18.976C168.084 18.872 167.86 18.732 167.676 18.556C167.492 18.38 167.352 18.172 167.256 17.932C167.16 17.692 167.112 17.428 167.112 17.14C167.112 16.508 167.296 16.052 167.664 15.772C168.04 15.492 168.576 15.352 169.272 15.352H171.336V14.92C171.336 14.376 171.212 14 170.964 13.792C170.724 13.584 170.36 13.48 169.872 13.48C169.416 13.48 169.084 13.568 168.876 13.744C168.668 13.912 168.552 14.104 168.528 14.32H167.472C167.488 14.064 167.556 13.828 167.676 13.612C167.804 13.388 167.972 13.196 168.18 13.036C168.396 12.876 168.652 12.752 168.948 12.664C169.244 12.568 169.572 12.52 169.932 12.52C170.684 12.52 171.28 12.7 171.72 13.06C172.168 13.412 172.392 13.992 172.392 14.8V17.38C172.392 17.716 172.392 18.012 172.392 18.268C172.4 18.516 172.42 18.76 172.452 19H171.528C171.504 18.816 171.488 18.644 171.48 18.484C171.472 18.316 171.468 18.128 171.468 17.92C171.3 18.256 171.028 18.54 170.652 18.772C170.276 19.004 169.82 19.12 169.284 19.12ZM169.512 18.16C169.76 18.16 169.992 18.128 170.208 18.064C170.432 17.992 170.628 17.892 170.796 17.764C170.964 17.628 171.096 17.464 171.192 17.272C171.288 17.08 171.336 16.856 171.336 16.6V16.168H169.452C169.06 16.168 168.752 16.248 168.528 16.408C168.304 16.56 168.192 16.804 168.192 17.14C168.192 17.436 168.296 17.68 168.504 17.872C168.72 18.064 169.056 18.16 169.512 18.16ZM174.257 12.64H175.313V15.292H176.213C176.245 14.836 176.345 14.436 176.513 14.092C176.681 13.74 176.893 13.448 177.149 13.216C177.413 12.984 177.713 12.812 178.049 12.7C178.385 12.58 178.741 12.52 179.117 12.52C179.525 12.52 179.905 12.588 180.257 12.724C180.617 12.852 180.929 13.048 181.193 13.312C181.457 13.568 181.665 13.892 181.817 14.284C181.977 14.676 182.057 15.128 182.057 15.64V15.88C182.057 16.424 181.977 16.9 181.817 17.308C181.665 17.716 181.457 18.056 181.193 18.328C180.929 18.592 180.617 18.792 180.257 18.928C179.905 19.056 179.525 19.12 179.117 19.12C178.741 19.12 178.381 19.064 178.037 18.952C177.701 18.832 177.401 18.652 177.137 18.412C176.881 18.172 176.669 17.872 176.501 17.512C176.341 17.144 176.245 16.716 176.213 16.228H175.313V19H174.257V12.64ZM179.117 18.16C179.357 18.16 179.589 18.12 179.813 18.04C180.037 17.952 180.233 17.82 180.401 17.644C180.577 17.46 180.717 17.224 180.821 16.936C180.925 16.648 180.977 16.296 180.977 15.88V15.64C180.977 15.256 180.925 14.928 180.821 14.656C180.717 14.384 180.577 14.16 180.401 13.984C180.233 13.808 180.037 13.68 179.813 13.6C179.589 13.52 179.357 13.48 179.117 13.48C178.877 13.48 178.645 13.52 178.421 13.6C178.197 13.68 177.997 13.808 177.821 13.984C177.653 14.16 177.517 14.384 177.413 14.656C177.309 14.928 177.257 15.256 177.257 15.64V15.88C177.257 16.296 177.309 16.648 177.413 16.936C177.517 17.224 177.653 17.46 177.821 17.644C177.997 17.82 178.197 17.952 178.421 18.04C178.645 18.12 178.877 18.16 179.117 18.16Z" fill="white"/>
<g opacity="0.75">
<circle cx="282" cy="14" r="2" fill="white"/>
</g>
<path opacity="0.75" d="M283.476 45.968C283.868 46.136 284.172 46.372 284.388 46.676C284.612 46.972 284.724 47.316 284.724 47.708V47.996C284.724 48.42 284.612 48.796 284.388 49.124C284.164 49.444 283.844 49.692 283.428 49.868C283.02 50.044 282.544 50.132 282 50.132C281.176 50.132 280.516 49.94 280.02 49.556C279.524 49.164 279.276 48.644 279.276 47.996V47.708C279.276 47.316 279.384 46.972 279.6 46.676C279.816 46.372 280.12 46.136 280.512 45.968C280.168 45.8 279.904 45.572 279.72 45.284C279.536 44.996 279.444 44.664 279.444 44.288V44.06C279.444 43.42 279.672 42.916 280.128 42.548C280.584 42.18 281.208 41.996 282 41.996C282.784 41.996 283.404 42.184 283.86 42.56C284.316 42.928 284.544 43.428 284.544 44.06V44.288C284.544 44.664 284.452 44.996 284.268 45.284C284.084 45.572 283.82 45.8 283.476 45.968ZM280.296 44.264C280.296 44.704 280.44 45.04 280.728 45.272C281.016 45.496 281.44 45.608 282 45.608C282.56 45.608 282.984 45.496 283.272 45.272C283.56 45.04 283.704 44.704 283.704 44.264V44.108C283.704 43.676 283.556 43.348 283.26 43.124C282.972 42.892 282.552 42.776 282 42.776C281.44 42.776 281.016 42.892 280.728 43.124C280.44 43.348 280.296 43.676 280.296 44.108V44.264ZM283.86 47.744C283.86 47.32 283.696 46.992 283.368 46.76C283.04 46.52 282.584 46.4 282 46.4C281.416 46.4 280.956 46.52 280.62 46.76C280.292 46.992 280.128 47.32 280.128 47.744V48.008C280.128 48.424 280.292 48.752 280.62 48.992C280.948 49.224 281.408 49.34 282 49.34C282.584 49.34 283.04 49.224 283.368 48.992C283.696 48.76 283.86 48.432 283.86 48.008V47.744Z" fill="white"/>
<path d="M132.118 49.154C130.582 49.154 129.268 48.944 128.176 48.524C127.084 48.092 126.25 47.468 125.674 46.652C125.098 45.836 124.81 44.846 124.81 43.682C124.81 42.518 125.098 41.528 125.674 40.712C126.25 39.896 127.084 39.272 128.176 38.84C129.268 38.408 130.582 38.192 132.118 38.192C132.142 38.192 132.184 38.192 132.244 38.192C132.316 38.192 132.382 38.192 132.442 38.192C132.514 38.192 132.556 38.192 132.568 38.192C134.104 38.192 135.412 38.408 136.492 38.84C137.584 39.272 138.418 39.896 138.994 40.712C139.57 41.528 139.858 42.518 139.858 43.682C139.858 44.834 139.57 45.824 138.994 46.652C138.43 47.468 137.608 48.092 136.528 48.524C135.46 48.944 134.164 49.154 132.64 49.154C132.616 49.154 132.562 49.154 132.478 49.154C132.406 49.154 132.334 49.154 132.262 49.154C132.19 49.154 132.142 49.154 132.118 49.154ZM132.316 47.75C132.34 47.75 132.37 47.75 132.406 47.75C132.442 47.75 132.46 47.75 132.46 47.75C133.684 47.738 134.716 47.582 135.556 47.282C136.396 46.97 137.032 46.514 137.464 45.914C137.908 45.302 138.13 44.552 138.13 43.664C138.13 42.788 137.908 42.05 137.464 41.45C137.02 40.85 136.378 40.394 135.538 40.082C134.71 39.77 133.696 39.614 132.496 39.614C132.484 39.614 132.454 39.614 132.406 39.614C132.37 39.614 132.34 39.614 132.316 39.614C131.08 39.614 130.03 39.77 129.166 40.082C128.314 40.382 127.666 40.832 127.222 41.432C126.778 42.032 126.556 42.782 126.556 43.682C126.556 44.582 126.784 45.332 127.24 45.932C127.696 46.532 128.35 46.988 129.202 47.3C130.066 47.6 131.104 47.75 132.316 47.75ZM131.506 50.468V36.932H133.18V50.468H131.506ZM146.424 50.108C145.464 50.108 144.612 49.898 143.868 49.478C143.124 49.058 142.536 48.482 142.104 47.75C141.672 47.006 141.456 46.166 141.456 45.23C141.456 44.282 141.672 43.442 142.104 42.71C142.536 41.978 143.124 41.408 143.868 41C144.612 40.58 145.464 40.37 146.424 40.37C147.372 40.37 148.218 40.58 148.962 41C149.718 41.408 150.306 41.978 150.726 42.71C151.158 43.43 151.374 44.27 151.374 45.23C151.374 46.178 151.158 47.018 150.726 47.75C150.306 48.482 149.718 49.058 148.962 49.478C148.218 49.898 147.372 50.108 146.424 50.108ZM146.424 48.596C147.036 48.596 147.582 48.458 148.062 48.182C148.554 47.906 148.938 47.516 149.214 47.012C149.49 46.496 149.628 45.902 149.628 45.23C149.628 44.546 149.49 43.958 149.214 43.466C148.938 42.962 148.554 42.572 148.062 42.296C147.582 42.02 147.036 41.882 146.424 41.882C145.812 41.882 145.266 42.02 144.786 42.296C144.306 42.572 143.922 42.962 143.634 43.466C143.346 43.958 143.202 44.546 143.202 45.23C143.202 45.902 143.346 46.496 143.634 47.012C143.922 47.516 144.306 47.906 144.786 48.182C145.266 48.458 145.812 48.596 146.424 48.596ZM153.869 50V40.46H155.597V44.51H161.033V40.46H162.761V50H161.033V46.004H155.597V50H153.869ZM170.207 50.108C169.247 50.108 168.395 49.898 167.651 49.478C166.907 49.058 166.319 48.482 165.887 47.75C165.455 47.006 165.239 46.166 165.239 45.23C165.239 44.282 165.455 43.442 165.887 42.71C166.319 41.978 166.907 41.408 167.651 41C168.395 40.58 169.247 40.37 170.207 40.37C171.155 40.37 172.001 40.58 172.745 41C173.501 41.408 174.089 41.978 174.509 42.71C174.941 43.43 175.157 44.27 175.157 45.23C175.157 46.178 174.941 47.018 174.509 47.75C174.089 48.482 173.501 49.058 172.745 49.478C172.001 49.898 171.155 50.108 170.207 50.108ZM170.207 48.596C170.819 48.596 171.365 48.458 171.845 48.182C172.337 47.906 172.721 47.516 172.997 47.012C173.273 46.496 173.411 45.902 173.411 45.23C173.411 44.546 173.273 43.958 172.997 43.466C172.721 42.962 172.337 42.572 171.845 42.296C171.365 42.02 170.819 41.882 170.207 41.882C169.595 41.882 169.049 42.02 168.569 42.296C168.089 42.572 167.705 42.962 167.417 43.466C167.129 43.958 166.985 44.546 166.985 45.23C166.985 45.902 167.129 46.496 167.417 47.012C167.705 47.516 168.089 47.906 168.569 48.182C169.049 48.458 169.595 48.596 170.207 48.596ZM177.653 50V40.46H182.081C183.197 40.46 184.073 40.676 184.709 41.108C185.357 41.528 185.681 42.128 185.681 42.908C185.681 43.688 185.375 44.294 184.763 44.726C184.163 45.146 183.365 45.356 182.369 45.356L182.639 44.888C183.779 44.888 184.625 45.098 185.177 45.518C185.729 45.938 186.005 46.556 186.005 47.372C186.005 48.2 185.693 48.848 185.069 49.316C184.457 49.772 183.515 50 182.243 50H177.653ZM179.345 48.668H182.117C182.837 48.668 183.377 48.56 183.737 48.344C184.097 48.116 184.277 47.756 184.277 47.264C184.277 46.76 184.109 46.394 183.773 46.166C183.449 45.926 182.933 45.806 182.225 45.806H179.345V48.668ZM179.345 44.564H181.937C182.597 44.564 183.095 44.444 183.431 44.204C183.779 43.952 183.953 43.604 183.953 43.16C183.953 42.704 183.779 42.362 183.431 42.134C183.095 41.906 182.597 41.792 181.937 41.792H179.345V44.564ZM194.559 50V47.984L194.469 47.606V44.168C194.469 43.436 194.253 42.872 193.821 42.476C193.401 42.068 192.765 41.864 191.913 41.864C191.349 41.864 190.797 41.96 190.257 42.152C189.717 42.332 189.261 42.578 188.889 42.89L188.169 41.594C188.661 41.198 189.249 40.898 189.933 40.694C190.629 40.478 191.355 40.37 192.111 40.37C193.419 40.37 194.427 40.688 195.135 41.324C195.843 41.96 196.197 42.932 196.197 44.24V50H194.559ZM191.427 50.108C190.719 50.108 190.095 49.988 189.555 49.748C189.027 49.508 188.619 49.178 188.331 48.758C188.043 48.326 187.899 47.84 187.899 47.3C187.899 46.784 188.019 46.316 188.259 45.896C188.511 45.476 188.913 45.14 189.465 44.888C190.029 44.636 190.785 44.51 191.733 44.51H194.757V45.752H191.805C190.941 45.752 190.359 45.896 190.059 46.184C189.759 46.472 189.609 46.82 189.609 47.228C189.609 47.696 189.795 48.074 190.167 48.362C190.539 48.638 191.055 48.776 191.715 48.776C192.363 48.776 192.927 48.632 193.407 48.344C193.899 48.056 194.253 47.636 194.469 47.084L194.811 48.272C194.583 48.836 194.181 49.286 193.605 49.622C193.029 49.946 192.303 50.108 191.427 50.108ZM205.411 50V46.652L205.681 46.976H202.639C201.367 46.976 200.371 46.706 199.651 46.166C198.943 45.626 198.589 44.84 198.589 43.808C198.589 42.704 198.967 41.87 199.723 41.306C200.491 40.742 201.511 40.46 202.783 40.46H206.959V50H205.411ZM198.499 50L201.091 46.346H202.873L200.353 50H198.499ZM205.411 46.112V41.486L205.681 41.972H202.837C202.045 41.972 201.433 42.122 201.001 42.422C200.569 42.71 200.353 43.19 200.353 43.862C200.353 45.11 201.157 45.734 202.765 45.734H205.681L205.411 46.112Z" fill="white"/>
<g opacity="0.75">
<rect width="2" height="8" transform="matrix(-1 0 0 1 139 10)" fill="white"/>
<rect width="2" height="6" transform="matrix(-1 0 0 1 135 12)" fill="white"/>
<rect width="2" height="4" transform="matrix(-1 0 0 1 131 14)" fill="white"/>
<rect width="2" height="2" transform="matrix(-1 0 0 1 127 16)" fill="white"/>
</g>
</g>
<defs>
<linearGradient id="paint0_linear_1401_51625" x1="150" y1="64" x2="150" y2="40" gradientUnits="userSpaceOnUse">
<stop stop-color="white"/>
<stop offset="1" stop-color="white" stop-opacity="0"/>
</linearGradient>
<clipPath id="clip0_1401_51625">
<rect width="108" height="60" fill="white" transform="translate(4)"/>
</clipPath>
<clipPath id="clip1_1401_51625">
<rect width="180" height="60" fill="white" transform="translate(116)"/>
</clipPath>
</defs>
</svg>
