<svg width="300" height="100" viewBox="0 0 300 100" fill="none" xmlns="http://www.w3.org/2000/svg">
<g opacity="0.25">
<mask id="mask0_1401_51713" style="mask-type:alpha" maskUnits="userSpaceOnUse" x="0" y="52" width="300" height="48">
<path d="M0 98C0 99.1046 0.895431 100 2 100H298C299.105 100 300 99.1046 300 98V54C300 52.8954 299.105 52 298 52H2C0.895429 52 0 52.8954 0 54V98Z" fill="url(#paint0_linear_1401_51713)"/>
</mask>
<g mask="url(#mask0_1401_51713)">
<path d="M2 99.5H298C298.828 99.5 299.5 98.8284 299.5 98V54C299.5 53.1716 298.828 52.5 298 52.5H2C1.17157 52.5 0.5 53.1716 0.5 54V98C0.5 98.8284 1.17157 99.5 2 99.5Z" stroke="#6B360D"/>
</g>
</g>
<g clip-path="url(#clip0_1401_51713)">
<rect x="-0.5" y="0.5" width="143" height="95" rx="1.5" transform="matrix(-1 0 0 1 147 0)" fill="white" stroke="#6B360D"/>
<path opacity="0.05" d="M114 96L59.3333 0H27L81.6667 96H114Z" fill="#6B360D"/>
<path opacity="0.1" d="M77.3333 0L132 96H122L67.3333 0H77.3333Z" fill="#6B360D"/>
<path d="M13.962 86V73.4H19.38C20.748 73.4 21.822 73.676 22.602 74.228C23.382 74.78 23.772 75.584 23.772 76.64C23.772 77.672 23.4 78.464 22.656 79.016C21.912 79.556 20.934 79.826 19.722 79.826L20.046 79.286C21.45 79.286 22.524 79.568 23.268 80.132C24.024 80.684 24.402 81.494 24.402 82.562C24.402 83.642 24.006 84.488 23.214 85.1C22.434 85.7 21.27 86 19.722 86H13.962ZM15.744 84.578H19.686C20.646 84.578 21.366 84.404 21.846 84.056C22.338 83.696 22.584 83.15 22.584 82.418C22.584 81.686 22.338 81.152 21.846 80.816C21.366 80.48 20.646 80.312 19.686 80.312H15.744V84.578ZM15.744 78.944H19.254C20.13 78.944 20.796 78.77 21.252 78.422C21.72 78.074 21.954 77.564 21.954 76.892C21.954 76.208 21.72 75.692 21.252 75.344C20.796 74.996 20.13 74.822 19.254 74.822H15.744V78.944ZM27.1213 86V76.46H28.8493V80.51H34.2853V76.46H36.0133V86H34.2853V82.004H28.8493V86H27.1213ZM39.8592 89.6C39.4032 89.6 38.9592 89.522 38.5272 89.366C38.0952 89.222 37.7232 89.006 37.4112 88.718L38.1492 87.422C38.3892 87.65 38.6532 87.824 38.9412 87.944C39.2292 88.064 39.5352 88.124 39.8592 88.124C40.2792 88.124 40.6272 88.016 40.9032 87.8C41.1792 87.584 41.4372 87.2 41.6772 86.648L42.2712 85.334L42.4512 85.118L46.1952 76.46H47.8872L43.2612 86.954C42.9852 87.626 42.6732 88.154 42.3252 88.538C41.9892 88.922 41.6172 89.192 41.2092 89.348C40.8012 89.516 40.3512 89.6 39.8592 89.6ZM42.1272 86.306L37.7712 76.46H39.5712L43.2792 84.956L42.1272 86.306ZM55.9924 84.488L55.5964 84.938V76.46H57.3244V84.938L56.8924 84.488H61.9324L61.5184 84.938V76.46H63.2464V86H49.6564V76.46H51.3844V84.938L50.9704 84.488H55.9924ZM72.4517 86V83.984L72.3617 83.606V80.168C72.3617 79.436 72.1457 78.872 71.7137 78.476C71.2937 78.068 70.6577 77.864 69.8057 77.864C69.2417 77.864 68.6897 77.96 68.1497 78.152C67.6097 78.332 67.1537 78.578 66.7817 78.89L66.0617 77.594C66.5537 77.198 67.1417 76.898 67.8257 76.694C68.5217 76.478 69.2477 76.37 70.0037 76.37C71.3117 76.37 72.3197 76.688 73.0277 77.324C73.7357 77.96 74.0897 78.932 74.0897 80.24V86H72.4517ZM69.3197 86.108C68.6117 86.108 67.9877 85.988 67.4477 85.748C66.9197 85.508 66.5117 85.178 66.2237 84.758C65.9357 84.326 65.7917 83.84 65.7917 83.3C65.7917 82.784 65.9117 82.316 66.1517 81.896C66.4037 81.476 66.8057 81.14 67.3577 80.888C67.9217 80.636 68.6777 80.51 69.6257 80.51H72.6497V81.752H69.6977C68.8337 81.752 68.2517 81.896 67.9517 82.184C67.6517 82.472 67.5017 82.82 67.5017 83.228C67.5017 83.696 67.6877 84.074 68.0597 84.362C68.4317 84.638 68.9477 84.776 69.6077 84.776C70.2557 84.776 70.8197 84.632 71.2997 84.344C71.7917 84.056 72.1457 83.636 72.3617 83.084L72.7037 84.272C72.4757 84.836 72.0737 85.286 71.4977 85.622C70.9217 85.946 70.1957 86.108 69.3197 86.108ZM81.4493 86.108C80.4293 86.108 79.5293 85.898 78.7493 85.478C77.9813 85.058 77.3813 84.482 76.9493 83.75C76.5293 83.018 76.3193 82.178 76.3193 81.23C76.3193 80.282 76.5233 79.442 76.9313 78.71C77.3513 77.978 77.9213 77.408 78.6413 77C79.3733 76.58 80.1953 76.37 81.1073 76.37C82.0313 76.37 82.8473 76.574 83.5553 76.982C84.2633 77.39 84.8153 77.966 85.2113 78.71C85.6193 79.442 85.8233 80.3 85.8233 81.284C85.8233 81.356 85.8173 81.44 85.8053 81.536C85.8053 81.632 85.7993 81.722 85.7873 81.806H77.6693V80.564H84.8873L84.1853 80.996C84.1973 80.384 84.0713 79.838 83.8073 79.358C83.5433 78.878 83.1773 78.506 82.7093 78.242C82.2533 77.966 81.7193 77.828 81.1073 77.828C80.5073 77.828 79.9733 77.966 79.5053 78.242C79.0373 78.506 78.6713 78.884 78.4073 79.376C78.1433 79.856 78.0113 80.408 78.0113 81.032V81.32C78.0113 81.956 78.1553 82.526 78.4433 83.03C78.7433 83.522 79.1573 83.906 79.6853 84.182C80.2133 84.458 80.8193 84.596 81.5033 84.596C82.0673 84.596 82.5773 84.5 83.0333 84.308C83.5013 84.116 83.9093 83.828 84.2573 83.444L85.2113 84.56C84.7793 85.064 84.2393 85.448 83.5913 85.712C82.9553 85.976 82.2413 86.108 81.4493 86.108ZM88.5041 86V76.46H90.2861L94.3901 83.516H93.6701L97.8821 76.46H99.5021V86H97.9361V78.404L98.2241 78.566L94.3721 84.92H93.6161L89.7461 78.44L90.0881 78.368V86H88.5041ZM108.715 86V83.984L108.625 83.606V80.168C108.625 79.436 108.409 78.872 107.977 78.476C107.557 78.068 106.921 77.864 106.069 77.864C105.505 77.864 104.953 77.96 104.413 78.152C103.873 78.332 103.417 78.578 103.045 78.89L102.325 77.594C102.817 77.198 103.405 76.898 104.089 76.694C104.785 76.478 105.511 76.37 106.267 76.37C107.575 76.37 108.583 76.688 109.291 77.324C109.999 77.96 110.353 78.932 110.353 80.24V86H108.715ZM105.583 86.108C104.875 86.108 104.251 85.988 103.711 85.748C103.183 85.508 102.775 85.178 102.487 84.758C102.199 84.326 102.055 83.84 102.055 83.3C102.055 82.784 102.175 82.316 102.415 81.896C102.667 81.476 103.069 81.14 103.621 80.888C104.185 80.636 104.941 80.51 105.889 80.51H108.913V81.752H105.961C105.097 81.752 104.515 81.896 104.215 82.184C103.915 82.472 103.765 82.82 103.765 83.228C103.765 83.696 103.951 84.074 104.323 84.362C104.695 84.638 105.211 84.776 105.871 84.776C106.519 84.776 107.083 84.632 107.563 84.344C108.055 84.056 108.409 83.636 108.625 83.084L108.967 84.272C108.739 84.836 108.337 85.286 107.761 85.622C107.185 85.946 106.459 86.108 105.583 86.108ZM119.567 86V82.652L119.837 82.976H116.795C115.523 82.976 114.527 82.706 113.807 82.166C113.099 81.626 112.745 80.84 112.745 79.808C112.745 78.704 113.123 77.87 113.879 77.306C114.647 76.742 115.667 76.46 116.939 76.46H121.115V86H119.567ZM112.655 86L115.247 82.346H117.029L114.509 86H112.655ZM119.567 82.112V77.486L119.837 77.972H116.993C116.201 77.972 115.589 78.122 115.157 78.422C114.725 78.71 114.509 79.19 114.509 79.862C114.509 81.11 115.313 81.734 116.921 81.734H119.837L119.567 82.112Z" fill="#6B360D"/>
<g opacity="0.75">
<path d="M130.207 17.0846C130.207 17.0806 130.207 17.0765 130.207 17.0725C130.207 17.0726 130.207 17.0724 130.207 17.0725C130.207 17.0721 130.207 17.0714 130.207 17.071C130.207 17.0711 130.207 17.0709 130.207 17.071L130.207 12.071C130.207 11.7948 130.431 11.571 130.707 11.571C130.983 11.571 131.207 11.7948 131.207 12.071V15.8639L136.717 10.3535C136.913 10.1582 137.229 10.1582 137.425 10.3535C137.62 10.5487 137.62 10.8653 137.425 11.0606L131.914 16.571L135.707 16.571C135.983 16.571 136.207 16.7948 136.207 17.071C136.207 17.3471 135.983 17.571 135.707 17.571L130.707 17.571C130.435 17.571 130.214 17.3544 130.207 17.0846Z" fill="#6B360D"/>
</g>
<path opacity="0.75" d="M22.324 14.716L19.48 10.6H20.728L22.972 13.852L25.24 10.6H26.44L23.608 14.692L26.56 19H25.288L22.948 15.544L20.584 19H19.36L22.324 14.716ZM30.2875 19.12C29.8795 19.12 29.4915 19.056 29.1235 18.928C28.7555 18.792 28.4315 18.592 28.1515 18.328C27.8715 18.056 27.6475 17.716 27.4795 17.308C27.3115 16.9 27.2275 16.424 27.2275 15.88V15.64C27.2275 15.128 27.3115 14.676 27.4795 14.284C27.6475 13.892 27.8715 13.568 28.1515 13.312C28.4315 13.048 28.7555 12.852 29.1235 12.724C29.4915 12.588 29.8795 12.52 30.2875 12.52C30.6955 12.52 31.0835 12.588 31.4515 12.724C31.8195 12.852 32.1435 13.048 32.4235 13.312C32.7035 13.568 32.9275 13.892 33.0955 14.284C33.2635 14.676 33.3475 15.128 33.3475 15.64V15.88C33.3475 16.424 33.2635 16.9 33.0955 17.308C32.9275 17.716 32.7035 18.056 32.4235 18.328C32.1435 18.592 31.8195 18.792 31.4515 18.928C31.0835 19.056 30.6955 19.12 30.2875 19.12ZM30.2875 18.16C30.5275 18.16 30.7675 18.12 31.0075 18.04C31.2475 17.952 31.4595 17.82 31.6435 17.644C31.8275 17.46 31.9755 17.224 32.0875 16.936C32.2075 16.648 32.2675 16.296 32.2675 15.88V15.64C32.2675 15.256 32.2075 14.928 32.0875 14.656C31.9755 14.384 31.8275 14.16 31.6435 13.984C31.4595 13.808 31.2475 13.68 31.0075 13.6C30.7675 13.52 30.5275 13.48 30.2875 13.48C30.0475 13.48 29.8075 13.52 29.5675 13.6C29.3275 13.68 29.1155 13.808 28.9315 13.984C28.7475 14.16 28.5955 14.384 28.4755 14.656C28.3635 14.928 28.3075 15.256 28.3075 15.64V15.88C28.3075 16.296 28.3635 16.648 28.4755 16.936C28.5955 17.224 28.7475 17.46 28.9315 17.644C29.1155 17.82 29.3275 17.952 29.5675 18.04C29.8075 18.12 30.0475 18.16 30.2875 18.16ZM38.5268 16.468C38.3428 16.58 38.1188 16.68 37.8548 16.768C37.5988 16.856 37.2748 16.9 36.8828 16.9C36.5148 16.9 36.1828 16.86 35.8868 16.78C35.5988 16.7 35.3548 16.572 35.1548 16.396C34.9548 16.22 34.8028 15.992 34.6988 15.712C34.5948 15.432 34.5428 15.088 34.5428 14.68V12.64H35.5988V14.5C35.5988 14.772 35.6228 15 35.6708 15.184C35.7268 15.368 35.8148 15.516 35.9348 15.628C36.0548 15.74 36.2068 15.82 36.3908 15.868C36.5748 15.916 36.7988 15.94 37.0628 15.94C37.4228 15.94 37.7308 15.904 37.9868 15.832C38.2428 15.76 38.4228 15.684 38.5268 15.604V12.64H39.5828V19H38.5268V16.468ZM42.3391 21.52C42.2191 21.52 42.0991 21.508 41.9791 21.484V20.524C42.0991 20.548 42.2191 20.56 42.3391 20.56C42.4591 20.56 42.5631 20.54 42.6511 20.5C42.7391 20.46 42.8231 20.384 42.9031 20.272C42.9831 20.16 43.0671 20 43.1551 19.792C43.2511 19.592 43.3591 19.328 43.4791 19L40.7791 12.64H41.9551L44.0191 17.8L45.8911 12.64H47.0191L44.6191 19C44.4511 19.448 44.2911 19.832 44.1391 20.152C43.9871 20.472 43.8231 20.732 43.6471 20.932C43.4791 21.14 43.2911 21.288 43.0831 21.376C42.8751 21.472 42.6271 21.52 42.3391 21.52Z" fill="#6B360D"/>
<path opacity="0.75" d="M134.123 81.008C134.891 81.008 135.503 81.212 135.959 81.62C136.423 82.028 136.655 82.572 136.655 83.252V83.816C136.655 84.52 136.419 85.084 135.947 85.508C135.475 85.924 134.847 86.132 134.063 86.132C133.271 86.132 132.643 85.956 132.179 85.604C131.715 85.244 131.483 84.752 131.483 84.128V84.008H132.335V84.128C132.335 84.504 132.487 84.8 132.791 85.016C133.095 85.232 133.507 85.34 134.027 85.34C134.571 85.34 134.999 85.208 135.311 84.944C135.623 84.672 135.779 84.3 135.779 83.828V83.264C135.779 82.816 135.619 82.464 135.299 82.208C134.987 81.944 134.563 81.812 134.027 81.812C133.555 81.812 133.167 81.92 132.863 82.136C132.559 82.344 132.395 82.62 132.371 82.964H131.531L131.783 78.128H136.343V78.932H132.563L132.431 81.572C132.855 81.196 133.419 81.008 134.123 81.008Z" fill="#6B360D"/>
<g opacity="0.75">
<rect opacity="0.25" x="13" y="10" width="2" height="8" fill="#6B360D"/>
<rect x="13" y="16" width="2" height="2" fill="#6B360D"/>
</g>
</g>
<rect opacity="0.75" x="-0.5" y="0.5" width="143" height="95" rx="1.5" transform="matrix(-1 0 0 1 295 0)" fill="white" stroke="#6B360D"/>
<path opacity="0.75" d="M172.2 10.6H173.328V14.188H177.792V10.6H178.92V19H177.792V15.172H173.328V19H172.2V10.6ZM181.077 12.64H182.061V13.84C182.277 13.416 182.577 13.092 182.961 12.868C183.353 12.636 183.805 12.52 184.317 12.52C185.117 12.52 185.757 12.784 186.237 13.312C186.717 13.832 186.957 14.608 186.957 15.64V15.88C186.957 16.424 186.893 16.9 186.765 17.308C186.637 17.708 186.457 18.044 186.225 18.316C185.993 18.58 185.713 18.78 185.385 18.916C185.065 19.052 184.709 19.12 184.317 19.12C183.773 19.12 183.317 19 182.949 18.76C182.589 18.52 182.317 18.22 182.133 17.86V21.4H181.077V12.64ZM184.077 18.184C184.333 18.184 184.573 18.136 184.797 18.04C185.021 17.936 185.213 17.788 185.373 17.596C185.541 17.404 185.669 17.164 185.757 16.876C185.853 16.588 185.901 16.256 185.901 15.88V15.64C185.901 15.296 185.853 14.988 185.757 14.716C185.669 14.444 185.541 14.216 185.373 14.032C185.213 13.84 185.021 13.696 184.797 13.6C184.573 13.504 184.333 13.456 184.077 13.456C183.789 13.456 183.525 13.504 183.285 13.6C183.045 13.688 182.841 13.816 182.673 13.984C182.505 14.144 182.373 14.336 182.277 14.56C182.181 14.784 182.133 15.024 182.133 15.28V16.24C182.133 16.528 182.181 16.792 182.277 17.032C182.373 17.272 182.505 17.476 182.673 17.644C182.841 17.812 183.045 17.944 183.285 18.04C183.525 18.136 183.789 18.184 184.077 18.184ZM190.272 19.12C189.92 19.12 189.608 19.072 189.336 18.976C189.072 18.872 188.848 18.732 188.664 18.556C188.48 18.38 188.34 18.172 188.244 17.932C188.148 17.692 188.1 17.428 188.1 17.14C188.1 16.508 188.284 16.052 188.652 15.772C189.028 15.492 189.564 15.352 190.26 15.352H192.324V14.92C192.324 14.376 192.2 14 191.952 13.792C191.712 13.584 191.348 13.48 190.86 13.48C190.404 13.48 190.072 13.568 189.864 13.744C189.656 13.912 189.54 14.104 189.516 14.32H188.46C188.476 14.064 188.544 13.828 188.664 13.612C188.792 13.388 188.96 13.196 189.168 13.036C189.384 12.876 189.64 12.752 189.936 12.664C190.232 12.568 190.56 12.52 190.92 12.52C191.672 12.52 192.268 12.7 192.708 13.06C193.156 13.412 193.38 13.992 193.38 14.8V17.38C193.38 17.716 193.38 18.012 193.38 18.268C193.388 18.516 193.408 18.76 193.44 19H192.516C192.492 18.816 192.476 18.644 192.468 18.484C192.46 18.316 192.456 18.128 192.456 17.92C192.288 18.256 192.016 18.54 191.64 18.772C191.264 19.004 190.808 19.12 190.272 19.12ZM190.5 18.16C190.748 18.16 190.98 18.128 191.196 18.064C191.42 17.992 191.616 17.892 191.784 17.764C191.952 17.628 192.084 17.464 192.18 17.272C192.276 17.08 192.324 16.856 192.324 16.6V16.168H190.44C190.048 16.168 189.74 16.248 189.516 16.408C189.292 16.56 189.18 16.804 189.18 17.14C189.18 17.436 189.284 17.68 189.492 17.872C189.708 18.064 190.044 18.16 190.5 18.16ZM195.245 12.64H198.005C198.789 12.64 199.365 12.804 199.733 13.132C200.101 13.452 200.285 13.868 200.285 14.38C200.285 14.516 200.261 14.656 200.213 14.8C200.165 14.936 200.097 15.064 200.009 15.184C199.929 15.304 199.829 15.408 199.709 15.496C199.597 15.584 199.469 15.652 199.325 15.7C199.717 15.796 200.013 15.98 200.213 16.252C200.421 16.516 200.525 16.828 200.525 17.188C200.525 17.74 200.341 18.18 199.973 18.508C199.605 18.836 199.029 19 198.245 19H195.245V12.64ZM198.245 18.064C198.693 18.064 199.009 17.984 199.193 17.824C199.377 17.664 199.469 17.436 199.469 17.14C199.469 16.836 199.377 16.604 199.193 16.444C199.009 16.276 198.693 16.192 198.245 16.192H196.301V18.064H198.245ZM198.005 15.328C198.461 15.328 198.777 15.248 198.953 15.088C199.137 14.928 199.229 14.708 199.229 14.428C199.229 14.164 199.137 13.956 198.953 13.804C198.777 13.652 198.461 13.576 198.005 13.576H196.301V15.328H198.005ZM202.03 12.64H203.086V17.44L206.374 12.64H207.43V19H206.374V14.2L203.086 19H202.03V12.64ZM210.807 13.576H208.635V12.64H214.035V13.576H211.863V19H210.807V13.576ZM217.58 19.12C217.172 19.12 216.792 19.056 216.44 18.928C216.088 18.792 215.784 18.592 215.528 18.328C215.272 18.056 215.068 17.716 214.916 17.308C214.772 16.9 214.7 16.424 214.7 15.88V15.64C214.7 15.128 214.78 14.676 214.94 14.284C215.1 13.892 215.312 13.568 215.576 13.312C215.84 13.048 216.144 12.852 216.488 12.724C216.84 12.588 217.204 12.52 217.58 12.52C217.956 12.52 218.292 12.572 218.588 12.676C218.892 12.78 219.152 12.924 219.368 13.108C219.592 13.292 219.772 13.508 219.908 13.756C220.052 14.004 220.156 14.272 220.22 14.56H219.14C219.076 14.408 219 14.268 218.912 14.14C218.832 14.004 218.728 13.888 218.6 13.792C218.48 13.696 218.336 13.62 218.168 13.564C218 13.508 217.804 13.48 217.58 13.48C217.348 13.48 217.124 13.524 216.908 13.612C216.692 13.692 216.5 13.82 216.332 13.996C216.164 14.164 216.028 14.384 215.924 14.656C215.828 14.928 215.78 15.256 215.78 15.64V15.88C215.78 16.288 215.828 16.64 215.924 16.936C216.028 17.224 216.164 17.46 216.332 17.644C216.5 17.82 216.692 17.952 216.908 18.04C217.124 18.12 217.348 18.16 217.58 18.16C217.972 18.16 218.3 18.064 218.564 17.872C218.836 17.68 219.028 17.416 219.14 17.08H220.22C220.068 17.712 219.756 18.212 219.284 18.58C218.812 18.94 218.244 19.12 217.58 19.12ZM222.907 16.48C222.379 16.36 221.999 16.144 221.767 15.832C221.535 15.512 221.419 15.104 221.419 14.608C221.419 13.984 221.607 13.5 221.983 13.156C222.367 12.812 222.979 12.64 223.819 12.64H226.579V19H225.523V16.576H223.903L222.355 19H221.179L222.907 16.48ZM222.475 14.608C222.475 14.944 222.571 15.2 222.763 15.376C222.963 15.552 223.295 15.64 223.759 15.64H225.523V13.576H223.759C223.295 13.576 222.963 13.664 222.763 13.84C222.571 14.016 222.475 14.272 222.475 14.608Z" fill="#6B360D"/>
<path d="M160.216 86L165.922 73.4H167.704L173.428 86H171.538L166.444 74.408H167.164L162.07 86H160.216ZM162.646 82.85L163.132 81.41H170.224L170.746 82.85H162.646ZM182.227 86L178.537 81.356L179.959 80.492L184.261 86H182.227ZM175.315 86V76.46H177.043V86H175.315ZM176.521 81.968V80.492H179.671V81.968H176.521ZM180.103 81.428L178.501 81.212L182.155 76.46H184.009L180.103 81.428ZM187.804 86V77.522L188.236 77.972H184.312V76.46H193.024V77.972H189.118L189.532 77.522V86H187.804ZM194.791 86V76.46H196.519V83.408L202.369 76.46H203.935V86H202.207V79.052L196.375 86H194.791ZM207.289 86V76.46H211.717C212.833 76.46 213.709 76.676 214.345 77.108C214.993 77.528 215.317 78.128 215.317 78.908C215.317 79.688 215.011 80.294 214.399 80.726C213.799 81.146 213.001 81.356 212.005 81.356L212.275 80.888C213.415 80.888 214.261 81.098 214.813 81.518C215.365 81.938 215.641 82.556 215.641 83.372C215.641 84.2 215.329 84.848 214.705 85.316C214.093 85.772 213.151 86 211.879 86H207.289ZM208.981 84.668H211.753C212.473 84.668 213.013 84.56 213.373 84.344C213.733 84.116 213.913 83.756 213.913 83.264C213.913 82.76 213.745 82.394 213.409 82.166C213.085 81.926 212.569 81.806 211.861 81.806H208.981V84.668ZM208.981 80.564H211.573C212.233 80.564 212.731 80.444 213.067 80.204C213.415 79.952 213.589 79.604 213.589 79.16C213.589 78.704 213.415 78.362 213.067 78.134C212.731 77.906 212.233 77.792 211.573 77.792H208.981V80.564ZM224.196 86V83.984L224.106 83.606V80.168C224.106 79.436 223.89 78.872 223.458 78.476C223.038 78.068 222.402 77.864 221.55 77.864C220.986 77.864 220.434 77.96 219.894 78.152C219.354 78.332 218.898 78.578 218.526 78.89L217.806 77.594C218.298 77.198 218.886 76.898 219.57 76.694C220.266 76.478 220.992 76.37 221.748 76.37C223.056 76.37 224.064 76.688 224.772 77.324C225.48 77.96 225.834 78.932 225.834 80.24V86H224.196ZM221.064 86.108C220.356 86.108 219.732 85.988 219.192 85.748C218.664 85.508 218.256 85.178 217.968 84.758C217.68 84.326 217.536 83.84 217.536 83.3C217.536 82.784 217.656 82.316 217.896 81.896C218.148 81.476 218.55 81.14 219.102 80.888C219.666 80.636 220.422 80.51 221.37 80.51H224.394V81.752H221.442C220.578 81.752 219.996 81.896 219.696 82.184C219.396 82.472 219.246 82.82 219.246 83.228C219.246 83.696 219.432 84.074 219.804 84.362C220.176 84.638 220.692 84.776 221.352 84.776C222 84.776 222.564 84.632 223.044 84.344C223.536 84.056 223.89 83.636 224.106 83.084L224.448 84.272C224.22 84.836 223.818 85.286 223.242 85.622C222.666 85.946 221.94 86.108 221.064 86.108ZM228.945 86V76.46H230.673V84.488H235.893V76.46H237.621V86H228.945ZM237.495 88.214V85.91L237.927 86H235.893V84.488H239.133V88.214H237.495ZM241.373 86V76.46H243.101V83.408L248.951 76.46H250.517V86H248.789V79.052L242.957 86H241.373ZM259.973 86V82.652L260.243 82.976H257.201C255.929 82.976 254.933 82.706 254.213 82.166C253.505 81.626 253.151 80.84 253.151 79.808C253.151 78.704 253.529 77.87 254.285 77.306C255.053 76.742 256.073 76.46 257.345 76.46H261.521V86H259.973ZM253.061 86L255.653 82.346H257.435L254.915 86H253.061ZM259.973 82.112V77.486L260.243 77.972H257.399C256.607 77.972 255.995 78.122 255.563 78.422C255.131 78.71 254.915 79.19 254.915 79.862C254.915 81.11 255.719 81.734 257.327 81.734H260.243L259.973 82.112Z" fill="#6B360D"/>
<path opacity="0.75" d="M282.184 81.104C282.688 81.104 283.132 81.2 283.516 81.392C283.908 81.584 284.208 81.856 284.416 82.208C284.632 82.56 284.74 82.964 284.74 83.42V83.804C284.74 84.26 284.628 84.664 284.404 85.016C284.188 85.368 283.88 85.644 283.48 85.844C283.088 86.036 282.636 86.132 282.124 86.132C281.596 86.132 281.128 86.028 280.72 85.82C280.312 85.612 279.996 85.32 279.772 84.944C279.548 84.568 279.436 84.136 279.436 83.648V80.564C279.436 80.052 279.548 79.604 279.772 79.22C279.996 78.828 280.308 78.528 280.708 78.32C281.116 78.104 281.584 77.996 282.112 77.996C282.616 77.996 283.064 78.084 283.456 78.26C283.848 78.436 284.152 78.684 284.368 79.004C284.584 79.324 284.692 79.692 284.692 80.108V80.276H283.84V80.108C283.84 79.716 283.68 79.4 283.36 79.16C283.048 78.912 282.632 78.788 282.112 78.788C281.56 78.788 281.12 78.948 280.792 79.268C280.464 79.58 280.3 80.004 280.3 80.54V81.764C280.532 81.556 280.808 81.396 281.128 81.284C281.456 81.164 281.808 81.104 282.184 81.104ZM283.876 83.432C283.876 82.944 283.724 82.568 283.42 82.304C283.116 82.032 282.684 81.896 282.124 81.896C281.7 81.896 281.328 81.976 281.008 82.136C280.696 82.296 280.46 82.516 280.3 82.796V83.636C280.3 84.148 280.468 84.56 280.804 84.872C281.14 85.184 281.58 85.34 282.124 85.34C282.66 85.34 283.084 85.204 283.396 84.932C283.716 84.66 283.876 84.288 283.876 83.816V83.432Z" fill="#6B360D"/>
<g opacity="0.75">
<rect width="2" height="4" transform="matrix(-1 0 0 1 167 14)" fill="#6B360D"/>
<rect width="2" height="2" transform="matrix(-1 0 0 1 163 16)" fill="#6B360D"/>
</g>
<g opacity="0.75">
<rect x="287" y="13.5" width="1" height="10" rx="0.5" transform="rotate(90 287 13.5)" fill="#6B360D"/>
</g>
<defs>
<linearGradient id="paint0_linear_1401_51713" x1="150" y1="100" x2="150" y2="52" gradientUnits="userSpaceOnUse">
<stop stop-color="white"/>
<stop offset="1" stop-color="white" stop-opacity="0"/>
</linearGradient>
<clipPath id="clip0_1401_51713">
<rect width="144" height="96" fill="white" transform="translate(4)"/>
</clipPath>
</defs>
</svg>
