<svg width="344" height="64" viewBox="0 0 344 64" fill="none" xmlns="http://www.w3.org/2000/svg">
<g opacity="0.5">
<mask id="mask0_1401_51653" style="mask-type:alpha" maskUnits="userSpaceOnUse" x="0" y="40" width="344" height="24">
<path d="M0 62C0 63.1046 0.895431 64 2 64H342C343.105 64 344 63.1046 344 62V42C344 40.8954 343.105 40 342 40H2C0.895431 40 0 40.8954 0 42V62Z" fill="url(#paint0_linear_1401_51653)"/>
</mask>
<g mask="url(#mask0_1401_51653)">
<path d="M1.23442 40.1518C0.745544 40.3545 0.354492 40.7455 0.151761 41.2344L0.613624 41.426C0.54057 41.6021 0.5 41.7957 0.5 42V43H0V45H0.5V47H0V49H0.5V51H0V53H0.5V55H0V57H0.5V59H0V61H0.5V62C0.5 62.2043 0.54057 62.3979 0.613624 62.574L0.151761 62.7656C0.354492 63.2545 0.745543 63.6455 1.23442 63.8482L1.42595 63.3864C1.60212 63.4594 1.79569 63.5 2 63.5H3.00001V64H4.99999V63.5H7V64H8.99999V63.5H11V64H13V63.5H15V64H17V63.5H19V64H21V63.5H23V64H25V63.5H27V64H29V63.5H31V64H33V63.5H35V64H37V63.5H39V64H41V63.5H43V64H45V63.5H47V64H49V63.5H51V64H53V63.5H55V64H57V63.5H59V64H61V63.5H63V64H65V63.5H67V64H69V63.5H71V64H73V63.5H75V64H77V63.5H79V64H81V63.5H83V64H85V63.5H87V64H89V63.5H91V64H93V63.5H95V64H97V63.5H99V64H101V63.5H103V64H105V63.5H107V64H109V63.5H111V64H113V63.5H115V64H117V63.5H119V64H121V63.5H123V64H125V63.5H127V64H129V63.5H131V64H133V63.5H135V64H137V63.5H139V64H141V63.5H143V64H145V63.5H147V64H149V63.5H151V64H153V63.5H155V64H157V63.5H159V64H161V63.5H163V64H165V63.5H167V64H169V63.5H171V64H173V63.5H175V64H177V63.5H179V64H181V63.5H183V64H185V63.5H187V64H189V63.5H191V64H193V63.5H195V64H197V63.5H199V64H201V63.5H203V64H205V63.5H207V64H209V63.5H211V64H213V63.5H215V64H217V63.5H219V64H221V63.5H223V64H225V63.5H227V64H229V63.5H231V64H233V63.5H235V64H237V63.5H239V64H241V63.5H243V64H245V63.5H247V64H249V63.5H251V64H253V63.5H255V64H257V63.5H259V64H261V63.5H263V64H265V63.5H267V64H269V63.5H271V64H273V63.5H275V64H277V63.5H279V64H281V63.5H283V64H285V63.5H287V64H289V63.5H291V64H293V63.5H295V64H297V63.5H299V64H301V63.5H303V64H305V63.5H307V64H309V63.5H311V64H313V63.5H315V64H317V63.5H319V64H321V63.5H323V64H325V63.5H327V64H329V63.5H331V64H333V63.5H335V64H337V63.5H339V64H341V63.5H342C342.204 63.5 342.398 63.4594 342.574 63.3864L342.766 63.8482C343.254 63.6455 343.646 63.2545 343.848 62.7656L343.386 62.5741C343.459 62.3979 343.5 62.2043 343.5 62V61H344V59H343.5V57H344V55H343.5V53H344V51H343.5V49H344V47H343.5V45H344V43H343.5V42C343.5 41.7957 343.459 41.6021 343.386 41.4259L343.848 41.2344C343.646 40.7455 343.254 40.3545 342.766 40.1518L342.574 40.6136C342.398 40.5406 342.204 40.5 342 40.5H341V40H339V40.5H337V40H335V40.5H333V40H331V40.5H329V40H327V40.5H325V40H323V40.5H321V40H319V40.5H317V40H315V40.5H313V40H311V40.5H309V40H307V40.5H305V40H303V40.5H301V40H299V40.5H297V40H295V40.5H293V40H291V40.5H289V40H287V40.5H285V40H283V40.5H281V40H279V40.5H277V40H275V40.5H273V40H271V40.5H269V40H267V40.5H265V40H263V40.5H261V40H259V40.5H257V40H255V40.5H253V40H251V40.5H249V40H247V40.5H245V40H243V40.5H241V40H239V40.5H237V40H235V40.5H233V40H231V40.5H229V40H227V40.5H225V40H223V40.5H221V40H219V40.5H217V40H215V40.5H213V40H211V40.5H209V40H207V40.5H205V40H203V40.5H201V40H199V40.5H197V40H195V40.5H193V40H191V40.5H189V40H187V40.5H185V40H183V40.5H181V40H179V40.5H177V40H175V40.5H173V40H171V40.5H169V40H167V40.5H165V40H163V40.5H161V40H159V40.5H157V40H155V40.5H153V40H151V40.5H149V40H147V40.5H145V40H143V40.5H141V40H139V40.5H137V40H135V40.5H133V40H131V40.5H129V40H127V40.5H125V40H123V40.5H121V40H119V40.5H117V40H115V40.5H113V40H111V40.5H109V40H107V40.5H105V40H103V40.5H101V40H99V40.5H97V40H95V40.5H93V40H91V40.5H89V40H87V40.5H85V40H83V40.5H81V40H79V40.5H77V40H75V40.5H73V40H71V40.5H69V40H67V40.5H65V40H63V40.5H61V40H59V40.5H57V40H55V40.5H53V40H51V40.5H49V40H47V40.5H45V40H43V40.5H41V40H39V40.5H37V40H35V40.5H33V40H31V40.5H29V40H27V40.5H25V40H23V40.5H21V40H19V40.5H17V40H15V40.5H13V40H11V40.5H9V40H7V40.5H5V40H3V40.5H2C1.79569 40.5 1.60212 40.5406 1.42595 40.6136L1.23442 40.1518Z" stroke="#6B360D" stroke-dasharray="2 2"/>
</g>
</g>
<g clip-path="url(#clip0_1401_51653)">
<rect width="128" height="60" transform="translate(4)" fill="white"/>
<rect opacity="0.5" x="4.5" y="0.5" width="127" height="59" rx="1.5" stroke="#6B360D"/>
<path opacity="0.75" d="M24.2 10.6H29.66V11.572H25.328V13.96H27.2C27.752 13.96 28.232 14.02 28.64 14.14C29.048 14.26 29.384 14.432 29.648 14.656C29.92 14.88 30.12 15.148 30.248 15.46C30.376 15.764 30.44 16.104 30.44 16.48C30.44 16.856 30.376 17.2 30.248 17.512C30.12 17.816 29.92 18.08 29.648 18.304C29.384 18.528 29.048 18.7 28.64 18.82C28.232 18.94 27.752 19 27.2 19H24.2V10.6ZM27.14 18.016C27.94 18.016 28.5 17.884 28.82 17.62C29.148 17.348 29.312 16.968 29.312 16.48C29.312 15.992 29.148 15.616 28.82 15.352C28.5 15.08 27.94 14.944 27.14 14.944H25.328V18.016H27.14ZM34.5805 19.12C34.1725 19.12 33.7845 19.056 33.4165 18.928C33.0485 18.792 32.7245 18.592 32.4445 18.328C32.1645 18.056 31.9405 17.716 31.7725 17.308C31.6045 16.9 31.5205 16.424 31.5205 15.88V15.64C31.5205 15.128 31.6045 14.676 31.7725 14.284C31.9405 13.892 32.1645 13.568 32.4445 13.312C32.7245 13.048 33.0485 12.852 33.4165 12.724C33.7845 12.588 34.1725 12.52 34.5805 12.52C34.9885 12.52 35.3765 12.588 35.7445 12.724C36.1125 12.852 36.4365 13.048 36.7165 13.312C36.9965 13.568 37.2205 13.892 37.3885 14.284C37.5565 14.676 37.6405 15.128 37.6405 15.64V15.88C37.6405 16.424 37.5565 16.9 37.3885 17.308C37.2205 17.716 36.9965 18.056 36.7165 18.328C36.4365 18.592 36.1125 18.792 35.7445 18.928C35.3765 19.056 34.9885 19.12 34.5805 19.12ZM34.5805 18.16C34.8205 18.16 35.0605 18.12 35.3005 18.04C35.5405 17.952 35.7525 17.82 35.9365 17.644C36.1205 17.46 36.2685 17.224 36.3805 16.936C36.5005 16.648 36.5605 16.296 36.5605 15.88V15.64C36.5605 15.256 36.5005 14.928 36.3805 14.656C36.2685 14.384 36.1205 14.16 35.9365 13.984C35.7525 13.808 35.5405 13.68 35.3005 13.6C35.0605 13.52 34.8205 13.48 34.5805 13.48C34.3405 13.48 34.1005 13.52 33.8605 13.6C33.6205 13.68 33.4085 13.808 33.2245 13.984C33.0405 14.16 32.8885 14.384 32.7685 14.656C32.6565 14.928 32.6005 15.256 32.6005 15.64V15.88C32.6005 16.296 32.6565 16.648 32.7685 16.936C32.8885 17.224 33.0405 17.46 33.2245 17.644C33.4085 17.82 33.6205 17.952 33.8605 18.04C34.1005 18.12 34.3405 18.16 34.5805 18.16ZM39.1358 12.64H40.1918V15.292H41.0918C41.1238 14.836 41.2238 14.436 41.3918 14.092C41.5598 13.74 41.7718 13.448 42.0278 13.216C42.2918 12.984 42.5918 12.812 42.9278 12.7C43.2638 12.58 43.6198 12.52 43.9958 12.52C44.4038 12.52 44.7838 12.588 45.1358 12.724C45.4958 12.852 45.8078 13.048 46.0718 13.312C46.3358 13.568 46.5438 13.892 46.6958 14.284C46.8558 14.676 46.9358 15.128 46.9358 15.64V15.88C46.9358 16.424 46.8558 16.9 46.6958 17.308C46.5438 17.716 46.3358 18.056 46.0718 18.328C45.8078 18.592 45.4958 18.792 45.1358 18.928C44.7838 19.056 44.4038 19.12 43.9958 19.12C43.6198 19.12 43.2598 19.064 42.9158 18.952C42.5798 18.832 42.2798 18.652 42.0158 18.412C41.7598 18.172 41.5478 17.872 41.3798 17.512C41.2198 17.144 41.1238 16.716 41.0918 16.228H40.1918V19H39.1358V12.64ZM43.9958 18.16C44.2358 18.16 44.4678 18.12 44.6918 18.04C44.9158 17.952 45.1118 17.82 45.2798 17.644C45.4558 17.46 45.5958 17.224 45.6998 16.936C45.8038 16.648 45.8558 16.296 45.8558 15.88V15.64C45.8558 15.256 45.8038 14.928 45.6998 14.656C45.5958 14.384 45.4558 14.16 45.2798 13.984C45.1118 13.808 44.9158 13.68 44.6918 13.6C44.4678 13.52 44.2358 13.48 43.9958 13.48C43.7558 13.48 43.5238 13.52 43.2998 13.6C43.0758 13.68 42.8758 13.808 42.6998 13.984C42.5318 14.16 42.3958 14.384 42.2918 14.656C42.1878 14.928 42.1358 15.256 42.1358 15.64V15.88C42.1358 16.296 42.1878 16.648 42.2918 16.936C42.3958 17.224 42.5318 17.46 42.6998 17.644C42.8758 17.82 43.0758 17.952 43.2998 18.04C43.5238 18.12 43.7558 18.16 43.9958 18.16ZM50.9005 19.12C50.4925 19.12 50.1125 19.056 49.7605 18.928C49.4085 18.792 49.1045 18.592 48.8485 18.328C48.5925 18.056 48.3885 17.716 48.2365 17.308C48.0925 16.9 48.0205 16.424 48.0205 15.88V15.64C48.0205 15.128 48.1005 14.676 48.2605 14.284C48.4205 13.892 48.6325 13.568 48.8965 13.312C49.1605 13.048 49.4645 12.852 49.8085 12.724C50.1605 12.588 50.5245 12.52 50.9005 12.52C51.2765 12.52 51.6125 12.572 51.9085 12.676C52.2125 12.78 52.4725 12.924 52.6885 13.108C52.9125 13.292 53.0925 13.508 53.2285 13.756C53.3725 14.004 53.4765 14.272 53.5405 14.56H52.4605C52.3965 14.408 52.3205 14.268 52.2325 14.14C52.1525 14.004 52.0485 13.888 51.9205 13.792C51.8005 13.696 51.6565 13.62 51.4885 13.564C51.3205 13.508 51.1245 13.48 50.9005 13.48C50.6685 13.48 50.4445 13.524 50.2285 13.612C50.0125 13.692 49.8205 13.82 49.6525 13.996C49.4845 14.164 49.3485 14.384 49.2445 14.656C49.1485 14.928 49.1005 15.256 49.1005 15.64V15.88C49.1005 16.288 49.1485 16.64 49.2445 16.936C49.3485 17.224 49.4845 17.46 49.6525 17.644C49.8205 17.82 50.0125 17.952 50.2285 18.04C50.4445 18.12 50.6685 18.16 50.9005 18.16C51.2925 18.16 51.6205 18.064 51.8845 17.872C52.1565 17.68 52.3485 17.416 52.4605 17.08H53.5405C53.3885 17.712 53.0765 18.212 52.6045 18.58C52.1325 18.94 51.5645 19.12 50.9005 19.12ZM54.9795 12.64H56.0355V15.04H57.5595C58.3595 15.04 58.9475 15.216 59.3235 15.568C59.7075 15.92 59.8995 16.408 59.8995 17.032C59.8995 17.64 59.7075 18.12 59.3235 18.472C58.9475 18.824 58.3595 19 57.5595 19H54.9795V12.64ZM57.4995 18.064C57.9955 18.064 58.3435 17.976 58.5435 17.8C58.7435 17.624 58.8435 17.364 58.8435 17.02C58.8435 16.676 58.7435 16.416 58.5435 16.24C58.3435 16.064 57.9955 15.976 57.4995 15.976H56.0355V18.064H57.4995Z" fill="#6B360D"/>
<g opacity="0.75">
<path d="M118 10C117.724 10 117.5 10.2239 117.5 10.5V13.5H114.5C114.224 13.5 114 13.7239 114 14C114 14.2761 114.224 14.5 114.5 14.5H117.5V17.5C117.5 17.7761 117.724 18 118 18C118.276 18 118.5 17.7761 118.5 17.5V14.5H121.5C121.776 14.5 122 14.2761 122 14C122 13.7239 121.776 13.5 121.5 13.5H118.5V10.5C118.5 10.2239 118.276 10 118 10Z" fill="#6B360D"/>
<path d="M120.828 11.1716C120.633 10.9763 120.317 10.9763 120.121 11.1716L119 12.2929C118.805 12.4882 118.805 12.8047 119 13C119.195 13.1953 119.512 13.1953 119.707 13L120.828 11.8787C121.024 11.6834 121.024 11.3668 120.828 11.1716Z" fill="#6B360D"/>
<path d="M120.121 16.8286C120.317 17.0239 120.633 17.0239 120.828 16.8286C121.024 16.6333 121.024 16.3168 120.828 16.1215L119.707 15.0002C119.512 14.8049 119.195 14.8049 119 15.0002C118.805 15.1954 118.805 15.512 119 15.7073L120.121 16.8286Z" fill="#6B360D"/>
<path d="M117.016 12.3085C117.211 12.5038 117.211 12.8204 117.016 13.0156C116.82 13.2109 116.504 13.2109 116.309 13.0156L115.172 11.8787C114.976 11.6834 114.976 11.3668 115.172 11.1716C115.367 10.9763 115.683 10.9763 115.879 11.1716L117.016 12.3085Z" fill="#6B360D"/>
<path d="M117.016 14.9846C117.211 15.1798 117.211 15.4964 117.016 15.6917L115.879 16.8286C115.683 17.0239 115.367 17.0239 115.172 16.8286C114.976 16.6333 114.976 16.3168 115.172 16.1215L116.309 14.9846C116.504 14.7893 116.82 14.7893 117.016 14.9846Z" fill="#6B360D"/>
</g>
<path opacity="0.75" d="M118.036 45.26C118.796 45.26 119.392 45.452 119.824 45.836C120.256 46.22 120.472 46.752 120.472 47.432V47.828C120.472 48.54 120.24 49.104 119.776 49.52C119.32 49.928 118.696 50.132 117.904 50.132C117.112 50.132 116.484 49.94 116.02 49.556C115.556 49.172 115.324 48.648 115.324 47.984V47.756H116.176V47.984C116.176 48.408 116.332 48.74 116.644 48.98C116.956 49.22 117.376 49.34 117.904 49.34C118.432 49.34 118.848 49.208 119.152 48.944C119.456 48.68 119.608 48.312 119.608 47.84V47.456C119.608 47 119.452 46.644 119.14 46.388C118.836 46.132 118.408 46.004 117.856 46.004H116.872V45.32L119.32 42.908H115.456V42.128H120.436V42.908L118.036 45.26Z" fill="#6B360D"/>
<path d="M13.962 50V37.4H18.876C19.98 37.4 20.922 37.574 21.702 37.922C22.482 38.27 23.082 38.774 23.502 39.434C23.922 40.094 24.132 40.88 24.132 41.792C24.132 42.704 23.922 43.49 23.502 44.15C23.082 44.798 22.482 45.302 21.702 45.662C20.922 46.01 19.98 46.184 18.876 46.184H14.952L15.762 45.338V50H13.962ZM15.762 45.518L14.952 44.618H18.822C19.974 44.618 20.844 44.372 21.432 43.88C22.032 43.388 22.332 42.692 22.332 41.792C22.332 40.892 22.032 40.196 21.432 39.704C20.844 39.212 19.974 38.966 18.822 38.966H14.952L15.762 38.066V45.518ZM30.3987 50.108C29.4387 50.108 28.5867 49.898 27.8427 49.478C27.0987 49.058 26.5107 48.482 26.0787 47.75C25.6467 47.006 25.4307 46.166 25.4307 45.23C25.4307 44.282 25.6467 43.442 26.0787 42.71C26.5107 41.978 27.0987 41.408 27.8427 41C28.5867 40.58 29.4387 40.37 30.3987 40.37C31.3467 40.37 32.1927 40.58 32.9367 41C33.6927 41.408 34.2807 41.978 34.7007 42.71C35.1327 43.43 35.3487 44.27 35.3487 45.23C35.3487 46.178 35.1327 47.018 34.7007 47.75C34.2807 48.482 33.6927 49.058 32.9367 49.478C32.1927 49.898 31.3467 50.108 30.3987 50.108ZM30.3987 48.596C31.0107 48.596 31.5567 48.458 32.0367 48.182C32.5287 47.906 32.9127 47.516 33.1887 47.012C33.4647 46.496 33.6027 45.902 33.6027 45.23C33.6027 44.546 33.4647 43.958 33.1887 43.466C32.9127 42.962 32.5287 42.572 32.0367 42.296C31.5567 42.02 31.0107 41.882 30.3987 41.882C29.7867 41.882 29.2407 42.02 28.7607 42.296C28.2807 42.572 27.8967 42.962 27.6087 43.466C27.3207 43.958 27.1767 44.546 27.1767 45.23C27.1767 45.902 27.3207 46.496 27.6087 47.012C27.8967 47.516 28.2807 47.906 28.7607 48.182C29.2407 48.458 29.7867 48.596 30.3987 48.596ZM36.1896 49.982L36.2976 48.524C36.3816 48.536 36.4596 48.548 36.5316 48.56C36.6036 48.572 36.6696 48.578 36.7296 48.578C37.1136 48.578 37.4136 48.446 37.6296 48.182C37.8576 47.918 38.0256 47.57 38.1336 47.138C38.2416 46.694 38.3196 46.196 38.3676 45.644C38.4156 45.092 38.4516 44.54 38.4756 43.988L38.6376 40.46H45.9636V50H44.2356V41.468L44.6496 41.972H39.7536L40.1496 41.45L40.0236 44.096C39.9876 44.936 39.9216 45.722 39.8256 46.454C39.7296 47.186 39.5796 47.828 39.3756 48.38C39.1836 48.932 38.9136 49.364 38.5656 49.676C38.2296 49.988 37.7916 50.144 37.2516 50.144C37.0956 50.144 36.9276 50.126 36.7476 50.09C36.5796 50.066 36.3936 50.03 36.1896 49.982ZM53.5529 50.108C52.5329 50.108 51.6329 49.898 50.8529 49.478C50.0849 49.058 49.4849 48.482 49.0529 47.75C48.6329 47.018 48.4229 46.178 48.4229 45.23C48.4229 44.282 48.6269 43.442 49.0349 42.71C49.4549 41.978 50.0249 41.408 50.7449 41C51.4769 40.58 52.2989 40.37 53.2109 40.37C54.1349 40.37 54.9509 40.574 55.6589 40.982C56.3669 41.39 56.9189 41.966 57.3149 42.71C57.7229 43.442 57.9269 44.3 57.9269 45.284C57.9269 45.356 57.9209 45.44 57.9089 45.536C57.9089 45.632 57.9029 45.722 57.8909 45.806H49.7729V44.564H56.9909L56.2889 44.996C56.3009 44.384 56.1749 43.838 55.9109 43.358C55.6469 42.878 55.2809 42.506 54.8129 42.242C54.3569 41.966 53.8229 41.828 53.2109 41.828C52.6109 41.828 52.0769 41.966 51.6089 42.242C51.1409 42.506 50.7749 42.884 50.5109 43.376C50.2469 43.856 50.1149 44.408 50.1149 45.032V45.32C50.1149 45.956 50.2589 46.526 50.5469 47.03C50.8469 47.522 51.2609 47.906 51.7889 48.182C52.3169 48.458 52.9229 48.596 53.6069 48.596C54.1709 48.596 54.6809 48.5 55.1369 48.308C55.6049 48.116 56.0129 47.828 56.3609 47.444L57.3149 48.56C56.8829 49.064 56.3429 49.448 55.6949 49.712C55.0589 49.976 54.3449 50.108 53.5529 50.108ZM60.6076 50V40.46H65.0356C66.1516 40.46 67.0276 40.676 67.6636 41.108C68.3116 41.528 68.6356 42.128 68.6356 42.908C68.6356 43.688 68.3296 44.294 67.7176 44.726C67.1176 45.146 66.3196 45.356 65.3236 45.356L65.5936 44.888C66.7336 44.888 67.5796 45.098 68.1316 45.518C68.6836 45.938 68.9596 46.556 68.9596 47.372C68.9596 48.2 68.6476 48.848 68.0236 49.316C67.4116 49.772 66.4696 50 65.1976 50H60.6076ZM62.2996 48.668H65.0716C65.7916 48.668 66.3316 48.56 66.6916 48.344C67.0516 48.116 67.2316 47.756 67.2316 47.264C67.2316 46.76 67.0636 46.394 66.7276 46.166C66.4036 45.926 65.8876 45.806 65.1796 45.806H62.2996V48.668ZM62.2996 44.564H64.8916C65.5516 44.564 66.0496 44.444 66.3856 44.204C66.7336 43.952 66.9076 43.604 66.9076 43.16C66.9076 42.704 66.7336 42.362 66.3856 42.134C66.0496 41.906 65.5516 41.792 64.8916 41.792H62.2996V44.564ZM77.5142 50V47.984L77.4242 47.606V44.168C77.4242 43.436 77.2082 42.872 76.7762 42.476C76.3562 42.068 75.7202 41.864 74.8682 41.864C74.3042 41.864 73.7522 41.96 73.2122 42.152C72.6722 42.332 72.2162 42.578 71.8442 42.89L71.1242 41.594C71.6162 41.198 72.2042 40.898 72.8882 40.694C73.5842 40.478 74.3102 40.37 75.0662 40.37C76.3742 40.37 77.3822 40.688 78.0902 41.324C78.7982 41.96 79.1522 42.932 79.1522 44.24V50H77.5142ZM74.3822 50.108C73.6742 50.108 73.0502 49.988 72.5102 49.748C71.9822 49.508 71.5742 49.178 71.2862 48.758C70.9982 48.326 70.8542 47.84 70.8542 47.3C70.8542 46.784 70.9742 46.316 71.2142 45.896C71.4662 45.476 71.8682 45.14 72.4202 44.888C72.9842 44.636 73.7402 44.51 74.6882 44.51H77.7122V45.752H74.7602C73.8962 45.752 73.3142 45.896 73.0142 46.184C72.7142 46.472 72.5642 46.82 72.5642 47.228C72.5642 47.696 72.7502 48.074 73.1222 48.362C73.4942 48.638 74.0102 48.776 74.6702 48.776C75.3182 48.776 75.8822 48.632 76.3622 48.344C76.8542 48.056 77.2082 47.636 77.4242 47.084L77.7662 48.272C77.5382 48.836 77.1362 49.286 76.5602 49.622C75.9842 49.946 75.2582 50.108 74.3822 50.108ZM88.3658 50V46.652L88.6358 46.976H85.5938C84.3218 46.976 83.3258 46.706 82.6058 46.166C81.8978 45.626 81.5438 44.84 81.5438 43.808C81.5438 42.704 81.9218 41.87 82.6778 41.306C83.4458 40.742 84.4658 40.46 85.7378 40.46H89.9138V50H88.3658ZM81.4538 50L84.0458 46.346H85.8278L83.3078 50H81.4538ZM88.3658 46.112V41.486L88.6358 41.972H85.7918C84.9998 41.972 84.3878 42.122 83.9558 42.422C83.5238 42.71 83.3078 43.19 83.3078 43.862C83.3078 45.11 84.1118 45.734 85.7198 45.734H88.6358L88.3658 46.112Z" fill="#6B360D"/>
<g opacity="0.75">
<rect width="2" height="4" transform="matrix(-1 0 0 1 19 14)" fill="#6B360D"/>
<rect width="2" height="2" transform="matrix(-1 0 0 1 15 16)" fill="#6B360D"/>
</g>
</g>
<g clip-path="url(#clip1_1401_51653)">
<rect width="204" height="60.0006" transform="translate(136)" fill="white"/>
<g opacity="0.1">
<path d="M325.384 0.000488281H304.363L340 20.5757V8.43886L325.384 0.000488281Z" fill="#6B360D"/>
<path d="M340 38.7809L272.83 0.000488281H251.809L340 50.9177V38.7809Z" fill="#6B360D"/>
<path d="M324.199 60.0005L220.276 0.000488281H199.255L303.178 60.0005H324.199Z" fill="#6B360D"/>
<path d="M271.645 60.0005L167.722 0.000488281H146.701L250.624 60.0005H271.645Z" fill="#6B360D"/>
<path d="M219.092 60.0005L136 12.0276V24.1644L198.07 60.0005H219.092Z" fill="#6B360D"/>
<path d="M166.538 60.0005L136 42.3696V54.5064L145.516 60.0005H166.538Z" fill="#6B360D"/>
</g>
<rect opacity="0.6" x="136.5" y="0.5" width="203" height="59" rx="1.5" stroke="#6B360D"/>
<path opacity="0.75" d="M155.26 19.12C154.788 19.12 154.34 19.04 153.916 18.88C153.492 18.712 153.116 18.456 152.788 18.112C152.46 17.76 152.2 17.316 152.008 16.78C151.816 16.244 151.72 15.604 151.72 14.86V14.62C151.72 13.9 151.816 13.28 152.008 12.76C152.2 12.24 152.46 11.812 152.788 11.476C153.116 11.14 153.492 10.892 153.916 10.732C154.34 10.564 154.788 10.48 155.26 10.48C155.716 10.48 156.132 10.54 156.508 10.66C156.892 10.78 157.228 10.952 157.516 11.176C157.804 11.4 158.036 11.676 158.212 12.004C158.396 12.332 158.512 12.704 158.56 13.12H157.36C157.248 12.576 157.012 12.168 156.652 11.896C156.292 11.624 155.828 11.488 155.26 11.488C154.964 11.488 154.676 11.544 154.396 11.656C154.116 11.768 153.864 11.948 153.64 12.196C153.424 12.436 153.248 12.756 153.112 13.156C152.984 13.556 152.92 14.044 152.92 14.62V14.86C152.92 15.468 152.992 15.98 153.136 16.396C153.28 16.804 153.464 17.136 153.688 17.392C153.912 17.648 154.164 17.832 154.444 17.944C154.724 18.056 154.996 18.112 155.26 18.112C155.884 18.112 156.372 17.96 156.724 17.656C157.076 17.352 157.288 16.96 157.36 16.48H158.56C158.496 16.944 158.368 17.344 158.176 17.68C157.984 18.008 157.74 18.28 157.444 18.496C157.156 18.712 156.824 18.872 156.448 18.976C156.08 19.072 155.684 19.12 155.26 19.12ZM161.568 13.576H159.396V12.64H164.796V13.576H162.624V19H161.568V13.576ZM165.999 12.64H166.983V13.84C167.199 13.416 167.499 13.092 167.883 12.868C168.275 12.636 168.727 12.52 169.239 12.52C170.039 12.52 170.679 12.784 171.159 13.312C171.639 13.832 171.879 14.608 171.879 15.64V15.88C171.879 16.424 171.815 16.9 171.687 17.308C171.559 17.708 171.379 18.044 171.147 18.316C170.915 18.58 170.635 18.78 170.307 18.916C169.987 19.052 169.631 19.12 169.239 19.12C168.695 19.12 168.239 19 167.871 18.76C167.511 18.52 167.239 18.22 167.055 17.86V21.4H165.999V12.64ZM168.999 18.184C169.255 18.184 169.495 18.136 169.719 18.04C169.943 17.936 170.135 17.788 170.295 17.596C170.463 17.404 170.591 17.164 170.679 16.876C170.775 16.588 170.823 16.256 170.823 15.88V15.64C170.823 15.296 170.775 14.988 170.679 14.716C170.591 14.444 170.463 14.216 170.295 14.032C170.135 13.84 169.943 13.696 169.719 13.6C169.495 13.504 169.255 13.456 168.999 13.456C168.711 13.456 168.447 13.504 168.207 13.6C167.967 13.688 167.763 13.816 167.595 13.984C167.427 14.144 167.295 14.336 167.199 14.56C167.103 14.784 167.055 15.024 167.055 15.28V16.24C167.055 16.528 167.103 16.792 167.199 17.032C167.295 17.272 167.427 17.476 167.595 17.644C167.763 17.812 167.967 17.944 168.207 18.04C168.447 18.136 168.711 18.184 168.999 18.184ZM175.194 19.12C174.842 19.12 174.53 19.072 174.258 18.976C173.994 18.872 173.77 18.732 173.586 18.556C173.402 18.38 173.262 18.172 173.166 17.932C173.07 17.692 173.022 17.428 173.022 17.14C173.022 16.508 173.206 16.052 173.574 15.772C173.95 15.492 174.486 15.352 175.182 15.352H177.246V14.92C177.246 14.376 177.122 14 176.874 13.792C176.634 13.584 176.27 13.48 175.782 13.48C175.326 13.48 174.994 13.568 174.786 13.744C174.578 13.912 174.462 14.104 174.438 14.32H173.382C173.398 14.064 173.466 13.828 173.586 13.612C173.714 13.388 173.882 13.196 174.09 13.036C174.306 12.876 174.562 12.752 174.858 12.664C175.154 12.568 175.482 12.52 175.842 12.52C176.594 12.52 177.19 12.7 177.63 13.06C178.078 13.412 178.302 13.992 178.302 14.8V17.38C178.302 17.716 178.302 18.012 178.302 18.268C178.31 18.516 178.33 18.76 178.362 19H177.438C177.414 18.816 177.398 18.644 177.39 18.484C177.382 18.316 177.378 18.128 177.378 17.92C177.21 18.256 176.938 18.54 176.562 18.772C176.186 19.004 175.73 19.12 175.194 19.12ZM175.422 18.16C175.67 18.16 175.902 18.128 176.118 18.064C176.342 17.992 176.538 17.892 176.706 17.764C176.874 17.628 177.006 17.464 177.102 17.272C177.198 17.08 177.246 16.856 177.246 16.6V16.168H175.362C174.97 16.168 174.662 16.248 174.438 16.408C174.214 16.56 174.102 16.804 174.102 17.14C174.102 17.436 174.206 17.68 174.414 17.872C174.63 18.064 174.966 18.16 175.422 18.16ZM179.447 18.064H180.227C180.315 17.944 180.395 17.76 180.467 17.512C180.539 17.264 180.603 16.972 180.659 16.636C180.715 16.3 180.755 15.936 180.779 15.544C180.811 15.144 180.827 14.736 180.827 14.32V12.64H185.267V18.064H186.167V20.5H185.159V19H180.455V20.5H179.447V18.064ZM184.211 18.064V13.576H181.859V14.56C181.859 14.896 181.847 15.232 181.823 15.568C181.799 15.896 181.763 16.212 181.715 16.516C181.667 16.812 181.607 17.096 181.535 17.368C181.471 17.632 181.395 17.864 181.307 18.064H184.211ZM189.362 19.12C189.01 19.12 188.698 19.072 188.426 18.976C188.162 18.872 187.938 18.732 187.754 18.556C187.57 18.38 187.43 18.172 187.334 17.932C187.238 17.692 187.19 17.428 187.19 17.14C187.19 16.508 187.374 16.052 187.742 15.772C188.118 15.492 188.654 15.352 189.35 15.352H191.414V14.92C191.414 14.376 191.29 14 191.042 13.792C190.802 13.584 190.438 13.48 189.95 13.48C189.494 13.48 189.162 13.568 188.954 13.744C188.746 13.912 188.63 14.104 188.606 14.32H187.55C187.566 14.064 187.634 13.828 187.754 13.612C187.882 13.388 188.05 13.196 188.258 13.036C188.474 12.876 188.73 12.752 189.026 12.664C189.322 12.568 189.65 12.52 190.01 12.52C190.762 12.52 191.358 12.7 191.798 13.06C192.246 13.412 192.47 13.992 192.47 14.8V17.38C192.47 17.716 192.47 18.012 192.47 18.268C192.478 18.516 192.498 18.76 192.53 19H191.606C191.582 18.816 191.566 18.644 191.558 18.484C191.55 18.316 191.546 18.128 191.546 17.92C191.378 18.256 191.106 18.54 190.73 18.772C190.354 19.004 189.898 19.12 189.362 19.12ZM189.59 18.16C189.838 18.16 190.07 18.128 190.286 18.064C190.51 17.992 190.706 17.892 190.874 17.764C191.042 17.628 191.174 17.464 191.27 17.272C191.366 17.08 191.414 16.856 191.414 16.6V16.168H189.53C189.138 16.168 188.83 16.248 188.606 16.408C188.382 16.56 188.27 16.804 188.27 17.14C188.27 17.436 188.374 17.68 188.582 17.872C188.798 18.064 189.134 18.16 189.59 18.16ZM194.335 12.64H195.391V15.292H196.291C196.323 14.836 196.423 14.436 196.591 14.092C196.759 13.74 196.971 13.448 197.227 13.216C197.491 12.984 197.791 12.812 198.127 12.7C198.463 12.58 198.819 12.52 199.195 12.52C199.603 12.52 199.983 12.588 200.335 12.724C200.695 12.852 201.007 13.048 201.271 13.312C201.535 13.568 201.743 13.892 201.895 14.284C202.055 14.676 202.135 15.128 202.135 15.64V15.88C202.135 16.424 202.055 16.9 201.895 17.308C201.743 17.716 201.535 18.056 201.271 18.328C201.007 18.592 200.695 18.792 200.335 18.928C199.983 19.056 199.603 19.12 199.195 19.12C198.819 19.12 198.459 19.064 198.115 18.952C197.779 18.832 197.479 18.652 197.215 18.412C196.959 18.172 196.747 17.872 196.579 17.512C196.419 17.144 196.323 16.716 196.291 16.228H195.391V19H194.335V12.64ZM199.195 18.16C199.435 18.16 199.667 18.12 199.891 18.04C200.115 17.952 200.311 17.82 200.479 17.644C200.655 17.46 200.795 17.224 200.899 16.936C201.003 16.648 201.055 16.296 201.055 15.88V15.64C201.055 15.256 201.003 14.928 200.899 14.656C200.795 14.384 200.655 14.16 200.479 13.984C200.311 13.808 200.115 13.68 199.891 13.6C199.667 13.52 199.435 13.48 199.195 13.48C198.955 13.48 198.723 13.52 198.499 13.6C198.275 13.68 198.075 13.808 197.899 13.984C197.731 14.16 197.595 14.384 197.491 14.656C197.387 14.928 197.335 15.256 197.335 15.64V15.88C197.335 16.296 197.387 16.648 197.491 16.936C197.595 17.224 197.731 17.46 197.899 17.644C198.075 17.82 198.275 17.952 198.499 18.04C198.723 18.12 198.955 18.16 199.195 18.16Z" fill="#6B360D"/>
<g opacity="0.75">
<rect opacity="0.25" x="145" y="10" width="2" height="8" fill="#6B360D"/>
<rect x="145" y="16" width="2" height="2" fill="#6B360D"/>
</g>
<g opacity="0.75">
<path d="M329.535 17.5354C329.731 17.3401 329.731 17.0235 329.535 16.8283L326.707 13.9999L329.535 11.1714C329.731 10.9762 329.731 10.6596 329.535 10.4643C329.34 10.2691 329.024 10.2691 328.828 10.4643L326 13.2927L323.171 10.4643C322.976 10.2691 322.66 10.2691 322.464 10.4643C322.269 10.6596 322.269 10.9762 322.464 11.1714L325.293 13.9999L322.464 16.8283C322.269 17.0235 322.269 17.3401 322.464 17.5354C322.66 17.7307 322.976 17.7307 323.171 17.5354L326 14.707L328.828 17.5354C329.024 17.7306 329.34 17.7306 329.535 17.5354Z" fill="#6B360D"/>
</g>
<path opacity="0.75" d="M329.215 48.188H327.835V50H326.971V48.188H322.999V47.384C323.415 46.48 323.759 45.608 324.031 44.768C324.303 43.928 324.519 43.048 324.679 42.128H325.567V42.272C325.247 44 324.707 45.704 323.947 47.384H326.971V43.544H327.835V47.384H329.215V48.188Z" fill="#6B360D"/>
<path d="M145.962 50V37.4H155.466V38.93H147.744V42.53H151.668C153.168 42.53 154.308 42.842 155.088 43.466C155.868 44.09 156.258 44.996 156.258 46.184C156.258 47.408 155.832 48.35 154.98 49.01C154.14 49.67 152.934 50 151.362 50H145.962ZM147.744 48.578H151.29C152.334 48.578 153.12 48.38 153.648 47.984C154.188 47.588 154.458 47 154.458 46.22C154.458 44.708 153.402 43.952 151.29 43.952H147.744V48.578ZM162.926 50.108C161.966 50.108 161.114 49.898 160.37 49.478C159.626 49.058 159.038 48.482 158.606 47.75C158.174 47.006 157.958 46.166 157.958 45.23C157.958 44.282 158.174 43.442 158.606 42.71C159.038 41.978 159.626 41.408 160.37 41C161.114 40.58 161.966 40.37 162.926 40.37C163.874 40.37 164.72 40.58 165.464 41C166.22 41.408 166.808 41.978 167.228 42.71C167.66 43.43 167.876 44.27 167.876 45.23C167.876 46.178 167.66 47.018 167.228 47.75C166.808 48.482 166.22 49.058 165.464 49.478C164.72 49.898 163.874 50.108 162.926 50.108ZM162.926 48.596C163.538 48.596 164.084 48.458 164.564 48.182C165.056 47.906 165.44 47.516 165.716 47.012C165.992 46.496 166.13 45.902 166.13 45.23C166.13 44.546 165.992 43.958 165.716 43.466C165.44 42.962 165.056 42.572 164.564 42.296C164.084 42.02 163.538 41.882 162.926 41.882C162.314 41.882 161.768 42.02 161.288 42.296C160.808 42.572 160.424 42.962 160.136 43.466C159.848 43.958 159.704 44.546 159.704 45.23C159.704 45.902 159.848 46.496 160.136 47.012C160.424 47.516 160.808 47.906 161.288 48.182C161.768 48.458 162.314 48.596 162.926 48.596ZM168.717 49.982L168.825 48.524C168.909 48.536 168.987 48.548 169.059 48.56C169.131 48.572 169.197 48.578 169.257 48.578C169.641 48.578 169.941 48.446 170.157 48.182C170.385 47.918 170.553 47.57 170.661 47.138C170.769 46.694 170.847 46.196 170.895 45.644C170.943 45.092 170.979 44.54 171.003 43.988L171.165 40.46H178.491V50H176.763V41.468L177.177 41.972H172.281L172.677 41.45L172.551 44.096C172.515 44.936 172.449 45.722 172.353 46.454C172.257 47.186 172.107 47.828 171.903 48.38C171.711 48.932 171.441 49.364 171.093 49.676C170.757 49.988 170.319 50.144 169.779 50.144C169.623 50.144 169.455 50.126 169.275 50.09C169.107 50.066 168.921 50.03 168.717 49.982ZM186.08 50.108C185.06 50.108 184.16 49.898 183.38 49.478C182.612 49.058 182.012 48.482 181.58 47.75C181.16 47.018 180.95 46.178 180.95 45.23C180.95 44.282 181.154 43.442 181.562 42.71C181.982 41.978 182.552 41.408 183.272 41C184.004 40.58 184.826 40.37 185.738 40.37C186.662 40.37 187.478 40.574 188.186 40.982C188.894 41.39 189.446 41.966 189.842 42.71C190.25 43.442 190.454 44.3 190.454 45.284C190.454 45.356 190.448 45.44 190.436 45.536C190.436 45.632 190.43 45.722 190.418 45.806H182.3V44.564H189.518L188.816 44.996C188.828 44.384 188.702 43.838 188.438 43.358C188.174 42.878 187.808 42.506 187.34 42.242C186.884 41.966 186.35 41.828 185.738 41.828C185.138 41.828 184.604 41.966 184.136 42.242C183.668 42.506 183.302 42.884 183.038 43.376C182.774 43.856 182.642 44.408 182.642 45.032V45.32C182.642 45.956 182.786 46.526 183.074 47.03C183.374 47.522 183.788 47.906 184.316 48.182C184.844 48.458 185.45 48.596 186.134 48.596C186.698 48.596 187.208 48.5 187.664 48.308C188.132 48.116 188.54 47.828 188.888 47.444L189.842 48.56C189.41 49.064 188.87 49.448 188.222 49.712C187.586 49.976 186.872 50.108 186.08 50.108ZM193.135 50V40.46H197.563C198.679 40.46 199.555 40.676 200.191 41.108C200.839 41.528 201.163 42.128 201.163 42.908C201.163 43.688 200.857 44.294 200.245 44.726C199.645 45.146 198.847 45.356 197.851 45.356L198.121 44.888C199.261 44.888 200.107 45.098 200.659 45.518C201.211 45.938 201.487 46.556 201.487 47.372C201.487 48.2 201.175 48.848 200.551 49.316C199.939 49.772 198.997 50 197.725 50H193.135ZM194.827 48.668H197.599C198.319 48.668 198.859 48.56 199.219 48.344C199.579 48.116 199.759 47.756 199.759 47.264C199.759 46.76 199.591 46.394 199.255 46.166C198.931 45.926 198.415 45.806 197.707 45.806H194.827V48.668ZM194.827 44.564H197.419C198.079 44.564 198.577 44.444 198.913 44.204C199.261 43.952 199.435 43.604 199.435 43.16C199.435 42.704 199.261 42.362 198.913 42.134C198.577 41.906 198.079 41.792 197.419 41.792H194.827V44.564ZM210.042 50V47.984L209.952 47.606V44.168C209.952 43.436 209.736 42.872 209.304 42.476C208.884 42.068 208.248 41.864 207.396 41.864C206.832 41.864 206.28 41.96 205.74 42.152C205.2 42.332 204.744 42.578 204.372 42.89L203.652 41.594C204.144 41.198 204.732 40.898 205.416 40.694C206.112 40.478 206.838 40.37 207.594 40.37C208.902 40.37 209.91 40.688 210.618 41.324C211.326 41.96 211.68 42.932 211.68 44.24V50H210.042ZM206.91 50.108C206.202 50.108 205.578 49.988 205.038 49.748C204.51 49.508 204.102 49.178 203.814 48.758C203.526 48.326 203.382 47.84 203.382 47.3C203.382 46.784 203.502 46.316 203.742 45.896C203.994 45.476 204.396 45.14 204.948 44.888C205.512 44.636 206.268 44.51 207.216 44.51H210.24V45.752H207.288C206.424 45.752 205.842 45.896 205.542 46.184C205.242 46.472 205.092 46.82 205.092 47.228C205.092 47.696 205.278 48.074 205.65 48.362C206.022 48.638 206.538 48.776 207.198 48.776C207.846 48.776 208.41 48.632 208.89 48.344C209.382 48.056 209.736 47.636 209.952 47.084L210.294 48.272C210.066 48.836 209.664 49.286 209.088 49.622C208.512 49.946 207.786 50.108 206.91 50.108ZM220.893 50V46.652L221.163 46.976H218.121C216.849 46.976 215.853 46.706 215.133 46.166C214.425 45.626 214.071 44.84 214.071 43.808C214.071 42.704 214.449 41.87 215.205 41.306C215.973 40.742 216.993 40.46 218.265 40.46H222.441V50H220.893ZM213.981 50L216.573 46.346H218.355L215.835 50H213.981ZM220.893 46.112V41.486L221.163 41.972H218.319C217.527 41.972 216.915 42.122 216.483 42.422C216.051 42.71 215.835 43.19 215.835 43.862C215.835 45.11 216.639 45.734 218.247 45.734H221.163L220.893 46.112Z" fill="#6B360D"/>
</g>
<defs>
<linearGradient id="paint0_linear_1401_51653" x1="172" y1="64" x2="172" y2="40" gradientUnits="userSpaceOnUse">
<stop stop-color="white"/>
<stop offset="1" stop-color="white" stop-opacity="0"/>
</linearGradient>
<clipPath id="clip0_1401_51653">
<rect width="128" height="60" fill="white" transform="translate(4)"/>
</clipPath>
<clipPath id="clip1_1401_51653">
<rect width="204" height="60.0006" fill="white" transform="translate(136)"/>
</clipPath>
</defs>
</svg>
