<svg width="300" height="100" viewBox="0 0 300 100" fill="none" xmlns="http://www.w3.org/2000/svg">
<g opacity="0.75">
<mask id="mask0_1401_51595" style="mask-type:alpha" maskUnits="userSpaceOnUse" x="0" y="0" width="300" height="48">
<path d="M0 2C0 0.895431 0.895431 0 2 0H298C299.105 0 300 0.895431 300 2V46C300 47.1046 299.105 48 298 48H2C0.895429 48 0 47.1046 0 46V2Z" fill="url(#paint0_linear_1401_51595)"/>
</mask>
<g mask="url(#mask0_1401_51595)">
<path d="M2 0.5H298C298.828 0.5 299.5 1.17157 299.5 2V46C299.5 46.8284 298.828 47.5 298 47.5H2C1.17157 47.5 0.5 46.8284 0.5 46V2C0.5 1.17157 1.17157 0.5 2 0.5Z" stroke="#6B360D"/>
</g>
</g>
<g clip-path="url(#clip0_1401_51595)">
<rect x="4" y="4" width="144" height="96" rx="2" fill="#6B360D"/>
<path opacity="0.05" d="M4 72L148 45.2531V25.751L4 52.4979V72Z" fill="white"/>
<path opacity="0.1" d="M4 47.6226L148 20.8756V16.0001L4 42.747V47.6226Z" fill="white"/>
<path opacity="0.75" d="M35.456 18.632L32.48 14.6H33.728L36.356 18.212H37.196V14.6H38.324V18.212H39.164L41.816 14.6H43.04L40.064 18.596L43.16 23H41.84L39.164 19.148H38.324V23H37.196V19.148H36.356L33.656 23H32.36L35.456 18.632ZM44.4795 16.64H45.5355V21.44L48.8235 16.64H49.8795V23H48.8235V18.2L45.5355 23H44.4795V16.64ZM51.8038 16.64H54.5638C55.3478 16.64 55.9238 16.804 56.2918 17.132C56.6598 17.452 56.8438 17.868 56.8438 18.38C56.8438 18.516 56.8198 18.656 56.7718 18.8C56.7238 18.936 56.6558 19.064 56.5678 19.184C56.4878 19.304 56.3878 19.408 56.2678 19.496C56.1558 19.584 56.0278 19.652 55.8838 19.7C56.2758 19.796 56.5718 19.98 56.7718 20.252C56.9798 20.516 57.0838 20.828 57.0838 21.188C57.0838 21.74 56.8998 22.18 56.5318 22.508C56.1638 22.836 55.5878 23 54.8038 23H51.8038V16.64ZM54.8038 22.064C55.2518 22.064 55.5678 21.984 55.7518 21.824C55.9358 21.664 56.0278 21.436 56.0278 21.14C56.0278 20.836 55.9358 20.604 55.7518 20.444C55.5678 20.276 55.2518 20.192 54.8038 20.192H52.8598V22.064H54.8038ZM54.5638 19.328C55.0198 19.328 55.3358 19.248 55.5118 19.088C55.6958 18.928 55.7878 18.708 55.7878 18.428C55.7878 18.164 55.6958 17.956 55.5118 17.804C55.3358 17.652 55.0198 17.576 54.5638 17.576H52.8598V19.328H54.5638ZM59.1945 25.52C59.0745 25.52 58.9545 25.508 58.8345 25.484V24.524C58.9545 24.548 59.0745 24.56 59.1945 24.56C59.3145 24.56 59.4185 24.54 59.5065 24.5C59.5945 24.46 59.6785 24.384 59.7585 24.272C59.8385 24.16 59.9225 24 60.0105 23.792C60.1065 23.592 60.2145 23.328 60.3345 23L57.6345 16.64H58.8105L60.8745 21.8L62.7465 16.64H63.8745L61.4745 23C61.3065 23.448 61.1465 23.832 60.9945 24.152C60.8425 24.472 60.6785 24.732 60.5025 24.932C60.3345 25.14 60.1465 25.288 59.9385 25.376C59.7305 25.472 59.4825 25.52 59.1945 25.52Z" fill="white"/>
<g opacity="0.75">
<rect width="2" height="8" transform="matrix(-1 0 0 1 27 14)" fill="white"/>
<rect width="2" height="6" transform="matrix(-1 0 0 1 23 16)" fill="white"/>
<rect width="2" height="4" transform="matrix(-1 0 0 1 19 18)" fill="white"/>
<rect width="2" height="2" transform="matrix(-1 0 0 1 15 20)" fill="white"/>
</g>
<path opacity="0.5" d="M135.032 90H134.168V83.628C133.872 83.788 133.492 83.868 133.028 83.868H132.104V83.076H132.992C133.376 83.076 133.668 82.996 133.868 82.836C134.068 82.668 134.168 82.432 134.168 82.128H135.032V90Z" fill="white"/>
<g opacity="0.75">
<path d="M134 13C133.724 13 133.5 13.2239 133.5 13.5V17.5H129.5C129.224 17.5 129 17.7239 129 18C129 18.2761 129.224 18.5 129.5 18.5H133.5V22.5C133.5 22.7761 133.724 23 134 23C134.276 23 134.5 22.7761 134.5 22.5V18.5H138.5C138.776 18.5 139 18.2761 139 18C139 17.7239 138.776 17.5 138.5 17.5H134.5V13.5C134.5 13.2239 134.276 13 134 13Z" fill="white"/>
</g>
<path d="M13.962 90V77.4H23.466V78.93H15.744V82.53H19.668C21.168 82.53 22.308 82.842 23.088 83.466C23.868 84.09 24.258 84.996 24.258 86.184C24.258 87.408 23.832 88.35 22.98 89.01C22.14 89.67 20.934 90 19.362 90H13.962ZM15.744 88.578H19.29C20.334 88.578 21.12 88.38 21.648 87.984C22.188 87.588 22.458 87 22.458 86.22C22.458 84.708 21.402 83.952 19.29 83.952H15.744V88.578ZM32.69 90V87.984L32.6 87.606V84.168C32.6 83.436 32.384 82.872 31.952 82.476C31.532 82.068 30.896 81.864 30.044 81.864C29.48 81.864 28.928 81.96 28.388 82.152C27.848 82.332 27.392 82.578 27.02 82.89L26.3 81.594C26.792 81.198 27.38 80.898 28.064 80.694C28.76 80.478 29.486 80.37 30.242 80.37C31.55 80.37 32.558 80.688 33.266 81.324C33.974 81.96 34.328 82.932 34.328 84.24V90H32.69ZM29.558 90.108C28.85 90.108 28.226 89.988 27.686 89.748C27.158 89.508 26.75 89.178 26.462 88.758C26.174 88.326 26.03 87.84 26.03 87.3C26.03 86.784 26.15 86.316 26.39 85.896C26.642 85.476 27.044 85.14 27.596 84.888C28.16 84.636 28.916 84.51 29.864 84.51H32.888V85.752H29.936C29.072 85.752 28.49 85.896 28.19 86.184C27.89 86.472 27.74 86.82 27.74 87.228C27.74 87.696 27.926 88.074 28.298 88.362C28.67 88.638 29.186 88.776 29.846 88.776C30.494 88.776 31.058 88.632 31.538 88.344C32.03 88.056 32.384 87.636 32.6 87.084L32.942 88.272C32.714 88.836 32.312 89.286 31.736 89.622C31.16 89.946 30.434 90.108 29.558 90.108ZM40.0714 90.126C40.9114 90.126 41.6554 90.006 42.3034 89.766C42.9634 89.514 43.4854 89.172 43.8694 88.74C44.2534 88.296 44.4454 87.786 44.4454 87.21C44.4454 86.49 44.1394 85.92 43.5274 85.5C42.9154 85.08 42.0754 84.87 41.0074 84.87L40.9354 85.284C41.5594 85.284 42.1114 85.182 42.5914 84.978C43.0714 84.774 43.4554 84.498 43.7434 84.15C44.0314 83.79 44.1754 83.382 44.1754 82.926C44.1754 82.386 43.9834 81.918 43.5994 81.522C43.2274 81.126 42.7174 80.826 42.0694 80.622C41.4214 80.406 40.6834 80.31 39.8554 80.334C39.3034 80.346 38.7454 80.43 38.1814 80.586C37.6294 80.73 37.0654 80.94 36.4894 81.216L36.9574 82.566C37.4734 82.314 37.9774 82.128 38.4694 82.008C38.9734 81.888 39.4654 81.822 39.9454 81.81C40.4374 81.81 40.8634 81.864 41.2234 81.972C41.5954 82.08 41.8834 82.236 42.0874 82.44C42.2914 82.644 42.3934 82.89 42.3934 83.178C42.3934 83.442 42.3034 83.676 42.1234 83.88C41.9554 84.072 41.7154 84.216 41.4034 84.312C41.0914 84.408 40.7254 84.456 40.3054 84.456H38.6854V85.698H40.4134C41.1214 85.698 41.6734 85.818 42.0694 86.058C42.4654 86.298 42.6634 86.64 42.6634 87.084C42.6634 87.396 42.5554 87.672 42.3394 87.912C42.1234 88.14 41.8114 88.32 41.4034 88.452C41.0074 88.584 40.5334 88.65 39.9814 88.65C39.3814 88.65 38.7874 88.572 38.1994 88.416C37.6114 88.248 37.0894 88.02 36.6334 87.732L36.1114 89.046C36.6514 89.394 37.2634 89.664 37.9474 89.856C38.6434 90.036 39.3514 90.126 40.0714 90.126ZM51.1584 90.108C50.1984 90.108 49.3464 89.898 48.6024 89.478C47.8584 89.058 47.2704 88.482 46.8384 87.75C46.4064 87.006 46.1904 86.166 46.1904 85.23C46.1904 84.282 46.4064 83.442 46.8384 82.71C47.2704 81.978 47.8584 81.408 48.6024 81C49.3464 80.58 50.1984 80.37 51.1584 80.37C52.1064 80.37 52.9524 80.58 53.6964 81C54.4524 81.408 55.0404 81.978 55.4604 82.71C55.8924 83.43 56.1084 84.27 56.1084 85.23C56.1084 86.178 55.8924 87.018 55.4604 87.75C55.0404 88.482 54.4524 89.058 53.6964 89.478C52.9524 89.898 52.1064 90.108 51.1584 90.108ZM51.1584 88.596C51.7704 88.596 52.3164 88.458 52.7964 88.182C53.2884 87.906 53.6724 87.516 53.9484 87.012C54.2244 86.496 54.3624 85.902 54.3624 85.23C54.3624 84.546 54.2244 83.958 53.9484 83.466C53.6724 82.962 53.2884 82.572 52.7964 82.296C52.3164 82.02 51.7704 81.882 51.1584 81.882C50.5464 81.882 50.0004 82.02 49.5204 82.296C49.0404 82.572 48.6564 82.962 48.3684 83.466C48.0804 83.958 47.9364 84.546 47.9364 85.23C47.9364 85.902 48.0804 86.496 48.3684 87.012C48.6564 87.516 49.0404 87.906 49.5204 88.182C50.0004 88.458 50.5464 88.596 51.1584 88.596ZM58.6037 90V80.46H63.0317C64.1477 80.46 65.0237 80.676 65.6597 81.108C66.3077 81.528 66.6317 82.128 66.6317 82.908C66.6317 83.688 66.3257 84.294 65.7137 84.726C65.1137 85.146 64.3157 85.356 63.3197 85.356L63.5897 84.888C64.7297 84.888 65.5757 85.098 66.1277 85.518C66.6797 85.938 66.9557 86.556 66.9557 87.372C66.9557 88.2 66.6437 88.848 66.0197 89.316C65.4077 89.772 64.4657 90 63.1937 90H58.6037ZM60.2957 88.668H63.0677C63.7877 88.668 64.3277 88.56 64.6877 88.344C65.0477 88.116 65.2277 87.756 65.2277 87.264C65.2277 86.76 65.0597 86.394 64.7237 86.166C64.3997 85.926 63.8837 85.806 63.1757 85.806H60.2957V88.668ZM60.2957 84.564H62.8877C63.5477 84.564 64.0457 84.444 64.3817 84.204C64.7297 83.952 64.9037 83.604 64.9037 83.16C64.9037 82.704 64.7297 82.362 64.3817 82.134C64.0457 81.906 63.5477 81.792 62.8877 81.792H60.2957V84.564ZM75.5103 90V87.984L75.4203 87.606V84.168C75.4203 83.436 75.2043 82.872 74.7723 82.476C74.3523 82.068 73.7163 81.864 72.8643 81.864C72.3003 81.864 71.7483 81.96 71.2083 82.152C70.6683 82.332 70.2123 82.578 69.8403 82.89L69.1203 81.594C69.6123 81.198 70.2003 80.898 70.8843 80.694C71.5803 80.478 72.3063 80.37 73.0623 80.37C74.3703 80.37 75.3783 80.688 76.0863 81.324C76.7943 81.96 77.1483 82.932 77.1483 84.24V90H75.5103ZM72.3783 90.108C71.6703 90.108 71.0463 89.988 70.5063 89.748C69.9783 89.508 69.5703 89.178 69.2823 88.758C68.9943 88.326 68.8503 87.84 68.8503 87.3C68.8503 86.784 68.9703 86.316 69.2103 85.896C69.4623 85.476 69.8643 85.14 70.4163 84.888C70.9803 84.636 71.7363 84.51 72.6843 84.51H75.7083V85.752H72.7563C71.8923 85.752 71.3103 85.896 71.0103 86.184C70.7103 86.472 70.5603 86.82 70.5603 87.228C70.5603 87.696 70.7463 88.074 71.1183 88.362C71.4903 88.638 72.0063 88.776 72.6663 88.776C73.3143 88.776 73.8783 88.632 74.3583 88.344C74.8503 88.056 75.2043 87.636 75.4203 87.084L75.7623 88.272C75.5343 88.836 75.1323 89.286 74.5563 89.622C73.9803 89.946 73.2543 90.108 72.3783 90.108ZM86.3619 90V86.652L86.6319 86.976H83.5899C82.3179 86.976 81.3219 86.706 80.6019 86.166C79.8939 85.626 79.5399 84.84 79.5399 83.808C79.5399 82.704 79.9179 81.87 80.6739 81.306C81.4419 80.742 82.4619 80.46 83.7339 80.46H87.9099V90H86.3619ZM79.4499 90L82.0419 86.346H83.8239L81.3039 90H79.4499ZM86.3619 86.112V81.486L86.6319 81.972H83.7879C82.9959 81.972 82.3839 82.122 81.9519 82.422C81.5199 82.71 81.3039 83.19 81.3039 83.862C81.3039 85.11 82.1079 85.734 83.7159 85.734H86.6319L86.3619 86.112Z" fill="white"/>
</g>
<g clip-path="url(#clip1_1401_51595)">
<rect x="152" y="4.00049" width="144" height="96" rx="2" fill="#6B360D"/>
<path opacity="0.75" d="M177.156 15.5845H174.24V14.6005H181.2V15.5845H178.284V23.0005H177.156V15.5845ZM181.323 16.6405H184.083C184.867 16.6405 185.443 16.8045 185.811 17.1325C186.179 17.4525 186.363 17.8685 186.363 18.3805C186.363 18.5165 186.339 18.6565 186.291 18.8005C186.243 18.9365 186.175 19.0645 186.087 19.1845C186.007 19.3045 185.907 19.4085 185.787 19.4965C185.675 19.5845 185.547 19.6525 185.403 19.7005C185.795 19.7965 186.091 19.9805 186.291 20.2525C186.499 20.5165 186.603 20.8285 186.603 21.1885C186.603 21.7405 186.419 22.1805 186.051 22.5085C185.683 22.8365 185.107 23.0005 184.323 23.0005H181.323V16.6405ZM184.323 22.0645C184.771 22.0645 185.087 21.9845 185.271 21.8245C185.455 21.6645 185.547 21.4365 185.547 21.1405C185.547 20.8365 185.455 20.6045 185.271 20.4445C185.087 20.2765 184.771 20.1925 184.323 20.1925H182.379V22.0645H184.323ZM184.083 19.3285C184.539 19.3285 184.855 19.2485 185.031 19.0885C185.215 18.9285 185.307 18.7085 185.307 18.4285C185.307 18.1645 185.215 17.9565 185.031 17.8045C184.855 17.6525 184.539 17.5765 184.083 17.5765H182.379V19.3285H184.083ZM190.748 23.1205C190.34 23.1205 189.952 23.0565 189.584 22.9285C189.216 22.7925 188.892 22.5925 188.612 22.3285C188.332 22.0565 188.108 21.7165 187.94 21.3085C187.772 20.9005 187.688 20.4245 187.688 19.8805V19.6405C187.688 19.1285 187.772 18.6765 187.94 18.2845C188.108 17.8925 188.332 17.5685 188.612 17.3125C188.892 17.0485 189.216 16.8525 189.584 16.7245C189.952 16.5885 190.34 16.5205 190.748 16.5205C191.156 16.5205 191.544 16.5885 191.912 16.7245C192.28 16.8525 192.604 17.0485 192.884 17.3125C193.164 17.5685 193.388 17.8925 193.556 18.2845C193.724 18.6765 193.808 19.1285 193.808 19.6405V19.8805C193.808 20.4245 193.724 20.9005 193.556 21.3085C193.388 21.7165 193.164 22.0565 192.884 22.3285C192.604 22.5925 192.28 22.7925 191.912 22.9285C191.544 23.0565 191.156 23.1205 190.748 23.1205ZM190.748 22.1605C190.988 22.1605 191.228 22.1205 191.468 22.0405C191.708 21.9525 191.92 21.8205 192.104 21.6445C192.288 21.4605 192.436 21.2245 192.548 20.9365C192.668 20.6485 192.728 20.2965 192.728 19.8805V19.6405C192.728 19.2565 192.668 18.9285 192.548 18.6565C192.436 18.3845 192.288 18.1605 192.104 17.9845C191.92 17.8085 191.708 17.6805 191.468 17.6005C191.228 17.5205 190.988 17.4805 190.748 17.4805C190.508 17.4805 190.268 17.5205 190.028 17.6005C189.788 17.6805 189.576 17.8085 189.392 17.9845C189.208 18.1605 189.056 18.3845 188.936 18.6565C188.824 18.9285 188.768 19.2565 188.768 19.6405V19.8805C188.768 20.2965 188.824 20.6485 188.936 20.9365C189.056 21.2245 189.208 21.4605 189.392 21.6445C189.576 21.8205 189.788 21.9525 190.028 22.0405C190.268 22.1205 190.508 22.1605 190.748 22.1605ZM195.304 16.6405H196.288V17.8405C196.504 17.4165 196.804 17.0925 197.188 16.8685C197.58 16.6365 198.032 16.5205 198.544 16.5205C199.344 16.5205 199.984 16.7845 200.464 17.3125C200.944 17.8325 201.184 18.6085 201.184 19.6405V19.8805C201.184 20.4245 201.12 20.9005 200.992 21.3085C200.864 21.7085 200.684 22.0445 200.452 22.3165C200.22 22.5805 199.94 22.7805 199.612 22.9165C199.292 23.0525 198.936 23.1205 198.544 23.1205C198 23.1205 197.544 23.0005 197.176 22.7605C196.816 22.5205 196.544 22.2205 196.36 21.8605V25.4005H195.304V16.6405ZM198.304 22.1845C198.56 22.1845 198.8 22.1365 199.024 22.0405C199.248 21.9365 199.44 21.7885 199.6 21.5965C199.768 21.4045 199.896 21.1645 199.984 20.8765C200.08 20.5885 200.128 20.2565 200.128 19.8805V19.6405C200.128 19.2965 200.08 18.9885 199.984 18.7165C199.896 18.4445 199.768 18.2165 199.6 18.0325C199.44 17.8405 199.248 17.6965 199.024 17.6005C198.8 17.5045 198.56 17.4565 198.304 17.4565C198.016 17.4565 197.752 17.5045 197.512 17.6005C197.272 17.6885 197.068 17.8165 196.9 17.9845C196.732 18.1445 196.6 18.3365 196.504 18.5605C196.408 18.7845 196.36 19.0245 196.36 19.2805V20.2405C196.36 20.5285 196.408 20.7925 196.504 21.0325C196.6 21.2725 196.732 21.4765 196.9 21.6445C197.068 21.8125 197.272 21.9445 197.512 22.0405C197.752 22.1365 198.016 22.1845 198.304 22.1845ZM202.687 16.6405H203.743V19.2925H204.643C204.675 18.8365 204.775 18.4365 204.943 18.0925C205.111 17.7405 205.323 17.4485 205.579 17.2165C205.843 16.9845 206.143 16.8125 206.479 16.7005C206.815 16.5805 207.171 16.5205 207.547 16.5205C207.955 16.5205 208.335 16.5885 208.687 16.7245C209.047 16.8525 209.359 17.0485 209.623 17.3125C209.887 17.5685 210.095 17.8925 210.247 18.2845C210.407 18.6765 210.487 19.1285 210.487 19.6405V19.8805C210.487 20.4245 210.407 20.9005 210.247 21.3085C210.095 21.7165 209.887 22.0565 209.623 22.3285C209.359 22.5925 209.047 22.7925 208.687 22.9285C208.335 23.0565 207.955 23.1205 207.547 23.1205C207.171 23.1205 206.811 23.0645 206.467 22.9525C206.131 22.8325 205.831 22.6525 205.567 22.4125C205.311 22.1725 205.099 21.8725 204.931 21.5125C204.771 21.1445 204.675 20.7165 204.643 20.2285H203.743V23.0005H202.687V16.6405ZM207.547 22.1605C207.787 22.1605 208.019 22.1205 208.243 22.0405C208.467 21.9525 208.663 21.8205 208.831 21.6445C209.007 21.4605 209.147 21.2245 209.251 20.9365C209.355 20.6485 209.407 20.2965 209.407 19.8805V19.6405C209.407 19.2565 209.355 18.9285 209.251 18.6565C209.147 18.3845 209.007 18.1605 208.831 17.9845C208.663 17.8085 208.467 17.6805 208.243 17.6005C208.019 17.5205 207.787 17.4805 207.547 17.4805C207.307 17.4805 207.075 17.5205 206.851 17.6005C206.627 17.6805 206.427 17.8085 206.251 17.9845C206.083 18.1605 205.947 18.3845 205.843 18.6565C205.739 18.9285 205.687 19.2565 205.687 19.6405V19.8805C205.687 20.2965 205.739 20.6485 205.843 20.9365C205.947 21.2245 206.083 21.4605 206.251 21.6445C206.427 21.8205 206.627 21.9525 206.851 22.0405C207.075 22.1205 207.307 22.1605 207.547 22.1605Z" fill="white"/>
<g opacity="0.75">
<rect width="2" height="6" transform="matrix(-1 0 0 1 170 16.0005)" fill="white"/>
<rect width="2" height="4" transform="matrix(-1 0 0 1 166 18.0005)" fill="white"/>
<rect width="2" height="2" transform="matrix(-1 0 0 1 162 20.0005)" fill="white"/>
</g>
<path d="M164.536 90.0005V78.4985L164.986 78.9665H160.234V77.4005H170.62V78.9665H165.868L166.3 78.4985V90.0005H164.536ZM172.291 90.0005V80.4605H176.719C177.835 80.4605 178.711 80.6765 179.347 81.1085C179.995 81.5285 180.319 82.1285 180.319 82.9085C180.319 83.6885 180.013 84.2945 179.401 84.7265C178.801 85.1465 178.003 85.3565 177.007 85.3565L177.277 84.8885C178.417 84.8885 179.263 85.0985 179.815 85.5185C180.367 85.9385 180.643 86.5565 180.643 87.3725C180.643 88.2005 180.331 88.8485 179.707 89.3165C179.095 89.7725 178.153 90.0005 176.881 90.0005H172.291ZM173.983 88.6685H176.755C177.475 88.6685 178.015 88.5605 178.375 88.3445C178.735 88.1165 178.915 87.7565 178.915 87.2645C178.915 86.7605 178.747 86.3945 178.411 86.1665C178.087 85.9265 177.571 85.8065 176.863 85.8065H173.983V88.6685ZM173.983 84.5645H176.575C177.235 84.5645 177.733 84.4445 178.069 84.2045C178.417 83.9525 178.591 83.6045 178.591 83.1605C178.591 82.7045 178.417 82.3625 178.069 82.1345C177.733 81.9065 177.235 81.7925 176.575 81.7925H173.983V84.5645ZM187.434 90.1085C186.474 90.1085 185.622 89.8985 184.878 89.4785C184.134 89.0585 183.546 88.4825 183.114 87.7505C182.682 87.0065 182.466 86.1665 182.466 85.2305C182.466 84.2825 182.682 83.4425 183.114 82.7105C183.546 81.9785 184.134 81.4085 184.878 81.0005C185.622 80.5805 186.474 80.3705 187.434 80.3705C188.382 80.3705 189.228 80.5805 189.972 81.0005C190.728 81.4085 191.316 81.9785 191.736 82.7105C192.168 83.4305 192.384 84.2705 192.384 85.2305C192.384 86.1785 192.168 87.0185 191.736 87.7505C191.316 88.4825 190.728 89.0585 189.972 89.4785C189.228 89.8985 188.382 90.1085 187.434 90.1085ZM187.434 88.5965C188.046 88.5965 188.592 88.4585 189.072 88.1825C189.564 87.9065 189.948 87.5165 190.224 87.0125C190.5 86.4965 190.638 85.9025 190.638 85.2305C190.638 84.5465 190.5 83.9585 190.224 83.4665C189.948 82.9625 189.564 82.5725 189.072 82.2965C188.592 82.0205 188.046 81.8825 187.434 81.8825C186.822 81.8825 186.276 82.0205 185.796 82.2965C185.316 82.5725 184.932 82.9625 184.644 83.4665C184.356 83.9585 184.212 84.5465 184.212 85.2305C184.212 85.9025 184.356 86.4965 184.644 87.0125C184.932 87.5165 185.316 87.9065 185.796 88.1825C186.276 88.4585 186.822 88.5965 187.434 88.5965ZM199.937 90.1085C199.145 90.1085 198.419 89.9285 197.759 89.5685C197.111 89.1965 196.589 88.6505 196.193 87.9305C195.809 87.2105 195.617 86.3105 195.617 85.2305C195.617 84.1505 195.803 83.2505 196.175 82.5305C196.559 81.8105 197.075 81.2705 197.723 80.9105C198.383 80.5505 199.121 80.3705 199.937 80.3705C200.873 80.3705 201.701 80.5745 202.421 80.9825C203.141 81.3905 203.711 81.9605 204.131 82.6925C204.551 83.4125 204.761 84.2585 204.761 85.2305C204.761 86.2025 204.551 87.0545 204.131 87.7865C203.711 88.5185 203.141 89.0885 202.421 89.4965C201.701 89.9045 200.873 90.1085 199.937 90.1085ZM194.879 93.4925V80.4605H196.535V83.0345L196.427 85.2485L196.607 87.4625V93.4925H194.879ZM199.793 88.5965C200.405 88.5965 200.951 88.4585 201.431 88.1825C201.923 87.9065 202.307 87.5165 202.583 87.0125C202.871 86.4965 203.015 85.9025 203.015 85.2305C203.015 84.5465 202.871 83.9585 202.583 83.4665C202.307 82.9625 201.923 82.5725 201.431 82.2965C200.951 82.0205 200.405 81.8825 199.793 81.8825C199.193 81.8825 198.647 82.0205 198.155 82.2965C197.675 82.5725 197.291 82.9625 197.003 83.4665C196.727 83.9585 196.589 84.5465 196.589 85.2305C196.589 85.9025 196.727 86.4965 197.003 87.0125C197.291 87.5165 197.675 87.9065 198.155 88.1825C198.647 88.4585 199.193 88.5965 199.793 88.5965ZM213.284 86.0945C212.78 86.3345 212.258 86.5265 211.718 86.6705C211.19 86.8025 210.644 86.8685 210.08 86.8685C208.928 86.8685 208.016 86.5985 207.344 86.0585C206.684 85.5185 206.354 84.6845 206.354 83.5565V80.4605H208.082V83.4485C208.082 84.1325 208.292 84.6365 208.712 84.9605C209.144 85.2845 209.72 85.4465 210.44 85.4465C210.896 85.4465 211.364 85.3865 211.844 85.2665C212.336 85.1465 212.816 84.9785 213.284 84.7625V86.0945ZM213.158 90.0005V80.4605H214.886V90.0005H213.158ZM222.488 90.1085C221.468 90.1085 220.568 89.8985 219.788 89.4785C219.02 89.0585 218.42 88.4825 217.988 87.7505C217.568 87.0185 217.358 86.1785 217.358 85.2305C217.358 84.2825 217.562 83.4425 217.97 82.7105C218.39 81.9785 218.96 81.4085 219.68 81.0005C220.412 80.5805 221.234 80.3705 222.146 80.3705C223.07 80.3705 223.886 80.5745 224.594 80.9825C225.302 81.3905 225.854 81.9665 226.25 82.7105C226.658 83.4425 226.862 84.3005 226.862 85.2845C226.862 85.3565 226.856 85.4405 226.844 85.5365C226.844 85.6325 226.838 85.7225 226.826 85.8065H218.708V84.5645H225.926L225.224 84.9965C225.236 84.3845 225.11 83.8385 224.846 83.3585C224.582 82.8785 224.216 82.5065 223.748 82.2425C223.292 81.9665 222.758 81.8285 222.146 81.8285C221.546 81.8285 221.012 81.9665 220.544 82.2425C220.076 82.5065 219.71 82.8845 219.446 83.3765C219.182 83.8565 219.05 84.4085 219.05 85.0325V85.3205C219.05 85.9565 219.194 86.5265 219.482 87.0305C219.782 87.5225 220.196 87.9065 220.724 88.1825C221.252 88.4585 221.858 88.5965 222.542 88.5965C223.106 88.5965 223.616 88.5005 224.072 88.3085C224.54 88.1165 224.948 87.8285 225.296 87.4445L226.25 88.5605C225.818 89.0645 225.278 89.4485 224.63 89.7125C223.994 89.9765 223.28 90.1085 222.488 90.1085ZM233.701 90.1085C232.729 90.1085 231.859 89.8985 231.091 89.4785C230.335 89.0585 229.741 88.4825 229.309 87.7505C228.877 87.0185 228.661 86.1785 228.661 85.2305C228.661 84.2825 228.877 83.4425 229.309 82.7105C229.741 81.9785 230.335 81.4085 231.091 81.0005C231.859 80.5805 232.729 80.3705 233.701 80.3705C234.565 80.3705 235.333 80.5445 236.005 80.8925C236.689 81.2285 237.217 81.7325 237.589 82.4045L236.275 83.2505C235.963 82.7825 235.579 82.4405 235.123 82.2245C234.679 81.9965 234.199 81.8825 233.683 81.8825C233.059 81.8825 232.501 82.0205 232.009 82.2965C231.517 82.5725 231.127 82.9625 230.839 83.4665C230.551 83.9585 230.407 84.5465 230.407 85.2305C230.407 85.9145 230.551 86.5085 230.839 87.0125C231.127 87.5165 231.517 87.9065 232.009 88.1825C232.501 88.4585 233.059 88.5965 233.683 88.5965C234.199 88.5965 234.679 88.4885 235.123 88.2725C235.579 88.0445 235.963 87.6965 236.275 87.2285L237.589 88.0565C237.217 88.7165 236.689 89.2265 236.005 89.5865C235.333 89.9345 234.565 90.1085 233.701 90.1085ZM246.738 90.0005L243.048 85.3565L244.47 84.4925L248.772 90.0005H246.738ZM239.826 90.0005V80.4605H241.554V90.0005H239.826ZM241.032 85.9685V84.4925H244.182V85.9685H241.032ZM244.614 85.4285L243.012 85.2125L246.666 80.4605H248.52L244.614 85.4285ZM256.258 90.0005V87.9845L256.168 87.6065V84.1685C256.168 83.4365 255.952 82.8725 255.52 82.4765C255.1 82.0685 254.464 81.8645 253.612 81.8645C253.048 81.8645 252.496 81.9605 251.956 82.1525C251.416 82.3325 250.96 82.5785 250.588 82.8905L249.868 81.5945C250.36 81.1985 250.948 80.8985 251.632 80.6945C252.328 80.4785 253.054 80.3705 253.81 80.3705C255.118 80.3705 256.126 80.6885 256.834 81.3245C257.542 81.9605 257.896 82.9325 257.896 84.2405V90.0005H256.258ZM253.126 90.1085C252.418 90.1085 251.794 89.9885 251.254 89.7485C250.726 89.5085 250.318 89.1785 250.03 88.7585C249.742 88.3265 249.598 87.8405 249.598 87.3005C249.598 86.7845 249.718 86.3165 249.958 85.8965C250.21 85.4765 250.612 85.1405 251.164 84.8885C251.728 84.6365 252.484 84.5105 253.432 84.5105H256.456V85.7525H253.504C252.64 85.7525 252.058 85.8965 251.758 86.1845C251.458 86.4725 251.308 86.8205 251.308 87.2285C251.308 87.6965 251.494 88.0745 251.866 88.3625C252.238 88.6385 252.754 88.7765 253.414 88.7765C254.062 88.7765 254.626 88.6325 255.106 88.3445C255.598 88.0565 255.952 87.6365 256.168 87.0845L256.51 88.2725C256.282 88.8365 255.88 89.2865 255.304 89.6225C254.728 89.9465 254.002 90.1085 253.126 90.1085ZM267.11 90.0005V86.6525L267.38 86.9765H264.338C263.066 86.9765 262.07 86.7065 261.35 86.1665C260.642 85.6265 260.288 84.8405 260.288 83.8085C260.288 82.7045 260.666 81.8705 261.422 81.3065C262.19 80.7425 263.21 80.4605 264.482 80.4605H268.658V90.0005H267.11ZM260.198 90.0005L262.79 86.3465H264.572L262.052 90.0005H260.198ZM267.11 86.1125V81.4865L267.38 81.9725H264.536C263.744 81.9725 263.132 82.1225 262.7 82.4225C262.268 82.7105 262.052 83.1905 262.052 83.8625C262.052 85.1105 262.856 85.7345 264.464 85.7345H267.38L267.11 86.1125Z" fill="white"/>
<path opacity="0.5" d="M284.59 89.2205V90.0005H279.574V89.2325L281.746 87.0965C282.226 86.6245 282.59 86.2405 282.838 85.9445C283.086 85.6405 283.258 85.3645 283.354 85.1165C283.458 84.8685 283.51 84.6045 283.51 84.3245V84.2045C283.51 83.7565 283.37 83.4085 283.09 83.1605C282.818 82.9125 282.434 82.7885 281.938 82.7885C281.442 82.7885 281.054 82.9205 280.774 83.1845C280.502 83.4405 280.366 83.8005 280.366 84.2645V84.5165H279.514V84.2525C279.514 83.5485 279.73 82.9965 280.162 82.5965C280.594 82.1965 281.186 81.9965 281.938 81.9965C282.698 81.9965 283.29 82.1925 283.714 82.5845C284.146 82.9765 284.362 83.5165 284.362 84.2045V84.3245C284.362 84.8285 284.222 85.3165 283.942 85.7885C283.662 86.2525 283.154 86.8485 282.418 87.5765L280.75 89.2205H284.59Z" fill="white"/>
<g opacity="0.75">
<path d="M285.07 14.2075L280.071 14.2075C279.795 14.2075 279.571 14.4314 279.571 14.7075C279.571 14.9837 279.795 15.2075 280.071 15.2075L283.864 15.2075L278.353 20.7179C278.158 20.9132 278.158 21.2298 278.353 21.425C278.549 21.6203 278.865 21.6203 279.061 21.425L284.571 15.9146V19.7075C284.571 19.9837 284.795 20.2075 285.071 20.2075C285.347 20.2075 285.571 19.9837 285.571 19.7075V14.7079C285.571 14.7074 285.571 14.7067 285.571 14.7062C285.571 14.7062 285.571 14.7063 285.571 14.7062C285.571 14.639 285.557 14.5746 285.533 14.5161C285.509 14.4572 285.472 14.4019 285.425 14.354C285.376 14.3058 285.321 14.2695 285.261 14.2451C285.205 14.2217 285.143 14.2085 285.078 14.2076" fill="white"/>
</g>
</g>
<defs>
<linearGradient id="paint0_linear_1401_51595" x1="150" y1="0" x2="150" y2="48" gradientUnits="userSpaceOnUse">
<stop stop-color="white"/>
<stop offset="1" stop-color="white" stop-opacity="0"/>
</linearGradient>
<clipPath id="clip0_1401_51595">
<rect width="144" height="96" fill="white" transform="translate(4 4)"/>
</clipPath>
<clipPath id="clip1_1401_51595">
<rect width="144" height="96" fill="white" transform="translate(152 4.00049)"/>
</clipPath>
</defs>
</svg>
