<svg width="76" height="36" viewBox="0 0 76 36" fill="none" xmlns="http://www.w3.org/2000/svg">
<path fill-rule="evenodd" clip-rule="evenodd" d="M28.5307 4.84338L27.5728 2.6912C30.6004 1.73857 32.95 3.16686 32.95 6.1599H28.4113L28.5307 4.84338ZM31.0023 9.30499C30.7941 9.30499 30.5194 9.30499 30.2063 9.30499L27.5807 6.8318H32.9792C32.9792 8.30038 32.0359 9.30499 30.9957 9.30499H31.0023ZM30.9944 10.1848C33.2591 10.1848 33.3161 13.6016 31.1523 13.6016C29.3917 13.6016 28.9274 11.9952 29.5244 10.9854L28.5957 10.0757L27.6325 11.0205C28.2016 12.0316 27.7559 13.6003 26.2898 13.6003C23.7213 13.6003 23.9097 10.1835 26.132 10.1835C26.3637 10.1821 26.5936 10.223 26.8099 10.3044L27.8381 9.33488C27.054 9.34398 26.3283 9.35048 25.8852 9.35048C24.4165 9.35048 23.8686 8.14183 23.8686 6.8318H25.2722L23.253 4.85507C22.4967 4.11169 23.7704 3.40859 24.4722 3.74519L24.5094 4.72771L30.2965 10.3161C30.5158 10.228 30.7508 10.1834 30.9878 10.1848H30.9944ZM26.197 12.606C27.0991 12.606 27.0753 11.1765 26.132 11.1765C25.1887 11.1765 25.1276 12.606 26.197 12.606ZM31.0594 12.606C31.9616 12.606 31.9377 11.1765 30.9944 11.1765C30.0511 11.1765 29.9901 12.606 31.0594 12.606Z" fill="#6B360D"/>
<path fill-rule="evenodd" clip-rule="evenodd" d="M43.2983 13.5835L43.5392 2.66142L50.5112 2.41699L52.7017 4.30615L52.5168 13.4674L43.2983 13.5835ZM48.7927 12.0644C49.014 11.8945 49.8908 11.0356 49.8908 11.0356L49.035 10.8975L48.7913 9.2583C48.7913 9.2583 47.8445 9.69331 47.021 9.44335C47.0336 9.53588 47.0532 9.81897 47.0574 9.92117C44.8347 11.1322 46.07 12.324 48.7927 12.0602V12.0644ZM48.6036 6.80294C48.5938 6.10141 48.2955 5.73822 47.5938 5.73683C46.6891 5.73683 46.6274 6.53089 46.6288 6.86094C46.6252 7.08461 46.6355 7.30828 46.6597 7.53071C46.6597 8.39796 47.0098 8.53329 47.1176 8.64377C47.1594 8.7242 47.2222 8.7922 47.2995 8.84074C47.3768 8.88929 47.4658 8.91664 47.5574 8.91996C47.923 8.91996 47.9776 8.76253 48.028 8.71006C48.1078 8.6272 48.4328 8.47805 48.4314 8.15767C48.4314 7.58733 48.626 7.60528 48.6345 7.46719C48.6443 7.28076 48.6078 7.08052 48.6036 6.7988V6.80294ZM49.8641 4.99387L49.7885 3.21657L44.2185 3.44581L44.0784 11.7316C44.5098 10.845 45.3669 10.2222 45.9622 9.46821C45.6232 8.73077 45.591 7.36638 45.8039 7.08742C45.7421 6.94467 45.7166 6.78916 45.7297 6.63446C45.7297 6.4287 46.0238 6.10555 46.0952 5.89703C46.2301 5.57735 46.4589 5.30476 46.7522 5.11429C47.0454 4.92382 47.3898 4.82417 47.7409 4.82816C49.5952 4.80054 49.8571 5.90531 49.9818 6.77808C50.0882 7.49481 50.1891 8.13834 50.2619 8.55953C50.3375 8.95863 50.388 10.0427 50.902 10.5495C51.1371 10.7491 51.385 10.9336 51.6443 11.1019L51.7381 11.233L51.8782 5.01873L49.8641 4.99387Z" fill="#6B360D"/>
<path fill-rule="evenodd" clip-rule="evenodd" d="M70.8222 11.7795C71.2636 13.2658 70.4584 13.961 70.4584 13.961L69.7236 11.7028C69.2131 11.8892 68.6721 11.9811 68.1279 11.9737C67.4738 11.983 66.8243 11.8641 66.217 11.6237L65.5076 14.021C65.5076 14.021 64.7061 12.9422 65.082 11.7579C65.1366 11.5889 65.2033 11.3576 65.2918 11.0855C64.669 10.6152 64.2406 9.93693 64.0865 9.1773L64.8262 8.8237C64.9643 9.3046 65.2292 9.74059 65.5937 10.087C65.9575 8.88843 66.377 7.45726 66.5807 6.76924C65.5525 5.79595 65.892 3.79063 67.4562 3.40706L67.1264 2.07658L68.4505 1.97949L68.5038 3.39508C70.1432 3.75467 70.4014 5.91221 69.3174 6.85794C69.4799 7.38174 69.7915 8.39219 70.1019 9.40504L69.2107 10.0978L68.2916 7.29185C68.2111 7.30029 68.1301 7.30429 68.0491 7.30383C67.8691 7.30407 67.6895 7.28599 67.5132 7.24989L66.5007 10.6756C67.0069 10.88 67.5497 10.9811 68.0964 10.9728C69.794 10.9728 70.8464 9.98998 71.1617 8.7386L71.9135 9.07422C71.7552 9.90321 71.3071 10.6508 70.6476 11.1862L70.8222 11.7795ZM68.0127 6.1855C69.1246 6.1855 69.1319 4.46546 67.9933 4.46546C66.8548 4.46546 66.7941 6.1855 68.0127 6.1855Z" fill="#6B360D"/>
<path fill-rule="evenodd" clip-rule="evenodd" d="M8.27961 6.80151C10.107 6.80151 10.0951 9.65816 8.31075 9.65816C6.35638 9.65816 6.4402 6.80151 8.27961 6.80151ZM11.8123 12.282C11.718 12.3681 11.6143 12.4429 11.5034 12.505L11.3992 11.8371L11.4112 11.8261C11.8842 11.391 11.8985 10.6533 11.6255 9.81135C10.729 10.2961 9.76918 10.6469 8.77539 10.853C8.56822 10.8984 8.35984 10.9364 8.14908 10.9756C8.51533 11.275 8.90918 11.5373 9.32505 11.7587C9.4027 11.6212 9.51561 11.5082 9.65155 11.4317C9.78748 11.3552 9.94128 11.3183 10.0963 11.3248C11.2651 11.3248 11.2579 13.1508 10.1166 13.1508C9.54181 13.1508 9.24482 12.7636 9.2041 12.3469C8.53417 12.01 7.91147 11.5826 7.35272 11.0761C6.83514 11.1257 6.31444 11.1314 5.79593 11.0932C5.91568 12.0736 6.33123 12.6545 6.86173 12.8322C7.31919 12.9842 7.81976 12.7869 8.29877 12.342L8.79096 12.6729C8.14309 13.3334 7.41739 13.6643 6.68091 13.4192C5.73605 13.1043 5.30854 12.1741 5.21513 11.0234C4.09544 10.8273 3.24519 10.3297 3.05957 9.42164C3.03392 9.29501 3.02028 9.16614 3.01886 9.03683C2.19974 8.69246 2.3686 7.28559 3.39728 7.28559C4.48942 7.28559 4.55409 8.87874 3.626 9.0883C3.62613 9.15785 3.63295 9.22722 3.64636 9.29541C3.76612 9.87752 4.34692 10.2525 5.20315 10.4241C5.20904 9.88029 5.26234 9.3381 5.36242 8.80398C4.19483 7.08828 3.59367 5.1814 4.64391 4.2108C5.24267 3.66178 6.0067 3.61276 6.81623 3.87134L6.57672 4.42526C5.91209 4.24879 5.37919 4.35541 5.04508 4.67036C4.38644 5.27576 4.66546 6.58215 5.53966 8.00986C5.59115 7.8101 5.64744 7.6128 5.70851 7.42039C6.15279 6.02577 6.90604 4.56742 7.7994 3.70712C7.64252 3.1777 7.94191 2.5 8.65564 2.5C9.82443 2.5 9.81724 4.326 8.67599 4.326C8.49208 4.33024 8.31072 4.2814 8.15267 4.18507C7.38745 4.93385 6.69887 6.25494 6.26896 7.60667C6.1492 7.98167 6.0546 8.33462 5.97915 8.6704C6.20309 8.98168 6.45817 9.29541 6.72402 9.60424C6.98987 9.91306 7.2641 10.1888 7.54672 10.4535C7.90598 10.4106 8.27362 10.3493 8.64965 10.2672C9.6139 10.0693 10.5452 9.73003 11.4147 9.25987C11.3513 9.11771 11.2818 8.97188 11.2064 8.82727L11.5656 8.25128C11.695 8.48086 11.8115 8.71085 11.9153 8.94124C12.6099 8.43878 13.0135 7.85054 12.8841 7.22554C12.7548 6.60053 12.144 6.21205 11.3046 6.03067C11.2644 7.0496 11.085 8.05776 10.7717 9.0258L10.0831 9.22556C10.1238 9.10301 10.1633 8.99149 10.2028 8.87016C10.5143 7.92447 10.6929 6.93831 10.7334 5.94121C9.74077 5.85844 8.74167 5.92867 7.76946 6.14955L7.56349 6.19857L7.75749 5.53802C8.7277 5.32909 9.72195 5.26183 10.7106 5.33826C10.6543 4.66791 10.4711 4.12624 10.1118 3.81864L10.2184 3.15197C10.8974 3.53923 11.2195 4.38482 11.2866 5.42037C12.4039 5.63116 13.2673 6.14587 13.4637 7.09441C13.6541 8.01721 13.0781 8.83707 12.1321 9.49026C12.5189 10.5981 12.5201 11.63 11.8123 12.282ZM6.29051 10.0025C6.13483 9.82483 5.98275 9.64223 5.83665 9.45472C5.78534 9.79946 5.75971 10.1477 5.76 10.4964C6.09536 10.5248 6.43215 10.5314 6.76833 10.516C6.60426 10.3493 6.4402 10.1778 6.29051 10.0025Z" fill="#6B360D"/>
<path fill-rule="evenodd" clip-rule="evenodd" d="M33.5299 27.294C33.2638 29.7514 29.8371 31.4882 27.0925 32.772C24.832 30.7616 22.0961 28.1074 22.4823 25.6314C22.9329 22.7457 26.3658 22.4127 28.2884 24.8788L28.895 25.7552L29.4273 25.5262L29.0448 24.412C31.512 22.9983 33.8184 24.5928 33.5299 27.294Z" fill="#D7DD93"/>
<path fill-rule="evenodd" clip-rule="evenodd" d="M51.5242 32.0373C52.7717 31.2059 52.4327 28.8625 50.4521 28.8625C48.0629 28.8625 47.9289 32.2663 50.428 32.3245H50.42C51.2923 32.3245 51.358 33.4178 50.5299 33.5C47.1383 33.5 46.5393 29.8912 48.4126 28.3564L48.7744 26.6925C49.4686 26.3204 51.149 26.342 52.0548 26.6305L52.4206 28.2969C54.0139 29.5395 53.837 32.3055 51.9315 33.2115C51.997 32.9998 51.9931 32.7744 51.9204 32.5648C51.8477 32.3553 51.7096 32.1714 51.5242 32.0373ZM50.4736 27.2391C50.4139 27.2366 50.3543 27.2457 50.2985 27.2657C50.2427 27.2857 50.1917 27.3163 50.1488 27.3555C50.1059 27.3947 50.0719 27.4418 50.0489 27.4938C50.0259 27.5458 50.0143 27.6018 50.015 27.6582C50.0156 27.7146 50.0284 27.7702 50.0526 27.8218C50.0768 27.8734 50.1118 27.9197 50.1556 27.9581C50.1994 27.9964 50.251 28.0259 50.3073 28.0448C50.3636 28.0637 50.4234 28.0715 50.483 28.0679C51.0525 28.0679 51.0525 27.2391 50.4736 27.2391ZM49.6803 25.2715C49.2917 24.6388 49.1054 24.2238 49.3078 23.8796L48.895 23.8049L48.6806 22.8914L50.1372 23.271C50.7992 22.9799 51.1061 23.1951 51.6769 24.0719C52.233 24.9248 52.1499 25.4094 51.3942 25.8308C50.6384 26.2521 50.1707 26.0775 49.6803 25.2715ZM51.0203 24.4098C50.9801 24.3434 50.9353 24.2796 50.8863 24.2187C50.8233 24.4313 50.6183 24.5983 50.1238 24.573C50.1693 24.6695 50.2216 24.7629 50.2806 24.8527C50.5486 25.2727 50.6826 25.3512 51.0002 25.1804C51.3178 25.0096 51.295 24.864 51.0216 24.4098H51.0203ZM46.1962 25.1007L46.0622 25.5625C46.4369 25.5866 46.8073 25.6512 47.1664 25.7548L47.626 27.854C47.3851 28.0799 47.1773 28.3352 47.0083 28.6132C46.8423 28.408 46.6265 28.2433 46.3791 28.1332C46.1317 28.0231 45.8599 27.9708 45.5865 27.9806C43.1745 27.9806 43.0619 31.4438 45.6281 31.4438C45.9296 31.4513 46.2282 31.3869 46.4964 31.2565C46.5605 31.6602 46.6916 32.0518 46.885 32.4169C46.4994 32.564 46.0868 32.6376 45.671 32.6332C42.2753 32.6332 41.6723 29.0258 43.5484 27.4896L43.9008 25.8206C44.1773 25.6912 44.4766 25.6106 44.7839 25.5828L45.5115 24.3592C45.1952 23.7012 45.3319 23.3773 46.3249 22.8572C47.3178 22.3372 47.7145 22.3511 48.1875 23.1242C48.6793 23.9315 48.4555 24.2934 47.5992 24.7438C46.9842 25.0665 46.5393 25.2032 46.1949 25.1007H46.1962ZM45.5169 26.4065C45.4572 26.404 45.3976 26.4131 45.3418 26.4331C45.2859 26.4531 45.235 26.4837 45.1921 26.5229C45.1492 26.5621 45.1152 26.6092 45.0922 26.6612C45.0691 26.7132 45.0576 26.7692 45.0582 26.8256C45.0589 26.882 45.0717 26.9376 45.0959 26.9892C45.1201 27.0408 45.1551 27.0871 45.1989 27.1255C45.2427 27.1638 45.2943 27.1933 45.3506 27.2122C45.4069 27.2311 45.4666 27.2389 45.5262 27.2353C46.0944 27.2353 46.0944 26.4065 45.5169 26.4065ZM47.4773 23.4886C47.3031 23.2039 47.2374 23.2077 46.6867 23.4886C46.5535 23.5479 46.432 23.6284 46.3276 23.7265C46.4943 23.7236 46.6582 23.7671 46.799 23.8514C46.9398 23.9358 47.0513 24.0573 47.1195 24.201L47.1557 24.182C47.6435 23.91 47.6582 23.7796 47.4773 23.4886Z" fill="#FECE30"/>
<path fill-rule="evenodd" clip-rule="evenodd" d="M69.605 33.25C68.1029 33.25 66.9078 32.6288 66.2393 31.4998C65.5709 30.3708 65.5532 28.8739 66.2039 27.6097C67.0058 26.0489 66.9491 24.7245 66.1401 23.9766C65.5686 23.4471 64.8789 23.4857 64.2377 23.9175C63.1748 24.6304 62.9859 26.1852 63.7299 28.4119L62.7438 28.6857C61.7825 25.8101 62.5655 23.9465 63.7464 23.1516C64.1903 22.8538 64.7186 22.7151 65.2482 22.7575C65.7777 22.7998 66.2784 23.0208 66.6716 23.3856C67.0707 23.7547 68.2599 25.1732 66.8345 27.9463C66.2996 28.9872 66.3055 30.2055 66.8499 31.1259C67.3943 32.0462 68.3638 32.5263 69.6086 32.5263C70.6501 32.5263 71.5252 32.1415 72.1405 31.4129C72.6843 30.7511 72.9813 29.914 72.9789 29.05C72.9789 27.8245 72.3412 26.5881 70.917 26.5881C70.3514 26.5881 69.6404 27.2551 69.4869 27.9451C69.6992 28.0769 69.95 28.1285 70.1958 28.0911C70.4415 28.0536 70.6666 27.9294 70.832 27.74L71.5134 28.8497C70.9784 29.1199 70.0868 28.9221 69.5412 28.5916C70.1175 29.2912 71.0056 29.8798 71.4071 29.7013L71.0883 30.8593C70.6761 30.8665 70.1435 30.3044 69.7396 29.717C69.829 30.2471 69.8686 30.7847 69.8577 31.3225L68.7701 31.3695C69.0145 30.5497 69.0818 29.6854 68.9673 28.8365C68.8917 29.4878 68.6225 30.15 67.9871 30.4854L67.4841 29.4649C68.2729 29.3913 68.7417 28.6399 68.874 28.05C68.8631 27.7684 68.9077 27.4874 69.0053 27.2237C69.1029 26.96 69.2514 26.7191 69.442 26.5153C69.6327 26.3115 69.8615 26.149 70.1149 26.0373C70.3683 25.9257 70.6411 25.8673 70.917 25.8656C72.5479 25.8656 73.6875 27.1755 73.6875 29.0512C73.6877 30.0888 73.3283 31.0929 72.6731 31.8858C72.1476 32.5082 71.1863 33.25 69.605 33.25ZM65.3218 31.9569C65.7587 33.2174 63.5504 33.7988 63.3142 32.5202C63.0969 31.355 62.7036 29.4613 62.7036 29.4613L64.3369 29.009C64.3369 29.009 64.9273 30.8231 65.3218 31.9569ZM64.1892 31.7832C64.0452 31.4117 63.9176 31.1174 63.7169 31.1488C63.4216 31.1946 63.7039 32.7362 64.0629 32.6469C64.3369 32.5806 64.3451 32.1873 64.1892 31.7832Z" fill="#F6C0B1"/>
<path fill-rule="evenodd" clip-rule="evenodd" d="M8.32126 30.4886C8.20997 31.3096 8.46404 31.9584 8.62992 32.2156C8.97054 32.001 9.3677 31.8935 9.77007 31.907C10.3821 31.907 10.9249 32.1254 10.9249 32.602C10.9249 32.9799 10.5123 33.3631 9.72492 33.3631C9.36377 33.3631 8.94383 33.1784 8.58687 32.8802L8.23097 32.5275C8.01885 32.2541 7.88755 31.9268 7.85197 31.5826L6.79896 31.2991L7.40998 30.4036C6.0693 29.8188 4.60999 27.4136 4.61209 25.6614C4.61839 21.085 11.3932 21.295 11.3879 25.591C11.3848 27.5039 9.72492 30.1086 8.32126 30.4886ZM9.72387 32.8634C10.2079 32.8634 10.4231 32.6734 10.4231 32.602C10.4231 32.624 10.3989 32.4078 9.76902 32.4078C9.50536 32.3992 9.24374 32.4566 9.00787 32.5747C9.21209 32.7407 9.46161 32.8413 9.72387 32.8634ZM8 23.2687C6.66457 23.0157 5.38794 24.3805 5.59267 25.7075L5.85723 25.6928C6.23833 24.6671 6.93859 23.9228 8 23.5406V23.2687ZM7.12861 33.1994C7.48977 33.213 7.75853 33.024 7.9685 32.8214L8.29396 33.1899C8.04095 33.4282 7.65774 33.7012 7.17061 33.7012C6.97844 33.6993 6.79012 33.6471 6.62436 33.5499C6.4586 33.4526 6.32117 33.3137 6.22573 33.1469L6.4567 32.9159C6.63738 33.091 6.87709 33.1922 7.12861 33.1994Z" fill="#B6D1C5"/>
</svg>
