<svg width="76" height="36" viewBox="0 0 76 36" fill="none" xmlns="http://www.w3.org/2000/svg">
<path d="M8 24C7.72386 24 7.5 24.2239 7.5 24.5V27.5H4.5C4.22386 27.5 4 27.7239 4 28C4 28.2761 4.22386 28.5 4.5 28.5H7.5V31.5C7.5 31.7761 7.72386 32 8 32C8.27614 32 8.5 31.7761 8.5 31.5V28.5H11.5C11.7761 28.5 12 28.2761 12 28C12 27.7239 11.7761 27.5 11.5 27.5H8.5V24.5C8.5 24.2239 8.27614 24 8 24Z" fill="#6B360D"/>
<path d="M10.8284 25.1716C10.6332 24.9763 10.3166 24.9763 10.1213 25.1716L9.00001 26.2929C8.80475 26.4882 8.80475 26.8047 9.00001 27C9.19527 27.1953 9.51185 27.1953 9.70712 27L10.8284 25.8787C11.0237 25.6834 11.0237 25.3668 10.8284 25.1716Z" fill="#6B360D"/>
<path d="M10.1213 30.8286C10.3166 31.0239 10.6332 31.0239 10.8284 30.8286C11.0237 30.6333 11.0237 30.3168 10.8284 30.1215L9.70712 29.0002C9.51185 28.8049 9.19527 28.8049 9.00001 29.0002C8.80475 29.1954 8.80475 29.512 9.00001 29.7073L10.1213 30.8286Z" fill="#6B360D"/>
<path d="M7.01562 26.3085C7.21088 26.5038 7.21088 26.8204 7.01562 27.0156C6.82036 27.2109 6.50377 27.2109 6.30851 27.0156L5.17157 25.8787C4.97631 25.6834 4.9763 25.3668 5.17157 25.1716C5.36683 24.9763 5.68341 24.9763 5.87867 25.1716L7.01562 26.3085Z" fill="#6B360D"/>
<path d="M7.01562 28.9846C7.21088 29.1798 7.21088 29.4964 7.01562 29.6917L5.87867 30.8286C5.68341 31.0239 5.36683 31.0239 5.17157 30.8286C4.9763 30.6333 4.97631 30.3168 5.17157 30.1215L6.30851 28.9846C6.50377 28.7893 6.82036 28.7893 7.01562 28.9846Z" fill="#6B360D"/>
<path d="M44.2073 11.0846C44.2072 11.0806 44.2071 11.0765 44.2071 11.0725C44.2071 11.0726 44.2071 11.0724 44.2071 11.0725C44.2071 11.0721 44.2071 11.0714 44.2071 11.071C44.2071 11.0711 44.2071 11.0709 44.2071 11.071L44.2071 6.07099C44.2071 5.79485 44.4309 5.57099 44.7071 5.57099C44.9832 5.57099 45.2071 5.79485 45.2071 6.07099V9.86389L50.7175 4.35348C50.9128 4.15822 51.2293 4.15822 51.4246 4.35348C51.6199 4.54874 51.6199 4.86532 51.4246 5.06058L45.9142 10.571L49.7071 10.571C49.9832 10.571 50.2071 10.7948 50.2071 11.071C50.2071 11.3471 49.9832 11.571 49.7071 11.571L44.7071 11.571C44.4355 11.571 44.2145 11.3544 44.2073 11.0846Z" fill="#6B360D"/>
<path d="M44.5 24.5C44.5 24.2239 44.7239 24 45 24C45.2761 24 45.5 24.2239 45.5 24.5V31.5C45.5 31.7761 45.2761 32 45 32C44.7239 32 44.5 31.7761 44.5 31.5V24.5Z" fill="#6B360D"/>
<path d="M47.5 24.5C47.5 24.2239 47.7239 24 48 24C48.2761 24 48.5 24.2239 48.5 24.5V31.5C48.5 31.7761 48.2761 32 48 32C47.7239 32 47.5 31.7761 47.5 31.5V24.5Z" fill="#6B360D"/>
<path d="M51 24C50.7239 24 50.5 24.2239 50.5 24.5V31.5C50.5 31.7761 50.7239 32 51 32C51.2761 32 51.5 31.7761 51.5 31.5V24.5C51.5 24.2239 51.2761 24 51 24Z" fill="#6B360D"/>
<circle cx="68" cy="28" r="2" fill="#6B360D"/>
<rect x="73" y="7.5" width="1" height="10" rx="0.5" transform="rotate(90 73 7.5)" fill="#6B360D"/>
<path d="M31.5355 31.5356C31.7308 31.3404 31.7308 31.0238 31.5355 30.8285L28.7071 28.0001L31.5355 25.1717C31.7308 24.9764 31.7308 24.6598 31.5355 24.4646C31.3403 24.2693 31.0237 24.2693 30.8284 24.4646L28 27.293L25.1716 24.4646C24.9763 24.2693 24.6597 24.2693 24.4645 24.4646C24.2692 24.6598 24.2692 24.9764 24.4645 25.1717L27.2929 28.0001L24.4645 30.8285C24.2692 31.0238 24.2692 31.3404 24.4645 31.5356C24.6597 31.7309 24.9763 31.7309 25.1716 31.5356L28 28.7072L30.8284 31.5356C31.0237 31.7309 31.3403 31.7309 31.5355 31.5356Z" fill="#6B360D"/>
<path d="M8 3C7.72386 3 7.5 3.22386 7.5 3.5V7.5H3.5C3.22386 7.5 3 7.72386 3 8C3 8.27614 3.22386 8.5 3.5 8.5H7.5V12.5C7.5 12.7761 7.72386 13 8 13C8.27614 13 8.5 12.7761 8.5 12.5V8.5H12.5C12.7761 8.5 13 8.27614 13 8C13 7.72386 12.7761 7.5 12.5 7.5H8.5V3.5C8.5 3.22386 8.27614 3 8 3Z" fill="#6B360D"/>
<path d="M31.0702 4.20703L26.0711 4.20703C25.7949 4.20703 25.5711 4.43089 25.5711 4.70703C25.5711 4.98317 25.7949 5.20703 26.0711 5.20703L29.8639 5.20703L24.3535 10.7174C24.1583 10.9127 24.1583 11.2293 24.3535 11.4245C24.5488 11.6198 24.8654 11.6198 25.0606 11.4245L30.5711 5.91414V9.70703C30.5711 9.98317 30.7949 10.207 31.0711 10.207C31.3472 10.207 31.5711 9.98317 31.5711 9.70703V4.70738C31.5711 4.70694 31.5711 4.70617 31.5711 4.70573C31.5711 4.70567 31.5711 4.7058 31.5711 4.70573C31.5709 4.63848 31.5574 4.57416 31.5331 4.51564C31.5087 4.45667 31.4725 4.40142 31.4246 4.35348C31.3764 4.30527 31.3208 4.26897 31.2615 4.24456C31.2048 4.22122 31.143 4.20798 31.0781 4.20708" fill="#6B360D"/>
</svg>
