<svg width="300" height="168" viewBox="0 0 300 168" fill="none" xmlns="http://www.w3.org/2000/svg">
<g opacity="0.75">
<mask id="mask0_1401_51479" style="mask-type:alpha" maskUnits="userSpaceOnUse" x="0" y="0" width="300" height="48">
<path d="M0 2C0 0.895431 0.895431 0 2 0H298C299.105 0 300 0.895431 300 2V46C300 47.1046 299.105 48 298 48H2C0.895429 48 0 47.1046 0 46V2Z" fill="url(#paint0_linear_1401_51479)"/>
</mask>
<g mask="url(#mask0_1401_51479)">
<path d="M2 0.5H298C298.828 0.5 299.5 1.17157 299.5 2V46C299.5 46.8284 298.828 47.5 298 47.5H2C1.17157 47.5 0.5 46.8284 0.5 46V2C0.5 1.17157 1.17157 0.5 2 0.5Z" stroke="#6B360D"/>
</g>
</g>
<g clip-path="url(#clip0_1401_51479)">
<rect x="4" y="4" width="144" height="96" rx="2" fill="#6B360D"/>
<path opacity="0.05" d="M4 72L148 45.2531V25.751L4 52.4979V72Z" fill="white"/>
<path opacity="0.1" d="M4 47.6226L148 20.8756V16.0001L4 42.747V47.6226Z" fill="white"/>
<path opacity="0.75" d="M35.456 18.632L32.48 14.6H33.728L36.356 18.212H37.196V14.6H38.324V18.212H39.164L41.816 14.6H43.04L40.064 18.596L43.16 23H41.84L39.164 19.148H38.324V23H37.196V19.148H36.356L33.656 23H32.36L35.456 18.632ZM44.4795 16.64H45.5355V21.44L48.8235 16.64H49.8795V23H48.8235V18.2L45.5355 23H44.4795V16.64ZM51.8038 16.64H54.5638C55.3478 16.64 55.9238 16.804 56.2918 17.132C56.6598 17.452 56.8438 17.868 56.8438 18.38C56.8438 18.516 56.8198 18.656 56.7718 18.8C56.7238 18.936 56.6558 19.064 56.5678 19.184C56.4878 19.304 56.3878 19.408 56.2678 19.496C56.1558 19.584 56.0278 19.652 55.8838 19.7C56.2758 19.796 56.5718 19.98 56.7718 20.252C56.9798 20.516 57.0838 20.828 57.0838 21.188C57.0838 21.74 56.8998 22.18 56.5318 22.508C56.1638 22.836 55.5878 23 54.8038 23H51.8038V16.64ZM54.8038 22.064C55.2518 22.064 55.5678 21.984 55.7518 21.824C55.9358 21.664 56.0278 21.436 56.0278 21.14C56.0278 20.836 55.9358 20.604 55.7518 20.444C55.5678 20.276 55.2518 20.192 54.8038 20.192H52.8598V22.064H54.8038ZM54.5638 19.328C55.0198 19.328 55.3358 19.248 55.5118 19.088C55.6958 18.928 55.7878 18.708 55.7878 18.428C55.7878 18.164 55.6958 17.956 55.5118 17.804C55.3358 17.652 55.0198 17.576 54.5638 17.576H52.8598V19.328H54.5638ZM59.1945 25.52C59.0745 25.52 58.9545 25.508 58.8345 25.484V24.524C58.9545 24.548 59.0745 24.56 59.1945 24.56C59.3145 24.56 59.4185 24.54 59.5065 24.5C59.5945 24.46 59.6785 24.384 59.7585 24.272C59.8385 24.16 59.9225 24 60.0105 23.792C60.1065 23.592 60.2145 23.328 60.3345 23L57.6345 16.64H58.8105L60.8745 21.8L62.7465 16.64H63.8745L61.4745 23C61.3065 23.448 61.1465 23.832 60.9945 24.152C60.8425 24.472 60.6785 24.732 60.5025 24.932C60.3345 25.14 60.1465 25.288 59.9385 25.376C59.7305 25.472 59.4825 25.52 59.1945 25.52Z" fill="white"/>
<g opacity="0.75">
<rect width="2" height="8" transform="matrix(-1 0 0 1 27 14)" fill="white"/>
<rect width="2" height="6" transform="matrix(-1 0 0 1 23 16)" fill="white"/>
<rect width="2" height="4" transform="matrix(-1 0 0 1 19 18)" fill="white"/>
<rect width="2" height="2" transform="matrix(-1 0 0 1 15 20)" fill="white"/>
</g>
<path opacity="0.5" d="M135.032 90H134.168V83.628C133.872 83.788 133.492 83.868 133.028 83.868H132.104V83.076H132.992C133.376 83.076 133.668 82.996 133.868 82.836C134.068 82.668 134.168 82.432 134.168 82.128H135.032V90Z" fill="white"/>
<g opacity="0.75">
<path d="M134 13C133.724 13 133.5 13.2239 133.5 13.5V17.5H129.5C129.224 17.5 129 17.7239 129 18C129 18.2761 129.224 18.5 129.5 18.5H133.5V22.5C133.5 22.7761 133.724 23 134 23C134.276 23 134.5 22.7761 134.5 22.5V18.5H138.5C138.776 18.5 139 18.2761 139 18C139 17.7239 138.776 17.5 138.5 17.5H134.5V13.5C134.5 13.2239 134.276 13 134 13Z" fill="white"/>
</g>
<path d="M13.962 90V77.4H23.466V78.93H15.744V82.53H19.668C21.168 82.53 22.308 82.842 23.088 83.466C23.868 84.09 24.258 84.996 24.258 86.184C24.258 87.408 23.832 88.35 22.98 89.01C22.14 89.67 20.934 90 19.362 90H13.962ZM15.744 88.578H19.29C20.334 88.578 21.12 88.38 21.648 87.984C22.188 87.588 22.458 87 22.458 86.22C22.458 84.708 21.402 83.952 19.29 83.952H15.744V88.578ZM32.69 90V87.984L32.6 87.606V84.168C32.6 83.436 32.384 82.872 31.952 82.476C31.532 82.068 30.896 81.864 30.044 81.864C29.48 81.864 28.928 81.96 28.388 82.152C27.848 82.332 27.392 82.578 27.02 82.89L26.3 81.594C26.792 81.198 27.38 80.898 28.064 80.694C28.76 80.478 29.486 80.37 30.242 80.37C31.55 80.37 32.558 80.688 33.266 81.324C33.974 81.96 34.328 82.932 34.328 84.24V90H32.69ZM29.558 90.108C28.85 90.108 28.226 89.988 27.686 89.748C27.158 89.508 26.75 89.178 26.462 88.758C26.174 88.326 26.03 87.84 26.03 87.3C26.03 86.784 26.15 86.316 26.39 85.896C26.642 85.476 27.044 85.14 27.596 84.888C28.16 84.636 28.916 84.51 29.864 84.51H32.888V85.752H29.936C29.072 85.752 28.49 85.896 28.19 86.184C27.89 86.472 27.74 86.82 27.74 87.228C27.74 87.696 27.926 88.074 28.298 88.362C28.67 88.638 29.186 88.776 29.846 88.776C30.494 88.776 31.058 88.632 31.538 88.344C32.03 88.056 32.384 87.636 32.6 87.084L32.942 88.272C32.714 88.836 32.312 89.286 31.736 89.622C31.16 89.946 30.434 90.108 29.558 90.108ZM40.0714 90.126C40.9114 90.126 41.6554 90.006 42.3034 89.766C42.9634 89.514 43.4854 89.172 43.8694 88.74C44.2534 88.296 44.4454 87.786 44.4454 87.21C44.4454 86.49 44.1394 85.92 43.5274 85.5C42.9154 85.08 42.0754 84.87 41.0074 84.87L40.9354 85.284C41.5594 85.284 42.1114 85.182 42.5914 84.978C43.0714 84.774 43.4554 84.498 43.7434 84.15C44.0314 83.79 44.1754 83.382 44.1754 82.926C44.1754 82.386 43.9834 81.918 43.5994 81.522C43.2274 81.126 42.7174 80.826 42.0694 80.622C41.4214 80.406 40.6834 80.31 39.8554 80.334C39.3034 80.346 38.7454 80.43 38.1814 80.586C37.6294 80.73 37.0654 80.94 36.4894 81.216L36.9574 82.566C37.4734 82.314 37.9774 82.128 38.4694 82.008C38.9734 81.888 39.4654 81.822 39.9454 81.81C40.4374 81.81 40.8634 81.864 41.2234 81.972C41.5954 82.08 41.8834 82.236 42.0874 82.44C42.2914 82.644 42.3934 82.89 42.3934 83.178C42.3934 83.442 42.3034 83.676 42.1234 83.88C41.9554 84.072 41.7154 84.216 41.4034 84.312C41.0914 84.408 40.7254 84.456 40.3054 84.456H38.6854V85.698H40.4134C41.1214 85.698 41.6734 85.818 42.0694 86.058C42.4654 86.298 42.6634 86.64 42.6634 87.084C42.6634 87.396 42.5554 87.672 42.3394 87.912C42.1234 88.14 41.8114 88.32 41.4034 88.452C41.0074 88.584 40.5334 88.65 39.9814 88.65C39.3814 88.65 38.7874 88.572 38.1994 88.416C37.6114 88.248 37.0894 88.02 36.6334 87.732L36.1114 89.046C36.6514 89.394 37.2634 89.664 37.9474 89.856C38.6434 90.036 39.3514 90.126 40.0714 90.126ZM51.1584 90.108C50.1984 90.108 49.3464 89.898 48.6024 89.478C47.8584 89.058 47.2704 88.482 46.8384 87.75C46.4064 87.006 46.1904 86.166 46.1904 85.23C46.1904 84.282 46.4064 83.442 46.8384 82.71C47.2704 81.978 47.8584 81.408 48.6024 81C49.3464 80.58 50.1984 80.37 51.1584 80.37C52.1064 80.37 52.9524 80.58 53.6964 81C54.4524 81.408 55.0404 81.978 55.4604 82.71C55.8924 83.43 56.1084 84.27 56.1084 85.23C56.1084 86.178 55.8924 87.018 55.4604 87.75C55.0404 88.482 54.4524 89.058 53.6964 89.478C52.9524 89.898 52.1064 90.108 51.1584 90.108ZM51.1584 88.596C51.7704 88.596 52.3164 88.458 52.7964 88.182C53.2884 87.906 53.6724 87.516 53.9484 87.012C54.2244 86.496 54.3624 85.902 54.3624 85.23C54.3624 84.546 54.2244 83.958 53.9484 83.466C53.6724 82.962 53.2884 82.572 52.7964 82.296C52.3164 82.02 51.7704 81.882 51.1584 81.882C50.5464 81.882 50.0004 82.02 49.5204 82.296C49.0404 82.572 48.6564 82.962 48.3684 83.466C48.0804 83.958 47.9364 84.546 47.9364 85.23C47.9364 85.902 48.0804 86.496 48.3684 87.012C48.6564 87.516 49.0404 87.906 49.5204 88.182C50.0004 88.458 50.5464 88.596 51.1584 88.596ZM58.6037 90V80.46H63.0317C64.1477 80.46 65.0237 80.676 65.6597 81.108C66.3077 81.528 66.6317 82.128 66.6317 82.908C66.6317 83.688 66.3257 84.294 65.7137 84.726C65.1137 85.146 64.3157 85.356 63.3197 85.356L63.5897 84.888C64.7297 84.888 65.5757 85.098 66.1277 85.518C66.6797 85.938 66.9557 86.556 66.9557 87.372C66.9557 88.2 66.6437 88.848 66.0197 89.316C65.4077 89.772 64.4657 90 63.1937 90H58.6037ZM60.2957 88.668H63.0677C63.7877 88.668 64.3277 88.56 64.6877 88.344C65.0477 88.116 65.2277 87.756 65.2277 87.264C65.2277 86.76 65.0597 86.394 64.7237 86.166C64.3997 85.926 63.8837 85.806 63.1757 85.806H60.2957V88.668ZM60.2957 84.564H62.8877C63.5477 84.564 64.0457 84.444 64.3817 84.204C64.7297 83.952 64.9037 83.604 64.9037 83.16C64.9037 82.704 64.7297 82.362 64.3817 82.134C64.0457 81.906 63.5477 81.792 62.8877 81.792H60.2957V84.564ZM75.5103 90V87.984L75.4203 87.606V84.168C75.4203 83.436 75.2043 82.872 74.7723 82.476C74.3523 82.068 73.7163 81.864 72.8643 81.864C72.3003 81.864 71.7483 81.96 71.2083 82.152C70.6683 82.332 70.2123 82.578 69.8403 82.89L69.1203 81.594C69.6123 81.198 70.2003 80.898 70.8843 80.694C71.5803 80.478 72.3063 80.37 73.0623 80.37C74.3703 80.37 75.3783 80.688 76.0863 81.324C76.7943 81.96 77.1483 82.932 77.1483 84.24V90H75.5103ZM72.3783 90.108C71.6703 90.108 71.0463 89.988 70.5063 89.748C69.9783 89.508 69.5703 89.178 69.2823 88.758C68.9943 88.326 68.8503 87.84 68.8503 87.3C68.8503 86.784 68.9703 86.316 69.2103 85.896C69.4623 85.476 69.8643 85.14 70.4163 84.888C70.9803 84.636 71.7363 84.51 72.6843 84.51H75.7083V85.752H72.7563C71.8923 85.752 71.3103 85.896 71.0103 86.184C70.7103 86.472 70.5603 86.82 70.5603 87.228C70.5603 87.696 70.7463 88.074 71.1183 88.362C71.4903 88.638 72.0063 88.776 72.6663 88.776C73.3143 88.776 73.8783 88.632 74.3583 88.344C74.8503 88.056 75.2043 87.636 75.4203 87.084L75.7623 88.272C75.5343 88.836 75.1323 89.286 74.5563 89.622C73.9803 89.946 73.2543 90.108 72.3783 90.108ZM86.3619 90V86.652L86.6319 86.976H83.5899C82.3179 86.976 81.3219 86.706 80.6019 86.166C79.8939 85.626 79.5399 84.84 79.5399 83.808C79.5399 82.704 79.9179 81.87 80.6739 81.306C81.4419 80.742 82.4619 80.46 83.7339 80.46H87.9099V90H86.3619ZM79.4499 90L82.0419 86.346H83.8239L81.3039 90H79.4499ZM86.3619 86.112V81.486L86.6319 81.972H83.7879C82.9959 81.972 82.3839 82.122 81.9519 82.422C81.5199 82.71 81.3039 83.19 81.3039 83.862C81.3039 85.11 82.1079 85.734 83.7159 85.734H86.6319L86.3619 86.112Z" fill="white"/>
</g>
<g clip-path="url(#clip1_1401_51479)">
<rect x="152" y="4.00049" width="144" height="96" rx="2" fill="#6B360D"/>
<path opacity="0.75" d="M177.156 15.5845H174.24V14.6005H181.2V15.5845H178.284V23.0005H177.156V15.5845ZM181.323 16.6405H184.083C184.867 16.6405 185.443 16.8045 185.811 17.1325C186.179 17.4525 186.363 17.8685 186.363 18.3805C186.363 18.5165 186.339 18.6565 186.291 18.8005C186.243 18.9365 186.175 19.0645 186.087 19.1845C186.007 19.3045 185.907 19.4085 185.787 19.4965C185.675 19.5845 185.547 19.6525 185.403 19.7005C185.795 19.7965 186.091 19.9805 186.291 20.2525C186.499 20.5165 186.603 20.8285 186.603 21.1885C186.603 21.7405 186.419 22.1805 186.051 22.5085C185.683 22.8365 185.107 23.0005 184.323 23.0005H181.323V16.6405ZM184.323 22.0645C184.771 22.0645 185.087 21.9845 185.271 21.8245C185.455 21.6645 185.547 21.4365 185.547 21.1405C185.547 20.8365 185.455 20.6045 185.271 20.4445C185.087 20.2765 184.771 20.1925 184.323 20.1925H182.379V22.0645H184.323ZM184.083 19.3285C184.539 19.3285 184.855 19.2485 185.031 19.0885C185.215 18.9285 185.307 18.7085 185.307 18.4285C185.307 18.1645 185.215 17.9565 185.031 17.8045C184.855 17.6525 184.539 17.5765 184.083 17.5765H182.379V19.3285H184.083ZM190.748 23.1205C190.34 23.1205 189.952 23.0565 189.584 22.9285C189.216 22.7925 188.892 22.5925 188.612 22.3285C188.332 22.0565 188.108 21.7165 187.94 21.3085C187.772 20.9005 187.688 20.4245 187.688 19.8805V19.6405C187.688 19.1285 187.772 18.6765 187.94 18.2845C188.108 17.8925 188.332 17.5685 188.612 17.3125C188.892 17.0485 189.216 16.8525 189.584 16.7245C189.952 16.5885 190.34 16.5205 190.748 16.5205C191.156 16.5205 191.544 16.5885 191.912 16.7245C192.28 16.8525 192.604 17.0485 192.884 17.3125C193.164 17.5685 193.388 17.8925 193.556 18.2845C193.724 18.6765 193.808 19.1285 193.808 19.6405V19.8805C193.808 20.4245 193.724 20.9005 193.556 21.3085C193.388 21.7165 193.164 22.0565 192.884 22.3285C192.604 22.5925 192.28 22.7925 191.912 22.9285C191.544 23.0565 191.156 23.1205 190.748 23.1205ZM190.748 22.1605C190.988 22.1605 191.228 22.1205 191.468 22.0405C191.708 21.9525 191.92 21.8205 192.104 21.6445C192.288 21.4605 192.436 21.2245 192.548 20.9365C192.668 20.6485 192.728 20.2965 192.728 19.8805V19.6405C192.728 19.2565 192.668 18.9285 192.548 18.6565C192.436 18.3845 192.288 18.1605 192.104 17.9845C191.92 17.8085 191.708 17.6805 191.468 17.6005C191.228 17.5205 190.988 17.4805 190.748 17.4805C190.508 17.4805 190.268 17.5205 190.028 17.6005C189.788 17.6805 189.576 17.8085 189.392 17.9845C189.208 18.1605 189.056 18.3845 188.936 18.6565C188.824 18.9285 188.768 19.2565 188.768 19.6405V19.8805C188.768 20.2965 188.824 20.6485 188.936 20.9365C189.056 21.2245 189.208 21.4605 189.392 21.6445C189.576 21.8205 189.788 21.9525 190.028 22.0405C190.268 22.1205 190.508 22.1605 190.748 22.1605ZM195.304 16.6405H196.288V17.8405C196.504 17.4165 196.804 17.0925 197.188 16.8685C197.58 16.6365 198.032 16.5205 198.544 16.5205C199.344 16.5205 199.984 16.7845 200.464 17.3125C200.944 17.8325 201.184 18.6085 201.184 19.6405V19.8805C201.184 20.4245 201.12 20.9005 200.992 21.3085C200.864 21.7085 200.684 22.0445 200.452 22.3165C200.22 22.5805 199.94 22.7805 199.612 22.9165C199.292 23.0525 198.936 23.1205 198.544 23.1205C198 23.1205 197.544 23.0005 197.176 22.7605C196.816 22.5205 196.544 22.2205 196.36 21.8605V25.4005H195.304V16.6405ZM198.304 22.1845C198.56 22.1845 198.8 22.1365 199.024 22.0405C199.248 21.9365 199.44 21.7885 199.6 21.5965C199.768 21.4045 199.896 21.1645 199.984 20.8765C200.08 20.5885 200.128 20.2565 200.128 19.8805V19.6405C200.128 19.2965 200.08 18.9885 199.984 18.7165C199.896 18.4445 199.768 18.2165 199.6 18.0325C199.44 17.8405 199.248 17.6965 199.024 17.6005C198.8 17.5045 198.56 17.4565 198.304 17.4565C198.016 17.4565 197.752 17.5045 197.512 17.6005C197.272 17.6885 197.068 17.8165 196.9 17.9845C196.732 18.1445 196.6 18.3365 196.504 18.5605C196.408 18.7845 196.36 19.0245 196.36 19.2805V20.2405C196.36 20.5285 196.408 20.7925 196.504 21.0325C196.6 21.2725 196.732 21.4765 196.9 21.6445C197.068 21.8125 197.272 21.9445 197.512 22.0405C197.752 22.1365 198.016 22.1845 198.304 22.1845ZM202.687 16.6405H203.743V19.2925H204.643C204.675 18.8365 204.775 18.4365 204.943 18.0925C205.111 17.7405 205.323 17.4485 205.579 17.2165C205.843 16.9845 206.143 16.8125 206.479 16.7005C206.815 16.5805 207.171 16.5205 207.547 16.5205C207.955 16.5205 208.335 16.5885 208.687 16.7245C209.047 16.8525 209.359 17.0485 209.623 17.3125C209.887 17.5685 210.095 17.8925 210.247 18.2845C210.407 18.6765 210.487 19.1285 210.487 19.6405V19.8805C210.487 20.4245 210.407 20.9005 210.247 21.3085C210.095 21.7165 209.887 22.0565 209.623 22.3285C209.359 22.5925 209.047 22.7925 208.687 22.9285C208.335 23.0565 207.955 23.1205 207.547 23.1205C207.171 23.1205 206.811 23.0645 206.467 22.9525C206.131 22.8325 205.831 22.6525 205.567 22.4125C205.311 22.1725 205.099 21.8725 204.931 21.5125C204.771 21.1445 204.675 20.7165 204.643 20.2285H203.743V23.0005H202.687V16.6405ZM207.547 22.1605C207.787 22.1605 208.019 22.1205 208.243 22.0405C208.467 21.9525 208.663 21.8205 208.831 21.6445C209.007 21.4605 209.147 21.2245 209.251 20.9365C209.355 20.6485 209.407 20.2965 209.407 19.8805V19.6405C209.407 19.2565 209.355 18.9285 209.251 18.6565C209.147 18.3845 209.007 18.1605 208.831 17.9845C208.663 17.8085 208.467 17.6805 208.243 17.6005C208.019 17.5205 207.787 17.4805 207.547 17.4805C207.307 17.4805 207.075 17.5205 206.851 17.6005C206.627 17.6805 206.427 17.8085 206.251 17.9845C206.083 18.1605 205.947 18.3845 205.843 18.6565C205.739 18.9285 205.687 19.2565 205.687 19.6405V19.8805C205.687 20.2965 205.739 20.6485 205.843 20.9365C205.947 21.2245 206.083 21.4605 206.251 21.6445C206.427 21.8205 206.627 21.9525 206.851 22.0405C207.075 22.1205 207.307 22.1605 207.547 22.1605Z" fill="white"/>
<g opacity="0.75">
<rect width="2" height="6" transform="matrix(-1 0 0 1 170 16.0005)" fill="white"/>
<rect width="2" height="4" transform="matrix(-1 0 0 1 166 18.0005)" fill="white"/>
<rect width="2" height="2" transform="matrix(-1 0 0 1 162 20.0005)" fill="white"/>
</g>
<path d="M164.536 90.0005V78.4985L164.986 78.9665H160.234V77.4005H170.62V78.9665H165.868L166.3 78.4985V90.0005H164.536ZM172.291 90.0005V80.4605H176.719C177.835 80.4605 178.711 80.6765 179.347 81.1085C179.995 81.5285 180.319 82.1285 180.319 82.9085C180.319 83.6885 180.013 84.2945 179.401 84.7265C178.801 85.1465 178.003 85.3565 177.007 85.3565L177.277 84.8885C178.417 84.8885 179.263 85.0985 179.815 85.5185C180.367 85.9385 180.643 86.5565 180.643 87.3725C180.643 88.2005 180.331 88.8485 179.707 89.3165C179.095 89.7725 178.153 90.0005 176.881 90.0005H172.291ZM173.983 88.6685H176.755C177.475 88.6685 178.015 88.5605 178.375 88.3445C178.735 88.1165 178.915 87.7565 178.915 87.2645C178.915 86.7605 178.747 86.3945 178.411 86.1665C178.087 85.9265 177.571 85.8065 176.863 85.8065H173.983V88.6685ZM173.983 84.5645H176.575C177.235 84.5645 177.733 84.4445 178.069 84.2045C178.417 83.9525 178.591 83.6045 178.591 83.1605C178.591 82.7045 178.417 82.3625 178.069 82.1345C177.733 81.9065 177.235 81.7925 176.575 81.7925H173.983V84.5645ZM187.434 90.1085C186.474 90.1085 185.622 89.8985 184.878 89.4785C184.134 89.0585 183.546 88.4825 183.114 87.7505C182.682 87.0065 182.466 86.1665 182.466 85.2305C182.466 84.2825 182.682 83.4425 183.114 82.7105C183.546 81.9785 184.134 81.4085 184.878 81.0005C185.622 80.5805 186.474 80.3705 187.434 80.3705C188.382 80.3705 189.228 80.5805 189.972 81.0005C190.728 81.4085 191.316 81.9785 191.736 82.7105C192.168 83.4305 192.384 84.2705 192.384 85.2305C192.384 86.1785 192.168 87.0185 191.736 87.7505C191.316 88.4825 190.728 89.0585 189.972 89.4785C189.228 89.8985 188.382 90.1085 187.434 90.1085ZM187.434 88.5965C188.046 88.5965 188.592 88.4585 189.072 88.1825C189.564 87.9065 189.948 87.5165 190.224 87.0125C190.5 86.4965 190.638 85.9025 190.638 85.2305C190.638 84.5465 190.5 83.9585 190.224 83.4665C189.948 82.9625 189.564 82.5725 189.072 82.2965C188.592 82.0205 188.046 81.8825 187.434 81.8825C186.822 81.8825 186.276 82.0205 185.796 82.2965C185.316 82.5725 184.932 82.9625 184.644 83.4665C184.356 83.9585 184.212 84.5465 184.212 85.2305C184.212 85.9025 184.356 86.4965 184.644 87.0125C184.932 87.5165 185.316 87.9065 185.796 88.1825C186.276 88.4585 186.822 88.5965 187.434 88.5965ZM199.937 90.1085C199.145 90.1085 198.419 89.9285 197.759 89.5685C197.111 89.1965 196.589 88.6505 196.193 87.9305C195.809 87.2105 195.617 86.3105 195.617 85.2305C195.617 84.1505 195.803 83.2505 196.175 82.5305C196.559 81.8105 197.075 81.2705 197.723 80.9105C198.383 80.5505 199.121 80.3705 199.937 80.3705C200.873 80.3705 201.701 80.5745 202.421 80.9825C203.141 81.3905 203.711 81.9605 204.131 82.6925C204.551 83.4125 204.761 84.2585 204.761 85.2305C204.761 86.2025 204.551 87.0545 204.131 87.7865C203.711 88.5185 203.141 89.0885 202.421 89.4965C201.701 89.9045 200.873 90.1085 199.937 90.1085ZM194.879 93.4925V80.4605H196.535V83.0345L196.427 85.2485L196.607 87.4625V93.4925H194.879ZM199.793 88.5965C200.405 88.5965 200.951 88.4585 201.431 88.1825C201.923 87.9065 202.307 87.5165 202.583 87.0125C202.871 86.4965 203.015 85.9025 203.015 85.2305C203.015 84.5465 202.871 83.9585 202.583 83.4665C202.307 82.9625 201.923 82.5725 201.431 82.2965C200.951 82.0205 200.405 81.8825 199.793 81.8825C199.193 81.8825 198.647 82.0205 198.155 82.2965C197.675 82.5725 197.291 82.9625 197.003 83.4665C196.727 83.9585 196.589 84.5465 196.589 85.2305C196.589 85.9025 196.727 86.4965 197.003 87.0125C197.291 87.5165 197.675 87.9065 198.155 88.1825C198.647 88.4585 199.193 88.5965 199.793 88.5965ZM213.284 86.0945C212.78 86.3345 212.258 86.5265 211.718 86.6705C211.19 86.8025 210.644 86.8685 210.08 86.8685C208.928 86.8685 208.016 86.5985 207.344 86.0585C206.684 85.5185 206.354 84.6845 206.354 83.5565V80.4605H208.082V83.4485C208.082 84.1325 208.292 84.6365 208.712 84.9605C209.144 85.2845 209.72 85.4465 210.44 85.4465C210.896 85.4465 211.364 85.3865 211.844 85.2665C212.336 85.1465 212.816 84.9785 213.284 84.7625V86.0945ZM213.158 90.0005V80.4605H214.886V90.0005H213.158ZM222.488 90.1085C221.468 90.1085 220.568 89.8985 219.788 89.4785C219.02 89.0585 218.42 88.4825 217.988 87.7505C217.568 87.0185 217.358 86.1785 217.358 85.2305C217.358 84.2825 217.562 83.4425 217.97 82.7105C218.39 81.9785 218.96 81.4085 219.68 81.0005C220.412 80.5805 221.234 80.3705 222.146 80.3705C223.07 80.3705 223.886 80.5745 224.594 80.9825C225.302 81.3905 225.854 81.9665 226.25 82.7105C226.658 83.4425 226.862 84.3005 226.862 85.2845C226.862 85.3565 226.856 85.4405 226.844 85.5365C226.844 85.6325 226.838 85.7225 226.826 85.8065H218.708V84.5645H225.926L225.224 84.9965C225.236 84.3845 225.11 83.8385 224.846 83.3585C224.582 82.8785 224.216 82.5065 223.748 82.2425C223.292 81.9665 222.758 81.8285 222.146 81.8285C221.546 81.8285 221.012 81.9665 220.544 82.2425C220.076 82.5065 219.71 82.8845 219.446 83.3765C219.182 83.8565 219.05 84.4085 219.05 85.0325V85.3205C219.05 85.9565 219.194 86.5265 219.482 87.0305C219.782 87.5225 220.196 87.9065 220.724 88.1825C221.252 88.4585 221.858 88.5965 222.542 88.5965C223.106 88.5965 223.616 88.5005 224.072 88.3085C224.54 88.1165 224.948 87.8285 225.296 87.4445L226.25 88.5605C225.818 89.0645 225.278 89.4485 224.63 89.7125C223.994 89.9765 223.28 90.1085 222.488 90.1085ZM233.701 90.1085C232.729 90.1085 231.859 89.8985 231.091 89.4785C230.335 89.0585 229.741 88.4825 229.309 87.7505C228.877 87.0185 228.661 86.1785 228.661 85.2305C228.661 84.2825 228.877 83.4425 229.309 82.7105C229.741 81.9785 230.335 81.4085 231.091 81.0005C231.859 80.5805 232.729 80.3705 233.701 80.3705C234.565 80.3705 235.333 80.5445 236.005 80.8925C236.689 81.2285 237.217 81.7325 237.589 82.4045L236.275 83.2505C235.963 82.7825 235.579 82.4405 235.123 82.2245C234.679 81.9965 234.199 81.8825 233.683 81.8825C233.059 81.8825 232.501 82.0205 232.009 82.2965C231.517 82.5725 231.127 82.9625 230.839 83.4665C230.551 83.9585 230.407 84.5465 230.407 85.2305C230.407 85.9145 230.551 86.5085 230.839 87.0125C231.127 87.5165 231.517 87.9065 232.009 88.1825C232.501 88.4585 233.059 88.5965 233.683 88.5965C234.199 88.5965 234.679 88.4885 235.123 88.2725C235.579 88.0445 235.963 87.6965 236.275 87.2285L237.589 88.0565C237.217 88.7165 236.689 89.2265 236.005 89.5865C235.333 89.9345 234.565 90.1085 233.701 90.1085ZM246.738 90.0005L243.048 85.3565L244.47 84.4925L248.772 90.0005H246.738ZM239.826 90.0005V80.4605H241.554V90.0005H239.826ZM241.032 85.9685V84.4925H244.182V85.9685H241.032ZM244.614 85.4285L243.012 85.2125L246.666 80.4605H248.52L244.614 85.4285ZM256.258 90.0005V87.9845L256.168 87.6065V84.1685C256.168 83.4365 255.952 82.8725 255.52 82.4765C255.1 82.0685 254.464 81.8645 253.612 81.8645C253.048 81.8645 252.496 81.9605 251.956 82.1525C251.416 82.3325 250.96 82.5785 250.588 82.8905L249.868 81.5945C250.36 81.1985 250.948 80.8985 251.632 80.6945C252.328 80.4785 253.054 80.3705 253.81 80.3705C255.118 80.3705 256.126 80.6885 256.834 81.3245C257.542 81.9605 257.896 82.9325 257.896 84.2405V90.0005H256.258ZM253.126 90.1085C252.418 90.1085 251.794 89.9885 251.254 89.7485C250.726 89.5085 250.318 89.1785 250.03 88.7585C249.742 88.3265 249.598 87.8405 249.598 87.3005C249.598 86.7845 249.718 86.3165 249.958 85.8965C250.21 85.4765 250.612 85.1405 251.164 84.8885C251.728 84.6365 252.484 84.5105 253.432 84.5105H256.456V85.7525H253.504C252.64 85.7525 252.058 85.8965 251.758 86.1845C251.458 86.4725 251.308 86.8205 251.308 87.2285C251.308 87.6965 251.494 88.0745 251.866 88.3625C252.238 88.6385 252.754 88.7765 253.414 88.7765C254.062 88.7765 254.626 88.6325 255.106 88.3445C255.598 88.0565 255.952 87.6365 256.168 87.0845L256.51 88.2725C256.282 88.8365 255.88 89.2865 255.304 89.6225C254.728 89.9465 254.002 90.1085 253.126 90.1085ZM267.11 90.0005V86.6525L267.38 86.9765H264.338C263.066 86.9765 262.07 86.7065 261.35 86.1665C260.642 85.6265 260.288 84.8405 260.288 83.8085C260.288 82.7045 260.666 81.8705 261.422 81.3065C262.19 80.7425 263.21 80.4605 264.482 80.4605H268.658V90.0005H267.11ZM260.198 90.0005L262.79 86.3465H264.572L262.052 90.0005H260.198ZM267.11 86.1125V81.4865L267.38 81.9725H264.536C263.744 81.9725 263.132 82.1225 262.7 82.4225C262.268 82.7105 262.052 83.1905 262.052 83.8625C262.052 85.1105 262.856 85.7345 264.464 85.7345H267.38L267.11 86.1125Z" fill="white"/>
<path opacity="0.5" d="M284.59 89.2205V90.0005H279.574V89.2325L281.746 87.0965C282.226 86.6245 282.59 86.2405 282.838 85.9445C283.086 85.6405 283.258 85.3645 283.354 85.1165C283.458 84.8685 283.51 84.6045 283.51 84.3245V84.2045C283.51 83.7565 283.37 83.4085 283.09 83.1605C282.818 82.9125 282.434 82.7885 281.938 82.7885C281.442 82.7885 281.054 82.9205 280.774 83.1845C280.502 83.4405 280.366 83.8005 280.366 84.2645V84.5165H279.514V84.2525C279.514 83.5485 279.73 82.9965 280.162 82.5965C280.594 82.1965 281.186 81.9965 281.938 81.9965C282.698 81.9965 283.29 82.1925 283.714 82.5845C284.146 82.9765 284.362 83.5165 284.362 84.2045V84.3245C284.362 84.8285 284.222 85.3165 283.942 85.7885C283.662 86.2525 283.154 86.8485 282.418 87.5765L280.75 89.2205H284.59Z" fill="white"/>
<g opacity="0.75">
<path d="M285.07 14.2075L280.071 14.2075C279.795 14.2075 279.571 14.4314 279.571 14.7075C279.571 14.9837 279.795 15.2075 280.071 15.2075L283.864 15.2075L278.353 20.7179C278.158 20.9132 278.158 21.2298 278.353 21.425C278.549 21.6203 278.865 21.6203 279.061 21.425L284.571 15.9146V19.7075C284.571 19.9837 284.795 20.2075 285.071 20.2075C285.347 20.2075 285.571 19.9837 285.571 19.7075V14.7079C285.571 14.7074 285.571 14.7067 285.571 14.7062C285.571 14.7062 285.571 14.7063 285.571 14.7062C285.571 14.639 285.557 14.5746 285.533 14.5161C285.509 14.4572 285.472 14.4019 285.425 14.354C285.376 14.3058 285.321 14.2695 285.261 14.2451C285.205 14.2217 285.143 14.2085 285.078 14.2076" fill="white"/>
</g>
</g>
<g opacity="0.5">
<mask id="mask1_1401_51479" style="mask-type:alpha" maskUnits="userSpaceOnUse" x="0" y="144" width="300" height="24">
<path d="M0 166C0 167.105 0.895431 168 2 168H298C299.105 168 300 167.105 300 166V146C300 144.895 299.105 144 298 144H2C0.895429 144 0 144.895 0 146V166Z" fill="url(#paint1_linear_1401_51479)"/>
</mask>
<g mask="url(#mask1_1401_51479)">
<path d="M2 144.5C1.79569 144.5 1.60212 144.541 1.42595 144.614L1.23442 144.152C0.745542 144.354 0.354491 144.746 0.151761 145.234L0.613624 145.426C0.54057 145.602 0.5 145.796 0.5 146V147H0V149H0.5V151H0V153H0.5V155H0V157H0.5V159H0V161H0.5V163H0V165H0.5V166C0.5 166.204 0.54057 166.398 0.613624 166.574L0.151761 166.766C0.354492 167.254 0.745544 167.646 1.23442 167.848L1.42595 167.386C1.60212 167.459 1.79569 167.5 2 167.5H3V168H5V167.5H7V168H9V167.5H11V168H13V167.5H15V168H17V167.5H19V168H21V167.5H23V168H25V167.5H27V168H29V167.5H31V168H33V167.5H35V168H37V167.5H39V168H41V167.5H43V168H45V167.5H47V168H49V167.5H51V168H53V167.5H55V168H57V167.5H59V168H61V167.5H63V168H65V167.5H67V168H69V167.5H71V168H73V167.5H75V168H77V167.5H79V168H81V167.5H83V168H85V167.5H87V168H89V167.5H91V168H93V167.5H95V168H97V167.5H99V168H101V167.5H103V168H105V167.5H107V168H109V167.5H111V168H113V167.5H115V168H117V167.5H119V168H121V167.5H123V168H125V167.5H127V168H129V167.5H131V168H133V167.5H135V168H137V167.5H139V168H141V167.5H143V168H145V167.5H147V168H149V167.5H151V168H153V167.5H155V168H157V167.5H159V168H161V167.5H163V168H165V167.5H167V168H169V167.5H171V168H173V167.5H175V168H177V167.5H179V168H181V167.5H183V168H185V167.5H187V168H189V167.5H191V168H193V167.5H195V168H197V167.5H199V168H201V167.5H203V168H205V167.5H207V168H209V167.5H211V168H213V167.5H215V168H217V167.5H219V168H221V167.5H223V168H225V167.5H227V168H229V167.5H231V168H233V167.5H235V168H237V167.5H239V168H241V167.5H243V168H245V167.5H247V168H249V167.5H251V168H253V167.5H255V168H257V167.5H259V168H261V167.5H263V168H265V167.5H267V168H269V167.5H271V168H273V167.5H275V168H277V167.5H279V168H281V167.5H283V168H285V167.5H287V168H289V167.5H291V168H293V167.5H295V168H297V167.5H298C298.204 167.5 298.398 167.459 298.574 167.386L298.766 167.848C299.254 167.646 299.646 167.254 299.848 166.766L299.386 166.574C299.459 166.398 299.5 166.204 299.5 166V165H300V163H299.5V161H300V159H299.5V157H300V155H299.5V153H300V151H299.5V149H300V147H299.5V146C299.5 145.796 299.459 145.602 299.386 145.426L299.848 145.234C299.646 144.746 299.254 144.354 298.766 144.152L298.574 144.614C298.398 144.541 298.204 144.5 298 144.5H297V144H295V144.5H293V144H291V144.5H289V144H287V144.5H285V144H283V144.5H281V144H279V144.5H277V144H275V144.5H273V144H271V144.5H269V144H267V144.5H265V144H263V144.5H261V144H259V144.5H257V144H255V144.5H253V144H251V144.5H249V144H247V144.5H245V144H243V144.5H241V144H239V144.5H237V144H235V144.5H233V144H231V144.5H229V144H227V144.5H225V144H223V144.5H221V144H219V144.5H217V144H215V144.5H213V144H211V144.5H209V144H207V144.5H205V144H203V144.5H201V144H199V144.5H197V144H195V144.5H193V144H191V144.5H189V144H187V144.5H185V144H183V144.5H181V144H179V144.5H177V144H175V144.5H173V144H171V144.5H169V144H167V144.5H165V144H163V144.5H161V144H159V144.5H157V144H155V144.5H153V144H151V144.5H149V144H147V144.5H145V144H143V144.5H141V144H139V144.5H137V144H135V144.5H133V144H131V144.5H129V144H127V144.5H125V144H123V144.5H121V144H119V144.5H117V144H115V144.5H113V144H111V144.5H109V144H107V144.5H105V144H103V144.5H101V144H99V144.5H97V144H95V144.5H93V144H91V144.5H89V144H87V144.5H85V144H83V144.5H81V144H79V144.5H77V144H75V144.5H73V144H71V144.5H69V144H67V144.5H65V144H63V144.5H61V144H59V144.5H57V144H55V144.5H53V144H51V144.5H49V144H47V144.5H45V144H43V144.5H41V144H39V144.5H37V144H35V144.5H33V144H31V144.5H29V144H27V144.5H25V144H23V144.5H21V144H19V144.5H17V144H15V144.5H13V144H11V144.5H8.99999V144H7V144.5H4.99999V144H3V144.5H2Z" stroke="#6B360D" stroke-dasharray="2 2"/>
</g>
</g>
<g clip-path="url(#clip2_1401_51479)">
<rect width="180" height="60" transform="translate(4 104)" fill="white"/>
<g opacity="0.1">
<path d="M171.104 104H152.555L184 124.576V112.439L171.104 104Z" fill="#6B360D"/>
<path d="M184 142.781L124.733 104H106.184L184 154.918V142.781Z" fill="#6B360D"/>
<path d="M170.058 164L78.3615 104H59.8131L151.51 164H170.058Z" fill="#6B360D"/>
<path d="M123.687 164L31.9904 104H13.4419L105.139 164H123.687Z" fill="#6B360D"/>
<path d="M77.3161 164L4 116.028V128.164L58.7676 164H77.3161Z" fill="#6B360D"/>
<path d="M30.9449 164L4 146.37V158.506L12.3965 164H30.9449Z" fill="#6B360D"/>
</g>
<rect opacity="0.6" x="4.5" y="104.5" width="179" height="59" rx="1.5" stroke="#6B360D"/>
<path opacity="0.75" d="M23.26 123.12C22.788 123.12 22.34 123.04 21.916 122.88C21.492 122.712 21.116 122.456 20.788 122.112C20.46 121.76 20.2 121.316 20.008 120.78C19.816 120.244 19.72 119.604 19.72 118.86V118.62C19.72 117.9 19.816 117.28 20.008 116.76C20.2 116.24 20.46 115.812 20.788 115.476C21.116 115.14 21.492 114.892 21.916 114.732C22.34 114.564 22.788 114.48 23.26 114.48C23.716 114.48 24.132 114.54 24.508 114.66C24.892 114.78 25.228 114.952 25.516 115.176C25.804 115.4 26.036 115.676 26.212 116.004C26.396 116.332 26.512 116.704 26.56 117.12H25.36C25.248 116.576 25.012 116.168 24.652 115.896C24.292 115.624 23.828 115.488 23.26 115.488C22.964 115.488 22.676 115.544 22.396 115.656C22.116 115.768 21.864 115.948 21.64 116.196C21.424 116.436 21.248 116.756 21.112 117.156C20.984 117.556 20.92 118.044 20.92 118.62V118.86C20.92 119.468 20.992 119.98 21.136 120.396C21.28 120.804 21.464 121.136 21.688 121.392C21.912 121.648 22.164 121.832 22.444 121.944C22.724 122.056 22.996 122.112 23.26 122.112C23.884 122.112 24.372 121.96 24.724 121.656C25.076 121.352 25.288 120.96 25.36 120.48H26.56C26.496 120.944 26.368 121.344 26.176 121.68C25.984 122.008 25.74 122.28 25.444 122.496C25.156 122.712 24.824 122.872 24.448 122.976C24.08 123.072 23.684 123.12 23.26 123.12ZM29.5683 117.576H27.3963V116.64H32.7963V117.576H30.6243V123H29.5683V117.576ZM33.9991 116.64H34.9831V117.84C35.1991 117.416 35.4991 117.092 35.8831 116.868C36.2751 116.636 36.7271 116.52 37.2391 116.52C38.0391 116.52 38.6791 116.784 39.1591 117.312C39.6391 117.832 39.8791 118.608 39.8791 119.64V119.88C39.8791 120.424 39.8151 120.9 39.6871 121.308C39.5591 121.708 39.3791 122.044 39.1471 122.316C38.9151 122.58 38.6351 122.78 38.3071 122.916C37.9871 123.052 37.6311 123.12 37.2391 123.12C36.6951 123.12 36.2391 123 35.8711 122.76C35.5111 122.52 35.2391 122.22 35.0551 121.86V125.4H33.9991V116.64ZM36.9991 122.184C37.2551 122.184 37.4951 122.136 37.7191 122.04C37.9431 121.936 38.1351 121.788 38.2951 121.596C38.4631 121.404 38.5911 121.164 38.6791 120.876C38.7751 120.588 38.8231 120.256 38.8231 119.88V119.64C38.8231 119.296 38.7751 118.988 38.6791 118.716C38.5911 118.444 38.4631 118.216 38.2951 118.032C38.1351 117.84 37.9431 117.696 37.7191 117.6C37.4951 117.504 37.2551 117.456 36.9991 117.456C36.7111 117.456 36.4471 117.504 36.2071 117.6C35.9671 117.688 35.7631 117.816 35.5951 117.984C35.4271 118.144 35.2951 118.336 35.1991 118.56C35.1031 118.784 35.0551 119.024 35.0551 119.28V120.24C35.0551 120.528 35.1031 120.792 35.1991 121.032C35.2951 121.272 35.4271 121.476 35.5951 121.644C35.7631 121.812 35.9671 121.944 36.2071 122.04C36.4471 122.136 36.7111 122.184 36.9991 122.184ZM43.1939 123.12C42.8419 123.12 42.5299 123.072 42.2579 122.976C41.9939 122.872 41.7699 122.732 41.5859 122.556C41.4019 122.38 41.2619 122.172 41.1659 121.932C41.0699 121.692 41.0219 121.428 41.0219 121.14C41.0219 120.508 41.2059 120.052 41.5739 119.772C41.9499 119.492 42.4859 119.352 43.1819 119.352H45.2459V118.92C45.2459 118.376 45.1219 118 44.8739 117.792C44.6339 117.584 44.2699 117.48 43.7819 117.48C43.3259 117.48 42.9939 117.568 42.7859 117.744C42.5779 117.912 42.4619 118.104 42.4379 118.32H41.3819C41.3979 118.064 41.4659 117.828 41.5859 117.612C41.7139 117.388 41.8819 117.196 42.0899 117.036C42.3059 116.876 42.5619 116.752 42.8579 116.664C43.1539 116.568 43.4819 116.52 43.8419 116.52C44.5939 116.52 45.1899 116.7 45.6299 117.06C46.0779 117.412 46.3019 117.992 46.3019 118.8V121.38C46.3019 121.716 46.3019 122.012 46.3019 122.268C46.3099 122.516 46.3299 122.76 46.3619 123H45.4379C45.4139 122.816 45.3979 122.644 45.3899 122.484C45.3819 122.316 45.3779 122.128 45.3779 121.92C45.2099 122.256 44.9379 122.54 44.5619 122.772C44.1859 123.004 43.7299 123.12 43.1939 123.12ZM43.4219 122.16C43.6699 122.16 43.9019 122.128 44.1179 122.064C44.3419 121.992 44.5379 121.892 44.7059 121.764C44.8739 121.628 45.0059 121.464 45.1019 121.272C45.1979 121.08 45.2459 120.856 45.2459 120.6V120.168H43.3619C42.9699 120.168 42.6619 120.248 42.4379 120.408C42.2139 120.56 42.1019 120.804 42.1019 121.14C42.1019 121.436 42.2059 121.68 42.4139 121.872C42.6299 122.064 42.9659 122.16 43.4219 122.16ZM47.447 122.064H48.227C48.315 121.944 48.395 121.76 48.467 121.512C48.539 121.264 48.603 120.972 48.659 120.636C48.715 120.3 48.755 119.936 48.779 119.544C48.811 119.144 48.827 118.736 48.827 118.32V116.64H53.267V122.064H54.167V124.5H53.159V123H48.455V124.5H47.447V122.064ZM52.211 122.064V117.576H49.859V118.56C49.859 118.896 49.847 119.232 49.823 119.568C49.799 119.896 49.763 120.212 49.715 120.516C49.667 120.812 49.607 121.096 49.535 121.368C49.471 121.632 49.395 121.864 49.307 122.064H52.211ZM57.3618 123.12C57.0098 123.12 56.6978 123.072 56.4258 122.976C56.1618 122.872 55.9378 122.732 55.7538 122.556C55.5698 122.38 55.4298 122.172 55.3338 121.932C55.2378 121.692 55.1898 121.428 55.1898 121.14C55.1898 120.508 55.3738 120.052 55.7418 119.772C56.1178 119.492 56.6538 119.352 57.3498 119.352H59.4138V118.92C59.4138 118.376 59.2898 118 59.0418 117.792C58.8018 117.584 58.4378 117.48 57.9498 117.48C57.4938 117.48 57.1618 117.568 56.9538 117.744C56.7458 117.912 56.6298 118.104 56.6058 118.32H55.5498C55.5658 118.064 55.6338 117.828 55.7538 117.612C55.8818 117.388 56.0498 117.196 56.2578 117.036C56.4738 116.876 56.7298 116.752 57.0258 116.664C57.3218 116.568 57.6498 116.52 58.0098 116.52C58.7618 116.52 59.3578 116.7 59.7978 117.06C60.2458 117.412 60.4698 117.992 60.4698 118.8V121.38C60.4698 121.716 60.4698 122.012 60.4698 122.268C60.4778 122.516 60.4978 122.76 60.5298 123H59.6058C59.5818 122.816 59.5658 122.644 59.5578 122.484C59.5498 122.316 59.5458 122.128 59.5458 121.92C59.3778 122.256 59.1058 122.54 58.7298 122.772C58.3538 123.004 57.8978 123.12 57.3618 123.12ZM57.5898 122.16C57.8378 122.16 58.0698 122.128 58.2858 122.064C58.5098 121.992 58.7058 121.892 58.8738 121.764C59.0418 121.628 59.1738 121.464 59.2698 121.272C59.3658 121.08 59.4138 120.856 59.4138 120.6V120.168H57.5298C57.1378 120.168 56.8298 120.248 56.6058 120.408C56.3818 120.56 56.2698 120.804 56.2698 121.14C56.2698 121.436 56.3738 121.68 56.5818 121.872C56.7978 122.064 57.1338 122.16 57.5898 122.16ZM62.335 116.64H63.391V119.292H64.291C64.323 118.836 64.423 118.436 64.591 118.092C64.759 117.74 64.971 117.448 65.227 117.216C65.491 116.984 65.791 116.812 66.127 116.7C66.463 116.58 66.819 116.52 67.195 116.52C67.603 116.52 67.983 116.588 68.335 116.724C68.695 116.852 69.007 117.048 69.271 117.312C69.535 117.568 69.743 117.892 69.895 118.284C70.055 118.676 70.135 119.128 70.135 119.64V119.88C70.135 120.424 70.055 120.9 69.895 121.308C69.743 121.716 69.535 122.056 69.271 122.328C69.007 122.592 68.695 122.792 68.335 122.928C67.983 123.056 67.603 123.12 67.195 123.12C66.819 123.12 66.459 123.064 66.115 122.952C65.779 122.832 65.479 122.652 65.215 122.412C64.959 122.172 64.747 121.872 64.579 121.512C64.419 121.144 64.323 120.716 64.291 120.228H63.391V123H62.335V116.64ZM67.195 122.16C67.435 122.16 67.667 122.12 67.891 122.04C68.115 121.952 68.311 121.82 68.479 121.644C68.655 121.46 68.795 121.224 68.899 120.936C69.003 120.648 69.055 120.296 69.055 119.88V119.64C69.055 119.256 69.003 118.928 68.899 118.656C68.795 118.384 68.655 118.16 68.479 117.984C68.311 117.808 68.115 117.68 67.891 117.6C67.667 117.52 67.435 117.48 67.195 117.48C66.955 117.48 66.723 117.52 66.499 117.6C66.275 117.68 66.075 117.808 65.899 117.984C65.731 118.16 65.595 118.384 65.491 118.656C65.387 118.928 65.335 119.256 65.335 119.64V119.88C65.335 120.296 65.387 120.648 65.491 120.936C65.595 121.224 65.731 121.46 65.899 121.644C66.075 121.82 66.275 121.952 66.499 122.04C66.723 122.12 66.955 122.16 67.195 122.16Z" fill="#6B360D"/>
<g opacity="0.75">
<rect opacity="0.25" x="13" y="114" width="2" height="8" fill="#6B360D"/>
<rect x="13" y="120" width="2" height="2" fill="#6B360D"/>
</g>
<g opacity="0.75">
<path d="M173.535 121.535C173.731 121.34 173.731 121.024 173.535 120.828L170.707 118L173.535 115.171C173.731 114.976 173.731 114.66 173.535 114.464C173.34 114.269 173.024 114.269 172.828 114.464L170 117.293L167.171 114.464C166.976 114.269 166.66 114.269 166.464 114.464C166.269 114.66 166.269 114.976 166.464 115.171L169.293 118L166.464 120.828C166.269 121.024 166.269 121.34 166.464 121.535C166.66 121.731 166.976 121.731 167.171 121.535L170 118.707L172.828 121.535C173.024 121.731 173.34 121.731 173.535 121.535Z" fill="#6B360D"/>
</g>
<path opacity="0.75" d="M173.215 152.188H171.835V154H170.971V152.188H166.999V151.384C167.415 150.48 167.759 149.608 168.031 148.768C168.303 147.928 168.519 147.048 168.679 146.128H169.567V146.272C169.247 148 168.707 149.704 167.947 151.384H170.971V147.544H171.835V151.384H173.215V152.188Z" fill="#6B360D"/>
<path d="M13.962 154V141.4H23.466V142.93H15.744V146.53H19.668C21.168 146.53 22.308 146.842 23.088 147.466C23.868 148.09 24.258 148.996 24.258 150.184C24.258 151.408 23.832 152.35 22.98 153.01C22.14 153.67 20.934 154 19.362 154H13.962ZM15.744 152.578H19.29C20.334 152.578 21.12 152.38 21.648 151.984C22.188 151.588 22.458 151 22.458 150.22C22.458 148.708 21.402 147.952 19.29 147.952H15.744V152.578ZM30.926 154.108C29.966 154.108 29.114 153.898 28.37 153.478C27.626 153.058 27.038 152.482 26.606 151.75C26.174 151.006 25.958 150.166 25.958 149.23C25.958 148.282 26.174 147.442 26.606 146.71C27.038 145.978 27.626 145.408 28.37 145C29.114 144.58 29.966 144.37 30.926 144.37C31.874 144.37 32.72 144.58 33.464 145C34.22 145.408 34.808 145.978 35.228 146.71C35.66 147.43 35.876 148.27 35.876 149.23C35.876 150.178 35.66 151.018 35.228 151.75C34.808 152.482 34.22 153.058 33.464 153.478C32.72 153.898 31.874 154.108 30.926 154.108ZM30.926 152.596C31.538 152.596 32.084 152.458 32.564 152.182C33.056 151.906 33.44 151.516 33.716 151.012C33.992 150.496 34.13 149.902 34.13 149.23C34.13 148.546 33.992 147.958 33.716 147.466C33.44 146.962 33.056 146.572 32.564 146.296C32.084 146.02 31.538 145.882 30.926 145.882C30.314 145.882 29.768 146.02 29.288 146.296C28.808 146.572 28.424 146.962 28.136 147.466C27.848 147.958 27.704 148.546 27.704 149.23C27.704 149.902 27.848 150.496 28.136 151.012C28.424 151.516 28.808 151.906 29.288 152.182C29.768 152.458 30.314 152.596 30.926 152.596ZM36.717 153.982L36.825 152.524C36.909 152.536 36.987 152.548 37.059 152.56C37.131 152.572 37.197 152.578 37.257 152.578C37.641 152.578 37.941 152.446 38.157 152.182C38.385 151.918 38.553 151.57 38.661 151.138C38.769 150.694 38.847 150.196 38.895 149.644C38.943 149.092 38.979 148.54 39.003 147.988L39.165 144.46H46.491V154H44.763V145.468L45.177 145.972H40.281L40.677 145.45L40.551 148.096C40.515 148.936 40.449 149.722 40.353 150.454C40.257 151.186 40.107 151.828 39.903 152.38C39.711 152.932 39.441 153.364 39.093 153.676C38.757 153.988 38.319 154.144 37.779 154.144C37.623 154.144 37.455 154.126 37.275 154.09C37.107 154.066 36.921 154.03 36.717 153.982ZM54.0802 154.108C53.0602 154.108 52.1602 153.898 51.3802 153.478C50.6122 153.058 50.0122 152.482 49.5802 151.75C49.1602 151.018 48.9502 150.178 48.9502 149.23C48.9502 148.282 49.1542 147.442 49.5622 146.71C49.9822 145.978 50.5522 145.408 51.2722 145C52.0042 144.58 52.8262 144.37 53.7382 144.37C54.6622 144.37 55.4782 144.574 56.1862 144.982C56.8942 145.39 57.4462 145.966 57.8422 146.71C58.2502 147.442 58.4542 148.3 58.4542 149.284C58.4542 149.356 58.4482 149.44 58.4362 149.536C58.4362 149.632 58.4302 149.722 58.4182 149.806H50.3002V148.564H57.5182L56.8162 148.996C56.8282 148.384 56.7022 147.838 56.4382 147.358C56.1742 146.878 55.8082 146.506 55.3402 146.242C54.8842 145.966 54.3502 145.828 53.7382 145.828C53.1382 145.828 52.6042 145.966 52.1362 146.242C51.6682 146.506 51.3022 146.884 51.0382 147.376C50.7742 147.856 50.6422 148.408 50.6422 149.032V149.32C50.6422 149.956 50.7862 150.526 51.0742 151.03C51.3742 151.522 51.7882 151.906 52.3162 152.182C52.8442 152.458 53.4502 152.596 54.1342 152.596C54.6982 152.596 55.2082 152.5 55.6642 152.308C56.1322 152.116 56.5402 151.828 56.8882 151.444L57.8422 152.56C57.4102 153.064 56.8702 153.448 56.2222 153.712C55.5862 153.976 54.8722 154.108 54.0802 154.108ZM61.1349 154V144.46H65.5629C66.6789 144.46 67.5549 144.676 68.1909 145.108C68.8389 145.528 69.1629 146.128 69.1629 146.908C69.1629 147.688 68.8569 148.294 68.2449 148.726C67.6449 149.146 66.8469 149.356 65.8509 149.356L66.1209 148.888C67.2609 148.888 68.1069 149.098 68.6589 149.518C69.2109 149.938 69.4869 150.556 69.4869 151.372C69.4869 152.2 69.1749 152.848 68.5509 153.316C67.9389 153.772 66.9969 154 65.7249 154H61.1349ZM62.8269 152.668H65.5989C66.3189 152.668 66.8589 152.56 67.2189 152.344C67.5789 152.116 67.7589 151.756 67.7589 151.264C67.7589 150.76 67.5909 150.394 67.2549 150.166C66.9309 149.926 66.4149 149.806 65.7069 149.806H62.8269V152.668ZM62.8269 148.564H65.4189C66.0789 148.564 66.5769 148.444 66.9129 148.204C67.2609 147.952 67.4349 147.604 67.4349 147.16C67.4349 146.704 67.2609 146.362 66.9129 146.134C66.5769 145.906 66.0789 145.792 65.4189 145.792H62.8269V148.564ZM78.0416 154V151.984L77.9516 151.606V148.168C77.9516 147.436 77.7356 146.872 77.3036 146.476C76.8836 146.068 76.2476 145.864 75.3956 145.864C74.8316 145.864 74.2796 145.96 73.7396 146.152C73.1996 146.332 72.7436 146.578 72.3716 146.89L71.6516 145.594C72.1436 145.198 72.7316 144.898 73.4156 144.694C74.1116 144.478 74.8376 144.37 75.5936 144.37C76.9016 144.37 77.9096 144.688 78.6176 145.324C79.3256 145.96 79.6796 146.932 79.6796 148.24V154H78.0416ZM74.9096 154.108C74.2016 154.108 73.5776 153.988 73.0376 153.748C72.5096 153.508 72.1016 153.178 71.8136 152.758C71.5256 152.326 71.3816 151.84 71.3816 151.3C71.3816 150.784 71.5016 150.316 71.7416 149.896C71.9936 149.476 72.3956 149.14 72.9476 148.888C73.5116 148.636 74.2676 148.51 75.2156 148.51H78.2396V149.752H75.2876C74.4236 149.752 73.8416 149.896 73.5416 150.184C73.2416 150.472 73.0916 150.82 73.0916 151.228C73.0916 151.696 73.2776 152.074 73.6496 152.362C74.0216 152.638 74.5376 152.776 75.1976 152.776C75.8456 152.776 76.4096 152.632 76.8896 152.344C77.3816 152.056 77.7356 151.636 77.9516 151.084L78.2936 152.272C78.0656 152.836 77.6636 153.286 77.0876 153.622C76.5116 153.946 75.7856 154.108 74.9096 154.108ZM88.8932 154V150.652L89.1632 150.976H86.1212C84.8492 150.976 83.8532 150.706 83.1332 150.166C82.4252 149.626 82.0712 148.84 82.0712 147.808C82.0712 146.704 82.4492 145.87 83.2052 145.306C83.9732 144.742 84.9932 144.46 86.2652 144.46H90.4412V154H88.8932ZM81.9812 154L84.5732 150.346H86.3552L83.8352 154H81.9812ZM88.8932 150.112V145.486L89.1632 145.972H86.3192C85.5272 145.972 84.9152 146.122 84.4832 146.422C84.0512 146.71 83.8352 147.19 83.8352 147.862C83.8352 149.11 84.6392 149.734 86.2472 149.734H89.1632L88.8932 150.112Z" fill="#6B360D"/>
</g>
<g clip-path="url(#clip3_1401_51479)">
<rect width="108" height="60" transform="translate(188 104)" fill="white"/>
<rect opacity="0.5" x="188.5" y="104.5" width="107" height="59" rx="1.5" stroke="#6B360D"/>
<path opacity="0.75" d="M208.2 114.6H213.66V115.572H209.328V117.96H211.2C211.752 117.96 212.232 118.02 212.64 118.14C213.048 118.26 213.384 118.432 213.648 118.656C213.92 118.88 214.12 119.148 214.248 119.46C214.376 119.764 214.44 120.104 214.44 120.48C214.44 120.856 214.376 121.2 214.248 121.512C214.12 121.816 213.92 122.08 213.648 122.304C213.384 122.528 213.048 122.7 212.64 122.82C212.232 122.94 211.752 123 211.2 123H208.2V114.6ZM211.14 122.016C211.94 122.016 212.5 121.884 212.82 121.62C213.148 121.348 213.312 120.968 213.312 120.48C213.312 119.992 213.148 119.616 212.82 119.352C212.5 119.08 211.94 118.944 211.14 118.944H209.328V122.016H211.14ZM218.58 123.12C218.172 123.12 217.784 123.056 217.416 122.928C217.048 122.792 216.724 122.592 216.444 122.328C216.164 122.056 215.94 121.716 215.772 121.308C215.604 120.9 215.52 120.424 215.52 119.88V119.64C215.52 119.128 215.604 118.676 215.772 118.284C215.94 117.892 216.164 117.568 216.444 117.312C216.724 117.048 217.048 116.852 217.416 116.724C217.784 116.588 218.172 116.52 218.58 116.52C218.988 116.52 219.376 116.588 219.744 116.724C220.112 116.852 220.436 117.048 220.716 117.312C220.996 117.568 221.22 117.892 221.388 118.284C221.556 118.676 221.64 119.128 221.64 119.64V119.88C221.64 120.424 221.556 120.9 221.388 121.308C221.22 121.716 220.996 122.056 220.716 122.328C220.436 122.592 220.112 122.792 219.744 122.928C219.376 123.056 218.988 123.12 218.58 123.12ZM218.58 122.16C218.82 122.16 219.06 122.12 219.3 122.04C219.54 121.952 219.752 121.82 219.936 121.644C220.12 121.46 220.268 121.224 220.38 120.936C220.5 120.648 220.56 120.296 220.56 119.88V119.64C220.56 119.256 220.5 118.928 220.38 118.656C220.268 118.384 220.12 118.16 219.936 117.984C219.752 117.808 219.54 117.68 219.3 117.6C219.06 117.52 218.82 117.48 218.58 117.48C218.34 117.48 218.1 117.52 217.86 117.6C217.62 117.68 217.408 117.808 217.224 117.984C217.04 118.16 216.888 118.384 216.768 118.656C216.656 118.928 216.6 119.256 216.6 119.64V119.88C216.6 120.296 216.656 120.648 216.768 120.936C216.888 121.224 217.04 121.46 217.224 121.644C217.408 121.82 217.62 121.952 217.86 122.04C218.1 122.12 218.34 122.16 218.58 122.16ZM223.136 116.64H224.192V119.292H225.092C225.124 118.836 225.224 118.436 225.392 118.092C225.56 117.74 225.772 117.448 226.028 117.216C226.292 116.984 226.592 116.812 226.928 116.7C227.264 116.58 227.62 116.52 227.996 116.52C228.404 116.52 228.784 116.588 229.136 116.724C229.496 116.852 229.808 117.048 230.072 117.312C230.336 117.568 230.544 117.892 230.696 118.284C230.856 118.676 230.936 119.128 230.936 119.64V119.88C230.936 120.424 230.856 120.9 230.696 121.308C230.544 121.716 230.336 122.056 230.072 122.328C229.808 122.592 229.496 122.792 229.136 122.928C228.784 123.056 228.404 123.12 227.996 123.12C227.62 123.12 227.26 123.064 226.916 122.952C226.58 122.832 226.28 122.652 226.016 122.412C225.76 122.172 225.548 121.872 225.38 121.512C225.22 121.144 225.124 120.716 225.092 120.228H224.192V123H223.136V116.64ZM227.996 122.16C228.236 122.16 228.468 122.12 228.692 122.04C228.916 121.952 229.112 121.82 229.28 121.644C229.456 121.46 229.596 121.224 229.7 120.936C229.804 120.648 229.856 120.296 229.856 119.88V119.64C229.856 119.256 229.804 118.928 229.7 118.656C229.596 118.384 229.456 118.16 229.28 117.984C229.112 117.808 228.916 117.68 228.692 117.6C228.468 117.52 228.236 117.48 227.996 117.48C227.756 117.48 227.524 117.52 227.3 117.6C227.076 117.68 226.876 117.808 226.7 117.984C226.532 118.16 226.396 118.384 226.292 118.656C226.188 118.928 226.136 119.256 226.136 119.64V119.88C226.136 120.296 226.188 120.648 226.292 120.936C226.396 121.224 226.532 121.46 226.7 121.644C226.876 121.82 227.076 121.952 227.3 122.04C227.524 122.12 227.756 122.16 227.996 122.16ZM234.9 123.12C234.492 123.12 234.112 123.056 233.76 122.928C233.408 122.792 233.104 122.592 232.848 122.328C232.592 122.056 232.388 121.716 232.236 121.308C232.092 120.9 232.02 120.424 232.02 119.88V119.64C232.02 119.128 232.1 118.676 232.26 118.284C232.42 117.892 232.632 117.568 232.896 117.312C233.16 117.048 233.464 116.852 233.808 116.724C234.16 116.588 234.524 116.52 234.9 116.52C235.276 116.52 235.612 116.572 235.908 116.676C236.212 116.78 236.472 116.924 236.688 117.108C236.912 117.292 237.092 117.508 237.228 117.756C237.372 118.004 237.476 118.272 237.54 118.56H236.46C236.396 118.408 236.32 118.268 236.232 118.14C236.152 118.004 236.048 117.888 235.92 117.792C235.8 117.696 235.656 117.62 235.488 117.564C235.32 117.508 235.124 117.48 234.9 117.48C234.668 117.48 234.444 117.524 234.228 117.612C234.012 117.692 233.82 117.82 233.652 117.996C233.484 118.164 233.348 118.384 233.244 118.656C233.148 118.928 233.1 119.256 233.1 119.64V119.88C233.1 120.288 233.148 120.64 233.244 120.936C233.348 121.224 233.484 121.46 233.652 121.644C233.82 121.82 234.012 121.952 234.228 122.04C234.444 122.12 234.668 122.16 234.9 122.16C235.292 122.16 235.62 122.064 235.884 121.872C236.156 121.68 236.348 121.416 236.46 121.08H237.54C237.388 121.712 237.076 122.212 236.604 122.58C236.132 122.94 235.564 123.12 234.9 123.12ZM238.98 116.64H240.036V119.04H241.56C242.36 119.04 242.948 119.216 243.324 119.568C243.708 119.92 243.9 120.408 243.9 121.032C243.9 121.64 243.708 122.12 243.324 122.472C242.948 122.824 242.36 123 241.56 123H238.98V116.64ZM241.5 122.064C241.996 122.064 242.344 121.976 242.544 121.8C242.744 121.624 242.844 121.364 242.844 121.02C242.844 120.676 242.744 120.416 242.544 120.24C242.344 120.064 241.996 119.976 241.5 119.976H240.036V122.064H241.5Z" fill="#6B360D"/>
<g opacity="0.75">
<path d="M282 114C281.724 114 281.5 114.224 281.5 114.5V117.5H278.5C278.224 117.5 278 117.724 278 118C278 118.276 278.224 118.5 278.5 118.5H281.5V121.5C281.5 121.776 281.724 122 282 122C282.276 122 282.5 121.776 282.5 121.5V118.5H285.5C285.776 118.5 286 118.276 286 118C286 117.724 285.776 117.5 285.5 117.5H282.5V114.5C282.5 114.224 282.276 114 282 114Z" fill="#6B360D"/>
<path d="M284.828 115.172C284.633 114.976 284.317 114.976 284.121 115.172L283 116.293C282.805 116.488 282.805 116.805 283 117C283.195 117.195 283.512 117.195 283.707 117L284.828 115.879C285.024 115.683 285.024 115.367 284.828 115.172Z" fill="#6B360D"/>
<path d="M284.121 120.829C284.317 121.024 284.633 121.024 284.828 120.829C285.024 120.633 285.024 120.317 284.828 120.121L283.707 119C283.512 118.805 283.195 118.805 283 119C282.805 119.195 282.805 119.512 283 119.707L284.121 120.829Z" fill="#6B360D"/>
<path d="M281.016 116.309C281.211 116.504 281.211 116.82 281.016 117.016C280.82 117.211 280.504 117.211 280.309 117.016L279.172 115.879C278.976 115.683 278.976 115.367 279.172 115.172C279.367 114.976 279.683 114.976 279.879 115.172L281.016 116.309Z" fill="#6B360D"/>
<path d="M281.016 118.985C281.211 119.18 281.211 119.496 281.016 119.692L279.879 120.829C279.683 121.024 279.367 121.024 279.172 120.829C278.976 120.633 278.976 120.317 279.172 120.121L280.309 118.985C280.504 118.789 280.82 118.789 281.016 118.985Z" fill="#6B360D"/>
</g>
<path opacity="0.75" d="M282.036 149.26C282.796 149.26 283.392 149.452 283.824 149.836C284.256 150.22 284.472 150.752 284.472 151.432V151.828C284.472 152.54 284.24 153.104 283.776 153.52C283.32 153.928 282.696 154.132 281.904 154.132C281.112 154.132 280.484 153.94 280.02 153.556C279.556 153.172 279.324 152.648 279.324 151.984V151.756H280.176V151.984C280.176 152.408 280.332 152.74 280.644 152.98C280.956 153.22 281.376 153.34 281.904 153.34C282.432 153.34 282.848 153.208 283.152 152.944C283.456 152.68 283.608 152.312 283.608 151.84V151.456C283.608 151 283.452 150.644 283.14 150.388C282.836 150.132 282.408 150.004 281.856 150.004H280.872V149.32L283.32 146.908H279.456V146.128H284.436V146.908L282.036 149.26Z" fill="#6B360D"/>
<path d="M197.962 154V141.4H202.876C203.98 141.4 204.922 141.574 205.702 141.922C206.482 142.27 207.082 142.774 207.502 143.434C207.922 144.094 208.132 144.88 208.132 145.792C208.132 146.704 207.922 147.49 207.502 148.15C207.082 148.798 206.482 149.302 205.702 149.662C204.922 150.01 203.98 150.184 202.876 150.184H198.952L199.762 149.338V154H197.962ZM199.762 149.518L198.952 148.618H202.822C203.974 148.618 204.844 148.372 205.432 147.88C206.032 147.388 206.332 146.692 206.332 145.792C206.332 144.892 206.032 144.196 205.432 143.704C204.844 143.212 203.974 142.966 202.822 142.966H198.952L199.762 142.066V149.518ZM214.399 154.108C213.439 154.108 212.587 153.898 211.843 153.478C211.099 153.058 210.511 152.482 210.079 151.75C209.647 151.006 209.431 150.166 209.431 149.23C209.431 148.282 209.647 147.442 210.079 146.71C210.511 145.978 211.099 145.408 211.843 145C212.587 144.58 213.439 144.37 214.399 144.37C215.347 144.37 216.193 144.58 216.937 145C217.693 145.408 218.281 145.978 218.701 146.71C219.133 147.43 219.349 148.27 219.349 149.23C219.349 150.178 219.133 151.018 218.701 151.75C218.281 152.482 217.693 153.058 216.937 153.478C216.193 153.898 215.347 154.108 214.399 154.108ZM214.399 152.596C215.011 152.596 215.557 152.458 216.037 152.182C216.529 151.906 216.913 151.516 217.189 151.012C217.465 150.496 217.603 149.902 217.603 149.23C217.603 148.546 217.465 147.958 217.189 147.466C216.913 146.962 216.529 146.572 216.037 146.296C215.557 146.02 215.011 145.882 214.399 145.882C213.787 145.882 213.241 146.02 212.761 146.296C212.281 146.572 211.897 146.962 211.609 147.466C211.321 147.958 211.177 148.546 211.177 149.23C211.177 149.902 211.321 150.496 211.609 151.012C211.897 151.516 212.281 151.906 212.761 152.182C213.241 152.458 213.787 152.596 214.399 152.596ZM220.19 153.982L220.298 152.524C220.382 152.536 220.46 152.548 220.532 152.56C220.604 152.572 220.67 152.578 220.73 152.578C221.114 152.578 221.414 152.446 221.63 152.182C221.858 151.918 222.026 151.57 222.134 151.138C222.242 150.694 222.32 150.196 222.368 149.644C222.416 149.092 222.452 148.54 222.476 147.988L222.638 144.46H229.964V154H228.236V145.468L228.65 145.972H223.754L224.15 145.45L224.024 148.096C223.988 148.936 223.922 149.722 223.826 150.454C223.73 151.186 223.58 151.828 223.376 152.38C223.184 152.932 222.914 153.364 222.566 153.676C222.23 153.988 221.792 154.144 221.252 154.144C221.096 154.144 220.928 154.126 220.748 154.09C220.58 154.066 220.394 154.03 220.19 153.982ZM237.553 154.108C236.533 154.108 235.633 153.898 234.853 153.478C234.085 153.058 233.485 152.482 233.053 151.75C232.633 151.018 232.423 150.178 232.423 149.23C232.423 148.282 232.627 147.442 233.035 146.71C233.455 145.978 234.025 145.408 234.745 145C235.477 144.58 236.299 144.37 237.211 144.37C238.135 144.37 238.951 144.574 239.659 144.982C240.367 145.39 240.919 145.966 241.315 146.71C241.723 147.442 241.927 148.3 241.927 149.284C241.927 149.356 241.921 149.44 241.909 149.536C241.909 149.632 241.903 149.722 241.891 149.806H233.773V148.564H240.991L240.289 148.996C240.301 148.384 240.175 147.838 239.911 147.358C239.647 146.878 239.281 146.506 238.813 146.242C238.357 145.966 237.823 145.828 237.211 145.828C236.611 145.828 236.077 145.966 235.609 146.242C235.141 146.506 234.775 146.884 234.511 147.376C234.247 147.856 234.115 148.408 234.115 149.032V149.32C234.115 149.956 234.259 150.526 234.547 151.03C234.847 151.522 235.261 151.906 235.789 152.182C236.317 152.458 236.923 152.596 237.607 152.596C238.171 152.596 238.681 152.5 239.137 152.308C239.605 152.116 240.013 151.828 240.361 151.444L241.315 152.56C240.883 153.064 240.343 153.448 239.695 153.712C239.059 153.976 238.345 154.108 237.553 154.108ZM244.608 154V144.46H249.036C250.152 144.46 251.028 144.676 251.664 145.108C252.312 145.528 252.636 146.128 252.636 146.908C252.636 147.688 252.33 148.294 251.718 148.726C251.118 149.146 250.32 149.356 249.324 149.356L249.594 148.888C250.734 148.888 251.58 149.098 252.132 149.518C252.684 149.938 252.96 150.556 252.96 151.372C252.96 152.2 252.648 152.848 252.024 153.316C251.412 153.772 250.47 154 249.198 154H244.608ZM246.3 152.668H249.072C249.792 152.668 250.332 152.56 250.692 152.344C251.052 152.116 251.232 151.756 251.232 151.264C251.232 150.76 251.064 150.394 250.728 150.166C250.404 149.926 249.888 149.806 249.18 149.806H246.3V152.668ZM246.3 148.564H248.892C249.552 148.564 250.05 148.444 250.386 148.204C250.734 147.952 250.908 147.604 250.908 147.16C250.908 146.704 250.734 146.362 250.386 146.134C250.05 145.906 249.552 145.792 248.892 145.792H246.3V148.564ZM261.514 154V151.984L261.424 151.606V148.168C261.424 147.436 261.208 146.872 260.776 146.476C260.356 146.068 259.72 145.864 258.868 145.864C258.304 145.864 257.752 145.96 257.212 146.152C256.672 146.332 256.216 146.578 255.844 146.89L255.124 145.594C255.616 145.198 256.204 144.898 256.888 144.694C257.584 144.478 258.31 144.37 259.066 144.37C260.374 144.37 261.382 144.688 262.09 145.324C262.798 145.96 263.152 146.932 263.152 148.24V154H261.514ZM258.382 154.108C257.674 154.108 257.05 153.988 256.51 153.748C255.982 153.508 255.574 153.178 255.286 152.758C254.998 152.326 254.854 151.84 254.854 151.3C254.854 150.784 254.974 150.316 255.214 149.896C255.466 149.476 255.868 149.14 256.42 148.888C256.984 148.636 257.74 148.51 258.688 148.51H261.712V149.752H258.76C257.896 149.752 257.314 149.896 257.014 150.184C256.714 150.472 256.564 150.82 256.564 151.228C256.564 151.696 256.75 152.074 257.122 152.362C257.494 152.638 258.01 152.776 258.67 152.776C259.318 152.776 259.882 152.632 260.362 152.344C260.854 152.056 261.208 151.636 261.424 151.084L261.766 152.272C261.538 152.836 261.136 153.286 260.56 153.622C259.984 153.946 259.258 154.108 258.382 154.108ZM272.366 154V150.652L272.636 150.976H269.594C268.322 150.976 267.326 150.706 266.606 150.166C265.898 149.626 265.544 148.84 265.544 147.808C265.544 146.704 265.922 145.87 266.678 145.306C267.446 144.742 268.466 144.46 269.738 144.46H273.914V154H272.366ZM265.454 154L268.046 150.346H269.828L267.308 154H265.454ZM272.366 150.112V145.486L272.636 145.972H269.792C269 145.972 268.388 146.122 267.956 146.422C267.524 146.71 267.308 147.19 267.308 147.862C267.308 149.11 268.112 149.734 269.72 149.734H272.636L272.366 150.112Z" fill="#6B360D"/>
<g opacity="0.75">
<rect width="2" height="4" transform="matrix(-1 0 0 1 203 118)" fill="#6B360D"/>
<rect width="2" height="2" transform="matrix(-1 0 0 1 199 120)" fill="#6B360D"/>
</g>
</g>
<defs>
<linearGradient id="paint0_linear_1401_51479" x1="150" y1="0" x2="150" y2="48" gradientUnits="userSpaceOnUse">
<stop stop-color="white"/>
<stop offset="1" stop-color="white" stop-opacity="0"/>
</linearGradient>
<linearGradient id="paint1_linear_1401_51479" x1="150" y1="168" x2="150" y2="144" gradientUnits="userSpaceOnUse">
<stop stop-color="white"/>
<stop offset="1" stop-color="white" stop-opacity="0"/>
</linearGradient>
<clipPath id="clip0_1401_51479">
<rect width="144" height="96" fill="white" transform="translate(4 4)"/>
</clipPath>
<clipPath id="clip1_1401_51479">
<rect width="144" height="96" fill="white" transform="translate(152 4.00049)"/>
</clipPath>
<clipPath id="clip2_1401_51479">
<rect width="180" height="60" fill="white" transform="translate(4 104)"/>
</clipPath>
<clipPath id="clip3_1401_51479">
<rect width="108" height="60" fill="white" transform="translate(188 104)"/>
</clipPath>
</defs>
</svg>
