<svg width="300" height="168" viewBox="0 0 300 168" fill="none" xmlns="http://www.w3.org/2000/svg">
<g opacity="0.75">
<mask id="mask0_1401_51479" style="mask-type:alpha" maskUnits="userSpaceOnUse" x="0" y="0" width="300" height="48">
<path d="M0 2C0 0.895431 0.895431 0 2 0H298C299.105 0 300 0.895431 300 2V46C300 47.1046 299.105 48 298 48H2C0.895429 48 0 47.1046 0 46V2Z" fill="url(#paint0_linear_1401_51479)"/>
</mask>
<g mask="url(#mask0_1401_51479)">
<path d="M2 0.5H298C298.828 0.5 299.5 1.17157 299.5 2V46C299.5 46.8284 298.828 47.5 298 47.5H2C1.17157 47.5 0.5 46.8284 0.5 46V2C0.5 1.17157 1.17157 0.5 2 0.5Z" stroke="#6B360D"/>
</g>
</g>
<g clip-path="url(#clip0_1401_51479)">
<rect x="4" y="4" width="144" height="96" rx="2" fill="#6B360D"/>
<path opacity="0.05" d="M4 72L148 45.2531V25.751L4 52.4979V72Z" fill="white"/>
<path opacity="0.1" d="M4 47.6226L148 20.8756V16.0001L4 42.747V47.6226Z" fill="white"/>
<path opacity="0.75" d="M35.456 18.632L32.48 14.6H33.728L36.356 18.212H37.196V14.6H38.324V18.212H39.164L41.816 14.6H43.04L40.064 18.596L43.16 23H41.84L39.164 19.148H38.324V23H37.196V19.148H36.356L33.656 23H32.36L35.456 18.632ZM44.4795 16.64H45.5355V21.44L48.8235 16.64H49.8795V23H48.8235V18.2L45.5355 23H44.4795V16.64ZM51.8038 16.64H54.5638C55.3478 16.64 55.9238 16.804 56.2918 17.132C56.6598 17.452 56.8438 17.868 56.8438 18.38C56.8438 18.516 56.8198 18.656 56.7718 18.8C56.7238 18.936 56.6558 19.064 56.5678 19.184C56.4878 19.304 56.3878 19.408 56.2678 19.496C56.1558 19.584 56.0278 19.652 55.8838 19.7C56.2758 19.796 56.5718 19.98 56.7718 20.252C56.9798 20.516 57.0838 20.828 57.0838 21.188C57.0838 21.74 56.8998 22.18 56.5318 22.508C56.1638 22.836 55.5878 23 54.8038 23H51.8038V16.64ZM54.8038 22.064C55.2518 22.064 55.5678 21.984 55.7518 21.824C55.9358 21.664 56.0278 21.436 56.0278 21.14C56.0278 20.836 55.9358 20.604 55.7518 20.444C55.5678 20.276 55.2518 20.192 54.8038 20.192H52.8598V22.064H54.8038ZM54.5638 19.328C55.0198 19.328 55.3358 19.248 55.5118 19.088C55.6958 18.928 55.7878 18.708 55.7878 18.428C55.7878 18.164 55.6958 17.956 55.5118 17.804C55.3358 17.652 55.0198 17.576 54.5638 17.576H52.8598V19.328H54.5638ZM59.1945 25.52C59.0745 25.52 58.9545 25.508 58.8345 25.484V24.524C58.9545 24.548 59.0745 24.56 59.1945 24.56C59.3145 24.56 59.4185 24.54 59.5065 24.5C59.5945 24.46 59.6785 24.384 59.7585 24.272C59.8385 24.16 59.9225 24 60.0105 23.792C60.1065 23.592 60.2145 23.328 60.3345 23L57.6345 16.64H58.8105L60.8745 21.8L62.7465 16.64H63.8745L61.4745 23C61.3065 23.448 61.1465 23.832 60.9945 24.152C60.8425 24.472 60.6785 24.732 60.5025 24.932C60.3345 25.14 60.1465 25.288 59.9385 25.376C59.7305 25.472 59.4825 25.52 59.1945 25.52Z" fill="white"/>
<g opacity="0.75">
<rect width="2" height="8" transform="matrix(-1 0 0 1 27 14)" fill="white"/>
<rect width="2" height="6" transform="matrix(-1 0 0 1 23 16)" fill="white"/>
<rect width="2" height="4" transform="matrix(-1 0 0 1 19 18)" fill="white"/>
<rect width="2" height="2" transform="matrix(-1 0 0 1 15 20)" fill="white"/>
</g>
<path opacity="0.5" d="M135.032 90H134.168V83.628C133.872 83.788 133.492 83.868 133.028 83.868H132.104V83.076H132.992C133.376 83.076 133.668 82.996 133.868 82.836C134.068 82.668 134.168 82.432 134.168 82.128H135.032V90Z" fill="white"/>
<g opacity="0.75">
<path d="M134 13C133.724 13 133.5 13.2239 133.5 13.5V17.5H129.5C129.224 17.5 129 17.7239 129 18C129 18.2761 129.224 18.5 129.5 18.5H133.5V22.5C133.5 22.7761 133.724 23 134 23C134.276 23 134.5 22.7761 134.5 22.5V18.5H138.5C138.776 18.5 139 18.2761 139 18C139 17.7239 138.776 17.5 138.5 17.5H134.5V13.5C134.5 13.2239 134.276 13 134 13Z" fill="white"/>
</g>
<path d="M13.962 90V77.4H23.466V78.93H15.744V82.53H19.668C21.168 82.53 22.308 82.842 23.088 83.466C23.868 84.09 24.258 84.996 24.258 86.184C24.258 87.408 23.832 88.35 22.98 89.01C22.14 89.67 20.934 90 19.362 90H13.962ZM15.744 88.578H19.29C20.334 88.578 21.12 88.38 21.648 87.984C22.188 87.588 22.458 87 22.458 86.22C22.458 84.708 21.402 83.952 19.29 83.952H15.744V88.578ZM32.69 90V87.984L32.6 87.606V84.168C32.6 83.436 32.384 82.872 31.952 82.476C31.532 82.068 30.896 81.864 30.044 81.864C29.48 81.864 28.928 81.96 28.388 82.152C27.848 82.332 27.392 82.578 27.02 82.89L26.3 81.594C26.792 81.198 27.38 80.898 28.064 80.694C28.76 80.478 29.486 80.37 30.242 80.37C31.55 80.37 32.558 80.688 33.266 81.324C33.974 81.96 34.328 82.932 34.328 84.24V90H32.69ZM29.558 90.108C28.85 90.108 28.226 89.988 27.686 89.748C27.158 89.508 26.75 89.178 26.462 88.758C26.174 88.326 26.03 87.84 26.03 87.3C26.03 86.784 26.15 86.316 26.39 85.896C26.642 85.476 27.044 85.14 27.596 84.888C28.16 84.636 28.916 84.51 29.864 84.51H32.888V85.752H29.936C29.072 85.752 28.49 85.896 28.19 86.184C27.89 86.472 27.74 86.82 27.74 87.228C27.74 87.696 27.926 88.074 28.298 88.362C28.67 88.638 29.186 88.776 29.846 88.776C30.494 88.776 31.058 88.632 31.538 88.344C32.03 88.056 32.384 87.636 32.6 87.084L32.942 88.272C32.714 88.836 32.312 89.286 31.736 89.622C31.16 89.946 30.434 90.108 29.558 90.108ZM40.0714 90.126C40.9114 90.126 41.6554 90.006 42.3034 89.766C42.9634 89.514 43.4854 89.172 43.8694 88.74C44.2534 88.296 44.4454 87.786 44.4454 87.21C44.4454 86.49 44.1394 85.92 43.5274 85.5C42.9154 85.08 42.0754 84.87 41.0074 84.87L40.9354 85.284C41.5594 85.284 42.1114 85.182 42.5914 84.978C43.0714 84.774 43.4554 84.498 43.7434 84.15C44.0314 83.79 44.1754 83.382 44.1754 82.926C44.1754 82.386 43.9834 81.918 43.5994 81.522C43.2274 81.126 42.7174 80.826 42.0694 80.622C41.4214 80.406 40.6834 80.31 39.8554 80.334C39.3034 80.346 38.7454 80.43 38.1814 80.586C37.6294 80.73 37.0654 80.94 36.4894 81.216L36.9574 82.566C37.4734 82.314 37.9774 82.128 38.4694 82.008C38.9734 81.888 39.4654 81.822 39.9454 81.81C40.4374 81.81 40.8634 81.864 41.2234 81.972C41.5954 82.08 41.8834 82.236 42.0874 82.44C42.2914 82.644 42.3934 82.89 42.3934 83.178C42.3934 83.442 42.3034 83.676 42.1234 83.88C41.9554 84.072 41.7154 84.216 41.4034 84.312C41.0914 84.408 40.7254 84.456 40.3054 84.456H38.6854V85.698H40.4134C41.1214 85.698 41.6734 85.818 42.0694 86.058C42.4654 86.298 42.6634 86.64 42.6634 87.084C42.6634 87.396 42.5554 87.672 42.3394 87.912C42.1234 88.14 41.8114 88.32 41.4034 88.452C41.0074 88.584 40.5334 88.65 39.9814 88.65C39.3814 88.65 38.7874 88.572 38.1994 88.416C37.6114 88.248 37.0894 88.02 36.6334 87.732L36.1114 89.046C36.6514 89.394 37.2634 89.664 37.9474 89.856C38.6434 90.036 39.3514 90.126 40.0714 90.126ZM51.1584 90.108C50.1984 90.108 49.3464 89.898 48.6024 89.478C47.8584 89.058 47.2704 88.482 46.8384 87.75C46.4064 87.006 46.1904 86.166 46.1904 85.23C46.1904 84.282 46.4064 83.442 46.8384 82.71C47.2704 81.978 47.8584 81.408 48.6024 81C49.3464 80.58 50.1984 80.37 51.1584 80.37C52.1064 80.37 52.9524 80.58 53.6964 81C54.4524 81.408 55.0404 81.978 55.4604 82.71C55.8924 83.43 56.1084 84.27 56.1084 85.23C56.1084 86.178 55.8924 87.018 55.4604 87.75C55.0404 88.482 54.4524 89.058 53.6964 89.478C52.9524 89.898 52.1064 90.108 51.1584 90.108ZM51.1584 88.596C51.7704 88.596 52.3164 88.458 52.7964 88.182C53.2884 87.906 53.6724 87.516 53.9484 87.012C54.2244 86.496 54.3624 85.902 54.3624 85.23C54.3624 84.546 54.2244 83.958 53.9484 83.466C53.6724 82.962 53.2884 82.572 52.7964 82.296C52.3164 82.02 51.7704 81.882 51.1584 81.882C50.5464 81.882 50.0004 82.02 49.5204 82.296C49.0404 82.572 48.6564 82.962 48.3684 83.466C48.0804 83.958 47.9364 84.546 47.9364 85.23C47.9364 85.902 48.0804 86.496 48.3684 87.012C48.6564 87.516 49.0404 87.906 49.5204 88.182C50.0004 88.458 50.5464 88.596 51.1584 88.596ZM58.6037 90V80.46H63.0317C64.1477 80.46 65.0237 80.676 65.6597 81.108C66.3077 81.528 66.6317 82.128 66.6317 82.908C66.6317 83.688 66.3257 84.294 65.7137 84.726C65.1137 85.146 64.3157 85.356 63.3197 85.356L63.5897 84.888C64.7297 84.888 65.5757 85.098 66.1277 85.518C66.6797 85.938 66.9557 86.556 66.9557 87.372C66.9557 88.2 66.6437 88.848 66.0197 89.316C65.4077 89.772 64.4657 90 63.1937 90H58.6037ZM60.2957 88.668H63.0677C63.7877 88.668 64.3277 88.56 64.6877 88.344C65.0477 88.116 65.2277 87.756 65.2277 87.264C65.2277 86.76 65.0597 86.394 64.7237 86.166C64.3997 85.926 63.8837 85.806 63.1757 85.806H60.2957V88.668ZM60.2957 84.564H62.8877C63.5477 84.564 64.0457 84.444 64.3817 84.204C64.7297 83.952 64.9037 83.604 64.9037 83.16C64.9037 82.704 64.7297 82.362 64.3817 82.134C64.0457 81.906 63.5477 81.792 62.8877 81.792H60.2957V84.564ZM75.5103 90V87.984L75.4203 87.606V84.168C75.4203 83.436 75.2043 82.872 74.7723 82.476C74.3523 82.068 73.7163 81.864 72.8643 81.864C72.3003 81.864 71.7483 81.96 71.2083 82.152C70.6683 82.332 70.2123 82.578 69.8403 82.89L69.1203 81.594C69.6123 81.198 70.2003 80.898 70.8843 80.694C71.5803 80.478 72.3063 80.37 73.0623 80.37C74.3703 80.37 75.3783 80.688 76.0863 81.324C76.7943 81.96 77.1483 82.932 77.1483 84.24V90H75.5103ZM72.3783 90.108C71.6703 90.108 71.0463 89.988 70.5063 89.748C69.9783 89.508 69.5703 89.178 69.2823 88.758C68.9943 88.326 68.8503 87.84 68.8503 87.3C68.8503 86.784 68.9703 86.316 69.2103 85.896C69.4623 85.476 69.8643 85.14 70.4163 84.888C70.9803 84.636 71.7363 84.51 72.6843 84.51H75.7083V85.752H72.7563C71.8923 85.752 71.3103 85.896 71.0103 86.184C70.7103 86.472 70.5603 86.82 70.5603 87.228C70.5603 87.696 70.7463 88.074 71.1183 88.362C71.4903 88.638 72.0063 88.776 72.6663 88.776C73.3143 88.776 73.8783 88.632 74.3583 88.344C74.8503 88.056 75.2043 87.636 75.4203 87.084L75.7623 88.272C75.5343 88.836 75.1323 89.286 74.5563 89.622C73.9803 89.946 73.2543 90.108 72.3783 90.108ZM86.3619 90V86.652L86.6319 86.976H83.5899C82.3179 86.976 81.3219 86.706 80.6019 86.166C79.8939 85.626 79.5399 84.84 79.5399 83.808C79.5399 82.704 79.9179 81.87 80.6739 81.306C81.4419 80.742 82.4619 80.46 83.7339 80.46H87.9099V90H86.3619ZM79.4499 90L82.0419 86.346H83.8239L81.3039 90H79.4499ZM86.3619 86.112V81.486L86.6319 81.972H83.7879C82.9959 81.972 82.3839 82.122 81.9519 82.422C81.5199 82.71 81.3039 83.19 81.3039 83.862C81.3039 85.11 82.1079 85.734 83.7159 85.734H86.6319L86.3619 86.112Z" fill="white"/>
</g>
<g clip-path="url(#clip1_1401_51479)">
<rect x="152" y="4.00049" width="144" height="96" rx="2" fill="#6B360D"/>
<path opacity="0.75" d="M177.156 15.5845H174.24V14.6005H181.2V15.5845H178.284V23.0005H177.156V15.5845ZM181.323 16.6405H184.083C184.867 16.6405 185.443 16.8045 185.811 17.1325C186.179 17.4525 186.363 17.8685 186.363 18.3805C186.363 18.5165 186.339 18.6565 186.291 18.8005C186.243 18.9365 186.175 19.0645 186.087 19.1845C186.007 19.3045 185.907 19.4085 185.787 19.4965C185.675 19.5845 185.547 19.6525 185.403 19.7005C185.795 19.7965 186.091 19.9805 186.291 20.2525C186.499 20.5165 186.603 20.8285 186.603 21.1885C186.603 21.7405 186.419 22.1805 186.051 22.5085C185.683 22.8365 185.107 23.0005 184.323 23.0005H181.323V16.6405ZM184.323 22.0645C184.771 22.0645 185.087 21.9845 185.271 21.8245C185.455 21.6645 185.547 21.4365 185.547 21.1405C185.547 20.8365 185.455 20.6045 185.271 20.4445C185.087 20.2765 184.771 20.1925 184.323 20.1925H182.379V22.0645H184.323ZM184.083 19.3285C184.539 19.3285 184.855 19.2485 185.031 19.0885C185.215 18.9285 185.307 18.7085 185.307 18.4285C185.307 18.1645 185.215 17.9565 185.031 17.8045C184.855 17.6525 184.539 17.5765 184.083 17.5765H182.379V19.3285H184.083ZM190.748 23.1205C190.34 23.1205 189.952 23.0565 189.584 22.9285C189.216 22.7925 188.892 22.5925 188.612 22.3285C188.332 22.0565 188.108 21.7165 187.94 21.3085C187.772 20.9005 187.688 20.4245 187.688 19.8805V19.6405C187.688 19.1285 187.772 18.6765 187.94 18.2845C188.108 17.8925 188.332 17.5685 188.612 17.3125C188.892 17.0485 189.216 16.8525 189.584 16.7245C189.952 16.5885 190.34 16.5205 190.748 16.5205C191.156 16.5205 191.544 16.5885 191.912 16.7245C192.28 16.8525 192.604 17.0485 192.884 17.3125C193.164 17.5685 193.388 17.8925 193.556 18.2845C193.724 18.6765 193.808 19.1285 193.808 19.6405V19.8805C193.808 20.4245 193.724 20.9005 193.556 21.3085C193.388 21.7165 193.164 22.0565 192.884 22.3285C192.604 22.5925 192.28 22.7925 191.912 22.9285C191.544 23.0565 191.156 23.1205 190.748 23.1205ZM190.748 22.1605C190.988 22.1605 191.228 22.1205 191.468 22.0405C191.708 21.9525 191.92 21.8205 192.104 21.6445C192.288 21.4605 192.436 21.2245 192.548 20.9365C192.668 20.6485 192.728 20.2965 192.728 19.8805V19.6405C192.728 19.2565 192.668 18.9285 192.548 18.6565C192.436 18.3845 192.288 18.1605 192.104 17.9845C191.92 17.8085 191.708 17.6805 191.468 17.6005C191.228 17.5205 190.988 17.4805 190.748 17.4805C190.508 17.4805 190.268 17.5205 190.028 17.6005C189.788 17.6805 189.576 17.8085 189.392 17.9845C189.208 18.1605 189.056 18.3845 188.936 18.6565C188.824 18.9285 188.768 19.2565 188.768 19.6405V19.8805C188.768 20.2965 188.824 20.6485 188.936 20.9365C189.056 21.2245 189.208 21.4605 189.392 21.6445C189.576 21.8205 189.788 21.9525 190.028 22.0405C190.268 22.1205 190.508 22.1605 190.748 22.1605ZM195.304 16.6405H196.288V17.8405C196.504 17.4165 196.804 17.0925 197.188 16.8685C197.58 16.6365 198.032 16.5205 198.544 16.5205C199.344 16.5205 199.984 16.7845 200.464 17.3125C200.944 17.8325 201.184 18.6085 201.184 19.6405V19.8805C201.184 20.4245 201.12 20.9005 200.992 21.3085C200.864 21.7085 200.684 22.0445 200.452 22.3165C200.22 22.5805 199.94 22.7805 199.612 22.9165C199.292 23.0525 198.936 23.1205 198.544 23.1205C198 23.1205 197.544 23.0005 197.176 22.7605C196.816 22.5205 196.544 22.2205 196.36 21.8605V25.4005H195.304V16.6405ZM198.304 22.1845C198.56 22.1845 198.8 22.1365 199.024 22.0405C199.248 21.9365 199.44 21.7885 199.6 21.5965C199.768 21.4045 199.896 21.1645 199.984 20.8765C200.08 20.5885 200.128 20.2565 200.128 19.8805V19.6405C200.128 19.2965 200.08 18.9885 199.984 18.7165C199.896 18.4445 199.768 18.2165 199.6 18.0325C199.44 17.8405 199.248 17.6965 199.024 17.6005C198.8 17.5045 198.56 17.4565 198.304 17.4565C198.016 17.4565 197.752 17.5045 197.512 17.6005C197.272 17.6885 197.068 17.8165 196.9 17.9845C196.732 18.1445 196.6 18.3365 196.504 18.5605C196.408 18.7845 196.36 19.0245 196.36 19.2805V20.2405C196.36 20.5285 196.408 20.7925 196.504 21.0325C196.6 21.2725 196.732 21.4765 196.9 21.6445C197.068 21.8125 197.272 21.9445 197.512 22.0405C197.752 22.1365 198.016 22.1845 198.304 22.1845ZM202.687 16.6405H203.743V19.2925H204.643C204.675 18.8365 204.775 18.4365 204.943 18.0925C205.111 17.7405 205.323 17.4485 205.579 17.2165C205.843 16.9845 206.143 16.8125 206.479 16.7005C206.815 16.5805 207.171 16.5205 207.547 16.5205C207.955 16.5205 208.335 16.5885 208.687 16.7245C209.047 16.8525 209.359 17.0485 209.623 17.3125C209.887 17.5685 210.095 17.8925 210.247 18.2845C210.407 18.6765 210.487 19.1285 210.487 19.6405V19.8805C210.487 20.4245 210.407 20.9005 210.247 21.3085C210.095 21.7165 209.887 22.0565 209.623 22.3285C209.359 22.5925 209.047 22.7925 208.687 22.9285C208.335 23.0565 207.955 23.1205 207.547 23.1205C207.171 23.1205 206.811 23.0645 206.467 22.9525C206.131 22.8325 205.831 22.6525 205.567 22.4125C205.311 22.1725 205.099 21.8725 204.931 21.5125C204.771 21.1445 204.675 20.7165 204.643 20.2285H203.743V23.0005H202.687V16.6405ZM207.547 22.1605C207.787 22.1605 208.019 22.1205 208.243 22.0405C208.467 21.9525 208.663 21.8205 208.831 21.6445C209.007 21.4605 209.147 21.2245 209.251 20.9365C209.355 20.6485 209.407 20.2965 209.407 19.8805V19.6405C209.407 19.2565 209.355 18.9285 209.251 18.6565C209.147 18.3845 209.007 18.1605 208.831 17.9845C208.663 17.8085 208.467 17.6805 208.243 17.6005C208.019 17.5205 207.787 17.4805 207.547 17.4805C207.307 17.4805 207.075 17.5205 206.851 17.6005C206.627 17.6805 206.427 17.8085 206.251 17.9845C206.083 18.1605 205.947 18.3845 205.843 18.6565C205.739 18.9285 205.687 19.2565 205.687 19.6405V19.8805C205.687 20.2965 205.739 20.6485 205.843 20.9365C205.947 21.2245 206.083 21.4605 206.251 21.6445C206.427 21.8205 206.627 21.9525 206.851 22.0405C207.075 22.1205 207.307 22.1605 207.547 22.1605Z" fill="white"/>
<g opacity="0.75">
<rect width="2" height="6" transform="matrix(-1 0 0 1 170 16.0005)" fill="white"/>
<rect width="2" height="4" transform="matrix(-1 0 0 1 166 18.0005)" fill="white"/>
<rect width="2" height="2" transform="matrix(-1 0 0 1 162 20.0005)" fill="white"/>
</g>
<path d="M164.536 90.0005V78.4985L164.986 78.9665H160.234V77.4005H170.62V78.9665H165.868L166.3 78.4985V90.0005H164.536ZM172.291 90.0005V80.4605H176.719C177.835 80.4605 178.711 80.6765 179.347 81.1085C179.995 81.5285 180.319 82.1285 180.319 82.9085C180.319 83.6885 180.013 84.2945 179.401 84.7265C178.801 85.1465 178.003 85.3565 177.007 85.3565L177.277 84.8885C178.417 84.8885 179.263 85.0985 179.815 85.5185C180.367 85.9385 180.643 86.5565 180.643 87.3725C180.643 88.2005 180.331 88.8485 179.707 89.3165C179.095 89.7725 178.153 90.0005 176.881 90.0005H172.291ZM173.983 88.6685H176.755C177.475 88.6685 178.015 88.5605 178.375 88.3445C178.735 88.1165 178.915 87.7565 178.915 87.2645C178.915 86.7605 178.747 86.3945 178.411 86.1665C178.087 85.9265 177.571 85.8065 176.863 85.8065H173.983V88.6685ZM173.983 84.5645H176.575C177.235 84.5645 177.733 84.4445 178.069 84.2045C178.417 83.9525 178.591 83.6045 178.591 83.1605C178.591 82.7045 178.417 82.3625 178.069 82.1345C177.733 81.9065 177.235 81.7925 176.575 81.7925H173.983V84.5645ZM187.434 90.1085C186.474 90.1085 185.622 89.8985 184.878 89.4785C184.134 89.0585 183.546 88.4825 183.114 87.7505C182.682 87.0065 182.466 86.1665 182.466 85.2305C182.466 84.2825 182.682 83.4425 183.114 82.7105C183.546 81.9785 184.134 81.4085 184.878 81.0005C185.622 80.5805 186.474 80.3705 187.434 80.3705C188.382 80.3705 189.228 80.5805 189.972 81.0005C190.728 81.4085 191.316 81.9785 191.736 82.7105C192.168 83.4305 192.384 84.2705 192.384 85.2305C192.384 86.1785 192.168 87.0185 191.736 87.7505C191.316 88.4825 190.728 89.0585 189.972 89.4785C189.228 89.8985 188.382 90.1085 187.434 90.1085ZM187.434 88.5965C188.046 88.5965 188.592 88.4585 189.072 88.1825C189.564 87.9065 189.948 87.5165 190.224 87.0125C190.5 86.4965 190.638 85.9025 190.638 85.2305C190.638 84.5465 190.5 83.9585 190.224 83.4665C189.948 82.9625 189.564 82.5725 189.072 82.2965C188.592 82.0205 188.046 81.8825 187.434 81.8825C186.822 81.8825 186.276 82.0205 185.796 82.2965C185.316 82.5725 184.932 82.9625 184.644 83.4665C184.356 83.9585 184.212 84.5465 184.212 85.2305C184.212 85.9025 184.356 86.4965 184.644 87.0125C184.932 87.5165 185.316 87.9065 185.796 88.1825C186.276 88.4585 186.822 88.5965 187.434 88.5965ZM199.937 90.1085C199.145 90.1085 198.419 89.9285 197.759 89.5685C197.111 89.1965 196.589 88.6505 196.193 87.9305C195.809 87.2105 195.617 86.3105 195.617 85.2305C195.617 84.1505 195.803 83.2505 196.175 82.5305C196.559 81.8105 197.075 81.2705 197.723 80.9105C198.383 80.5505 199.121 80.3705 199.937 80.3705C200.873 80.3705 201.701 80.5745 202.421 80.9825C203.141 81.3905 203.711 81.9605 204.131 82.6925C204.551 83.4125 204.761 84.2585 204.761 85.2305C204.761 86.2025 204.551 87.0545 204.131 87.7865C203.711 88.5185 203.141 89.0885 202.421 89.4965C201.701 89.9045 200.873 90.1085 199.937 90.1085ZM194.879 93.4925V80.4605H196.535V83.0345L196.427 85.2485L196.607 87.4625V93.4925H194.879ZM199.793 88.5965C200.405 88.5965 200.951 88.4585 201.431 88.1825C201.923 87.9065 202.307 87.5165 202.583 87.0125C202.871 86.4965 203.015 85.9025 203.015 85.2305C203.015 84.5465 202.871 83.9585 202.583 83.4665C202.307 82.9625 201.923 82.5725 201.431 82.2965C200.951 82.0205 200.405 81.8825 199.793 81.8825C199.193 81.8825 198.647 82.0205 198.155 82.2965C197.675 82.5725 197.291 82.9625 197.003 83.4665C196.727 83.9585 196.589 84.5465 196.589 85.2305C196.589 85.9025 196.727 86.4965 197.003 87.0125C197.291 87.5165 197.675 87.9065 198.155 88.1825C198.647 88.4585 199.193 88.5965 199.793 88.5965ZM213.284 86.0945C212.78 86.3345 212.258 86.5265 211.718 86.6705C211.19 86.8025 210.644 86.8685 210.08 86.8685C208.928 86.8685 208.016 86.5985 207.344 86.0585C206.684 85.5185 206.354 84.6845 206.354 83.5565V80.4605H208.082V83.4485C208.082 84.1325 208.292 84.6365 208.712 84.9605C209.144 85.2845 209.72 85.4465 210.44 85.4465C210.896 85.4465 211.364 85.3865 211.844 85.2665C212.336 85.1465 212.816 84.9785 213.284 84.7625V86.0945ZM213.158 90.0005V80.4605H214.886V90.0005H213.158ZM222.488 90.1085C221.468 90.1085 220.568 89.8985 219.788 89.4785C219.02 89.0585 218.42 88.4825 217.988 87.7505C217.568 87.0185 217.358 86.1785 217.358 85.2305C217.358 84.2825 217.562 83.4425 217.97 82.7105C218.39 81.9785 218.96 81.4085 219.68 81.0005C220.412 80.5805 221.234 80.3705 222.146 80.3705C223.07 80.3705 223.886 80.5745 224.594 80.9825C225.302 81.3905 225.854 81.9665 226.25 82.7105C226.658 83.4425 226.862 84.3005 226.862 85.2845C226.862 85.3565 226.856 85.4405 226.844 85.5365C226.844 85.6325 226.838 85.7225 226.826 85.8065H218.708V84.5645H225.926L225.224 84.9965C225.236 84.3845 225.11 83.8385 224.846 83.3585C224.582 82.8785 224.216 82.5065 223.748 82.2425C223.292 81.9665 222.758 81.8285 222.146 81.8285C221.546 81.8285 221.012 81.9665 220.544 82.2425C220.076 82.5065 219.71 82.8845 219.446 83.3765C219.182 83.8565 219.05 84.4085 219.05 85.0325V85.3205C219.05 85.9565 219.194 86.5265 219.482 87.0305C219.782 87.5225 220.196 87.9065 220.724 88.1825C221.252 88.4585 221.858 88.5965 222.542 88.5965C223.106 88.5965 223.616 88.5005 224.072 88.3085C224.54 88.1165 224.948 87.8285 225.296 87.4445L226.25 88.5605C225.818 89.0645 225.278 89.4485 224.63 89.7125C223.994 89.9765 223.28 90.1085 222.488 90.1085ZM233.701 90.1085C232.729 90.1085 231.859 89.8985 231.091 89.4785C230.335 89.0585 229.741 88.4825 229.309 87.7505C228.877 87.0185 228.661 86.1785 228.661 85.2305C228.661 84.2825 228.877 83.4425 229.309 82.7105C229.741 81.9785 230.335 81.4085 231.091 81.0005C231.859 80.5805 232.729 80.3705 233.701 80.3705C234.565 80.3705 235.333 80.5445 236.005 80.8925C236.689 81.2285 237.217 81.7325 237.589 82.4045L236.275 83.2505C235.963 82.7825 235.579 82.4405 235.123 82.2245C234.679 81.9965 234.199 81.8825 233.683 81.8825C233.059 81.8825 232.501 82.0205 232.009 82.2965C231.517 82.5725 231.127 82.9625 230.839 83.4665C230.551 83.9585 230.407 84.5465 230.407 85.2305C230.407 85.9145 230.551 86.5085 230.839 87.0125C231.127 87.5165 231.517 87.9065 232.009 88.1825C232.501 88.4585 233.059 88.5965 233.683 88.5965C234.199 88.5965 234.679 88.4885 235.123 88.2725C235.579 88.0445 235.963 87.6965 236.275 87.2285L237.589 88.0565C237.217 88.7165 236.689 89.2265 236.005 89.5865C235.333 89.9345 234.565 90.1085 233.701 90.1085ZM246.738 90.0005L243.048 85.3565L244.47 84.4925L248.772 90.0005H246.738ZM239.826 90.0005V80.4605H241.554V90.0005H239.826ZM241.032 85.9685V84.4925H244.182V85.9685H241.032ZM244.614 85.4285L243.012 85.2125L246.666 80.4605H248.52L244.614 85.4285ZM256.258 90.0005V87.9845L256.168 87.6065V84.1685C256.168 83.4365 255.952 82.8725 255.52 82.4765C255.1 82.0685 254.464 81.8645 253.612 81.8645C253.048 81.8645 252.496 81.9605 251.956 82.1525C251.416 82.3325 250.96 82.5785 250.588 82.8905L249.868 81.5945C250.36 81.1985 250.948 80.8985 251.632 80.6945C252.328 80.4785 253.054 80.3705 253.81 80.3705C255.118 80.3705 256.126 80.6885 256.834 81.3245C257.542 81.9605 257.896 82.9325 257.896 84.2405V90.0005H256.258ZM253.126 90.1085C252.418 90.1085 251.794 89.9885 251.254 89.7485C250.726 89.5085 250.318 89.1785 250.03 88.7585C249.742 88.3265 249.598 87.8405 249.598 87.3005C249.598 86.7845 249.718 86.3165 249.958 85.8965C250.21 85.4765 250.612 85.1405 251.164 84.8885C251.728 84.6365 252.484 84.5105 253.432 84.5105H256.456V85.7525H253.504C252.64 85.7525 252.058 85.8965 251.758 86.1845C251.458 86.4725 251.308 86.8205 251.308 87.2285C251.308 87.6965 251.494 88.0745 251.866 88.3625C252.238 88.6385 252.754 88.7765 253.414 88.7765C254.062 88.7765 254.626 88.6325 255.106 88.3445C255.598 88.0565 255.952 87.6365 256.168 87.0845L256.51 88.2725C256.282 88.8365 255.88 89.2865 255.304 89.6225C254.728 89.9465 254.002 90.1085 253.126 90.1085ZM267.11 90.0005V86.6525L267.38 86.9765H264.338C263.066 86.9765 262.07 86.7065 261.35 86.1665C260.642 85.6265 260.288 84.8405 260.288 83.8085C260.288 82.7045 260.666 81.8705 261.422 81.3065C262.19 80.7425 263.21 80.4605 264.482 80.4605H268.658V90.0005H267.11ZM260.198 90.0005L262.79 86.3465H264.572L262.052 90.0005H260.198ZM267.11 86.1125V81.4865L267.38 81.9725H264.536C263.744 81.9725 263.132 82.1225 262.7 82.4225C262.268 82.7105 262.052 83.1905 262.052 83.8625C262.052 85.1105 262.856 85.7345 264.464 85.7345H267.38L267.11 86.1125Z" fill="white"/>
<path opacity="0.5" d="M284.59 89.2205V90.0005H279.574V89.2325L281.746 87.0965C282.226 86.6245 282.59 86.2405 282.838 85.9445C283.086 85.6405 283.258 85.3645 283.354 85.1165C283.458 84.8685 283.51 84.6045 283.51 84.3245V84.2045C283.51 83.7565 283.37 83.4085 283.09 83.1605C282.818 82.9125 282.434 82.7885 281.938 82.7885C281.442 82.7885 281.054 82.9205 280.774 83.1845C280.502 83.4405 280.366 83.8005 280.366 84.2645V84.5165H279.514V84.2525C279.514 83.5485 279.73 82.9965 280.162 82.5965C280.594 82.1965 281.186 81.9965 281.938 81.9965C282.698 81.9965 283.29 82.1925 283.714 82.5845C284.146 82.9765 284.362 83.5165 284.362 84.2045V84.3245C284.362 84.8285 284.222 85.3165 283.942 85.7885C283.662 86.2525 283.154 86.8485 282.418 87.5765L280.75 89.2205H284.59Z" fill="white"/>
<g opacity="0.75">
<path d="M285.07 14.2075L280.071 14.2075C279.795 14.2075 279.571 14.4314 279.571 14.7075C279.571 14.9837 279.795 15.2075 280.071 15.2075L283.864 15.2075L278.353 20.7179C278.158 20.9132 278.158 21.2298 278.353 21.425C278.549 21.6203 278.865 21.6203 279.061 21.425L284.571 15.9146V19.7075C284.571 19.9837 284.795 20.2075 285.071 20.2075C285.347 20.2075 285.571 19.9837 285.571 19.7075V14.7079C285.571 14.7074 285.571 14.7067 285.571 14.7062C285.571 14.7062 285.571 14.7063 285.571 14.7062C285.571 14.639 285.557 14.5746 285.533 14.5161C285.509 14.4572 285.472 14.4019 285.425 14.354C285.376 14.3058 285.321 14.2695 285.261 14.2451C285.205 14.2217 285.143 14.2085 285.078 14.2076" fill="white"/>
</g>
</g>
<g opacity="0.5">
<mask id="mask1_1401_51479" style="mask-type:alpha" maskUnits="userSpaceOnUse" x="0" y="144" width="300" height="24">
<path d="M0 166C0 167.105 0.895431 168 2 168H298C299.105 168 300 167.105 300 166V146C300 144.895 299.105 144 298 144H2C0.895429 144 0 144.895 0 146V166Z" fill="url(#paint1_linear_1401_51479)"/>
</mask>
<g mask="url(#mask1_1401_51479)">
<path d="M2 144.5C1.79569 144.5 1.60212 144.541 1.42595 144.614L1.23442 144.152C0.745542 144.354 0.354491 144.746 0.151761 145.234L0.613624 145.426C0.54057 145.602 0.5 145.796 0.5 146V147H0V149H0.5V151H0V153H0.5V155H0V157H0.5V159H0V161H0.5V163H0V165H0.5V166C0.5 166.204 0.54057 166.398 0.613624 166.574L0.151761 166.766C0.354492 167.254 0.745544 167.646 1.23442 167.848L1.42595 167.386C1.60212 167.459 1.79569 167.5 2 167.5H3V168H5V167.5H7V168H9V167.5H11V168H13V167.5H15V168H17V167.5H19V168H21V167.5H23V168H25V167.5H27V168H29V167.5H31V168H33V167.5H35V168H37V167.5H39V168H41V167.5H43V168H45V167.5H47V168H49V167.5H51V168H53V167.5H55V168H57V167.5H59V168H61V167.5H63V168H65V167.5H67V168H69V167.5H71V168H73V167.5H75V168H77V167.5H79V168H81V167.5H83V168H85V167.5H87V168H89V167.5H91V168H93V167.5H95V168H97V167.5H99V168H101V167.5H103V168H105V167.5H107V168H109V167.5H111V168H113V167.5H115V168H117V167.5H119V168H121V167.5H123V168H125V167.5H127V168H129V167.5H131V168H133V167.5H135V168H137V167.5H139V168H141V167.5H143V168H145V167.5H147V168H149V167.5H151V168H153V167.5H155V168H157V167.5H159V168H161V167.5H163V168H165V167.5H167V168H169V167.5H171V168H173V167.5H175V168H177V167.5H179V168H181V167.5H183V168H185V167.5H187V168H189V167.5H191V168H193V167.5H195V168H197V167.5H199V168H201V167.5H203V168H205V167.5H207V168H209V167.5H211V168H213V167.5H215V168H217V167.5H219V168H221V167.5H223V168H225V167.5H227V168H229V167.5H231V168H233V167.5H235V168H237V167.5H239V168H241V167.5H243V168H245V167.5H247V168H249V167.5H251V168H253V167.5H255V168H257V167.5H259V168H261V167.5H263V168H265V167.5H267V168H269V167.5H271V168H273V167.5H275V168H277V167.5H279V168H281V167.5H283V168H285V167.5H287V168H289V167.5H291V168H293V167.5H295V168H297V167.5H298C298.204 167.5 298.398 167.459 298.574 167.386L298.766 167.848C299.254 167.646 299.646 167.254 299.848 166.766L299.386 166.574C299.459 166.398 299.5 166.204 299.5 166V165H300V163H299.5V161H300V159H299.5V157H300V155H299.5V153H300V151H299.5V149H300V147H299.5V146C299.5 145.796 299.459 145.602 299.386 145.426L299.848 145.234C299.646 144.746 299.254 144.354 298.766 144.152L298.574 144.614C298.398 144.541 298.204 144.5 298 144.5H297V144H295V144.5H293V144H291V144.5H289V144H287V144.5H285V144H283V144.5H281V144H279V144.5H277V144H275V144.5H273V144H271V144.5H269V144H267V144.5H265V144H263V144.5H261V144H259V144.5H257V144H255V144.5H253V144H251V144.5H249V144H247V144.5H245V144H243V144.5H241V144H239V144.5H237V144H235V144.5H233V144H231V144.5H229V144H227V144.5H225V144H223V144.5H221V144H219V144.5H217V144H215V144.5H213V144H211V144.5H209V144H207V144.5H205V144H203V144.5H201V144H199V144.5H197V144H195V144.5H193V144H191V144.5H189V144H187V144.5H185V144H183V144.5H181V144H179V144.5H177V144H175V144.5H173V144H171V144.5H169V144H167V144.5H165V144H163V144.5H161V144H159V144.5H157V144H155V144.5H153V144H151V144.5H149V144H147V144.5H145V144H143V144.5H141V144H139V144.5H137V144H135V144.5H133V144H131V144.5H129V144H127V144.5H125V144H123V144.5H121V144H119V144.5H117V144H115V144.5H113V144H111V144.5H109V144H107V144.5H105V144H103V144.5H101V144H99V144.5H97V144H95V144.5H93V144H91V144.5H89V144H87V144.5H85V144H83V144.5H81V144H79V144.5H77V144H75V144.5H73V144H71V144.5H69V144H67V144.5H65V144H63V144.5H61V144H59V144.5H57V144H55V144.5H53V144H51V144.5H49V144H47V144.5H45V144H43V144.5H41V144H39V144.5H37V144H35V144.5H33V144H31V144.5H29V144H27V144.5H25V144H23V144.5H21V144H19V144.5H17V144H15V144.5H13V144H11V144.5H8.99999V144H7V144.5H4.99999V144H3V144.5H2Z" stroke="#6B360D" stroke-dasharray="2 2"/>
</g>
</g>
<g clip-path="url(#clip2_1401_51479)">
<rect width="108" height="60" transform="translate(4 104)" fill="white"/>
<rect opacity="0.5" x="4.5" y="104.5" width="107" height="59" rx="1.5" stroke="#6B360D"/>
<path opacity="0.75" d="M24.2 114.6H29.66V115.572H25.328V117.96H27.2C27.752 117.96 28.232 118.02 28.64 118.14C29.048 118.26 29.384 118.432 29.648 118.656C29.92 118.88 30.12 119.148 30.248 119.46C30.376 119.764 30.44 120.104 30.44 120.48C30.44 120.856 30.376 121.2 30.248 121.512C30.12 121.816 29.92 122.08 29.648 122.304C29.384 122.528 29.048 122.7 28.64 122.82C28.232 122.94 27.752 123 27.2 123H24.2V114.6ZM27.14 122.016C27.94 122.016 28.5 121.884 28.82 121.62C29.148 121.348 29.312 120.968 29.312 120.48C29.312 119.992 29.148 119.616 28.82 119.352C28.5 119.08 27.94 118.944 27.14 118.944H25.328V122.016H27.14ZM34.5805 123.12C34.1725 123.12 33.7845 123.056 33.4165 122.928C33.0485 122.792 32.7245 122.592 32.4445 122.328C32.1645 122.056 31.9405 121.716 31.7725 121.308C31.6045 120.9 31.5205 120.424 31.5205 119.88V119.64C31.5205 119.128 31.6045 118.676 31.7725 118.284C31.9405 117.892 32.1645 117.568 32.4445 117.312C32.7245 117.048 33.0485 116.852 33.4165 116.724C33.7845 116.588 34.1725 116.52 34.5805 116.52C34.9885 116.52 35.3765 116.588 35.7445 116.724C36.1125 116.852 36.4365 117.048 36.7165 117.312C36.9965 117.568 37.2205 117.892 37.3885 118.284C37.5565 118.676 37.6405 119.128 37.6405 119.64V119.88C37.6405 120.424 37.5565 120.9 37.3885 121.308C37.2205 121.716 36.9965 122.056 36.7165 122.328C36.4365 122.592 36.1125 122.792 35.7445 122.928C35.3765 123.056 34.9885 123.12 34.5805 123.12ZM34.5805 122.16C34.8205 122.16 35.0605 122.12 35.3005 122.04C35.5405 121.952 35.7525 121.82 35.9365 121.644C36.1205 121.46 36.2685 121.224 36.3805 120.936C36.5005 120.648 36.5605 120.296 36.5605 119.88V119.64C36.5605 119.256 36.5005 118.928 36.3805 118.656C36.2685 118.384 36.1205 118.16 35.9365 117.984C35.7525 117.808 35.5405 117.68 35.3005 117.6C35.0605 117.52 34.8205 117.48 34.5805 117.48C34.3405 117.48 34.1005 117.52 33.8605 117.6C33.6205 117.68 33.4085 117.808 33.2245 117.984C33.0405 118.16 32.8885 118.384 32.7685 118.656C32.6565 118.928 32.6005 119.256 32.6005 119.64V119.88C32.6005 120.296 32.6565 120.648 32.7685 120.936C32.8885 121.224 33.0405 121.46 33.2245 121.644C33.4085 121.82 33.6205 121.952 33.8605 122.04C34.1005 122.12 34.3405 122.16 34.5805 122.16ZM39.1358 116.64H40.1918V119.292H41.0918C41.1238 118.836 41.2238 118.436 41.3918 118.092C41.5598 117.74 41.7718 117.448 42.0278 117.216C42.2918 116.984 42.5918 116.812 42.9278 116.7C43.2638 116.58 43.6198 116.52 43.9958 116.52C44.4038 116.52 44.7838 116.588 45.1358 116.724C45.4958 116.852 45.8078 117.048 46.0718 117.312C46.3358 117.568 46.5438 117.892 46.6958 118.284C46.8558 118.676 46.9358 119.128 46.9358 119.64V119.88C46.9358 120.424 46.8558 120.9 46.6958 121.308C46.5438 121.716 46.3358 122.056 46.0718 122.328C45.8078 122.592 45.4958 122.792 45.1358 122.928C44.7838 123.056 44.4038 123.12 43.9958 123.12C43.6198 123.12 43.2598 123.064 42.9158 122.952C42.5798 122.832 42.2798 122.652 42.0158 122.412C41.7598 122.172 41.5478 121.872 41.3798 121.512C41.2198 121.144 41.1238 120.716 41.0918 120.228H40.1918V123H39.1358V116.64ZM43.9958 122.16C44.2358 122.16 44.4678 122.12 44.6918 122.04C44.9158 121.952 45.1118 121.82 45.2798 121.644C45.4558 121.46 45.5958 121.224 45.6998 120.936C45.8038 120.648 45.8558 120.296 45.8558 119.88V119.64C45.8558 119.256 45.8038 118.928 45.6998 118.656C45.5958 118.384 45.4558 118.16 45.2798 117.984C45.1118 117.808 44.9158 117.68 44.6918 117.6C44.4678 117.52 44.2358 117.48 43.9958 117.48C43.7558 117.48 43.5238 117.52 43.2998 117.6C43.0758 117.68 42.8758 117.808 42.6998 117.984C42.5318 118.16 42.3958 118.384 42.2918 118.656C42.1878 118.928 42.1358 119.256 42.1358 119.64V119.88C42.1358 120.296 42.1878 120.648 42.2918 120.936C42.3958 121.224 42.5318 121.46 42.6998 121.644C42.8758 121.82 43.0758 121.952 43.2998 122.04C43.5238 122.12 43.7558 122.16 43.9958 122.16ZM50.9005 123.12C50.4925 123.12 50.1125 123.056 49.7605 122.928C49.4085 122.792 49.1045 122.592 48.8485 122.328C48.5925 122.056 48.3885 121.716 48.2365 121.308C48.0925 120.9 48.0205 120.424 48.0205 119.88V119.64C48.0205 119.128 48.1005 118.676 48.2605 118.284C48.4205 117.892 48.6325 117.568 48.8965 117.312C49.1605 117.048 49.4645 116.852 49.8085 116.724C50.1605 116.588 50.5245 116.52 50.9005 116.52C51.2765 116.52 51.6125 116.572 51.9085 116.676C52.2125 116.78 52.4725 116.924 52.6885 117.108C52.9125 117.292 53.0925 117.508 53.2285 117.756C53.3725 118.004 53.4765 118.272 53.5405 118.56H52.4605C52.3965 118.408 52.3205 118.268 52.2325 118.14C52.1525 118.004 52.0485 117.888 51.9205 117.792C51.8005 117.696 51.6565 117.62 51.4885 117.564C51.3205 117.508 51.1245 117.48 50.9005 117.48C50.6685 117.48 50.4445 117.524 50.2285 117.612C50.0125 117.692 49.8205 117.82 49.6525 117.996C49.4845 118.164 49.3485 118.384 49.2445 118.656C49.1485 118.928 49.1005 119.256 49.1005 119.64V119.88C49.1005 120.288 49.1485 120.64 49.2445 120.936C49.3485 121.224 49.4845 121.46 49.6525 121.644C49.8205 121.82 50.0125 121.952 50.2285 122.04C50.4445 122.12 50.6685 122.16 50.9005 122.16C51.2925 122.16 51.6205 122.064 51.8845 121.872C52.1565 121.68 52.3485 121.416 52.4605 121.08H53.5405C53.3885 121.712 53.0765 122.212 52.6045 122.58C52.1325 122.94 51.5645 123.12 50.9005 123.12ZM54.9795 116.64H56.0355V119.04H57.5595C58.3595 119.04 58.9475 119.216 59.3235 119.568C59.7075 119.92 59.8995 120.408 59.8995 121.032C59.8995 121.64 59.7075 122.12 59.3235 122.472C58.9475 122.824 58.3595 123 57.5595 123H54.9795V116.64ZM57.4995 122.064C57.9955 122.064 58.3435 121.976 58.5435 121.8C58.7435 121.624 58.8435 121.364 58.8435 121.02C58.8435 120.676 58.7435 120.416 58.5435 120.24C58.3435 120.064 57.9955 119.976 57.4995 119.976H56.0355V122.064H57.4995Z" fill="#6B360D"/>
<g opacity="0.75">
<path d="M98 114C97.7239 114 97.5 114.224 97.5 114.5V117.5H94.5C94.2239 117.5 94 117.724 94 118C94 118.276 94.2239 118.5 94.5 118.5H97.5V121.5C97.5 121.776 97.7239 122 98 122C98.2761 122 98.5 121.776 98.5 121.5V118.5H101.5C101.776 118.5 102 118.276 102 118C102 117.724 101.776 117.5 101.5 117.5H98.5V114.5C98.5 114.224 98.2761 114 98 114Z" fill="#6B360D"/>
<path d="M100.828 115.172C100.633 114.976 100.317 114.976 100.121 115.172L99 116.293C98.8047 116.488 98.8047 116.805 99 117C99.1953 117.195 99.5119 117.195 99.7071 117L100.828 115.879C101.024 115.683 101.024 115.367 100.828 115.172Z" fill="#6B360D"/>
<path d="M100.121 120.829C100.317 121.024 100.633 121.024 100.828 120.829C101.024 120.633 101.024 120.317 100.828 120.121L99.7071 119C99.5119 118.805 99.1953 118.805 99 119C98.8047 119.195 98.8047 119.512 99 119.707L100.121 120.829Z" fill="#6B360D"/>
<path d="M97.0156 116.309C97.2109 116.504 97.2109 116.82 97.0156 117.016C96.8204 117.211 96.5038 117.211 96.3085 117.016L95.1716 115.879C94.9763 115.683 94.9763 115.367 95.1716 115.172C95.3668 114.976 95.6834 114.976 95.8787 115.172L97.0156 116.309Z" fill="#6B360D"/>
<path d="M97.0156 118.985C97.2109 119.18 97.2109 119.496 97.0156 119.692L95.8787 120.829C95.6834 121.024 95.3668 121.024 95.1716 120.829C94.9763 120.633 94.9763 120.317 95.1716 120.121L96.3085 118.985C96.5038 118.789 96.8204 118.789 97.0156 118.985Z" fill="#6B360D"/>
</g>
<path opacity="0.75" d="M98.036 149.26C98.796 149.26 99.392 149.452 99.824 149.836C100.256 150.22 100.472 150.752 100.472 151.432V151.828C100.472 152.54 100.24 153.104 99.776 153.52C99.32 153.928 98.696 154.132 97.904 154.132C97.112 154.132 96.484 153.94 96.02 153.556C95.556 153.172 95.324 152.648 95.324 151.984V151.756H96.176V151.984C96.176 152.408 96.332 152.74 96.644 152.98C96.956 153.22 97.376 153.34 97.904 153.34C98.432 153.34 98.848 153.208 99.152 152.944C99.456 152.68 99.608 152.312 99.608 151.84V151.456C99.608 151 99.452 150.644 99.14 150.388C98.836 150.132 98.408 150.004 97.856 150.004H96.872V149.32L99.32 146.908H95.456V146.128H100.436V146.908L98.036 149.26Z" fill="#6B360D"/>
<path d="M13.962 154V141.4H18.876C19.98 141.4 20.922 141.574 21.702 141.922C22.482 142.27 23.082 142.774 23.502 143.434C23.922 144.094 24.132 144.88 24.132 145.792C24.132 146.704 23.922 147.49 23.502 148.15C23.082 148.798 22.482 149.302 21.702 149.662C20.922 150.01 19.98 150.184 18.876 150.184H14.952L15.762 149.338V154H13.962ZM15.762 149.518L14.952 148.618H18.822C19.974 148.618 20.844 148.372 21.432 147.88C22.032 147.388 22.332 146.692 22.332 145.792C22.332 144.892 22.032 144.196 21.432 143.704C20.844 143.212 19.974 142.966 18.822 142.966H14.952L15.762 142.066V149.518ZM30.3987 154.108C29.4387 154.108 28.5867 153.898 27.8427 153.478C27.0987 153.058 26.5107 152.482 26.0787 151.75C25.6467 151.006 25.4307 150.166 25.4307 149.23C25.4307 148.282 25.6467 147.442 26.0787 146.71C26.5107 145.978 27.0987 145.408 27.8427 145C28.5867 144.58 29.4387 144.37 30.3987 144.37C31.3467 144.37 32.1927 144.58 32.9367 145C33.6927 145.408 34.2807 145.978 34.7007 146.71C35.1327 147.43 35.3487 148.27 35.3487 149.23C35.3487 150.178 35.1327 151.018 34.7007 151.75C34.2807 152.482 33.6927 153.058 32.9367 153.478C32.1927 153.898 31.3467 154.108 30.3987 154.108ZM30.3987 152.596C31.0107 152.596 31.5567 152.458 32.0367 152.182C32.5287 151.906 32.9127 151.516 33.1887 151.012C33.4647 150.496 33.6027 149.902 33.6027 149.23C33.6027 148.546 33.4647 147.958 33.1887 147.466C32.9127 146.962 32.5287 146.572 32.0367 146.296C31.5567 146.02 31.0107 145.882 30.3987 145.882C29.7867 145.882 29.2407 146.02 28.7607 146.296C28.2807 146.572 27.8967 146.962 27.6087 147.466C27.3207 147.958 27.1767 148.546 27.1767 149.23C27.1767 149.902 27.3207 150.496 27.6087 151.012C27.8967 151.516 28.2807 151.906 28.7607 152.182C29.2407 152.458 29.7867 152.596 30.3987 152.596ZM36.1896 153.982L36.2976 152.524C36.3816 152.536 36.4596 152.548 36.5316 152.56C36.6036 152.572 36.6696 152.578 36.7296 152.578C37.1136 152.578 37.4136 152.446 37.6296 152.182C37.8576 151.918 38.0256 151.57 38.1336 151.138C38.2416 150.694 38.3196 150.196 38.3676 149.644C38.4156 149.092 38.4516 148.54 38.4756 147.988L38.6376 144.46H45.9636V154H44.2356V145.468L44.6496 145.972H39.7536L40.1496 145.45L40.0236 148.096C39.9876 148.936 39.9216 149.722 39.8256 150.454C39.7296 151.186 39.5796 151.828 39.3756 152.38C39.1836 152.932 38.9136 153.364 38.5656 153.676C38.2296 153.988 37.7916 154.144 37.2516 154.144C37.0956 154.144 36.9276 154.126 36.7476 154.09C36.5796 154.066 36.3936 154.03 36.1896 153.982ZM53.5529 154.108C52.5329 154.108 51.6329 153.898 50.8529 153.478C50.0849 153.058 49.4849 152.482 49.0529 151.75C48.6329 151.018 48.4229 150.178 48.4229 149.23C48.4229 148.282 48.6269 147.442 49.0349 146.71C49.4549 145.978 50.0249 145.408 50.7449 145C51.4769 144.58 52.2989 144.37 53.2109 144.37C54.1349 144.37 54.9509 144.574 55.6589 144.982C56.3669 145.39 56.9189 145.966 57.3149 146.71C57.7229 147.442 57.9269 148.3 57.9269 149.284C57.9269 149.356 57.9209 149.44 57.9089 149.536C57.9089 149.632 57.9029 149.722 57.8909 149.806H49.7729V148.564H56.9909L56.2889 148.996C56.3009 148.384 56.1749 147.838 55.9109 147.358C55.6469 146.878 55.2809 146.506 54.8129 146.242C54.3569 145.966 53.8229 145.828 53.2109 145.828C52.6109 145.828 52.0769 145.966 51.6089 146.242C51.1409 146.506 50.7749 146.884 50.5109 147.376C50.2469 147.856 50.1149 148.408 50.1149 149.032V149.32C50.1149 149.956 50.2589 150.526 50.5469 151.03C50.8469 151.522 51.2609 151.906 51.7889 152.182C52.3169 152.458 52.9229 152.596 53.6069 152.596C54.1709 152.596 54.6809 152.5 55.1369 152.308C55.6049 152.116 56.0129 151.828 56.3609 151.444L57.3149 152.56C56.8829 153.064 56.3429 153.448 55.6949 153.712C55.0589 153.976 54.3449 154.108 53.5529 154.108ZM60.6076 154V144.46H65.0356C66.1516 144.46 67.0276 144.676 67.6636 145.108C68.3116 145.528 68.6356 146.128 68.6356 146.908C68.6356 147.688 68.3296 148.294 67.7176 148.726C67.1176 149.146 66.3196 149.356 65.3236 149.356L65.5936 148.888C66.7336 148.888 67.5796 149.098 68.1316 149.518C68.6836 149.938 68.9596 150.556 68.9596 151.372C68.9596 152.2 68.6476 152.848 68.0236 153.316C67.4116 153.772 66.4696 154 65.1976 154H60.6076ZM62.2996 152.668H65.0716C65.7916 152.668 66.3316 152.56 66.6916 152.344C67.0516 152.116 67.2316 151.756 67.2316 151.264C67.2316 150.76 67.0636 150.394 66.7276 150.166C66.4036 149.926 65.8876 149.806 65.1796 149.806H62.2996V152.668ZM62.2996 148.564H64.8916C65.5516 148.564 66.0496 148.444 66.3856 148.204C66.7336 147.952 66.9076 147.604 66.9076 147.16C66.9076 146.704 66.7336 146.362 66.3856 146.134C66.0496 145.906 65.5516 145.792 64.8916 145.792H62.2996V148.564ZM77.5142 154V151.984L77.4242 151.606V148.168C77.4242 147.436 77.2082 146.872 76.7762 146.476C76.3562 146.068 75.7202 145.864 74.8682 145.864C74.3042 145.864 73.7522 145.96 73.2122 146.152C72.6722 146.332 72.2162 146.578 71.8442 146.89L71.1242 145.594C71.6162 145.198 72.2042 144.898 72.8882 144.694C73.5842 144.478 74.3102 144.37 75.0662 144.37C76.3742 144.37 77.3822 144.688 78.0902 145.324C78.7982 145.96 79.1522 146.932 79.1522 148.24V154H77.5142ZM74.3822 154.108C73.6742 154.108 73.0502 153.988 72.5102 153.748C71.9822 153.508 71.5742 153.178 71.2862 152.758C70.9982 152.326 70.8542 151.84 70.8542 151.3C70.8542 150.784 70.9742 150.316 71.2142 149.896C71.4662 149.476 71.8682 149.14 72.4202 148.888C72.9842 148.636 73.7402 148.51 74.6882 148.51H77.7122V149.752H74.7602C73.8962 149.752 73.3142 149.896 73.0142 150.184C72.7142 150.472 72.5642 150.82 72.5642 151.228C72.5642 151.696 72.7502 152.074 73.1222 152.362C73.4942 152.638 74.0102 152.776 74.6702 152.776C75.3182 152.776 75.8822 152.632 76.3622 152.344C76.8542 152.056 77.2082 151.636 77.4242 151.084L77.7662 152.272C77.5382 152.836 77.1362 153.286 76.5602 153.622C75.9842 153.946 75.2582 154.108 74.3822 154.108ZM88.3658 154V150.652L88.6358 150.976H85.5938C84.3218 150.976 83.3258 150.706 82.6058 150.166C81.8978 149.626 81.5438 148.84 81.5438 147.808C81.5438 146.704 81.9218 145.87 82.6778 145.306C83.4458 144.742 84.4658 144.46 85.7378 144.46H89.9138V154H88.3658ZM81.4538 154L84.0458 150.346H85.8278L83.3078 154H81.4538ZM88.3658 150.112V145.486L88.6358 145.972H85.7918C84.9998 145.972 84.3878 146.122 83.9558 146.422C83.5238 146.71 83.3078 147.19 83.3078 147.862C83.3078 149.11 84.1118 149.734 85.7198 149.734H88.6358L88.3658 150.112Z" fill="#6B360D"/>
<g opacity="0.75">
<rect width="2" height="4" transform="matrix(-1 0 0 1 19 118)" fill="#6B360D"/>
<rect width="2" height="2" transform="matrix(-1 0 0 1 15 120)" fill="#6B360D"/>
</g>
</g>
<g clip-path="url(#clip3_1401_51479)">
<rect width="180" height="60" transform="translate(116 104)" fill="white"/>
<g opacity="0.1">
<path d="M283.104 104H264.555L296 124.576V112.439L283.104 104Z" fill="#6B360D"/>
<path d="M296 142.781L236.733 104H218.184L296 154.918V142.781Z" fill="#6B360D"/>
<path d="M282.058 164L190.362 104H171.813L263.51 164H282.058Z" fill="#6B360D"/>
<path d="M235.687 164L143.99 104H125.442L217.139 164H235.687Z" fill="#6B360D"/>
<path d="M189.316 164L116 116.028V128.164L170.768 164H189.316Z" fill="#6B360D"/>
<path d="M142.945 164L116 146.37V158.506L124.396 164H142.945Z" fill="#6B360D"/>
</g>
<rect opacity="0.6" x="116.5" y="104.5" width="179" height="59" rx="1.5" stroke="#6B360D"/>
<path opacity="0.75" d="M135.26 123.12C134.788 123.12 134.34 123.04 133.916 122.88C133.492 122.712 133.116 122.456 132.788 122.112C132.46 121.76 132.2 121.316 132.008 120.78C131.816 120.244 131.72 119.604 131.72 118.86V118.62C131.72 117.9 131.816 117.28 132.008 116.76C132.2 116.24 132.46 115.812 132.788 115.476C133.116 115.14 133.492 114.892 133.916 114.732C134.34 114.564 134.788 114.48 135.26 114.48C135.716 114.48 136.132 114.54 136.508 114.66C136.892 114.78 137.228 114.952 137.516 115.176C137.804 115.4 138.036 115.676 138.212 116.004C138.396 116.332 138.512 116.704 138.56 117.12H137.36C137.248 116.576 137.012 116.168 136.652 115.896C136.292 115.624 135.828 115.488 135.26 115.488C134.964 115.488 134.676 115.544 134.396 115.656C134.116 115.768 133.864 115.948 133.64 116.196C133.424 116.436 133.248 116.756 133.112 117.156C132.984 117.556 132.92 118.044 132.92 118.62V118.86C132.92 119.468 132.992 119.98 133.136 120.396C133.28 120.804 133.464 121.136 133.688 121.392C133.912 121.648 134.164 121.832 134.444 121.944C134.724 122.056 134.996 122.112 135.26 122.112C135.884 122.112 136.372 121.96 136.724 121.656C137.076 121.352 137.288 120.96 137.36 120.48H138.56C138.496 120.944 138.368 121.344 138.176 121.68C137.984 122.008 137.74 122.28 137.444 122.496C137.156 122.712 136.824 122.872 136.448 122.976C136.08 123.072 135.684 123.12 135.26 123.12ZM141.568 117.576H139.396V116.64H144.796V117.576H142.624V123H141.568V117.576ZM145.999 116.64H146.983V117.84C147.199 117.416 147.499 117.092 147.883 116.868C148.275 116.636 148.727 116.52 149.239 116.52C150.039 116.52 150.679 116.784 151.159 117.312C151.639 117.832 151.879 118.608 151.879 119.64V119.88C151.879 120.424 151.815 120.9 151.687 121.308C151.559 121.708 151.379 122.044 151.147 122.316C150.915 122.58 150.635 122.78 150.307 122.916C149.987 123.052 149.631 123.12 149.239 123.12C148.695 123.12 148.239 123 147.871 122.76C147.511 122.52 147.239 122.22 147.055 121.86V125.4H145.999V116.64ZM148.999 122.184C149.255 122.184 149.495 122.136 149.719 122.04C149.943 121.936 150.135 121.788 150.295 121.596C150.463 121.404 150.591 121.164 150.679 120.876C150.775 120.588 150.823 120.256 150.823 119.88V119.64C150.823 119.296 150.775 118.988 150.679 118.716C150.591 118.444 150.463 118.216 150.295 118.032C150.135 117.84 149.943 117.696 149.719 117.6C149.495 117.504 149.255 117.456 148.999 117.456C148.711 117.456 148.447 117.504 148.207 117.6C147.967 117.688 147.763 117.816 147.595 117.984C147.427 118.144 147.295 118.336 147.199 118.56C147.103 118.784 147.055 119.024 147.055 119.28V120.24C147.055 120.528 147.103 120.792 147.199 121.032C147.295 121.272 147.427 121.476 147.595 121.644C147.763 121.812 147.967 121.944 148.207 122.04C148.447 122.136 148.711 122.184 148.999 122.184ZM155.194 123.12C154.842 123.12 154.53 123.072 154.258 122.976C153.994 122.872 153.77 122.732 153.586 122.556C153.402 122.38 153.262 122.172 153.166 121.932C153.07 121.692 153.022 121.428 153.022 121.14C153.022 120.508 153.206 120.052 153.574 119.772C153.95 119.492 154.486 119.352 155.182 119.352H157.246V118.92C157.246 118.376 157.122 118 156.874 117.792C156.634 117.584 156.27 117.48 155.782 117.48C155.326 117.48 154.994 117.568 154.786 117.744C154.578 117.912 154.462 118.104 154.438 118.32H153.382C153.398 118.064 153.466 117.828 153.586 117.612C153.714 117.388 153.882 117.196 154.09 117.036C154.306 116.876 154.562 116.752 154.858 116.664C155.154 116.568 155.482 116.52 155.842 116.52C156.594 116.52 157.19 116.7 157.63 117.06C158.078 117.412 158.302 117.992 158.302 118.8V121.38C158.302 121.716 158.302 122.012 158.302 122.268C158.31 122.516 158.33 122.76 158.362 123H157.438C157.414 122.816 157.398 122.644 157.39 122.484C157.382 122.316 157.378 122.128 157.378 121.92C157.21 122.256 156.938 122.54 156.562 122.772C156.186 123.004 155.73 123.12 155.194 123.12ZM155.422 122.16C155.67 122.16 155.902 122.128 156.118 122.064C156.342 121.992 156.538 121.892 156.706 121.764C156.874 121.628 157.006 121.464 157.102 121.272C157.198 121.08 157.246 120.856 157.246 120.6V120.168H155.362C154.97 120.168 154.662 120.248 154.438 120.408C154.214 120.56 154.102 120.804 154.102 121.14C154.102 121.436 154.206 121.68 154.414 121.872C154.63 122.064 154.966 122.16 155.422 122.16ZM159.447 122.064H160.227C160.315 121.944 160.395 121.76 160.467 121.512C160.539 121.264 160.603 120.972 160.659 120.636C160.715 120.3 160.755 119.936 160.779 119.544C160.811 119.144 160.827 118.736 160.827 118.32V116.64H165.267V122.064H166.167V124.5H165.159V123H160.455V124.5H159.447V122.064ZM164.211 122.064V117.576H161.859V118.56C161.859 118.896 161.847 119.232 161.823 119.568C161.799 119.896 161.763 120.212 161.715 120.516C161.667 120.812 161.607 121.096 161.535 121.368C161.471 121.632 161.395 121.864 161.307 122.064H164.211ZM169.362 123.12C169.01 123.12 168.698 123.072 168.426 122.976C168.162 122.872 167.938 122.732 167.754 122.556C167.57 122.38 167.43 122.172 167.334 121.932C167.238 121.692 167.19 121.428 167.19 121.14C167.19 120.508 167.374 120.052 167.742 119.772C168.118 119.492 168.654 119.352 169.35 119.352H171.414V118.92C171.414 118.376 171.29 118 171.042 117.792C170.802 117.584 170.438 117.48 169.95 117.48C169.494 117.48 169.162 117.568 168.954 117.744C168.746 117.912 168.63 118.104 168.606 118.32H167.55C167.566 118.064 167.634 117.828 167.754 117.612C167.882 117.388 168.05 117.196 168.258 117.036C168.474 116.876 168.73 116.752 169.026 116.664C169.322 116.568 169.65 116.52 170.01 116.52C170.762 116.52 171.358 116.7 171.798 117.06C172.246 117.412 172.47 117.992 172.47 118.8V121.38C172.47 121.716 172.47 122.012 172.47 122.268C172.478 122.516 172.498 122.76 172.53 123H171.606C171.582 122.816 171.566 122.644 171.558 122.484C171.55 122.316 171.546 122.128 171.546 121.92C171.378 122.256 171.106 122.54 170.73 122.772C170.354 123.004 169.898 123.12 169.362 123.12ZM169.59 122.16C169.838 122.16 170.07 122.128 170.286 122.064C170.51 121.992 170.706 121.892 170.874 121.764C171.042 121.628 171.174 121.464 171.27 121.272C171.366 121.08 171.414 120.856 171.414 120.6V120.168H169.53C169.138 120.168 168.83 120.248 168.606 120.408C168.382 120.56 168.27 120.804 168.27 121.14C168.27 121.436 168.374 121.68 168.582 121.872C168.798 122.064 169.134 122.16 169.59 122.16ZM174.335 116.64H175.391V119.292H176.291C176.323 118.836 176.423 118.436 176.591 118.092C176.759 117.74 176.971 117.448 177.227 117.216C177.491 116.984 177.791 116.812 178.127 116.7C178.463 116.58 178.819 116.52 179.195 116.52C179.603 116.52 179.983 116.588 180.335 116.724C180.695 116.852 181.007 117.048 181.271 117.312C181.535 117.568 181.743 117.892 181.895 118.284C182.055 118.676 182.135 119.128 182.135 119.64V119.88C182.135 120.424 182.055 120.9 181.895 121.308C181.743 121.716 181.535 122.056 181.271 122.328C181.007 122.592 180.695 122.792 180.335 122.928C179.983 123.056 179.603 123.12 179.195 123.12C178.819 123.12 178.459 123.064 178.115 122.952C177.779 122.832 177.479 122.652 177.215 122.412C176.959 122.172 176.747 121.872 176.579 121.512C176.419 121.144 176.323 120.716 176.291 120.228H175.391V123H174.335V116.64ZM179.195 122.16C179.435 122.16 179.667 122.12 179.891 122.04C180.115 121.952 180.311 121.82 180.479 121.644C180.655 121.46 180.795 121.224 180.899 120.936C181.003 120.648 181.055 120.296 181.055 119.88V119.64C181.055 119.256 181.003 118.928 180.899 118.656C180.795 118.384 180.655 118.16 180.479 117.984C180.311 117.808 180.115 117.68 179.891 117.6C179.667 117.52 179.435 117.48 179.195 117.48C178.955 117.48 178.723 117.52 178.499 117.6C178.275 117.68 178.075 117.808 177.899 117.984C177.731 118.16 177.595 118.384 177.491 118.656C177.387 118.928 177.335 119.256 177.335 119.64V119.88C177.335 120.296 177.387 120.648 177.491 120.936C177.595 121.224 177.731 121.46 177.899 121.644C178.075 121.82 178.275 121.952 178.499 122.04C178.723 122.12 178.955 122.16 179.195 122.16Z" fill="#6B360D"/>
<g opacity="0.75">
<rect opacity="0.25" x="125" y="114" width="2" height="8" fill="#6B360D"/>
<rect x="125" y="120" width="2" height="2" fill="#6B360D"/>
</g>
<g opacity="0.75">
<path d="M285.535 121.535C285.731 121.34 285.731 121.024 285.535 120.828L282.707 118L285.535 115.171C285.731 114.976 285.731 114.66 285.535 114.464C285.34 114.269 285.024 114.269 284.828 114.464L282 117.293L279.171 114.464C278.976 114.269 278.66 114.269 278.464 114.464C278.269 114.66 278.269 114.976 278.464 115.171L281.293 118L278.464 120.828C278.269 121.024 278.269 121.34 278.464 121.535C278.66 121.731 278.976 121.731 279.171 121.535L282 118.707L284.828 121.535C285.024 121.731 285.34 121.731 285.535 121.535Z" fill="#6B360D"/>
</g>
<path opacity="0.75" d="M285.215 152.188H283.835V154H282.971V152.188H278.999V151.384C279.415 150.48 279.759 149.608 280.031 148.768C280.303 147.928 280.519 147.048 280.679 146.128H281.567V146.272C281.247 148 280.707 149.704 279.947 151.384H282.971V147.544H283.835V151.384H285.215V152.188Z" fill="#6B360D"/>
<path d="M125.962 154V141.4H135.466V142.93H127.744V146.53H131.668C133.168 146.53 134.308 146.842 135.088 147.466C135.868 148.09 136.258 148.996 136.258 150.184C136.258 151.408 135.832 152.35 134.98 153.01C134.14 153.67 132.934 154 131.362 154H125.962ZM127.744 152.578H131.29C132.334 152.578 133.12 152.38 133.648 151.984C134.188 151.588 134.458 151 134.458 150.22C134.458 148.708 133.402 147.952 131.29 147.952H127.744V152.578ZM142.926 154.108C141.966 154.108 141.114 153.898 140.37 153.478C139.626 153.058 139.038 152.482 138.606 151.75C138.174 151.006 137.958 150.166 137.958 149.23C137.958 148.282 138.174 147.442 138.606 146.71C139.038 145.978 139.626 145.408 140.37 145C141.114 144.58 141.966 144.37 142.926 144.37C143.874 144.37 144.72 144.58 145.464 145C146.22 145.408 146.808 145.978 147.228 146.71C147.66 147.43 147.876 148.27 147.876 149.23C147.876 150.178 147.66 151.018 147.228 151.75C146.808 152.482 146.22 153.058 145.464 153.478C144.72 153.898 143.874 154.108 142.926 154.108ZM142.926 152.596C143.538 152.596 144.084 152.458 144.564 152.182C145.056 151.906 145.44 151.516 145.716 151.012C145.992 150.496 146.13 149.902 146.13 149.23C146.13 148.546 145.992 147.958 145.716 147.466C145.44 146.962 145.056 146.572 144.564 146.296C144.084 146.02 143.538 145.882 142.926 145.882C142.314 145.882 141.768 146.02 141.288 146.296C140.808 146.572 140.424 146.962 140.136 147.466C139.848 147.958 139.704 148.546 139.704 149.23C139.704 149.902 139.848 150.496 140.136 151.012C140.424 151.516 140.808 151.906 141.288 152.182C141.768 152.458 142.314 152.596 142.926 152.596ZM148.717 153.982L148.825 152.524C148.909 152.536 148.987 152.548 149.059 152.56C149.131 152.572 149.197 152.578 149.257 152.578C149.641 152.578 149.941 152.446 150.157 152.182C150.385 151.918 150.553 151.57 150.661 151.138C150.769 150.694 150.847 150.196 150.895 149.644C150.943 149.092 150.979 148.54 151.003 147.988L151.165 144.46H158.491V154H156.763V145.468L157.177 145.972H152.281L152.677 145.45L152.551 148.096C152.515 148.936 152.449 149.722 152.353 150.454C152.257 151.186 152.107 151.828 151.903 152.38C151.711 152.932 151.441 153.364 151.093 153.676C150.757 153.988 150.319 154.144 149.779 154.144C149.623 154.144 149.455 154.126 149.275 154.09C149.107 154.066 148.921 154.03 148.717 153.982ZM166.08 154.108C165.06 154.108 164.16 153.898 163.38 153.478C162.612 153.058 162.012 152.482 161.58 151.75C161.16 151.018 160.95 150.178 160.95 149.23C160.95 148.282 161.154 147.442 161.562 146.71C161.982 145.978 162.552 145.408 163.272 145C164.004 144.58 164.826 144.37 165.738 144.37C166.662 144.37 167.478 144.574 168.186 144.982C168.894 145.39 169.446 145.966 169.842 146.71C170.25 147.442 170.454 148.3 170.454 149.284C170.454 149.356 170.448 149.44 170.436 149.536C170.436 149.632 170.43 149.722 170.418 149.806H162.3V148.564H169.518L168.816 148.996C168.828 148.384 168.702 147.838 168.438 147.358C168.174 146.878 167.808 146.506 167.34 146.242C166.884 145.966 166.35 145.828 165.738 145.828C165.138 145.828 164.604 145.966 164.136 146.242C163.668 146.506 163.302 146.884 163.038 147.376C162.774 147.856 162.642 148.408 162.642 149.032V149.32C162.642 149.956 162.786 150.526 163.074 151.03C163.374 151.522 163.788 151.906 164.316 152.182C164.844 152.458 165.45 152.596 166.134 152.596C166.698 152.596 167.208 152.5 167.664 152.308C168.132 152.116 168.54 151.828 168.888 151.444L169.842 152.56C169.41 153.064 168.87 153.448 168.222 153.712C167.586 153.976 166.872 154.108 166.08 154.108ZM173.135 154V144.46H177.563C178.679 144.46 179.555 144.676 180.191 145.108C180.839 145.528 181.163 146.128 181.163 146.908C181.163 147.688 180.857 148.294 180.245 148.726C179.645 149.146 178.847 149.356 177.851 149.356L178.121 148.888C179.261 148.888 180.107 149.098 180.659 149.518C181.211 149.938 181.487 150.556 181.487 151.372C181.487 152.2 181.175 152.848 180.551 153.316C179.939 153.772 178.997 154 177.725 154H173.135ZM174.827 152.668H177.599C178.319 152.668 178.859 152.56 179.219 152.344C179.579 152.116 179.759 151.756 179.759 151.264C179.759 150.76 179.591 150.394 179.255 150.166C178.931 149.926 178.415 149.806 177.707 149.806H174.827V152.668ZM174.827 148.564H177.419C178.079 148.564 178.577 148.444 178.913 148.204C179.261 147.952 179.435 147.604 179.435 147.16C179.435 146.704 179.261 146.362 178.913 146.134C178.577 145.906 178.079 145.792 177.419 145.792H174.827V148.564ZM190.042 154V151.984L189.952 151.606V148.168C189.952 147.436 189.736 146.872 189.304 146.476C188.884 146.068 188.248 145.864 187.396 145.864C186.832 145.864 186.28 145.96 185.74 146.152C185.2 146.332 184.744 146.578 184.372 146.89L183.652 145.594C184.144 145.198 184.732 144.898 185.416 144.694C186.112 144.478 186.838 144.37 187.594 144.37C188.902 144.37 189.91 144.688 190.618 145.324C191.326 145.96 191.68 146.932 191.68 148.24V154H190.042ZM186.91 154.108C186.202 154.108 185.578 153.988 185.038 153.748C184.51 153.508 184.102 153.178 183.814 152.758C183.526 152.326 183.382 151.84 183.382 151.3C183.382 150.784 183.502 150.316 183.742 149.896C183.994 149.476 184.396 149.14 184.948 148.888C185.512 148.636 186.268 148.51 187.216 148.51H190.24V149.752H187.288C186.424 149.752 185.842 149.896 185.542 150.184C185.242 150.472 185.092 150.82 185.092 151.228C185.092 151.696 185.278 152.074 185.65 152.362C186.022 152.638 186.538 152.776 187.198 152.776C187.846 152.776 188.41 152.632 188.89 152.344C189.382 152.056 189.736 151.636 189.952 151.084L190.294 152.272C190.066 152.836 189.664 153.286 189.088 153.622C188.512 153.946 187.786 154.108 186.91 154.108ZM200.893 154V150.652L201.163 150.976H198.121C196.849 150.976 195.853 150.706 195.133 150.166C194.425 149.626 194.071 148.84 194.071 147.808C194.071 146.704 194.449 145.87 195.205 145.306C195.973 144.742 196.993 144.46 198.265 144.46H202.441V154H200.893ZM193.981 154L196.573 150.346H198.355L195.835 154H193.981ZM200.893 150.112V145.486L201.163 145.972H198.319C197.527 145.972 196.915 146.122 196.483 146.422C196.051 146.71 195.835 147.19 195.835 147.862C195.835 149.11 196.639 149.734 198.247 149.734H201.163L200.893 150.112Z" fill="#6B360D"/>
</g>
<defs>
<linearGradient id="paint0_linear_1401_51479" x1="150" y1="0" x2="150" y2="48" gradientUnits="userSpaceOnUse">
<stop stop-color="white"/>
<stop offset="1" stop-color="white" stop-opacity="0"/>
</linearGradient>
<linearGradient id="paint1_linear_1401_51479" x1="150" y1="168" x2="150" y2="144" gradientUnits="userSpaceOnUse">
<stop stop-color="white"/>
<stop offset="1" stop-color="white" stop-opacity="0"/>
</linearGradient>
<clipPath id="clip0_1401_51479">
<rect width="144" height="96" fill="white" transform="translate(4 4)"/>
</clipPath>
<clipPath id="clip1_1401_51479">
<rect width="144" height="96" fill="white" transform="translate(152 4.00049)"/>
</clipPath>
<clipPath id="clip2_1401_51479">
<rect width="108" height="60" fill="white" transform="translate(4 104)"/>
</clipPath>
<clipPath id="clip3_1401_51479">
<rect width="180" height="60" fill="white" transform="translate(116 104)"/>
</clipPath>
</defs>
</svg>
