<svg width="140" height="32" viewBox="0 0 140 32" fill="none" xmlns="http://www.w3.org/2000/svg">
<path fill-rule="evenodd" clip-rule="evenodd" d="M16.6425 20.9772C16.4199 22.6192 16.928 23.9169 17.2598 24.4313C17.941 24.0021 18.7353 23.787 19.5401 23.814C20.7642 23.814 21.8498 24.2507 21.8498 25.204C21.8498 25.9599 21.0246 26.7263 19.4498 26.7263C18.7275 26.7263 17.8876 26.3567 17.1737 25.7604L16.4619 25.0549C16.0376 24.5082 15.775 23.8535 15.7039 23.1652L13.5979 22.5982L14.8199 20.8072C12.1385 19.6376 9.21993 14.8271 9.22413 11.3227C9.23672 2.17 22.7862 2.58994 22.7758 11.182C22.7695 15.0077 19.4498 20.2171 16.6425 20.9772ZM19.4477 25.7268C20.4157 25.7268 20.8461 25.3468 20.8461 25.204C20.8461 25.2481 20.7978 24.8155 19.538 24.8155C19.0107 24.7984 18.4874 24.9132 18.0157 25.1494C18.4241 25.4814 18.9232 25.6827 19.4477 25.7268ZM15.9999 6.53743C13.3291 6.03139 10.7758 8.76104 11.1853 11.4151L11.7144 11.3857C12.4766 9.33426 13.8771 7.84556 15.9999 7.08126V6.53743ZM14.2572 26.3987C14.9795 26.426 15.517 26.0481 15.9369 25.6428L16.5879 26.3798C16.0818 26.8565 15.3154 27.4024 14.3412 27.4024C13.9568 27.3985 13.5802 27.2942 13.2487 27.0997C12.9171 26.9052 12.6423 26.6274 12.4514 26.2937L12.9133 25.8318C13.2747 26.1821 13.7541 26.3843 14.2572 26.3987Z" fill="#B6D1C5"/>
<path fill-rule="evenodd" clip-rule="evenodd" d="M63.0598 14.588C62.5275 19.5027 55.6741 22.9764 50.1849 25.5439C45.6639 21.523 40.1921 16.2146 40.9646 11.2628C41.8658 5.49139 48.7316 4.82537 52.5767 9.75742L53.7899 11.5104L54.8546 11.0523L54.0895 8.824C59.024 5.99648 63.6367 9.18548 63.0598 14.588Z" fill="#D7DD93"/>
<path fill-rule="evenodd" clip-rule="evenodd" d="M95.0483 24.0745C97.5434 22.4119 96.8654 17.725 92.9043 17.725C88.1258 17.725 87.8578 24.5326 92.856 24.649H92.84C94.5847 24.649 94.716 26.8355 93.0597 27C86.2766 27 85.0786 19.7825 88.8253 16.7128L89.5489 13.3849C90.9371 12.6409 94.2979 12.6839 96.1096 13.2609L96.8413 16.5938C100.028 19.079 99.6741 24.611 95.863 26.423C95.9939 25.9996 95.9861 25.5488 95.8407 25.1297C95.6953 24.7105 95.4191 24.3427 95.0483 24.0745V24.0745ZM92.9472 14.4782C92.8278 14.4733 92.7087 14.4914 92.597 14.5314C92.4853 14.5714 92.3835 14.6325 92.2976 14.711C92.2118 14.7894 92.1438 14.8835 92.0978 14.9876C92.0517 15.0917 92.0287 15.2035 92.0299 15.3163C92.0312 15.4291 92.0568 15.5405 92.1052 15.6436C92.1536 15.7467 92.2237 15.8395 92.3113 15.9161C92.3989 15.9928 92.5021 16.0519 92.6146 16.0896C92.7272 16.1274 92.8467 16.1431 92.9659 16.1358C94.1049 16.1358 94.1049 14.4782 92.9472 14.4782ZM91.3606 10.543C90.5834 9.27761 90.2108 8.44755 90.6155 7.7592L89.7901 7.60989L89.3613 5.78274L92.2745 6.54194C93.5984 5.95989 94.2121 6.3901 95.3538 8.14387C96.4661 9.84955 96.2999 10.8188 94.7883 11.6615C93.2768 12.5042 92.3415 12.155 91.3606 10.543ZM94.0406 8.81956C93.9602 8.68681 93.8707 8.55916 93.7726 8.43743C93.6467 8.86258 93.2366 9.19663 92.2477 9.14602C92.3385 9.339 92.4433 9.52587 92.5612 9.7053C93.0972 10.5455 93.3652 10.7024 94.0004 10.3607C94.6356 10.0191 94.59 9.72808 94.0433 8.81956H94.0406ZM84.3925 10.2013L84.1245 11.125C84.8737 11.1733 85.6147 11.3024 86.3328 11.5097L87.2521 15.7081C86.7701 16.1597 86.3546 16.6704 86.0166 17.2265C85.6846 16.8159 85.2531 16.4867 84.7582 16.2665C84.2634 16.0462 83.7197 15.9415 83.1731 15.9612C78.349 15.9612 78.1239 22.8876 83.2562 22.8876C83.8592 22.9026 84.4565 22.7738 84.9928 22.5131C85.121 23.3204 85.3833 24.1036 85.77 24.8337C84.9989 25.128 84.1736 25.2751 83.3419 25.2665C76.5507 25.2665 75.3447 18.0515 79.0967 14.9792L79.8016 11.6413C80.3547 11.3824 80.9532 11.2212 81.5677 11.1655L83.023 8.71833C82.3905 7.40238 82.6639 6.75452 84.6498 5.71441C86.6357 4.6743 87.429 4.70214 88.375 6.24839C89.3586 7.86296 88.911 8.58674 87.1985 9.48766C85.9683 10.133 85.0786 10.4063 84.3898 10.2013H84.3925ZM83.0337 12.813C82.9144 12.8081 82.7952 12.8262 82.6836 12.8662C82.5719 12.9062 82.47 12.9673 82.3842 13.0458C82.2983 13.1242 82.2303 13.2183 82.1843 13.3224C82.1383 13.4265 82.1152 13.5383 82.1165 13.6511C82.1178 13.7639 82.1434 13.8753 82.1917 13.9784C82.2401 14.0815 82.3102 14.1743 82.3978 14.251C82.4854 14.3276 82.5886 14.3867 82.7012 14.4244C82.8137 14.4622 82.9333 14.4779 83.0525 14.4706C84.1888 14.4706 84.1888 12.813 83.0337 12.813ZM86.9546 6.97722C86.6062 6.40782 86.4749 6.41541 85.3734 6.97722C85.1069 7.09586 84.864 7.25678 84.6551 7.45299C84.9886 7.44723 85.3165 7.5341 85.5981 7.70282C85.8796 7.87154 86.1025 8.11467 86.239 8.402L86.3114 8.36404C87.2869 7.81994 87.3164 7.55928 86.9546 6.97722Z" fill="#FECE30"/>
<path fill-rule="evenodd" clip-rule="evenodd" d="M127.21 26.5C124.206 26.5 121.816 25.2576 120.479 22.9996C119.142 20.7415 119.106 17.7477 120.408 15.2195C122.012 12.0978 121.898 9.44898 120.28 7.95327C119.137 6.89422 117.758 6.97142 116.475 7.83507C114.35 9.26081 113.972 12.3704 115.46 16.8238L113.488 17.3714C111.565 11.6202 113.131 7.89296 115.493 6.30317C116.381 5.7075 117.437 5.43022 118.496 5.51494C119.555 5.59966 120.557 6.04158 121.343 6.77118C122.141 7.50939 124.52 10.3464 121.669 15.8926C120.599 17.9745 120.611 20.411 121.7 22.2517C122.789 24.0924 124.728 25.0525 127.217 25.0525C129.3 25.0525 131.05 24.283 132.281 22.8259C133.369 21.5022 133.963 19.8281 133.958 18.0999C133.958 15.6489 132.682 13.1762 129.834 13.1762C128.703 13.1762 127.281 14.5102 126.974 15.8902C127.398 16.1537 127.9 16.257 128.392 16.1821C128.883 16.1072 129.333 15.8588 129.664 15.48L131.027 17.6995C129.957 18.2399 128.174 17.8442 127.082 17.1832C128.235 18.5824 130.011 19.7597 130.814 19.4026L130.177 21.7186C129.352 21.733 128.287 20.6089 127.479 19.434C127.658 20.4942 127.737 21.5694 127.715 22.6449L125.54 22.739C126.029 21.0994 126.164 19.3709 125.935 17.6729C125.783 18.9756 125.245 20.3001 123.974 20.9707L122.968 18.9298C124.546 18.7827 125.483 17.2797 125.748 16.1C125.726 15.5367 125.815 14.9747 126.011 14.4474C126.206 13.9201 126.503 13.4383 126.884 13.0307C127.265 12.623 127.723 12.2979 128.23 12.0746C128.737 11.8514 129.282 11.7346 129.834 11.7311C133.096 11.7311 135.375 14.351 135.375 18.1023C135.375 20.1775 134.657 22.1858 133.346 23.7715C132.295 25.0164 130.373 26.5 127.21 26.5ZM118.644 23.9139C119.517 26.4349 115.101 27.5977 114.628 25.0405C114.194 22.7101 113.407 18.9226 113.407 18.9226L116.674 18.0179C116.674 18.0179 117.855 21.6462 118.644 23.9139ZM116.378 23.5665C116.09 22.8235 115.835 22.2348 115.434 22.2976C114.843 22.3892 115.408 25.4723 116.126 25.2938C116.674 25.1611 116.69 24.3747 116.378 23.5665Z" fill="#F6C0B1"/>
</svg>
