<svg width="140" height="32" viewBox="0 0 140 32" fill="none" xmlns="http://www.w3.org/2000/svg">
<path fill-rule="evenodd" clip-rule="evenodd" d="M22.5712 24.2967C27.6741 17.6157 23.472 9.21441 16.1184 9.21441C10.8038 9.21441 7.66004 12.1201 7.66004 16.3832C7.66004 24.9353 18.9731 24.6714 18.9757 18.6644C18.9757 14.4225 15.4292 14.3754 14.0716 15.9755C14.1206 16.2112 14.278 16.6825 14.3297 16.8899C16.6862 16.4586 16.4384 20.2693 14.5878 20.2693C12.0557 20.2693 10.3573 19.2324 10.3547 16.428C10.3547 9.5302 22.2021 9.86719 22.2021 18.5489C22.2021 28.7978 4.08776 28.9039 4 16.1782C4 10.93 8.49632 6 15.9351 6C27.1114 6 31.4425 17.5097 24.9871 25.409L22.5712 24.2967Z" fill="#DE64D2"/>
<path fill-rule="evenodd" clip-rule="evenodd" d="M43.9111 27L41.935 24.7655C48.6535 19.4103 34.5371 10.4001 45.0253 5C45.0253 5 46.6438 7.12211 46.6001 7.24694C39.8533 11.9131 53.7355 20.2367 43.9111 27ZM51.6306 27L49.6544 24.7655C56.373 19.4103 42.2566 10.4001 52.7448 5C52.7448 5 54.3633 7.12211 54.3196 7.24694C47.5728 11.9131 61.455 20.2367 51.6306 27ZM59.3501 27L57.3739 24.7655C64.0796 19.4103 49.9761 10.4001 60.4617 5C60.4617 5 62.0802 7.12211 62.0365 7.24694C55.2922 11.9131 69.1744 20.2367 59.3501 27Z" fill="#EA5C3D"/>
<path fill-rule="evenodd" clip-rule="evenodd" d="M96.6438 6.00137C96.7543 5.95088 99 7.31185 99 7.31185C94.3202 17.4663 84.2823 4.94818 79.3814 11.5727L77 9.88953C83.0916 0.259309 92.4261 12.6139 96.6438 6.00137ZM96.6438 13.215C96.7543 13.1645 99 14.5255 99 14.5255C94.3202 24.6799 84.2823 12.1618 79.3814 18.7864L77 17.1032C83.0916 7.47295 92.4261 19.8275 96.6438 13.215ZM96.6438 20.4287C96.7543 20.3782 99 21.7391 99 21.7391C94.3202 31.8935 84.2823 19.3755 79.3814 26L77 24.3168C83.0916 14.6866 92.4261 27.0412 96.6438 20.4287Z" fill="#2992DE"/>
<path fill-rule="evenodd" clip-rule="evenodd" d="M134.842 10.8462L113.168 10.4796L113 7.1486L135 7L134.842 10.8462ZM134.539 17.751H113.536L113.368 14.4274L134.705 13.9518L134.539 17.751ZM134.224 25H113.911L113.745 21.6665L134.4 21.2058L134.224 25Z" fill="#559D3E"/>
</svg>
