<svg width="76" height="16" viewBox="0 0 76 16" fill="none" xmlns="http://www.w3.org/2000/svg">
<path fill-rule="evenodd" clip-rule="evenodd" d="M23.9556 13.5L22.9675 12.3828C26.3267 9.70517 19.2686 5.20007 24.5127 2.5C24.5127 2.5 25.3219 3.56105 25.3 3.62347C21.9266 5.95654 28.8677 10.1184 23.9556 13.5ZM27.8153 13.5L26.8272 12.3828C30.1865 9.70517 23.1283 5.20007 28.3724 2.5C28.3724 2.5 29.1817 3.56105 29.1598 3.62347C25.7864 5.95654 32.7275 10.1184 27.8153 13.5ZM31.6751 13.5L30.687 12.3828C34.0398 9.70517 26.988 5.20007 32.2309 2.5C32.2309 2.5 33.0401 3.56105 33.0182 3.62347C29.6461 5.95654 36.5872 10.1184 31.6751 13.5Z" fill="#EA5C3D"/>
<path fill-rule="evenodd" clip-rule="evenodd" d="M52.3219 3.00069C52.3771 2.97544 53.5 3.65593 53.5 3.65593C51.1601 8.73313 46.1411 2.47409 43.6907 5.78635L42.5 4.94476C45.5458 0.129655 50.2131 6.30694 52.3219 3.00069ZM52.3219 6.60751C52.3771 6.58226 53.5 7.26275 53.5 7.26275C51.1601 12.34 46.1411 6.08091 43.6907 9.39318L42.5 8.55159C45.5458 3.73648 50.2131 9.91376 52.3219 6.60751ZM52.3219 10.2143C52.3771 10.1891 53.5 10.8696 53.5 10.8696C51.1601 15.9468 46.1411 9.68773 43.6907 13L42.5 12.1584C45.5458 7.3433 50.2131 13.5206 52.3219 10.2143Z" fill="#2992DE"/>
<path fill-rule="evenodd" clip-rule="evenodd" d="M73.4211 5.42309L62.5841 5.23982L62.5 3.5743L73.5 3.5L73.4211 5.42309ZM73.2696 8.87548H62.7679L62.6838 7.21368L73.3525 6.97592L73.2696 8.87548ZM73.1118 12.5H62.9555L62.8727 10.8332L73.1998 10.6029L73.1118 12.5Z" fill="#559D3E"/>
<path fill-rule="evenodd" clip-rule="evenodd" d="M11.2856 12.1484C13.837 8.80786 11.736 4.60721 8.05919 4.60721C5.40192 4.60721 3.83002 6.06006 3.83002 8.19161C3.83002 12.4677 9.48656 12.3357 9.48785 9.33221C9.48785 7.21126 7.71461 7.18769 7.03578 7.98776C7.0603 8.10559 7.13902 8.34125 7.16483 8.44494C8.34312 8.22931 8.21922 10.1346 7.29389 10.1346C6.02785 10.1346 5.17866 9.61618 5.17737 8.214C5.17737 4.7651 11.1011 4.9336 11.1011 9.27447C11.1011 14.3989 2.04388 14.4519 2 8.0891C2 5.46501 4.24816 3 7.96756 3C13.5557 3 15.7213 8.75484 12.4936 12.7045L11.2856 12.1484Z" fill="#DE64D2"/>
</svg>
