<svg width="168" height="96" viewBox="0 0 168 96" fill="none" xmlns="http://www.w3.org/2000/svg">
<g clip-path="url(#clip0_1403_51508)">
<rect x="-0.5" y="0.5" width="167" height="95" rx="1.5" transform="matrix(-1 0 0 1 167 0.000488281)" fill="white" stroke="#6B360D"/>
<path opacity="0.05" d="M134 96.0005L79.3333 0.000488281H47L101.667 96.0005H134Z" fill="#6B360D"/>
<path opacity="0.1" d="M97.3333 0.000488281L152 96.0005H142L87.3333 0.000488281H97.3333Z" fill="#6B360D"/>
<path d="M19.052 79.9525C19.676 80.1925 20.15 80.5345 20.474 80.9785C20.81 81.4105 20.978 81.9325 20.978 82.5445V82.7425C20.978 83.7385 20.594 84.5305 19.826 85.1185C19.07 85.7065 18.056 86.0005 16.784 86.0005H9.656V74.1925H16.406C17.726 74.1925 18.752 74.4565 19.484 74.9845C20.228 75.5005 20.6 76.2325 20.6 77.1805V77.3965C20.6 77.9605 20.468 78.4585 20.204 78.8905C19.94 79.3225 19.556 79.6765 19.052 79.9525ZM11.456 75.7945V79.2325H16.388C17.984 79.2325 18.782 78.6925 18.782 77.6125V77.3965C18.782 76.8805 18.578 76.4845 18.17 76.2085C17.762 75.9325 17.174 75.7945 16.406 75.7945H11.456ZM19.16 82.4905C19.16 81.3985 18.356 80.8525 16.748 80.8525H11.456V84.3985H16.748C17.504 84.3985 18.092 84.2485 18.512 83.9485C18.944 83.6365 19.16 83.2165 19.16 82.6885V82.4905ZM25.3908 77.0905V80.7625H31.7988V77.0905H33.5268V86.0005H31.7988V82.2925H25.3908V86.0005H23.6628V77.0905H25.3908ZM46.9327 77.0905V77.3425L41.8567 86.9905C41.4607 87.7345 40.9987 88.2625 40.4707 88.5745C39.9547 88.8985 39.2467 89.0605 38.3467 89.0605H36.5467V87.5305H38.3467C38.8507 87.5305 39.2287 87.4525 39.4807 87.2965C39.7327 87.1525 39.9727 86.8585 40.2007 86.4145L40.3627 86.1265L35.7187 77.3425V77.0905H37.5547L41.3347 84.4345L45.0967 77.0905H46.9327ZM50.8615 77.0905V84.4705H56.0995V77.0905H57.8275V84.4705H63.0475V77.0905H64.7755V86.0005H49.1335V77.0905H50.8615ZM78.8585 84.4705V86.0005H77.6705C77.0825 86.0005 76.5905 85.8865 76.1945 85.6585C75.7985 85.4305 75.5225 85.1065 75.3665 84.6865C74.8865 85.2025 74.3105 85.5865 73.6385 85.8385C72.9665 86.0905 72.1745 86.2165 71.2625 86.2165C69.9785 86.2165 68.9885 85.9945 68.2925 85.5505C67.5965 85.0945 67.2485 84.4465 67.2485 83.6065C67.2485 82.8865 67.5185 82.3105 68.0585 81.8785C68.5985 81.4465 69.3905 81.1765 70.4345 81.0685L75.2405 80.5645C75.2045 79.8925 74.9225 79.3825 74.3945 79.0345C73.8665 78.6865 73.1105 78.5125 72.1265 78.5125C71.1785 78.5125 70.4225 78.6745 69.8585 78.9985C69.2945 79.3225 69.0125 79.7545 69.0125 80.2945V80.3665H67.3025V80.2945C67.3025 79.6225 67.5005 79.0285 67.8965 78.5125C68.3045 77.9845 68.8745 77.5825 69.6065 77.3065C70.3385 77.0185 71.1845 76.8745 72.1445 76.8745C73.6685 76.8745 74.8505 77.2105 75.6905 77.8825C76.5305 78.5545 76.9505 79.4965 76.9505 80.7085V83.4805C76.9505 83.7925 77.0465 84.0385 77.2385 84.2185C77.4305 84.3865 77.7065 84.4705 78.0665 84.4705H78.8585ZM71.2265 84.6865C72.1985 84.6865 73.0325 84.5365 73.7285 84.2365C74.4245 83.9245 74.9285 83.4865 75.2405 82.9225V81.9685L70.8125 82.4365C70.1885 82.4965 69.7205 82.6225 69.4085 82.8145C69.1085 83.0065 68.9585 83.2705 68.9585 83.6065C68.9585 84.3265 69.7145 84.6865 71.2265 84.6865ZM90.1773 82.1125H81.5913C81.6513 82.8925 81.9873 83.5105 82.5993 83.9665C83.2113 84.4105 84.0273 84.6325 85.0473 84.6325C85.9953 84.6325 86.7633 84.4765 87.3513 84.1645C87.9513 83.8405 88.2753 83.4145 88.3233 82.8865H90.1773C90.0813 83.9305 89.5773 84.7465 88.6653 85.3345C87.7653 85.9225 86.5593 86.2165 85.0473 86.2165C83.9793 86.2165 83.0493 86.0365 82.2573 85.6765C81.4653 85.3045 80.8533 84.7825 80.4213 84.1105C80.0013 83.4385 79.7913 82.6525 79.7913 81.7525V81.3745C79.7913 80.4625 80.0013 79.6705 80.4213 78.9985C80.8533 78.3145 81.4653 77.7925 82.2573 77.4325C83.0493 77.0605 83.9793 76.8745 85.0473 76.8745C86.6433 76.8745 87.8973 77.2705 88.8093 78.0625C89.7213 78.8425 90.1773 79.9225 90.1773 81.3025V82.1125ZM85.0473 78.4585C84.0873 78.4585 83.3073 78.6565 82.7073 79.0525C82.1193 79.4365 81.7593 79.9765 81.6273 80.6725H88.3413C88.2333 79.9765 87.8913 79.4365 87.3153 79.0525C86.7393 78.6565 85.9833 78.4585 85.0473 78.4585ZM105.925 77.0905V86.0005H104.269V78.8725L103.855 79.6105L100.003 86.0005H98.4735L94.6215 79.6105L94.2075 78.8725V86.0005H92.5515V77.0905H94.9995L99.2475 84.2005L103.477 77.0905H105.925ZM120.009 84.4705V86.0005H118.821C118.233 86.0005 117.741 85.8865 117.345 85.6585C116.949 85.4305 116.673 85.1065 116.517 84.6865C116.037 85.2025 115.461 85.5865 114.789 85.8385C114.117 86.0905 113.325 86.2165 112.413 86.2165C111.129 86.2165 110.139 85.9945 109.443 85.5505C108.747 85.0945 108.399 84.4465 108.399 83.6065C108.399 82.8865 108.669 82.3105 109.209 81.8785C109.749 81.4465 110.541 81.1765 111.585 81.0685L116.391 80.5645C116.355 79.8925 116.073 79.3825 115.545 79.0345C115.017 78.6865 114.261 78.5125 113.277 78.5125C112.329 78.5125 111.573 78.6745 111.009 78.9985C110.445 79.3225 110.163 79.7545 110.163 80.2945V80.3665H108.453V80.2945C108.453 79.6225 108.651 79.0285 109.047 78.5125C109.455 77.9845 110.025 77.5825 110.757 77.3065C111.489 77.0185 112.335 76.8745 113.295 76.8745C114.819 76.8745 116.001 77.2105 116.841 77.8825C117.681 78.5545 118.101 79.4965 118.101 80.7085V83.4805C118.101 83.7925 118.197 84.0385 118.389 84.2185C118.581 84.3865 118.857 84.4705 119.217 84.4705H120.009ZM112.377 84.6865C113.349 84.6865 114.183 84.5365 114.879 84.2365C115.575 83.9245 116.079 83.4865 116.391 82.9225V81.9685L111.963 82.4365C111.339 82.4965 110.871 82.6225 110.559 82.8145C110.259 83.0065 110.109 83.2705 110.109 83.6065C110.109 84.3265 110.865 84.6865 112.377 84.6865ZM131.436 85.9825H129.708V83.0665H127.044L123.48 86.0005H121.248V85.7845L124.56 83.0665C123.492 83.0185 122.664 82.7485 122.076 82.2565C121.488 81.7525 121.194 81.0685 121.194 80.2045V80.0065C121.194 79.0825 121.512 78.3685 122.148 77.8645C122.796 77.3485 123.696 77.0905 124.848 77.0905H131.436V85.9825ZM129.708 81.5905V78.6025H124.974C123.642 78.6025 122.976 79.0705 122.976 80.0065V80.2045C122.976 81.1285 123.642 81.5905 124.974 81.5905H129.708Z" fill="#6B360D"/>
<g opacity="0.75">
<path d="M150.207 17.0851C150.207 17.081 150.207 17.077 150.207 17.073C150.207 17.073 150.207 17.0729 150.207 17.073C150.207 17.0725 150.207 17.0719 150.207 17.0715C150.207 17.0716 150.207 17.0714 150.207 17.0715L150.207 12.0715C150.207 11.7953 150.431 11.5715 150.707 11.5715C150.983 11.5715 151.207 11.7953 151.207 12.0715V15.8644L156.717 10.354C156.913 10.1587 157.229 10.1587 157.425 10.354C157.62 10.5492 157.62 10.8658 157.425 11.0611L151.914 16.5715L155.707 16.5715C155.983 16.5715 156.207 16.7953 156.207 17.0715C156.207 17.3476 155.983 17.5715 155.707 17.5715L150.707 17.5715C150.435 17.5715 150.214 17.3549 150.207 17.0851Z" fill="#6B360D"/>
</g>
<path opacity="0.75" d="M21.6 17.8205V18.0005H20.412L18.564 14.8805L16.716 18.0005H15.516V17.8205L17.82 14.0405L15.54 10.3085V10.1285H16.728L18.564 13.2005L20.388 10.1285H21.576V10.3085L19.308 14.0405L21.6 17.8205ZM24.5765 18.1445C23.8165 18.1445 23.2085 17.9245 22.7525 17.4845C22.2965 17.0445 22.0685 16.4605 22.0685 15.7325V14.3285C22.0685 13.5925 22.2965 13.0045 22.7525 12.5645C23.2085 12.1245 23.8165 11.9045 24.5765 11.9045C25.3445 11.9045 25.9565 12.1245 26.4125 12.5645C26.8765 13.0045 27.1085 13.5925 27.1085 14.3285V15.7325C27.1085 16.4605 26.8765 17.0445 26.4125 17.4845C25.9565 17.9245 25.3445 18.1445 24.5765 18.1445ZM24.5885 17.1245C25.0285 17.1245 25.3765 16.9965 25.6325 16.7405C25.8965 16.4845 26.0285 16.1405 26.0285 15.7085V14.3645C26.0285 13.9165 25.9005 13.5645 25.6445 13.3085C25.3885 13.0525 25.0365 12.9245 24.5885 12.9245C24.1485 12.9245 23.7965 13.0525 23.5325 13.3085C23.2765 13.5645 23.1485 13.9165 23.1485 14.3645V15.7085C23.1485 16.1485 23.2765 16.4965 23.5325 16.7525C23.7965 17.0005 24.1485 17.1245 24.5885 17.1245ZM32.9067 12.0485V18.0005H31.8147V15.9605C31.2707 16.0725 30.7707 16.1285 30.3147 16.1285C29.6267 16.1285 29.0827 15.9605 28.6827 15.6245C28.2827 15.2805 28.0827 14.8165 28.0827 14.2325V12.0485H29.1627V14.1125C29.1627 14.4485 29.2747 14.7045 29.4987 14.8805C29.7307 15.0565 30.0587 15.1445 30.4827 15.1445C30.8907 15.1445 31.3347 15.1005 31.8147 15.0125V12.0485H32.9067ZM39.7751 12.0485V12.2165L37.2911 18.6965C37.1071 19.1765 36.8711 19.5205 36.5831 19.7285C36.3031 19.9365 35.9151 20.0405 35.4191 20.0405H34.4711V19.0565H35.3231C35.5711 19.0565 35.7631 19.0125 35.8991 18.9245C36.0431 18.8365 36.1671 18.6525 36.2711 18.3725L36.3791 18.0725L34.0391 12.2165V12.0485H35.1431L36.9431 16.6685L38.6711 12.0485H39.7751Z" fill="#6B360D"/>
<path opacity="0.75" d="M154.123 81.0085C154.891 81.0085 155.503 81.2125 155.959 81.6205C156.423 82.0285 156.655 82.5725 156.655 83.2525V83.8165C156.655 84.5205 156.419 85.0845 155.947 85.5085C155.475 85.9245 154.847 86.1325 154.063 86.1325C153.271 86.1325 152.643 85.9565 152.179 85.6045C151.715 85.2445 151.483 84.7525 151.483 84.1285V84.0085H152.335V84.1285C152.335 84.5045 152.487 84.8005 152.791 85.0165C153.095 85.2325 153.507 85.3405 154.027 85.3405C154.571 85.3405 154.999 85.2085 155.311 84.9445C155.623 84.6725 155.779 84.3005 155.779 83.8285V83.2645C155.779 82.8165 155.619 82.4645 155.299 82.2085C154.987 81.9445 154.563 81.8125 154.027 81.8125C153.555 81.8125 153.167 81.9205 152.863 82.1365C152.559 82.3445 152.395 82.6205 152.371 82.9645H151.531L151.783 78.1285H156.343V78.9325H152.563L152.431 81.5725C152.855 81.1965 153.419 81.0085 154.123 81.0085Z" fill="#6B360D"/>
<g opacity="0.75">
<rect opacity="0.25" x="9" y="10.0005" width="2" height="8" fill="#6B360D"/>
<rect x="9" y="16.0005" width="2" height="2" fill="#6B360D"/>
</g>
</g>
<defs>
<clipPath id="clip0_1403_51508">
<rect width="168" height="96" fill="white" transform="translate(0 0.000488281)"/>
</clipPath>
</defs>
</svg>
