<svg width="76" height="36" viewBox="0 0 76 36" fill="none" xmlns="http://www.w3.org/2000/svg">
<path fill-rule="evenodd" clip-rule="evenodd" d="M22.5628 13.5007L22.4142 12.8153L23.3882 12.4647L23.5891 12.8676L24.4791 12.5633L24.3025 12.1359L25.811 11.5917L25.9327 10.4814C25.895 10.4278 25.8597 10.3743 25.8244 10.3195C24.9989 10.1235 24.8273 9.18114 25.2071 8.59798C25.1706 8.37477 25.1422 8.1398 25.1219 7.89306C24.5996 7.21006 23.4174 4.86886 25.352 4.40257C25.145 3.14614 26.1653 2.55932 26.9347 3.19362C27.5167 2.08451 29.8262 2.3767 29.9407 3.55886C30.1098 3.50353 30.2916 3.4992 30.4632 3.54642C30.6348 3.59363 30.7887 3.6903 30.9058 3.82437C31.0229 3.95845 31.0979 4.12401 31.1216 4.30043C31.1452 4.47685 31.1164 4.65633 31.0388 4.81651C31.8131 5.06731 31.4187 7.1431 30.8598 7.88941C30.8525 8.10855 30.8404 8.31552 30.8233 8.51032C31.2032 9.12758 31.0546 10.132 30.2913 10.3365C30.2511 10.4011 30.2097 10.4583 30.1695 10.5277L30.3534 11.6319L31.8143 12.1566L31.611 12.6193L32.5156 12.9602L32.7481 12.4914L33.5858 12.7922L33.4214 13.4703L22.5628 13.5007ZM28.0791 13.0004L29.7118 12.282L29.601 11.1498C29.3444 11.3826 29.0714 11.5967 28.7841 11.7902L27.4034 11.817C27.0991 11.6218 26.8115 11.4015 26.5439 11.1583L26.4721 12.2467L28.0791 13.0004ZM29.4184 10.289C29.1836 10.2156 28.9667 10.0939 28.7816 9.93185C28.5965 9.76981 28.4472 9.57093 28.3433 9.34794H27.7224C27.7224 9.34794 27.5922 10.104 26.6425 10.3037C26.9195 10.6036 27.2357 10.8648 27.5824 11.0804L28.4967 11.1096C28.8436 10.8852 29.155 10.6102 29.4208 10.2939L29.4184 10.289ZM30.2195 7.24537C29.8493 6.43818 29.5985 5.37898 29.6838 4.47805C29.0044 5.06487 27.0747 5.97554 26.1081 5.49708C26.0959 5.94145 25.9266 6.51975 25.7428 7.01526C25.7449 7.60196 25.7983 8.18736 25.9023 8.76477C26.3041 9.17627 27.1612 8.74773 27.4485 8.38857L28.75 8.45188C29.0677 8.8853 29.6728 9.01435 30.0685 8.81712C30.1614 8.30099 30.2127 7.77823 30.2219 7.25389L30.2195 7.24537Z" fill="#6B360D"/>
<path fill-rule="evenodd" clip-rule="evenodd" d="M32.9923 25.9778C32.3379 28.0972 30.8656 29.4445 28.4706 29.4445C26.0167 29.4445 24.5443 28.0496 23.9292 25.8414L23 25.0602L23.6233 24.1054C23.5938 23.7489 23.5775 23.3809 23.5775 23L33.3931 23.0103C33.3931 23.3835 33.3767 23.7438 33.3456 24.0938L34 25.0924L32.9923 25.9778ZM25.8727 24.0694L25.0645 25.1246L25.8923 26.1168L26.6498 25.0989L25.8727 24.0694ZM28.5376 24.0694L27.6166 25.2005L28.5753 26.3497L29.4537 25.1683L28.5376 24.0694ZM31.2631 24.0694L30.4631 25.1246L31.2811 26.1168L32.0385 25.0989L31.2631 24.0694ZM27.682 31.9874L27.88 30.1433H29.0922L29.3425 31.9809C33.3358 32.7415 33.2409 34 28.608 34C23.5284 34 23.4286 32.9023 27.682 31.9874Z" fill="#6B360D"/>
<path fill-rule="evenodd" clip-rule="evenodd" d="M51.3891 8.99054C52.025 6.0807 50.68 3.44507 48.4438 3.01486C49.6647 1.92988 52.5934 2.28208 52.5934 4.93308C52.5934 6.74611 51.4565 7.70463 52.9031 8.81444C52.4764 9.17846 51.8713 9.20446 51.3891 8.99054ZM50.0075 10.9017C50.0075 10.3107 49.9921 9.73041 49.9495 9.18082C49.7805 9.80487 49.5111 10.3284 49.0891 10.683L49.296 11.9228L51.7448 12.8743L51.5865 13.5326L43.2399 13.5598L43.0969 12.8943L45.7124 11.9098L45.8578 10.6298C45.5237 10.335 45.2624 9.96692 45.0943 9.5543C44.9193 10.0398 44.8368 10.5537 44.8508 11.0695C43.1595 8.66079 43.1631 4.36931 46.4594 3.55735C46.7686 3.46392 47.0902 3.4177 47.4132 3.42025C47.4676 3.42025 47.5196 3.42025 47.5716 3.42025H47.6401C50.5358 3.42261 52.1975 7.37607 50.0075 10.9017ZM48.5892 12.1048C48.5691 11.8555 48.536 11.3449 48.5147 11.0234C48.2022 11.138 47.8712 11.1937 47.5385 11.1877C47.1748 11.1926 46.8136 11.1272 46.4748 10.995C46.4547 11.3496 46.4204 11.95 46.4086 12.2124C46.3684 13.0078 48.6518 13.022 48.5844 12.1048H48.5892ZM45.5221 8.84162C45.8484 9.92778 46.4677 10.5187 47.4959 10.5187C48.9532 10.5187 49.4721 9.26001 49.5772 7.17987C49.4011 6.7142 49.1577 6.37973 48.8256 6.24262C48.3953 7.91974 46.5374 7.68218 45.5221 8.84162Z" fill="#6B360D"/>
<path fill-rule="evenodd" clip-rule="evenodd" d="M51.843 26.3769L51.5663 25.6258C51.8231 25.4703 52.3274 25.5268 52.6393 25.2215C53.6209 24.2574 52.182 22.821 51.171 23.8139C50.6562 24.3196 51.0186 25.1098 50.3501 26.2329L49.6159 25.521C50.085 24.5534 49.8798 23.7379 50.4568 23.1712C52.4505 21.213 55.2851 23.9775 53.3571 25.8689C52.9454 26.2709 52.3672 26.2179 51.843 26.3769ZM49.5901 27.3686L48.7246 26.3319L49.2383 25.8977L50.1144 26.8791L49.5901 27.3686ZM49.3274 30.5696L50.356 29.6988L50.8251 30.1849L49.7051 31.0707L49.3274 30.5696ZM53.3148 32.7386L52.3931 33.5L51.1511 32.3113L51.972 31.4727L53.3148 32.7386ZM50.2047 31.4716L51.1077 30.4787L51.6319 30.9002L50.6398 31.9231L50.2047 31.4716ZM48.5253 28.2256L49.7625 29.3924L48.9416 30.1987L45.3893 26.7996L46.1704 26.0036L47.8122 27.5529C48.0632 27.3122 48.2813 27.0922 48.4678 26.9217L49.1316 27.6243L48.5253 28.2256ZM44.4698 26.0635L45.4514 25.1593L45.9358 25.6201L44.8803 26.5289L44.4698 26.0635ZM43.6126 25.3287L44.4898 24.2586L45.0058 24.6997L44.1157 25.7364L43.6126 25.3287ZM47.2071 29.5318C45.3834 31.3402 43.2326 33.4758 43.2326 33.4758L42.5078 32.6338C42.5078 32.6338 44.6856 30.5535 46.5151 28.7992L47.2071 29.5318ZM42 23.5548L42.6978 22.7266L44.0664 24.019L43.3158 24.8138L42 23.5548Z" fill="#6B360D"/>
<path fill-rule="evenodd" clip-rule="evenodd" d="M72.4913 12.5386L72.3268 13.2224L63.6573 13.2507L63.5087 12.5595L66.2255 11.5369L66.3765 10.2074C65.9357 9.83908 65.6251 9.30384 65.4177 8.65442C63.6671 6.65829 64.6701 2.74951 68.1185 2.74951C71.6786 2.74951 72.4753 6.94801 70.5737 8.86434C70.397 9.44256 70.1269 9.92502 69.7267 10.2626L69.9403 11.5504L72.4913 12.5386ZM69.2086 11.7395C69.1877 11.4817 69.1534 10.9513 69.1313 10.6162C68.8082 10.7346 68.4661 10.7924 68.1221 10.7868C67.7445 10.7922 67.3694 10.7247 67.0173 10.5879C66.9964 10.9562 66.9608 11.5786 66.9485 11.8512C66.9068 12.6774 69.2786 12.6921 69.2086 11.7395V11.7395ZM70.2435 6.52202C70.1928 6.37793 70.1194 6.24284 70.0262 6.12182C69.7696 6.43118 69.2982 6.8363 68.9213 6.89031C69.0699 6.33665 69.1779 5.60867 69.0834 5.29439C68.5162 6.1034 67.1486 6.84612 65.7553 6.66443C65.8989 8.85329 66.5692 10.0871 68.0792 10.0871C69.6149 10.092 70.1465 8.74281 70.2435 6.52202V6.52202Z" fill="#6B360D"/>
<path fill-rule="evenodd" clip-rule="evenodd" d="M67.4785 33.9474C59.1046 32.9268 60.9527 21.0983 68.8139 22.055C76.6435 23.0144 75.1286 34.8837 67.4785 33.9474ZM63.8934 31.1672L65.2836 28.4877L63.1133 26.5159C62.6527 28.0822 62.8679 29.8526 63.8934 31.1672ZM66.0253 29.16L65.2329 30.7222L66.852 29.9057L66.0253 29.16ZM66.1514 26.8152L64.5474 26.6206L65.7127 27.6603L66.1514 26.8152ZM63.5082 25.5388L66.6203 25.9184L68.1887 22.8865C65.943 22.7885 64.3321 23.9602 63.5082 25.5388ZM68.4026 24.4759L67.6143 26.03L68.7659 26.1661L68.4026 24.4759ZM67.1536 26.9377L66.4517 28.3203L67.7377 29.4675L69.3061 28.6823L68.9784 27.1595L67.1536 26.9377ZM68.4574 30.1112L69.886 31.385L69.5076 29.5927L68.4574 30.1112ZM69.1155 22.994L69.7914 26.2913L72.9844 26.6737C72.5909 24.9373 71.342 23.4186 69.1155 22.994ZM71.0157 32.2722C72.4168 31.2666 73.1517 29.5124 73.116 27.7882L70.3741 29.1491L71.0157 32.2722ZM71.6847 27.4902L69.9957 27.2793L70.1917 28.2319L71.6847 27.4902ZM67.5635 30.5562L64.7092 31.9797C66.3434 33.2575 68.5794 33.3228 70.0327 32.7962L67.5635 30.5562Z" fill="#6B360D"/>
<path fill-rule="evenodd" clip-rule="evenodd" d="M9.37291 13.7038L10.7629 11.5796C13.9777 12.1854 13.6831 13.8368 12.4392 14.3417C12.0389 14.0281 10.8033 13.8024 9.37291 13.7038ZM10.6358 11.0901H10.2532L8.11478 14.375L7.67521 14.3108L5.47259 11.1245H4.89045C3.34601 11.1352 3.15711 9.251 4.41524 8.78886L4.77165 7.0365C4.75858 5.40414 4.61127 3.83712 3.94003 2.57899L4.4889 2.31287C4.4889 2.31287 4.63503 2.53147 4.84531 2.81304L5.3027 2.62295L5.65911 3.12311L5.34904 3.41418C5.67099 3.76109 6.02146 4.0581 6.28521 4.06285C6.7426 4.06998 7.18336 3.62565 7.38295 2.74175L6.94694 2.71918L6.93031 2.11091H7.48037C7.49225 1.9624 7.49938 1.80558 7.49938 1.63569L8.0934 1.625C8.0934 1.79727 8.09934 1.95884 8.10884 2.11091H8.61732L8.59 2.79284L8.19676 2.77264C8.3809 3.6506 8.79077 4.03434 9.29331 4.03434C9.54874 4.03434 9.92773 3.70406 10.2734 3.33221L9.99307 3.0946L10.2568 2.57186L10.7463 2.78809C10.9589 2.52078 11.1027 2.31287 11.1027 2.31287L11.6825 2.53266C10.8508 3.94286 10.7665 5.53364 10.7653 7.24441L11.0896 8.78886C12.2622 9.23912 12.1185 11.0818 10.6358 11.0913V11.0901ZM7.45424 9.86878H8.27517C8.27517 10.3214 9.08184 10.2632 8.82879 9.56821C8.38803 9.1821 7.34137 9.17616 6.88517 9.55989C6.59291 10.2632 7.45424 10.3464 7.45424 9.86878ZM5.55338 6.32131C5.55338 7.55924 5.62941 8.45977 5.85039 9.17259L7.11802 8.52511H8.6197L9.76734 9.22724C9.97643 8.5061 10.0394 7.59369 10.0394 6.33437L5.55338 6.32131ZM6.41233 13.6871C5.15539 13.7667 4.08259 13.9675 3.64539 14.3204C2.40033 13.6812 1.94769 12.1819 4.9154 11.5879L6.41233 13.6871Z" fill="#6B360D"/>
<path fill-rule="evenodd" clip-rule="evenodd" d="M12.7419 32.7157C12.0332 33.4443 10.9351 32.6298 11.1443 31.8737L9.87896 30.8278L8.25228 31.6297L7.91068 31.0867L8.64501 30.3443L7.57023 29.2938L6.58725 30.2664L6.9672 30.932C6.01094 31.8703 4.81301 31.2264 4.81301 31.2264L3.59648 32.2804L3.76845 32.624C2.696 33.6642 1.32842 32.2804 2.37415 31.2619L2.7111 31.4143L3.78123 30.2023C3.78123 30.2023 3.18517 28.8986 4.04963 28.06L4.71076 28.4404L5.74719 27.5136L2.88307 24.7184L2.68554 23L4.4412 23.071L7.48077 25.9636L10.346 23.4021L12.3213 23.0928L12.0308 24.8937L9.25269 27.6431L10.324 28.6615L10.941 28.0383L11.508 28.382L10.733 29.8357L11.8949 31.2001C12.6873 31.0363 13.3984 32.0409 12.7419 32.7157ZM11.2907 24.8318L11.6637 23.7446L10.5203 24.0631C10.5203 24.0631 5.82504 28.477 5.29172 28.957C4.7584 29.437 5.56361 30.3168 6.16664 29.7486C6.76967 29.1804 11.2907 24.8318 11.2907 24.8318Z" fill="#6B360D"/>
</svg>
