<svg width="76" height="36" viewBox="0 0 76 36" fill="none" xmlns="http://www.w3.org/2000/svg">
<path fill-rule="evenodd" clip-rule="evenodd" d="M62.5454 13.5007L62.3968 12.8153L63.3708 12.4647L63.5717 12.8676L64.4617 12.5633L64.2851 12.1359L65.7936 11.5917L65.9153 10.4814C65.8776 10.4278 65.8423 10.3743 65.807 10.3195C64.9815 10.1235 64.8099 9.18114 65.1897 8.59798C65.1532 8.37477 65.1248 8.1398 65.1045 7.89306C64.5822 7.21006 63.4 4.86886 65.3346 4.40257C65.1276 3.14614 66.1479 2.55932 66.9173 3.19362C67.4993 2.08451 69.8088 2.3767 69.9233 3.55886C70.0924 3.50353 70.2742 3.4992 70.4458 3.54642C70.6174 3.59363 70.7713 3.6903 70.8884 3.82437C71.0055 3.95845 71.0805 4.12401 71.1042 4.30043C71.1278 4.47685 71.099 4.65633 71.0214 4.81651C71.7957 5.06731 71.4013 7.1431 70.8424 7.88941C70.8351 8.10855 70.823 8.31552 70.8059 8.51032C71.1858 9.12758 71.0372 10.132 70.2739 10.3365C70.2337 10.4011 70.1923 10.4583 70.1521 10.5277L70.336 11.6319L71.7969 12.1566L71.5936 12.6193L72.4982 12.9602L72.7307 12.4914L73.5684 12.7922L73.404 13.4703L62.5454 13.5007ZM68.0617 13.0004L69.6944 12.282L69.5836 11.1498C69.327 11.3826 69.054 11.5967 68.7667 11.7902L67.386 11.817C67.0817 11.6218 66.7941 11.4015 66.5265 11.1583L66.4547 12.2467L68.0617 13.0004ZM69.401 10.289C69.1662 10.2156 68.9493 10.0939 68.7642 9.93185C68.5791 9.76981 68.4298 9.57093 68.3259 9.34794H67.705C67.705 9.34794 67.5748 10.104 66.6251 10.3037C66.9021 10.6036 67.2183 10.8648 67.565 11.0804L68.4793 11.1096C68.8262 10.8852 69.1376 10.6102 69.4034 10.2939L69.401 10.289ZM70.2021 7.24537C69.8319 6.43818 69.5811 5.37898 69.6664 4.47805C68.987 5.06487 67.0573 5.97554 66.0907 5.49708C66.0785 5.94145 65.9092 6.51975 65.7254 7.01526C65.7275 7.60196 65.7809 8.18736 65.8849 8.76477C66.2867 9.17627 67.1438 8.74773 67.4311 8.38857L68.7326 8.45188C69.0503 8.8853 69.6554 9.01435 70.0511 8.81712C70.144 8.30099 70.1953 7.77823 70.2045 7.25389L70.2021 7.24537Z" fill="#2992DE"/>
<path fill-rule="evenodd" clip-rule="evenodd" d="M32.9923 25.9778C32.3379 28.0972 30.8656 29.4445 28.4706 29.4445C26.0167 29.4445 24.5443 28.0496 23.9292 25.8414L23 25.0602L23.6233 24.1054C23.5938 23.7489 23.5775 23.3809 23.5775 23L33.3931 23.0103C33.3931 23.3835 33.3767 23.7438 33.3456 24.0938L34 25.0924L32.9923 25.9778ZM25.8727 24.0694L25.0645 25.1246L25.8923 26.1168L26.6498 25.0989L25.8727 24.0694ZM28.5376 24.0694L27.6166 25.2005L28.5753 26.3497L29.4537 25.1683L28.5376 24.0694ZM31.2631 24.0694L30.4631 25.1246L31.2811 26.1168L32.0385 25.0989L31.2631 24.0694ZM27.682 31.9874L27.88 30.1433H29.0922L29.3425 31.9809C33.3358 32.7415 33.2409 34 28.608 34C23.5284 34 23.4286 32.9023 27.682 31.9874Z" fill="#6B360D"/>
<path fill-rule="evenodd" clip-rule="evenodd" d="M51.3891 8.99054C52.025 6.0807 50.68 3.44507 48.4438 3.01486C49.6647 1.92988 52.5934 2.28208 52.5934 4.93308C52.5934 6.74611 51.4565 7.70463 52.9031 8.81444C52.4764 9.17846 51.8713 9.20446 51.3891 8.99054ZM50.0075 10.9017C50.0075 10.3107 49.9921 9.73041 49.9495 9.18082C49.7805 9.80487 49.5111 10.3284 49.0891 10.683L49.296 11.9228L51.7448 12.8743L51.5865 13.5326L43.2399 13.5598L43.0969 12.8943L45.7124 11.9098L45.8578 10.6298C45.5237 10.335 45.2624 9.96692 45.0943 9.5543C44.9193 10.0398 44.8368 10.5537 44.8508 11.0695C43.1595 8.66079 43.1631 4.36931 46.4594 3.55735C46.7686 3.46392 47.0902 3.4177 47.4132 3.42025C47.4676 3.42025 47.5196 3.42025 47.5716 3.42025H47.6401C50.5358 3.42261 52.1975 7.37607 50.0075 10.9017ZM48.5892 12.1048C48.5691 11.8555 48.536 11.3449 48.5147 11.0234C48.2022 11.138 47.8712 11.1937 47.5385 11.1877C47.1748 11.1926 46.8136 11.1272 46.4748 10.995C46.4547 11.3496 46.4204 11.95 46.4086 12.2124C46.3684 13.0078 48.6518 13.022 48.5844 12.1048H48.5892ZM45.5221 8.84162C45.8484 9.92778 46.4677 10.5187 47.4959 10.5187C48.9532 10.5187 49.4721 9.26001 49.5772 7.17987C49.4011 6.7142 49.1577 6.37973 48.8256 6.24262C48.3953 7.91974 46.5374 7.68218 45.5221 8.84162Z" fill="#559D3E"/>
<path fill-rule="evenodd" clip-rule="evenodd" d="M51.843 26.3769L51.5663 25.6258C51.8231 25.4703 52.3274 25.5268 52.6393 25.2215C53.6209 24.2574 52.182 22.821 51.171 23.8139C50.6562 24.3196 51.0186 25.1098 50.3501 26.2329L49.6159 25.521C50.085 24.5534 49.8798 23.7379 50.4568 23.1712C52.4505 21.213 55.2851 23.9775 53.3571 25.8689C52.9454 26.2709 52.3672 26.2179 51.843 26.3769ZM49.5901 27.3686L48.7246 26.3319L49.2383 25.8977L50.1144 26.8791L49.5901 27.3686ZM49.3274 30.5696L50.356 29.6988L50.8251 30.1849L49.7051 31.0707L49.3274 30.5696ZM53.3148 32.7386L52.3931 33.5L51.1511 32.3113L51.972 31.4727L53.3148 32.7386ZM50.2047 31.4716L51.1077 30.4787L51.6319 30.9002L50.6398 31.9231L50.2047 31.4716ZM48.5253 28.2256L49.7625 29.3924L48.9416 30.1987L45.3893 26.7996L46.1704 26.0036L47.8122 27.5529C48.0632 27.3122 48.2813 27.0922 48.4678 26.9217L49.1316 27.6243L48.5253 28.2256ZM44.4698 26.0635L45.4514 25.1593L45.9358 25.6201L44.8803 26.5289L44.4698 26.0635ZM43.6126 25.3287L44.4898 24.2586L45.0058 24.6997L44.1157 25.7364L43.6126 25.3287ZM47.2071 29.5318C45.3834 31.3402 43.2326 33.4758 43.2326 33.4758L42.5078 32.6338C42.5078 32.6338 44.6856 30.5535 46.5151 28.7992L47.2071 29.5318ZM42 23.5548L42.6978 22.7266L44.0664 24.019L43.3158 24.8138L42 23.5548Z" fill="#6B360D"/>
<path fill-rule="evenodd" clip-rule="evenodd" d="M32.3968 12.5386L32.2323 13.2224L23.5628 13.2507L23.4142 12.5595L26.131 11.5369L26.282 10.2074C25.8412 9.83908 25.5306 9.30384 25.3232 8.65442C23.5726 6.65829 24.5756 2.74951 28.024 2.74951C31.5841 2.74951 32.3808 6.94801 30.4792 8.86434C30.3025 9.44256 30.0324 9.92502 29.6322 10.2626L29.8458 11.5504L32.3968 12.5386ZM29.1141 11.7395C29.0932 11.4817 29.0589 10.9513 29.0368 10.6162C28.7137 10.7346 28.3716 10.7924 28.0276 10.7868C27.65 10.7922 27.2749 10.7247 26.9228 10.5879C26.9019 10.9562 26.8663 11.5786 26.854 11.8512C26.8123 12.6774 29.1841 12.6921 29.1141 11.7395ZM30.149 6.52202C30.0983 6.37793 30.0249 6.24284 29.9317 6.12182C29.6751 6.43118 29.2037 6.8363 28.8268 6.89031C28.9754 6.33665 29.0834 5.60867 28.9889 5.29439C28.4217 6.1034 27.0541 6.84612 25.6608 6.66443C25.8044 8.85329 26.4747 10.0871 27.9847 10.0871C29.5204 10.092 30.052 8.74281 30.149 6.52202Z" fill="#DE64D2"/>
<path fill-rule="evenodd" clip-rule="evenodd" d="M67.4785 33.9474C59.1046 32.9268 60.9527 21.0983 68.8139 22.055C76.6435 23.0144 75.1286 34.8837 67.4785 33.9474ZM63.8934 31.1672L65.2836 28.4877L63.1133 26.5159C62.6527 28.0822 62.8679 29.8526 63.8934 31.1672ZM66.0253 29.16L65.2329 30.7222L66.852 29.9057L66.0253 29.16ZM66.1514 26.8152L64.5474 26.6206L65.7127 27.6603L66.1514 26.8152ZM63.5082 25.5388L66.6203 25.9184L68.1887 22.8865C65.943 22.7885 64.3321 23.9602 63.5082 25.5388ZM68.4026 24.4759L67.6143 26.03L68.7659 26.1661L68.4026 24.4759ZM67.1536 26.9377L66.4517 28.3203L67.7377 29.4675L69.3061 28.6823L68.9784 27.1595L67.1536 26.9377ZM68.4574 30.1112L69.886 31.385L69.5076 29.5927L68.4574 30.1112ZM69.1155 22.994L69.7914 26.2913L72.9844 26.6737C72.5909 24.9373 71.342 23.4186 69.1155 22.994ZM71.0157 32.2722C72.4168 31.2666 73.1517 29.5124 73.116 27.7882L70.3741 29.1491L71.0157 32.2722ZM71.6847 27.4902L69.9957 27.2793L70.1917 28.2319L71.6847 27.4902ZM67.5635 30.5562L64.7092 31.9797C66.3434 33.2575 68.5794 33.3228 70.0327 32.7962L67.5635 30.5562Z" fill="#6B360D"/>
<path fill-rule="evenodd" clip-rule="evenodd" d="M9.37291 13.7038L10.7629 11.5796C13.9777 12.1854 13.6831 13.8368 12.4392 14.3417C12.0389 14.0281 10.8033 13.8024 9.37291 13.7038ZM10.6358 11.0901H10.2532L8.11478 14.375L7.67521 14.3108L5.47259 11.1245H4.89045C3.34601 11.1352 3.15711 9.251 4.41524 8.78886L4.77165 7.0365C4.75858 5.40414 4.61127 3.83712 3.94003 2.57899L4.4889 2.31287C4.4889 2.31287 4.63503 2.53147 4.84531 2.81304L5.3027 2.62295L5.65911 3.12311L5.34904 3.41418C5.67099 3.76109 6.02146 4.0581 6.28521 4.06285C6.7426 4.06998 7.18336 3.62565 7.38295 2.74175L6.94694 2.71918L6.93031 2.11091H7.48037C7.49225 1.9624 7.49938 1.80558 7.49938 1.63569L8.0934 1.625C8.0934 1.79727 8.09934 1.95884 8.10884 2.11091H8.61732L8.59 2.79284L8.19676 2.77264C8.3809 3.6506 8.79077 4.03434 9.29331 4.03434C9.54874 4.03434 9.92773 3.70406 10.2734 3.33221L9.99307 3.0946L10.2568 2.57186L10.7463 2.78809C10.9589 2.52078 11.1027 2.31287 11.1027 2.31287L11.6825 2.53266C10.8508 3.94286 10.7665 5.53364 10.7653 7.24441L11.0896 8.78886C12.2622 9.23912 12.1185 11.0818 10.6358 11.0913V11.0901ZM7.45424 9.86878H8.27517C8.27517 10.3214 9.08184 10.2632 8.82879 9.56821C8.38803 9.1821 7.34137 9.17616 6.88517 9.55989C6.59291 10.2632 7.45424 10.3464 7.45424 9.86878ZM5.55338 6.32131C5.55338 7.55924 5.62941 8.45977 5.85039 9.17259L7.11802 8.52511H8.6197L9.76734 9.22724C9.97643 8.5061 10.0394 7.59369 10.0394 6.33437L5.55338 6.32131ZM6.41233 13.6871C5.15539 13.7667 4.08259 13.9675 3.64539 14.3204C2.40033 13.6812 1.94769 12.1819 4.9154 11.5879L6.41233 13.6871Z" fill="#EA5C3D"/>
<path fill-rule="evenodd" clip-rule="evenodd" d="M12.7419 32.7157C12.0332 33.4443 10.9351 32.6298 11.1443 31.8737L9.87896 30.8278L8.25228 31.6297L7.91068 31.0867L8.64501 30.3443L7.57023 29.2938L6.58725 30.2664L6.9672 30.932C6.01094 31.8703 4.81301 31.2264 4.81301 31.2264L3.59648 32.2804L3.76845 32.624C2.696 33.6642 1.32842 32.2804 2.37415 31.2619L2.7111 31.4143L3.78123 30.2023C3.78123 30.2023 3.18517 28.8986 4.04963 28.06L4.71076 28.4404L5.74719 27.5136L2.88307 24.7184L2.68554 23L4.4412 23.071L7.48077 25.9636L10.346 23.4021L12.3213 23.0928L12.0308 24.8937L9.25269 27.6431L10.324 28.6615L10.941 28.0383L11.508 28.382L10.733 29.8357L11.8949 31.2001C12.6873 31.0363 13.3984 32.0409 12.7419 32.7157ZM11.2907 24.8318L11.6637 23.7446L10.5203 24.0631C10.5203 24.0631 5.82504 28.477 5.29172 28.957C4.7584 29.437 5.56361 30.3168 6.16664 29.7486C6.76967 29.1804 11.2907 24.8318 11.2907 24.8318Z" fill="#6B360D"/>
</svg>
