<svg width="300" height="167" viewBox="0 0 300 167" fill="none" xmlns="http://www.w3.org/2000/svg">
<g opacity="0.25">
<mask id="mask0_1401_51561" style="mask-type:alpha" maskUnits="userSpaceOnUse" x="0" y="143" width="300" height="24">
<path d="M0 165C0 166.105 0.895431 167 2 167H298C299.105 167 300 166.105 300 165V145C300 143.895 299.105 143 298 143H2C0.895429 143 0 143.895 0 145V165Z" fill="url(#paint0_linear_1401_51561)"/>
</mask>
<g mask="url(#mask0_1401_51561)">
<path d="M2 166.5H298C298.828 166.5 299.5 165.828 299.5 165V145C299.5 144.172 298.828 143.5 298 143.5H2C1.17157 143.5 0.5 144.172 0.5 145V165C0.5 165.828 1.17157 166.5 2 166.5Z" stroke="#6B360D"/>
</g>
</g>
<g clip-path="url(#clip0_1401_51561)">
<rect opacity="0.75" width="180" height="60" rx="2" transform="matrix(-1 0 0 1 184 103)" fill="#6B360D"/>
<path opacity="0.75" d="M32.24 121.016H33.14C33.292 120.712 33.42 120.336 33.524 119.888C33.628 119.44 33.708 118.96 33.764 118.448C33.82 117.928 33.86 117.396 33.884 116.852C33.908 116.3 33.92 115.776 33.92 115.28V113.6H39.38V121.016H40.4V123.56H39.32V122H33.32V123.56H32.24V121.016ZM38.252 121.016V114.584H35.024V115.52C35.024 116.736 34.968 117.788 34.856 118.676C34.752 119.564 34.58 120.344 34.34 121.016H38.252ZM44.2484 122.12C43.8404 122.12 43.4524 122.056 43.0844 121.928C42.7164 121.8 42.3924 121.604 42.1124 121.34C41.8324 121.068 41.6084 120.728 41.4404 120.32C41.2724 119.912 41.1884 119.432 41.1884 118.88V118.64C41.1884 118.112 41.2684 117.656 41.4284 117.272C41.5884 116.88 41.8004 116.556 42.0644 116.3C42.3364 116.036 42.6484 115.84 43.0004 115.712C43.3604 115.584 43.7364 115.52 44.1284 115.52C45.0644 115.52 45.7884 115.776 46.3004 116.288C46.8124 116.8 47.0684 117.524 47.0684 118.46V119.132H42.2444C42.2444 119.508 42.3044 119.824 42.4244 120.08C42.5444 120.336 42.7004 120.544 42.8924 120.704C43.0844 120.864 43.2964 120.98 43.5284 121.052C43.7684 121.124 44.0084 121.16 44.2484 121.16C44.7284 121.16 45.0964 121.08 45.3524 120.92C45.6164 120.76 45.8044 120.54 45.9164 120.26H46.9484C46.8844 120.564 46.7684 120.832 46.6004 121.064C46.4404 121.296 46.2404 121.492 46.0004 121.652C45.7684 121.804 45.5004 121.92 45.1964 122C44.9004 122.08 44.5844 122.12 44.2484 122.12ZM44.1884 116.48C43.9404 116.48 43.7004 116.516 43.4684 116.588C43.2364 116.652 43.0284 116.76 42.8444 116.912C42.6684 117.056 42.5244 117.24 42.4124 117.464C42.3004 117.688 42.2444 117.956 42.2444 118.268H46.0724C46.0644 117.94 46.0084 117.664 45.9044 117.44C45.8084 117.208 45.6764 117.024 45.5084 116.888C45.3404 116.744 45.1404 116.64 44.9084 116.576C44.6844 116.512 44.4444 116.48 44.1884 116.48ZM48.1522 122.12C48.0322 122.12 47.9122 122.108 47.7922 122.084V121.028C47.8322 121.036 47.8922 121.04 47.9722 121.04C48.1482 121.04 48.3002 120.984 48.4282 120.872C48.5642 120.76 48.6722 120.564 48.7522 120.284C48.8322 120.004 48.8922 119.624 48.9322 119.144C48.9722 118.664 48.9922 118.056 48.9922 117.32V115.64H53.5522V122H52.4962V116.576H50.0482V117.56C50.0482 118.448 50.0082 119.184 49.9282 119.768C49.8482 120.352 49.7282 120.82 49.5682 121.172C49.4162 121.516 49.2202 121.76 48.9802 121.904C48.7402 122.048 48.4642 122.12 48.1522 122.12ZM57.2837 122.12C56.9317 122.12 56.6197 122.072 56.3477 121.976C56.0837 121.872 55.8597 121.732 55.6757 121.556C55.4917 121.38 55.3517 121.172 55.2557 120.932C55.1597 120.692 55.1117 120.428 55.1117 120.14C55.1117 119.508 55.2957 119.052 55.6637 118.772C56.0397 118.492 56.5757 118.352 57.2717 118.352H59.3357V117.92C59.3357 117.376 59.2117 117 58.9637 116.792C58.7237 116.584 58.3597 116.48 57.8717 116.48C57.4157 116.48 57.0837 116.568 56.8757 116.744C56.6677 116.912 56.5517 117.104 56.5277 117.32H55.4717C55.4877 117.064 55.5557 116.828 55.6757 116.612C55.8037 116.388 55.9717 116.196 56.1797 116.036C56.3957 115.876 56.6517 115.752 56.9477 115.664C57.2437 115.568 57.5717 115.52 57.9317 115.52C58.6837 115.52 59.2797 115.7 59.7197 116.06C60.1677 116.412 60.3917 116.992 60.3917 117.8V120.38C60.3917 120.716 60.3917 121.012 60.3917 121.268C60.3997 121.516 60.4197 121.76 60.4517 122H59.5277C59.5037 121.816 59.4877 121.644 59.4797 121.484C59.4717 121.316 59.4677 121.128 59.4677 120.92C59.2997 121.256 59.0277 121.54 58.6517 121.772C58.2757 122.004 57.8197 122.12 57.2837 122.12ZM57.5117 121.16C57.7597 121.16 57.9917 121.128 58.2077 121.064C58.4317 120.992 58.6277 120.892 58.7957 120.764C58.9637 120.628 59.0957 120.464 59.1917 120.272C59.2877 120.08 59.3357 119.856 59.3357 119.6V119.168H57.4517C57.0597 119.168 56.7517 119.248 56.5277 119.408C56.3037 119.56 56.1917 119.804 56.1917 120.14C56.1917 120.436 56.2957 120.68 56.5037 120.872C56.7197 121.064 57.0557 121.16 57.5117 121.16ZM62.2569 115.64H63.3129V118.292H64.2129C64.2449 117.836 64.3449 117.436 64.5129 117.092C64.6809 116.74 64.8929 116.448 65.1489 116.216C65.4129 115.984 65.7129 115.812 66.0489 115.7C66.3849 115.58 66.7409 115.52 67.1169 115.52C67.5249 115.52 67.9049 115.588 68.2569 115.724C68.6169 115.852 68.9289 116.048 69.1929 116.312C69.4569 116.568 69.6649 116.892 69.8169 117.284C69.9769 117.676 70.0569 118.128 70.0569 118.64V118.88C70.0569 119.424 69.9769 119.9 69.8169 120.308C69.6649 120.716 69.4569 121.056 69.1929 121.328C68.9289 121.592 68.6169 121.792 68.2569 121.928C67.9049 122.056 67.5249 122.12 67.1169 122.12C66.7409 122.12 66.3809 122.064 66.0369 121.952C65.7009 121.832 65.4009 121.652 65.1369 121.412C64.8809 121.172 64.6689 120.872 64.5009 120.512C64.3409 120.144 64.2449 119.716 64.2129 119.228H63.3129V122H62.2569V115.64ZM67.1169 121.16C67.3569 121.16 67.5889 121.12 67.8129 121.04C68.0369 120.952 68.2329 120.82 68.4009 120.644C68.5769 120.46 68.7169 120.224 68.8209 119.936C68.9249 119.648 68.9769 119.296 68.9769 118.88V118.64C68.9769 118.256 68.9249 117.928 68.8209 117.656C68.7169 117.384 68.5769 117.16 68.4009 116.984C68.2329 116.808 68.0369 116.68 67.8129 116.6C67.5889 116.52 67.3569 116.48 67.1169 116.48C66.8769 116.48 66.6449 116.52 66.4209 116.6C66.1969 116.68 65.9969 116.808 65.8209 116.984C65.6529 117.16 65.5169 117.384 65.4129 117.656C65.3089 117.928 65.2569 118.256 65.2569 118.64V118.88C65.2569 119.296 65.3089 119.648 65.4129 119.936C65.5169 120.224 65.6529 120.46 65.8209 120.644C65.9969 120.82 66.1969 120.952 66.4209 121.04C66.6449 121.12 66.8769 121.16 67.1169 121.16Z" fill="white"/>
<g opacity="0.75">
<circle cx="170" cy="117" r="2" fill="white"/>
</g>
<path opacity="0.75" d="M171.476 148.968C171.868 149.136 172.172 149.372 172.388 149.676C172.612 149.972 172.724 150.316 172.724 150.708V150.996C172.724 151.42 172.612 151.796 172.388 152.124C172.164 152.444 171.844 152.692 171.428 152.868C171.02 153.044 170.544 153.132 170 153.132C169.176 153.132 168.516 152.94 168.02 152.556C167.524 152.164 167.276 151.644 167.276 150.996V150.708C167.276 150.316 167.384 149.972 167.6 149.676C167.816 149.372 168.12 149.136 168.512 148.968C168.168 148.8 167.904 148.572 167.72 148.284C167.536 147.996 167.444 147.664 167.444 147.288V147.06C167.444 146.42 167.672 145.916 168.128 145.548C168.584 145.18 169.208 144.996 170 144.996C170.784 144.996 171.404 145.184 171.86 145.56C172.316 145.928 172.544 146.428 172.544 147.06V147.288C172.544 147.664 172.452 147.996 172.268 148.284C172.084 148.572 171.82 148.8 171.476 148.968ZM168.296 147.264C168.296 147.704 168.44 148.04 168.728 148.272C169.016 148.496 169.44 148.608 170 148.608C170.56 148.608 170.984 148.496 171.272 148.272C171.56 148.04 171.704 147.704 171.704 147.264V147.108C171.704 146.676 171.556 146.348 171.26 146.124C170.972 145.892 170.552 145.776 170 145.776C169.44 145.776 169.016 145.892 168.728 146.124C168.44 146.348 168.296 146.676 168.296 147.108V147.264ZM171.86 150.744C171.86 150.32 171.696 149.992 171.368 149.76C171.04 149.52 170.584 149.4 170 149.4C169.416 149.4 168.956 149.52 168.62 149.76C168.292 149.992 168.128 150.32 168.128 150.744V151.008C168.128 151.424 168.292 151.752 168.62 151.992C168.948 152.224 169.408 152.34 170 152.34C170.584 152.34 171.04 152.224 171.368 151.992C171.696 151.76 171.86 151.432 171.86 151.008V150.744Z" fill="white"/>
<path d="M20.118 152.154C18.582 152.154 17.268 151.944 16.176 151.524C15.084 151.092 14.25 150.468 13.674 149.652C13.098 148.836 12.81 147.846 12.81 146.682C12.81 145.518 13.098 144.528 13.674 143.712C14.25 142.896 15.084 142.272 16.176 141.84C17.268 141.408 18.582 141.192 20.118 141.192C20.142 141.192 20.184 141.192 20.244 141.192C20.316 141.192 20.382 141.192 20.442 141.192C20.514 141.192 20.556 141.192 20.568 141.192C22.104 141.192 23.412 141.408 24.492 141.84C25.584 142.272 26.418 142.896 26.994 143.712C27.57 144.528 27.858 145.518 27.858 146.682C27.858 147.834 27.57 148.824 26.994 149.652C26.43 150.468 25.608 151.092 24.528 151.524C23.46 151.944 22.164 152.154 20.64 152.154C20.616 152.154 20.562 152.154 20.478 152.154C20.406 152.154 20.334 152.154 20.262 152.154C20.19 152.154 20.142 152.154 20.118 152.154ZM20.316 150.75C20.34 150.75 20.37 150.75 20.406 150.75C20.442 150.75 20.46 150.75 20.46 150.75C21.684 150.738 22.716 150.582 23.556 150.282C24.396 149.97 25.032 149.514 25.464 148.914C25.908 148.302 26.13 147.552 26.13 146.664C26.13 145.788 25.908 145.05 25.464 144.45C25.02 143.85 24.378 143.394 23.538 143.082C22.71 142.77 21.696 142.614 20.496 142.614C20.484 142.614 20.454 142.614 20.406 142.614C20.37 142.614 20.34 142.614 20.316 142.614C19.08 142.614 18.03 142.77 17.166 143.082C16.314 143.382 15.666 143.832 15.222 144.432C14.778 145.032 14.556 145.782 14.556 146.682C14.556 147.582 14.784 148.332 15.24 148.932C15.696 149.532 16.35 149.988 17.202 150.3C18.066 150.6 19.104 150.75 20.316 150.75ZM19.506 153.468V139.932H21.18V153.468H19.506ZM34.4241 153.108C33.4641 153.108 32.6121 152.898 31.8681 152.478C31.1241 152.058 30.5361 151.482 30.1041 150.75C29.6721 150.006 29.4561 149.166 29.4561 148.23C29.4561 147.282 29.6721 146.442 30.1041 145.71C30.5361 144.978 31.1241 144.408 31.8681 144C32.6121 143.58 33.4641 143.37 34.4241 143.37C35.3721 143.37 36.2181 143.58 36.9621 144C37.7181 144.408 38.3061 144.978 38.7261 145.71C39.1581 146.43 39.3741 147.27 39.3741 148.23C39.3741 149.178 39.1581 150.018 38.7261 150.75C38.3061 151.482 37.7181 152.058 36.9621 152.478C36.2181 152.898 35.3721 153.108 34.4241 153.108ZM34.4241 151.596C35.0361 151.596 35.5821 151.458 36.0621 151.182C36.5541 150.906 36.9381 150.516 37.2141 150.012C37.4901 149.496 37.6281 148.902 37.6281 148.23C37.6281 147.546 37.4901 146.958 37.2141 146.466C36.9381 145.962 36.5541 145.572 36.0621 145.296C35.5821 145.02 35.0361 144.882 34.4241 144.882C33.8121 144.882 33.2661 145.02 32.7861 145.296C32.3061 145.572 31.9221 145.962 31.6341 146.466C31.3461 146.958 31.2021 147.546 31.2021 148.23C31.2021 148.902 31.3461 149.496 31.6341 150.012C31.9221 150.516 32.3061 150.906 32.7861 151.182C33.2661 151.458 33.8121 151.596 34.4241 151.596ZM41.8693 153V143.46H43.5973V147.51H49.0333V143.46H50.7613V153H49.0333V149.004H43.5973V153H41.8693ZM58.2073 153.108C57.2473 153.108 56.3953 152.898 55.6513 152.478C54.9073 152.058 54.3193 151.482 53.8873 150.75C53.4553 150.006 53.2393 149.166 53.2393 148.23C53.2393 147.282 53.4553 146.442 53.8873 145.71C54.3193 144.978 54.9073 144.408 55.6513 144C56.3953 143.58 57.2473 143.37 58.2073 143.37C59.1553 143.37 60.0013 143.58 60.7453 144C61.5013 144.408 62.0893 144.978 62.5093 145.71C62.9413 146.43 63.1573 147.27 63.1573 148.23C63.1573 149.178 62.9413 150.018 62.5093 150.75C62.0893 151.482 61.5013 152.058 60.7453 152.478C60.0013 152.898 59.1553 153.108 58.2073 153.108ZM58.2073 151.596C58.8193 151.596 59.3653 151.458 59.8453 151.182C60.3373 150.906 60.7213 150.516 60.9973 150.012C61.2733 149.496 61.4113 148.902 61.4113 148.23C61.4113 147.546 61.2733 146.958 60.9973 146.466C60.7213 145.962 60.3373 145.572 59.8453 145.296C59.3653 145.02 58.8193 144.882 58.2073 144.882C57.5953 144.882 57.0493 145.02 56.5693 145.296C56.0893 145.572 55.7053 145.962 55.4173 146.466C55.1293 146.958 54.9853 147.546 54.9853 148.23C54.9853 148.902 55.1293 149.496 55.4173 150.012C55.7053 150.516 56.0893 150.906 56.5693 151.182C57.0493 151.458 57.5953 151.596 58.2073 151.596ZM65.6525 153V143.46H70.0805C71.1965 143.46 72.0725 143.676 72.7085 144.108C73.3565 144.528 73.6805 145.128 73.6805 145.908C73.6805 146.688 73.3745 147.294 72.7625 147.726C72.1625 148.146 71.3645 148.356 70.3685 148.356L70.6385 147.888C71.7785 147.888 72.6245 148.098 73.1765 148.518C73.7285 148.938 74.0045 149.556 74.0045 150.372C74.0045 151.2 73.6925 151.848 73.0685 152.316C72.4565 152.772 71.5145 153 70.2425 153H65.6525ZM67.3445 151.668H70.1165C70.8365 151.668 71.3765 151.56 71.7365 151.344C72.0965 151.116 72.2765 150.756 72.2765 150.264C72.2765 149.76 72.1085 149.394 71.7725 149.166C71.4485 148.926 70.9325 148.806 70.2245 148.806H67.3445V151.668ZM67.3445 147.564H69.9365C70.5965 147.564 71.0945 147.444 71.4305 147.204C71.7785 146.952 71.9525 146.604 71.9525 146.16C71.9525 145.704 71.7785 145.362 71.4305 145.134C71.0945 144.906 70.5965 144.792 69.9365 144.792H67.3445V147.564ZM82.5592 153V150.984L82.4692 150.606V147.168C82.4692 146.436 82.2532 145.872 81.8212 145.476C81.4012 145.068 80.7652 144.864 79.9132 144.864C79.3492 144.864 78.7972 144.96 78.2572 145.152C77.7172 145.332 77.2612 145.578 76.8892 145.89L76.1692 144.594C76.6612 144.198 77.2492 143.898 77.9332 143.694C78.6292 143.478 79.3552 143.37 80.1112 143.37C81.4192 143.37 82.4272 143.688 83.1352 144.324C83.8432 144.96 84.1972 145.932 84.1972 147.24V153H82.5592ZM79.4272 153.108C78.7192 153.108 78.0952 152.988 77.5552 152.748C77.0272 152.508 76.6192 152.178 76.3312 151.758C76.0432 151.326 75.8992 150.84 75.8992 150.3C75.8992 149.784 76.0192 149.316 76.2592 148.896C76.5112 148.476 76.9132 148.14 77.4652 147.888C78.0292 147.636 78.7852 147.51 79.7332 147.51H82.7572V148.752H79.8052C78.9412 148.752 78.3592 148.896 78.0592 149.184C77.7592 149.472 77.6092 149.82 77.6092 150.228C77.6092 150.696 77.7952 151.074 78.1672 151.362C78.5392 151.638 79.0552 151.776 79.7152 151.776C80.3632 151.776 80.9272 151.632 81.4072 151.344C81.8992 151.056 82.2532 150.636 82.4692 150.084L82.8112 151.272C82.5832 151.836 82.1812 152.286 81.6052 152.622C81.0292 152.946 80.3032 153.108 79.4272 153.108ZM93.4108 153V149.652L93.6808 149.976H90.6388C89.3668 149.976 88.3708 149.706 87.6508 149.166C86.9428 148.626 86.5888 147.84 86.5888 146.808C86.5888 145.704 86.9668 144.87 87.7228 144.306C88.4908 143.742 89.5108 143.46 90.7828 143.46H94.9588V153H93.4108ZM86.4988 153L89.0908 149.346H90.8728L88.3528 153H86.4988ZM93.4108 149.112V144.486L93.6808 144.972H90.8368C90.0448 144.972 89.4328 145.122 89.0008 145.422C88.5688 145.71 88.3528 146.19 88.3528 146.862C88.3528 148.11 89.1568 148.734 90.7648 148.734H93.6808L93.4108 149.112Z" fill="white"/>
<g opacity="0.75">
<rect width="2" height="8" transform="matrix(-1 0 0 1 27 113)" fill="white"/>
<rect width="2" height="6" transform="matrix(-1 0 0 1 23 115)" fill="white"/>
<rect width="2" height="4" transform="matrix(-1 0 0 1 19 117)" fill="white"/>
<rect width="2" height="2" transform="matrix(-1 0 0 1 15 119)" fill="white"/>
</g>
</g>
<g clip-path="url(#clip1_1401_51561)">
<rect opacity="0.75" width="108" height="60" rx="2" transform="matrix(-1 0 0 1 296 103)" fill="#6B360D"/>
<path opacity="0.75" d="M211.2 113.6H216.66V114.572H212.328V116.96H214.2C214.752 116.96 215.232 117.02 215.64 117.14C216.048 117.26 216.384 117.432 216.648 117.656C216.92 117.88 217.12 118.148 217.248 118.46C217.376 118.764 217.44 119.104 217.44 119.48C217.44 119.856 217.376 120.2 217.248 120.512C217.12 120.816 216.92 121.08 216.648 121.304C216.384 121.528 216.048 121.7 215.64 121.82C215.232 121.94 214.752 122 214.2 122H211.2V113.6ZM214.14 121.016C214.94 121.016 215.5 120.884 215.82 120.62C216.148 120.348 216.312 119.968 216.312 119.48C216.312 118.992 216.148 118.616 215.82 118.352C215.5 118.08 214.94 117.944 214.14 117.944H212.328V121.016H214.14ZM221.58 122.12C221.172 122.12 220.784 122.056 220.416 121.928C220.048 121.8 219.724 121.604 219.444 121.34C219.164 121.068 218.94 120.728 218.772 120.32C218.604 119.912 218.52 119.432 218.52 118.88V118.64C218.52 118.112 218.6 117.656 218.76 117.272C218.92 116.88 219.132 116.556 219.396 116.3C219.668 116.036 219.98 115.84 220.332 115.712C220.692 115.584 221.068 115.52 221.46 115.52C222.396 115.52 223.12 115.776 223.632 116.288C224.144 116.8 224.4 117.524 224.4 118.46V119.132H219.576C219.576 119.508 219.636 119.824 219.756 120.08C219.876 120.336 220.032 120.544 220.224 120.704C220.416 120.864 220.628 120.98 220.86 121.052C221.1 121.124 221.34 121.16 221.58 121.16C222.06 121.16 222.428 121.08 222.684 120.92C222.948 120.76 223.136 120.54 223.248 120.26H224.28C224.216 120.564 224.1 120.832 223.932 121.064C223.772 121.296 223.572 121.492 223.332 121.652C223.1 121.804 222.832 121.92 222.528 122C222.232 122.08 221.916 122.12 221.58 122.12ZM221.52 116.48C221.272 116.48 221.032 116.516 220.8 116.588C220.568 116.652 220.36 116.76 220.176 116.912C220 117.056 219.856 117.24 219.744 117.464C219.632 117.688 219.576 117.956 219.576 118.268H223.404C223.396 117.94 223.34 117.664 223.236 117.44C223.14 117.208 223.008 117.024 222.84 116.888C222.672 116.744 222.472 116.64 222.24 116.576C222.016 116.512 221.776 116.48 221.52 116.48ZM228.361 122.12C227.953 122.12 227.573 122.056 227.221 121.928C226.869 121.792 226.565 121.592 226.309 121.328C226.053 121.056 225.849 120.716 225.697 120.308C225.553 119.9 225.481 119.424 225.481 118.88V118.64C225.481 118.128 225.561 117.676 225.721 117.284C225.881 116.892 226.093 116.568 226.357 116.312C226.621 116.048 226.925 115.852 227.269 115.724C227.621 115.588 227.985 115.52 228.361 115.52C228.737 115.52 229.073 115.572 229.369 115.676C229.673 115.78 229.933 115.924 230.149 116.108C230.373 116.292 230.553 116.508 230.689 116.756C230.833 117.004 230.937 117.272 231.001 117.56H229.921C229.857 117.408 229.781 117.268 229.693 117.14C229.613 117.004 229.509 116.888 229.381 116.792C229.261 116.696 229.117 116.62 228.949 116.564C228.781 116.508 228.585 116.48 228.361 116.48C228.129 116.48 227.905 116.524 227.689 116.612C227.473 116.692 227.281 116.82 227.113 116.996C226.945 117.164 226.809 117.384 226.705 117.656C226.609 117.928 226.561 118.256 226.561 118.64V118.88C226.561 119.288 226.609 119.64 226.705 119.936C226.809 120.224 226.945 120.46 227.113 120.644C227.281 120.82 227.473 120.952 227.689 121.04C227.905 121.12 228.129 121.16 228.361 121.16C228.753 121.16 229.081 121.064 229.345 120.872C229.617 120.68 229.809 120.416 229.921 120.08H231.001C230.849 120.712 230.537 121.212 230.065 121.58C229.593 121.94 229.025 122.12 228.361 122.12ZM232.44 115.64H233.496V120.44L236.784 115.64H237.84V122H236.784V117.2L233.496 122H232.44V115.64ZM241.217 116.576H239.045V115.64H244.445V116.576H242.273V122H241.217V116.576Z" fill="white"/>
<g opacity="0.75">
<path d="M278.5 113.5C278.5 113.224 278.724 113 279 113C279.276 113 279.5 113.224 279.5 113.5V120.5C279.5 120.776 279.276 121 279 121C278.724 121 278.5 120.776 278.5 120.5V113.5Z" fill="white"/>
<path d="M281.5 113.5C281.5 113.224 281.724 113 282 113C282.276 113 282.5 113.224 282.5 113.5V120.5C282.5 120.776 282.276 121 282 121C281.724 121 281.5 120.776 281.5 120.5V113.5Z" fill="white"/>
<path d="M285 113C284.724 113 284.5 113.224 284.5 113.5V120.5C284.5 120.776 284.724 121 285 121C285.276 121 285.5 120.776 285.5 120.5V113.5C285.5 113.224 285.276 113 285 113Z" fill="white"/>
</g>
<path opacity="0.75" d="M284.357 145.128V145.908C282.725 148.508 281.909 150.776 281.909 152.712V153H281.045V152.712C281.045 151.784 281.253 150.728 281.669 149.544C282.085 148.352 282.673 147.14 283.433 145.908H279.413V145.128H284.357Z" fill="white"/>
<path d="M196.576 151.632L197.206 150.3C197.758 150.732 198.364 151.056 199.024 151.272C199.696 151.488 200.362 151.602 201.022 151.614C201.682 151.614 202.288 151.524 202.84 151.344C203.404 151.164 203.854 150.894 204.19 150.534C204.526 150.174 204.694 149.73 204.694 149.202C204.694 148.554 204.43 148.062 203.902 147.726C203.386 147.39 202.666 147.222 201.742 147.222H198.934V145.764H201.616C202.42 145.764 203.044 145.602 203.488 145.278C203.944 144.942 204.172 144.48 204.172 143.892C204.172 143.448 204.034 143.076 203.758 142.776C203.494 142.464 203.128 142.23 202.66 142.074C202.204 141.918 201.682 141.84 201.094 141.84C200.518 141.828 199.924 141.906 199.312 142.074C198.7 142.23 198.112 142.482 197.548 142.83L196.972 141.354C197.74 140.922 198.538 140.622 199.366 140.454C200.206 140.274 201.016 140.22 201.796 140.292C202.576 140.352 203.278 140.532 203.902 140.832C204.538 141.12 205.042 141.504 205.414 141.984C205.798 142.452 205.99 143.016 205.99 143.676C205.99 144.276 205.834 144.81 205.522 145.278C205.21 145.734 204.778 146.088 204.226 146.34C203.674 146.58 203.032 146.7 202.3 146.7L202.372 146.214C203.212 146.214 203.938 146.352 204.55 146.628C205.174 146.892 205.654 147.27 205.99 147.762C206.338 148.254 206.512 148.824 206.512 149.472C206.512 150.084 206.356 150.63 206.044 151.11C205.732 151.578 205.306 151.974 204.766 152.298C204.238 152.61 203.632 152.838 202.948 152.982C202.276 153.126 201.568 153.174 200.824 153.126C200.08 153.078 199.342 152.934 198.61 152.694C197.89 152.454 197.212 152.1 196.576 151.632ZM215.073 153V150.984L214.983 150.606V147.168C214.983 146.436 214.767 145.872 214.335 145.476C213.915 145.068 213.279 144.864 212.427 144.864C211.863 144.864 211.311 144.96 210.771 145.152C210.231 145.332 209.775 145.578 209.403 145.89L208.683 144.594C209.175 144.198 209.763 143.898 210.447 143.694C211.143 143.478 211.869 143.37 212.625 143.37C213.933 143.37 214.941 143.688 215.649 144.324C216.357 144.96 216.711 145.932 216.711 147.24V153H215.073ZM211.941 153.108C211.233 153.108 210.609 152.988 210.069 152.748C209.541 152.508 209.133 152.178 208.845 151.758C208.557 151.326 208.413 150.84 208.413 150.3C208.413 149.784 208.533 149.316 208.773 148.896C209.025 148.476 209.427 148.14 209.979 147.888C210.543 147.636 211.299 147.51 212.247 147.51H215.271V148.752H212.319C211.455 148.752 210.873 148.896 210.573 149.184C210.273 149.472 210.123 149.82 210.123 150.228C210.123 150.696 210.309 151.074 210.681 151.362C211.053 151.638 211.569 151.776 212.229 151.776C212.877 151.776 213.441 151.632 213.921 151.344C214.413 151.056 214.767 150.636 214.983 150.084L215.325 151.272C215.097 151.836 214.695 152.286 214.119 152.622C213.543 152.946 212.817 153.108 211.941 153.108ZM226.158 151.488L225.762 151.938V143.46H227.49V151.938L227.058 151.488H232.098L231.684 151.938V143.46H233.412V153H219.822V143.46H221.55V151.938L221.136 151.488H226.158ZM233.196 155.034V152.55L233.61 153H231.594V151.488H234.816V155.034H233.196ZM236.768 153V143.46H238.496V150.408L244.346 143.46H245.912V153H244.184V146.052L238.352 153H236.768ZM251.156 153V144.522L251.588 144.972H247.664V143.46H256.376V144.972H252.47L252.884 144.522V153H251.156ZM263.993 153V150.984L263.903 150.606V147.168C263.903 146.436 263.687 145.872 263.255 145.476C262.835 145.068 262.199 144.864 261.347 144.864C260.783 144.864 260.231 144.96 259.691 145.152C259.151 145.332 258.695 145.578 258.323 145.89L257.603 144.594C258.095 144.198 258.683 143.898 259.367 143.694C260.063 143.478 260.789 143.37 261.545 143.37C262.853 143.37 263.861 143.688 264.569 144.324C265.277 144.96 265.631 145.932 265.631 147.24V153H263.993ZM260.861 153.108C260.153 153.108 259.529 152.988 258.989 152.748C258.461 152.508 258.053 152.178 257.765 151.758C257.477 151.326 257.333 150.84 257.333 150.3C257.333 149.784 257.453 149.316 257.693 148.896C257.945 148.476 258.347 148.14 258.899 147.888C259.463 147.636 260.219 147.51 261.167 147.51H264.191V148.752H261.239C260.375 148.752 259.793 148.896 259.493 149.184C259.193 149.472 259.043 149.82 259.043 150.228C259.043 150.696 259.229 151.074 259.601 151.362C259.973 151.638 260.489 151.776 261.149 151.776C261.797 151.776 262.361 151.632 262.841 151.344C263.333 151.056 263.687 150.636 263.903 150.084L264.245 151.272C264.017 151.836 263.615 152.286 263.039 152.622C262.463 152.946 261.737 153.108 260.861 153.108Z" fill="white"/>
<g opacity="0.75">
<rect width="2" height="6" transform="matrix(-1 0 0 1 206 115)" fill="white"/>
<rect width="2" height="4" transform="matrix(-1 0 0 1 202 117)" fill="white"/>
<rect width="2" height="2" transform="matrix(-1 0 0 1 198 119)" fill="white"/>
</g>
</g>
<g opacity="0.25">
<mask id="mask1_1401_51561" style="mask-type:alpha" maskUnits="userSpaceOnUse" x="0" y="0" width="300" height="48">
<path d="M0 2C0 0.895431 0.895431 0 2 0H298C299.105 0 300 0.895431 300 2V46C300 47.1046 299.105 48 298 48H2C0.895429 48 0 47.1046 0 46V2Z" fill="url(#paint1_linear_1401_51561)"/>
</mask>
<g mask="url(#mask1_1401_51561)">
<path d="M2 0.5H298C298.828 0.5 299.5 1.17157 299.5 2V46C299.5 46.8284 298.828 47.5 298 47.5H2C1.17157 47.5 0.5 46.8284 0.5 46V2C0.5 1.17157 1.17157 0.5 2 0.5Z" stroke="#6B360D"/>
</g>
</g>
<g clip-path="url(#clip2_1401_51561)">
<rect x="-0.5" y="0.5" width="143" height="95" rx="1.5" transform="matrix(-1 0 0 1 147 4)" fill="white" stroke="#6B360D"/>
<path opacity="0.05" d="M114 100L59.3333 4H27L81.6667 100H114Z" fill="#6B360D"/>
<path opacity="0.1" d="M77.3333 4L132 100H122L67.3333 4H77.3333Z" fill="#6B360D"/>
<path d="M13.962 90V77.4H19.38C20.748 77.4 21.822 77.676 22.602 78.228C23.382 78.78 23.772 79.584 23.772 80.64C23.772 81.672 23.4 82.464 22.656 83.016C21.912 83.556 20.934 83.826 19.722 83.826L20.046 83.286C21.45 83.286 22.524 83.568 23.268 84.132C24.024 84.684 24.402 85.494 24.402 86.562C24.402 87.642 24.006 88.488 23.214 89.1C22.434 89.7 21.27 90 19.722 90H13.962ZM15.744 88.578H19.686C20.646 88.578 21.366 88.404 21.846 88.056C22.338 87.696 22.584 87.15 22.584 86.418C22.584 85.686 22.338 85.152 21.846 84.816C21.366 84.48 20.646 84.312 19.686 84.312H15.744V88.578ZM15.744 82.944H19.254C20.13 82.944 20.796 82.77 21.252 82.422C21.72 82.074 21.954 81.564 21.954 80.892C21.954 80.208 21.72 79.692 21.252 79.344C20.796 78.996 20.13 78.822 19.254 78.822H15.744V82.944ZM27.1213 90V80.46H28.8493V84.51H34.2853V80.46H36.0133V90H34.2853V86.004H28.8493V90H27.1213ZM39.8592 93.6C39.4032 93.6 38.9592 93.522 38.5272 93.366C38.0952 93.222 37.7232 93.006 37.4112 92.718L38.1492 91.422C38.3892 91.65 38.6532 91.824 38.9412 91.944C39.2292 92.064 39.5352 92.124 39.8592 92.124C40.2792 92.124 40.6272 92.016 40.9032 91.8C41.1792 91.584 41.4372 91.2 41.6772 90.648L42.2712 89.334L42.4512 89.118L46.1952 80.46H47.8872L43.2612 90.954C42.9852 91.626 42.6732 92.154 42.3252 92.538C41.9892 92.922 41.6172 93.192 41.2092 93.348C40.8012 93.516 40.3512 93.6 39.8592 93.6ZM42.1272 90.306L37.7712 80.46H39.5712L43.2792 88.956L42.1272 90.306ZM55.9924 88.488L55.5964 88.938V80.46H57.3244V88.938L56.8924 88.488H61.9324L61.5184 88.938V80.46H63.2464V90H49.6564V80.46H51.3844V88.938L50.9704 88.488H55.9924ZM72.4517 90V87.984L72.3617 87.606V84.168C72.3617 83.436 72.1457 82.872 71.7137 82.476C71.2937 82.068 70.6577 81.864 69.8057 81.864C69.2417 81.864 68.6897 81.96 68.1497 82.152C67.6097 82.332 67.1537 82.578 66.7817 82.89L66.0617 81.594C66.5537 81.198 67.1417 80.898 67.8257 80.694C68.5217 80.478 69.2477 80.37 70.0037 80.37C71.3117 80.37 72.3197 80.688 73.0277 81.324C73.7357 81.96 74.0897 82.932 74.0897 84.24V90H72.4517ZM69.3197 90.108C68.6117 90.108 67.9877 89.988 67.4477 89.748C66.9197 89.508 66.5117 89.178 66.2237 88.758C65.9357 88.326 65.7917 87.84 65.7917 87.3C65.7917 86.784 65.9117 86.316 66.1517 85.896C66.4037 85.476 66.8057 85.14 67.3577 84.888C67.9217 84.636 68.6777 84.51 69.6257 84.51H72.6497V85.752H69.6977C68.8337 85.752 68.2517 85.896 67.9517 86.184C67.6517 86.472 67.5017 86.82 67.5017 87.228C67.5017 87.696 67.6877 88.074 68.0597 88.362C68.4317 88.638 68.9477 88.776 69.6077 88.776C70.2557 88.776 70.8197 88.632 71.2997 88.344C71.7917 88.056 72.1457 87.636 72.3617 87.084L72.7037 88.272C72.4757 88.836 72.0737 89.286 71.4977 89.622C70.9217 89.946 70.1957 90.108 69.3197 90.108ZM81.4493 90.108C80.4293 90.108 79.5293 89.898 78.7493 89.478C77.9813 89.058 77.3813 88.482 76.9493 87.75C76.5293 87.018 76.3193 86.178 76.3193 85.23C76.3193 84.282 76.5233 83.442 76.9313 82.71C77.3513 81.978 77.9213 81.408 78.6413 81C79.3733 80.58 80.1953 80.37 81.1073 80.37C82.0313 80.37 82.8473 80.574 83.5553 80.982C84.2633 81.39 84.8153 81.966 85.2113 82.71C85.6193 83.442 85.8233 84.3 85.8233 85.284C85.8233 85.356 85.8173 85.44 85.8053 85.536C85.8053 85.632 85.7993 85.722 85.7873 85.806H77.6693V84.564H84.8873L84.1853 84.996C84.1973 84.384 84.0713 83.838 83.8073 83.358C83.5433 82.878 83.1773 82.506 82.7093 82.242C82.2533 81.966 81.7193 81.828 81.1073 81.828C80.5073 81.828 79.9733 81.966 79.5053 82.242C79.0373 82.506 78.6713 82.884 78.4073 83.376C78.1433 83.856 78.0113 84.408 78.0113 85.032V85.32C78.0113 85.956 78.1553 86.526 78.4433 87.03C78.7433 87.522 79.1573 87.906 79.6853 88.182C80.2133 88.458 80.8193 88.596 81.5033 88.596C82.0673 88.596 82.5773 88.5 83.0333 88.308C83.5013 88.116 83.9093 87.828 84.2573 87.444L85.2113 88.56C84.7793 89.064 84.2393 89.448 83.5913 89.712C82.9553 89.976 82.2413 90.108 81.4493 90.108ZM88.5041 90V80.46H90.2861L94.3901 87.516H93.6701L97.8821 80.46H99.5021V90H97.9361V82.404L98.2241 82.566L94.3721 88.92H93.6161L89.7461 82.44L90.0881 82.368V90H88.5041ZM108.715 90V87.984L108.625 87.606V84.168C108.625 83.436 108.409 82.872 107.977 82.476C107.557 82.068 106.921 81.864 106.069 81.864C105.505 81.864 104.953 81.96 104.413 82.152C103.873 82.332 103.417 82.578 103.045 82.89L102.325 81.594C102.817 81.198 103.405 80.898 104.089 80.694C104.785 80.478 105.511 80.37 106.267 80.37C107.575 80.37 108.583 80.688 109.291 81.324C109.999 81.96 110.353 82.932 110.353 84.24V90H108.715ZM105.583 90.108C104.875 90.108 104.251 89.988 103.711 89.748C103.183 89.508 102.775 89.178 102.487 88.758C102.199 88.326 102.055 87.84 102.055 87.3C102.055 86.784 102.175 86.316 102.415 85.896C102.667 85.476 103.069 85.14 103.621 84.888C104.185 84.636 104.941 84.51 105.889 84.51H108.913V85.752H105.961C105.097 85.752 104.515 85.896 104.215 86.184C103.915 86.472 103.765 86.82 103.765 87.228C103.765 87.696 103.951 88.074 104.323 88.362C104.695 88.638 105.211 88.776 105.871 88.776C106.519 88.776 107.083 88.632 107.563 88.344C108.055 88.056 108.409 87.636 108.625 87.084L108.967 88.272C108.739 88.836 108.337 89.286 107.761 89.622C107.185 89.946 106.459 90.108 105.583 90.108ZM119.567 90V86.652L119.837 86.976H116.795C115.523 86.976 114.527 86.706 113.807 86.166C113.099 85.626 112.745 84.84 112.745 83.808C112.745 82.704 113.123 81.87 113.879 81.306C114.647 80.742 115.667 80.46 116.939 80.46H121.115V90H119.567ZM112.655 90L115.247 86.346H117.029L114.509 90H112.655ZM119.567 86.112V81.486L119.837 81.972H116.993C116.201 81.972 115.589 82.122 115.157 82.422C114.725 82.71 114.509 83.19 114.509 83.862C114.509 85.11 115.313 85.734 116.921 85.734H119.837L119.567 86.112Z" fill="#6B360D"/>
<g opacity="0.75">
<path d="M130.207 21.0846C130.207 21.0806 130.207 21.0765 130.207 21.0725C130.207 21.0726 130.207 21.0724 130.207 21.0725C130.207 21.0721 130.207 21.0714 130.207 21.071C130.207 21.0711 130.207 21.0709 130.207 21.071L130.207 16.071C130.207 15.7948 130.431 15.571 130.707 15.571C130.983 15.571 131.207 15.7948 131.207 16.071V19.8639L136.717 14.3535C136.913 14.1582 137.229 14.1582 137.425 14.3535C137.62 14.5487 137.62 14.8653 137.425 15.0606L131.914 20.571L135.707 20.571C135.983 20.571 136.207 20.7948 136.207 21.071C136.207 21.3471 135.983 21.571 135.707 21.571L130.707 21.571C130.435 21.571 130.214 21.3544 130.207 21.0846Z" fill="#6B360D"/>
</g>
<path opacity="0.75" d="M22.324 18.716L19.48 14.6H20.728L22.972 17.852L25.24 14.6H26.44L23.608 18.692L26.56 23H25.288L22.948 19.544L20.584 23H19.36L22.324 18.716ZM30.2875 23.12C29.8795 23.12 29.4915 23.056 29.1235 22.928C28.7555 22.792 28.4315 22.592 28.1515 22.328C27.8715 22.056 27.6475 21.716 27.4795 21.308C27.3115 20.9 27.2275 20.424 27.2275 19.88V19.64C27.2275 19.128 27.3115 18.676 27.4795 18.284C27.6475 17.892 27.8715 17.568 28.1515 17.312C28.4315 17.048 28.7555 16.852 29.1235 16.724C29.4915 16.588 29.8795 16.52 30.2875 16.52C30.6955 16.52 31.0835 16.588 31.4515 16.724C31.8195 16.852 32.1435 17.048 32.4235 17.312C32.7035 17.568 32.9275 17.892 33.0955 18.284C33.2635 18.676 33.3475 19.128 33.3475 19.64V19.88C33.3475 20.424 33.2635 20.9 33.0955 21.308C32.9275 21.716 32.7035 22.056 32.4235 22.328C32.1435 22.592 31.8195 22.792 31.4515 22.928C31.0835 23.056 30.6955 23.12 30.2875 23.12ZM30.2875 22.16C30.5275 22.16 30.7675 22.12 31.0075 22.04C31.2475 21.952 31.4595 21.82 31.6435 21.644C31.8275 21.46 31.9755 21.224 32.0875 20.936C32.2075 20.648 32.2675 20.296 32.2675 19.88V19.64C32.2675 19.256 32.2075 18.928 32.0875 18.656C31.9755 18.384 31.8275 18.16 31.6435 17.984C31.4595 17.808 31.2475 17.68 31.0075 17.6C30.7675 17.52 30.5275 17.48 30.2875 17.48C30.0475 17.48 29.8075 17.52 29.5675 17.6C29.3275 17.68 29.1155 17.808 28.9315 17.984C28.7475 18.16 28.5955 18.384 28.4755 18.656C28.3635 18.928 28.3075 19.256 28.3075 19.64V19.88C28.3075 20.296 28.3635 20.648 28.4755 20.936C28.5955 21.224 28.7475 21.46 28.9315 21.644C29.1155 21.82 29.3275 21.952 29.5675 22.04C29.8075 22.12 30.0475 22.16 30.2875 22.16ZM38.5268 20.468C38.3428 20.58 38.1188 20.68 37.8548 20.768C37.5988 20.856 37.2748 20.9 36.8828 20.9C36.5148 20.9 36.1828 20.86 35.8868 20.78C35.5988 20.7 35.3548 20.572 35.1548 20.396C34.9548 20.22 34.8028 19.992 34.6988 19.712C34.5948 19.432 34.5428 19.088 34.5428 18.68V16.64H35.5988V18.5C35.5988 18.772 35.6228 19 35.6708 19.184C35.7268 19.368 35.8148 19.516 35.9348 19.628C36.0548 19.74 36.2068 19.82 36.3908 19.868C36.5748 19.916 36.7988 19.94 37.0628 19.94C37.4228 19.94 37.7308 19.904 37.9868 19.832C38.2428 19.76 38.4228 19.684 38.5268 19.604V16.64H39.5828V23H38.5268V20.468ZM42.3391 25.52C42.2191 25.52 42.0991 25.508 41.9791 25.484V24.524C42.0991 24.548 42.2191 24.56 42.3391 24.56C42.4591 24.56 42.5631 24.54 42.6511 24.5C42.7391 24.46 42.8231 24.384 42.9031 24.272C42.9831 24.16 43.0671 24 43.1551 23.792C43.2511 23.592 43.3591 23.328 43.4791 23L40.7791 16.64H41.9551L44.0191 21.8L45.8911 16.64H47.0191L44.6191 23C44.4511 23.448 44.2911 23.832 44.1391 24.152C43.9871 24.472 43.8231 24.732 43.6471 24.932C43.4791 25.14 43.2911 25.288 43.0831 25.376C42.8751 25.472 42.6271 25.52 42.3391 25.52Z" fill="#6B360D"/>
<path opacity="0.75" d="M134.123 85.008C134.891 85.008 135.503 85.212 135.959 85.62C136.423 86.028 136.655 86.572 136.655 87.252V87.816C136.655 88.52 136.419 89.084 135.947 89.508C135.475 89.924 134.847 90.132 134.063 90.132C133.271 90.132 132.643 89.956 132.179 89.604C131.715 89.244 131.483 88.752 131.483 88.128V88.008H132.335V88.128C132.335 88.504 132.487 88.8 132.791 89.016C133.095 89.232 133.507 89.34 134.027 89.34C134.571 89.34 134.999 89.208 135.311 88.944C135.623 88.672 135.779 88.3 135.779 87.828V87.264C135.779 86.816 135.619 86.464 135.299 86.208C134.987 85.944 134.563 85.812 134.027 85.812C133.555 85.812 133.167 85.92 132.863 86.136C132.559 86.344 132.395 86.62 132.371 86.964H131.531L131.783 82.128H136.343V82.932H132.563L132.431 85.572C132.855 85.196 133.419 85.008 134.123 85.008Z" fill="#6B360D"/>
<g opacity="0.75">
<rect opacity="0.25" x="13" y="14" width="2" height="8" fill="#6B360D"/>
<rect x="13" y="20" width="2" height="2" fill="#6B360D"/>
</g>
</g>
<rect opacity="0.75" x="-0.5" y="0.5" width="143" height="95" rx="1.5" transform="matrix(-1 0 0 1 295 4)" fill="white" stroke="#6B360D"/>
<path opacity="0.75" d="M172.2 14.6H173.328V18.188H177.792V14.6H178.92V23H177.792V19.172H173.328V23H172.2V14.6ZM181.077 16.64H182.061V17.84C182.277 17.416 182.577 17.092 182.961 16.868C183.353 16.636 183.805 16.52 184.317 16.52C185.117 16.52 185.757 16.784 186.237 17.312C186.717 17.832 186.957 18.608 186.957 19.64V19.88C186.957 20.424 186.893 20.9 186.765 21.308C186.637 21.708 186.457 22.044 186.225 22.316C185.993 22.58 185.713 22.78 185.385 22.916C185.065 23.052 184.709 23.12 184.317 23.12C183.773 23.12 183.317 23 182.949 22.76C182.589 22.52 182.317 22.22 182.133 21.86V25.4H181.077V16.64ZM184.077 22.184C184.333 22.184 184.573 22.136 184.797 22.04C185.021 21.936 185.213 21.788 185.373 21.596C185.541 21.404 185.669 21.164 185.757 20.876C185.853 20.588 185.901 20.256 185.901 19.88V19.64C185.901 19.296 185.853 18.988 185.757 18.716C185.669 18.444 185.541 18.216 185.373 18.032C185.213 17.84 185.021 17.696 184.797 17.6C184.573 17.504 184.333 17.456 184.077 17.456C183.789 17.456 183.525 17.504 183.285 17.6C183.045 17.688 182.841 17.816 182.673 17.984C182.505 18.144 182.373 18.336 182.277 18.56C182.181 18.784 182.133 19.024 182.133 19.28V20.24C182.133 20.528 182.181 20.792 182.277 21.032C182.373 21.272 182.505 21.476 182.673 21.644C182.841 21.812 183.045 21.944 183.285 22.04C183.525 22.136 183.789 22.184 184.077 22.184ZM190.272 23.12C189.92 23.12 189.608 23.072 189.336 22.976C189.072 22.872 188.848 22.732 188.664 22.556C188.48 22.38 188.34 22.172 188.244 21.932C188.148 21.692 188.1 21.428 188.1 21.14C188.1 20.508 188.284 20.052 188.652 19.772C189.028 19.492 189.564 19.352 190.26 19.352H192.324V18.92C192.324 18.376 192.2 18 191.952 17.792C191.712 17.584 191.348 17.48 190.86 17.48C190.404 17.48 190.072 17.568 189.864 17.744C189.656 17.912 189.54 18.104 189.516 18.32H188.46C188.476 18.064 188.544 17.828 188.664 17.612C188.792 17.388 188.96 17.196 189.168 17.036C189.384 16.876 189.64 16.752 189.936 16.664C190.232 16.568 190.56 16.52 190.92 16.52C191.672 16.52 192.268 16.7 192.708 17.06C193.156 17.412 193.38 17.992 193.38 18.8V21.38C193.38 21.716 193.38 22.012 193.38 22.268C193.388 22.516 193.408 22.76 193.44 23H192.516C192.492 22.816 192.476 22.644 192.468 22.484C192.46 22.316 192.456 22.128 192.456 21.92C192.288 22.256 192.016 22.54 191.64 22.772C191.264 23.004 190.808 23.12 190.272 23.12ZM190.5 22.16C190.748 22.16 190.98 22.128 191.196 22.064C191.42 21.992 191.616 21.892 191.784 21.764C191.952 21.628 192.084 21.464 192.18 21.272C192.276 21.08 192.324 20.856 192.324 20.6V20.168H190.44C190.048 20.168 189.74 20.248 189.516 20.408C189.292 20.56 189.18 20.804 189.18 21.14C189.18 21.436 189.284 21.68 189.492 21.872C189.708 22.064 190.044 22.16 190.5 22.16ZM195.245 16.64H198.005C198.789 16.64 199.365 16.804 199.733 17.132C200.101 17.452 200.285 17.868 200.285 18.38C200.285 18.516 200.261 18.656 200.213 18.8C200.165 18.936 200.097 19.064 200.009 19.184C199.929 19.304 199.829 19.408 199.709 19.496C199.597 19.584 199.469 19.652 199.325 19.7C199.717 19.796 200.013 19.98 200.213 20.252C200.421 20.516 200.525 20.828 200.525 21.188C200.525 21.74 200.341 22.18 199.973 22.508C199.605 22.836 199.029 23 198.245 23H195.245V16.64ZM198.245 22.064C198.693 22.064 199.009 21.984 199.193 21.824C199.377 21.664 199.469 21.436 199.469 21.14C199.469 20.836 199.377 20.604 199.193 20.444C199.009 20.276 198.693 20.192 198.245 20.192H196.301V22.064H198.245ZM198.005 19.328C198.461 19.328 198.777 19.248 198.953 19.088C199.137 18.928 199.229 18.708 199.229 18.428C199.229 18.164 199.137 17.956 198.953 17.804C198.777 17.652 198.461 17.576 198.005 17.576H196.301V19.328H198.005ZM202.03 16.64H203.086V21.44L206.374 16.64H207.43V23H206.374V18.2L203.086 23H202.03V16.64ZM210.807 17.576H208.635V16.64H214.035V17.576H211.863V23H210.807V17.576ZM217.58 23.12C217.172 23.12 216.792 23.056 216.44 22.928C216.088 22.792 215.784 22.592 215.528 22.328C215.272 22.056 215.068 21.716 214.916 21.308C214.772 20.9 214.7 20.424 214.7 19.88V19.64C214.7 19.128 214.78 18.676 214.94 18.284C215.1 17.892 215.312 17.568 215.576 17.312C215.84 17.048 216.144 16.852 216.488 16.724C216.84 16.588 217.204 16.52 217.58 16.52C217.956 16.52 218.292 16.572 218.588 16.676C218.892 16.78 219.152 16.924 219.368 17.108C219.592 17.292 219.772 17.508 219.908 17.756C220.052 18.004 220.156 18.272 220.22 18.56H219.14C219.076 18.408 219 18.268 218.912 18.14C218.832 18.004 218.728 17.888 218.6 17.792C218.48 17.696 218.336 17.62 218.168 17.564C218 17.508 217.804 17.48 217.58 17.48C217.348 17.48 217.124 17.524 216.908 17.612C216.692 17.692 216.5 17.82 216.332 17.996C216.164 18.164 216.028 18.384 215.924 18.656C215.828 18.928 215.78 19.256 215.78 19.64V19.88C215.78 20.288 215.828 20.64 215.924 20.936C216.028 21.224 216.164 21.46 216.332 21.644C216.5 21.82 216.692 21.952 216.908 22.04C217.124 22.12 217.348 22.16 217.58 22.16C217.972 22.16 218.3 22.064 218.564 21.872C218.836 21.68 219.028 21.416 219.14 21.08H220.22C220.068 21.712 219.756 22.212 219.284 22.58C218.812 22.94 218.244 23.12 217.58 23.12ZM222.907 20.48C222.379 20.36 221.999 20.144 221.767 19.832C221.535 19.512 221.419 19.104 221.419 18.608C221.419 17.984 221.607 17.5 221.983 17.156C222.367 16.812 222.979 16.64 223.819 16.64H226.579V23H225.523V20.576H223.903L222.355 23H221.179L222.907 20.48ZM222.475 18.608C222.475 18.944 222.571 19.2 222.763 19.376C222.963 19.552 223.295 19.64 223.759 19.64H225.523V17.576H223.759C223.295 17.576 222.963 17.664 222.763 17.84C222.571 18.016 222.475 18.272 222.475 18.608Z" fill="#6B360D"/>
<path d="M160.216 90L165.922 77.4H167.704L173.428 90H171.538L166.444 78.408H167.164L162.07 90H160.216ZM162.646 86.85L163.132 85.41H170.224L170.746 86.85H162.646ZM182.227 90L178.537 85.356L179.959 84.492L184.261 90H182.227ZM175.315 90V80.46H177.043V90H175.315ZM176.521 85.968V84.492H179.671V85.968H176.521ZM180.103 85.428L178.501 85.212L182.155 80.46H184.009L180.103 85.428ZM187.804 90V81.522L188.236 81.972H184.312V80.46H193.024V81.972H189.118L189.532 81.522V90H187.804ZM194.791 90V80.46H196.519V87.408L202.369 80.46H203.935V90H202.207V83.052L196.375 90H194.791ZM207.289 90V80.46H211.717C212.833 80.46 213.709 80.676 214.345 81.108C214.993 81.528 215.317 82.128 215.317 82.908C215.317 83.688 215.011 84.294 214.399 84.726C213.799 85.146 213.001 85.356 212.005 85.356L212.275 84.888C213.415 84.888 214.261 85.098 214.813 85.518C215.365 85.938 215.641 86.556 215.641 87.372C215.641 88.2 215.329 88.848 214.705 89.316C214.093 89.772 213.151 90 211.879 90H207.289ZM208.981 88.668H211.753C212.473 88.668 213.013 88.56 213.373 88.344C213.733 88.116 213.913 87.756 213.913 87.264C213.913 86.76 213.745 86.394 213.409 86.166C213.085 85.926 212.569 85.806 211.861 85.806H208.981V88.668ZM208.981 84.564H211.573C212.233 84.564 212.731 84.444 213.067 84.204C213.415 83.952 213.589 83.604 213.589 83.16C213.589 82.704 213.415 82.362 213.067 82.134C212.731 81.906 212.233 81.792 211.573 81.792H208.981V84.564ZM224.196 90V87.984L224.106 87.606V84.168C224.106 83.436 223.89 82.872 223.458 82.476C223.038 82.068 222.402 81.864 221.55 81.864C220.986 81.864 220.434 81.96 219.894 82.152C219.354 82.332 218.898 82.578 218.526 82.89L217.806 81.594C218.298 81.198 218.886 80.898 219.57 80.694C220.266 80.478 220.992 80.37 221.748 80.37C223.056 80.37 224.064 80.688 224.772 81.324C225.48 81.96 225.834 82.932 225.834 84.24V90H224.196ZM221.064 90.108C220.356 90.108 219.732 89.988 219.192 89.748C218.664 89.508 218.256 89.178 217.968 88.758C217.68 88.326 217.536 87.84 217.536 87.3C217.536 86.784 217.656 86.316 217.896 85.896C218.148 85.476 218.55 85.14 219.102 84.888C219.666 84.636 220.422 84.51 221.37 84.51H224.394V85.752H221.442C220.578 85.752 219.996 85.896 219.696 86.184C219.396 86.472 219.246 86.82 219.246 87.228C219.246 87.696 219.432 88.074 219.804 88.362C220.176 88.638 220.692 88.776 221.352 88.776C222 88.776 222.564 88.632 223.044 88.344C223.536 88.056 223.89 87.636 224.106 87.084L224.448 88.272C224.22 88.836 223.818 89.286 223.242 89.622C222.666 89.946 221.94 90.108 221.064 90.108ZM228.945 90V80.46H230.673V88.488H235.893V80.46H237.621V90H228.945ZM237.495 92.214V89.91L237.927 90H235.893V88.488H239.133V92.214H237.495ZM241.373 90V80.46H243.101V87.408L248.951 80.46H250.517V90H248.789V83.052L242.957 90H241.373ZM259.973 90V86.652L260.243 86.976H257.201C255.929 86.976 254.933 86.706 254.213 86.166C253.505 85.626 253.151 84.84 253.151 83.808C253.151 82.704 253.529 81.87 254.285 81.306C255.053 80.742 256.073 80.46 257.345 80.46H261.521V90H259.973ZM253.061 90L255.653 86.346H257.435L254.915 90H253.061ZM259.973 86.112V81.486L260.243 81.972H257.399C256.607 81.972 255.995 82.122 255.563 82.422C255.131 82.71 254.915 83.19 254.915 83.862C254.915 85.11 255.719 85.734 257.327 85.734H260.243L259.973 86.112Z" fill="#6B360D"/>
<path opacity="0.75" d="M282.184 85.104C282.688 85.104 283.132 85.2 283.516 85.392C283.908 85.584 284.208 85.856 284.416 86.208C284.632 86.56 284.74 86.964 284.74 87.42V87.804C284.74 88.26 284.628 88.664 284.404 89.016C284.188 89.368 283.88 89.644 283.48 89.844C283.088 90.036 282.636 90.132 282.124 90.132C281.596 90.132 281.128 90.028 280.72 89.82C280.312 89.612 279.996 89.32 279.772 88.944C279.548 88.568 279.436 88.136 279.436 87.648V84.564C279.436 84.052 279.548 83.604 279.772 83.22C279.996 82.828 280.308 82.528 280.708 82.32C281.116 82.104 281.584 81.996 282.112 81.996C282.616 81.996 283.064 82.084 283.456 82.26C283.848 82.436 284.152 82.684 284.368 83.004C284.584 83.324 284.692 83.692 284.692 84.108V84.276H283.84V84.108C283.84 83.716 283.68 83.4 283.36 83.16C283.048 82.912 282.632 82.788 282.112 82.788C281.56 82.788 281.12 82.948 280.792 83.268C280.464 83.58 280.3 84.004 280.3 84.54V85.764C280.532 85.556 280.808 85.396 281.128 85.284C281.456 85.164 281.808 85.104 282.184 85.104ZM283.876 87.432C283.876 86.944 283.724 86.568 283.42 86.304C283.116 86.032 282.684 85.896 282.124 85.896C281.7 85.896 281.328 85.976 281.008 86.136C280.696 86.296 280.46 86.516 280.3 86.796V87.636C280.3 88.148 280.468 88.56 280.804 88.872C281.14 89.184 281.58 89.34 282.124 89.34C282.66 89.34 283.084 89.204 283.396 88.932C283.716 88.66 283.876 88.288 283.876 87.816V87.432Z" fill="#6B360D"/>
<g opacity="0.75">
<rect width="2" height="4" transform="matrix(-1 0 0 1 167 18)" fill="#6B360D"/>
<rect width="2" height="2" transform="matrix(-1 0 0 1 163 20)" fill="#6B360D"/>
</g>
<g opacity="0.75">
<rect x="287" y="17.5" width="1" height="10" rx="0.5" transform="rotate(90 287 17.5)" fill="#6B360D"/>
</g>
<defs>
<linearGradient id="paint0_linear_1401_51561" x1="150" y1="167" x2="150" y2="143" gradientUnits="userSpaceOnUse">
<stop stop-color="white"/>
<stop offset="1" stop-color="white" stop-opacity="0"/>
</linearGradient>
<linearGradient id="paint1_linear_1401_51561" x1="150" y1="0" x2="150" y2="48" gradientUnits="userSpaceOnUse">
<stop stop-color="white"/>
<stop offset="1" stop-color="white" stop-opacity="0"/>
</linearGradient>
<clipPath id="clip0_1401_51561">
<rect width="180" height="60" fill="white" transform="translate(4 103)"/>
</clipPath>
<clipPath id="clip1_1401_51561">
<rect width="108" height="60" fill="white" transform="translate(188 103)"/>
</clipPath>
<clipPath id="clip2_1401_51561">
<rect width="144" height="96" fill="white" transform="translate(4 4)"/>
</clipPath>
</defs>
</svg>
