<svg width="300" height="171" viewBox="0 0 300 171" fill="none" xmlns="http://www.w3.org/2000/svg">
<g opacity="0.25">
<mask id="mask0_1401_51561" style="mask-type:alpha" maskUnits="userSpaceOnUse" x="0" y="0" width="300" height="24">
<path d="M0 2C0 0.89543 0.895431 0 2 0H298C299.105 0 300 0.895431 300 2V22C300 23.1046 299.105 24 298 24H2C0.895429 24 0 23.1046 0 22V2Z" fill="url(#paint0_linear_1401_51561)"/>
</mask>
<g mask="url(#mask0_1401_51561)">
<path d="M0.5 2C0.5 1.17157 1.17157 0.5 2 0.5H298C298.828 0.5 299.5 1.17157 299.5 2V22C299.5 22.8284 298.828 23.5 298 23.5H2C1.17157 23.5 0.5 22.8284 0.5 22V2Z" stroke="#6B360D"/>
</g>
</g>
<g clip-path="url(#clip0_1401_51561)">
<rect opacity="0.75" width="180" height="60" rx="2" transform="matrix(-1 0 0 1 184 4)" fill="#6B360D"/>
<path opacity="0.75" d="M32.24 22.016H33.14C33.292 21.712 33.42 21.336 33.524 20.888C33.628 20.44 33.708 19.96 33.764 19.448C33.82 18.928 33.86 18.396 33.884 17.852C33.908 17.3 33.92 16.776 33.92 16.28V14.6H39.38V22.016H40.4V24.56H39.32V23H33.32V24.56H32.24V22.016ZM38.252 22.016V15.584H35.024V16.52C35.024 17.736 34.968 18.788 34.856 19.676C34.752 20.564 34.58 21.344 34.34 22.016H38.252ZM44.2484 23.12C43.8404 23.12 43.4524 23.056 43.0844 22.928C42.7164 22.8 42.3924 22.604 42.1124 22.34C41.8324 22.068 41.6084 21.728 41.4404 21.32C41.2724 20.912 41.1884 20.432 41.1884 19.88V19.64C41.1884 19.112 41.2684 18.656 41.4284 18.272C41.5884 17.88 41.8004 17.556 42.0644 17.3C42.3364 17.036 42.6484 16.84 43.0004 16.712C43.3604 16.584 43.7364 16.52 44.1284 16.52C45.0644 16.52 45.7884 16.776 46.3004 17.288C46.8124 17.8 47.0684 18.524 47.0684 19.46V20.132H42.2444C42.2444 20.508 42.3044 20.824 42.4244 21.08C42.5444 21.336 42.7004 21.544 42.8924 21.704C43.0844 21.864 43.2964 21.98 43.5284 22.052C43.7684 22.124 44.0084 22.16 44.2484 22.16C44.7284 22.16 45.0964 22.08 45.3524 21.92C45.6164 21.76 45.8044 21.54 45.9164 21.26H46.9484C46.8844 21.564 46.7684 21.832 46.6004 22.064C46.4404 22.296 46.2404 22.492 46.0004 22.652C45.7684 22.804 45.5004 22.92 45.1964 23C44.9004 23.08 44.5844 23.12 44.2484 23.12ZM44.1884 17.48C43.9404 17.48 43.7004 17.516 43.4684 17.588C43.2364 17.652 43.0284 17.76 42.8444 17.912C42.6684 18.056 42.5244 18.24 42.4124 18.464C42.3004 18.688 42.2444 18.956 42.2444 19.268H46.0724C46.0644 18.94 46.0084 18.664 45.9044 18.44C45.8084 18.208 45.6764 18.024 45.5084 17.888C45.3404 17.744 45.1404 17.64 44.9084 17.576C44.6844 17.512 44.4444 17.48 44.1884 17.48ZM48.1522 23.12C48.0322 23.12 47.9122 23.108 47.7922 23.084V22.028C47.8322 22.036 47.8922 22.04 47.9722 22.04C48.1482 22.04 48.3002 21.984 48.4282 21.872C48.5642 21.76 48.6722 21.564 48.7522 21.284C48.8322 21.004 48.8922 20.624 48.9322 20.144C48.9722 19.664 48.9922 19.056 48.9922 18.32V16.64H53.5522V23H52.4962V17.576H50.0482V18.56C50.0482 19.448 50.0082 20.184 49.9282 20.768C49.8482 21.352 49.7282 21.82 49.5682 22.172C49.4162 22.516 49.2202 22.76 48.9802 22.904C48.7402 23.048 48.4642 23.12 48.1522 23.12ZM57.2837 23.12C56.9317 23.12 56.6197 23.072 56.3477 22.976C56.0837 22.872 55.8597 22.732 55.6757 22.556C55.4917 22.38 55.3517 22.172 55.2557 21.932C55.1597 21.692 55.1117 21.428 55.1117 21.14C55.1117 20.508 55.2957 20.052 55.6637 19.772C56.0397 19.492 56.5757 19.352 57.2717 19.352H59.3357V18.92C59.3357 18.376 59.2117 18 58.9637 17.792C58.7237 17.584 58.3597 17.48 57.8717 17.48C57.4157 17.48 57.0837 17.568 56.8757 17.744C56.6677 17.912 56.5517 18.104 56.5277 18.32H55.4717C55.4877 18.064 55.5557 17.828 55.6757 17.612C55.8037 17.388 55.9717 17.196 56.1797 17.036C56.3957 16.876 56.6517 16.752 56.9477 16.664C57.2437 16.568 57.5717 16.52 57.9317 16.52C58.6837 16.52 59.2797 16.7 59.7197 17.06C60.1677 17.412 60.3917 17.992 60.3917 18.8V21.38C60.3917 21.716 60.3917 22.012 60.3917 22.268C60.3997 22.516 60.4197 22.76 60.4517 23H59.5277C59.5037 22.816 59.4877 22.644 59.4797 22.484C59.4717 22.316 59.4677 22.128 59.4677 21.92C59.2997 22.256 59.0277 22.54 58.6517 22.772C58.2757 23.004 57.8197 23.12 57.2837 23.12ZM57.5117 22.16C57.7597 22.16 57.9917 22.128 58.2077 22.064C58.4317 21.992 58.6277 21.892 58.7957 21.764C58.9637 21.628 59.0957 21.464 59.1917 21.272C59.2877 21.08 59.3357 20.856 59.3357 20.6V20.168H57.4517C57.0597 20.168 56.7517 20.248 56.5277 20.408C56.3037 20.56 56.1917 20.804 56.1917 21.14C56.1917 21.436 56.2957 21.68 56.5037 21.872C56.7197 22.064 57.0557 22.16 57.5117 22.16ZM62.2569 16.64H63.3129V19.292H64.2129C64.2449 18.836 64.3449 18.436 64.5129 18.092C64.6809 17.74 64.8929 17.448 65.1489 17.216C65.4129 16.984 65.7129 16.812 66.0489 16.7C66.3849 16.58 66.7409 16.52 67.1169 16.52C67.5249 16.52 67.9049 16.588 68.2569 16.724C68.6169 16.852 68.9289 17.048 69.1929 17.312C69.4569 17.568 69.6649 17.892 69.8169 18.284C69.9769 18.676 70.0569 19.128 70.0569 19.64V19.88C70.0569 20.424 69.9769 20.9 69.8169 21.308C69.6649 21.716 69.4569 22.056 69.1929 22.328C68.9289 22.592 68.6169 22.792 68.2569 22.928C67.9049 23.056 67.5249 23.12 67.1169 23.12C66.7409 23.12 66.3809 23.064 66.0369 22.952C65.7009 22.832 65.4009 22.652 65.1369 22.412C64.8809 22.172 64.6689 21.872 64.5009 21.512C64.3409 21.144 64.2449 20.716 64.2129 20.228H63.3129V23H62.2569V16.64ZM67.1169 22.16C67.3569 22.16 67.5889 22.12 67.8129 22.04C68.0369 21.952 68.2329 21.82 68.4009 21.644C68.5769 21.46 68.7169 21.224 68.8209 20.936C68.9249 20.648 68.9769 20.296 68.9769 19.88V19.64C68.9769 19.256 68.9249 18.928 68.8209 18.656C68.7169 18.384 68.5769 18.16 68.4009 17.984C68.2329 17.808 68.0369 17.68 67.8129 17.6C67.5889 17.52 67.3569 17.48 67.1169 17.48C66.8769 17.48 66.6449 17.52 66.4209 17.6C66.1969 17.68 65.9969 17.808 65.8209 17.984C65.6529 18.16 65.5169 18.384 65.4129 18.656C65.3089 18.928 65.2569 19.256 65.2569 19.64V19.88C65.2569 20.296 65.3089 20.648 65.4129 20.936C65.5169 21.224 65.6529 21.46 65.8209 21.644C65.9969 21.82 66.1969 21.952 66.4209 22.04C66.6449 22.12 66.8769 22.16 67.1169 22.16Z" fill="white"/>
<g opacity="0.75">
<circle cx="170" cy="18" r="2" fill="white"/>
</g>
<path opacity="0.75" d="M171.476 49.968C171.868 50.136 172.172 50.372 172.388 50.676C172.612 50.972 172.724 51.316 172.724 51.708V51.996C172.724 52.42 172.612 52.796 172.388 53.124C172.164 53.444 171.844 53.692 171.428 53.868C171.02 54.044 170.544 54.132 170 54.132C169.176 54.132 168.516 53.94 168.02 53.556C167.524 53.164 167.276 52.644 167.276 51.996V51.708C167.276 51.316 167.384 50.972 167.6 50.676C167.816 50.372 168.12 50.136 168.512 49.968C168.168 49.8 167.904 49.572 167.72 49.284C167.536 48.996 167.444 48.664 167.444 48.288V48.06C167.444 47.42 167.672 46.916 168.128 46.548C168.584 46.18 169.208 45.996 170 45.996C170.784 45.996 171.404 46.184 171.86 46.56C172.316 46.928 172.544 47.428 172.544 48.06V48.288C172.544 48.664 172.452 48.996 172.268 49.284C172.084 49.572 171.82 49.8 171.476 49.968ZM168.296 48.264C168.296 48.704 168.44 49.04 168.728 49.272C169.016 49.496 169.44 49.608 170 49.608C170.56 49.608 170.984 49.496 171.272 49.272C171.56 49.04 171.704 48.704 171.704 48.264V48.108C171.704 47.676 171.556 47.348 171.26 47.124C170.972 46.892 170.552 46.776 170 46.776C169.44 46.776 169.016 46.892 168.728 47.124C168.44 47.348 168.296 47.676 168.296 48.108V48.264ZM171.86 51.744C171.86 51.32 171.696 50.992 171.368 50.76C171.04 50.52 170.584 50.4 170 50.4C169.416 50.4 168.956 50.52 168.62 50.76C168.292 50.992 168.128 51.32 168.128 51.744V52.008C168.128 52.424 168.292 52.752 168.62 52.992C168.948 53.224 169.408 53.34 170 53.34C170.584 53.34 171.04 53.224 171.368 52.992C171.696 52.76 171.86 52.432 171.86 52.008V51.744Z" fill="white"/>
<path d="M20.118 53.154C18.582 53.154 17.268 52.944 16.176 52.524C15.084 52.092 14.25 51.468 13.674 50.652C13.098 49.836 12.81 48.846 12.81 47.682C12.81 46.518 13.098 45.528 13.674 44.712C14.25 43.896 15.084 43.272 16.176 42.84C17.268 42.408 18.582 42.192 20.118 42.192C20.142 42.192 20.184 42.192 20.244 42.192C20.316 42.192 20.382 42.192 20.442 42.192C20.514 42.192 20.556 42.192 20.568 42.192C22.104 42.192 23.412 42.408 24.492 42.84C25.584 43.272 26.418 43.896 26.994 44.712C27.57 45.528 27.858 46.518 27.858 47.682C27.858 48.834 27.57 49.824 26.994 50.652C26.43 51.468 25.608 52.092 24.528 52.524C23.46 52.944 22.164 53.154 20.64 53.154C20.616 53.154 20.562 53.154 20.478 53.154C20.406 53.154 20.334 53.154 20.262 53.154C20.19 53.154 20.142 53.154 20.118 53.154ZM20.316 51.75C20.34 51.75 20.37 51.75 20.406 51.75C20.442 51.75 20.46 51.75 20.46 51.75C21.684 51.738 22.716 51.582 23.556 51.282C24.396 50.97 25.032 50.514 25.464 49.914C25.908 49.302 26.13 48.552 26.13 47.664C26.13 46.788 25.908 46.05 25.464 45.45C25.02 44.85 24.378 44.394 23.538 44.082C22.71 43.77 21.696 43.614 20.496 43.614C20.484 43.614 20.454 43.614 20.406 43.614C20.37 43.614 20.34 43.614 20.316 43.614C19.08 43.614 18.03 43.77 17.166 44.082C16.314 44.382 15.666 44.832 15.222 45.432C14.778 46.032 14.556 46.782 14.556 47.682C14.556 48.582 14.784 49.332 15.24 49.932C15.696 50.532 16.35 50.988 17.202 51.3C18.066 51.6 19.104 51.75 20.316 51.75ZM19.506 54.468V40.932H21.18V54.468H19.506ZM34.4241 54.108C33.4641 54.108 32.6121 53.898 31.8681 53.478C31.1241 53.058 30.5361 52.482 30.1041 51.75C29.6721 51.006 29.4561 50.166 29.4561 49.23C29.4561 48.282 29.6721 47.442 30.1041 46.71C30.5361 45.978 31.1241 45.408 31.8681 45C32.6121 44.58 33.4641 44.37 34.4241 44.37C35.3721 44.37 36.2181 44.58 36.9621 45C37.7181 45.408 38.3061 45.978 38.7261 46.71C39.1581 47.43 39.3741 48.27 39.3741 49.23C39.3741 50.178 39.1581 51.018 38.7261 51.75C38.3061 52.482 37.7181 53.058 36.9621 53.478C36.2181 53.898 35.3721 54.108 34.4241 54.108ZM34.4241 52.596C35.0361 52.596 35.5821 52.458 36.0621 52.182C36.5541 51.906 36.9381 51.516 37.2141 51.012C37.4901 50.496 37.6281 49.902 37.6281 49.23C37.6281 48.546 37.4901 47.958 37.2141 47.466C36.9381 46.962 36.5541 46.572 36.0621 46.296C35.5821 46.02 35.0361 45.882 34.4241 45.882C33.8121 45.882 33.2661 46.02 32.7861 46.296C32.3061 46.572 31.9221 46.962 31.6341 47.466C31.3461 47.958 31.2021 48.546 31.2021 49.23C31.2021 49.902 31.3461 50.496 31.6341 51.012C31.9221 51.516 32.3061 51.906 32.7861 52.182C33.2661 52.458 33.8121 52.596 34.4241 52.596ZM41.8693 54V44.46H43.5973V48.51H49.0333V44.46H50.7613V54H49.0333V50.004H43.5973V54H41.8693ZM58.2073 54.108C57.2473 54.108 56.3953 53.898 55.6513 53.478C54.9073 53.058 54.3193 52.482 53.8873 51.75C53.4553 51.006 53.2393 50.166 53.2393 49.23C53.2393 48.282 53.4553 47.442 53.8873 46.71C54.3193 45.978 54.9073 45.408 55.6513 45C56.3953 44.58 57.2473 44.37 58.2073 44.37C59.1553 44.37 60.0013 44.58 60.7453 45C61.5013 45.408 62.0893 45.978 62.5093 46.71C62.9413 47.43 63.1573 48.27 63.1573 49.23C63.1573 50.178 62.9413 51.018 62.5093 51.75C62.0893 52.482 61.5013 53.058 60.7453 53.478C60.0013 53.898 59.1553 54.108 58.2073 54.108ZM58.2073 52.596C58.8193 52.596 59.3653 52.458 59.8453 52.182C60.3373 51.906 60.7213 51.516 60.9973 51.012C61.2733 50.496 61.4113 49.902 61.4113 49.23C61.4113 48.546 61.2733 47.958 60.9973 47.466C60.7213 46.962 60.3373 46.572 59.8453 46.296C59.3653 46.02 58.8193 45.882 58.2073 45.882C57.5953 45.882 57.0493 46.02 56.5693 46.296C56.0893 46.572 55.7053 46.962 55.4173 47.466C55.1293 47.958 54.9853 48.546 54.9853 49.23C54.9853 49.902 55.1293 50.496 55.4173 51.012C55.7053 51.516 56.0893 51.906 56.5693 52.182C57.0493 52.458 57.5953 52.596 58.2073 52.596ZM65.6525 54V44.46H70.0805C71.1965 44.46 72.0725 44.676 72.7085 45.108C73.3565 45.528 73.6805 46.128 73.6805 46.908C73.6805 47.688 73.3745 48.294 72.7625 48.726C72.1625 49.146 71.3645 49.356 70.3685 49.356L70.6385 48.888C71.7785 48.888 72.6245 49.098 73.1765 49.518C73.7285 49.938 74.0045 50.556 74.0045 51.372C74.0045 52.2 73.6925 52.848 73.0685 53.316C72.4565 53.772 71.5145 54 70.2425 54H65.6525ZM67.3445 52.668H70.1165C70.8365 52.668 71.3765 52.56 71.7365 52.344C72.0965 52.116 72.2765 51.756 72.2765 51.264C72.2765 50.76 72.1085 50.394 71.7725 50.166C71.4485 49.926 70.9325 49.806 70.2245 49.806H67.3445V52.668ZM67.3445 48.564H69.9365C70.5965 48.564 71.0945 48.444 71.4305 48.204C71.7785 47.952 71.9525 47.604 71.9525 47.16C71.9525 46.704 71.7785 46.362 71.4305 46.134C71.0945 45.906 70.5965 45.792 69.9365 45.792H67.3445V48.564ZM82.5592 54V51.984L82.4692 51.606V48.168C82.4692 47.436 82.2532 46.872 81.8212 46.476C81.4012 46.068 80.7652 45.864 79.9132 45.864C79.3492 45.864 78.7972 45.96 78.2572 46.152C77.7172 46.332 77.2612 46.578 76.8892 46.89L76.1692 45.594C76.6612 45.198 77.2492 44.898 77.9332 44.694C78.6292 44.478 79.3552 44.37 80.1112 44.37C81.4192 44.37 82.4272 44.688 83.1352 45.324C83.8432 45.96 84.1972 46.932 84.1972 48.24V54H82.5592ZM79.4272 54.108C78.7192 54.108 78.0952 53.988 77.5552 53.748C77.0272 53.508 76.6192 53.178 76.3312 52.758C76.0432 52.326 75.8992 51.84 75.8992 51.3C75.8992 50.784 76.0192 50.316 76.2592 49.896C76.5112 49.476 76.9132 49.14 77.4652 48.888C78.0292 48.636 78.7852 48.51 79.7332 48.51H82.7572V49.752H79.8052C78.9412 49.752 78.3592 49.896 78.0592 50.184C77.7592 50.472 77.6092 50.82 77.6092 51.228C77.6092 51.696 77.7952 52.074 78.1672 52.362C78.5392 52.638 79.0552 52.776 79.7152 52.776C80.3632 52.776 80.9272 52.632 81.4072 52.344C81.8992 52.056 82.2532 51.636 82.4692 51.084L82.8112 52.272C82.5832 52.836 82.1812 53.286 81.6052 53.622C81.0292 53.946 80.3032 54.108 79.4272 54.108ZM93.4108 54V50.652L93.6808 50.976H90.6388C89.3668 50.976 88.3708 50.706 87.6508 50.166C86.9428 49.626 86.5888 48.84 86.5888 47.808C86.5888 46.704 86.9668 45.87 87.7228 45.306C88.4908 44.742 89.5108 44.46 90.7828 44.46H94.9588V54H93.4108ZM86.4988 54L89.0908 50.346H90.8728L88.3528 54H86.4988ZM93.4108 50.112V45.486L93.6808 45.972H90.8368C90.0448 45.972 89.4328 46.122 89.0008 46.422C88.5688 46.71 88.3528 47.19 88.3528 47.862C88.3528 49.11 89.1568 49.734 90.7648 49.734H93.6808L93.4108 50.112Z" fill="white"/>
<g opacity="0.75">
<rect width="2" height="8" transform="matrix(-1 0 0 1 27 14)" fill="white"/>
<rect width="2" height="6" transform="matrix(-1 0 0 1 23 16)" fill="white"/>
<rect width="2" height="4" transform="matrix(-1 0 0 1 19 18)" fill="white"/>
<rect width="2" height="2" transform="matrix(-1 0 0 1 15 20)" fill="white"/>
</g>
</g>
<g clip-path="url(#clip1_1401_51561)">
<rect opacity="0.75" width="108" height="60" rx="2" transform="matrix(-1 0 0 1 296 4)" fill="#6B360D"/>
<path opacity="0.75" d="M211.2 14.6H216.66V15.572H212.328V17.96H214.2C214.752 17.96 215.232 18.02 215.64 18.14C216.048 18.26 216.384 18.432 216.648 18.656C216.92 18.88 217.12 19.148 217.248 19.46C217.376 19.764 217.44 20.104 217.44 20.48C217.44 20.856 217.376 21.2 217.248 21.512C217.12 21.816 216.92 22.08 216.648 22.304C216.384 22.528 216.048 22.7 215.64 22.82C215.232 22.94 214.752 23 214.2 23H211.2V14.6ZM214.14 22.016C214.94 22.016 215.5 21.884 215.82 21.62C216.148 21.348 216.312 20.968 216.312 20.48C216.312 19.992 216.148 19.616 215.82 19.352C215.5 19.08 214.94 18.944 214.14 18.944H212.328V22.016H214.14ZM221.58 23.12C221.172 23.12 220.784 23.056 220.416 22.928C220.048 22.8 219.724 22.604 219.444 22.34C219.164 22.068 218.94 21.728 218.772 21.32C218.604 20.912 218.52 20.432 218.52 19.88V19.64C218.52 19.112 218.6 18.656 218.76 18.272C218.92 17.88 219.132 17.556 219.396 17.3C219.668 17.036 219.98 16.84 220.332 16.712C220.692 16.584 221.068 16.52 221.46 16.52C222.396 16.52 223.12 16.776 223.632 17.288C224.144 17.8 224.4 18.524 224.4 19.46V20.132H219.576C219.576 20.508 219.636 20.824 219.756 21.08C219.876 21.336 220.032 21.544 220.224 21.704C220.416 21.864 220.628 21.98 220.86 22.052C221.1 22.124 221.34 22.16 221.58 22.16C222.06 22.16 222.428 22.08 222.684 21.92C222.948 21.76 223.136 21.54 223.248 21.26H224.28C224.216 21.564 224.1 21.832 223.932 22.064C223.772 22.296 223.572 22.492 223.332 22.652C223.1 22.804 222.832 22.92 222.528 23C222.232 23.08 221.916 23.12 221.58 23.12ZM221.52 17.48C221.272 17.48 221.032 17.516 220.8 17.588C220.568 17.652 220.36 17.76 220.176 17.912C220 18.056 219.856 18.24 219.744 18.464C219.632 18.688 219.576 18.956 219.576 19.268H223.404C223.396 18.94 223.34 18.664 223.236 18.44C223.14 18.208 223.008 18.024 222.84 17.888C222.672 17.744 222.472 17.64 222.24 17.576C222.016 17.512 221.776 17.48 221.52 17.48ZM228.361 23.12C227.953 23.12 227.573 23.056 227.221 22.928C226.869 22.792 226.565 22.592 226.309 22.328C226.053 22.056 225.849 21.716 225.697 21.308C225.553 20.9 225.481 20.424 225.481 19.88V19.64C225.481 19.128 225.561 18.676 225.721 18.284C225.881 17.892 226.093 17.568 226.357 17.312C226.621 17.048 226.925 16.852 227.269 16.724C227.621 16.588 227.985 16.52 228.361 16.52C228.737 16.52 229.073 16.572 229.369 16.676C229.673 16.78 229.933 16.924 230.149 17.108C230.373 17.292 230.553 17.508 230.689 17.756C230.833 18.004 230.937 18.272 231.001 18.56H229.921C229.857 18.408 229.781 18.268 229.693 18.14C229.613 18.004 229.509 17.888 229.381 17.792C229.261 17.696 229.117 17.62 228.949 17.564C228.781 17.508 228.585 17.48 228.361 17.48C228.129 17.48 227.905 17.524 227.689 17.612C227.473 17.692 227.281 17.82 227.113 17.996C226.945 18.164 226.809 18.384 226.705 18.656C226.609 18.928 226.561 19.256 226.561 19.64V19.88C226.561 20.288 226.609 20.64 226.705 20.936C226.809 21.224 226.945 21.46 227.113 21.644C227.281 21.82 227.473 21.952 227.689 22.04C227.905 22.12 228.129 22.16 228.361 22.16C228.753 22.16 229.081 22.064 229.345 21.872C229.617 21.68 229.809 21.416 229.921 21.08H231.001C230.849 21.712 230.537 22.212 230.065 22.58C229.593 22.94 229.025 23.12 228.361 23.12ZM232.44 16.64H233.496V21.44L236.784 16.64H237.84V23H236.784V18.2L233.496 23H232.44V16.64ZM241.217 17.576H239.045V16.64H244.445V17.576H242.273V23H241.217V17.576Z" fill="white"/>
<g opacity="0.75">
<path d="M278.5 14.5C278.5 14.2239 278.724 14 279 14C279.276 14 279.5 14.2239 279.5 14.5V21.5C279.5 21.7761 279.276 22 279 22C278.724 22 278.5 21.7761 278.5 21.5V14.5Z" fill="white"/>
<path d="M281.5 14.5C281.5 14.2239 281.724 14 282 14C282.276 14 282.5 14.2239 282.5 14.5V21.5C282.5 21.7761 282.276 22 282 22C281.724 22 281.5 21.7761 281.5 21.5V14.5Z" fill="white"/>
<path d="M285 14C284.724 14 284.5 14.2239 284.5 14.5V21.5C284.5 21.7761 284.724 22 285 22C285.276 22 285.5 21.7761 285.5 21.5V14.5C285.5 14.2239 285.276 14 285 14Z" fill="white"/>
</g>
<path opacity="0.75" d="M284.357 46.128V46.908C282.725 49.508 281.909 51.776 281.909 53.712V54H281.045V53.712C281.045 52.784 281.253 51.728 281.669 50.544C282.085 49.352 282.673 48.14 283.433 46.908H279.413V46.128H284.357Z" fill="white"/>
<path d="M196.576 52.632L197.206 51.3C197.758 51.732 198.364 52.056 199.024 52.272C199.696 52.488 200.362 52.602 201.022 52.614C201.682 52.614 202.288 52.524 202.84 52.344C203.404 52.164 203.854 51.894 204.19 51.534C204.526 51.174 204.694 50.73 204.694 50.202C204.694 49.554 204.43 49.062 203.902 48.726C203.386 48.39 202.666 48.222 201.742 48.222H198.934V46.764H201.616C202.42 46.764 203.044 46.602 203.488 46.278C203.944 45.942 204.172 45.48 204.172 44.892C204.172 44.448 204.034 44.076 203.758 43.776C203.494 43.464 203.128 43.23 202.66 43.074C202.204 42.918 201.682 42.84 201.094 42.84C200.518 42.828 199.924 42.906 199.312 43.074C198.7 43.23 198.112 43.482 197.548 43.83L196.972 42.354C197.74 41.922 198.538 41.622 199.366 41.454C200.206 41.274 201.016 41.22 201.796 41.292C202.576 41.352 203.278 41.532 203.902 41.832C204.538 42.12 205.042 42.504 205.414 42.984C205.798 43.452 205.99 44.016 205.99 44.676C205.99 45.276 205.834 45.81 205.522 46.278C205.21 46.734 204.778 47.088 204.226 47.34C203.674 47.58 203.032 47.7 202.3 47.7L202.372 47.214C203.212 47.214 203.938 47.352 204.55 47.628C205.174 47.892 205.654 48.27 205.99 48.762C206.338 49.254 206.512 49.824 206.512 50.472C206.512 51.084 206.356 51.63 206.044 52.11C205.732 52.578 205.306 52.974 204.766 53.298C204.238 53.61 203.632 53.838 202.948 53.982C202.276 54.126 201.568 54.174 200.824 54.126C200.08 54.078 199.342 53.934 198.61 53.694C197.89 53.454 197.212 53.1 196.576 52.632ZM215.073 54V51.984L214.983 51.606V48.168C214.983 47.436 214.767 46.872 214.335 46.476C213.915 46.068 213.279 45.864 212.427 45.864C211.863 45.864 211.311 45.96 210.771 46.152C210.231 46.332 209.775 46.578 209.403 46.89L208.683 45.594C209.175 45.198 209.763 44.898 210.447 44.694C211.143 44.478 211.869 44.37 212.625 44.37C213.933 44.37 214.941 44.688 215.649 45.324C216.357 45.96 216.711 46.932 216.711 48.24V54H215.073ZM211.941 54.108C211.233 54.108 210.609 53.988 210.069 53.748C209.541 53.508 209.133 53.178 208.845 52.758C208.557 52.326 208.413 51.84 208.413 51.3C208.413 50.784 208.533 50.316 208.773 49.896C209.025 49.476 209.427 49.14 209.979 48.888C210.543 48.636 211.299 48.51 212.247 48.51H215.271V49.752H212.319C211.455 49.752 210.873 49.896 210.573 50.184C210.273 50.472 210.123 50.82 210.123 51.228C210.123 51.696 210.309 52.074 210.681 52.362C211.053 52.638 211.569 52.776 212.229 52.776C212.877 52.776 213.441 52.632 213.921 52.344C214.413 52.056 214.767 51.636 214.983 51.084L215.325 52.272C215.097 52.836 214.695 53.286 214.119 53.622C213.543 53.946 212.817 54.108 211.941 54.108ZM226.158 52.488L225.762 52.938V44.46H227.49V52.938L227.058 52.488H232.098L231.684 52.938V44.46H233.412V54H219.822V44.46H221.55V52.938L221.136 52.488H226.158ZM233.196 56.034V53.55L233.61 54H231.594V52.488H234.816V56.034H233.196ZM236.768 54V44.46H238.496V51.408L244.346 44.46H245.912V54H244.184V47.052L238.352 54H236.768ZM251.156 54V45.522L251.588 45.972H247.664V44.46H256.376V45.972H252.47L252.884 45.522V54H251.156ZM263.993 54V51.984L263.903 51.606V48.168C263.903 47.436 263.687 46.872 263.255 46.476C262.835 46.068 262.199 45.864 261.347 45.864C260.783 45.864 260.231 45.96 259.691 46.152C259.151 46.332 258.695 46.578 258.323 46.89L257.603 45.594C258.095 45.198 258.683 44.898 259.367 44.694C260.063 44.478 260.789 44.37 261.545 44.37C262.853 44.37 263.861 44.688 264.569 45.324C265.277 45.96 265.631 46.932 265.631 48.24V54H263.993ZM260.861 54.108C260.153 54.108 259.529 53.988 258.989 53.748C258.461 53.508 258.053 53.178 257.765 52.758C257.477 52.326 257.333 51.84 257.333 51.3C257.333 50.784 257.453 50.316 257.693 49.896C257.945 49.476 258.347 49.14 258.899 48.888C259.463 48.636 260.219 48.51 261.167 48.51H264.191V49.752H261.239C260.375 49.752 259.793 49.896 259.493 50.184C259.193 50.472 259.043 50.82 259.043 51.228C259.043 51.696 259.229 52.074 259.601 52.362C259.973 52.638 260.489 52.776 261.149 52.776C261.797 52.776 262.361 52.632 262.841 52.344C263.333 52.056 263.687 51.636 263.903 51.084L264.245 52.272C264.017 52.836 263.615 53.286 263.039 53.622C262.463 53.946 261.737 54.108 260.861 54.108Z" fill="white"/>
<g opacity="0.75">
<rect width="2" height="6" transform="matrix(-1 0 0 1 206 16)" fill="white"/>
<rect width="2" height="4" transform="matrix(-1 0 0 1 202 18)" fill="white"/>
<rect width="2" height="2" transform="matrix(-1 0 0 1 198 20)" fill="white"/>
</g>
</g>
<g opacity="0.25">
<mask id="mask1_1401_51561" style="mask-type:alpha" maskUnits="userSpaceOnUse" x="0" y="120" width="300" height="48">
<path d="M0 166C0 167.105 0.895431 168 2 168H298C299.105 168 300 167.105 300 166V122C300 120.895 299.105 120 298 120H2C0.895429 120 0 120.895 0 122V166Z" fill="url(#paint1_linear_1401_51561)"/>
</mask>
<g mask="url(#mask1_1401_51561)">
<path d="M0.5 166C0.5 166.828 1.17157 167.5 2 167.5H298C298.828 167.5 299.5 166.828 299.5 166V122C299.5 121.172 298.828 120.5 298 120.5H2C1.17157 120.5 0.5 121.172 0.5 122V166Z" stroke="#6B360D"/>
</g>
</g>
<g clip-path="url(#clip2_1401_51561)">
<rect x="-0.5" y="0.5" width="143" height="95" rx="1.5" transform="matrix(-1 0 0 1 147 67)" fill="white" stroke="#6B360D"/>
<path opacity="0.05" d="M114 163L59.3333 67H27L81.6667 163H114Z" fill="#6B360D"/>
<path opacity="0.1" d="M77.3333 67L132 163H122L67.3333 67H77.3333Z" fill="#6B360D"/>
<path d="M13.962 153V140.4H19.38C20.748 140.4 21.822 140.676 22.602 141.228C23.382 141.78 23.772 142.584 23.772 143.64C23.772 144.672 23.4 145.464 22.656 146.016C21.912 146.556 20.934 146.826 19.722 146.826L20.046 146.286C21.45 146.286 22.524 146.568 23.268 147.132C24.024 147.684 24.402 148.494 24.402 149.562C24.402 150.642 24.006 151.488 23.214 152.1C22.434 152.7 21.27 153 19.722 153H13.962ZM15.744 151.578H19.686C20.646 151.578 21.366 151.404 21.846 151.056C22.338 150.696 22.584 150.15 22.584 149.418C22.584 148.686 22.338 148.152 21.846 147.816C21.366 147.48 20.646 147.312 19.686 147.312H15.744V151.578ZM15.744 145.944H19.254C20.13 145.944 20.796 145.77 21.252 145.422C21.72 145.074 21.954 144.564 21.954 143.892C21.954 143.208 21.72 142.692 21.252 142.344C20.796 141.996 20.13 141.822 19.254 141.822H15.744V145.944ZM27.1213 153V143.46H28.8493V147.51H34.2853V143.46H36.0133V153H34.2853V149.004H28.8493V153H27.1213ZM39.8592 156.6C39.4032 156.6 38.9592 156.522 38.5272 156.366C38.0952 156.222 37.7232 156.006 37.4112 155.718L38.1492 154.422C38.3892 154.65 38.6532 154.824 38.9412 154.944C39.2292 155.064 39.5352 155.124 39.8592 155.124C40.2792 155.124 40.6272 155.016 40.9032 154.8C41.1792 154.584 41.4372 154.2 41.6772 153.648L42.2712 152.334L42.4512 152.118L46.1952 143.46H47.8872L43.2612 153.954C42.9852 154.626 42.6732 155.154 42.3252 155.538C41.9892 155.922 41.6172 156.192 41.2092 156.348C40.8012 156.516 40.3512 156.6 39.8592 156.6ZM42.1272 153.306L37.7712 143.46H39.5712L43.2792 151.956L42.1272 153.306ZM55.9924 151.488L55.5964 151.938V143.46H57.3244V151.938L56.8924 151.488H61.9324L61.5184 151.938V143.46H63.2464V153H49.6564V143.46H51.3844V151.938L50.9704 151.488H55.9924ZM72.4517 153V150.984L72.3617 150.606V147.168C72.3617 146.436 72.1457 145.872 71.7137 145.476C71.2937 145.068 70.6577 144.864 69.8057 144.864C69.2417 144.864 68.6897 144.96 68.1497 145.152C67.6097 145.332 67.1537 145.578 66.7817 145.89L66.0617 144.594C66.5537 144.198 67.1417 143.898 67.8257 143.694C68.5217 143.478 69.2477 143.37 70.0037 143.37C71.3117 143.37 72.3197 143.688 73.0277 144.324C73.7357 144.96 74.0897 145.932 74.0897 147.24V153H72.4517ZM69.3197 153.108C68.6117 153.108 67.9877 152.988 67.4477 152.748C66.9197 152.508 66.5117 152.178 66.2237 151.758C65.9357 151.326 65.7917 150.84 65.7917 150.3C65.7917 149.784 65.9117 149.316 66.1517 148.896C66.4037 148.476 66.8057 148.14 67.3577 147.888C67.9217 147.636 68.6777 147.51 69.6257 147.51H72.6497V148.752H69.6977C68.8337 148.752 68.2517 148.896 67.9517 149.184C67.6517 149.472 67.5017 149.82 67.5017 150.228C67.5017 150.696 67.6877 151.074 68.0597 151.362C68.4317 151.638 68.9477 151.776 69.6077 151.776C70.2557 151.776 70.8197 151.632 71.2997 151.344C71.7917 151.056 72.1457 150.636 72.3617 150.084L72.7037 151.272C72.4757 151.836 72.0737 152.286 71.4977 152.622C70.9217 152.946 70.1957 153.108 69.3197 153.108ZM81.4493 153.108C80.4293 153.108 79.5293 152.898 78.7493 152.478C77.9813 152.058 77.3813 151.482 76.9493 150.75C76.5293 150.018 76.3193 149.178 76.3193 148.23C76.3193 147.282 76.5233 146.442 76.9313 145.71C77.3513 144.978 77.9213 144.408 78.6413 144C79.3733 143.58 80.1953 143.37 81.1073 143.37C82.0313 143.37 82.8473 143.574 83.5553 143.982C84.2633 144.39 84.8153 144.966 85.2113 145.71C85.6193 146.442 85.8233 147.3 85.8233 148.284C85.8233 148.356 85.8173 148.44 85.8053 148.536C85.8053 148.632 85.7993 148.722 85.7873 148.806H77.6693V147.564H84.8873L84.1853 147.996C84.1973 147.384 84.0713 146.838 83.8073 146.358C83.5433 145.878 83.1773 145.506 82.7093 145.242C82.2533 144.966 81.7193 144.828 81.1073 144.828C80.5073 144.828 79.9733 144.966 79.5053 145.242C79.0373 145.506 78.6713 145.884 78.4073 146.376C78.1433 146.856 78.0113 147.408 78.0113 148.032V148.32C78.0113 148.956 78.1553 149.526 78.4433 150.03C78.7433 150.522 79.1573 150.906 79.6853 151.182C80.2133 151.458 80.8193 151.596 81.5033 151.596C82.0673 151.596 82.5773 151.5 83.0333 151.308C83.5013 151.116 83.9093 150.828 84.2573 150.444L85.2113 151.56C84.7793 152.064 84.2393 152.448 83.5913 152.712C82.9553 152.976 82.2413 153.108 81.4493 153.108ZM88.5041 153V143.46H90.2861L94.3901 150.516H93.6701L97.8821 143.46H99.5021V153H97.9361V145.404L98.2241 145.566L94.3721 151.92H93.6161L89.7461 145.44L90.0881 145.368V153H88.5041ZM108.715 153V150.984L108.625 150.606V147.168C108.625 146.436 108.409 145.872 107.977 145.476C107.557 145.068 106.921 144.864 106.069 144.864C105.505 144.864 104.953 144.96 104.413 145.152C103.873 145.332 103.417 145.578 103.045 145.89L102.325 144.594C102.817 144.198 103.405 143.898 104.089 143.694C104.785 143.478 105.511 143.37 106.267 143.37C107.575 143.37 108.583 143.688 109.291 144.324C109.999 144.96 110.353 145.932 110.353 147.24V153H108.715ZM105.583 153.108C104.875 153.108 104.251 152.988 103.711 152.748C103.183 152.508 102.775 152.178 102.487 151.758C102.199 151.326 102.055 150.84 102.055 150.3C102.055 149.784 102.175 149.316 102.415 148.896C102.667 148.476 103.069 148.14 103.621 147.888C104.185 147.636 104.941 147.51 105.889 147.51H108.913V148.752H105.961C105.097 148.752 104.515 148.896 104.215 149.184C103.915 149.472 103.765 149.82 103.765 150.228C103.765 150.696 103.951 151.074 104.323 151.362C104.695 151.638 105.211 151.776 105.871 151.776C106.519 151.776 107.083 151.632 107.563 151.344C108.055 151.056 108.409 150.636 108.625 150.084L108.967 151.272C108.739 151.836 108.337 152.286 107.761 152.622C107.185 152.946 106.459 153.108 105.583 153.108ZM119.567 153V149.652L119.837 149.976H116.795C115.523 149.976 114.527 149.706 113.807 149.166C113.099 148.626 112.745 147.84 112.745 146.808C112.745 145.704 113.123 144.87 113.879 144.306C114.647 143.742 115.667 143.46 116.939 143.46H121.115V153H119.567ZM112.655 153L115.247 149.346H117.029L114.509 153H112.655ZM119.567 149.112V144.486L119.837 144.972H116.993C116.201 144.972 115.589 145.122 115.157 145.422C114.725 145.71 114.509 146.19 114.509 146.862C114.509 148.11 115.313 148.734 116.921 148.734H119.837L119.567 149.112Z" fill="#6B360D"/>
<g opacity="0.75">
<path d="M130.207 84.0846C130.207 84.0806 130.207 84.0765 130.207 84.0725C130.207 84.0726 130.207 84.0724 130.207 84.0725C130.207 84.0721 130.207 84.0714 130.207 84.071C130.207 84.0711 130.207 84.0709 130.207 84.071L130.207 79.071C130.207 78.7948 130.431 78.571 130.707 78.571C130.983 78.571 131.207 78.7948 131.207 79.071V82.8639L136.717 77.3535C136.913 77.1582 137.229 77.1582 137.425 77.3535C137.62 77.5487 137.62 77.8653 137.425 78.0606L131.914 83.571L135.707 83.571C135.983 83.571 136.207 83.7948 136.207 84.071C136.207 84.3471 135.983 84.571 135.707 84.571L130.707 84.571C130.435 84.571 130.214 84.3544 130.207 84.0846Z" fill="#6B360D"/>
</g>
<path opacity="0.75" d="M22.324 81.716L19.48 77.6H20.728L22.972 80.852L25.24 77.6H26.44L23.608 81.692L26.56 86H25.288L22.948 82.544L20.584 86H19.36L22.324 81.716ZM30.2875 86.12C29.8795 86.12 29.4915 86.056 29.1235 85.928C28.7555 85.792 28.4315 85.592 28.1515 85.328C27.8715 85.056 27.6475 84.716 27.4795 84.308C27.3115 83.9 27.2275 83.424 27.2275 82.88V82.64C27.2275 82.128 27.3115 81.676 27.4795 81.284C27.6475 80.892 27.8715 80.568 28.1515 80.312C28.4315 80.048 28.7555 79.852 29.1235 79.724C29.4915 79.588 29.8795 79.52 30.2875 79.52C30.6955 79.52 31.0835 79.588 31.4515 79.724C31.8195 79.852 32.1435 80.048 32.4235 80.312C32.7035 80.568 32.9275 80.892 33.0955 81.284C33.2635 81.676 33.3475 82.128 33.3475 82.64V82.88C33.3475 83.424 33.2635 83.9 33.0955 84.308C32.9275 84.716 32.7035 85.056 32.4235 85.328C32.1435 85.592 31.8195 85.792 31.4515 85.928C31.0835 86.056 30.6955 86.12 30.2875 86.12ZM30.2875 85.16C30.5275 85.16 30.7675 85.12 31.0075 85.04C31.2475 84.952 31.4595 84.82 31.6435 84.644C31.8275 84.46 31.9755 84.224 32.0875 83.936C32.2075 83.648 32.2675 83.296 32.2675 82.88V82.64C32.2675 82.256 32.2075 81.928 32.0875 81.656C31.9755 81.384 31.8275 81.16 31.6435 80.984C31.4595 80.808 31.2475 80.68 31.0075 80.6C30.7675 80.52 30.5275 80.48 30.2875 80.48C30.0475 80.48 29.8075 80.52 29.5675 80.6C29.3275 80.68 29.1155 80.808 28.9315 80.984C28.7475 81.16 28.5955 81.384 28.4755 81.656C28.3635 81.928 28.3075 82.256 28.3075 82.64V82.88C28.3075 83.296 28.3635 83.648 28.4755 83.936C28.5955 84.224 28.7475 84.46 28.9315 84.644C29.1155 84.82 29.3275 84.952 29.5675 85.04C29.8075 85.12 30.0475 85.16 30.2875 85.16ZM38.5268 83.468C38.3428 83.58 38.1188 83.68 37.8548 83.768C37.5988 83.856 37.2748 83.9 36.8828 83.9C36.5148 83.9 36.1828 83.86 35.8868 83.78C35.5988 83.7 35.3548 83.572 35.1548 83.396C34.9548 83.22 34.8028 82.992 34.6988 82.712C34.5948 82.432 34.5428 82.088 34.5428 81.68V79.64H35.5988V81.5C35.5988 81.772 35.6228 82 35.6708 82.184C35.7268 82.368 35.8148 82.516 35.9348 82.628C36.0548 82.74 36.2068 82.82 36.3908 82.868C36.5748 82.916 36.7988 82.94 37.0628 82.94C37.4228 82.94 37.7308 82.904 37.9868 82.832C38.2428 82.76 38.4228 82.684 38.5268 82.604V79.64H39.5828V86H38.5268V83.468ZM42.3391 88.52C42.2191 88.52 42.0991 88.508 41.9791 88.484V87.524C42.0991 87.548 42.2191 87.56 42.3391 87.56C42.4591 87.56 42.5631 87.54 42.6511 87.5C42.7391 87.46 42.8231 87.384 42.9031 87.272C42.9831 87.16 43.0671 87 43.1551 86.792C43.2511 86.592 43.3591 86.328 43.4791 86L40.7791 79.64H41.9551L44.0191 84.8L45.8911 79.64H47.0191L44.6191 86C44.4511 86.448 44.2911 86.832 44.1391 87.152C43.9871 87.472 43.8231 87.732 43.6471 87.932C43.4791 88.14 43.2911 88.288 43.0831 88.376C42.8751 88.472 42.6271 88.52 42.3391 88.52Z" fill="#6B360D"/>
<path opacity="0.75" d="M134.123 148.008C134.891 148.008 135.503 148.212 135.959 148.62C136.423 149.028 136.655 149.572 136.655 150.252V150.816C136.655 151.52 136.419 152.084 135.947 152.508C135.475 152.924 134.847 153.132 134.063 153.132C133.271 153.132 132.643 152.956 132.179 152.604C131.715 152.244 131.483 151.752 131.483 151.128V151.008H132.335V151.128C132.335 151.504 132.487 151.8 132.791 152.016C133.095 152.232 133.507 152.34 134.027 152.34C134.571 152.34 134.999 152.208 135.311 151.944C135.623 151.672 135.779 151.3 135.779 150.828V150.264C135.779 149.816 135.619 149.464 135.299 149.208C134.987 148.944 134.563 148.812 134.027 148.812C133.555 148.812 133.167 148.92 132.863 149.136C132.559 149.344 132.395 149.62 132.371 149.964H131.531L131.783 145.128H136.343V145.932H132.563L132.431 148.572C132.855 148.196 133.419 148.008 134.123 148.008Z" fill="#6B360D"/>
<g opacity="0.75">
<rect opacity="0.25" x="13" y="77" width="2" height="8" fill="#6B360D"/>
<rect x="13" y="83" width="2" height="2" fill="#6B360D"/>
</g>
</g>
<rect opacity="0.75" x="-0.5" y="0.5" width="143" height="95" rx="1.5" transform="matrix(-1 0 0 1 295 67)" fill="white" stroke="#6B360D"/>
<path opacity="0.75" d="M172.2 77.6H173.328V81.188H177.792V77.6H178.92V86H177.792V82.172H173.328V86H172.2V77.6ZM181.077 79.64H182.061V80.84C182.277 80.416 182.577 80.092 182.961 79.868C183.353 79.636 183.805 79.52 184.317 79.52C185.117 79.52 185.757 79.784 186.237 80.312C186.717 80.832 186.957 81.608 186.957 82.64V82.88C186.957 83.424 186.893 83.9 186.765 84.308C186.637 84.708 186.457 85.044 186.225 85.316C185.993 85.58 185.713 85.78 185.385 85.916C185.065 86.052 184.709 86.12 184.317 86.12C183.773 86.12 183.317 86 182.949 85.76C182.589 85.52 182.317 85.22 182.133 84.86V88.4H181.077V79.64ZM184.077 85.184C184.333 85.184 184.573 85.136 184.797 85.04C185.021 84.936 185.213 84.788 185.373 84.596C185.541 84.404 185.669 84.164 185.757 83.876C185.853 83.588 185.901 83.256 185.901 82.88V82.64C185.901 82.296 185.853 81.988 185.757 81.716C185.669 81.444 185.541 81.216 185.373 81.032C185.213 80.84 185.021 80.696 184.797 80.6C184.573 80.504 184.333 80.456 184.077 80.456C183.789 80.456 183.525 80.504 183.285 80.6C183.045 80.688 182.841 80.816 182.673 80.984C182.505 81.144 182.373 81.336 182.277 81.56C182.181 81.784 182.133 82.024 182.133 82.28V83.24C182.133 83.528 182.181 83.792 182.277 84.032C182.373 84.272 182.505 84.476 182.673 84.644C182.841 84.812 183.045 84.944 183.285 85.04C183.525 85.136 183.789 85.184 184.077 85.184ZM190.272 86.12C189.92 86.12 189.608 86.072 189.336 85.976C189.072 85.872 188.848 85.732 188.664 85.556C188.48 85.38 188.34 85.172 188.244 84.932C188.148 84.692 188.1 84.428 188.1 84.14C188.1 83.508 188.284 83.052 188.652 82.772C189.028 82.492 189.564 82.352 190.26 82.352H192.324V81.92C192.324 81.376 192.2 81 191.952 80.792C191.712 80.584 191.348 80.48 190.86 80.48C190.404 80.48 190.072 80.568 189.864 80.744C189.656 80.912 189.54 81.104 189.516 81.32H188.46C188.476 81.064 188.544 80.828 188.664 80.612C188.792 80.388 188.96 80.196 189.168 80.036C189.384 79.876 189.64 79.752 189.936 79.664C190.232 79.568 190.56 79.52 190.92 79.52C191.672 79.52 192.268 79.7 192.708 80.06C193.156 80.412 193.38 80.992 193.38 81.8V84.38C193.38 84.716 193.38 85.012 193.38 85.268C193.388 85.516 193.408 85.76 193.44 86H192.516C192.492 85.816 192.476 85.644 192.468 85.484C192.46 85.316 192.456 85.128 192.456 84.92C192.288 85.256 192.016 85.54 191.64 85.772C191.264 86.004 190.808 86.12 190.272 86.12ZM190.5 85.16C190.748 85.16 190.98 85.128 191.196 85.064C191.42 84.992 191.616 84.892 191.784 84.764C191.952 84.628 192.084 84.464 192.18 84.272C192.276 84.08 192.324 83.856 192.324 83.6V83.168H190.44C190.048 83.168 189.74 83.248 189.516 83.408C189.292 83.56 189.18 83.804 189.18 84.14C189.18 84.436 189.284 84.68 189.492 84.872C189.708 85.064 190.044 85.16 190.5 85.16ZM195.245 79.64H198.005C198.789 79.64 199.365 79.804 199.733 80.132C200.101 80.452 200.285 80.868 200.285 81.38C200.285 81.516 200.261 81.656 200.213 81.8C200.165 81.936 200.097 82.064 200.009 82.184C199.929 82.304 199.829 82.408 199.709 82.496C199.597 82.584 199.469 82.652 199.325 82.7C199.717 82.796 200.013 82.98 200.213 83.252C200.421 83.516 200.525 83.828 200.525 84.188C200.525 84.74 200.341 85.18 199.973 85.508C199.605 85.836 199.029 86 198.245 86H195.245V79.64ZM198.245 85.064C198.693 85.064 199.009 84.984 199.193 84.824C199.377 84.664 199.469 84.436 199.469 84.14C199.469 83.836 199.377 83.604 199.193 83.444C199.009 83.276 198.693 83.192 198.245 83.192H196.301V85.064H198.245ZM198.005 82.328C198.461 82.328 198.777 82.248 198.953 82.088C199.137 81.928 199.229 81.708 199.229 81.428C199.229 81.164 199.137 80.956 198.953 80.804C198.777 80.652 198.461 80.576 198.005 80.576H196.301V82.328H198.005ZM202.03 79.64H203.086V84.44L206.374 79.64H207.43V86H206.374V81.2L203.086 86H202.03V79.64ZM210.807 80.576H208.635V79.64H214.035V80.576H211.863V86H210.807V80.576ZM217.58 86.12C217.172 86.12 216.792 86.056 216.44 85.928C216.088 85.792 215.784 85.592 215.528 85.328C215.272 85.056 215.068 84.716 214.916 84.308C214.772 83.9 214.7 83.424 214.7 82.88V82.64C214.7 82.128 214.78 81.676 214.94 81.284C215.1 80.892 215.312 80.568 215.576 80.312C215.84 80.048 216.144 79.852 216.488 79.724C216.84 79.588 217.204 79.52 217.58 79.52C217.956 79.52 218.292 79.572 218.588 79.676C218.892 79.78 219.152 79.924 219.368 80.108C219.592 80.292 219.772 80.508 219.908 80.756C220.052 81.004 220.156 81.272 220.22 81.56H219.14C219.076 81.408 219 81.268 218.912 81.14C218.832 81.004 218.728 80.888 218.6 80.792C218.48 80.696 218.336 80.62 218.168 80.564C218 80.508 217.804 80.48 217.58 80.48C217.348 80.48 217.124 80.524 216.908 80.612C216.692 80.692 216.5 80.82 216.332 80.996C216.164 81.164 216.028 81.384 215.924 81.656C215.828 81.928 215.78 82.256 215.78 82.64V82.88C215.78 83.288 215.828 83.64 215.924 83.936C216.028 84.224 216.164 84.46 216.332 84.644C216.5 84.82 216.692 84.952 216.908 85.04C217.124 85.12 217.348 85.16 217.58 85.16C217.972 85.16 218.3 85.064 218.564 84.872C218.836 84.68 219.028 84.416 219.14 84.08H220.22C220.068 84.712 219.756 85.212 219.284 85.58C218.812 85.94 218.244 86.12 217.58 86.12ZM222.907 83.48C222.379 83.36 221.999 83.144 221.767 82.832C221.535 82.512 221.419 82.104 221.419 81.608C221.419 80.984 221.607 80.5 221.983 80.156C222.367 79.812 222.979 79.64 223.819 79.64H226.579V86H225.523V83.576H223.903L222.355 86H221.179L222.907 83.48ZM222.475 81.608C222.475 81.944 222.571 82.2 222.763 82.376C222.963 82.552 223.295 82.64 223.759 82.64H225.523V80.576H223.759C223.295 80.576 222.963 80.664 222.763 80.84C222.571 81.016 222.475 81.272 222.475 81.608Z" fill="#6B360D"/>
<path d="M160.216 153L165.922 140.4H167.704L173.428 153H171.538L166.444 141.408H167.164L162.07 153H160.216ZM162.646 149.85L163.132 148.41H170.224L170.746 149.85H162.646ZM182.227 153L178.537 148.356L179.959 147.492L184.261 153H182.227ZM175.315 153V143.46H177.043V153H175.315ZM176.521 148.968V147.492H179.671V148.968H176.521ZM180.103 148.428L178.501 148.212L182.155 143.46H184.009L180.103 148.428ZM187.804 153V144.522L188.236 144.972H184.312V143.46H193.024V144.972H189.118L189.532 144.522V153H187.804ZM194.791 153V143.46H196.519V150.408L202.369 143.46H203.935V153H202.207V146.052L196.375 153H194.791ZM207.289 153V143.46H211.717C212.833 143.46 213.709 143.676 214.345 144.108C214.993 144.528 215.317 145.128 215.317 145.908C215.317 146.688 215.011 147.294 214.399 147.726C213.799 148.146 213.001 148.356 212.005 148.356L212.275 147.888C213.415 147.888 214.261 148.098 214.813 148.518C215.365 148.938 215.641 149.556 215.641 150.372C215.641 151.2 215.329 151.848 214.705 152.316C214.093 152.772 213.151 153 211.879 153H207.289ZM208.981 151.668H211.753C212.473 151.668 213.013 151.56 213.373 151.344C213.733 151.116 213.913 150.756 213.913 150.264C213.913 149.76 213.745 149.394 213.409 149.166C213.085 148.926 212.569 148.806 211.861 148.806H208.981V151.668ZM208.981 147.564H211.573C212.233 147.564 212.731 147.444 213.067 147.204C213.415 146.952 213.589 146.604 213.589 146.16C213.589 145.704 213.415 145.362 213.067 145.134C212.731 144.906 212.233 144.792 211.573 144.792H208.981V147.564ZM224.196 153V150.984L224.106 150.606V147.168C224.106 146.436 223.89 145.872 223.458 145.476C223.038 145.068 222.402 144.864 221.55 144.864C220.986 144.864 220.434 144.96 219.894 145.152C219.354 145.332 218.898 145.578 218.526 145.89L217.806 144.594C218.298 144.198 218.886 143.898 219.57 143.694C220.266 143.478 220.992 143.37 221.748 143.37C223.056 143.37 224.064 143.688 224.772 144.324C225.48 144.96 225.834 145.932 225.834 147.24V153H224.196ZM221.064 153.108C220.356 153.108 219.732 152.988 219.192 152.748C218.664 152.508 218.256 152.178 217.968 151.758C217.68 151.326 217.536 150.84 217.536 150.3C217.536 149.784 217.656 149.316 217.896 148.896C218.148 148.476 218.55 148.14 219.102 147.888C219.666 147.636 220.422 147.51 221.37 147.51H224.394V148.752H221.442C220.578 148.752 219.996 148.896 219.696 149.184C219.396 149.472 219.246 149.82 219.246 150.228C219.246 150.696 219.432 151.074 219.804 151.362C220.176 151.638 220.692 151.776 221.352 151.776C222 151.776 222.564 151.632 223.044 151.344C223.536 151.056 223.89 150.636 224.106 150.084L224.448 151.272C224.22 151.836 223.818 152.286 223.242 152.622C222.666 152.946 221.94 153.108 221.064 153.108ZM228.945 153V143.46H230.673V151.488H235.893V143.46H237.621V153H228.945ZM237.495 155.214V152.91L237.927 153H235.893V151.488H239.133V155.214H237.495ZM241.373 153V143.46H243.101V150.408L248.951 143.46H250.517V153H248.789V146.052L242.957 153H241.373ZM259.973 153V149.652L260.243 149.976H257.201C255.929 149.976 254.933 149.706 254.213 149.166C253.505 148.626 253.151 147.84 253.151 146.808C253.151 145.704 253.529 144.87 254.285 144.306C255.053 143.742 256.073 143.46 257.345 143.46H261.521V153H259.973ZM253.061 153L255.653 149.346H257.435L254.915 153H253.061ZM259.973 149.112V144.486L260.243 144.972H257.399C256.607 144.972 255.995 145.122 255.563 145.422C255.131 145.71 254.915 146.19 254.915 146.862C254.915 148.11 255.719 148.734 257.327 148.734H260.243L259.973 149.112Z" fill="#6B360D"/>
<path opacity="0.75" d="M282.184 148.104C282.688 148.104 283.132 148.2 283.516 148.392C283.908 148.584 284.208 148.856 284.416 149.208C284.632 149.56 284.74 149.964 284.74 150.42V150.804C284.74 151.26 284.628 151.664 284.404 152.016C284.188 152.368 283.88 152.644 283.48 152.844C283.088 153.036 282.636 153.132 282.124 153.132C281.596 153.132 281.128 153.028 280.72 152.82C280.312 152.612 279.996 152.32 279.772 151.944C279.548 151.568 279.436 151.136 279.436 150.648V147.564C279.436 147.052 279.548 146.604 279.772 146.22C279.996 145.828 280.308 145.528 280.708 145.32C281.116 145.104 281.584 144.996 282.112 144.996C282.616 144.996 283.064 145.084 283.456 145.26C283.848 145.436 284.152 145.684 284.368 146.004C284.584 146.324 284.692 146.692 284.692 147.108V147.276H283.84V147.108C283.84 146.716 283.68 146.4 283.36 146.16C283.048 145.912 282.632 145.788 282.112 145.788C281.56 145.788 281.12 145.948 280.792 146.268C280.464 146.58 280.3 147.004 280.3 147.54V148.764C280.532 148.556 280.808 148.396 281.128 148.284C281.456 148.164 281.808 148.104 282.184 148.104ZM283.876 150.432C283.876 149.944 283.724 149.568 283.42 149.304C283.116 149.032 282.684 148.896 282.124 148.896C281.7 148.896 281.328 148.976 281.008 149.136C280.696 149.296 280.46 149.516 280.3 149.796V150.636C280.3 151.148 280.468 151.56 280.804 151.872C281.14 152.184 281.58 152.34 282.124 152.34C282.66 152.34 283.084 152.204 283.396 151.932C283.716 151.66 283.876 151.288 283.876 150.816V150.432Z" fill="#6B360D"/>
<g opacity="0.75">
<rect width="2" height="4" transform="matrix(-1 0 0 1 167 81)" fill="#6B360D"/>
<rect width="2" height="2" transform="matrix(-1 0 0 1 163 83)" fill="#6B360D"/>
</g>
<g opacity="0.75">
<rect x="287" y="80.5" width="1" height="10" rx="0.5" transform="rotate(90 287 80.5)" fill="#6B360D"/>
</g>
<defs>
<linearGradient id="paint0_linear_1401_51561" x1="150" y1="0" x2="150" y2="24" gradientUnits="userSpaceOnUse">
<stop stop-color="white"/>
<stop offset="1" stop-color="white" stop-opacity="0"/>
</linearGradient>
<linearGradient id="paint1_linear_1401_51561" x1="150" y1="168" x2="150" y2="120" gradientUnits="userSpaceOnUse">
<stop stop-color="white"/>
<stop offset="1" stop-color="white" stop-opacity="0"/>
</linearGradient>
<clipPath id="clip0_1401_51561">
<rect width="180" height="60" fill="white" transform="translate(4 4)"/>
</clipPath>
<clipPath id="clip1_1401_51561">
<rect width="108" height="60" fill="white" transform="translate(188 4)"/>
</clipPath>
<clipPath id="clip2_1401_51561">
<rect width="144" height="96" fill="white" transform="translate(4 67)"/>
</clipPath>
</defs>
</svg>
