<svg width="300" height="167" viewBox="0 0 300 167" fill="none" xmlns="http://www.w3.org/2000/svg">
<g opacity="0.25">
<mask id="mask0_1401_51561" style="mask-type:alpha" maskUnits="userSpaceOnUse" x="0" y="143" width="300" height="24">
<path d="M0 165C0 166.105 0.895431 167 2 167H298C299.105 167 300 166.105 300 165V145C300 143.895 299.105 143 298 143H2C0.895429 143 0 143.895 0 145V165Z" fill="url(#paint0_linear_1401_51561)"/>
</mask>
<g mask="url(#mask0_1401_51561)">
<path d="M2 166.5H298C298.828 166.5 299.5 165.828 299.5 165V145C299.5 144.172 298.828 143.5 298 143.5H2C1.17157 143.5 0.5 144.172 0.5 145V165C0.5 165.828 1.17157 166.5 2 166.5Z" stroke="#6B360D"/>
</g>
</g>
<g clip-path="url(#clip0_1401_51561)">
<rect opacity="0.75" width="108" height="60" rx="2" transform="matrix(-1 0 0 1 112 103)" fill="#6B360D"/>
<path opacity="0.75" d="M27.2 113.6H32.66V114.572H28.328V116.96H30.2C30.752 116.96 31.232 117.02 31.64 117.14C32.048 117.26 32.384 117.432 32.648 117.656C32.92 117.88 33.12 118.148 33.248 118.46C33.376 118.764 33.44 119.104 33.44 119.48C33.44 119.856 33.376 120.2 33.248 120.512C33.12 120.816 32.92 121.08 32.648 121.304C32.384 121.528 32.048 121.7 31.64 121.82C31.232 121.94 30.752 122 30.2 122H27.2V113.6ZM30.14 121.016C30.94 121.016 31.5 120.884 31.82 120.62C32.148 120.348 32.312 119.968 32.312 119.48C32.312 118.992 32.148 118.616 31.82 118.352C31.5 118.08 30.94 117.944 30.14 117.944H28.328V121.016H30.14ZM37.5805 122.12C37.1725 122.12 36.7845 122.056 36.4165 121.928C36.0485 121.8 35.7245 121.604 35.4445 121.34C35.1645 121.068 34.9405 120.728 34.7725 120.32C34.6045 119.912 34.5205 119.432 34.5205 118.88V118.64C34.5205 118.112 34.6005 117.656 34.7605 117.272C34.9205 116.88 35.1325 116.556 35.3965 116.3C35.6685 116.036 35.9805 115.84 36.3325 115.712C36.6925 115.584 37.0685 115.52 37.4605 115.52C38.3965 115.52 39.1205 115.776 39.6325 116.288C40.1445 116.8 40.4005 117.524 40.4005 118.46V119.132H35.5765C35.5765 119.508 35.6365 119.824 35.7565 120.08C35.8765 120.336 36.0325 120.544 36.2245 120.704C36.4165 120.864 36.6285 120.98 36.8605 121.052C37.1005 121.124 37.3405 121.16 37.5805 121.16C38.0605 121.16 38.4285 121.08 38.6845 120.92C38.9485 120.76 39.1365 120.54 39.2485 120.26H40.2805C40.2165 120.564 40.1005 120.832 39.9325 121.064C39.7725 121.296 39.5725 121.492 39.3325 121.652C39.1005 121.804 38.8325 121.92 38.5285 122C38.2325 122.08 37.9165 122.12 37.5805 122.12ZM37.5205 116.48C37.2725 116.48 37.0325 116.516 36.8005 116.588C36.5685 116.652 36.3605 116.76 36.1765 116.912C36.0005 117.056 35.8565 117.24 35.7445 117.464C35.6325 117.688 35.5765 117.956 35.5765 118.268H39.4045C39.3965 117.94 39.3405 117.664 39.2365 117.44C39.1405 117.208 39.0085 117.024 38.8405 116.888C38.6725 116.744 38.4725 116.64 38.2405 116.576C38.0165 116.512 37.7765 116.48 37.5205 116.48ZM44.3614 122.12C43.9534 122.12 43.5734 122.056 43.2214 121.928C42.8694 121.792 42.5654 121.592 42.3094 121.328C42.0534 121.056 41.8494 120.716 41.6974 120.308C41.5534 119.9 41.4814 119.424 41.4814 118.88V118.64C41.4814 118.128 41.5614 117.676 41.7214 117.284C41.8814 116.892 42.0934 116.568 42.3574 116.312C42.6214 116.048 42.9254 115.852 43.2694 115.724C43.6214 115.588 43.9854 115.52 44.3614 115.52C44.7374 115.52 45.0734 115.572 45.3694 115.676C45.6734 115.78 45.9334 115.924 46.1494 116.108C46.3734 116.292 46.5534 116.508 46.6894 116.756C46.8334 117.004 46.9374 117.272 47.0014 117.56H45.9214C45.8574 117.408 45.7814 117.268 45.6934 117.14C45.6134 117.004 45.5094 116.888 45.3814 116.792C45.2614 116.696 45.1174 116.62 44.9494 116.564C44.7814 116.508 44.5854 116.48 44.3614 116.48C44.1294 116.48 43.9054 116.524 43.6894 116.612C43.4734 116.692 43.2814 116.82 43.1134 116.996C42.9454 117.164 42.8094 117.384 42.7054 117.656C42.6094 117.928 42.5614 118.256 42.5614 118.64V118.88C42.5614 119.288 42.6094 119.64 42.7054 119.936C42.8094 120.224 42.9454 120.46 43.1134 120.644C43.2814 120.82 43.4734 120.952 43.6894 121.04C43.9054 121.12 44.1294 121.16 44.3614 121.16C44.7534 121.16 45.0814 121.064 45.3454 120.872C45.6174 120.68 45.8094 120.416 45.9214 120.08H47.0014C46.8494 120.712 46.5374 121.212 46.0654 121.58C45.5934 121.94 45.0254 122.12 44.3614 122.12ZM48.4405 115.64H49.4965V120.44L52.7845 115.64H53.8405V122H52.7845V117.2L49.4965 122H48.4405V115.64ZM57.2167 116.576H55.0447V115.64H60.4447V116.576H58.2727V122H57.2167V116.576Z" fill="white"/>
<g opacity="0.75">
<path d="M94.5 113.5C94.5 113.224 94.7239 113 95 113C95.2761 113 95.5 113.224 95.5 113.5V120.5C95.5 120.776 95.2761 121 95 121C94.7239 121 94.5 120.776 94.5 120.5V113.5Z" fill="white"/>
<path d="M97.5 113.5C97.5 113.224 97.7239 113 98 113C98.2761 113 98.5 113.224 98.5 113.5V120.5C98.5 120.776 98.2761 121 98 121C97.7239 121 97.5 120.776 97.5 120.5V113.5Z" fill="white"/>
<path d="M101 113C100.724 113 100.5 113.224 100.5 113.5V120.5C100.5 120.776 100.724 121 101 121C101.276 121 101.5 120.776 101.5 120.5V113.5C101.5 113.224 101.276 113 101 113Z" fill="white"/>
</g>
<path opacity="0.75" d="M100.357 145.128V145.908C98.725 148.508 97.909 150.776 97.909 152.712V153H97.045V152.712C97.045 151.784 97.253 150.728 97.669 149.544C98.085 148.352 98.673 147.14 99.433 145.908H95.413V145.128H100.357Z" fill="white"/>
<path d="M12.576 151.632L13.206 150.3C13.758 150.732 14.364 151.056 15.024 151.272C15.696 151.488 16.362 151.602 17.022 151.614C17.682 151.614 18.288 151.524 18.84 151.344C19.404 151.164 19.854 150.894 20.19 150.534C20.526 150.174 20.694 149.73 20.694 149.202C20.694 148.554 20.43 148.062 19.902 147.726C19.386 147.39 18.666 147.222 17.742 147.222H14.934V145.764H17.616C18.42 145.764 19.044 145.602 19.488 145.278C19.944 144.942 20.172 144.48 20.172 143.892C20.172 143.448 20.034 143.076 19.758 142.776C19.494 142.464 19.128 142.23 18.66 142.074C18.204 141.918 17.682 141.84 17.094 141.84C16.518 141.828 15.924 141.906 15.312 142.074C14.7 142.23 14.112 142.482 13.548 142.83L12.972 141.354C13.74 140.922 14.538 140.622 15.366 140.454C16.206 140.274 17.016 140.22 17.796 140.292C18.576 140.352 19.278 140.532 19.902 140.832C20.538 141.12 21.042 141.504 21.414 141.984C21.798 142.452 21.99 143.016 21.99 143.676C21.99 144.276 21.834 144.81 21.522 145.278C21.21 145.734 20.778 146.088 20.226 146.34C19.674 146.58 19.032 146.7 18.3 146.7L18.372 146.214C19.212 146.214 19.938 146.352 20.55 146.628C21.174 146.892 21.654 147.27 21.99 147.762C22.338 148.254 22.512 148.824 22.512 149.472C22.512 150.084 22.356 150.63 22.044 151.11C21.732 151.578 21.306 151.974 20.766 152.298C20.238 152.61 19.632 152.838 18.948 152.982C18.276 153.126 17.568 153.174 16.824 153.126C16.08 153.078 15.342 152.934 14.61 152.694C13.89 152.454 13.212 152.1 12.576 151.632ZM31.0728 153V150.984L30.9828 150.606V147.168C30.9828 146.436 30.7668 145.872 30.3348 145.476C29.9148 145.068 29.2788 144.864 28.4268 144.864C27.8628 144.864 27.3108 144.96 26.7708 145.152C26.2308 145.332 25.7748 145.578 25.4028 145.89L24.6828 144.594C25.1748 144.198 25.7628 143.898 26.4468 143.694C27.1428 143.478 27.8688 143.37 28.6248 143.37C29.9328 143.37 30.9408 143.688 31.6488 144.324C32.3568 144.96 32.7108 145.932 32.7108 147.24V153H31.0728ZM27.9408 153.108C27.2328 153.108 26.6088 152.988 26.0688 152.748C25.5408 152.508 25.1328 152.178 24.8448 151.758C24.5568 151.326 24.4128 150.84 24.4128 150.3C24.4128 149.784 24.5328 149.316 24.7728 148.896C25.0248 148.476 25.4268 148.14 25.9788 147.888C26.5428 147.636 27.2988 147.51 28.2468 147.51H31.2708V148.752H28.3188C27.4548 148.752 26.8728 148.896 26.5728 149.184C26.2728 149.472 26.1228 149.82 26.1228 150.228C26.1228 150.696 26.3088 151.074 26.6808 151.362C27.0528 151.638 27.5688 151.776 28.2288 151.776C28.8768 151.776 29.4408 151.632 29.9208 151.344C30.4128 151.056 30.7668 150.636 30.9828 150.084L31.3248 151.272C31.0968 151.836 30.6948 152.286 30.1188 152.622C29.5428 152.946 28.8168 153.108 27.9408 153.108ZM42.1584 151.488L41.7624 151.938V143.46H43.4904V151.938L43.0584 151.488H48.0984L47.6844 151.938V143.46H49.4124V153H35.8224V143.46H37.5504V151.938L37.1364 151.488H42.1584ZM49.1964 155.034V152.55L49.6104 153H47.5944V151.488H50.8164V155.034H49.1964ZM52.7678 153V143.46H54.4958V150.408L60.3457 143.46H61.9118V153H60.1837V146.052L54.3518 153H52.7678ZM67.1558 153V144.522L67.5878 144.972H63.6638V143.46H72.3758V144.972H68.4698L68.8838 144.522V153H67.1558ZM79.9928 153V150.984L79.9028 150.606V147.168C79.9028 146.436 79.6868 145.872 79.2548 145.476C78.8348 145.068 78.1988 144.864 77.3468 144.864C76.7828 144.864 76.2308 144.96 75.6908 145.152C75.1508 145.332 74.6948 145.578 74.3228 145.89L73.6028 144.594C74.0948 144.198 74.6828 143.898 75.3668 143.694C76.0628 143.478 76.7888 143.37 77.5448 143.37C78.8528 143.37 79.8608 143.688 80.5688 144.324C81.2768 144.96 81.6308 145.932 81.6308 147.24V153H79.9928ZM76.8608 153.108C76.1528 153.108 75.5288 152.988 74.9888 152.748C74.4608 152.508 74.0528 152.178 73.7648 151.758C73.4768 151.326 73.3328 150.84 73.3328 150.3C73.3328 149.784 73.4528 149.316 73.6928 148.896C73.9448 148.476 74.3468 148.14 74.8988 147.888C75.4628 147.636 76.2188 147.51 77.1668 147.51H80.1908V148.752H77.2388C76.3748 148.752 75.7928 148.896 75.4928 149.184C75.1928 149.472 75.0428 149.82 75.0428 150.228C75.0428 150.696 75.2288 151.074 75.6008 151.362C75.9728 151.638 76.4888 151.776 77.1488 151.776C77.7968 151.776 78.3608 151.632 78.8408 151.344C79.3328 151.056 79.6868 150.636 79.9028 150.084L80.2448 151.272C80.0168 151.836 79.6148 152.286 79.0388 152.622C78.4628 152.946 77.7368 153.108 76.8608 153.108Z" fill="white"/>
<g opacity="0.75">
<rect width="2" height="6" transform="matrix(-1 0 0 1 22 115)" fill="white"/>
<rect width="2" height="4" transform="matrix(-1 0 0 1 18 117)" fill="white"/>
<rect width="2" height="2" transform="matrix(-1 0 0 1 14 119)" fill="white"/>
</g>
</g>
<g clip-path="url(#clip1_1401_51561)">
<rect opacity="0.75" width="180" height="60" rx="2" transform="matrix(-1 0 0 1 296 103)" fill="#6B360D"/>
<path opacity="0.75" d="M144.24 121.016H145.14C145.292 120.712 145.42 120.336 145.524 119.888C145.628 119.44 145.708 118.96 145.764 118.448C145.82 117.928 145.86 117.396 145.884 116.852C145.908 116.3 145.92 115.776 145.92 115.28V113.6H151.38V121.016H152.4V123.56H151.32V122H145.32V123.56H144.24V121.016ZM150.252 121.016V114.584H147.024V115.52C147.024 116.736 146.968 117.788 146.856 118.676C146.752 119.564 146.58 120.344 146.34 121.016H150.252ZM156.248 122.12C155.84 122.12 155.452 122.056 155.084 121.928C154.716 121.8 154.392 121.604 154.112 121.34C153.832 121.068 153.608 120.728 153.44 120.32C153.272 119.912 153.188 119.432 153.188 118.88V118.64C153.188 118.112 153.268 117.656 153.428 117.272C153.588 116.88 153.8 116.556 154.064 116.3C154.336 116.036 154.648 115.84 155 115.712C155.36 115.584 155.736 115.52 156.128 115.52C157.064 115.52 157.788 115.776 158.3 116.288C158.812 116.8 159.068 117.524 159.068 118.46V119.132H154.244C154.244 119.508 154.304 119.824 154.424 120.08C154.544 120.336 154.7 120.544 154.892 120.704C155.084 120.864 155.296 120.98 155.528 121.052C155.768 121.124 156.008 121.16 156.248 121.16C156.728 121.16 157.096 121.08 157.352 120.92C157.616 120.76 157.804 120.54 157.916 120.26H158.948C158.884 120.564 158.768 120.832 158.6 121.064C158.44 121.296 158.24 121.492 158 121.652C157.768 121.804 157.5 121.92 157.196 122C156.9 122.08 156.584 122.12 156.248 122.12ZM156.188 116.48C155.94 116.48 155.7 116.516 155.468 116.588C155.236 116.652 155.028 116.76 154.844 116.912C154.668 117.056 154.524 117.24 154.412 117.464C154.3 117.688 154.244 117.956 154.244 118.268H158.072C158.064 117.94 158.008 117.664 157.904 117.44C157.808 117.208 157.676 117.024 157.508 116.888C157.34 116.744 157.14 116.64 156.908 116.576C156.684 116.512 156.444 116.48 156.188 116.48ZM160.152 122.12C160.032 122.12 159.912 122.108 159.792 122.084V121.028C159.832 121.036 159.892 121.04 159.972 121.04C160.148 121.04 160.3 120.984 160.428 120.872C160.564 120.76 160.672 120.564 160.752 120.284C160.832 120.004 160.892 119.624 160.932 119.144C160.972 118.664 160.992 118.056 160.992 117.32V115.64H165.552V122H164.496V116.576H162.048V117.56C162.048 118.448 162.008 119.184 161.928 119.768C161.848 120.352 161.728 120.82 161.568 121.172C161.416 121.516 161.22 121.76 160.98 121.904C160.74 122.048 160.464 122.12 160.152 122.12ZM169.284 122.12C168.932 122.12 168.62 122.072 168.348 121.976C168.084 121.872 167.86 121.732 167.676 121.556C167.492 121.38 167.352 121.172 167.256 120.932C167.16 120.692 167.112 120.428 167.112 120.14C167.112 119.508 167.296 119.052 167.664 118.772C168.04 118.492 168.576 118.352 169.272 118.352H171.336V117.92C171.336 117.376 171.212 117 170.964 116.792C170.724 116.584 170.36 116.48 169.872 116.48C169.416 116.48 169.084 116.568 168.876 116.744C168.668 116.912 168.552 117.104 168.528 117.32H167.472C167.488 117.064 167.556 116.828 167.676 116.612C167.804 116.388 167.972 116.196 168.18 116.036C168.396 115.876 168.652 115.752 168.948 115.664C169.244 115.568 169.572 115.52 169.932 115.52C170.684 115.52 171.28 115.7 171.72 116.06C172.168 116.412 172.392 116.992 172.392 117.8V120.38C172.392 120.716 172.392 121.012 172.392 121.268C172.4 121.516 172.42 121.76 172.452 122H171.528C171.504 121.816 171.488 121.644 171.48 121.484C171.472 121.316 171.468 121.128 171.468 120.92C171.3 121.256 171.028 121.54 170.652 121.772C170.276 122.004 169.82 122.12 169.284 122.12ZM169.512 121.16C169.76 121.16 169.992 121.128 170.208 121.064C170.432 120.992 170.628 120.892 170.796 120.764C170.964 120.628 171.096 120.464 171.192 120.272C171.288 120.08 171.336 119.856 171.336 119.6V119.168H169.452C169.06 119.168 168.752 119.248 168.528 119.408C168.304 119.56 168.192 119.804 168.192 120.14C168.192 120.436 168.296 120.68 168.504 120.872C168.72 121.064 169.056 121.16 169.512 121.16ZM174.257 115.64H175.313V118.292H176.213C176.245 117.836 176.345 117.436 176.513 117.092C176.681 116.74 176.893 116.448 177.149 116.216C177.413 115.984 177.713 115.812 178.049 115.7C178.385 115.58 178.741 115.52 179.117 115.52C179.525 115.52 179.905 115.588 180.257 115.724C180.617 115.852 180.929 116.048 181.193 116.312C181.457 116.568 181.665 116.892 181.817 117.284C181.977 117.676 182.057 118.128 182.057 118.64V118.88C182.057 119.424 181.977 119.9 181.817 120.308C181.665 120.716 181.457 121.056 181.193 121.328C180.929 121.592 180.617 121.792 180.257 121.928C179.905 122.056 179.525 122.12 179.117 122.12C178.741 122.12 178.381 122.064 178.037 121.952C177.701 121.832 177.401 121.652 177.137 121.412C176.881 121.172 176.669 120.872 176.501 120.512C176.341 120.144 176.245 119.716 176.213 119.228H175.313V122H174.257V115.64ZM179.117 121.16C179.357 121.16 179.589 121.12 179.813 121.04C180.037 120.952 180.233 120.82 180.401 120.644C180.577 120.46 180.717 120.224 180.821 119.936C180.925 119.648 180.977 119.296 180.977 118.88V118.64C180.977 118.256 180.925 117.928 180.821 117.656C180.717 117.384 180.577 117.16 180.401 116.984C180.233 116.808 180.037 116.68 179.813 116.6C179.589 116.52 179.357 116.48 179.117 116.48C178.877 116.48 178.645 116.52 178.421 116.6C178.197 116.68 177.997 116.808 177.821 116.984C177.653 117.16 177.517 117.384 177.413 117.656C177.309 117.928 177.257 118.256 177.257 118.64V118.88C177.257 119.296 177.309 119.648 177.413 119.936C177.517 120.224 177.653 120.46 177.821 120.644C177.997 120.82 178.197 120.952 178.421 121.04C178.645 121.12 178.877 121.16 179.117 121.16Z" fill="white"/>
<g opacity="0.75">
<circle cx="282" cy="117" r="2" fill="white"/>
</g>
<path opacity="0.75" d="M283.476 148.968C283.868 149.136 284.172 149.372 284.388 149.676C284.612 149.972 284.724 150.316 284.724 150.708V150.996C284.724 151.42 284.612 151.796 284.388 152.124C284.164 152.444 283.844 152.692 283.428 152.868C283.02 153.044 282.544 153.132 282 153.132C281.176 153.132 280.516 152.94 280.02 152.556C279.524 152.164 279.276 151.644 279.276 150.996V150.708C279.276 150.316 279.384 149.972 279.6 149.676C279.816 149.372 280.12 149.136 280.512 148.968C280.168 148.8 279.904 148.572 279.72 148.284C279.536 147.996 279.444 147.664 279.444 147.288V147.06C279.444 146.42 279.672 145.916 280.128 145.548C280.584 145.18 281.208 144.996 282 144.996C282.784 144.996 283.404 145.184 283.86 145.56C284.316 145.928 284.544 146.428 284.544 147.06V147.288C284.544 147.664 284.452 147.996 284.268 148.284C284.084 148.572 283.82 148.8 283.476 148.968ZM280.296 147.264C280.296 147.704 280.44 148.04 280.728 148.272C281.016 148.496 281.44 148.608 282 148.608C282.56 148.608 282.984 148.496 283.272 148.272C283.56 148.04 283.704 147.704 283.704 147.264V147.108C283.704 146.676 283.556 146.348 283.26 146.124C282.972 145.892 282.552 145.776 282 145.776C281.44 145.776 281.016 145.892 280.728 146.124C280.44 146.348 280.296 146.676 280.296 147.108V147.264ZM283.86 150.744C283.86 150.32 283.696 149.992 283.368 149.76C283.04 149.52 282.584 149.4 282 149.4C281.416 149.4 280.956 149.52 280.62 149.76C280.292 149.992 280.128 150.32 280.128 150.744V151.008C280.128 151.424 280.292 151.752 280.62 151.992C280.948 152.224 281.408 152.34 282 152.34C282.584 152.34 283.04 152.224 283.368 151.992C283.696 151.76 283.86 151.432 283.86 151.008V150.744Z" fill="white"/>
<path d="M132.118 152.154C130.582 152.154 129.268 151.944 128.176 151.524C127.084 151.092 126.25 150.468 125.674 149.652C125.098 148.836 124.81 147.846 124.81 146.682C124.81 145.518 125.098 144.528 125.674 143.712C126.25 142.896 127.084 142.272 128.176 141.84C129.268 141.408 130.582 141.192 132.118 141.192C132.142 141.192 132.184 141.192 132.244 141.192C132.316 141.192 132.382 141.192 132.442 141.192C132.514 141.192 132.556 141.192 132.568 141.192C134.104 141.192 135.412 141.408 136.492 141.84C137.584 142.272 138.418 142.896 138.994 143.712C139.57 144.528 139.858 145.518 139.858 146.682C139.858 147.834 139.57 148.824 138.994 149.652C138.43 150.468 137.608 151.092 136.528 151.524C135.46 151.944 134.164 152.154 132.64 152.154C132.616 152.154 132.562 152.154 132.478 152.154C132.406 152.154 132.334 152.154 132.262 152.154C132.19 152.154 132.142 152.154 132.118 152.154ZM132.316 150.75C132.34 150.75 132.37 150.75 132.406 150.75C132.442 150.75 132.46 150.75 132.46 150.75C133.684 150.738 134.716 150.582 135.556 150.282C136.396 149.97 137.032 149.514 137.464 148.914C137.908 148.302 138.13 147.552 138.13 146.664C138.13 145.788 137.908 145.05 137.464 144.45C137.02 143.85 136.378 143.394 135.538 143.082C134.71 142.77 133.696 142.614 132.496 142.614C132.484 142.614 132.454 142.614 132.406 142.614C132.37 142.614 132.34 142.614 132.316 142.614C131.08 142.614 130.03 142.77 129.166 143.082C128.314 143.382 127.666 143.832 127.222 144.432C126.778 145.032 126.556 145.782 126.556 146.682C126.556 147.582 126.784 148.332 127.24 148.932C127.696 149.532 128.35 149.988 129.202 150.3C130.066 150.6 131.104 150.75 132.316 150.75ZM131.506 153.468V139.932H133.18V153.468H131.506ZM146.424 153.108C145.464 153.108 144.612 152.898 143.868 152.478C143.124 152.058 142.536 151.482 142.104 150.75C141.672 150.006 141.456 149.166 141.456 148.23C141.456 147.282 141.672 146.442 142.104 145.71C142.536 144.978 143.124 144.408 143.868 144C144.612 143.58 145.464 143.37 146.424 143.37C147.372 143.37 148.218 143.58 148.962 144C149.718 144.408 150.306 144.978 150.726 145.71C151.158 146.43 151.374 147.27 151.374 148.23C151.374 149.178 151.158 150.018 150.726 150.75C150.306 151.482 149.718 152.058 148.962 152.478C148.218 152.898 147.372 153.108 146.424 153.108ZM146.424 151.596C147.036 151.596 147.582 151.458 148.062 151.182C148.554 150.906 148.938 150.516 149.214 150.012C149.49 149.496 149.628 148.902 149.628 148.23C149.628 147.546 149.49 146.958 149.214 146.466C148.938 145.962 148.554 145.572 148.062 145.296C147.582 145.02 147.036 144.882 146.424 144.882C145.812 144.882 145.266 145.02 144.786 145.296C144.306 145.572 143.922 145.962 143.634 146.466C143.346 146.958 143.202 147.546 143.202 148.23C143.202 148.902 143.346 149.496 143.634 150.012C143.922 150.516 144.306 150.906 144.786 151.182C145.266 151.458 145.812 151.596 146.424 151.596ZM153.869 153V143.46H155.597V147.51H161.033V143.46H162.761V153H161.033V149.004H155.597V153H153.869ZM170.207 153.108C169.247 153.108 168.395 152.898 167.651 152.478C166.907 152.058 166.319 151.482 165.887 150.75C165.455 150.006 165.239 149.166 165.239 148.23C165.239 147.282 165.455 146.442 165.887 145.71C166.319 144.978 166.907 144.408 167.651 144C168.395 143.58 169.247 143.37 170.207 143.37C171.155 143.37 172.001 143.58 172.745 144C173.501 144.408 174.089 144.978 174.509 145.71C174.941 146.43 175.157 147.27 175.157 148.23C175.157 149.178 174.941 150.018 174.509 150.75C174.089 151.482 173.501 152.058 172.745 152.478C172.001 152.898 171.155 153.108 170.207 153.108ZM170.207 151.596C170.819 151.596 171.365 151.458 171.845 151.182C172.337 150.906 172.721 150.516 172.997 150.012C173.273 149.496 173.411 148.902 173.411 148.23C173.411 147.546 173.273 146.958 172.997 146.466C172.721 145.962 172.337 145.572 171.845 145.296C171.365 145.02 170.819 144.882 170.207 144.882C169.595 144.882 169.049 145.02 168.569 145.296C168.089 145.572 167.705 145.962 167.417 146.466C167.129 146.958 166.985 147.546 166.985 148.23C166.985 148.902 167.129 149.496 167.417 150.012C167.705 150.516 168.089 150.906 168.569 151.182C169.049 151.458 169.595 151.596 170.207 151.596ZM177.653 153V143.46H182.081C183.197 143.46 184.073 143.676 184.709 144.108C185.357 144.528 185.681 145.128 185.681 145.908C185.681 146.688 185.375 147.294 184.763 147.726C184.163 148.146 183.365 148.356 182.369 148.356L182.639 147.888C183.779 147.888 184.625 148.098 185.177 148.518C185.729 148.938 186.005 149.556 186.005 150.372C186.005 151.2 185.693 151.848 185.069 152.316C184.457 152.772 183.515 153 182.243 153H177.653ZM179.345 151.668H182.117C182.837 151.668 183.377 151.56 183.737 151.344C184.097 151.116 184.277 150.756 184.277 150.264C184.277 149.76 184.109 149.394 183.773 149.166C183.449 148.926 182.933 148.806 182.225 148.806H179.345V151.668ZM179.345 147.564H181.937C182.597 147.564 183.095 147.444 183.431 147.204C183.779 146.952 183.953 146.604 183.953 146.16C183.953 145.704 183.779 145.362 183.431 145.134C183.095 144.906 182.597 144.792 181.937 144.792H179.345V147.564ZM194.559 153V150.984L194.469 150.606V147.168C194.469 146.436 194.253 145.872 193.821 145.476C193.401 145.068 192.765 144.864 191.913 144.864C191.349 144.864 190.797 144.96 190.257 145.152C189.717 145.332 189.261 145.578 188.889 145.89L188.169 144.594C188.661 144.198 189.249 143.898 189.933 143.694C190.629 143.478 191.355 143.37 192.111 143.37C193.419 143.37 194.427 143.688 195.135 144.324C195.843 144.96 196.197 145.932 196.197 147.24V153H194.559ZM191.427 153.108C190.719 153.108 190.095 152.988 189.555 152.748C189.027 152.508 188.619 152.178 188.331 151.758C188.043 151.326 187.899 150.84 187.899 150.3C187.899 149.784 188.019 149.316 188.259 148.896C188.511 148.476 188.913 148.14 189.465 147.888C190.029 147.636 190.785 147.51 191.733 147.51H194.757V148.752H191.805C190.941 148.752 190.359 148.896 190.059 149.184C189.759 149.472 189.609 149.82 189.609 150.228C189.609 150.696 189.795 151.074 190.167 151.362C190.539 151.638 191.055 151.776 191.715 151.776C192.363 151.776 192.927 151.632 193.407 151.344C193.899 151.056 194.253 150.636 194.469 150.084L194.811 151.272C194.583 151.836 194.181 152.286 193.605 152.622C193.029 152.946 192.303 153.108 191.427 153.108ZM205.411 153V149.652L205.681 149.976H202.639C201.367 149.976 200.371 149.706 199.651 149.166C198.943 148.626 198.589 147.84 198.589 146.808C198.589 145.704 198.967 144.87 199.723 144.306C200.491 143.742 201.511 143.46 202.783 143.46H206.959V153H205.411ZM198.499 153L201.091 149.346H202.873L200.353 153H198.499ZM205.411 149.112V144.486L205.681 144.972H202.837C202.045 144.972 201.433 145.122 201.001 145.422C200.569 145.71 200.353 146.19 200.353 146.862C200.353 148.11 201.157 148.734 202.765 148.734H205.681L205.411 149.112Z" fill="white"/>
<g opacity="0.75">
<rect width="2" height="8" transform="matrix(-1 0 0 1 139 113)" fill="white"/>
<rect width="2" height="6" transform="matrix(-1 0 0 1 135 115)" fill="white"/>
<rect width="2" height="4" transform="matrix(-1 0 0 1 131 117)" fill="white"/>
<rect width="2" height="2" transform="matrix(-1 0 0 1 127 119)" fill="white"/>
</g>
</g>
<g opacity="0.25">
<mask id="mask1_1401_51561" style="mask-type:alpha" maskUnits="userSpaceOnUse" x="0" y="0" width="300" height="48">
<path d="M0 2C0 0.895431 0.895431 0 2 0H298C299.105 0 300 0.895431 300 2V46C300 47.1046 299.105 48 298 48H2C0.895429 48 0 47.1046 0 46V2Z" fill="url(#paint1_linear_1401_51561)"/>
</mask>
<g mask="url(#mask1_1401_51561)">
<path d="M2 0.5H298C298.828 0.5 299.5 1.17157 299.5 2V46C299.5 46.8284 298.828 47.5 298 47.5H2C1.17157 47.5 0.5 46.8284 0.5 46V2C0.5 1.17157 1.17157 0.5 2 0.5Z" stroke="#6B360D"/>
</g>
</g>
<g clip-path="url(#clip2_1401_51561)">
<rect x="-0.5" y="0.5" width="143" height="95" rx="1.5" transform="matrix(-1 0 0 1 147 4)" fill="white" stroke="#6B360D"/>
<path opacity="0.05" d="M114 100L59.3333 4H27L81.6667 100H114Z" fill="#6B360D"/>
<path opacity="0.1" d="M77.3333 4L132 100H122L67.3333 4H77.3333Z" fill="#6B360D"/>
<path d="M13.962 90V77.4H19.38C20.748 77.4 21.822 77.676 22.602 78.228C23.382 78.78 23.772 79.584 23.772 80.64C23.772 81.672 23.4 82.464 22.656 83.016C21.912 83.556 20.934 83.826 19.722 83.826L20.046 83.286C21.45 83.286 22.524 83.568 23.268 84.132C24.024 84.684 24.402 85.494 24.402 86.562C24.402 87.642 24.006 88.488 23.214 89.1C22.434 89.7 21.27 90 19.722 90H13.962ZM15.744 88.578H19.686C20.646 88.578 21.366 88.404 21.846 88.056C22.338 87.696 22.584 87.15 22.584 86.418C22.584 85.686 22.338 85.152 21.846 84.816C21.366 84.48 20.646 84.312 19.686 84.312H15.744V88.578ZM15.744 82.944H19.254C20.13 82.944 20.796 82.77 21.252 82.422C21.72 82.074 21.954 81.564 21.954 80.892C21.954 80.208 21.72 79.692 21.252 79.344C20.796 78.996 20.13 78.822 19.254 78.822H15.744V82.944ZM27.1213 90V80.46H28.8493V84.51H34.2853V80.46H36.0133V90H34.2853V86.004H28.8493V90H27.1213ZM39.8592 93.6C39.4032 93.6 38.9592 93.522 38.5272 93.366C38.0952 93.222 37.7232 93.006 37.4112 92.718L38.1492 91.422C38.3892 91.65 38.6532 91.824 38.9412 91.944C39.2292 92.064 39.5352 92.124 39.8592 92.124C40.2792 92.124 40.6272 92.016 40.9032 91.8C41.1792 91.584 41.4372 91.2 41.6772 90.648L42.2712 89.334L42.4512 89.118L46.1952 80.46H47.8872L43.2612 90.954C42.9852 91.626 42.6732 92.154 42.3252 92.538C41.9892 92.922 41.6172 93.192 41.2092 93.348C40.8012 93.516 40.3512 93.6 39.8592 93.6ZM42.1272 90.306L37.7712 80.46H39.5712L43.2792 88.956L42.1272 90.306ZM55.9924 88.488L55.5964 88.938V80.46H57.3244V88.938L56.8924 88.488H61.9324L61.5184 88.938V80.46H63.2464V90H49.6564V80.46H51.3844V88.938L50.9704 88.488H55.9924ZM72.4517 90V87.984L72.3617 87.606V84.168C72.3617 83.436 72.1457 82.872 71.7137 82.476C71.2937 82.068 70.6577 81.864 69.8057 81.864C69.2417 81.864 68.6897 81.96 68.1497 82.152C67.6097 82.332 67.1537 82.578 66.7817 82.89L66.0617 81.594C66.5537 81.198 67.1417 80.898 67.8257 80.694C68.5217 80.478 69.2477 80.37 70.0037 80.37C71.3117 80.37 72.3197 80.688 73.0277 81.324C73.7357 81.96 74.0897 82.932 74.0897 84.24V90H72.4517ZM69.3197 90.108C68.6117 90.108 67.9877 89.988 67.4477 89.748C66.9197 89.508 66.5117 89.178 66.2237 88.758C65.9357 88.326 65.7917 87.84 65.7917 87.3C65.7917 86.784 65.9117 86.316 66.1517 85.896C66.4037 85.476 66.8057 85.14 67.3577 84.888C67.9217 84.636 68.6777 84.51 69.6257 84.51H72.6497V85.752H69.6977C68.8337 85.752 68.2517 85.896 67.9517 86.184C67.6517 86.472 67.5017 86.82 67.5017 87.228C67.5017 87.696 67.6877 88.074 68.0597 88.362C68.4317 88.638 68.9477 88.776 69.6077 88.776C70.2557 88.776 70.8197 88.632 71.2997 88.344C71.7917 88.056 72.1457 87.636 72.3617 87.084L72.7037 88.272C72.4757 88.836 72.0737 89.286 71.4977 89.622C70.9217 89.946 70.1957 90.108 69.3197 90.108ZM81.4493 90.108C80.4293 90.108 79.5293 89.898 78.7493 89.478C77.9813 89.058 77.3813 88.482 76.9493 87.75C76.5293 87.018 76.3193 86.178 76.3193 85.23C76.3193 84.282 76.5233 83.442 76.9313 82.71C77.3513 81.978 77.9213 81.408 78.6413 81C79.3733 80.58 80.1953 80.37 81.1073 80.37C82.0313 80.37 82.8473 80.574 83.5553 80.982C84.2633 81.39 84.8153 81.966 85.2113 82.71C85.6193 83.442 85.8233 84.3 85.8233 85.284C85.8233 85.356 85.8173 85.44 85.8053 85.536C85.8053 85.632 85.7993 85.722 85.7873 85.806H77.6693V84.564H84.8873L84.1853 84.996C84.1973 84.384 84.0713 83.838 83.8073 83.358C83.5433 82.878 83.1773 82.506 82.7093 82.242C82.2533 81.966 81.7193 81.828 81.1073 81.828C80.5073 81.828 79.9733 81.966 79.5053 82.242C79.0373 82.506 78.6713 82.884 78.4073 83.376C78.1433 83.856 78.0113 84.408 78.0113 85.032V85.32C78.0113 85.956 78.1553 86.526 78.4433 87.03C78.7433 87.522 79.1573 87.906 79.6853 88.182C80.2133 88.458 80.8193 88.596 81.5033 88.596C82.0673 88.596 82.5773 88.5 83.0333 88.308C83.5013 88.116 83.9093 87.828 84.2573 87.444L85.2113 88.56C84.7793 89.064 84.2393 89.448 83.5913 89.712C82.9553 89.976 82.2413 90.108 81.4493 90.108ZM88.5041 90V80.46H90.2861L94.3901 87.516H93.6701L97.8821 80.46H99.5021V90H97.9361V82.404L98.2241 82.566L94.3721 88.92H93.6161L89.7461 82.44L90.0881 82.368V90H88.5041ZM108.715 90V87.984L108.625 87.606V84.168C108.625 83.436 108.409 82.872 107.977 82.476C107.557 82.068 106.921 81.864 106.069 81.864C105.505 81.864 104.953 81.96 104.413 82.152C103.873 82.332 103.417 82.578 103.045 82.89L102.325 81.594C102.817 81.198 103.405 80.898 104.089 80.694C104.785 80.478 105.511 80.37 106.267 80.37C107.575 80.37 108.583 80.688 109.291 81.324C109.999 81.96 110.353 82.932 110.353 84.24V90H108.715ZM105.583 90.108C104.875 90.108 104.251 89.988 103.711 89.748C103.183 89.508 102.775 89.178 102.487 88.758C102.199 88.326 102.055 87.84 102.055 87.3C102.055 86.784 102.175 86.316 102.415 85.896C102.667 85.476 103.069 85.14 103.621 84.888C104.185 84.636 104.941 84.51 105.889 84.51H108.913V85.752H105.961C105.097 85.752 104.515 85.896 104.215 86.184C103.915 86.472 103.765 86.82 103.765 87.228C103.765 87.696 103.951 88.074 104.323 88.362C104.695 88.638 105.211 88.776 105.871 88.776C106.519 88.776 107.083 88.632 107.563 88.344C108.055 88.056 108.409 87.636 108.625 87.084L108.967 88.272C108.739 88.836 108.337 89.286 107.761 89.622C107.185 89.946 106.459 90.108 105.583 90.108ZM119.567 90V86.652L119.837 86.976H116.795C115.523 86.976 114.527 86.706 113.807 86.166C113.099 85.626 112.745 84.84 112.745 83.808C112.745 82.704 113.123 81.87 113.879 81.306C114.647 80.742 115.667 80.46 116.939 80.46H121.115V90H119.567ZM112.655 90L115.247 86.346H117.029L114.509 90H112.655ZM119.567 86.112V81.486L119.837 81.972H116.993C116.201 81.972 115.589 82.122 115.157 82.422C114.725 82.71 114.509 83.19 114.509 83.862C114.509 85.11 115.313 85.734 116.921 85.734H119.837L119.567 86.112Z" fill="#6B360D"/>
<g opacity="0.75">
<path d="M130.207 21.0846C130.207 21.0806 130.207 21.0765 130.207 21.0725C130.207 21.0726 130.207 21.0724 130.207 21.0725C130.207 21.0721 130.207 21.0714 130.207 21.071C130.207 21.0711 130.207 21.0709 130.207 21.071L130.207 16.071C130.207 15.7948 130.431 15.571 130.707 15.571C130.983 15.571 131.207 15.7948 131.207 16.071V19.8639L136.717 14.3535C136.913 14.1582 137.229 14.1582 137.425 14.3535C137.62 14.5487 137.62 14.8653 137.425 15.0606L131.914 20.571L135.707 20.571C135.983 20.571 136.207 20.7948 136.207 21.071C136.207 21.3471 135.983 21.571 135.707 21.571L130.707 21.571C130.435 21.571 130.214 21.3544 130.207 21.0846Z" fill="#6B360D"/>
</g>
<path opacity="0.75" d="M22.324 18.716L19.48 14.6H20.728L22.972 17.852L25.24 14.6H26.44L23.608 18.692L26.56 23H25.288L22.948 19.544L20.584 23H19.36L22.324 18.716ZM30.2875 23.12C29.8795 23.12 29.4915 23.056 29.1235 22.928C28.7555 22.792 28.4315 22.592 28.1515 22.328C27.8715 22.056 27.6475 21.716 27.4795 21.308C27.3115 20.9 27.2275 20.424 27.2275 19.88V19.64C27.2275 19.128 27.3115 18.676 27.4795 18.284C27.6475 17.892 27.8715 17.568 28.1515 17.312C28.4315 17.048 28.7555 16.852 29.1235 16.724C29.4915 16.588 29.8795 16.52 30.2875 16.52C30.6955 16.52 31.0835 16.588 31.4515 16.724C31.8195 16.852 32.1435 17.048 32.4235 17.312C32.7035 17.568 32.9275 17.892 33.0955 18.284C33.2635 18.676 33.3475 19.128 33.3475 19.64V19.88C33.3475 20.424 33.2635 20.9 33.0955 21.308C32.9275 21.716 32.7035 22.056 32.4235 22.328C32.1435 22.592 31.8195 22.792 31.4515 22.928C31.0835 23.056 30.6955 23.12 30.2875 23.12ZM30.2875 22.16C30.5275 22.16 30.7675 22.12 31.0075 22.04C31.2475 21.952 31.4595 21.82 31.6435 21.644C31.8275 21.46 31.9755 21.224 32.0875 20.936C32.2075 20.648 32.2675 20.296 32.2675 19.88V19.64C32.2675 19.256 32.2075 18.928 32.0875 18.656C31.9755 18.384 31.8275 18.16 31.6435 17.984C31.4595 17.808 31.2475 17.68 31.0075 17.6C30.7675 17.52 30.5275 17.48 30.2875 17.48C30.0475 17.48 29.8075 17.52 29.5675 17.6C29.3275 17.68 29.1155 17.808 28.9315 17.984C28.7475 18.16 28.5955 18.384 28.4755 18.656C28.3635 18.928 28.3075 19.256 28.3075 19.64V19.88C28.3075 20.296 28.3635 20.648 28.4755 20.936C28.5955 21.224 28.7475 21.46 28.9315 21.644C29.1155 21.82 29.3275 21.952 29.5675 22.04C29.8075 22.12 30.0475 22.16 30.2875 22.16ZM38.5268 20.468C38.3428 20.58 38.1188 20.68 37.8548 20.768C37.5988 20.856 37.2748 20.9 36.8828 20.9C36.5148 20.9 36.1828 20.86 35.8868 20.78C35.5988 20.7 35.3548 20.572 35.1548 20.396C34.9548 20.22 34.8028 19.992 34.6988 19.712C34.5948 19.432 34.5428 19.088 34.5428 18.68V16.64H35.5988V18.5C35.5988 18.772 35.6228 19 35.6708 19.184C35.7268 19.368 35.8148 19.516 35.9348 19.628C36.0548 19.74 36.2068 19.82 36.3908 19.868C36.5748 19.916 36.7988 19.94 37.0628 19.94C37.4228 19.94 37.7308 19.904 37.9868 19.832C38.2428 19.76 38.4228 19.684 38.5268 19.604V16.64H39.5828V23H38.5268V20.468ZM42.3391 25.52C42.2191 25.52 42.0991 25.508 41.9791 25.484V24.524C42.0991 24.548 42.2191 24.56 42.3391 24.56C42.4591 24.56 42.5631 24.54 42.6511 24.5C42.7391 24.46 42.8231 24.384 42.9031 24.272C42.9831 24.16 43.0671 24 43.1551 23.792C43.2511 23.592 43.3591 23.328 43.4791 23L40.7791 16.64H41.9551L44.0191 21.8L45.8911 16.64H47.0191L44.6191 23C44.4511 23.448 44.2911 23.832 44.1391 24.152C43.9871 24.472 43.8231 24.732 43.6471 24.932C43.4791 25.14 43.2911 25.288 43.0831 25.376C42.8751 25.472 42.6271 25.52 42.3391 25.52Z" fill="#6B360D"/>
<path opacity="0.75" d="M134.123 85.008C134.891 85.008 135.503 85.212 135.959 85.62C136.423 86.028 136.655 86.572 136.655 87.252V87.816C136.655 88.52 136.419 89.084 135.947 89.508C135.475 89.924 134.847 90.132 134.063 90.132C133.271 90.132 132.643 89.956 132.179 89.604C131.715 89.244 131.483 88.752 131.483 88.128V88.008H132.335V88.128C132.335 88.504 132.487 88.8 132.791 89.016C133.095 89.232 133.507 89.34 134.027 89.34C134.571 89.34 134.999 89.208 135.311 88.944C135.623 88.672 135.779 88.3 135.779 87.828V87.264C135.779 86.816 135.619 86.464 135.299 86.208C134.987 85.944 134.563 85.812 134.027 85.812C133.555 85.812 133.167 85.92 132.863 86.136C132.559 86.344 132.395 86.62 132.371 86.964H131.531L131.783 82.128H136.343V82.932H132.563L132.431 85.572C132.855 85.196 133.419 85.008 134.123 85.008Z" fill="#6B360D"/>
<g opacity="0.75">
<rect opacity="0.25" x="13" y="14" width="2" height="8" fill="#6B360D"/>
<rect x="13" y="20" width="2" height="2" fill="#6B360D"/>
</g>
</g>
<rect opacity="0.75" x="-0.5" y="0.5" width="143" height="95" rx="1.5" transform="matrix(-1 0 0 1 295 4)" fill="white" stroke="#6B360D"/>
<path opacity="0.75" d="M172.2 14.6H173.328V18.188H177.792V14.6H178.92V23H177.792V19.172H173.328V23H172.2V14.6ZM181.077 16.64H182.061V17.84C182.277 17.416 182.577 17.092 182.961 16.868C183.353 16.636 183.805 16.52 184.317 16.52C185.117 16.52 185.757 16.784 186.237 17.312C186.717 17.832 186.957 18.608 186.957 19.64V19.88C186.957 20.424 186.893 20.9 186.765 21.308C186.637 21.708 186.457 22.044 186.225 22.316C185.993 22.58 185.713 22.78 185.385 22.916C185.065 23.052 184.709 23.12 184.317 23.12C183.773 23.12 183.317 23 182.949 22.76C182.589 22.52 182.317 22.22 182.133 21.86V25.4H181.077V16.64ZM184.077 22.184C184.333 22.184 184.573 22.136 184.797 22.04C185.021 21.936 185.213 21.788 185.373 21.596C185.541 21.404 185.669 21.164 185.757 20.876C185.853 20.588 185.901 20.256 185.901 19.88V19.64C185.901 19.296 185.853 18.988 185.757 18.716C185.669 18.444 185.541 18.216 185.373 18.032C185.213 17.84 185.021 17.696 184.797 17.6C184.573 17.504 184.333 17.456 184.077 17.456C183.789 17.456 183.525 17.504 183.285 17.6C183.045 17.688 182.841 17.816 182.673 17.984C182.505 18.144 182.373 18.336 182.277 18.56C182.181 18.784 182.133 19.024 182.133 19.28V20.24C182.133 20.528 182.181 20.792 182.277 21.032C182.373 21.272 182.505 21.476 182.673 21.644C182.841 21.812 183.045 21.944 183.285 22.04C183.525 22.136 183.789 22.184 184.077 22.184ZM190.272 23.12C189.92 23.12 189.608 23.072 189.336 22.976C189.072 22.872 188.848 22.732 188.664 22.556C188.48 22.38 188.34 22.172 188.244 21.932C188.148 21.692 188.1 21.428 188.1 21.14C188.1 20.508 188.284 20.052 188.652 19.772C189.028 19.492 189.564 19.352 190.26 19.352H192.324V18.92C192.324 18.376 192.2 18 191.952 17.792C191.712 17.584 191.348 17.48 190.86 17.48C190.404 17.48 190.072 17.568 189.864 17.744C189.656 17.912 189.54 18.104 189.516 18.32H188.46C188.476 18.064 188.544 17.828 188.664 17.612C188.792 17.388 188.96 17.196 189.168 17.036C189.384 16.876 189.64 16.752 189.936 16.664C190.232 16.568 190.56 16.52 190.92 16.52C191.672 16.52 192.268 16.7 192.708 17.06C193.156 17.412 193.38 17.992 193.38 18.8V21.38C193.38 21.716 193.38 22.012 193.38 22.268C193.388 22.516 193.408 22.76 193.44 23H192.516C192.492 22.816 192.476 22.644 192.468 22.484C192.46 22.316 192.456 22.128 192.456 21.92C192.288 22.256 192.016 22.54 191.64 22.772C191.264 23.004 190.808 23.12 190.272 23.12ZM190.5 22.16C190.748 22.16 190.98 22.128 191.196 22.064C191.42 21.992 191.616 21.892 191.784 21.764C191.952 21.628 192.084 21.464 192.18 21.272C192.276 21.08 192.324 20.856 192.324 20.6V20.168H190.44C190.048 20.168 189.74 20.248 189.516 20.408C189.292 20.56 189.18 20.804 189.18 21.14C189.18 21.436 189.284 21.68 189.492 21.872C189.708 22.064 190.044 22.16 190.5 22.16ZM195.245 16.64H198.005C198.789 16.64 199.365 16.804 199.733 17.132C200.101 17.452 200.285 17.868 200.285 18.38C200.285 18.516 200.261 18.656 200.213 18.8C200.165 18.936 200.097 19.064 200.009 19.184C199.929 19.304 199.829 19.408 199.709 19.496C199.597 19.584 199.469 19.652 199.325 19.7C199.717 19.796 200.013 19.98 200.213 20.252C200.421 20.516 200.525 20.828 200.525 21.188C200.525 21.74 200.341 22.18 199.973 22.508C199.605 22.836 199.029 23 198.245 23H195.245V16.64ZM198.245 22.064C198.693 22.064 199.009 21.984 199.193 21.824C199.377 21.664 199.469 21.436 199.469 21.14C199.469 20.836 199.377 20.604 199.193 20.444C199.009 20.276 198.693 20.192 198.245 20.192H196.301V22.064H198.245ZM198.005 19.328C198.461 19.328 198.777 19.248 198.953 19.088C199.137 18.928 199.229 18.708 199.229 18.428C199.229 18.164 199.137 17.956 198.953 17.804C198.777 17.652 198.461 17.576 198.005 17.576H196.301V19.328H198.005ZM202.03 16.64H203.086V21.44L206.374 16.64H207.43V23H206.374V18.2L203.086 23H202.03V16.64ZM210.807 17.576H208.635V16.64H214.035V17.576H211.863V23H210.807V17.576ZM217.58 23.12C217.172 23.12 216.792 23.056 216.44 22.928C216.088 22.792 215.784 22.592 215.528 22.328C215.272 22.056 215.068 21.716 214.916 21.308C214.772 20.9 214.7 20.424 214.7 19.88V19.64C214.7 19.128 214.78 18.676 214.94 18.284C215.1 17.892 215.312 17.568 215.576 17.312C215.84 17.048 216.144 16.852 216.488 16.724C216.84 16.588 217.204 16.52 217.58 16.52C217.956 16.52 218.292 16.572 218.588 16.676C218.892 16.78 219.152 16.924 219.368 17.108C219.592 17.292 219.772 17.508 219.908 17.756C220.052 18.004 220.156 18.272 220.22 18.56H219.14C219.076 18.408 219 18.268 218.912 18.14C218.832 18.004 218.728 17.888 218.6 17.792C218.48 17.696 218.336 17.62 218.168 17.564C218 17.508 217.804 17.48 217.58 17.48C217.348 17.48 217.124 17.524 216.908 17.612C216.692 17.692 216.5 17.82 216.332 17.996C216.164 18.164 216.028 18.384 215.924 18.656C215.828 18.928 215.78 19.256 215.78 19.64V19.88C215.78 20.288 215.828 20.64 215.924 20.936C216.028 21.224 216.164 21.46 216.332 21.644C216.5 21.82 216.692 21.952 216.908 22.04C217.124 22.12 217.348 22.16 217.58 22.16C217.972 22.16 218.3 22.064 218.564 21.872C218.836 21.68 219.028 21.416 219.14 21.08H220.22C220.068 21.712 219.756 22.212 219.284 22.58C218.812 22.94 218.244 23.12 217.58 23.12ZM222.907 20.48C222.379 20.36 221.999 20.144 221.767 19.832C221.535 19.512 221.419 19.104 221.419 18.608C221.419 17.984 221.607 17.5 221.983 17.156C222.367 16.812 222.979 16.64 223.819 16.64H226.579V23H225.523V20.576H223.903L222.355 23H221.179L222.907 20.48ZM222.475 18.608C222.475 18.944 222.571 19.2 222.763 19.376C222.963 19.552 223.295 19.64 223.759 19.64H225.523V17.576H223.759C223.295 17.576 222.963 17.664 222.763 17.84C222.571 18.016 222.475 18.272 222.475 18.608Z" fill="#6B360D"/>
<path d="M160.216 90L165.922 77.4H167.704L173.428 90H171.538L166.444 78.408H167.164L162.07 90H160.216ZM162.646 86.85L163.132 85.41H170.224L170.746 86.85H162.646ZM182.227 90L178.537 85.356L179.959 84.492L184.261 90H182.227ZM175.315 90V80.46H177.043V90H175.315ZM176.521 85.968V84.492H179.671V85.968H176.521ZM180.103 85.428L178.501 85.212L182.155 80.46H184.009L180.103 85.428ZM187.804 90V81.522L188.236 81.972H184.312V80.46H193.024V81.972H189.118L189.532 81.522V90H187.804ZM194.791 90V80.46H196.519V87.408L202.369 80.46H203.935V90H202.207V83.052L196.375 90H194.791ZM207.289 90V80.46H211.717C212.833 80.46 213.709 80.676 214.345 81.108C214.993 81.528 215.317 82.128 215.317 82.908C215.317 83.688 215.011 84.294 214.399 84.726C213.799 85.146 213.001 85.356 212.005 85.356L212.275 84.888C213.415 84.888 214.261 85.098 214.813 85.518C215.365 85.938 215.641 86.556 215.641 87.372C215.641 88.2 215.329 88.848 214.705 89.316C214.093 89.772 213.151 90 211.879 90H207.289ZM208.981 88.668H211.753C212.473 88.668 213.013 88.56 213.373 88.344C213.733 88.116 213.913 87.756 213.913 87.264C213.913 86.76 213.745 86.394 213.409 86.166C213.085 85.926 212.569 85.806 211.861 85.806H208.981V88.668ZM208.981 84.564H211.573C212.233 84.564 212.731 84.444 213.067 84.204C213.415 83.952 213.589 83.604 213.589 83.16C213.589 82.704 213.415 82.362 213.067 82.134C212.731 81.906 212.233 81.792 211.573 81.792H208.981V84.564ZM224.196 90V87.984L224.106 87.606V84.168C224.106 83.436 223.89 82.872 223.458 82.476C223.038 82.068 222.402 81.864 221.55 81.864C220.986 81.864 220.434 81.96 219.894 82.152C219.354 82.332 218.898 82.578 218.526 82.89L217.806 81.594C218.298 81.198 218.886 80.898 219.57 80.694C220.266 80.478 220.992 80.37 221.748 80.37C223.056 80.37 224.064 80.688 224.772 81.324C225.48 81.96 225.834 82.932 225.834 84.24V90H224.196ZM221.064 90.108C220.356 90.108 219.732 89.988 219.192 89.748C218.664 89.508 218.256 89.178 217.968 88.758C217.68 88.326 217.536 87.84 217.536 87.3C217.536 86.784 217.656 86.316 217.896 85.896C218.148 85.476 218.55 85.14 219.102 84.888C219.666 84.636 220.422 84.51 221.37 84.51H224.394V85.752H221.442C220.578 85.752 219.996 85.896 219.696 86.184C219.396 86.472 219.246 86.82 219.246 87.228C219.246 87.696 219.432 88.074 219.804 88.362C220.176 88.638 220.692 88.776 221.352 88.776C222 88.776 222.564 88.632 223.044 88.344C223.536 88.056 223.89 87.636 224.106 87.084L224.448 88.272C224.22 88.836 223.818 89.286 223.242 89.622C222.666 89.946 221.94 90.108 221.064 90.108ZM228.945 90V80.46H230.673V88.488H235.893V80.46H237.621V90H228.945ZM237.495 92.214V89.91L237.927 90H235.893V88.488H239.133V92.214H237.495ZM241.373 90V80.46H243.101V87.408L248.951 80.46H250.517V90H248.789V83.052L242.957 90H241.373ZM259.973 90V86.652L260.243 86.976H257.201C255.929 86.976 254.933 86.706 254.213 86.166C253.505 85.626 253.151 84.84 253.151 83.808C253.151 82.704 253.529 81.87 254.285 81.306C255.053 80.742 256.073 80.46 257.345 80.46H261.521V90H259.973ZM253.061 90L255.653 86.346H257.435L254.915 90H253.061ZM259.973 86.112V81.486L260.243 81.972H257.399C256.607 81.972 255.995 82.122 255.563 82.422C255.131 82.71 254.915 83.19 254.915 83.862C254.915 85.11 255.719 85.734 257.327 85.734H260.243L259.973 86.112Z" fill="#6B360D"/>
<path opacity="0.75" d="M282.184 85.104C282.688 85.104 283.132 85.2 283.516 85.392C283.908 85.584 284.208 85.856 284.416 86.208C284.632 86.56 284.74 86.964 284.74 87.42V87.804C284.74 88.26 284.628 88.664 284.404 89.016C284.188 89.368 283.88 89.644 283.48 89.844C283.088 90.036 282.636 90.132 282.124 90.132C281.596 90.132 281.128 90.028 280.72 89.82C280.312 89.612 279.996 89.32 279.772 88.944C279.548 88.568 279.436 88.136 279.436 87.648V84.564C279.436 84.052 279.548 83.604 279.772 83.22C279.996 82.828 280.308 82.528 280.708 82.32C281.116 82.104 281.584 81.996 282.112 81.996C282.616 81.996 283.064 82.084 283.456 82.26C283.848 82.436 284.152 82.684 284.368 83.004C284.584 83.324 284.692 83.692 284.692 84.108V84.276H283.84V84.108C283.84 83.716 283.68 83.4 283.36 83.16C283.048 82.912 282.632 82.788 282.112 82.788C281.56 82.788 281.12 82.948 280.792 83.268C280.464 83.58 280.3 84.004 280.3 84.54V85.764C280.532 85.556 280.808 85.396 281.128 85.284C281.456 85.164 281.808 85.104 282.184 85.104ZM283.876 87.432C283.876 86.944 283.724 86.568 283.42 86.304C283.116 86.032 282.684 85.896 282.124 85.896C281.7 85.896 281.328 85.976 281.008 86.136C280.696 86.296 280.46 86.516 280.3 86.796V87.636C280.3 88.148 280.468 88.56 280.804 88.872C281.14 89.184 281.58 89.34 282.124 89.34C282.66 89.34 283.084 89.204 283.396 88.932C283.716 88.66 283.876 88.288 283.876 87.816V87.432Z" fill="#6B360D"/>
<g opacity="0.75">
<rect width="2" height="4" transform="matrix(-1 0 0 1 167 18)" fill="#6B360D"/>
<rect width="2" height="2" transform="matrix(-1 0 0 1 163 20)" fill="#6B360D"/>
</g>
<g opacity="0.75">
<rect x="287" y="17.5" width="1" height="10" rx="0.5" transform="rotate(90 287 17.5)" fill="#6B360D"/>
</g>
<defs>
<linearGradient id="paint0_linear_1401_51561" x1="150" y1="167" x2="150" y2="143" gradientUnits="userSpaceOnUse">
<stop stop-color="white"/>
<stop offset="1" stop-color="white" stop-opacity="0"/>
</linearGradient>
<linearGradient id="paint1_linear_1401_51561" x1="150" y1="0" x2="150" y2="48" gradientUnits="userSpaceOnUse">
<stop stop-color="white"/>
<stop offset="1" stop-color="white" stop-opacity="0"/>
</linearGradient>
<clipPath id="clip0_1401_51561">
<rect width="108" height="60" fill="white" transform="translate(4 103)"/>
</clipPath>
<clipPath id="clip1_1401_51561">
<rect width="180" height="60" fill="white" transform="translate(116 103)"/>
</clipPath>
<clipPath id="clip2_1401_51561">
<rect width="144" height="96" fill="white" transform="translate(4 4)"/>
</clipPath>
</defs>
</svg>
