<svg width="204" height="96" viewBox="0 0 204 96" fill="none" xmlns="http://www.w3.org/2000/svg">
<g clip-path="url(#clip0_1403_51458)">
<rect width="204" height="96" rx="2" fill="#6B360D"/>
<path opacity="0.05" d="M0 68L204 41.2531V21.751L0 48.4979V68Z" fill="white"/>
<path opacity="0.1" d="M0 43.6226L204 16.8756V12.0001L0 38.747V43.6226Z" fill="white"/>
<path opacity="0.75" d="M38.068 10.308L36.004 14.052L38.056 17.82V18H36.88L34.96 14.52H33.868V18H32.74V14.52H31.636L29.716 18H28.528V17.82L30.604 14.052L28.516 10.308V10.128H29.704L31.588 13.5H32.74V10.128H33.868V13.5H35.008L36.88 10.128H38.068V10.308ZM40.2891 12.048V16.284L43.0971 12.048H44.0931V18H43.0371V13.764L40.2411 18H39.2451V12.048H40.2891ZM49.7587 14.964C50.0787 15.084 50.3227 15.26 50.4907 15.492C50.6667 15.724 50.7547 15.996 50.7547 16.308V16.476C50.7547 16.956 50.5787 17.332 50.2267 17.604C49.8747 17.868 49.3547 18 48.6667 18H45.6787V12.048H48.5227C49.2187 12.048 49.7387 12.18 50.0827 12.444C50.4267 12.7 50.5987 13.072 50.5987 13.56V13.716C50.5987 14.012 50.5267 14.268 50.3827 14.484C50.2387 14.692 50.0307 14.852 49.7587 14.964ZM46.7587 12.924V14.568H48.5947C48.8827 14.568 49.1067 14.5 49.2667 14.364C49.4347 14.22 49.5187 14.032 49.5187 13.8V13.668C49.5187 13.436 49.4347 13.256 49.2667 13.128C49.1067 12.992 48.8787 12.924 48.5827 12.924H46.7587ZM49.6747 16.2C49.6747 15.952 49.5907 15.764 49.4227 15.636C49.2547 15.5 49.0187 15.432 48.7147 15.432H46.7587V17.124H48.7267C49.0147 17.124 49.2427 17.056 49.4107 16.92C49.5867 16.776 49.6747 16.584 49.6747 16.344V16.2ZM57.24 12.048V12.216L54.756 18.696C54.572 19.176 54.336 19.52 54.048 19.728C53.768 19.936 53.38 20.04 52.884 20.04H51.936V19.056H52.788C53.036 19.056 53.228 19.012 53.364 18.924C53.508 18.836 53.632 18.652 53.736 18.372L53.844 18.072L51.504 12.216V12.048H52.608L54.408 16.668L56.136 12.048H57.24Z" fill="white"/>
<g opacity="0.75">
<rect width="2" height="8" transform="matrix(-1 0 0 1 23 10)" fill="white"/>
<rect width="2" height="6" transform="matrix(-1 0 0 1 19 12)" fill="white"/>
<rect width="2" height="4" transform="matrix(-1 0 0 1 15 14)" fill="white"/>
<rect width="2" height="2" transform="matrix(-1 0 0 1 11 16)" fill="white"/>
</g>
<path opacity="0.5" d="M191.032 86H190.168V79.628C189.872 79.788 189.492 79.868 189.028 79.868H188.104V79.076H188.992C189.376 79.076 189.668 78.996 189.868 78.836C190.068 78.668 190.168 78.432 190.168 78.128H191.032V86Z" fill="white"/>
<g opacity="0.75">
<path d="M190 9C189.724 9 189.5 9.22386 189.5 9.5V13.5H185.5C185.224 13.5 185 13.7239 185 14C185 14.2761 185.224 14.5 185.5 14.5H189.5V18.5C189.5 18.7761 189.724 19 190 19C190.276 19 190.5 18.7761 190.5 18.5V14.5H194.5C194.776 14.5 195 14.2761 195 14C195 13.7239 194.776 13.5 194.5 13.5H190.5V9.5C190.5 9.22386 190.276 9 190 9Z" fill="white"/>
</g>
<path d="M20.096 74.192V75.794H11.456V79.106H16.73C18.086 79.106 19.136 79.4 19.88 79.988C20.636 80.564 21.014 81.38 21.014 82.436V82.67C21.014 83.714 20.636 84.53 19.88 85.118C19.124 85.706 18.074 86 16.73 86H9.656V74.192H20.096ZM16.712 84.398C17.48 84.398 18.086 84.242 18.53 83.93C18.986 83.618 19.214 83.198 19.214 82.67V82.436C19.214 81.896 18.992 81.476 18.548 81.176C18.104 80.864 17.492 80.708 16.712 80.708H11.456V84.398H16.712ZM34.9308 84.47V86H33.7428C33.1548 86 32.6628 85.886 32.2668 85.658C31.8708 85.43 31.5948 85.106 31.4388 84.686C30.9588 85.202 30.3828 85.586 29.7108 85.838C29.0388 86.09 28.2468 86.216 27.3348 86.216C26.0508 86.216 25.0608 85.994 24.3648 85.55C23.6688 85.094 23.3208 84.446 23.3208 83.606C23.3208 82.886 23.5908 82.31 24.1308 81.878C24.6708 81.446 25.4628 81.176 26.5068 81.068L31.3128 80.564C31.2768 79.892 30.9948 79.382 30.4668 79.034C29.9388 78.686 29.1828 78.512 28.1988 78.512C27.2508 78.512 26.4948 78.674 25.9308 78.998C25.3668 79.322 25.0848 79.754 25.0848 80.294V80.366H23.3748V80.294C23.3748 79.622 23.5728 79.028 23.9688 78.512C24.3768 77.984 24.9468 77.582 25.6788 77.306C26.4108 77.018 27.2568 76.874 28.2168 76.874C29.7408 76.874 30.9228 77.21 31.7628 77.882C32.6028 78.554 33.0228 79.496 33.0228 80.708V83.48C33.0228 83.792 33.1188 84.038 33.3108 84.218C33.5028 84.386 33.7788 84.47 34.1388 84.47H34.9308ZM27.2988 84.686C28.2708 84.686 29.1048 84.536 29.8008 84.236C30.4968 83.924 31.0008 83.486 31.3128 82.922V81.968L26.8848 82.436C26.2608 82.496 25.7928 82.622 25.4808 82.814C25.1808 83.006 25.0308 83.27 25.0308 83.606C25.0308 84.326 25.7868 84.686 27.2988 84.686ZM44.7736 81.464C45.2656 81.668 45.6436 81.938 45.9076 82.274C46.1836 82.598 46.3216 82.964 46.3216 83.372V83.498C46.3216 84.386 45.8956 85.064 45.0436 85.532C44.1916 85.988 42.9436 86.216 41.2996 86.216C37.7476 86.216 35.9716 84.98 35.9716 82.508V82.382H37.6816V82.508C37.6816 83.252 37.9756 83.804 38.5636 84.164C39.1636 84.512 40.0876 84.686 41.3356 84.686C43.4716 84.686 44.5396 84.266 44.5396 83.426V83.3C44.5396 82.616 43.8976 82.274 42.6136 82.274H39.6256V80.762H42.4156C43.6756 80.762 44.3056 80.408 44.3056 79.7V79.574C44.3056 79.19 44.0356 78.902 43.4956 78.71C42.9676 78.506 42.1816 78.404 41.1376 78.404C39.9376 78.404 39.0616 78.578 38.5096 78.926C37.9576 79.274 37.6816 79.832 37.6816 80.6V80.726H35.9716V80.6C35.9716 79.376 36.4156 78.452 37.3036 77.828C38.1916 77.192 39.4996 76.874 41.2276 76.874C42.7876 76.874 43.9816 77.108 44.8096 77.576C45.6496 78.032 46.0696 78.686 46.0696 79.538V79.664C46.0696 80.036 45.9556 80.378 45.7276 80.69C45.4996 80.99 45.1816 81.248 44.7736 81.464ZM53.5143 86.216C52.4223 86.216 51.4743 86.036 50.6703 85.676C49.8663 85.304 49.2483 84.782 48.8163 84.11C48.3843 83.426 48.1683 82.628 48.1683 81.716V81.41C48.1683 80.486 48.3843 79.682 48.8163 78.998C49.2483 78.314 49.8663 77.792 50.6703 77.432C51.4743 77.06 52.4223 76.874 53.5143 76.874C54.5943 76.874 55.5303 77.06 56.3223 77.432C57.1263 77.792 57.7383 78.314 58.1583 78.998C58.5903 79.682 58.8063 80.486 58.8063 81.41V81.716C58.8063 82.628 58.5903 83.426 58.1583 84.11C57.7383 84.782 57.1263 85.304 56.3223 85.676C55.5303 86.036 54.5943 86.216 53.5143 86.216ZM53.4963 84.632C54.6003 84.632 55.4643 84.374 56.0883 83.858C56.7123 83.342 57.0243 82.628 57.0243 81.716V81.41C57.0243 80.486 56.7123 79.766 56.0883 79.25C55.4643 78.722 54.6003 78.458 53.4963 78.458C52.3683 78.458 51.4923 78.716 50.8683 79.232C50.2563 79.748 49.9503 80.474 49.9503 81.41V81.716C49.9503 82.628 50.2623 83.342 50.8863 83.858C51.5223 84.374 52.3923 84.632 53.4963 84.632ZM69.9045 81.482C70.3965 81.638 70.7685 81.878 71.0205 82.202C71.2845 82.514 71.4165 82.898 71.4165 83.354V83.534C71.4165 84.314 71.1105 84.92 70.4985 85.352C69.8985 85.784 69.0465 86 67.9425 86H61.1745V77.09H67.7085C68.8125 77.09 69.6645 77.3 70.2645 77.72C70.8765 78.128 71.1825 78.716 71.1825 79.484V79.664C71.1825 80.492 70.7565 81.098 69.9045 81.482ZM62.9025 78.422V80.834H67.6365C68.2005 80.834 68.6325 80.738 68.9325 80.546C69.2445 80.342 69.4005 80.054 69.4005 79.682V79.502C69.4005 79.154 69.2505 78.89 68.9505 78.71C68.6505 78.518 68.2125 78.422 67.6365 78.422H62.9025ZM69.6345 83.318C69.6345 82.958 69.4845 82.682 69.1845 82.49C68.8845 82.298 68.4525 82.202 67.8885 82.202H62.9025V84.65H67.8885C68.4525 84.65 68.8845 84.554 69.1845 84.362C69.4845 84.158 69.6345 83.87 69.6345 83.498V83.318ZM85.2218 84.47V86H84.0338C83.4458 86 82.9538 85.886 82.5578 85.658C82.1618 85.43 81.8858 85.106 81.7298 84.686C81.2498 85.202 80.6738 85.586 80.0018 85.838C79.3298 86.09 78.5378 86.216 77.6258 86.216C76.3418 86.216 75.3518 85.994 74.6558 85.55C73.9598 85.094 73.6118 84.446 73.6118 83.606C73.6118 82.886 73.8818 82.31 74.4218 81.878C74.9618 81.446 75.7538 81.176 76.7978 81.068L81.6038 80.564C81.5678 79.892 81.2858 79.382 80.7578 79.034C80.2298 78.686 79.4738 78.512 78.4898 78.512C77.5418 78.512 76.7858 78.674 76.2218 78.998C75.6578 79.322 75.3758 79.754 75.3758 80.294V80.366H73.6658V80.294C73.6658 79.622 73.8638 79.028 74.2598 78.512C74.6678 77.984 75.2378 77.582 75.9698 77.306C76.7018 77.018 77.5478 76.874 78.5078 76.874C80.0318 76.874 81.2138 77.21 82.0538 77.882C82.8938 78.554 83.3138 79.496 83.3138 80.708V83.48C83.3138 83.792 83.4098 84.038 83.6018 84.218C83.7938 84.386 84.0698 84.47 84.4298 84.47H85.2218ZM77.5898 84.686C78.5618 84.686 79.3958 84.536 80.0918 84.236C80.7878 83.924 81.2918 83.486 81.6038 82.922V81.968L77.1758 82.436C76.5518 82.496 76.0838 82.622 75.7718 82.814C75.4718 83.006 75.3218 83.27 75.3218 83.606C75.3218 84.326 76.0778 84.686 77.5898 84.686ZM96.6486 85.982H94.9206V83.066H92.2566L88.6926 86H86.4606V85.784L89.7726 83.066C88.7046 83.018 87.8766 82.748 87.2886 82.256C86.7006 81.752 86.4066 81.068 86.4066 80.204V80.006C86.4066 79.082 86.7246 78.368 87.3606 77.864C88.0086 77.348 88.9086 77.09 90.0606 77.09H96.6486V85.982ZM94.9206 81.59V78.602H90.1866C88.8546 78.602 88.1886 79.07 88.1886 80.006V80.204C88.1886 81.128 88.8546 81.59 90.1866 81.59H94.9206Z" fill="white"/>
</g>
<defs>
<clipPath id="clip0_1403_51458">
<rect width="204" height="96" fill="white"/>
</clipPath>
</defs>
</svg>
