<svg width="220" height="96" viewBox="0 0 220 96" fill="none" xmlns="http://www.w3.org/2000/svg">
<g clip-path="url(#clip0_1136_49917)">
<rect x="52" width="168" height="96" rx="2" fill="#6B360D"/>
<path opacity="0.75" d="M74.132 11.148V10.128H79.748V11.148H77.504V18H76.388V11.148H74.132ZM83.9462 14.964C84.2662 15.084 84.5102 15.26 84.6782 15.492C84.8542 15.724 84.9422 15.996 84.9422 16.308V16.476C84.9422 16.956 84.7662 17.332 84.4142 17.604C84.0622 17.868 83.5422 18 82.8542 18H79.8662V12.048H82.7102C83.4062 12.048 83.9262 12.18 84.2702 12.444C84.6142 12.7 84.7862 13.072 84.7862 13.56V13.716C84.7862 14.012 84.7142 14.268 84.5702 14.484C84.4262 14.692 84.2182 14.852 83.9462 14.964ZM80.9462 12.924V14.568H82.7822C83.0702 14.568 83.2942 14.5 83.4542 14.364C83.6222 14.22 83.7062 14.032 83.7062 13.8V13.668C83.7062 13.436 83.6222 13.256 83.4542 13.128C83.2942 12.992 83.0662 12.924 82.7702 12.924H80.9462ZM83.8622 16.2C83.8622 15.952 83.7782 15.764 83.6102 15.636C83.4422 15.5 83.2062 15.432 82.9022 15.432H80.9462V17.124H82.9142C83.2022 17.124 83.4302 17.056 83.5982 16.92C83.7742 16.776 83.8622 16.584 83.8622 16.344V16.2ZM88.5569 18.144C87.7969 18.144 87.1889 17.924 86.7329 17.484C86.2769 17.044 86.0489 16.46 86.0489 15.732V14.328C86.0489 13.592 86.2769 13.004 86.7329 12.564C87.1889 12.124 87.7969 11.904 88.5569 11.904C89.3249 11.904 89.9369 12.124 90.3929 12.564C90.8569 13.004 91.0889 13.592 91.0889 14.328V15.732C91.0889 16.46 90.8569 17.044 90.3929 17.484C89.9369 17.924 89.3249 18.144 88.5569 18.144ZM88.5689 17.124C89.0089 17.124 89.3569 16.996 89.6129 16.74C89.8769 16.484 90.0089 16.14 90.0089 15.708V14.364C90.0089 13.916 89.8809 13.564 89.6249 13.308C89.3689 13.052 89.0169 12.924 88.5689 12.924C88.1289 12.924 87.7769 13.052 87.5129 13.308C87.2569 13.564 87.1289 13.916 87.1289 14.364V15.708C87.1289 16.148 87.2569 16.496 87.5129 16.752C87.7769 17 88.1289 17.124 88.5689 17.124ZM95.1759 11.904C95.8719 11.904 96.4279 12.12 96.8439 12.552C97.2599 12.976 97.4679 13.544 97.4679 14.256V15.792C97.4679 16.504 97.2599 17.076 96.8439 17.508C96.4279 17.932 95.8719 18.144 95.1759 18.144C94.5119 18.144 93.9679 17.944 93.5439 17.544V20.04H92.4639V12.048H93.4359L93.4839 12.552C93.9159 12.12 94.4799 11.904 95.1759 11.904ZM96.3759 14.304C96.3759 13.88 96.2479 13.544 95.9919 13.296C95.7439 13.048 95.4039 12.924 94.9719 12.924C94.6599 12.924 94.3759 12.996 94.1199 13.14C93.8719 13.276 93.6799 13.468 93.5439 13.716V16.344C93.6799 16.584 93.8719 16.776 94.1199 16.92C94.3679 17.056 94.6519 17.124 94.9719 17.124C95.4039 17.124 95.7439 17 95.9919 16.752C96.2479 16.504 96.3759 16.168 96.3759 15.744V14.304ZM103.411 11.904C104.147 11.904 104.739 12.128 105.187 12.576C105.635 13.016 105.859 13.6 105.859 14.328V15.732C105.859 16.46 105.635 17.044 105.187 17.484C104.739 17.924 104.147 18.144 103.411 18.144C102.667 18.144 102.071 17.924 101.623 17.484C101.175 17.044 100.951 16.46 100.951 15.732V15.516H99.9189V18H98.8389V12.048H99.9189V14.52H100.951V14.328C100.951 13.592 101.175 13.004 101.623 12.564C102.071 12.124 102.667 11.904 103.411 11.904ZM104.767 14.364C104.767 13.916 104.643 13.564 104.395 13.308C104.155 13.052 103.827 12.924 103.411 12.924C102.987 12.924 102.651 13.052 102.403 13.308C102.155 13.564 102.031 13.916 102.031 14.364V15.708C102.031 16.14 102.155 16.484 102.403 16.74C102.651 16.996 102.987 17.124 103.411 17.124C103.827 17.124 104.155 16.996 104.395 16.74C104.643 16.484 104.767 16.14 104.767 15.708V14.364Z" fill="white"/>
<g opacity="0.75">
<rect width="2" height="6" transform="matrix(-1 0 0 1 70 12)" fill="white"/>
<rect width="2" height="4" transform="matrix(-1 0 0 1 66 14)" fill="white"/>
<rect width="2" height="2" transform="matrix(-1 0 0 1 62 16)" fill="white"/>
</g>
<path d="M60.216 75.794V74.192H72.222V75.794H67.11V86H65.328V75.794H60.216ZM81.2815 81.482C81.7735 81.638 82.1455 81.878 82.3975 82.202C82.6615 82.514 82.7935 82.898 82.7935 83.354V83.534C82.7935 84.314 82.4875 84.92 81.8755 85.352C81.2755 85.784 80.4235 86 79.3195 86H72.5515V77.09H79.0855C80.1895 77.09 81.0415 77.3 81.6415 77.72C82.2535 78.128 82.5595 78.716 82.5595 79.484V79.664C82.5595 80.492 82.1335 81.098 81.2815 81.482ZM74.2795 78.422V80.834H79.0135C79.5775 80.834 80.0095 80.738 80.3095 80.546C80.6215 80.342 80.7775 80.054 80.7775 79.682V79.502C80.7775 79.154 80.6275 78.89 80.3275 78.71C80.0275 78.518 79.5895 78.422 79.0135 78.422H74.2795ZM81.0115 83.318C81.0115 82.958 80.8615 82.682 80.5615 82.49C80.2615 82.298 79.8295 82.202 79.2655 82.202H74.2795V84.65H79.2655C79.8295 84.65 80.2615 84.554 80.5615 84.362C80.8615 84.158 81.0115 83.87 81.0115 83.498V83.318ZM89.9928 86.216C88.9008 86.216 87.9528 86.036 87.1488 85.676C86.3448 85.304 85.7268 84.782 85.2948 84.11C84.8628 83.426 84.6468 82.628 84.6468 81.716V81.41C84.6468 80.486 84.8628 79.682 85.2948 78.998C85.7268 78.314 86.3448 77.792 87.1488 77.432C87.9528 77.06 88.9008 76.874 89.9928 76.874C91.0728 76.874 92.0088 77.06 92.8008 77.432C93.6048 77.792 94.2168 78.314 94.6368 78.998C95.0688 79.682 95.2848 80.486 95.2848 81.41V81.716C95.2848 82.628 95.0688 83.426 94.6368 84.11C94.2168 84.782 93.6048 85.304 92.8008 85.676C92.0088 86.036 91.0728 86.216 89.9928 86.216ZM89.9748 84.632C91.0788 84.632 91.9428 84.374 92.5668 83.858C93.1908 83.342 93.5028 82.628 93.5028 81.716V81.41C93.5028 80.486 93.1908 79.766 92.5668 79.25C91.9428 78.722 91.0788 78.458 89.9748 78.458C88.8468 78.458 87.9708 78.716 87.3468 79.232C86.7348 79.748 86.4288 80.474 86.4288 81.41V81.716C86.4288 82.628 86.7408 83.342 87.3648 83.858C88.0008 84.374 88.8708 84.632 89.9748 84.632ZM102.747 76.874C103.815 76.874 104.751 77.06 105.555 77.432C106.359 77.804 106.977 78.332 107.409 79.016C107.841 79.688 108.057 80.48 108.057 81.392V81.68C108.057 82.592 107.841 83.39 107.409 84.074C106.977 84.758 106.359 85.286 105.555 85.658C104.751 86.03 103.815 86.216 102.747 86.216C102.087 86.216 101.469 86.114 100.893 85.91C100.317 85.706 99.813 85.412 99.381 85.028V89.06H97.653V77.09H99.255L99.327 78.116C99.771 77.72 100.287 77.414 100.875 77.198C101.463 76.982 102.087 76.874 102.747 76.874ZM106.275 81.392C106.275 80.48 105.957 79.766 105.321 79.25C104.697 78.722 103.833 78.458 102.729 78.458C102.021 78.458 101.367 78.584 100.767 78.836C100.179 79.088 99.717 79.43 99.381 79.862V83.21C99.717 83.642 100.179 83.99 100.767 84.254C101.367 84.506 102.021 84.632 102.729 84.632C103.833 84.632 104.697 84.368 105.321 83.84C105.957 83.312 106.275 82.592 106.275 81.68V81.392ZM119.013 77.09V86H117.285V82.922C116.025 83.138 114.813 83.246 113.649 83.246C112.245 83.246 111.183 82.958 110.463 82.382C109.755 81.806 109.401 80.954 109.401 79.826V77.09H111.129V79.664C111.129 81.032 112.029 81.716 113.829 81.716C114.837 81.716 115.989 81.608 117.285 81.392V77.09H119.013ZM131.771 82.112H123.185C123.245 82.892 123.581 83.51 124.193 83.966C124.805 84.41 125.621 84.632 126.641 84.632C127.589 84.632 128.357 84.476 128.945 84.164C129.545 83.84 129.869 83.414 129.917 82.886H131.771C131.675 83.93 131.171 84.746 130.259 85.334C129.359 85.922 128.153 86.216 126.641 86.216C125.573 86.216 124.643 86.036 123.851 85.676C123.059 85.304 122.447 84.782 122.015 84.11C121.595 83.438 121.385 82.652 121.385 81.752V81.374C121.385 80.462 121.595 79.67 122.015 78.998C122.447 78.314 123.059 77.792 123.851 77.432C124.643 77.06 125.573 76.874 126.641 76.874C128.237 76.874 129.491 77.27 130.403 78.062C131.315 78.842 131.771 79.922 131.771 81.302V82.112ZM126.641 78.458C125.681 78.458 124.901 78.656 124.301 79.052C123.713 79.436 123.353 79.976 123.221 80.672H129.935C129.827 79.976 129.485 79.436 128.909 79.052C128.333 78.656 127.577 78.458 126.641 78.458ZM138.771 86.216C137.703 86.216 136.767 86.036 135.963 85.676C135.159 85.304 134.541 84.782 134.109 84.11C133.677 83.426 133.461 82.634 133.461 81.734V81.41C133.461 80.486 133.677 79.682 134.109 78.998C134.541 78.314 135.153 77.792 135.945 77.432C136.749 77.06 137.691 76.874 138.771 76.874C139.743 76.874 140.619 77.042 141.399 77.378C142.179 77.702 142.785 78.158 143.217 78.746C143.661 79.322 143.883 79.976 143.883 80.708V80.78H142.101V80.708C142.101 80.276 141.957 79.892 141.669 79.556C141.393 79.208 140.997 78.938 140.481 78.746C139.977 78.554 139.407 78.458 138.771 78.458C137.667 78.458 136.803 78.722 136.179 79.25C135.555 79.766 135.243 80.492 135.243 81.428V81.716C135.243 82.628 135.555 83.342 136.179 83.858C136.803 84.374 137.667 84.632 138.771 84.632C139.419 84.632 139.995 84.536 140.499 84.344C141.003 84.152 141.393 83.888 141.669 83.552C141.957 83.216 142.101 82.832 142.101 82.4V82.328H143.883V82.4C143.883 83.144 143.667 83.804 143.235 84.38C142.803 84.956 142.197 85.406 141.417 85.73C140.649 86.054 139.767 86.216 138.771 86.216ZM156.446 85.748V86H154.484L150.56 82.256H147.932V86H146.204V77.09H147.932V80.744H150.506L154.214 77.09H156.212V77.342L152.09 81.464L156.446 85.748ZM169.302 84.47V86H168.114C167.526 86 167.034 85.886 166.638 85.658C166.242 85.43 165.966 85.106 165.81 84.686C165.33 85.202 164.754 85.586 164.082 85.838C163.41 86.09 162.618 86.216 161.706 86.216C160.422 86.216 159.432 85.994 158.736 85.55C158.04 85.094 157.692 84.446 157.692 83.606C157.692 82.886 157.962 82.31 158.502 81.878C159.042 81.446 159.834 81.176 160.878 81.068L165.684 80.564C165.648 79.892 165.366 79.382 164.838 79.034C164.31 78.686 163.554 78.512 162.57 78.512C161.622 78.512 160.866 78.674 160.302 78.998C159.738 79.322 159.456 79.754 159.456 80.294V80.366H157.746V80.294C157.746 79.622 157.944 79.028 158.34 78.512C158.748 77.984 159.318 77.582 160.05 77.306C160.782 77.018 161.628 76.874 162.588 76.874C164.112 76.874 165.294 77.21 166.134 77.882C166.974 78.554 167.394 79.496 167.394 80.708V83.48C167.394 83.792 167.49 84.038 167.682 84.218C167.874 84.386 168.15 84.47 168.51 84.47H169.302ZM161.67 84.686C162.642 84.686 163.476 84.536 164.172 84.236C164.868 83.924 165.372 83.486 165.684 82.922V81.968L161.256 82.436C160.632 82.496 160.164 82.622 159.852 82.814C159.552 83.006 159.402 83.27 159.402 83.606C159.402 84.326 160.158 84.686 161.67 84.686ZM180.729 85.982H179.001V83.066H176.337L172.773 86H170.541V85.784L173.853 83.066C172.785 83.018 171.957 82.748 171.369 82.256C170.781 81.752 170.487 81.068 170.487 80.204V80.006C170.487 79.082 170.805 78.368 171.441 77.864C172.089 77.348 172.989 77.09 174.141 77.09H180.729V85.982ZM179.001 81.59V78.602H174.267C172.935 78.602 172.269 79.07 172.269 80.006V80.204C172.269 81.128 172.935 81.59 174.267 81.59H179.001Z" fill="white"/>
<path opacity="0.5" d="M208.59 85.22V86H203.574V85.232L205.746 83.096C206.226 82.624 206.59 82.24 206.838 81.944C207.086 81.64 207.258 81.364 207.354 81.116C207.458 80.868 207.51 80.604 207.51 80.324V80.204C207.51 79.756 207.37 79.408 207.09 79.16C206.818 78.912 206.434 78.788 205.938 78.788C205.442 78.788 205.054 78.92 204.774 79.184C204.502 79.44 204.366 79.8 204.366 80.264V80.516H203.514V80.252C203.514 79.548 203.73 78.996 204.162 78.596C204.594 78.196 205.186 77.996 205.938 77.996C206.698 77.996 207.29 78.192 207.714 78.584C208.146 78.976 208.362 79.516 208.362 80.204V80.324C208.362 80.828 208.222 81.316 207.942 81.788C207.662 82.252 207.154 82.848 206.418 83.576L204.75 85.22H208.59Z" fill="white"/>
<g opacity="0.75">
<path d="M209.07 10.2071L204.071 10.2071C203.795 10.2071 203.571 10.431 203.571 10.7071C203.571 10.9832 203.795 11.2071 204.071 11.2071L207.864 11.2071L202.353 16.7175C202.158 16.9128 202.158 17.2294 202.353 17.4246C202.549 17.6199 202.865 17.6199 203.061 17.4246L208.571 11.9142V15.7071C208.571 15.9832 208.795 16.2071 209.071 16.2071C209.347 16.2071 209.571 15.9833 209.571 15.7071V10.7075C209.571 10.707 209.571 10.7062 209.571 10.7058C209.571 10.7057 209.571 10.7059 209.571 10.7058C209.571 10.6386 209.557 10.5742 209.533 10.5157C209.509 10.4567 209.472 10.4015 209.425 10.3536C209.376 10.3053 209.321 10.269 209.261 10.2446C209.205 10.2213 209.143 10.2081 209.078 10.2072" fill="white"/>
</g>
</g>
<g opacity="0.25" clip-path="url(#clip1_1136_49917)">
<g clip-path="url(#clip2_1136_49917)">
<rect x="-156" width="204" height="96" rx="2" fill="#6B360D"/>
<path opacity="0.05" d="M-156 68L48 41.2531V21.751L-156 48.4979V68Z" fill="white"/>
<path opacity="0.1" d="M-156 43.6224L48 16.8755V12L-156 38.7469V43.6224Z" fill="white"/>
<path opacity="0.5" d="M35.0324 86H34.1684V79.628C33.8724 79.788 33.4924 79.868 33.0284 79.868H32.1044V79.076H32.9924C33.3764 79.076 33.6684 78.996 33.8684 78.836C34.0684 78.668 34.1684 78.432 34.1684 78.128H35.0324V86Z" fill="white"/>
<g opacity="0.75">
<path d="M34 9C33.7239 9 33.5 9.22386 33.5 9.5V13.5H29.5C29.2239 13.5 29 13.7239 29 14C29 14.2761 29.2239 14.5 29.5 14.5H33.5V18.5C33.5 18.7761 33.7239 19 34 19C34.2761 19 34.5 18.7761 34.5 18.5V14.5H38.5C38.7761 14.5 39 14.2761 39 14C39 13.7239 38.7761 13.5 38.5 13.5H34.5V9.5C34.5 9.22386 34.2761 9 34 9Z" fill="white"/>
</g>
</g>
</g>
<defs>
<clipPath id="clip0_1136_49917">
<rect width="168" height="96" fill="white" transform="translate(52)"/>
</clipPath>
<clipPath id="clip1_1136_49917">
<rect width="48" height="96" fill="white"/>
</clipPath>
<clipPath id="clip2_1136_49917">
<rect width="204" height="96" fill="white" transform="translate(-156)"/>
</clipPath>
</defs>
</svg>
