<svg width="128" height="60" viewBox="0 0 128 60" fill="none" xmlns="http://www.w3.org/2000/svg">
<g clip-path="url(#clip0_1403_51547)">
<rect opacity="0.75" width="128" height="60" rx="2" transform="matrix(-1 0 0 1 128 0)" fill="#6B360D"/>
<path opacity="0.75" d="M27.868 10.128V11.148H23.968V13.488H25.924C26.692 13.488 27.292 13.684 27.724 14.076C28.164 14.46 28.384 14.988 28.384 15.66V15.84C28.384 16.504 28.164 17.032 27.724 17.424C27.284 17.808 26.684 18 25.924 18H22.84V10.128H27.868ZM25.9 16.98C26.348 16.98 26.688 16.884 26.92 16.692C27.152 16.492 27.268 16.204 27.268 15.828V15.648C27.268 15.28 27.152 14.996 26.92 14.796C26.688 14.596 26.348 14.496 25.9 14.496H23.968V16.98H25.9ZM30.6172 15.42V15.708C30.6172 16.156 30.7452 16.508 31.0012 16.764C31.2652 17.012 31.6252 17.136 32.0812 17.136C32.4652 17.136 32.7852 17.04 33.0412 16.848C33.3052 16.656 33.4412 16.42 33.4492 16.14H34.5292C34.4972 16.732 34.2572 17.216 33.8092 17.592C33.3612 17.96 32.7852 18.144 32.0812 18.144C31.3132 18.144 30.6972 17.928 30.2332 17.496C29.7692 17.056 29.5372 16.472 29.5372 15.744V14.316C29.5372 13.836 29.6412 13.416 29.8492 13.056C30.0572 12.688 30.3532 12.404 30.7372 12.204C31.1212 12.004 31.5612 11.904 32.0572 11.904C32.8092 11.904 33.4092 12.124 33.8572 12.564C34.3052 13.004 34.5292 13.584 34.5292 14.304V15.42H30.6172ZM32.0572 12.912C31.6172 12.912 31.2652 13.044 31.0012 13.308C30.7452 13.564 30.6172 13.912 30.6172 14.352V14.52H33.4492V14.352C33.4492 13.912 33.3212 13.564 33.0652 13.308C32.8172 13.044 32.4812 12.912 32.0572 12.912ZM38.2333 18.144C37.7293 18.144 37.2853 18.044 36.9013 17.844C36.5173 17.644 36.2213 17.364 36.0133 17.004C35.8053 16.636 35.7013 16.212 35.7013 15.732V14.316C35.7013 13.836 35.8053 13.416 36.0133 13.056C36.2213 12.688 36.5173 12.404 36.9013 12.204C37.2853 12.004 37.7293 11.904 38.2333 11.904C38.7053 11.904 39.1253 12.004 39.4933 12.204C39.8693 12.396 40.1613 12.664 40.3693 13.008C40.5773 13.352 40.6813 13.744 40.6813 14.184V14.316H39.6013V14.184C39.6013 13.816 39.4733 13.516 39.2173 13.284C38.9613 13.044 38.6333 12.924 38.2333 12.924C37.7853 12.924 37.4333 13.052 37.1773 13.308C36.9213 13.556 36.7933 13.9 36.7933 14.34V15.708C36.7933 16.148 36.9213 16.496 37.1773 16.752C37.4333 17 37.7853 17.124 38.2333 17.124C38.6333 17.124 38.9613 17.012 39.2173 16.788C39.4733 16.556 39.6013 16.26 39.6013 15.9V15.768H40.6813V15.9C40.6813 16.572 40.4573 17.116 40.0093 17.532C39.5613 17.94 38.9693 18.144 38.2333 18.144ZM43.0665 12.048V16.284L45.8745 12.048H46.8705V18H45.8145V13.764L43.0185 18H42.0225V12.048H43.0665ZM47.5031 13.032V12.048H52.5551V13.032H50.5751V18H49.4831V13.032H47.5031Z" fill="white"/>
<g opacity="0.75">
<path d="M110.5 10.5C110.5 10.2239 110.724 10 111 10C111.276 10 111.5 10.2239 111.5 10.5V17.5C111.5 17.7761 111.276 18 111 18C110.724 18 110.5 17.7761 110.5 17.5V10.5Z" fill="white"/>
<path d="M113.5 10.5C113.5 10.2239 113.724 10 114 10C114.276 10 114.5 10.2239 114.5 10.5V17.5C114.5 17.7761 114.276 18 114 18C113.724 18 113.5 17.7761 113.5 17.5V10.5Z" fill="white"/>
<path d="M117 10C116.724 10 116.5 10.2239 116.5 10.5V17.5C116.5 17.7761 116.724 18 117 18C117.276 18 117.5 17.7761 117.5 17.5V10.5C117.5 10.2239 117.276 10 117 10Z" fill="white"/>
</g>
<path opacity="0.75" d="M116.357 42.128V42.908C114.725 45.508 113.909 47.776 113.909 49.712V50H113.045V49.712C113.045 48.784 113.253 47.728 113.669 46.544C114.085 45.352 114.673 44.14 115.433 42.908H111.413V42.128H116.357Z" fill="white"/>
<path d="M20.204 44.006C20.84 44.246 21.326 44.576 21.662 44.996C21.998 45.416 22.166 45.902 22.166 46.454V46.67C22.166 47.798 21.62 48.674 20.528 49.298C19.448 49.91 17.906 50.216 15.902 50.216C13.73 50.216 12.074 49.808 10.934 48.992C9.806 48.164 9.242 46.958 9.242 45.374V45.212H11.06V45.374C11.06 46.466 11.45 47.27 12.23 47.786C13.022 48.29 14.258 48.542 15.938 48.542C17.438 48.542 18.548 48.386 19.268 48.074C19.988 47.762 20.348 47.276 20.348 46.616V46.418C20.348 45.866 20.078 45.476 19.538 45.248C18.998 45.008 18.08 44.888 16.784 44.888H13.634V43.286H16.658C17.858 43.286 18.722 43.16 19.25 42.908C19.79 42.656 20.06 42.248 20.06 41.684V41.486C20.06 40.262 18.638 39.65 15.794 39.65C14.21 39.65 13.034 39.914 12.266 40.442C11.498 40.97 11.114 41.768 11.114 42.836V42.98H9.314V42.836C9.314 41.264 9.872 40.064 10.988 39.236C12.116 38.396 13.73 37.976 15.83 37.976C17.75 37.976 19.238 38.276 20.294 38.876C21.35 39.476 21.878 40.316 21.878 41.396V41.63C21.878 42.698 21.32 43.49 20.204 44.006ZM35.7921 48.47V50H34.6041C34.0161 50 33.5241 49.886 33.1281 49.658C32.7321 49.43 32.4561 49.106 32.3001 48.686C31.8201 49.202 31.2441 49.586 30.5721 49.838C29.9001 50.09 29.1081 50.216 28.1961 50.216C26.9121 50.216 25.9221 49.994 25.2261 49.55C24.5301 49.094 24.1821 48.446 24.1821 47.606C24.1821 46.886 24.4521 46.31 24.9921 45.878C25.5321 45.446 26.3241 45.176 27.3681 45.068L32.1741 44.564C32.1381 43.892 31.8561 43.382 31.3281 43.034C30.8001 42.686 30.0441 42.512 29.0601 42.512C28.1121 42.512 27.3561 42.674 26.7921 42.998C26.2281 43.322 25.9461 43.754 25.9461 44.294V44.366H24.2361V44.294C24.2361 43.622 24.4341 43.028 24.8301 42.512C25.2381 41.984 25.8081 41.582 26.5401 41.306C27.2721 41.018 28.1181 40.874 29.0781 40.874C30.6021 40.874 31.7841 41.21 32.6241 41.882C33.4641 42.554 33.8841 43.496 33.8841 44.708V47.48C33.8841 47.792 33.9801 48.038 34.1721 48.218C34.3641 48.386 34.6401 48.47 35.0001 48.47H35.7921ZM28.1601 48.686C29.1321 48.686 29.9661 48.536 30.6621 48.236C31.3581 47.924 31.8621 47.486 32.1741 46.922V45.968L27.7461 46.436C27.1221 46.496 26.6541 46.622 26.3421 46.814C26.0421 47.006 25.8921 47.27 25.8921 47.606C25.8921 48.326 26.6481 48.686 28.1601 48.686ZM54.8329 48.47V52.304H53.1049V50H37.4089V41.09H39.1369V48.47H44.3749V41.09H46.1029V48.47H51.3229V41.09H53.0509V48.47H54.8329ZM58.4184 41.09V47.894L64.9524 41.09H66.5364V50H64.8804V43.196L58.3464 50H56.7624V41.09H58.4184ZM67.7531 42.638V41.09H78.2291V42.638H73.8911V50H72.1631V42.638H67.7531ZM90.9171 48.47V50H89.7291C89.1411 50 88.6491 49.886 88.2531 49.658C87.8571 49.43 87.5811 49.106 87.4251 48.686C86.9451 49.202 86.3691 49.586 85.6971 49.838C85.0251 50.09 84.2331 50.216 83.3211 50.216C82.0371 50.216 81.0471 49.994 80.3511 49.55C79.6551 49.094 79.3071 48.446 79.3071 47.606C79.3071 46.886 79.5771 46.31 80.1171 45.878C80.6571 45.446 81.4491 45.176 82.4931 45.068L87.2991 44.564C87.2631 43.892 86.9811 43.382 86.4531 43.034C85.9251 42.686 85.1691 42.512 84.1851 42.512C83.2371 42.512 82.4811 42.674 81.9171 42.998C81.3531 43.322 81.0711 43.754 81.0711 44.294V44.366H79.3611V44.294C79.3611 43.622 79.5591 43.028 79.9551 42.512C80.3631 41.984 80.9331 41.582 81.6651 41.306C82.3971 41.018 83.2431 40.874 84.2031 40.874C85.7271 40.874 86.9091 41.21 87.7491 41.882C88.5891 42.554 89.0091 43.496 89.0091 44.708V47.48C89.0091 47.792 89.1051 48.038 89.2971 48.218C89.4891 48.386 89.7651 48.47 90.1251 48.47H90.9171ZM83.2851 48.686C84.2571 48.686 85.0911 48.536 85.7871 48.236C86.4831 47.924 86.9871 47.486 87.2991 46.922V45.968L82.8711 46.436C82.2471 46.496 81.7791 46.622 81.4671 46.814C81.1671 47.006 81.0171 47.27 81.0171 47.606C81.0171 48.326 81.7731 48.686 83.2851 48.686Z" fill="white"/>
<g opacity="0.75">
<rect width="2" height="6" transform="matrix(-1 0 0 1 18 12)" fill="white"/>
<rect width="2" height="4" transform="matrix(-1 0 0 1 14 14)" fill="white"/>
<rect width="2" height="2" transform="matrix(-1 0 0 1 10 16)" fill="white"/>
</g>
</g>
<defs>
<clipPath id="clip0_1403_51547">
<rect width="128" height="60" fill="white"/>
</clipPath>
</defs>
</svg>
