<svg width="256" height="60" viewBox="0 0 256 60" fill="none" xmlns="http://www.w3.org/2000/svg">
<g clip-path="url(#clip0_1136_49951)">
<rect width="204" height="60.0006" transform="translate(52)" fill="white"/>
<g opacity="0.1">
<path d="M241.384 0.000610352H220.363L256 20.5758V8.43898L241.384 0.000610352Z" fill="#6B360D"/>
<path d="M256 38.781L188.83 0.000610352H167.809L256 50.9178V38.781Z" fill="#6B360D"/>
<path d="M240.199 60.0006L136.276 0.000610352H115.255L219.178 60.0006H240.199Z" fill="#6B360D"/>
<path d="M187.645 60.0006L83.7224 0.000610352H62.7009L166.624 60.0006H187.645Z" fill="#6B360D"/>
<path d="M135.092 60.0006L52 12.0277V24.1645L114.07 60.0006H135.092Z" fill="#6B360D"/>
<path d="M82.5376 60.0006L52 42.3697V54.5065L61.516 60.0006H82.5376Z" fill="#6B360D"/>
</g>
<rect opacity="0.6" x="52.5" y="0.5" width="203" height="59" rx="1.5" stroke="#6B360D"/>
<path opacity="0.75" d="M70.744 18.144C70.144 18.144 69.616 18.024 69.16 17.784C68.704 17.544 68.348 17.204 68.092 16.764C67.844 16.324 67.72 15.82 67.72 15.252V12.9C67.72 12.324 67.844 11.816 68.092 11.376C68.348 10.936 68.704 10.596 69.16 10.356C69.616 10.108 70.144 9.984 70.744 9.984C71.32 9.984 71.832 10.104 72.28 10.344C72.736 10.576 73.088 10.904 73.336 11.328C73.592 11.744 73.72 12.224 73.72 12.768V13.056H72.604V12.768C72.604 12.224 72.436 11.8 72.1 11.496C71.772 11.184 71.316 11.028 70.732 11.028C70.132 11.028 69.668 11.196 69.34 11.532C69.012 11.86 68.848 12.328 68.848 12.936V15.204C68.848 15.812 69.012 16.28 69.34 16.608C69.668 16.936 70.132 17.1 70.732 17.1C71.316 17.1 71.772 16.948 72.1 16.644C72.436 16.332 72.604 15.904 72.604 15.36V15.06H73.72V15.36C73.72 15.904 73.592 16.388 73.336 16.812C73.088 17.228 72.736 17.556 72.28 17.796C71.832 18.028 71.32 18.144 70.744 18.144ZM74.5031 13.032V12.048H79.5551V13.032H77.5751V18H76.4831V13.032H74.5031ZM83.1954 11.904C83.8914 11.904 84.4474 12.12 84.8634 12.552C85.2794 12.976 85.4874 13.544 85.4874 14.256V15.792C85.4874 16.504 85.2794 17.076 84.8634 17.508C84.4474 17.932 83.8914 18.144 83.1954 18.144C82.5314 18.144 81.9874 17.944 81.5634 17.544V20.04H80.4834V12.048H81.4554L81.5034 12.552C81.9354 12.12 82.4994 11.904 83.1954 11.904ZM84.3954 14.304C84.3954 13.88 84.2674 13.544 84.0114 13.296C83.7634 13.048 83.4234 12.924 82.9914 12.924C82.6794 12.924 82.3954 12.996 82.1394 13.14C81.8914 13.276 81.6994 13.468 81.5634 13.716V16.344C81.6994 16.584 81.8914 16.776 82.1394 16.92C82.3874 17.056 82.6714 17.124 82.9914 17.124C83.4234 17.124 83.7634 17 84.0114 16.752C84.2674 16.504 84.3954 16.168 84.3954 15.744V14.304ZM92.4624 17.016V18H91.8264C91.5384 18 91.2864 17.952 91.0704 17.856C90.8624 17.752 90.7024 17.604 90.5904 17.412C90.1504 17.9 89.5264 18.144 88.7184 18.144C88.0784 18.144 87.5704 17.992 87.1944 17.688C86.8184 17.384 86.6304 16.964 86.6304 16.428C86.6304 15.94 86.7904 15.556 87.1104 15.276C87.4304 14.996 87.9224 14.812 88.5864 14.724L90.3744 14.484V14.1C90.3744 13.716 90.2624 13.424 90.0384 13.224C89.8224 13.024 89.5024 12.924 89.0784 12.924C88.6624 12.924 88.3384 13.024 88.1064 13.224C87.8824 13.416 87.7704 13.688 87.7704 14.04V14.124H86.6784V14.04C86.6784 13.384 86.8944 12.864 87.3264 12.48C87.7664 12.096 88.3624 11.904 89.1144 11.904C89.8664 11.904 90.4464 12.1 90.8544 12.492C91.2624 12.876 91.4664 13.42 91.4664 14.124V16.416C91.4664 16.816 91.6584 17.016 92.0424 17.016H92.4624ZM88.7904 17.208C89.1424 17.208 89.4544 17.132 89.7264 16.98C90.0064 16.828 90.2224 16.62 90.3744 16.356V15.336L88.7664 15.576C88.0624 15.688 87.7104 15.968 87.7104 16.416C87.7104 16.664 87.8064 16.86 87.9984 17.004C88.1984 17.14 88.4624 17.208 88.7904 17.208ZM99.3754 17.016V19.572H98.2834V18H93.9274V19.572H92.8474V17.016H93.5914C93.8954 16.448 94.0554 15.776 94.0714 15L94.1074 12.048H98.4874V17.016H99.3754ZM97.4074 17.016V13.032H95.1154L95.0794 15.048C95.0634 15.8 94.9234 16.456 94.6594 17.016H97.4074ZM106.009 17.016V18H105.373C105.085 18 104.833 17.952 104.617 17.856C104.409 17.752 104.249 17.604 104.137 17.412C103.697 17.9 103.073 18.144 102.265 18.144C101.625 18.144 101.117 17.992 100.741 17.688C100.365 17.384 100.177 16.964 100.177 16.428C100.177 15.94 100.337 15.556 100.657 15.276C100.977 14.996 101.469 14.812 102.133 14.724L103.921 14.484V14.1C103.921 13.716 103.809 13.424 103.585 13.224C103.369 13.024 103.049 12.924 102.625 12.924C102.209 12.924 101.885 13.024 101.653 13.224C101.429 13.416 101.317 13.688 101.317 14.04V14.124H100.225V14.04C100.225 13.384 100.441 12.864 100.873 12.48C101.313 12.096 101.909 11.904 102.661 11.904C103.413 11.904 103.993 12.1 104.401 12.492C104.809 12.876 105.013 13.42 105.013 14.124V16.416C105.013 16.816 105.205 17.016 105.589 17.016H106.009ZM102.337 17.208C102.689 17.208 103.001 17.132 103.273 16.98C103.553 16.828 103.769 16.62 103.921 16.356V15.336L102.313 15.576C101.609 15.688 101.257 15.968 101.257 16.416C101.257 16.664 101.353 16.86 101.545 17.004C101.745 17.14 102.009 17.208 102.337 17.208ZM111.434 11.904C112.17 11.904 112.762 12.128 113.21 12.576C113.658 13.016 113.882 13.6 113.882 14.328V15.732C113.882 16.46 113.658 17.044 113.21 17.484C112.762 17.924 112.17 18.144 111.434 18.144C110.69 18.144 110.094 17.924 109.646 17.484C109.198 17.044 108.974 16.46 108.974 15.732V15.516H107.942V18H106.862V12.048H107.942V14.52H108.974V14.328C108.974 13.592 109.198 13.004 109.646 12.564C110.094 12.124 110.69 11.904 111.434 11.904ZM112.79 14.364C112.79 13.916 112.666 13.564 112.418 13.308C112.178 13.052 111.85 12.924 111.434 12.924C111.01 12.924 110.674 13.052 110.426 13.308C110.178 13.564 110.054 13.916 110.054 14.364V15.708C110.054 16.14 110.178 16.484 110.426 16.74C110.674 16.996 111.01 17.124 111.434 17.124C111.85 17.124 112.178 16.996 112.418 16.74C112.666 16.484 112.79 16.14 112.79 15.708V14.364Z" fill="#6B360D"/>
<g opacity="0.75">
<rect opacity="0.25" x="61" y="10" width="2" height="8" fill="#6B360D"/>
<rect x="61" y="16" width="2" height="2" fill="#6B360D"/>
</g>
<g opacity="0.75">
<path d="M245.535 17.5355C245.731 17.3403 245.731 17.0237 245.535 16.8284L242.707 14L245.535 11.1716C245.731 10.9763 245.731 10.6597 245.535 10.4645C245.34 10.2692 245.024 10.2692 244.828 10.4645L242 13.2929L239.171 10.4645C238.976 10.2692 238.66 10.2692 238.464 10.4645C238.269 10.6597 238.269 10.9763 238.464 11.1716L241.293 14L238.464 16.8284C238.269 17.0237 238.269 17.3403 238.464 17.5355C238.66 17.7308 238.976 17.7308 239.171 17.5355L242 14.7071L244.828 17.5355C245.024 17.7308 245.34 17.7308 245.535 17.5355Z" fill="#6B360D"/>
</g>
<path opacity="0.75" d="M245.215 48.188H243.835V50H242.971V48.188H238.999V47.384C239.415 46.48 239.759 45.608 240.031 44.768C240.303 43.928 240.519 43.048 240.679 42.128H241.567V42.272C241.247 44 240.707 45.704 239.947 47.384H242.971V43.544H243.835V47.384H245.215V48.188Z" fill="#6B360D"/>
<path d="M72.096 38.192V39.794H63.456V43.106H68.73C70.086 43.106 71.136 43.4 71.88 43.988C72.636 44.564 73.014 45.38 73.014 46.436V46.67C73.014 47.714 72.636 48.53 71.88 49.118C71.124 49.706 70.074 50 68.73 50H61.656V38.192H72.096ZM68.712 48.398C69.48 48.398 70.086 48.242 70.53 47.93C70.986 47.618 71.214 47.198 71.214 46.67V46.436C71.214 45.896 70.992 45.476 70.548 45.176C70.104 44.864 69.492 44.708 68.712 44.708H63.456V48.398H68.712ZM80.3248 50.216C79.2328 50.216 78.2848 50.036 77.4808 49.676C76.6768 49.304 76.0588 48.782 75.6268 48.11C75.1948 47.426 74.9788 46.628 74.9788 45.716V45.41C74.9788 44.486 75.1948 43.682 75.6268 42.998C76.0588 42.314 76.6768 41.792 77.4808 41.432C78.2848 41.06 79.2328 40.874 80.3248 40.874C81.4048 40.874 82.3408 41.06 83.1328 41.432C83.9368 41.792 84.5488 42.314 84.9688 42.998C85.4008 43.682 85.6168 44.486 85.6168 45.41V45.716C85.6168 46.628 85.4008 47.426 84.9688 48.11C84.5488 48.782 83.9368 49.304 83.1328 49.676C82.3408 50.036 81.4048 50.216 80.3248 50.216ZM80.3068 48.632C81.4108 48.632 82.2748 48.374 82.8988 47.858C83.5228 47.342 83.8348 46.628 83.8348 45.716V45.41C83.8348 44.486 83.5228 43.766 82.8988 43.25C82.2748 42.722 81.4108 42.458 80.3068 42.458C79.1788 42.458 78.3028 42.716 77.6788 43.232C77.0668 43.748 76.7608 44.474 76.7608 45.41V45.716C76.7608 46.628 77.0728 47.342 77.6968 47.858C78.3328 48.374 79.2028 48.632 80.3068 48.632ZM97.5829 50H95.8549V42.602H90.4009L90.3289 45.824C90.2929 47.252 90.0169 48.308 89.5009 48.992C88.9969 49.664 88.2289 50 87.1969 50H86.3869V48.47H86.8189C87.4549 48.47 87.9109 48.26 88.1869 47.84C88.4749 47.42 88.6309 46.718 88.6549 45.734L88.7629 41.09H97.5829V50ZM110.343 46.112H101.757C101.817 46.892 102.153 47.51 102.765 47.966C103.377 48.41 104.193 48.632 105.213 48.632C106.161 48.632 106.929 48.476 107.517 48.164C108.117 47.84 108.441 47.414 108.489 46.886H110.343C110.247 47.93 109.743 48.746 108.831 49.334C107.931 49.922 106.725 50.216 105.213 50.216C104.145 50.216 103.215 50.036 102.423 49.676C101.631 49.304 101.019 48.782 100.587 48.11C100.167 47.438 99.9573 46.652 99.9573 45.752V45.374C99.9573 44.462 100.167 43.67 100.587 42.998C101.019 42.314 101.631 41.792 102.423 41.432C103.215 41.06 104.145 40.874 105.213 40.874C106.809 40.874 108.063 41.27 108.975 42.062C109.887 42.842 110.343 43.922 110.343 45.302V46.112ZM105.213 42.458C104.253 42.458 103.473 42.656 102.873 43.052C102.285 43.436 101.925 43.976 101.793 44.672H108.507C108.399 43.976 108.057 43.436 107.481 43.052C106.905 42.656 106.149 42.458 105.213 42.458ZM121.448 45.482C121.94 45.638 122.312 45.878 122.564 46.202C122.828 46.514 122.96 46.898 122.96 47.354V47.534C122.96 48.314 122.654 48.92 122.042 49.352C121.442 49.784 120.59 50 119.486 50H112.718V41.09H119.252C120.356 41.09 121.208 41.3 121.808 41.72C122.42 42.128 122.726 42.716 122.726 43.484V43.664C122.726 44.492 122.3 45.098 121.448 45.482ZM114.446 42.422V44.834H119.18C119.744 44.834 120.176 44.738 120.476 44.546C120.788 44.342 120.944 44.054 120.944 43.682V43.502C120.944 43.154 120.794 42.89 120.494 42.71C120.194 42.518 119.756 42.422 119.18 42.422H114.446ZM121.178 47.318C121.178 46.958 121.028 46.682 120.728 46.49C120.428 46.298 119.996 46.202 119.432 46.202H114.446V48.65H119.432C119.996 48.65 120.428 48.554 120.728 48.362C121.028 48.158 121.178 47.87 121.178 47.498V47.318ZM136.765 48.47V50H135.577C134.989 50 134.497 49.886 134.101 49.658C133.705 49.43 133.429 49.106 133.273 48.686C132.793 49.202 132.217 49.586 131.545 49.838C130.873 50.09 130.081 50.216 129.169 50.216C127.885 50.216 126.895 49.994 126.199 49.55C125.503 49.094 125.155 48.446 125.155 47.606C125.155 46.886 125.425 46.31 125.965 45.878C126.505 45.446 127.297 45.176 128.341 45.068L133.147 44.564C133.111 43.892 132.829 43.382 132.301 43.034C131.773 42.686 131.017 42.512 130.033 42.512C129.085 42.512 128.329 42.674 127.765 42.998C127.201 43.322 126.919 43.754 126.919 44.294V44.366H125.209V44.294C125.209 43.622 125.407 43.028 125.803 42.512C126.211 41.984 126.781 41.582 127.513 41.306C128.245 41.018 129.091 40.874 130.051 40.874C131.575 40.874 132.757 41.21 133.597 41.882C134.437 42.554 134.857 43.496 134.857 44.708V47.48C134.857 47.792 134.953 48.038 135.145 48.218C135.337 48.386 135.613 48.47 135.973 48.47H136.765ZM129.133 48.686C130.105 48.686 130.939 48.536 131.635 48.236C132.331 47.924 132.835 47.486 133.147 46.922V45.968L128.719 46.436C128.095 46.496 127.627 46.622 127.315 46.814C127.015 47.006 126.865 47.27 126.865 47.606C126.865 48.326 127.621 48.686 129.133 48.686ZM148.192 49.982H146.464V47.066H143.8L140.236 50H138.004V49.784L141.316 47.066C140.248 47.018 139.42 46.748 138.832 46.256C138.244 45.752 137.95 45.068 137.95 44.204V44.006C137.95 43.082 138.268 42.368 138.904 41.864C139.552 41.348 140.452 41.09 141.604 41.09H148.192V49.982ZM146.464 45.59V42.602H141.73C140.398 42.602 139.732 43.07 139.732 44.006V44.204C139.732 45.128 140.398 45.59 141.73 45.59H146.464Z" fill="#6B360D"/>
</g>
<g opacity="0.25" clip-path="url(#clip1_1136_49951)">
<g clip-path="url(#clip2_1136_49951)">
<rect width="128" height="60" transform="translate(-80)" fill="white"/>
<rect opacity="0.5" x="-79.5" y="0.5" width="127" height="59" rx="1.5" stroke="#6B360D"/>
<g opacity="0.75">
<path d="M34 10C33.7239 10 33.5 10.2239 33.5 10.5V13.5H30.5C30.2239 13.5 30 13.7239 30 14C30 14.2761 30.2239 14.5 30.5 14.5H33.5V17.5C33.5 17.7761 33.7239 18 34 18C34.2761 18 34.5 17.7761 34.5 17.5V14.5H37.5C37.7761 14.5 38 14.2761 38 14C38 13.7239 37.7761 13.5 37.5 13.5H34.5V10.5C34.5 10.2239 34.2761 10 34 10Z" fill="#6B360D"/>
<path d="M36.8284 11.1716C36.6332 10.9763 36.3166 10.9763 36.1213 11.1716L35 12.2929C34.8047 12.4882 34.8047 12.8047 35 13C35.1953 13.1953 35.5119 13.1953 35.7071 13L36.8284 11.8787C37.0237 11.6834 37.0237 11.3668 36.8284 11.1716Z" fill="#6B360D"/>
<path d="M36.1213 16.8286C36.3166 17.0239 36.6332 17.0239 36.8284 16.8286C37.0237 16.6333 37.0237 16.3168 36.8284 16.1215L35.7071 15.0002C35.5119 14.8049 35.1953 14.8049 35 15.0002C34.8047 15.1954 34.8047 15.512 35 15.7073L36.1213 16.8286Z" fill="#6B360D"/>
<path d="M33.0156 12.3085C33.2109 12.5038 33.2109 12.8204 33.0156 13.0156C32.8204 13.2109 32.5038 13.2109 32.3085 13.0156L31.1716 11.8787C30.9763 11.6834 30.9763 11.3668 31.1716 11.1716C31.3668 10.9763 31.6834 10.9763 31.8787 11.1716L33.0156 12.3085Z" fill="#6B360D"/>
<path d="M33.0156 14.9846C33.2109 15.1798 33.2109 15.4964 33.0156 15.6917L31.8787 16.8286C31.6834 17.0239 31.3668 17.0239 31.1716 16.8286C30.9763 16.6333 30.9763 16.3168 31.1716 16.1215L32.3085 14.9846C32.5038 14.7893 32.8204 14.7893 33.0156 14.9846Z" fill="#6B360D"/>
</g>
<path opacity="0.75" d="M34.036 45.26C34.796 45.26 35.392 45.452 35.824 45.836C36.256 46.22 36.472 46.752 36.472 47.432V47.828C36.472 48.54 36.24 49.104 35.776 49.52C35.32 49.928 34.696 50.132 33.904 50.132C33.112 50.132 32.484 49.94 32.02 49.556C31.556 49.172 31.324 48.648 31.324 47.984V47.756H32.176V47.984C32.176 48.408 32.332 48.74 32.644 48.98C32.956 49.22 33.376 49.34 33.904 49.34C34.432 49.34 34.848 49.208 35.152 48.944C35.456 48.68 35.608 48.312 35.608 47.84V47.456C35.608 47 35.452 46.644 35.14 46.388C34.836 46.132 34.408 46.004 33.856 46.004H32.872V45.32L35.32 42.908H31.456V42.128H36.436V42.908L34.036 45.26Z" fill="#6B360D"/>
<path d="M-63.072 38.192C-61.752 38.192 -60.708 38.51 -59.94 39.146C-59.172 39.77 -58.788 40.616 -58.788 41.684V41.9C-58.788 42.968 -59.172 43.82 -59.94 44.456C-60.708 45.08 -61.752 45.392 -63.072 45.392H-68.544V50H-70.344V38.192H-63.072ZM-63.108 43.79C-62.316 43.79 -61.704 43.628 -61.272 43.304C-60.828 42.968 -60.606 42.5 -60.606 41.9V41.684C-60.606 41.084 -60.828 40.622 -61.272 40.298C-61.704 39.962 -62.316 39.794 -63.108 39.794H-68.544V43.79H-63.108ZM-51.974 50.216C-53.066 50.216 -54.014 50.036 -54.818 49.676C-55.622 49.304 -56.24 48.782 -56.672 48.11C-57.104 47.426 -57.32 46.628 -57.32 45.716V45.41C-57.32 44.486 -57.104 43.682 -56.672 42.998C-56.24 42.314 -55.622 41.792 -54.818 41.432C-54.014 41.06 -53.066 40.874 -51.974 40.874C-50.894 40.874 -49.958 41.06 -49.166 41.432C-48.362 41.792 -47.75 42.314 -47.33 42.998C-46.898 43.682 -46.682 44.486 -46.682 45.41V45.716C-46.682 46.628 -46.898 47.426 -47.33 48.11C-47.75 48.782 -48.362 49.304 -49.166 49.676C-49.958 50.036 -50.894 50.216 -51.974 50.216ZM-51.992 48.632C-50.888 48.632 -50.024 48.374 -49.4 47.858C-48.776 47.342 -48.464 46.628 -48.464 45.716V45.41C-48.464 44.486 -48.776 43.766 -49.4 43.25C-50.024 42.722 -50.888 42.458 -51.992 42.458C-53.12 42.458 -53.996 42.716 -54.62 43.232C-55.232 43.748 -55.538 44.474 -55.538 45.41V45.716C-55.538 46.628 -55.226 47.342 -54.602 47.858C-53.966 48.374 -53.096 48.632 -51.992 48.632ZM-34.716 50H-36.444V42.602H-41.898L-41.97 45.824C-42.006 47.252 -42.282 48.308 -42.798 48.992C-43.302 49.664 -44.07 50 -45.102 50H-45.912V48.47H-45.48C-44.844 48.47 -44.388 48.26 -44.112 47.84C-43.824 47.42 -43.668 46.718 -43.644 45.734L-43.536 41.09H-34.716V50ZM-21.9555 46.112H-30.5415C-30.4815 46.892 -30.1455 47.51 -29.5335 47.966C-28.9215 48.41 -28.1055 48.632 -27.0855 48.632C-26.1375 48.632 -25.3695 48.476 -24.7815 48.164C-24.1815 47.84 -23.8575 47.414 -23.8095 46.886H-21.9555C-22.0515 47.93 -22.5555 48.746 -23.4675 49.334C-24.3675 49.922 -25.5735 50.216 -27.0855 50.216C-28.1535 50.216 -29.0835 50.036 -29.8755 49.676C-30.6675 49.304 -31.2795 48.782 -31.7115 48.11C-32.1315 47.438 -32.3415 46.652 -32.3415 45.752V45.374C-32.3415 44.462 -32.1315 43.67 -31.7115 42.998C-31.2795 42.314 -30.6675 41.792 -29.8755 41.432C-29.0835 41.06 -28.1535 40.874 -27.0855 40.874C-25.4895 40.874 -24.2355 41.27 -23.3235 42.062C-22.4115 42.842 -21.9555 43.922 -21.9555 45.302V46.112ZM-27.0855 42.458C-28.0455 42.458 -28.8255 42.656 -29.4255 43.052C-30.0135 43.436 -30.3735 43.976 -30.5055 44.672H-23.7915C-23.8995 43.976 -24.2415 43.436 -24.8175 43.052C-25.3935 42.656 -26.1495 42.458 -27.0855 42.458ZM-10.8513 45.482C-10.3593 45.638 -9.98733 45.878 -9.73533 46.202C-9.47133 46.514 -9.33933 46.898 -9.33933 47.354V47.534C-9.33933 48.314 -9.64533 48.92 -10.2573 49.352C-10.8573 49.784 -11.7093 50 -12.8133 50H-19.5813V41.09H-13.0473C-11.9433 41.09 -11.0913 41.3 -10.4913 41.72C-9.87933 42.128 -9.57333 42.716 -9.57333 43.484V43.664C-9.57333 44.492 -9.99933 45.098 -10.8513 45.482ZM-17.8533 42.422V44.834H-13.1193C-12.5553 44.834 -12.1233 44.738 -11.8233 44.546C-11.5113 44.342 -11.3553 44.054 -11.3553 43.682V43.502C-11.3553 43.154 -11.5053 42.89 -11.8053 42.71C-12.1053 42.518 -12.5433 42.422 -13.1193 42.422H-17.8533ZM-11.1213 47.318C-11.1213 46.958 -11.2713 46.682 -11.5713 46.49C-11.8713 46.298 -12.3033 46.202 -12.8673 46.202H-17.8533V48.65H-12.8673C-12.3033 48.65 -11.8713 48.554 -11.5713 48.362C-11.2713 48.158 -11.1213 47.87 -11.1213 47.498V47.318ZM4.46597 48.47V50H3.27797C2.68997 50 2.19797 49.886 1.80197 49.658C1.40597 49.43 1.12997 49.106 0.973969 48.686C0.493969 49.202 -0.0820307 49.586 -0.754031 49.838C-1.42603 50.09 -2.21803 50.216 -3.13003 50.216C-4.41403 50.216 -5.40403 49.994 -6.10003 49.55C-6.79603 49.094 -7.14403 48.446 -7.14403 47.606C-7.14403 46.886 -6.87403 46.31 -6.33403 45.878C-5.79403 45.446 -5.00203 45.176 -3.95803 45.068L0.84797 44.564C0.811969 43.892 0.529969 43.382 0.00196928 43.034C-0.526031 42.686 -1.28203 42.512 -2.26603 42.512C-3.21403 42.512 -3.97003 42.674 -4.53403 42.998C-5.09803 43.322 -5.38003 43.754 -5.38003 44.294V44.366H-7.09003V44.294C-7.09003 43.622 -6.89203 43.028 -6.49603 42.512C-6.08803 41.984 -5.51803 41.582 -4.78603 41.306C-4.05403 41.018 -3.20803 40.874 -2.24803 40.874C-0.724031 40.874 0.457969 41.21 1.29797 41.882C2.13797 42.554 2.55797 43.496 2.55797 44.708V47.48C2.55797 47.792 2.65397 48.038 2.84597 48.218C3.03797 48.386 3.31397 48.47 3.67397 48.47H4.46597ZM-3.16603 48.686C-2.19403 48.686 -1.36003 48.536 -0.664031 48.236C0.0319692 47.924 0.535969 47.486 0.84797 46.922V45.968L-3.58003 46.436C-4.20403 46.496 -4.67203 46.622 -4.98403 46.814C-5.28403 47.006 -5.43403 47.27 -5.43403 47.606C-5.43403 48.326 -4.67803 48.686 -3.16603 48.686ZM15.8927 49.982H14.1647V47.066H11.5007L7.93673 50H5.70473V49.784L9.01673 47.066C7.94873 47.018 7.12073 46.748 6.53273 46.256C5.94473 45.752 5.65073 45.068 5.65073 44.204V44.006C5.65073 43.082 5.96873 42.368 6.60473 41.864C7.25273 41.348 8.15273 41.09 9.30473 41.09H15.8927V49.982ZM14.1647 45.59V42.602H9.43073C8.09873 42.602 7.43273 43.07 7.43273 44.006V44.204C7.43273 45.128 8.09873 45.59 9.43073 45.59H14.1647Z" fill="#6B360D"/>
</g>
</g>
<defs>
<clipPath id="clip0_1136_49951">
<rect width="204" height="60.0006" fill="white" transform="translate(52)"/>
</clipPath>
<clipPath id="clip1_1136_49951">
<rect width="48" height="60" fill="white"/>
</clipPath>
<clipPath id="clip2_1136_49951">
<rect width="128" height="60" fill="white" transform="translate(-80)"/>
</clipPath>
</defs>
</svg>
