<svg width="128" height="60" viewBox="0 0 128 60" fill="none" xmlns="http://www.w3.org/2000/svg">
<g clip-path="url(#clip0_1142_50021)">
<rect width="128" height="60" fill="white"/>
<rect opacity="0.5" x="0.5" y="0.5" width="127" height="59" rx="1.5" stroke="#6B360D"/>
<path opacity="0.75" d="M24.868 10.128V11.148H20.968V13.488H22.924C23.692 13.488 24.292 13.684 24.724 14.076C25.164 14.46 25.384 14.988 25.384 15.66V15.84C25.384 16.504 25.164 17.032 24.724 17.424C24.284 17.808 23.684 18 22.924 18H19.84V10.128H24.868ZM22.9 16.98C23.348 16.98 23.688 16.884 23.92 16.692C24.152 16.492 24.268 16.204 24.268 15.828V15.648C24.268 15.28 24.152 14.996 23.92 14.796C23.688 14.596 23.348 14.496 22.9 14.496H20.968V16.98H22.9ZM29.0452 18.144C28.2852 18.144 27.6772 17.924 27.2212 17.484C26.7652 17.044 26.5372 16.46 26.5372 15.732V14.328C26.5372 13.592 26.7652 13.004 27.2212 12.564C27.6772 12.124 28.2852 11.904 29.0452 11.904C29.8132 11.904 30.4252 12.124 30.8812 12.564C31.3452 13.004 31.5772 13.592 31.5772 14.328V15.732C31.5772 16.46 31.3452 17.044 30.8812 17.484C30.4252 17.924 29.8132 18.144 29.0452 18.144ZM29.0572 17.124C29.4972 17.124 29.8452 16.996 30.1012 16.74C30.3652 16.484 30.4972 16.14 30.4972 15.708V14.364C30.4972 13.916 30.3692 13.564 30.1132 13.308C29.8572 13.052 29.5052 12.924 29.0572 12.924C28.6172 12.924 28.2652 13.052 28.0012 13.308C27.7452 13.564 27.6172 13.916 27.6172 14.364V15.708C27.6172 16.148 27.7452 16.496 28.0012 16.752C28.2652 17 28.6172 17.124 29.0572 17.124ZM37.5242 11.904C38.2602 11.904 38.8522 12.128 39.3002 12.576C39.7482 13.016 39.9722 13.6 39.9722 14.328V15.732C39.9722 16.46 39.7482 17.044 39.3002 17.484C38.8522 17.924 38.2602 18.144 37.5242 18.144C36.7802 18.144 36.1842 17.924 35.7362 17.484C35.2882 17.044 35.0642 16.46 35.0642 15.732V15.516H34.0322V18H32.9522V12.048H34.0322V14.52H35.0642V14.328C35.0642 13.592 35.2882 13.004 35.7362 12.564C36.1842 12.124 36.7802 11.904 37.5242 11.904ZM38.8802 14.364C38.8802 13.916 38.7562 13.564 38.5082 13.308C38.2682 13.052 37.9402 12.924 37.5242 12.924C37.1002 12.924 36.7642 13.052 36.5162 13.308C36.2682 13.564 36.1442 13.916 36.1442 14.364V15.708C36.1442 16.14 36.2682 16.484 36.5162 16.74C36.7642 16.996 37.1002 17.124 37.5242 17.124C37.9402 17.124 38.2682 16.996 38.5082 16.74C38.7562 16.484 38.8802 16.14 38.8802 15.708V14.364ZM43.6825 18.144C43.1785 18.144 42.7345 18.044 42.3505 17.844C41.9665 17.644 41.6705 17.364 41.4625 17.004C41.2545 16.636 41.1505 16.212 41.1505 15.732V14.316C41.1505 13.836 41.2545 13.416 41.4625 13.056C41.6705 12.688 41.9665 12.404 42.3505 12.204C42.7345 12.004 43.1785 11.904 43.6825 11.904C44.1545 11.904 44.5745 12.004 44.9425 12.204C45.3185 12.396 45.6105 12.664 45.8185 13.008C46.0265 13.352 46.1305 13.744 46.1305 14.184V14.316H45.0505V14.184C45.0505 13.816 44.9225 13.516 44.6665 13.284C44.4105 13.044 44.0825 12.924 43.6825 12.924C43.2345 12.924 42.8825 13.052 42.6265 13.308C42.3705 13.556 42.2425 13.9 42.2425 14.34V15.708C42.2425 16.148 42.3705 16.496 42.6265 16.752C42.8825 17 43.2345 17.124 43.6825 17.124C44.0825 17.124 44.4105 17.012 44.6665 16.788C44.9225 16.556 45.0505 16.26 45.0505 15.9V15.768H46.1305V15.9C46.1305 16.572 45.9065 17.116 45.4585 17.532C45.0105 17.94 44.4185 18.144 43.6825 18.144ZM50.4237 14.112C51.0557 14.112 51.5597 14.284 51.9357 14.628C52.3117 14.972 52.4997 15.428 52.4997 15.996V16.116C52.4997 16.684 52.3117 17.14 51.9357 17.484C51.5597 17.828 51.0557 18 50.4237 18H47.4717V12.048H48.5517V14.112H50.4237ZM51.4197 16.008C51.4197 15.72 51.3277 15.496 51.1437 15.336C50.9597 15.176 50.7037 15.096 50.3757 15.096H48.5517V17.016H50.3757C50.7037 17.016 50.9597 16.94 51.1437 16.788C51.3277 16.628 51.4197 16.4 51.4197 16.104V16.008Z" fill="#6B360D"/>
<g opacity="0.75">
<path d="M114 10C113.724 10 113.5 10.2239 113.5 10.5V13.5H110.5C110.224 13.5 110 13.7239 110 14C110 14.2761 110.224 14.5 110.5 14.5H113.5V17.5C113.5 17.7761 113.724 18 114 18C114.276 18 114.5 17.7761 114.5 17.5V14.5H117.5C117.776 14.5 118 14.2761 118 14C118 13.7239 117.776 13.5 117.5 13.5H114.5V10.5C114.5 10.2239 114.276 10 114 10Z" fill="#6B360D"/>
<path d="M116.828 11.1716C116.633 10.9763 116.317 10.9763 116.121 11.1716L115 12.2929C114.805 12.4882 114.805 12.8047 115 13C115.195 13.1953 115.512 13.1953 115.707 13L116.828 11.8787C117.024 11.6834 117.024 11.3668 116.828 11.1716Z" fill="#6B360D"/>
<path d="M116.121 16.8286C116.317 17.0239 116.633 17.0239 116.828 16.8286C117.024 16.6333 117.024 16.3168 116.828 16.1215L115.707 15.0002C115.512 14.8049 115.195 14.8049 115 15.0002C114.805 15.1954 114.805 15.512 115 15.7073L116.121 16.8286Z" fill="#6B360D"/>
<path d="M113.016 12.3085C113.211 12.5038 113.211 12.8204 113.016 13.0156C112.82 13.2109 112.504 13.2109 112.309 13.0156L111.172 11.8787C110.976 11.6834 110.976 11.3668 111.172 11.1716C111.367 10.9763 111.683 10.9763 111.879 11.1716L113.016 12.3085Z" fill="#6B360D"/>
<path d="M113.016 14.9846C113.211 15.1798 113.211 15.4964 113.016 15.6917L111.879 16.8286C111.683 17.0239 111.367 17.0239 111.172 16.8286C110.976 16.6333 110.976 16.3168 111.172 16.1215L112.309 14.9846C112.504 14.7893 112.82 14.7893 113.016 14.9846Z" fill="#6B360D"/>
</g>
<path opacity="0.75" d="M114.036 45.26C114.796 45.26 115.392 45.452 115.824 45.836C116.256 46.22 116.472 46.752 116.472 47.432V47.828C116.472 48.54 116.24 49.104 115.776 49.52C115.32 49.928 114.696 50.132 113.904 50.132C113.112 50.132 112.484 49.94 112.02 49.556C111.556 49.172 111.324 48.648 111.324 47.984V47.756H112.176V47.984C112.176 48.408 112.332 48.74 112.644 48.98C112.956 49.22 113.376 49.34 113.904 49.34C114.432 49.34 114.848 49.208 115.152 48.944C115.456 48.68 115.608 48.312 115.608 47.84V47.456C115.608 47 115.452 46.644 115.14 46.388C114.836 46.132 114.408 46.004 113.856 46.004H112.872V45.32L115.32 42.908H111.456V42.128H116.436V42.908L114.036 45.26Z" fill="#6B360D"/>
<path d="M16.928 38.192C18.248 38.192 19.292 38.51 20.06 39.146C20.828 39.77 21.212 40.616 21.212 41.684V41.9C21.212 42.968 20.828 43.82 20.06 44.456C19.292 45.08 18.248 45.392 16.928 45.392H11.456V50H9.656V38.192H16.928ZM16.892 43.79C17.684 43.79 18.296 43.628 18.728 43.304C19.172 42.968 19.394 42.5 19.394 41.9V41.684C19.394 41.084 19.172 40.622 18.728 40.298C18.296 39.962 17.684 39.794 16.892 39.794H11.456V43.79H16.892ZM28.026 50.216C26.934 50.216 25.986 50.036 25.182 49.676C24.378 49.304 23.76 48.782 23.328 48.11C22.896 47.426 22.68 46.628 22.68 45.716V45.41C22.68 44.486 22.896 43.682 23.328 42.998C23.76 42.314 24.378 41.792 25.182 41.432C25.986 41.06 26.934 40.874 28.026 40.874C29.106 40.874 30.042 41.06 30.834 41.432C31.638 41.792 32.25 42.314 32.67 42.998C33.102 43.682 33.318 44.486 33.318 45.41V45.716C33.318 46.628 33.102 47.426 32.67 48.11C32.25 48.782 31.638 49.304 30.834 49.676C30.042 50.036 29.106 50.216 28.026 50.216ZM28.008 48.632C29.112 48.632 29.976 48.374 30.6 47.858C31.224 47.342 31.536 46.628 31.536 45.716V45.41C31.536 44.486 31.224 43.766 30.6 43.25C29.976 42.722 29.112 42.458 28.008 42.458C26.88 42.458 26.004 42.716 25.38 43.232C24.768 43.748 24.462 44.474 24.462 45.41V45.716C24.462 46.628 24.774 47.342 25.398 47.858C26.034 48.374 26.904 48.632 28.008 48.632ZM45.284 50H43.556V42.602H38.102L38.03 45.824C37.994 47.252 37.718 48.308 37.202 48.992C36.698 49.664 35.93 50 34.898 50H34.088V48.47H34.52C35.156 48.47 35.612 48.26 35.888 47.84C36.176 47.42 36.332 46.718 36.356 45.734L36.464 41.09H45.284V50ZM58.0445 46.112H49.4585C49.5185 46.892 49.8545 47.51 50.4665 47.966C51.0785 48.41 51.8945 48.632 52.9145 48.632C53.8625 48.632 54.6305 48.476 55.2185 48.164C55.8185 47.84 56.1425 47.414 56.1905 46.886H58.0445C57.9485 47.93 57.4445 48.746 56.5325 49.334C55.6325 49.922 54.4265 50.216 52.9145 50.216C51.8465 50.216 50.9165 50.036 50.1245 49.676C49.3325 49.304 48.7205 48.782 48.2885 48.11C47.8685 47.438 47.6585 46.652 47.6585 45.752V45.374C47.6585 44.462 47.8685 43.67 48.2885 42.998C48.7205 42.314 49.3325 41.792 50.1245 41.432C50.9165 41.06 51.8465 40.874 52.9145 40.874C54.5105 40.874 55.7645 41.27 56.6765 42.062C57.5885 42.842 58.0445 43.922 58.0445 45.302V46.112ZM52.9145 42.458C51.9545 42.458 51.1745 42.656 50.5745 43.052C49.9865 43.436 49.6265 43.976 49.4945 44.672H56.2085C56.1005 43.976 55.7585 43.436 55.1825 43.052C54.6065 42.656 53.8505 42.458 52.9145 42.458ZM69.1487 45.482C69.6407 45.638 70.0127 45.878 70.2647 46.202C70.5287 46.514 70.6607 46.898 70.6607 47.354V47.534C70.6607 48.314 70.3547 48.92 69.7427 49.352C69.1427 49.784 68.2907 50 67.1867 50H60.4187V41.09H66.9527C68.0567 41.09 68.9087 41.3 69.5087 41.72C70.1207 42.128 70.4267 42.716 70.4267 43.484V43.664C70.4267 44.492 70.0007 45.098 69.1487 45.482ZM62.1467 42.422V44.834H66.8807C67.4447 44.834 67.8767 44.738 68.1767 44.546C68.4887 44.342 68.6447 44.054 68.6447 43.682V43.502C68.6447 43.154 68.4947 42.89 68.1947 42.71C67.8947 42.518 67.4567 42.422 66.8807 42.422H62.1467ZM68.8787 47.318C68.8787 46.958 68.7287 46.682 68.4287 46.49C68.1287 46.298 67.6967 46.202 67.1327 46.202H62.1467V48.65H67.1327C67.6967 48.65 68.1287 48.554 68.4287 48.362C68.7287 48.158 68.8787 47.87 68.8787 47.498V47.318ZM84.466 48.47V50H83.278C82.69 50 82.198 49.886 81.802 49.658C81.406 49.43 81.13 49.106 80.974 48.686C80.494 49.202 79.918 49.586 79.246 49.838C78.574 50.09 77.782 50.216 76.87 50.216C75.586 50.216 74.596 49.994 73.9 49.55C73.204 49.094 72.856 48.446 72.856 47.606C72.856 46.886 73.126 46.31 73.666 45.878C74.206 45.446 74.998 45.176 76.042 45.068L80.848 44.564C80.812 43.892 80.53 43.382 80.002 43.034C79.474 42.686 78.718 42.512 77.734 42.512C76.786 42.512 76.03 42.674 75.466 42.998C74.902 43.322 74.62 43.754 74.62 44.294V44.366H72.91V44.294C72.91 43.622 73.108 43.028 73.504 42.512C73.912 41.984 74.482 41.582 75.214 41.306C75.946 41.018 76.792 40.874 77.752 40.874C79.276 40.874 80.458 41.21 81.298 41.882C82.138 42.554 82.558 43.496 82.558 44.708V47.48C82.558 47.792 82.654 48.038 82.846 48.218C83.038 48.386 83.314 48.47 83.674 48.47H84.466ZM76.834 48.686C77.806 48.686 78.64 48.536 79.336 48.236C80.032 47.924 80.536 47.486 80.848 46.922V45.968L76.42 46.436C75.796 46.496 75.328 46.622 75.016 46.814C74.716 47.006 74.566 47.27 74.566 47.606C74.566 48.326 75.322 48.686 76.834 48.686ZM95.8927 49.982H94.1647V47.066H91.5007L87.9367 50H85.7047V49.784L89.0167 47.066C87.9487 47.018 87.1207 46.748 86.5327 46.256C85.9447 45.752 85.6507 45.068 85.6507 44.204V44.006C85.6507 43.082 85.9687 42.368 86.6047 41.864C87.2527 41.348 88.1527 41.09 89.3047 41.09H95.8927V49.982ZM94.1647 45.59V42.602H89.4307C88.0987 42.602 87.4327 43.07 87.4327 44.006V44.204C87.4327 45.128 88.0987 45.59 89.4307 45.59H94.1647Z" fill="#6B360D"/>
<g opacity="0.75">
<rect width="2" height="4" transform="matrix(-1 0 0 1 15 14)" fill="#6B360D"/>
<rect width="2" height="2" transform="matrix(-1 0 0 1 11 16)" fill="#6B360D"/>
</g>
</g>
<defs>
<clipPath id="clip0_1142_50021">
<rect width="128" height="60" fill="white"/>
</clipPath>
</defs>
</svg>
