<svg width="13" height="12" viewBox="0 0 13 12" fill="none" xmlns="http://www.w3.org/2000/svg">
<path fill-rule="evenodd" clip-rule="evenodd" d="M8.3343 12C6.61756 12 5.25172 11.2901 4.48782 9.99975C3.72393 8.70945 3.70368 6.9987 4.44734 5.554C5.36374 3.77018 5.29896 2.25656 4.37446 1.40187C3.72123 0.796696 2.93304 0.84081 2.20019 1.33432C0.985511 2.14903 0.769569 3.92596 1.61984 6.47072L0.492893 6.78365C-0.605713 3.49723 0.289097 1.36741 1.63874 0.458956C2.14611 0.118573 2.74988 -0.0398744 3.35506 0.00853803C3.96023 0.0569505 4.53249 0.309476 4.98179 0.726391C5.43797 1.14822 6.79706 2.76937 5.16804 5.93861C4.55666 7.12828 4.5634 8.52059 5.18559 9.57241C5.80777 10.6242 6.91583 11.1729 8.33835 11.1729C9.52873 11.1729 10.5288 10.7331 11.232 9.9005C11.8535 9.14409 12.1929 8.18746 12.1902 7.19996C12.1902 5.79938 11.4614 4.38639 9.83375 4.38639C9.18727 4.38639 8.37479 5.14871 8.19933 5.93723C8.44198 6.08784 8.72862 6.14687 9.00945 6.10406C9.29028 6.06125 9.54756 5.9193 9.73657 5.70288L10.5153 6.97113C9.90393 7.27992 8.88495 7.05384 8.26142 6.67612C8.92004 7.47567 9.93497 8.14839 10.3938 7.94437L10.0294 9.26776C9.55842 9.27603 8.94973 8.63363 8.48816 7.96229C8.59032 8.5681 8.63551 9.18251 8.62312 9.79711L7.3801 9.85087C7.65941 8.91393 7.73631 7.92622 7.60549 6.95596C7.51911 7.70037 7.2114 8.45718 6.48529 8.84041L5.91035 7.67418C6.8119 7.59009 7.34771 6.73126 7.49887 6.05716C7.48637 5.73528 7.53741 5.41412 7.64893 5.1128C7.76046 4.81148 7.9302 4.53616 8.14805 4.30323C8.3659 4.0703 8.62741 3.88452 8.91701 3.75694C9.2066 3.62937 9.51837 3.56261 9.83375 3.56065C11.6976 3.56065 13 5.05773 13 7.20134C13.0002 8.38715 12.5895 9.53476 11.8407 10.4409C11.2401 11.1522 10.1415 12 8.3343 12ZM3.43916 10.5222C3.93852 11.9628 1.4147 12.6272 1.14477 11.166C0.896435 9.83433 0.447005 7.67004 0.447005 7.67004L2.31356 7.15309C2.31356 7.15309 2.98838 9.2264 3.43916 10.5222ZM2.14485 10.3237C1.9802 9.89912 1.83443 9.56276 1.605 9.5986C1.26759 9.65099 1.59015 11.4127 2.00044 11.3107C2.31356 11.2349 2.323 10.7855 2.14485 10.3237Z" fill="currentColor"/>
</svg>
