<svg width="16" height="16" viewBox="0 0 16 16" fill="none" xmlns="http://www.w3.org/2000/svg">
<path fill-rule="evenodd" clip-rule="evenodd" d="M9.8343 14C8.11756 14 6.75172 13.2901 5.98782 11.9998C5.22393 10.7095 5.20368 8.9987 5.94734 7.554C6.86374 5.77018 6.79896 4.25656 5.87446 3.40187C5.22123 2.7967 4.43304 2.84081 3.70019 3.33432C2.48551 4.14903 2.26957 5.92596 3.11984 8.47072L1.99289 8.78365C0.894287 5.49723 1.7891 3.36741 3.13874 2.45896C3.64611 2.11857 4.24988 1.96013 4.85506 2.00854C5.46023 2.05695 6.03249 2.30948 6.48179 2.72639C6.93797 3.14822 8.29706 4.76937 6.66804 7.93861C6.05666 9.12828 6.0634 10.5206 6.68559 11.5724C7.30777 12.6242 8.41583 13.1729 9.83835 13.1729C11.0287 13.1729 12.0288 12.7331 12.732 11.9005C13.3535 11.1441 13.6929 10.1875 13.6902 9.19996C13.6902 7.79938 12.9614 6.38639 11.3337 6.38639C10.6873 6.38639 9.87479 7.14871 9.69933 7.93723C9.94198 8.08784 10.2286 8.14687 10.5095 8.10406C10.7903 8.06125 11.0476 7.9193 11.2366 7.70288L12.0153 8.97113C11.4039 9.27992 10.3849 9.05384 9.76142 8.67612C10.42 9.47567 11.435 10.1484 11.8938 9.94437L11.5294 11.2678C11.0584 11.276 10.4497 10.6336 9.98816 9.96229C10.0903 10.5681 10.1355 11.1825 10.1231 11.7971L8.8801 11.8509C9.15941 10.9139 9.23631 9.92622 9.10549 8.95596C9.01911 9.70037 8.7114 10.4572 7.98529 10.8404L7.41035 9.67418C8.3119 9.59009 8.84771 8.73126 8.99887 8.05716C8.98637 7.73528 9.03741 7.41412 9.14893 7.1128C9.26046 6.81148 9.4302 6.53616 9.64805 6.30323C9.8659 6.0703 10.1274 5.88452 10.417 5.75694C10.7066 5.62937 11.0184 5.56261 11.3337 5.56065C13.1976 5.56065 14.5 7.05773 14.5 9.20134C14.5002 10.3871 14.0895 11.5348 13.3407 12.4409C12.7401 13.1522 11.6415 14 9.8343 14ZM4.93916 12.5222C5.43852 13.9628 2.9147 14.6272 2.64477 13.166C2.39644 11.8343 1.94701 9.67004 1.94701 9.67004L3.81356 9.15309C3.81356 9.15309 4.48838 11.2264 4.93916 12.5222ZM3.64485 12.3237C3.4802 11.8991 3.33443 11.5628 3.105 11.5986C2.76759 11.651 3.09015 13.4127 3.50044 13.3107C3.81356 13.2349 3.823 12.7855 3.64485 12.3237Z" fill="currentColor"/>
</svg>
