<svg width="65" height="65" viewBox="0 0 65 65" fill="none" xmlns="http://www.w3.org/2000/svg">
<path d="M20.5688 51.0004C20.5817 50.9906 20.5945 50.9808 20.6078 50.9712C20.6119 50.9697 20.6149 50.9688 20.6163 50.9688C20.6234 50.9688 20.5928 50.9902 20.5031 51.0481C20.5263 51.033 20.5476 51.0167 20.5688 51.0004Z" fill="currentColor"/>
<path fill-rule="evenodd" clip-rule="evenodd" d="M0.206543 32.1401C0.206543 49.8041 14.5425 64.1401 32.2065 64.1401C40.0785 64.1401 47.2466 61.3241 52.8146 56.6521C53.2626 56.3321 53.6465 56.0121 53.9665 55.5641C60.2386 49.7401 64.2066 41.4201 64.2066 32.1401C64.2066 14.4761 49.8706 0.140137 32.2065 0.140137C14.5425 0.140137 0.206543 14.4761 0.206543 32.1401ZM30.0945 9.93214C28.3025 9.54814 27.8545 7.43614 28.0465 5.90014C28.4945 2.38014 31.2465 1.35614 34.2545 1.16414C36.8785 1.35614 39.3745 1.80414 41.7425 2.57214C41.6785 2.57214 41.6146 2.58814 41.5506 2.60414C41.4865 2.62014 41.4226 2.63614 41.3585 2.63614C39.8865 3.08414 38.6705 3.98014 38.1585 5.45214C38.0746 5.75981 38.0396 6.05525 38.0054 6.34382C37.9614 6.71554 37.9187 7.07583 37.7745 7.43613C37.6534 7.76926 37.475 8.07372 37.2934 8.38343C37.0913 8.72824 36.8854 9.07955 36.7505 9.48414C36.4945 10.5081 36.4305 11.6601 36.8785 12.6201C36.1745 12.6841 35.4705 12.8121 34.9585 13.0041C33.6785 13.3881 32.3985 13.9001 31.3745 14.7321C31.3486 14.7516 31.3223 14.7713 31.2957 14.7912C31.2768 14.8053 31.2578 14.8195 31.2386 14.8338C30.4835 15.3974 29.5001 16.1315 29.1985 17.0361C28.6225 16.9721 28.1105 16.9721 27.5345 16.9721C28.4305 15.2441 27.8545 12.9401 26.5105 11.5961C25.6785 10.7641 24.6545 10.0601 23.3745 9.99614C22.6705 9.93214 21.9025 9.99614 21.2625 10.3161C21.0065 10.3801 20.8145 10.5081 20.6225 10.6361C20.5585 10.5081 20.4305 10.3161 20.3025 10.1881C20.6225 8.58814 22.1585 7.30814 23.6945 6.98814C23.7417 6.98139 23.7882 6.97536 23.8339 6.96944C24.2213 6.91916 24.5468 6.87693 24.7185 6.47614C24.861 6.28618 24.8978 6.02574 24.9334 5.77328C24.9458 5.68551 24.958 5.59868 24.9745 5.51614C25.0625 5.28146 25.1371 5.01988 25.2106 4.76223C25.2973 4.4578 25.3826 4.15877 25.4865 3.91614C25.9985 2.82814 26.9585 1.86814 28.0465 1.35614C28.0982 1.34968 28.1492 1.34323 28.1996 1.33684L28.1999 1.3368C28.6497 1.27986 29.0583 1.22813 29.5185 1.22813C28.8145 1.61213 28.2385 2.12414 27.7265 2.89214C27.5345 3.14814 27.3425 3.46814 27.2145 3.78814C25.6145 5.83614 24.6545 9.03614 26.7665 11.0841C28.1745 12.4281 30.9265 12.4281 32.4625 11.1481C33.4226 10.7001 34.0625 9.80414 34.0625 8.52414C34.0625 6.34814 30.7985 5.26014 30.2865 7.62814C30.2225 7.94814 30.6065 8.14014 30.7985 7.88414C31.1825 7.30814 32.5266 7.11613 32.7825 7.94813C32.9105 8.20413 32.7825 8.58814 32.6545 8.84414C32.3345 9.61214 31.4385 9.99614 30.6065 9.99614C30.4145 9.99614 30.2225 9.99614 30.0945 9.93214ZM25.8065 1.74014C25.4865 1.99614 25.1665 2.25214 24.8465 2.57214C24.6652 2.75351 24.5159 2.96701 24.376 3.16711C24.3185 3.24943 24.2625 3.32952 24.2065 3.40414C24.1361 3.5215 24.0829 3.63886 24.0312 3.75306C23.9418 3.95025 23.8567 4.13803 23.6945 4.30014L23.5665 4.42814C23.284 4.56943 22.9764 4.7135 22.6555 4.86381C20.7963 5.73475 18.4898 6.81524 17.9985 8.78014C16.7825 8.39614 15.3745 8.33214 14.1585 8.46014C13.3265 8.52414 12.4305 8.65214 11.5345 8.97214C15.5025 5.38814 20.4305 2.89214 25.8065 1.74014ZM37.6465 9.80414C37.866 9.36525 38.2697 9.06456 38.6696 8.76669C39.0862 8.45644 39.4986 8.14925 39.6945 7.69214C39.7763 7.40604 39.7275 7.11995 39.6816 6.85052C39.6556 6.69805 39.6305 6.55091 39.6305 6.41214C39.6945 5.45214 40.3345 4.68414 41.1026 4.23614C42.0625 3.66014 43.0225 3.53214 44.0466 3.66014C42.4466 3.98014 41.0385 5.06814 40.4626 6.60414C40.3689 6.86169 40.3009 7.11068 40.2336 7.35736C40.1169 7.78498 40.0021 8.20569 39.7585 8.65214C39.5157 9.0569 39.2216 9.33366 38.9088 9.62814C38.7269 9.79927 38.5387 9.97644 38.3505 10.1881C37.7745 10.9561 37.5185 11.7881 37.9025 12.6201H37.6465C37.3905 11.6601 37.1985 10.7001 37.6465 9.80414ZM43.3425 14.2201C43.1703 14.1217 43.0076 14.0139 42.847 13.9074C42.5899 13.737 42.3383 13.5703 42.0625 13.4521C41.6145 13.2601 41.1665 13.1321 40.7185 13.0681C40.0785 12.8121 39.4385 12.6841 38.7345 12.6201C37.9587 11.5705 38.7449 10.8138 39.492 10.0946C39.7926 9.80524 40.0869 9.52196 40.2705 9.22813C40.5523 8.80548 40.5584 8.52067 40.567 8.12084C40.5701 7.97579 40.5735 7.81554 40.5905 7.62814C40.9105 5.26014 42.7666 4.10814 44.9426 3.78814C45.3316 3.96106 45.7207 4.16318 46.09 4.35505C46.2675 4.44723 46.4404 4.53706 46.6065 4.62014C46.5746 4.62014 46.5265 4.63614 46.4785 4.65214C46.4305 4.66814 46.3826 4.68414 46.3506 4.68414H46.2865C44.0466 4.68414 40.8465 6.73214 41.9345 9.29214C42.4465 10.6361 43.7266 11.3401 45.0065 11.6601C46.0306 11.9801 47.8225 12.0441 48.5266 11.0841C49.1665 10.6361 49.5505 9.93214 49.2305 8.97214C48.7825 7.75614 46.3506 6.98814 46.0946 8.71614C46.0306 9.29214 46.6705 9.80414 47.1185 9.29214C47.3705 9.10316 47.6845 8.97618 47.9994 9.15532C47.9357 9.12427 47.9578 9.22878 47.989 9.37574C48.0338 9.58706 48.0972 9.88614 47.9506 9.99614C47.3106 10.6361 45.5826 9.74013 45.1985 9.22813C44.5585 8.26813 44.8786 6.92414 45.7106 6.15614C46.2865 5.64414 47.1186 5.38814 47.9506 5.38814C49.6146 6.34814 51.2146 7.50014 52.6866 8.78014C52.7826 9.22814 52.8626 9.70814 52.9426 10.1881C53.0226 10.6681 53.1026 11.1481 53.1986 11.5961C53.5186 12.8761 53.4546 14.1561 53.3265 15.4361C52.1105 14.0921 50.4465 13.2601 48.5905 13.1961C47.3106 13.1961 46.3505 13.5801 45.1985 14.1561C44.7505 14.4121 44.4945 14.5401 44.1745 14.5401C43.9825 14.5401 43.7266 14.4761 43.3425 14.2201ZM42.7666 9.48414C41.7425 7.88414 42.8946 6.47614 44.3666 5.77214C44.2385 5.90014 44.1105 6.02814 44.0466 6.22014C42.8946 7.94814 43.5345 10.1881 45.2626 11.1481C44.3025 11.0201 43.3425 10.5081 42.7666 9.48414ZM26.9585 10.1881C25.9985 8.97214 26.0625 7.37214 26.6385 5.90014C26.3185 7.88414 26.8305 9.93213 28.6865 11.0201C28.7843 11.1179 28.9195 11.1784 29.0349 11.23C29.0705 11.2459 29.1043 11.261 29.1345 11.2761C28.3025 11.2121 27.5345 10.8921 26.9585 10.1881ZM24.2705 5.96413C24.2065 6.09213 24.1425 6.15614 24.0785 6.22014C23.8674 6.43127 23.4821 6.50697 23.0823 6.58553C22.755 6.64985 22.4178 6.71608 22.1585 6.86014C21.0705 7.43614 20.1745 8.52414 19.7905 9.74014C19.4065 9.42014 19.0225 9.22814 18.7665 9.10014C19.5345 6.98814 22.0305 5.96413 24.2065 5.96413H24.2705ZM54.1586 16.5241L53.7746 16.0121C54.0946 14.8601 53.9666 13.1961 53.8386 12.3001C53.7105 11.3401 53.4546 10.1881 53.1346 9.16414C53.1759 9.2468 53.2439 9.30276 53.3214 9.36651C53.3639 9.40148 53.4092 9.4388 53.4546 9.48414C53.9026 10.7641 54.3505 12.3641 54.4146 13.6441C54.4658 14.4121 54.3531 15.1802 54.2405 15.9482C54.2123 16.1402 54.1842 16.3321 54.1586 16.5241ZM14.3505 9.22813C15.5665 9.22813 17.1665 9.35614 18.1905 10.1241C18.7489 10.5429 18.969 11.0293 19.2196 11.5833C19.3138 11.7914 19.4122 12.009 19.5345 12.2361C19.6625 12.4921 20.1105 12.6841 20.4305 12.6201C20.7292 12.4921 20.8857 12.3357 21.0705 12.1508C21.163 12.0584 21.2625 11.9588 21.3905 11.8521C22.5425 10.9561 23.8865 11.0841 25.0385 11.8521C26.6385 12.8761 27.7265 15.4361 26.4465 17.1001C26.3185 17.1001 26.1265 17.1001 25.9985 17.1641C26.3825 16.0121 26.2545 14.5401 25.6785 13.7081C24.8465 12.3641 22.9905 12.1081 21.5825 12.4921C21.3274 12.5602 21.1175 12.6372 20.9288 12.7065C20.4073 12.898 20.0474 13.0301 19.3425 12.7481C18.6666 12.4777 18.657 12.4612 18.5094 12.207C18.4473 12.1001 18.361 11.9514 18.1905 11.7241C17.6785 11.0841 17.0385 10.6361 16.2065 10.3161C14.5425 9.67614 12.1745 9.86814 10.2545 10.4441C11.4705 9.67614 12.8785 9.29213 14.3505 9.22813ZM6.54254 18.5721C6.26043 17.1051 6.57523 15.8371 6.91685 14.4611C6.96272 14.2763 7.00909 14.0895 7.05454 13.9001C7.75854 12.9401 8.52654 12.0441 9.29454 11.1481C11.0225 10.5721 13.1985 10.2521 14.9265 10.5081C15.8225 10.6361 16.7185 10.8921 17.4225 11.5961C17.5729 11.7766 17.6809 11.9853 17.7863 12.189C17.9052 12.4189 18.0209 12.6425 18.1905 12.8121C18.3825 13.1321 18.7025 13.3881 19.0865 13.5161C19.7715 13.7445 20.4565 13.475 21.1415 13.2055C21.6085 13.0218 22.0755 12.8381 22.5425 12.8121C25.2945 12.6841 25.8705 15.1801 25.4225 17.2921C22.6705 17.9961 20.1105 19.6601 18.5745 21.8361C18.2545 22.2841 17.9985 22.7961 17.7425 23.3081C17.7425 23.3319 17.6984 23.4264 17.6396 23.5521C17.5401 23.7648 17.3988 24.067 17.3585 24.2681H16.9745C16.6922 24.3085 16.3845 24.3996 16.0674 24.4936C15.8813 24.5487 15.6919 24.6048 15.5025 24.6521C15.4331 24.6799 15.3607 24.7077 15.2865 24.7361C15.019 24.8387 14.7291 24.9498 14.4785 25.1001C13.7745 23.8201 12.3025 22.9881 10.7025 22.6681C8.97454 20.6201 8.97454 17.3561 11.1505 15.5641C11.9185 14.9881 13.0705 14.3481 14.0945 14.4121C14.9905 14.4761 16.5265 14.8601 16.6545 16.0121C16.7608 17.0743 15.8975 17.2551 15.052 17.4321C14.8786 17.4684 14.7059 17.5046 14.5425 17.5481C15.2465 17.3561 15.3745 16.2041 14.5425 16.0761C13.6465 15.8841 13.0705 16.5881 13.0705 17.4201C13.0705 18.2521 13.5825 18.8281 14.2865 19.0841C14.3152 19.1223 14.3424 19.1591 14.3684 19.1943C14.5167 19.3946 14.6256 19.5417 14.7345 19.5961C15.5665 20.1081 16.6545 20.2361 17.6145 19.9801C19.0225 19.6601 20.1105 18.0601 20.0465 16.6521C19.9825 14.7961 17.8705 13.5161 16.2705 13.1321C14.3505 12.6841 12.5585 13.0681 11.0865 14.1561C10.5105 14.5401 9.93454 15.0521 9.55054 15.5641C7.88654 17.7401 8.01454 20.4281 9.42254 22.5401C8.97456 22.5401 8.52653 22.5401 8.07854 22.6041C7.43854 21.3241 6.79854 19.9801 6.54254 18.5721ZM55.3745 18.8281V18.6361C55.6945 15.8201 55.4385 13.1961 54.5425 10.6361C59.5985 15.8201 62.7986 22.7321 63.1826 30.4121C62.8626 29.5801 62.4785 28.8121 61.8386 28.1081C61.3905 27.6601 60.9426 27.4041 60.3666 27.0841C60.1746 26.8921 60.1106 26.8921 60.0466 26.8921C60.0276 26.9111 60.0143 26.9244 60.0016 26.9238C59.9713 26.9225 59.9447 26.8425 59.8545 26.5721C59.7667 26.3525 59.7994 26.0424 59.8286 25.7661C59.842 25.6398 59.8545 25.5205 59.8545 25.4201C59.5985 23.5641 58.1906 21.3881 56.0786 21.5161C55.9506 20.6201 55.6945 19.6601 55.3745 18.8281ZM30.7985 17.4201L30.0945 17.1641C30.348 16.6571 30.963 16.1502 31.4622 15.7386C31.5931 15.6307 31.7162 15.5292 31.8225 15.4361C32.7825 14.6681 33.9345 14.0921 35.1505 13.7721C35.7265 13.5801 36.4945 13.4521 37.3265 13.4521C37.0385 13.5481 36.7345 13.6441 36.4305 13.7401C36.1265 13.8361 35.8225 13.9321 35.5345 14.0281C33.9345 14.6041 31.5025 15.6281 30.7985 17.4201ZM16.9745 14.3481C16.5265 13.9641 16.0145 13.6441 15.4385 13.5161C16.9745 13.6441 18.3825 14.4121 19.0225 15.9481C20.1105 18.4441 16.9745 20.2361 15.1185 19.2761H15.2465C17.7425 19.2761 18.7025 16.0121 16.9745 14.3481ZM5.71054 18.8281C5.58254 17.7401 5.71054 16.3961 6.09454 15.3081C6.35054 14.9881 6.54254 14.6681 6.73454 14.3481C6.35054 15.7561 5.96654 17.1641 6.09454 18.6361C6.22254 20.0441 6.79854 21.4521 7.43854 22.7321H7.24654C7.06867 22.2652 6.84446 21.8369 6.6222 21.4124C6.20469 20.6149 5.79408 19.8305 5.71054 18.8281ZM31.5665 17.7401C32.0145 16.3321 34.3186 15.5001 35.4065 15.1161C36.5585 14.7321 37.7105 14.6041 38.9266 14.6041C39.8866 14.6681 40.8465 14.7961 41.6785 15.2441C41.9064 15.377 42.1286 15.5438 42.3535 15.7125C42.8868 16.1126 43.4354 16.5241 44.1105 16.5241C44.7905 16.5241 45.4105 16.1239 46.0264 15.7262C46.5118 15.4128 46.9948 15.101 47.5025 14.9881C49.2305 14.5401 50.9586 15.2441 52.1105 16.5881C52.2726 16.7502 52.4091 16.938 52.5524 17.1352C52.6354 17.2494 52.7207 17.3668 52.8146 17.4841C51.0225 16.2681 48.3986 16.0761 46.2865 16.7161C46.0239 16.7878 45.7723 16.8661 45.5273 16.9424C44.4592 17.275 43.5159 17.5687 42.3186 17.1001C41.1665 16.6521 40.0145 16.2041 38.6705 16.0761C36.4945 15.9481 33.8705 16.5241 32.3985 18.3161C32.1425 18.1241 31.8865 17.9321 31.5665 17.7401ZM33.0385 18.7641C34.7665 16.8441 38.0945 16.5881 40.4626 17.2921C40.9848 17.4662 41.4053 17.6403 41.7744 17.7931C42.8979 18.2582 43.5448 18.526 45.1346 17.9961C47.8226 17.1001 51.6625 16.5241 53.5825 18.9561C54.1585 20.2361 54.5426 21.5801 54.4785 22.8601C54.4146 24.3321 53.9665 25.6761 53.2625 26.8921C53.0604 27.2066 52.8188 27.5054 52.5765 27.805C52.1285 28.3588 51.6782 28.9156 51.4706 29.5801C51.3426 30.0921 51.3426 30.6681 51.3426 31.2441C51.282 31.45 51.2237 31.656 51.1656 31.8615C50.9165 32.7417 50.6696 33.614 50.2546 34.4441C49.3586 36.2361 47.8226 37.6441 46.0946 38.5401C44.4305 39.4361 42.5746 39.9481 40.6546 39.7561C39.3106 39.6281 36.4305 38.8601 35.4705 37.5801C36.1745 36.7481 36.6865 35.7241 37.0705 34.5081C37.7105 32.3321 37.5186 29.9001 36.6225 27.8521C36.4305 27.3401 36.1105 26.8281 35.7905 26.4441C35.7905 26.3801 35.7905 26.3801 35.8545 26.3161C36.2385 24.9721 35.9825 23.3721 35.2785 21.9001C36.1745 19.4681 40.5265 19.2761 42.5745 19.8521C44.5585 20.4281 45.8385 22.0921 46.7345 23.8841C47.9505 26.1881 47.8865 29.3241 45.3905 30.7961C44.0465 31.6281 42.1265 31.4361 41.2305 29.9641C40.7825 29.1961 40.5905 28.0441 41.6785 27.5321C41.8705 27.4681 42.1906 27.4041 42.3825 27.4041C42.3186 27.4681 42.2545 27.5961 42.2545 27.7881C42.1905 27.8521 42.1906 27.9801 42.1906 28.0441C42.0625 28.5561 42.4466 29.1961 43.0225 29.1961C44.8146 29.0041 44.6865 26.9561 43.5345 26.0601C42.3186 25.1641 40.9745 25.9961 40.3345 27.1481C37.1985 30.3481 40.8465 35.7241 45.0065 34.7641C49.7425 33.6761 50.1265 26.7641 47.6306 23.4361C47.5985 23.4041 47.5666 23.3881 47.5345 23.3721C47.5025 23.3561 47.4705 23.3401 47.4385 23.3081C46.8625 22.1561 46.0306 21.1321 45.1346 20.4281C43.5986 19.2121 41.7425 18.8281 39.8226 19.0201C38.3506 19.1481 35.9185 19.7881 34.8945 21.1961C34.3825 20.3001 33.7425 19.4681 33.0385 18.7641ZM4.55854 17.9961C4.43054 19.8521 4.87854 21.7721 5.90254 23.2441C5.83854 23.3081 5.77454 23.3561 5.71054 23.4041C5.64654 23.4521 5.58254 23.5001 5.51854 23.5641C4.94254 23.9481 4.49454 24.5241 4.11054 25.0361C4.06398 25.0827 4.11904 25.0954 4.20179 25.0742C4.19137 25.0804 4.18041 25.0872 4.16877 25.0944C4.135 25.1152 4.09541 25.1397 4.04654 25.1641C3.98254 25.1641 3.90254 25.1801 3.82254 25.1961C3.74256 25.2121 3.66253 25.2281 3.59854 25.2281C2.89454 25.4841 2.25454 25.8041 1.67854 26.3161C2.25454 23.3721 3.21454 20.5561 4.55854 17.9961ZM13.3905 34.6361C12.2385 32.7801 12.4305 29.8361 13.3905 27.9161C14.1806 26.2797 15.3686 26.0363 16.8231 25.7385C17.0182 25.6985 17.2182 25.6575 17.4225 25.6121C18.3281 25.4692 18.4883 25.0067 18.7225 24.3306C18.8028 24.0988 18.8918 23.8419 19.0225 23.5641C20.6865 19.9801 25.5505 17.5481 29.4545 18.3161C30.6065 18.5721 31.8865 19.4041 32.8465 20.5561C28.6865 17.7401 22.3505 18.8281 20.0465 23.8201C19.9394 24.0076 19.8436 24.307 19.7448 24.6153C19.6075 25.044 19.4647 25.49 19.2785 25.6761C19.0348 25.8851 18.6394 25.9614 18.2368 26.0391C17.8995 26.1042 17.5571 26.1703 17.2945 26.3161C16.2065 26.7641 15.3745 27.7881 14.7985 28.8761C13.3265 31.6281 13.9025 34.5081 15.9505 36.6201C15.8865 36.6521 15.8385 36.6841 15.7905 36.7161C15.7425 36.7481 15.6945 36.7801 15.6305 36.8121C14.8625 36.4921 13.7745 35.2121 13.3905 34.6361ZM16.2705 27.9161C16.9105 27.3401 17.5505 27.0841 18.3825 26.8281C18.4451 26.8125 18.5268 26.7969 18.6183 26.7793C18.901 26.7252 19.2772 26.6532 19.4705 26.5081C19.8696 26.1661 19.964 25.7224 20.0703 25.2224C20.0834 25.1611 20.0966 25.099 20.1105 25.0361C20.8145 22.3481 23.1185 20.2361 25.8065 19.6601C28.9425 19.0201 32.0145 19.9161 34.0625 22.2841C34.6385 23.3081 34.8946 24.3961 34.8305 25.4201C31.3105 21.8361 25.0385 21.4521 22.2865 26.1881C20.8785 28.6841 21.1985 31.3721 22.7345 33.7401C23.8865 35.5321 25.8705 35.9161 27.7905 35.5961C28.8785 35.6601 30.0305 35.4681 30.7985 34.8281C32.0785 33.8041 32.9105 31.6281 31.3105 30.5401C30.1585 29.7721 28.4945 30.6041 28.7505 32.0761C28.9425 32.9721 30.2865 32.5881 30.1585 31.6921C30.7345 32.0761 30.8625 32.5881 30.6705 33.1001C30.4785 33.6121 30.1585 33.9961 29.7105 34.2521C28.3665 35.0201 26.5105 34.1881 25.6145 33.2281C24.5265 31.9481 24.0785 30.0281 24.6545 28.3641C25.9985 24.5881 30.7985 24.2041 33.8065 26.1241C37.0065 28.0441 36.8785 33.1001 35.3425 35.9801C33.8065 38.8601 30.9905 40.0761 28.0465 40.9081C26.4465 37.8361 23.1825 35.6601 19.7265 35.4681C18.5745 35.4041 17.4865 35.7241 16.5905 36.2361C13.9665 34.1241 13.7105 30.3481 16.2705 27.9161ZM56.1426 22.5401C57.1666 22.5401 58.1905 23.4361 58.6385 24.2681C58.8305 24.5881 58.9585 24.9081 59.0226 25.2281C58.8946 25.1001 58.8306 24.9081 58.7666 24.7161C58.7014 24.6076 58.6363 24.4842 58.5686 24.3562C58.4369 24.1069 58.2957 23.8395 58.1265 23.6281C57.6785 23.1161 56.8466 22.8601 56.1426 22.9241V22.5401ZM23.1825 33.0361C21.9025 30.7961 21.7105 28.5561 23.1185 26.3161C24.9745 23.3721 28.3665 22.8601 31.3105 23.9481C27.7905 23.3081 23.8865 25.6761 23.3745 29.3881C23.1825 31.4361 24.0145 33.6121 25.7425 34.8281C25.7425 34.8281 25.7425 34.8722 25.7791 34.8872C24.7035 34.6904 23.8172 34.115 23.1825 33.0361ZM56.0786 23.5001C57.5505 23.1801 58.5105 24.7161 58.9585 25.9321C58.9585 25.9961 59.0226 25.9961 59.0226 25.9961C59.0226 26.4441 58.9585 26.9561 58.8946 27.4041C58.8946 27.7241 59.0866 27.9161 59.3426 27.9801C60.3666 28.3641 61.1986 28.6841 61.9025 29.5161C62.6066 31.1161 62.4146 33.6761 61.6466 35.2121C60.8146 36.9401 58.9585 37.6441 57.1026 37.7081C55.9506 36.4921 54.3505 35.6601 52.6866 35.8521C52.8785 35.3401 53.0065 34.8281 53.0705 34.2521C53.1666 33.652 53.1545 33.0159 53.1425 32.3809C53.1225 31.3229 53.1026 30.268 53.5825 29.3881C53.9665 28.7481 54.2866 28.1721 54.6066 27.5321C55.4386 27.3401 56.3345 27.5321 56.9745 28.1081C57.4226 28.5561 57.6146 29.3881 57.6146 29.9641C57.6146 30.6041 57.4865 31.3721 56.9745 31.7561C56.7186 31.9481 56.3986 32.0121 56.0786 31.9481L55.7585 31.8841C55.5665 31.7561 55.5026 31.6281 55.5666 31.3721C56.4626 31.5001 56.8465 30.2201 55.9506 30.0281C55.0546 29.7721 54.4146 30.4761 54.3505 31.3081C54.0946 32.2681 54.3506 33.2281 55.1826 33.8041C56.0145 34.3801 57.1665 34.3161 57.9346 33.7401C58.8305 32.9721 59.2785 32.0761 59.2146 30.9241C59.2146 30.4121 59.0226 29.6441 58.6385 29.1961C58.5105 28.6201 58.2546 28.0441 57.8706 27.5961C57.1666 26.8281 56.0786 26.5081 55.0546 26.7001C55.5665 25.7401 55.9506 24.7161 56.0786 23.5001ZM3.79054 26.5081H4.55854C4.94254 26.5081 5.13454 26.3161 5.26254 25.9961C6.41454 22.9881 12.1105 23.0521 13.5825 25.8041L13.1985 26.1881C12.2385 23.6921 8.71854 24.0121 7.05454 25.6121C6.86419 25.8025 6.69695 26.0737 6.52827 26.3473C6.29995 26.7176 6.069 27.0921 5.77454 27.2761C5.56941 27.43 5.24099 27.4195 4.92101 27.4092C4.84166 27.4067 4.76284 27.4041 4.68654 27.4041C4.43055 27.3401 4.17456 27.3401 3.98256 27.3401C2.76656 27.4681 1.99854 28.1081 1.29454 28.9401L1.48654 27.4041C1.99854 27.0201 2.38254 26.8281 3.08654 26.6361C3.15054 26.6361 3.91854 26.5721 3.79054 26.5081ZM5.26254 28.3001C5.83854 28.2361 5.83854 28.2361 6.22254 27.7881C6.44999 27.4987 6.61732 27.1825 6.78279 26.8697C7.1295 26.2146 7.46809 25.5747 8.33454 25.2281C9.93454 24.5241 11.7265 25.1641 12.7505 26.5721C12.7505 26.6361 12.8145 26.6361 12.8145 26.6361C12.4945 27.1481 12.2385 27.6601 12.1105 28.2361C12.0785 28.3321 12.0465 28.4441 12.0145 28.5561C11.9825 28.6681 11.9505 28.7801 11.9185 28.8761C9.99854 27.0841 6.15854 28.1721 4.55854 29.9001C2.89454 31.6921 1.80654 34.9561 3.72654 36.8761C5.32654 38.5401 8.97454 39.3081 9.93454 36.4921C10.5745 34.7001 9.10254 32.7161 7.31054 34.1881C7.05454 34.3801 7.11854 34.7001 7.24654 34.9561C7.24654 35.0201 7.24654 35.0841 7.31054 35.1481C7.50254 35.5961 8.27054 35.4681 8.39854 34.9561C8.39854 34.8281 8.71854 35.5961 8.71854 35.7241C8.65454 37.4521 6.60654 37.1321 5.71054 36.6841C5.39054 36.5561 5.13454 36.4281 4.94254 36.2361C4.04654 34.8921 4.75054 32.7161 5.90254 31.6921C7.24654 30.5401 9.87054 29.3881 11.3425 30.6681C11.3706 30.6822 11.3956 30.6962 11.4182 30.7089C11.4986 30.754 11.5486 30.7821 11.5985 30.7321C11.5345 32.2041 11.7265 33.6761 12.3665 34.8921C12.8785 35.7241 13.8385 37.0041 14.8625 37.6441C14.2865 38.2841 13.9025 39.1161 13.7745 40.0121C12.8145 40.0121 11.6625 40.0761 10.5745 40.5241C9.67854 40.8441 8.91054 41.4841 8.20654 42.2521C7.28816 42.0481 6.96634 41.3559 6.6454 40.6656C6.36247 40.0571 6.08022 39.45 5.39054 39.1801C5.03172 39.0232 4.7122 38.9448 4.40993 38.8706C3.84959 38.7331 3.34858 38.6102 2.76654 38.0281C2.31854 37.5801 1.74254 36.8761 1.42254 36.1721C1.23054 34.8281 1.16654 33.4841 1.16654 32.1401C1.16654 31.4361 1.16654 30.7321 1.23054 30.0281C1.74254 29.2601 2.25454 28.6201 3.15054 28.3001C3.64596 28.1144 4.02154 28.1683 4.45121 28.2299L4.49454 28.2361C4.58365 28.2361 4.67276 28.2499 4.76826 28.2647C4.87854 28.2818 4.99735 28.3001 5.13454 28.3001H5.26254ZM46.9906 30.4121C47.7586 29.6441 48.1425 28.6841 48.2705 27.6601C48.3986 29.4521 48.1425 31.6921 46.8625 32.9081C45.3906 34.3801 42.6385 34.5721 41.1665 32.9721C40.3985 32.0761 39.9505 30.6681 40.0785 29.3881C40.3985 30.4761 41.2305 31.3721 42.3186 31.8201C42.7666 31.9481 43.1505 32.0121 43.5985 32.0121C44.8785 32.0121 46.0946 31.3721 46.9906 30.4121ZM4.30254 31.7561C4.62254 30.9881 5.07054 30.2841 5.71054 29.7721C7.18254 28.6841 10.1265 27.9801 11.5985 29.5161C11.6625 29.5801 11.7265 29.5801 11.7905 29.5801C11.7585 29.6761 11.7425 29.7881 11.7265 29.9001C11.7105 30.0121 11.6945 30.1241 11.6625 30.2201C9.93454 28.6201 6.60654 30.0921 5.19854 31.5641C4.43054 32.3961 3.98254 33.5481 3.91854 34.6361C3.66254 33.7401 3.85454 32.7161 4.30254 31.7561ZM63.0546 33.0361C63.1185 32.3321 63.0546 31.6921 62.9266 30.9881C62.9906 31.1161 63.1186 31.2441 63.1826 31.3081C63.1826 31.3721 63.2466 31.3721 63.2466 31.3721V32.1401C63.2466 32.9104 63.218 33.6748 63.1619 34.4321C63.1909 33.9603 63.1575 33.4891 63.0546 33.0361ZM58.6385 39.3721C61.1064 39.3721 62.9281 37.0027 63.1493 34.5966C62.7299 39.8811 60.9732 44.8194 58.2546 49.0361C58.2396 48.8864 58.2211 48.7332 58.2024 48.5781C58.1412 48.0702 58.0775 47.5424 58.1265 47.0521C58.1994 46.5786 58.3967 46.1258 58.6003 45.6583C58.7545 45.3044 58.9123 44.9422 59.0226 44.5561C59.2146 43.7241 59.2786 42.8921 59.1506 41.9961C59.0866 41.1001 58.7665 40.2041 58.2546 39.3081C58.3186 39.3081 58.3826 39.3241 58.4466 39.3401C58.5106 39.3561 58.5746 39.3721 58.6385 39.3721ZM58.3744 31.6881C58.4148 31.5859 58.4571 31.479 58.5106 31.3721L58.3186 32.1401C57.9986 32.7801 57.2946 33.4201 56.5265 33.4201C55.9506 33.4201 55.5665 33.2281 55.3106 32.9081C55.6306 33.0361 55.9506 33.1001 56.2705 33.1001C56.9745 33.1001 57.7426 32.7161 58.1906 32.0761C58.2651 31.9643 58.318 31.8307 58.3744 31.6881ZM50.5746 35.66C50.8306 35.212 51.0866 34.7641 51.3426 34.2521C51.3426 34.3161 51.3265 34.3641 51.3105 34.4121C51.2945 34.4601 51.2785 34.5081 51.2785 34.5721C50.8945 36.0441 50.1906 37.3881 49.1665 38.4121C47.0545 40.4601 44.1745 41.4201 41.2305 41.4201C38.6065 41.4201 36.4305 40.3321 34.6385 38.5401L34.9585 38.2201C35.9509 39.3365 37.8449 39.8519 39.2425 40.2322L39.3745 40.2681C40.0785 40.4601 40.7825 40.5241 41.4865 40.5241C43.0225 40.5241 44.4945 40.1401 45.9025 39.5641C47.6946 38.7321 49.5506 37.388 50.5746 35.66ZM52.3666 36.8761C54.4785 36.5561 56.6545 38.6681 57.3586 40.3321C57.9346 41.7401 57.9985 43.3401 57.4865 44.6841C57.3955 44.9119 57.3008 45.1144 57.2119 45.3045C56.926 45.9158 56.7001 46.399 56.8465 47.1801C56.9105 47.4681 57.0225 47.7561 57.1345 48.0441C57.2465 48.3321 57.3586 48.6202 57.4226 48.9081C57.5506 49.4201 57.4866 49.8681 57.4226 50.2521C56.6545 51.2761 55.8865 52.2361 55.0546 53.1321C55.3745 51.5961 55.2466 49.8041 54.7985 48.4601C54.3505 46.9881 53.5825 45.5161 52.0466 44.9401C50.7665 44.4281 49.4865 44.6201 48.5266 45.5161C48.0785 45.7721 47.6946 46.2201 47.5666 46.8601C47.1825 48.4601 49.4226 50.4441 50.4466 48.7161C50.7666 48.2681 50.3825 47.6921 49.8706 47.6921C48.1425 47.5641 49.9345 46.4761 50.7025 46.9241C51.7906 47.5641 51.6625 49.4841 51.2785 50.5721C50.2545 53.4521 45.6466 53.8361 43.9186 51.4681C43.8546 51.4681 43.7905 51.4041 43.7905 51.3401C44.2385 50.4441 44.5585 49.4201 44.6866 48.6521C44.8785 46.7321 44.5585 44.4281 43.2785 42.8921C44.3666 42.7641 45.4546 42.5081 46.4146 42.1881C48.7826 41.3561 50.7666 39.6281 51.9826 37.4521C52.0145 37.3562 52.0625 37.2602 52.1105 37.1642C52.1585 37.0682 52.2066 36.9721 52.2386 36.8761H52.3666ZM15.1825 40.6521C15.3745 37.9001 17.9345 36.4921 20.4945 36.9401C23.3105 37.4521 25.8705 39.5001 27.1505 42.1241C26.9586 42.2521 26.7666 42.4441 26.5747 42.636C25.3587 40.524 23.0545 38.9241 20.6865 38.5401C19.4705 38.3481 18.3185 38.6041 17.2945 39.3721C16.7825 39.7561 16.4625 40.2041 16.1425 40.7161C15.3745 41.8041 14.7985 42.0601 13.5825 42.1241C11.1505 42.3161 9.23054 43.4681 8.01454 45.7081C7.56654 46.5401 7.24654 47.4361 7.11854 48.3321C7.18254 47.3081 7.43854 46.2841 7.69454 45.3881C8.20654 43.8521 9.16654 42.5081 10.5745 41.7401C11.2145 41.3561 12.0465 41.2281 12.8145 41.2281C12.9479 41.2281 13.259 41.2837 13.5442 41.3346C13.9203 41.4018 14.2514 41.4609 14.0699 41.3739C14.1848 41.4201 14.2997 41.4201 14.4145 41.4201C14.7985 41.4201 15.1185 41.1641 15.1825 40.6521ZM57.6146 38.2841C59.0226 38.2201 60.4306 37.8361 61.4546 36.9401C60.6226 37.9001 59.2146 38.7321 57.8706 38.4121H57.6786C57.6786 38.3801 57.6625 38.3641 57.6465 38.3481C57.6306 38.3321 57.6146 38.3161 57.6146 38.2841ZM5.71054 42.9561C5.47641 42.6752 5.34506 42.3257 5.21622 41.9829C5.16897 41.8572 5.12206 41.7323 5.07054 41.6121C5.04346 41.576 5.01893 41.5425 4.99586 41.5109C4.85548 41.3189 4.76932 41.201 4.49454 41.0361C4.30256 40.9721 4.04658 40.9721 3.7906 40.9721C3.1506 40.7801 2.63854 40.5881 2.19054 40.2041C2.12656 39.8842 2.06258 39.5803 1.9986 39.2764L1.99849 39.2759C1.93451 38.972 1.87052 38.668 1.80654 38.3481C2.51054 39.1801 3.40654 39.8201 4.43054 40.0761C5.05278 40.2628 5.52377 40.8578 5.99792 41.4568C6.49914 42.09 7.00389 42.7277 7.69454 42.8921C7.50254 43.2121 7.31054 43.5321 7.18254 43.7881V43.8521C7.07325 43.7975 6.96103 43.7458 6.84839 43.6938C6.43337 43.5025 6.01257 43.3085 5.71054 42.9561ZM14.9905 42.8921C15.5665 42.8281 15.7585 42.7641 16.0785 42.3161C16.3345 42.0281 16.4785 41.7241 16.6225 41.4201C16.7665 41.1161 16.9105 40.8121 17.1665 40.5241C17.8065 39.7561 18.7025 39.2441 19.7265 39.2441C22.2225 39.2441 24.9105 41.1001 26.1265 43.2121C24.9745 44.6841 24.3345 46.6041 24.5265 48.4601C24.4625 49.3561 24.2705 50.2521 24.0785 51.1481C24.0663 51.2186 24.054 51.2896 24.0417 51.3611C23.7963 52.7841 23.5175 54.4002 22.5425 55.4361C20.7505 57.2921 18.3185 56.6521 16.5265 55.1161C14.4785 53.3241 13.7105 49.2281 16.0785 47.3081C17.2305 46.4761 19.2145 46.0281 19.9825 47.6921C20.1105 48.1401 20.3025 48.9721 20.1745 49.4201H19.9825L19.8545 49.5481V49.4841C19.8565 49.4732 19.8582 49.4624 19.8598 49.4517C20.0134 48.3873 18.38 47.959 18.1265 49.0361C17.9345 49.8681 18.1265 50.5721 18.8945 50.9561C19.2145 51.0841 19.6625 51.2121 20.0465 51.2121C20.1745 51.2121 20.5585 51.0201 20.6225 50.9561C21.3265 50.4441 21.6465 49.6121 21.5185 48.7801C21.9025 46.6681 20.8145 44.6841 18.7665 44.0441C16.3345 43.4041 14.0945 44.8761 12.8145 46.8601C11.6625 48.7161 11.6625 51.0841 12.4945 53.0681C13.2625 54.8601 15.0545 56.9721 17.1025 57.1641C18.1265 57.7401 19.3425 58.0601 20.4305 57.8681C20.9425 57.8041 21.4545 57.6121 21.8385 57.4201C22.4145 59.2121 23.4385 61.0041 24.9105 62.2201L25.0385 62.3481C18.1265 60.7481 12.1105 56.7801 7.82254 51.3401C7.31054 49.4201 7.24654 47.5641 8.39854 45.6441C9.03854 44.6201 10.1905 43.4681 11.3425 43.0841C12.1105 42.7641 12.8145 42.8281 13.5185 42.8921C13.6785 42.8921 13.8225 42.9081 13.9665 42.9241C14.1105 42.9401 14.2545 42.9561 14.4145 42.9561C14.6065 42.9561 14.7985 42.9561 14.9905 42.8921ZM27.7265 51.4681C24.7185 48.8441 26.1265 43.5961 29.2625 41.6121C30.9265 41.0361 32.5265 40.2681 33.8065 39.2441C35.3425 40.9721 36.8785 42.1881 39.2466 42.7641C39.5666 42.8281 39.8866 42.8921 40.2066 42.8921C42.1906 45.3881 41.8705 49.1001 39.6945 51.2761C39.4945 51.4762 39.2882 51.6325 39.0932 51.7802C38.6645 52.105 38.2905 52.3882 38.1585 53.0041C38.03 53.4927 37.9634 53.9915 37.8966 54.4924C37.797 55.2383 37.6968 55.9887 37.3905 56.7161C36.3025 59.2761 33.5505 60.4281 30.9265 60.2361C28.1105 60.0441 25.3585 57.5481 24.2705 55.0521C24.2705 54.9584 24.2362 54.9333 24.1928 54.9015C24.1768 54.8898 24.1597 54.8773 24.1425 54.8601C24.2065 54.7321 24.2705 54.6041 24.3345 54.4121C24.7825 53.3241 25.0385 51.9801 25.1665 50.6361C25.2643 50.7339 25.3248 50.8691 25.3764 50.9845C25.3923 51.0201 25.4074 51.0539 25.4225 51.0841C26.0625 52.3641 27.5345 53.5161 28.5585 54.0281C30.6705 55.1161 33.7425 55.2441 35.7905 53.9001C37.7745 52.6841 38.6065 49.6761 37.9025 47.5001C37.4545 46.0281 35.8545 44.4281 34.2545 44.4921C33.8065 44.3641 33.3585 44.3001 32.8465 44.4281C31.5665 44.7481 30.9905 46.4761 32.0785 47.4361C32.6545 47.9481 33.6785 47.2441 33.1665 46.5401C32.4625 45.5161 34.2545 45.9641 34.6385 46.3481C35.0865 46.7961 35.2785 47.5641 35.2785 48.2041C35.2785 49.5481 34.2545 50.8921 33.1025 51.5321C32.2065 52.0441 31.2465 52.3641 30.2225 52.3641C29.3265 52.3641 28.4945 52.1081 27.7265 51.4681ZM2.31854 40.6521C2.57452 40.8441 2.83051 40.9721 3.08649 41.1001C3.21449 41.1513 3.34255 41.1821 3.47055 41.2128C3.66255 41.2589 3.85455 41.3049 4.04654 41.4201C4.51285 41.6745 4.58605 41.9288 4.67532 42.239C4.72082 42.3971 4.7705 42.5697 4.87854 42.7641C5.32654 43.5321 6.03054 44.2361 6.86254 44.6201C6.28654 46.0281 6.09454 47.6921 6.35054 49.2921C4.55854 46.6681 3.21454 43.7241 2.31854 40.6521ZM42.8625 43.6921C43.0065 43.9321 43.1505 44.1721 43.2785 44.4281C43.6625 45.3241 43.7905 46.4761 43.7905 47.4361C43.8545 49.1641 42.7665 52.8121 40.5265 52.6841C40.2065 52.6841 39.8866 52.9401 39.8226 53.2601C39.741 53.6269 39.8672 53.9159 40.0026 54.2261C40.0798 54.4031 40.1601 54.5869 40.2066 54.7961C40.5906 56.1401 40.3345 57.6121 40.0145 58.8921C39.6305 60.4921 38.6705 62.0921 37.1986 62.7961C35.5345 63.0521 33.8705 63.1801 32.2065 63.1801C31.3032 63.1801 30.4564 63.1235 29.5597 63.0635L29.3905 63.0521C29.2227 63.0242 29.0426 62.984 28.8557 62.9422C28.6149 62.8885 28.3627 62.8322 28.1105 62.7961C27.0865 62.4761 26.2545 61.9001 25.4865 61.1321C24.3985 59.9161 23.4385 58.1881 22.9905 56.5881C23.2465 56.3321 23.4385 56.0761 23.6305 55.7561C24.8465 58.3161 27.5985 60.7481 30.4145 61.1961C33.2305 61.6441 36.5585 60.6841 37.9665 57.9961C38.6065 56.7801 38.6705 55.1801 38.5425 53.8361C38.4397 52.8593 38.9151 52.502 39.5374 52.0342C39.6897 51.9197 39.851 51.7986 40.0145 51.6601C40.6545 51.0841 41.2305 50.5081 41.6145 49.7401C42.5745 47.8841 42.5105 44.8761 41.2305 43.0201H41.6145C41.8705 43.0201 42.1906 43.0201 42.4466 42.9561C42.5745 43.2121 42.7186 43.4522 42.8625 43.6921ZM13.4545 53.5801C12.5585 51.9161 12.2385 49.8681 13.0065 48.1401C13.7105 46.4121 15.1825 44.8121 17.1025 44.6841C18.7025 44.4921 20.0465 45.3881 20.6225 46.7321C18.3185 44.1081 14.2225 46.6041 13.4545 49.4841C12.9425 51.5321 13.5185 53.7081 14.8625 55.3081C14.2865 54.8601 13.8385 54.2201 13.4545 53.5801ZM50.1265 53.6441C52.4305 52.5561 53.5826 49.2921 52.5586 46.9241C52.3026 46.2841 51.6626 45.7721 51.0226 45.4521C51.9826 45.6441 53.0065 46.4761 53.4546 47.3081C54.0946 48.4601 54.4146 49.7401 54.4785 51.0841C54.4785 52.1081 54.2866 53.3241 53.8386 54.4121C52.6866 55.5001 51.4706 56.5241 50.1906 57.4841C49.7835 57.5818 49.3972 57.7002 49.0189 57.8161C47.9103 58.1559 46.871 58.4744 45.5826 58.1881C43.9185 57.8041 42.5745 57.1001 41.6785 55.7561C41.6785 55.5641 41.6785 55.3721 41.6145 55.1801C41.6145 54.9988 41.486 54.6567 41.3656 54.3362C41.3161 54.2043 41.2678 54.076 41.2305 53.9641C41.9986 53.7081 42.6386 53.0681 43.1506 52.3641C44.2386 53.6441 45.7106 54.2841 47.3106 54.2841C48.2705 54.2841 49.2305 54.0281 50.1265 53.6441ZM31.3105 53.3241C34.3186 52.5561 37.5186 49.5481 35.9825 46.1561C35.9825 46.0921 35.9185 46.0281 35.9185 46.0281C36.2192 46.2787 36.4414 46.5685 36.6466 46.8361C36.7035 46.9103 36.759 46.9827 36.8146 47.0521C37.3265 47.9481 37.2626 48.9721 37.1986 49.9961C37.0065 52.3641 35.4065 53.7721 33.1025 54.0281C31.6945 54.2201 30.4145 54.0281 29.1985 53.5161C29.3905 53.5801 29.5825 53.5801 29.7745 53.5801C30.2865 53.5801 30.7985 53.5161 31.3105 53.3241ZM44.8785 59.4041C43.4705 59.0841 42.5105 58.4441 41.6145 57.4841L41.6785 56.9721C42.4466 57.8041 43.4705 58.3801 44.7505 58.7641C45.9025 59.1481 46.9265 59.1481 47.9506 58.8921C47.6946 59.0201 47.5025 59.1481 47.3106 59.2761C46.9906 59.2761 46.6706 59.3241 46.3507 59.3721C46.0307 59.4201 45.7105 59.4681 45.3905 59.4681C45.2625 59.4681 45.0705 59.4681 44.8785 59.4041ZM40.4626 60.9401C40.8465 60.1721 41.1665 59.2761 41.4226 58.4441C42.3186 59.2761 43.2785 59.8521 44.6866 60.1721C44.7756 60.1721 44.8785 60.1859 44.9887 60.2007C45.116 60.2177 45.2534 60.2361 45.3905 60.2361C43.4705 61.1961 41.4226 61.9001 39.2466 62.3481C39.7585 61.9641 40.1426 61.4521 40.4626 60.9401Z" fill="currentColor"/>
</svg>
