<svg width="16" height="16" viewBox="0 0 16 16" fill="none" xmlns="http://www.w3.org/2000/svg">
<path d="M5.26431 13C5.11745 13 4.96989 12.9453 4.8548 12.8352C4.47392 12.4702 4.13732 12.048 3.85435 11.5801C3.58666 11.1357 3.37574 10.6494 3.22645 10.1339C3.08635 9.64115 3.01032 9.12792 3.00077 8.60631C2.99244 8.10724 3.05181 7.60241 3.1768 7.10492C3.29155 6.63872 3.47435 6.17688 3.71912 5.73463C3.95591 5.31353 4.24582 4.92581 4.58277 4.57865C4.90861 4.24478 5.28046 3.95356 5.68859 3.71145C6.07745 3.48141 6.50224 3.30206 6.95186 3.1776C7.37353 3.06136 7.81846 3.00157 8.27537 3C8.70554 3 9.13971 3.05838 9.56815 3.17341C9.98288 3.2858 10.3782 3.45327 10.7446 3.67142C11.0953 3.87804 11.423 4.13587 11.7169 4.43601C12.0032 4.73091 12.2459 5.05867 12.4398 5.41159C12.6289 5.74862 12.7755 6.11798 12.8726 6.50499C12.9627 6.86928 13.0052 7.25228 12.9995 7.64506C12.9913 8.0153 12.9337 8.38535 12.8275 8.7493C12.7268 9.09244 12.5787 9.42491 12.3869 9.73746C12.2028 10.0369 11.9791 10.3105 11.7216 10.5506C11.4824 10.7754 11.1963 10.9782 10.8964 11.1355C10.6181 11.2838 10.2995 11.4002 9.97906 11.4699C9.67752 11.5357 9.35185 11.5617 9.03694 11.5451C8.74356 11.5301 8.43282 11.4699 8.13944 11.3712C7.87193 11.2817 7.59868 11.1457 7.35027 10.9782C7.11886 10.8225 6.89908 10.6242 6.7149 10.4049C6.54668 10.2079 6.39392 9.9689 6.27622 9.71701C6.16303 9.46809 6.08352 9.20763 6.04325 8.95731C6.00488 8.71608 5.99828 8.44881 6.02415 8.20321C6.0521 7.96058 6.11425 7.71673 6.20487 7.49316C6.28368 7.29091 6.40815 7.07433 6.55241 6.89096C6.7116 6.68294 6.89492 6.52667 7.02043 6.4335C7.19177 6.30921 7.38794 6.20485 7.57976 6.13458C7.75544 6.06868 7.96411 6.02411 8.16427 6.00977C8.35765 5.99859 8.56424 6.01642 8.73888 6.05697C8.90449 6.0935 9.09145 6.16587 9.24491 6.25432C9.43466 6.35938 9.58829 6.51181 9.64488 6.57212C9.74869 6.67892 9.85632 6.8338 9.92559 6.97976C10.0112 7.15596 10.0485 7.35209 10.0577 7.40803C10.0594 7.41677 10.0605 7.42551 10.0617 7.4346C10.0775 7.56692 10.0718 7.73753 10.0469 7.86864C10.0221 8.01739 9.94746 8.18276 9.89174 8.2754C9.82594 8.38955 9.70668 8.51558 9.62579 8.58026C9.5067 8.67378 9.34595 8.74038 9.2654 8.76328C9.25776 8.76555 9.24978 8.76765 9.24196 8.76957C9.16367 8.78845 9.00604 8.80314 8.87428 8.78531V8.78548C8.86647 8.78461 8.85814 8.78303 8.84963 8.78146C8.8354 8.77901 8.82185 8.77622 8.80866 8.77272V8.7722C8.69895 8.74405 8.56111 8.68095 8.46268 8.60473L8.46199 8.60508C8.3889 8.5474 8.34776 8.49041 8.26895 8.37766C8.08042 8.10707 8.145 7.73386 8.41355 7.54385C8.53577 7.45715 8.67933 7.42323 8.81752 7.43827C8.80693 7.42341 8.79651 7.4103 8.788 7.40156C8.74356 7.35419 8.69166 7.31381 8.66336 7.29842C8.60642 7.26539 8.53212 7.23655 8.47813 7.22483C8.40505 7.20788 8.312 7.20036 8.23891 7.20421C8.16201 7.20963 8.06306 7.23043 7.9905 7.2577C7.89693 7.29213 7.79745 7.34492 7.72107 7.39999C7.63792 7.46222 7.5506 7.547 7.48897 7.62776C7.41328 7.7239 7.34732 7.83822 7.30826 7.93803C7.25583 8.06756 7.22024 8.20618 7.20583 8.33501C7.19125 8.47153 7.19524 8.63061 7.21677 8.76695C7.23968 8.90977 7.28881 9.06866 7.35426 9.21323C7.42422 9.36233 7.51675 9.50812 7.619 9.62804C7.73426 9.76508 7.87228 9.89007 8.01115 9.98341C8.17208 10.092 8.34654 10.179 8.5158 10.2358C8.70902 10.301 8.91004 10.3402 9.0984 10.3498C9.30966 10.3612 9.52736 10.3439 9.72734 10.3002C9.94365 10.253 10.1568 10.1753 10.3443 10.0757C10.5535 9.96593 10.749 9.82766 10.9121 9.67383C11.0906 9.50777 11.2501 9.31287 11.3757 9.10817C11.51 8.88932 11.6178 8.64826 11.6871 8.41123C11.7626 8.15287 11.8055 7.88017 11.8109 7.62304C11.8152 7.33776 11.7845 7.05859 11.7194 6.79656C11.6498 6.51828 11.5401 6.24104 11.4026 5.99561C11.2576 5.73201 11.0786 5.49078 10.8686 5.27437C10.6531 5.05412 10.4011 4.85589 10.1417 4.70311C9.86552 4.53845 9.57006 4.41346 9.26054 4.32956C8.93348 4.24163 8.60225 4.19688 8.27728 4.19688C7.93251 4.19811 7.58202 4.24478 7.26607 4.332C6.91783 4.42832 6.58939 4.56677 6.29132 4.74314C5.97311 4.93176 5.68338 5.15848 5.43184 5.41666C5.16762 5.68866 4.93969 5.99317 4.75533 6.3211C4.56385 6.66721 4.41993 7.02993 4.32966 7.39562C4.22967 7.79347 4.18262 8.1929 4.18922 8.58533C4.19668 9.00171 4.25692 9.41093 4.36855 9.80127C4.48781 10.2145 4.6569 10.6045 4.8699 10.9583C5.09818 11.3355 5.36899 11.6755 5.67418 11.968C5.91201 12.1959 5.92138 12.5745 5.69501 12.814C5.57835 12.9376 5.42159 13 5.26431 13Z" fill="currentColor"/>
</svg>
