<svg width="24" height="24" viewBox="0 0 24 24" fill="none" xmlns="http://www.w3.org/2000/svg">
<path d="M19.3361 2.14387C20.9162 1.61525 22.4195 3.12399 21.8928 4.70986L19.6786 11.3766C19.5403 11.793 19.5403 12.2432 19.6786 12.6596L21.8928 19.3264C22.4195 20.9123 20.9162 22.421 19.3361 21.8924L12.6934 19.6701C12.2785 19.5313 11.83 19.5313 11.4151 19.6701L4.90557 21.8479C3.30148 22.3845 1.789 20.8249 2.36684 19.2301L4.41132 13.5874C4.56167 13.1724 4.57301 12.7196 4.44363 12.2975L2.09246 4.6285C1.60898 3.05146 3.10384 1.58565 4.66351 2.10743L11.4151 4.36613C11.83 4.50493 12.2785 4.50493 12.6934 4.36613L19.3361 2.14387Z" fill="#202322"/>
<path d="M10.1074 16H14.2266C14.6426 16 14.918 15.7539 14.918 15.3613C14.918 14.9688 14.6426 14.7227 14.2266 14.7227H10.8633V12.3086H14.0508C14.4434 12.3086 14.7012 12.0742 14.7012 11.7051C14.7012 11.3359 14.4375 11.1074 14.0508 11.1074H10.8633V8.82227H14.2266C14.6426 8.82227 14.918 8.57617 14.918 8.18359C14.918 7.79102 14.6426 7.54492 14.2266 7.54492H10.1074C9.63867 7.54492 9.35156 7.83789 9.35156 8.33008V15.2148C9.35156 15.707 9.63867 16 10.1074 16Z" fill="white"/>
</svg>
