<svg width="24" height="24" viewBox="0 0 24 24" fill="none" xmlns="http://www.w3.org/2000/svg">
<path d="M19.4947 2.61804C20.68 2.22151 21.8165 3.35331 21.4183 4.55226L19.2041 11.219C19.0318 11.7378 19.0318 12.2985 19.2041 12.8172L21.4183 19.484C21.8165 20.683 20.68 21.8148 19.4947 21.4182L12.8521 19.196C12.3342 19.0227 11.7743 19.0227 11.2565 19.196L4.74694 21.3737C3.54376 21.7762 2.40004 20.6063 2.83694 19.4004L4.88141 13.7577C5.06871 13.2408 5.08283 12.6767 4.92167 12.151L2.5705 4.48194C2.205 3.28975 3.33486 2.19017 4.50487 2.5816L11.2565 4.8403C11.7743 5.01354 12.3342 5.01354 12.8521 4.8403L19.4947 2.61804Z" fill="white" stroke="#202322"/>
<path d="M10.1074 16H14.2266C14.6426 16 14.918 15.7539 14.918 15.3613C14.918 14.9688 14.6426 14.7227 14.2266 14.7227H10.8633V12.3086H14.0508C14.4434 12.3086 14.7012 12.0742 14.7012 11.7051C14.7012 11.3359 14.4375 11.1074 14.0508 11.1074H10.8633V8.82227H14.2266C14.6426 8.82227 14.918 8.57617 14.918 8.18359C14.918 7.79102 14.6426 7.54492 14.2266 7.54492H10.1074C9.63867 7.54492 9.35156 7.83789 9.35156 8.33008V15.2148C9.35156 15.707 9.63867 16 10.1074 16Z" fill="#202322"/>
</svg>
