<svg width="24" height="24" viewBox="0 0 24 24" fill="none" xmlns="http://www.w3.org/2000/svg">
<path d="M9.38972 3.58121C10.8313 2.1396 13.1687 2.1396 14.6103 3.58121L20.4188 9.38972C21.8604 10.8313 21.8604 13.1687 20.4188 14.6103L14.6103 20.4188C13.1687 21.8604 10.8313 21.8604 9.38972 20.4188L3.58121 14.6103C2.1396 13.1687 2.1396 10.8313 3.58121 9.38972L9.38972 3.58121Z" fill="white" stroke="#202322"/>
<path d="M12.0117 16.1406C14.0449 16.1406 15.3164 15.1211 15.3164 13.5039C15.3164 12.25 14.5664 11.5352 12.7852 11.166L11.877 10.9785C10.8223 10.7559 10.4004 10.3867 10.4004 9.8125C10.4004 9.10352 11.0684 8.6582 12.0059 8.6582C12.7969 8.6582 13.4004 8.96289 13.6875 9.67773C13.8457 10.0059 14.0625 10.1582 14.4141 10.1582C14.8066 10.1582 15.0703 9.90625 15.0703 9.53711C15.0703 9.39648 15.0527 9.28516 15.0176 9.19141C14.6719 8.07227 13.5117 7.4043 12.0176 7.4043C10.1836 7.4043 8.87695 8.41211 8.87695 9.90039C8.87695 11.1367 9.66797 11.9336 11.3613 12.2793L12.2695 12.4668C13.3711 12.6953 13.793 13.0703 13.793 13.6797C13.793 14.3828 13.0781 14.8867 12.0586 14.8867C11.1562 14.8867 10.4297 14.5586 10.166 13.8262C10.002 13.4863 9.79102 13.3516 9.45703 13.3516C9.05859 13.3516 8.78906 13.6211 8.78906 14.043C8.78906 14.1836 8.81836 14.3359 8.87109 14.4766C9.19922 15.4375 10.3242 16.1406 12.0117 16.1406Z" fill="#202322"/>
</svg>
