<svg width="64" height="64" viewBox="0 0 64 64" fill="none" xmlns="http://www.w3.org/2000/svg">
<path fill-rule="evenodd" clip-rule="evenodd" d="M52.4184 29.8271L51.99 32.5218L46.465 30.8376L46.6826 29.5879L52.4184 29.8271ZM45.938 26.6978L53.1528 23.6157L53.9586 26.4014L46.5534 27.9711L45.938 26.6978ZM44.2958 24.8048L46.5942 20.3652L48.8484 21.9652L45.3532 25.3774L44.2958 24.8048ZM28.5946 39.5349C28.5708 40.0604 28.5402 40.6633 28.5096 41.081C28.3736 42.8528 26.9966 44.153 25.4734 44.153C24.5656 44.153 22.1924 44.0856 21.0534 44.1294C19.0848 44.2035 17.7554 43.5399 17.4256 42.2667L16.0962 33.7345L35.8162 20.0452C40.3416 18.9437 46.3562 38.3256 40.9842 39.6326L28.5946 39.5349ZM19.9654 39.4675L20.2578 41.5694L25.2626 41.5896L25.402 39.5113L19.9654 39.4675ZM36.0746 23.2048C33.154 23.9189 36.4384 37.7429 39.546 36.985C42.385 36.2945 38.9816 22.4974 36.0746 23.2048ZM10 35.4052L13.5564 35.0684L15.1136 39.6326L11.683 41.5661L10 35.4052Z" fill="currentColor"/>
</svg>
