<svg width="64" height="64" viewBox="0 0 64 64" fill="none" xmlns="http://www.w3.org/2000/svg">
<path fill-rule="evenodd" clip-rule="evenodd" d="M45.5081 36.0306C49.0471 33.939 49.3996 26.5503 42.674 29.6565C45.559 34.4353 43.913 40.9895 37.7106 43.3054V44.8787L25.4221 45V42.8937C23.3592 42.1115 21.5886 40.6981 20.357 38.8501C11.9273 36.299 16.7235 27.3333 12 24.5653L14.1292 22.9368C17.5302 23.8779 17.988 27.8847 20.3062 29.6528C21.5188 27.7022 23.3185 26.1971 25.4403 25.3593V22.8596L37.6925 23.3007L37.5362 25.3519C38.6418 25.8005 39.6715 26.4206 40.5884 27.1899C54.3956 20.4335 53.1784 38.545 44.4544 39.5375L45.5081 36.0306ZM31.8789 22.0436C29.0956 22.0436 29.2228 18 31.8353 18C34.4477 18 34.4223 22.0436 31.8789 22.0436Z" fill="currentColor"/>
</svg>
