<svg width="64" height="64" viewBox="0 0 64 64" fill="none" xmlns="http://www.w3.org/2000/svg">
<path fill-rule="evenodd" clip-rule="evenodd" d="M45.1276 36.4894C43.0702 37.9231 43.0569 39.7745 43.3608 41.5323L38.2507 40.9642C37.2855 43.9718 35.3216 46.7723 31.3303 46.6086C24.9343 46.3579 21.0801 41.3786 25.1414 31.6537C25.1414 31.6537 22.6999 31.6537 23.428 27.9008L21.3239 27.463C21.8958 26.1216 22.934 25.033 24.2463 24.3985C24.7473 20.9263 27.9203 20.9297 27.9203 20.9297L27.7065 23.0217C29.2329 21.07 32.3824 22.4302 32.3824 22.4302L30.3551 24.9065C32.8734 24.442 33.8219 25.8556 33.8219 25.8556L31.2168 27.8206C31.7645 29.2843 31.9983 31.1625 31.7478 33.5018L35.9762 33.8694C37.369 29.0604 41.0997 28.4622 41.0997 28.4622L40.9527 33.2846C44.8137 31.1324 48 34.5043 48 34.5043C48 34.5043 46.467 35.5537 45.1276 36.4894ZM29.2028 31.9077C25.7126 33.1175 24.5703 37.4719 26.8648 40.3292L27.4694 39.9382C26.9751 37.0007 27.5996 34.892 29.5835 32.556L29.2028 31.9077ZM37.3489 23.9674H36.4238C36.4238 23.9674 36.4238 20.6857 34.8373 19.0749C33.2508 17.4642 30.4519 17.2536 30.4519 17.2536L30.5421 16.2511C30.5421 16.2511 33.9121 15.8935 35.0043 14.7873C36.5106 13.2634 36.3603 10.4429 36.3603 10.4429L37.3122 10.3794C37.3122 10.3794 37.4792 13.5174 38.7818 14.8174C40.0843 16.1174 43.4209 16.2444 43.4209 16.2444L43.4577 17.2837C43.4577 17.2837 40.6154 17.4675 38.9855 18.8577C37.6462 19.994 37.3489 23.9674 37.3489 23.9674ZM25.4186 15.9971H24.8709C24.8709 15.9971 24.8709 14.0655 23.9357 13.1164C23.0005 12.1673 21.3472 12.0437 21.3472 12.0437L21.404 11.4622C21.404 11.4622 23.388 11.2483 24.0359 10.5966C24.9243 9.70101 24.8342 8.04679 24.8342 8.04679L25.3886 8C25.3886 8 25.5088 9.828 26.2904 10.6C27.0719 11.3719 29.0057 11.4622 29.0057 11.4622L29.0325 12.0771C29.0325 12.0771 27.3625 12.184 26.3939 13.0028C25.599 13.6645 25.4186 15.9971 25.4186 15.9971ZM23.6719 18.2094C23.6719 18.2094 22.0019 18.3163 21.0333 19.1351C20.2517 19.8035 20.0714 22.1428 20.0714 22.1428H19.5236C19.5236 22.1428 19.5236 20.2112 18.5885 19.2587C17.6533 18.3063 16 18.1893 16 18.1893L16.0568 17.6045C16.0568 17.6045 18.0407 17.394 18.6887 16.7423C19.5771 15.8467 19.4869 14.1925 19.4869 14.1925L20.0413 14.1457C20.0413 14.1457 20.1315 16.0038 20.8997 16.7691C21.6679 17.5343 23.6451 17.6012 23.6451 17.6012L23.6719 18.2094ZM30.806 48.2461L30.0979 55L27.092 54.6658L28.2342 47.8217L30.806 48.2461Z" fill="currentColor"/>
</svg>
