<svg width="64" height="64" viewBox="0 0 64 64" fill="none" xmlns="http://www.w3.org/2000/svg">
<path fill-rule="evenodd" clip-rule="evenodd" d="M38.0178 12.4985L40.0204 14.5768L36.2056 19.3095L29.477 19.7844L25.4514 15.0417L27.114 12.5255L36.7224 12L34.5804 14.7318L29.647 15.1832L32.707 18.4168L38.0178 12.4985ZM27.9266 34.4876L25.5262 38.7486L23.4046 38.7116L23 36.7107L28.3244 27.7406L27.9266 34.4876ZM29.0384 21.0139C29.783 21.0139 35.988 20.8522 36.7904 20.8488C36.7904 23.9478 36.0288 24.2173 32.809 24.2173C29.5892 24.2173 29.0486 23.2034 29.0384 21.0274V21.0139ZM35.2978 25.7297L37.7254 47.0686L32.6628 51.4476L27.9028 46.9204L30.6228 25.6118L35.2978 25.7297Z" fill="currentColor"/>
</svg>
