<svg width="64" height="64" viewBox="0 0 64 64" fill="none" xmlns="http://www.w3.org/2000/svg">
<path fill-rule="evenodd" clip-rule="evenodd" d="M24.2582 45.4101C22.531 43.3891 23.0546 38.7912 25.3904 37.5651C27.818 36.2952 32.3876 35.7731 35.0396 38.1882C35.2368 37.9895 35.91 37.4067 36.0154 37.2754C34.5772 35.1533 30.0076 33.5499 23.8094 35.4362L22.905 26.8467L27.9234 29.1069C28.4776 28.3659 31.711 28.0964 32.9554 28.3491L37.015 24.8122L38.7932 30.707C38.7932 30.707 43.9816 31.0438 46.8274 33.6375C49.6732 36.2312 50.5674 41.3377 47.963 45.0093C43.9442 50.6278 28.9536 50.8771 24.2582 45.4101ZM26.9238 23.8893V25.3646L23.6564 25.4556L23.2484 24.1823L24.4418 22.6935L23.381 22.6261L23.075 21.1204L26.5124 21.0396L26.9884 22.5789L25.7066 23.8893H26.9238ZM20.848 26.9613V28.4501L17.5704 28.5411L17.159 27.2577L18.3524 25.7688L17.3052 25.7015L16.9992 24.1992L20.4332 24.1183L20.9092 25.6577L19.6308 26.968L20.848 26.9613ZM20.4434 19.7326L20.5692 21.5516L15.68 21.6897L15 20.2076L17.754 16.9672L15.1904 16.8728L15.0646 15.1213L19.9504 15L20.6304 16.6842L18.1178 19.8067L20.4434 19.7326Z" fill="currentColor"/>
</svg>
