<svg width="16" height="16" viewBox="0 0 16 16" fill="none" xmlns="http://www.w3.org/2000/svg">
<path fill-rule="evenodd" clip-rule="evenodd" d="M11.5134 5.31221C10.8819 6.16187 8.61648 6.20114 7.85053 5.37885C7.13326 6.22494 4.6535 6.32133 3.84468 4.70292L4.32673 4.15671C5.04632 5.29793 6.93743 5.4205 7.78217 4.15671C7.83564 4.15023 7.8894 4.14665 7.94324 4.146C8.613 5.3015 10.7741 5.33601 11.3859 4.146C11.4219 4.146 11.5864 4.146 11.5864 4.146C12.3975 5.25271 14.1959 5.24556 15.0476 4.19479L15.5111 4.62438C14.744 6.27849 12.43 6.22851 11.5134 5.31221ZM4.58281 7.00559C5.25258 8.16109 7.41368 8.1956 8.02551 6.99845H8.22597C9.03711 8.10516 10.8355 8.09802 11.6872 7.04724L12.1507 7.47683C11.3882 9.14285 9.07419 9.08811 8.15761 8.1718C7.52608 9.02147 5.26069 9.06074 4.49475 8.23844C3.77863 9.08454 1.29771 9.17974 0.488892 7.56252L0.966303 7.01273C1.6859 8.15395 3.577 8.27652 4.42174 7.01273C4.47527 7.00744 4.52904 7.00506 4.58281 7.00559ZM6.6234 10.031C6.67687 10.0245 6.73063 10.0209 6.78447 10.0203C7.45424 11.1758 9.61534 11.2103 10.2272 10.0143C10.2631 10.0143 10.4276 10.0143 10.4276 10.0143C11.2388 11.121 13.0372 11.1139 13.8889 10.0631L14.3524 10.4927C13.5899 12.1587 11.2758 12.104 10.3593 11.1877C9.72774 12.0373 7.46235 12.0766 6.6964 11.2543C5.98029 12.1004 3.49937 12.1968 2.69055 10.5784L3.16796 10.031C3.88755 11.1758 5.77866 11.2983 6.6234 10.031Z" fill="currentColor"/>
</svg>
