<svg width="16" height="16" viewBox="0 0 16 16" fill="none" xmlns="http://www.w3.org/2000/svg">
<path fill-rule="evenodd" clip-rule="evenodd" d="M15 5.81229C14.991 6.10413 14.9656 6.39526 14.9239 6.68431C13.4094 6.93979 11.9294 7.36556 10.5129 7.95333C10.8076 8.17064 11.0925 8.39352 11.3674 8.61919C12.4501 8.21611 13.5653 7.9039 14.701 7.68588C14.6005 8.01222 14.4722 8.32957 14.3175 8.63451C13.571 8.8006 12.8346 9.00849 12.112 9.25718C12.4716 9.58036 12.8072 9.90493 13.116 10.2323C12.9101 10.4226 12.691 10.5986 12.4603 10.7588C10.1491 8.40467 5.74375 5.34842 1.00705 5.23977C1.02494 4.9597 1.05741 4.68074 1.10435 4.40397C3.47482 4.44855 5.75786 5.17987 7.77014 6.23019C9.8332 5.23977 11.1023 4.66031 14.8745 4C14.9243 4.30925 14.9596 4.60967 14.9803 4.90127C12.796 5.18334 10.6706 5.80437 8.68251 6.74142C9.03035 6.94759 9.36832 7.16072 9.69641 7.38081C11.3849 6.62504 13.1688 6.09746 15 5.81229ZM11.6001 11.2575C11.326 11.3912 11.0434 11.507 10.754 11.6044C8.51471 9.53578 5.03868 7.22758 1.10294 6.88908C1.04926 6.60611 1.01487 6.31991 1 6.03239C5.29956 6.33188 9.09992 8.82814 11.5959 11.2575H11.6001ZM8.5133 12C6.68433 10.5945 4.35334 9.2739 1.78122 8.7167C1.60434 8.41465 1.45611 8.09708 1.33844 7.76806C4.58179 8.30716 7.49799 10.0205 9.69782 11.8704C9.30542 11.943 8.90804 11.9863 8.50907 12H8.5133Z" fill="currentColor"/>
</svg>
