<svg width="16" height="16" viewBox="0 0 16 16" fill="none" xmlns="http://www.w3.org/2000/svg">
<path d="M4.79102 4.55261C4.79102 4.55261 3.73754 4.03414 3.54935 4.43745C3.36075 4.84071 3.56449 5.59922 3.56449 5.59922L4.79102 4.55261ZM14.9273 4.28108C14.823 4.25126 14.699 4.27057 14.6888 4.3555C14.6789 4.43986 14.7685 4.51923 14.8974 4.5639C15.1981 4.66803 15.3388 4.91624 15.291 5.23907C15.2726 5.36434 15.1826 5.46335 15.0913 5.54398C15.0909 5.37281 15.03 5.1822 14.917 5.02543C14.7722 4.82382 14.4895 4.68828 14.2621 4.71773C13.9941 4.75251 13.7261 4.9758 13.767 5.32703C13.1403 4.34057 11.9956 3.47042 10.0731 3.21832C7.13566 2.83318 4.98453 4.45876 3.08705 6.945C2.53679 7.66607 1.523 8.5917 0.390564 8.68497C0.766542 9.26616 1.45181 10.1936 1.45181 10.1936L3.43971 9.62475L2.8694 10.5796C2.8694 10.5796 3.0175 10.4372 4.98944 10.5453C5.23654 10.5588 6.06132 10.6349 6.27079 10.6502C6.27161 11.6344 5.66407 12.899 5.92304 12.6799C6.27365 12.383 6.5269 12.1816 6.62754 12.5969C6.79364 13.281 7.64338 11.9751 8.23087 10.7614C8.76927 10.7866 9.00246 10.833 9.88779 10.8064C10.6107 10.7846 11.1479 10.6855 11.6527 10.6012C11.6261 11.4803 11.0088 12.8164 11.1237 12.7679C11.5963 12.5685 11.7824 12.1352 11.9326 12.6196C12.3032 13.813 14.4286 9.90062 14.2109 6.31967C14.3934 6.42923 14.701 6.41786 14.8557 6.27098C14.9666 6.16572 15.0296 6.05661 15.0705 5.92806C15.3094 5.86408 15.5258 5.60642 15.5876 5.33464C15.6964 4.85671 15.3863 4.41225 14.9273 4.28108ZM3.90814 8.78394C3.60826 8.79294 3.35829 8.55942 3.34929 8.26228C3.34029 7.96522 3.57594 7.71705 3.87583 7.70809C4.1753 7.69909 4.42568 7.93265 4.43427 8.22971C4.44327 8.52681 4.20762 8.77494 3.90814 8.78394ZM14.7951 5.70104C14.7235 5.77972 14.3913 5.94844 14.1234 5.58121C14.0354 5.46102 13.9826 5.08025 14.2968 5.03533C14.4359 5.01549 14.5705 5.08667 14.6691 5.22393C14.7837 5.38328 14.818 5.61595 14.7951 5.70104Z" fill="#2992DE"/>
</svg>
