<svg width="16" height="16" viewBox="0 0 16 16" fill="none" xmlns="http://www.w3.org/2000/svg">
<path d="M14.1782 5.30111C13.3358 4.44508 12.989 4.5387 12.6548 4.05759C12.4667 3.78699 12.6919 2.25192 11.9487 2.45265C11.0342 2.69949 12.2437 3.77349 12.0453 4.14794C11.8473 4.52239 11.3021 4.57596 10.0637 3.77349C8.82496 2.97102 6.84299 0.830949 4.31617 1.36608C1.78934 1.90075 0.801331 4.77948 0.801331 7.50778C0.801331 10.2365 1.54546 11.2675 4.22666 11.0077C7.12508 10.727 8.85817 11.5955 8.78226 12.5029C8.67313 13.8029 4.71955 12.1819 3.3816 14.3753C3.3816 14.3753 3.33204 15.0708 3.92663 14.4823C4.52118 13.8938 5.5766 13.3749 7.26139 13.6424C8.94574 13.9099 9.84679 13.0173 9.47584 11.9144C9.19332 11.0746 7.3153 10.4727 5.63872 10.4862C3.94173 10.4992 1.61879 11.1592 1.47016 8.75177C1.32152 6.34436 2.6316 6.18089 3.32527 6.55535C4.01894 6.9298 3.87026 7.62515 3.12707 7.57159C2.38389 7.51849 2.4237 8.07133 3.028 8.90919C3.55103 9.63435 3.96938 9.97946 4.51436 9.6581C5.05944 9.3372 4.07121 9.23335 3.87026 8.96275C3.45311 8.40154 3.47391 7.94651 3.96938 7.89295C4.4648 7.83939 5.53261 8.01637 6.375 7.10678C7.21739 6.19719 8.35697 6.07703 8.60455 6.82594C8.85214 7.57485 8.76587 8.60646 10.0909 9.43361C11.0593 10.0386 11.7097 9.8593 12.0975 9.75497C12.6919 9.59429 12.8036 9.11272 11.9858 9.19329C11.2986 9.26036 10.2393 9.38052 9.64492 7.66846C9.64492 7.66846 10.0538 6.26426 10.4623 6.26426C10.4623 6.26426 14.0566 7.51197 14.9214 7.34757C15.5529 7.22694 15.0206 6.15714 14.1782 5.30111ZM13.1193 6.26426C12.8627 6.26426 12.6548 6.03977 12.6548 5.76266C12.6548 5.48554 12.8627 5.26106 13.1193 5.26106C13.3755 5.26106 13.5838 5.48554 13.5838 5.76266C13.5838 6.03977 13.3755 6.26426 13.1193 6.26426Z" fill="#DE64D2"/>
</svg>
