<svg width="16" height="16" viewBox="0 0 16 16" fill="none" xmlns="http://www.w3.org/2000/svg">
<path d="M14.4774 9.72488C14.4774 9.72488 14.8163 10.1352 15.1562 9.59925C15.1562 9.59925 14.4518 9.75308 14.4198 9.11824C14.4003 8.73152 14.4864 8.23632 14.5378 7.9826C14.861 7.29663 15.1003 6.53166 15.1369 5.65606C15.1792 4.64106 14.7425 3.93644 14.0356 3.79525C13.1884 3.62609 12.4321 4.03464 11.8753 5.27544C11.2275 6.71911 11.2343 8.14185 9.85401 9.97459C9.84805 9.98246 9.84191 9.99056 9.83577 9.99861C9.56094 9.96436 8.43158 9.85206 7.68271 10.2072C7.23259 10.4207 7.03045 10.6383 7.20329 11.0837C7.20329 11.0837 7.28576 10.584 7.74648 10.5483C7.74648 10.5483 7.22403 10.806 7.68271 11.3079C7.68271 11.3079 7.69099 10.701 8.16108 10.5703C8.16108 10.5703 7.87116 11.0166 8.48435 11.1804C8.48435 11.1804 8.12651 10.5544 8.7226 10.3337C9.17682 10.1655 9.53452 10.259 9.60798 10.2817C8.92642 11.0795 7.55994 12.254 4.84869 12.5621C3.21517 12.7478 3.15954 11.8269 3.4249 11.475C4.08162 10.6041 6.4536 10.731 8.30322 9.67371C11.1597 8.04091 10.6046 6.41731 9.71514 5.67016C9.39729 5.40321 8.53661 5.21535 7.981 5.12061C8.86474 4.6033 9.02353 3.69655 9.02353 3.69655C8.48517 4.47772 6.76681 4.79725 6.76681 4.79725C7.98523 4.17233 8.18337 2.51215 8.18337 2.51215C7.53165 3.79321 6.5116 3.94945 6.5116 3.94945C6.98956 2.74972 6.86024 2.16778 6.86024 2.16778C5.80411 4.7973 2.89741 5.61122 1.97792 5.94922C1.68081 6.05843 1.54972 5.77092 1.33325 5.68386C1.16714 4.62823 1.02099 2.74067 1.6466 2.13321C1.83878 1.94659 2.09441 1.89423 2.42814 1.97315C2.8607 2.07545 3.22113 2.27658 3.56973 2.47108C4.29509 2.87581 4.98019 3.25802 5.93861 2.42741C6.50368 1.93767 7.27161 1.70574 8.15944 1.75696C8.95662 1.80285 9.84309 2.07872 10.6556 2.53376C11.8258 3.18898 12.8267 3.05416 13.4602 2.82568C14.1459 2.57842 14.5521 2.17733 14.569 2.16037C14.6364 2.09305 14.6364 1.98388 14.569 1.91652C14.5017 1.8492 14.3925 1.8492 14.3252 1.91652C14.3215 1.92011 13.9573 2.27986 13.3432 2.50128C12.52 2.79821 11.6724 2.70792 10.8241 2.23283C9.96686 1.75277 9.02758 1.46153 8.17927 1.41268C7.19997 1.35627 6.34707 1.617 5.71278 2.16678C4.93698 2.83915 4.43395 2.55841 3.7378 2.16996C3.38579 1.97356 2.98679 1.75091 2.50751 1.63756C2.05624 1.5308 1.68577 1.6144 1.40626 1.88591C0.614719 2.6547 0.845284 4.79143 0.991884 5.72743C0.989928 5.72852 0.98811 5.72934 0.986154 5.73048C0.784289 5.84838 0.735346 6.67103 1.35454 6.79284C1.95067 6.91014 2.79966 6.60539 5.91655 6.32415C4.66975 6.85538 2.51629 7.6365 2.40294 8.29268C2.28959 8.94885 3.13966 9.51123 3.13966 9.51123C3.13966 9.51123 2.26125 8.48017 4.66975 7.51151C7.0783 6.54289 8.57896 7.26338 8.57896 7.26338C8.23709 6.76941 7.88089 6.45938 7.58123 6.2653C8.5115 6.15072 9.38773 6.54922 9.0939 7.58738C8.79042 8.65943 6.65501 9.09804 4.85815 9.50455C4.31019 9.62854 3.83104 9.77696 3.4169 9.94758C3.01626 9.70123 2.33416 9.34285 1.71633 9.31378C1.21867 9.2904 0.937939 9.38733 0.8809 9.8617C0.8809 9.8617 1.18874 9.45952 1.61212 9.64478C1.61212 9.64478 1.02987 9.6264 1.19843 10.2851C1.19843 10.2851 1.49132 9.75344 1.96764 9.85929C1.96764 9.85929 1.50182 10.1167 1.96582 10.5497C1.96582 10.5497 1.94462 9.8289 2.57446 9.9146C2.79748 9.94498 2.9484 10.0272 3.0496 10.1132C1.91788 10.6722 1.38424 11.4325 1.39211 12.3471C1.39998 13.2566 2.13857 14.0117 2.80339 14.1774C5.0385 14.7342 7.19288 13.971 8.82703 12.7906C8.67534 13.067 8.5397 13.3746 8.47211 13.6784C8.36395 14.1647 8.41143 14.4579 8.86906 14.5952C8.86906 14.5952 8.52547 14.2231 8.78041 13.8377C8.78041 13.8377 8.6627 14.4082 9.34052 14.3548C9.34052 14.3548 8.86679 13.9753 9.05255 13.5241C9.05255 13.5241 9.22653 14.0271 9.73247 13.644C9.73247 13.644 9.01871 13.5416 9.21089 12.9357C9.3175 12.5995 9.57918 12.2418 9.75035 12.0315C10.1432 11.6648 10.4887 11.2797 10.7769 10.896C12.5881 8.48412 12.3836 5.82522 13.612 5.82522C14.2222 5.82522 13.7926 7.05069 13.1646 8.28212C12.0545 10.459 11.0622 11.2028 10.8651 12.5552C10.6849 13.7908 12.2515 15.0012 14.0356 14.1143C14.0356 14.1143 10.6782 13.9637 13.4002 9.88517C13.6116 9.56845 13.8352 9.23645 14.0493 8.88344C13.9797 9.29909 13.9402 9.73284 13.9876 10.0725C14.0565 10.566 14.2035 10.8239 14.6802 10.7925C14.6802 10.7925 14.2282 10.5641 14.3321 10.1138C14.3321 10.1138 14.4215 10.6895 15.0378 10.4022C15.0378 10.4022 14.4612 10.2125 14.4774 9.72488ZM6.03827 5.6607C5.94799 5.89414 5.65301 6.00107 5.44132 5.91943C5.22968 5.83778 5.08999 5.5539 5.18033 5.32047C5.27061 5.08709 5.55667 4.99252 5.76836 5.07417C5.98005 5.15581 6.12856 5.42732 6.03827 5.6607Z" fill="#DE64D2"/>
</svg>
