<svg width="16" height="16" viewBox="0 0 16 16" fill="none" xmlns="http://www.w3.org/2000/svg">
<path d="M12.7991 3.30322C13.9839 3.69811 15.6113 2.59504 15.3881 2.38172C15.1648 2.16843 14.6949 2.82939 14.2999 2.52221C13.905 2.21507 14.5377 1.56855 14.291 1.41638C14.0444 1.26422 13.5337 2.38782 12.9633 2.16843C12.3929 1.94901 12.8828 1.48079 12.6675 1.37246C12.4522 1.26421 11.3952 2.76051 11.0912 3.62105C10.4327 3.94876 10.0336 4.51087 10.0336 4.51087C10.521 4.35696 10.8986 4.41145 11.1718 4.61261C10.9391 5.01328 9.9641 6.77475 10.7807 6.81362C11.5645 6.85095 11.3323 5.17387 11.2455 4.67207C11.5632 4.95745 11.7176 5.4645 11.7176 6.07458C11.7176 7.21726 11.3072 8.26164 9.63975 8.21777C8.03107 8.17544 7.66517 6.94525 7.75292 3.74199C7.82469 1.12282 4.33029 1.46026 4.33029 1.46026C6.83146 2.99604 6.18449 5.17244 6.18449 5.17244C4.81296 2.11845 1.82913 3.61035 1.82913 3.61035C4.17468 3.73064 5.28239 6.43544 5.28239 6.43544C5.28239 6.43544 4.33029 5.23393 2.88225 5.62886C1.11754 6.11012 0.591248 8.42016 0.591248 8.42016C3.01389 6.37481 4.40525 7.55933 5.60283 9.4464C6.25675 10.4769 7.09062 11.1977 8.09101 11.5677L7.73592 13.4193C7.73592 13.4193 9.38991 12.2355 10.4243 12.9819C11.5482 13.7928 10.057 14.6902 9.44269 14.4708C9.44269 14.4708 10.2135 14.9472 11.0566 14.2662C11.8037 13.6627 11.5566 12.9706 10.8293 12.6296C9.69152 12.0963 8.16266 12.8645 8.16266 12.8645L8.48273 11.691C9.28154 11.8903 10.2522 11.9042 11.2354 11.6725L11.2194 11.7282C11.2194 11.7282 12.6768 11.9777 12.8523 12.8114C13.0278 13.6452 12.2581 13.9011 12.2581 13.9011C12.2581 13.9011 13.419 13.9053 13.3751 12.7205C13.3423 11.8333 12.1704 11.5612 11.7158 11.5385C11.9027 11.4783 12.2553 11.365 12.4481 11.2894C15.5154 10.0865 14.9653 4.81159 13.1611 3.72901C12.4367 3.29439 11.79 3.33493 11.2752 3.53895C11.5436 3.31419 12.0476 3.05268 12.7991 3.30322ZM12.3165 4.1808C12.5346 4.1808 12.7114 4.35761 12.7114 4.57573C12.7114 4.79381 12.5346 4.97066 12.3165 4.97066C12.0984 4.97066 11.9216 4.79381 11.9216 4.57573C11.9216 4.35761 12.0984 4.1808 12.3165 4.1808Z" fill="#559D3E"/>
</svg>
