<svg width="16" height="16" viewBox="0 0 16 16" fill="none" xmlns="http://www.w3.org/2000/svg">
<path fill-rule="evenodd" clip-rule="evenodd" d="M7.12227 6.19152C7.12227 6.19152 12.386 5.4688 13.16 6.45419C13.9336 7.43962 15.1792 11.3464 14.9784 11.0307C14.778 10.7151 13.5362 8.209 13.5362 8.209C13.5362 8.209 13.9115 14.9245 13.3663 14.9384C13.1106 14.945 12.9909 13.8306 12.8629 12.6385C12.7181 11.2893 12.5625 9.84052 12.1869 9.80469C11.4794 9.73725 8.63014 9.55341 8.53893 10.1653C8.51387 10.3334 8.51493 10.7971 8.51626 11.3783C8.51977 12.9124 8.52515 15.2651 8.05695 15.1607C7.64922 15.0698 7.49683 12.8958 7.37029 11.0906C7.2966 10.0394 7.23168 9.11326 7.13022 8.79629C6.83149 7.8622 5.74577 7.83136 5.67297 9.16991C5.65265 9.54554 5.6591 10.1579 5.6663 10.8428C5.68477 12.5983 5.70826 14.8302 5.29893 14.7714C4.73017 14.6897 5.01735 7.93487 5.01735 7.93487C5.01735 7.93487 4.0607 8.90139 3.62524 9.11464C3.11832 9.36283 2.64513 9.25731 2.61199 8.79834C2.57885 8.33937 3.37919 5.76318 3.37919 5.76318C3.37919 5.76318 1.41954 5.23584 1.05742 3.61969C0.695305 2.00357 1.60752 1.61451 2.74328 1.36214C2.74328 1.36214 -0.31979 4.12543 3.61407 4.91243C7.54777 5.69942 7.99377 3.90222 7.62643 2.91713C7.25908 1.93203 6.28967 0.812626 6.28967 0.812626C6.28967 0.812626 8.22054 1.46904 8.61592 3.13778C9.01172 4.80653 7.12227 6.19152 7.12227 6.19152ZM4.50872 6.1704C4.45838 6.39612 4.69151 6.76313 4.94079 6.81882C5.19056 6.87442 5.57004 6.61222 5.62025 6.38654C5.67046 6.16082 5.43742 5.85552 5.18806 5.79987C4.9387 5.74427 4.55905 5.94467 4.50872 6.1704ZM10.9114 12.18C10.9102 11.1211 10.9424 10.0067 11.1943 9.96362C11.6262 9.88964 11.5892 10.6645 11.5489 11.5073C11.5367 11.764 11.5241 12.0271 11.5244 12.2743C11.5256 13.3332 11.5089 14.1853 11.2533 14.1856C10.998 14.1859 10.9127 13.2389 10.9114 12.18Z" fill="currentColor"/>
</svg>
