<svg width="16" height="16" viewBox="0 0 16 16" fill="none" xmlns="http://www.w3.org/2000/svg">
<path d="M9.799 10.4152C9.48972 10.4152 9.48763 11.4024 9.48763 12.2722C9.48763 13.142 9.48972 14.1251 9.799 14.1251C10.1082 14.1251 10.1953 13.4334 10.1953 12.5636C10.1953 11.6939 10.1082 10.4152 9.799 10.4152ZM14.659 0.789062C14.659 0.789062 10.6621 3.3624 10.2241 2.54113C9.78604 1.71985 9.34803 0.679561 8.80051 1.17233C8.45517 1.48303 9.29328 3.2529 9.07427 4.9502C8.85522 6.64751 8.47195 9.71362 5.89862 9.76837C3.32526 9.82312 2.44921 8.23532 2.83248 5.93574C3.21575 3.63616 4.69408 3.80042 5.24159 5.33347C5.78911 6.86652 7.15791 5.22396 6.39138 4.07417C5.62486 2.92439 3.54426 1.71984 2.17545 3.58141C0.80664 5.44297 1.0804 6.64751 1.57318 8.18057C2.06594 9.71362 3.87278 10.0969 4.25605 11.6299C4.63932 13.1629 4.69408 15.6816 5.18684 15.1341C5.67961 14.5865 4.96784 11.8489 5.40585 11.7394C5.84387 11.6299 5.62486 14.5865 6.39138 14.696C7.15791 14.8055 6.5304 11.8266 6.92662 11.4608C7.46781 10.9613 10.6621 9.22085 11.0453 9.93263C11.4286 10.6444 11.4834 13.7105 12.0309 13.7652C12.5784 13.82 11.5929 7.14028 12.1951 5.66198C12.7974 4.18368 14.2757 4.01942 14.659 2.97914C15.0423 1.93885 14.659 0.789062 14.659 0.789062ZM11.1822 4.12893C10.895 4.12893 10.6621 3.89612 10.6621 3.60856C10.6621 3.32145 10.895 3.08864 11.1822 3.08864C11.4695 3.08864 11.7024 3.32145 11.7024 3.60856C11.7024 3.89612 11.4695 4.12893 11.1822 4.12893Z" fill="#EA5C3D"/>
</svg>
