<svg width="16" height="16" viewBox="0 0 16 16" fill="none" xmlns="http://www.w3.org/2000/svg">
<path d="M5.61133 2.02569C3.18224 1.49629 3.33797 3.39593 3.33797 3.39593L2.43484 4.39246C2.43484 4.39246 1.65626 2.77308 2.96425 1.77656C4.27224 0.779997 5.61133 2.02569 5.61133 2.02569Z" fill="currentColor"/>
<path fill-rule="evenodd" clip-rule="evenodd" d="M13.8017 6.63472C13.8017 6.63472 14.4557 8.44097 13.0854 8.81468C13.0854 8.81468 14.6425 14.3579 14.1131 14.2957C13.7365 14.2514 13.464 13.3993 13.2192 12.6337C13.1198 12.3231 13.0251 12.0267 12.9297 11.8043C12.8727 11.6712 12.7345 11.689 12.3593 11.7372C12.1197 11.768 11.7836 11.8112 11.3103 11.8354C10.0958 11.8977 8.75668 11.1192 8.75668 11.1192C8.75668 11.1192 10.4332 14.932 9.69095 14.5448C9.25146 14.3156 8.63135 13.3542 8.02551 12.415C7.43918 11.5061 6.86621 10.6179 6.48331 10.4341C6.1586 10.2782 6.62951 11.2857 7.12682 12.3497C7.63334 13.4334 8.16726 14.5757 7.91584 14.6071C7.06562 14.7134 4.58366 11.2126 4.11651 7.69353C4.11651 7.69353 2.74627 9.06377 2.02998 8.93923C1.31373 8.81468 2.18571 5.54475 3.80508 3.55166C5.42445 1.55858 8.13383 1.93225 9.28609 3.67621C10.4383 5.42017 9.90901 7.06635 8.00932 7.00406C6.10967 6.94176 5.98505 5.13989 6.82588 4.57934C6.82588 4.57934 6.51971 5.76691 7.37812 6.04465C8.33542 6.35432 9.16154 5.79388 8.72553 4.54819C8.34724 3.46741 6.67826 2.26448 5.73588 3.55166C4.45908 5.29558 5.98505 7.31986 8.4764 7.94266C10.9677 8.56551 12.6495 8.62781 12.6495 8.62781C12.6495 8.62781 12.556 6.97729 13.8017 6.63472ZM3.33797 6.46343C3.33797 6.64402 3.48435 6.79041 3.66494 6.79041C3.84554 6.79041 3.99196 6.64402 3.99196 6.46343C3.99196 6.28284 3.84554 6.13645 3.66494 6.13645C3.48435 6.13645 3.33797 6.28284 3.33797 6.46343Z" fill="currentColor"/>
<path d="M11.9224 13.0482C11.6585 12.2384 11.7856 12.1574 11.9433 12.1148C12.1011 12.0723 12.3393 12.3213 12.4937 12.8943C12.5145 12.9714 12.5361 13.0495 12.5575 13.1271C12.6955 13.626 12.8273 14.1023 12.6908 14.1391C12.533 14.1816 12.1063 13.6124 11.9224 13.0482Z" fill="currentColor"/>
</svg>
