<svg width="16" height="16" viewBox="0 0 16 16" fill="none" xmlns="http://www.w3.org/2000/svg">
<path d="M14.1523 9.15101C13.4847 8.74497 13.7084 8.04498 13.54 6.97107C13.4868 6.63406 13.2869 6.319 12.9789 6.07992C12.885 5.45388 12.3376 5.35803 10.9077 4.85402C9.47334 4.34842 9.42221 2.58209 10.1961 2.03435C10.9705 1.48657 12.6152 1.68267 12.9569 2.5675C13.2985 3.45233 12.6152 3.5998 12.6152 3.5998C12.6152 3.5998 12.1601 2.5254 11.4768 2.98884C10.9431 3.351 11.2947 4.10544 12.1601 4.29501C13.025 4.48463 13.73 3.90372 13.7994 3.00938C13.8813 1.95891 13.3438 0.966432 11.3176 0.945358C9.29087 0.924285 8.5186 2.76336 9.01945 4.04849C9.52031 5.33359 11.4086 5.64333 11.4086 5.64333C11.4123 5.64349 11.4161 5.64374 11.4198 5.64391C11.1351 5.66066 10.6288 5.48838 10.1833 5.71108C8.67446 6.46548 9.01363 8.13874 7.48821 8.37346C6.04051 8.59616 5.89795 7.81325 5.89795 7.81325L6.85019 7.52804L6.56381 6.40911C6.35391 7.18509 5.54714 7.23775 5.15269 6.93994C4.75866 6.64213 4.70088 5.98994 5.15394 5.62795C5.91332 5.02144 7.01645 6.02497 7.01645 6.02497C7.01645 6.02497 7.12452 3.61007 7.02767 3.60171C6.76831 3.57939 4.26778 3.78398 3.51671 3.73372C2.4036 3.65932 2.32754 2.8708 2.32754 2.8708C2.02038 2.58641 1.53989 4.13424 1.63882 6.61029C1.77349 9.99224 2.77395 10.4788 3.25734 10.8036C3.74074 11.1283 3.74989 11.4835 3.08402 11.8153C2.41815 12.1471 2.21532 11.7123 1.54945 12.2337C0.883171 12.7551 1.13713 14.0904 1.5985 14.2326C2.05945 14.3748 1.91854 13.7488 2.12346 13.1326C2.32837 12.5165 3.28852 12.3708 4.26196 12.3708C5.2354 12.3708 5.62819 11.7278 5.62819 11.7278C5.86054 13.359 4.40744 12.4564 3.77648 13.1617C3.13514 13.8781 3.33091 15.0547 3.85047 15.0547C4.64394 15.0547 4.00592 14.5315 4.46688 13.8679C4.92824 13.2043 6.39963 13.6831 7.11704 13.1617C7.83403 12.6403 7.9554 11.8057 7.9554 11.8057C12.274 11.6896 12.9074 9.96954 12.9074 9.96954C12.9074 9.96954 13.841 11.4054 12.1784 11.4886C10.7577 11.5596 10.3549 11.8738 10.1833 12.8186C10.017 13.733 10.9759 13.8978 11.1808 13.2343C11.3857 12.5707 11.4539 12.1742 12.8226 12.1849C13.6934 12.1918 14.1165 11.9197 14.5775 10.9717C15.0388 10.0237 14.9486 9.63549 14.1523 9.15101ZM4.88169 4.86632C4.65849 4.86632 4.47768 4.69894 4.47768 4.49244C4.47768 4.28599 4.65849 4.11865 4.88169 4.11865C5.10489 4.11865 5.2857 4.28599 5.2857 4.49244C5.2857 4.69894 5.10489 4.86632 4.88169 4.86632Z" fill="#EA5C3D"/>
</svg>
