<svg width="16" height="16" viewBox="0 0 16 16" fill="none" xmlns="http://www.w3.org/2000/svg">
<path d="M13.6034 5.0961C12.8305 4.74535 12.4477 5.6804 12.4477 5.6804C9.73433 4.21299 7.81851 6.92132 7.81851 6.92132C7.81851 6.92132 7.56401 6.22439 8.37381 5.40279C9.18352 4.58078 10.3035 4.63231 11.2096 4.5629C12.6358 4.45361 12.7389 2.32252 10.0842 2.59721C6.92925 2.92386 6.12768 6.52111 6.12768 6.52111C5.40798 6.02741 7.03506 3.52105 7.8776 2.4289C8.27673 1.91151 6.92194 1.94642 5.61926 3.20646C4.31663 4.46608 4.20584 6.48911 4.20584 6.48911C4.20584 6.48911 3.47454 6.73015 2.95673 7.77907C2.06889 9.57645 2.54934 11.7989 3.40851 11.9981C4.67245 12.2911 6.34117 10.672 6.34117 10.672C6.20195 11.101 5.75362 11.8255 5.06422 12.3234C4.48789 12.7397 4.3367 13.2281 5.2174 13.3192C6.09814 13.4103 7.07022 12.9685 7.8749 11.8042C8.40493 11.0373 9.10398 10.7633 9.05236 11.3308C9.00079 11.8983 7.75434 12.6771 7.63449 13.2049C7.4159 14.1674 8.94327 14.3311 11.5617 12.2036C13.9051 10.2996 13.4701 7.31653 13.4701 7.31653C14.345 6.8727 14.3763 5.44643 13.6034 5.0961ZM5.68613 9.55069C5.55801 9.85988 5.29461 10.0448 5.09784 9.96294C4.90106 9.88149 4.84537 9.56482 4.97354 9.25563C5.10166 8.94643 5.36505 8.76192 5.56183 8.84337C5.75861 8.92482 5.8143 9.2415 5.68613 9.55069Z" fill="#2992DE"/>
</svg>
