<svg width="16" height="16" viewBox="0 0 16 16" fill="none" xmlns="http://www.w3.org/2000/svg">
<path fill-rule="evenodd" clip-rule="evenodd" d="M8.40074 10.0309L8.49568 10.3114L13.0563 10.4214L12.8504 11.9064C12.8504 11.9064 4.63396 11.9898 3.86299 11.9999C1.35562 12.0315 1.34647 5.82493 4.03457 5.79081C4.4029 5.79081 6.121 5.82746 7.98208 5.87675L7.32206 4.15292L8.59977 4L10.9115 5.95763C12.2979 5.99555 13.3377 6.02714 13.3377 6.02714L14 9.77811L8.40074 10.0309ZM9.92895 8.2072L5.61426 8.02774L4.05173 8.81762L3.90874 8.58003L4.91078 7.45398C4.70259 6.98258 4.37659 6.66157 3.92933 6.66157C2.24098 6.66157 2.15976 11.2113 3.95907 11.2113C4.81812 11.2113 5.22992 9.96642 5.18645 8.77718L10.3019 8.47134L9.92895 8.2072Z" fill="currentColor"/>
</svg>
