<svg width="16" height="16" viewBox="0 0 16 16" fill="none" xmlns="http://www.w3.org/2000/svg">
<path d="M11.2232 14.2896C11.0562 14.2896 10.8951 14.2837 10.7422 14.2722C10.7439 14.154 10.7746 13.9273 10.9416 13.6092C11.1457 13.2199 11.8137 11.9202 11.8393 11.5402C11.8614 11.2129 11.8031 10.5918 11.1657 10.1094L11.0549 10.0256L10.9744 10.1387C10.5108 10.7887 9.85894 12.1851 9.67105 12.9142H8.72774C8.78356 12.7329 8.89731 12.4197 9.10438 12.0484C9.21516 11.8503 9.41967 11.5488 9.61736 11.2573C9.83593 10.9353 10.0421 10.6311 10.1163 10.474C10.3749 9.92571 10.403 9.02352 10.2445 8.66946L10.2092 8.59052L10.1227 8.58962C10.1073 8.58949 10.0916 8.58941 10.0754 8.58941C9.82699 8.58941 8.95526 8.60982 8.16023 8.87236C6.83858 9.30903 5.59149 11.3878 5.04238 13.2156L5.02691 13.2672L5.0316 13.2765C5.00629 13.4385 4.91443 14.0241 4.87617 14.2681C4.73174 14.2753 4.49779 14.2845 4.24739 14.2845C4.08173 14.2845 3.93278 14.2805 3.80271 14.2725C3.82418 14.1158 3.88549 13.8577 4.01446 13.5961C4.11245 13.3977 4.21731 13.232 4.31867 13.0718C4.57277 12.6701 4.81282 12.2907 4.89173 11.5056C4.98414 10.586 4.85743 9.40638 4.44116 9.02553C4.17815 8.75553 3.47315 8.57445 2.97627 8.57445C2.66196 8.57445 2.44262 8.63994 2.32431 8.76908C2.2546 8.84513 2.22274 8.94138 2.23207 9.04743C2.26155 9.3847 2.53986 10.4133 3.13012 10.5653C3.18739 10.5801 3.40497 10.6361 3.54621 10.6689C3.61511 11.2145 3.61916 11.5916 3.58703 11.7087C3.39726 11.6798 2.88501 11.336 2.59405 11.0669C1.65509 10.1985 1.2318 8.51668 1.41224 8.025C1.44449 7.93698 1.47866 7.93557 1.49148 7.93497C1.83629 7.92015 2.44327 7.81129 3.03025 7.70601C3.53646 7.61521 4.01459 7.52945 4.28612 7.50993L4.36562 7.50422L4.39902 7.43192C5.09738 5.92127 4.8432 5.00272 4.62953 4.58957C4.46647 4.27432 4.22656 4.05972 3.98775 4.01545L3.83977 3.98809L3.82848 4.13811C3.8007 4.50704 3.65047 4.70443 3.49143 4.91342C3.29343 5.17366 3.08871 5.44272 3.18751 5.9917C3.19961 6.05923 3.24968 6.09263 3.30272 6.128C3.41222 6.20111 3.51903 6.28547 3.51733 6.44115C3.51439 6.71818 3.31269 6.86313 3.115 6.86313C3.00098 6.86313 2.89136 6.81519 2.80636 6.72823C2.62413 6.54149 2.4189 6.27196 2.1541 5.57075C1.99556 5.15091 1.96808 4.59949 1.96356 4.38195L1.96152 4.28016L1.86305 4.25413C1.67614 4.20479 1.41343 4.10356 1.25928 4.04161C1.3387 3.87672 1.50776 3.56237 1.78444 3.21905L1.84678 3.14168L1.79147 3.0591C1.59566 2.76691 1.5415 2.34596 1.64244 1.93766C1.8115 1.97673 2.15427 2.08768 2.49908 2.38733L2.57816 2.45606L2.66439 2.39658C3.15125 2.06058 3.70079 1.84568 4.29775 1.75774C4.50972 1.72663 4.71994 1.71079 4.92244 1.71079C5.83264 1.71079 6.6166 2.02334 7.1888 2.61464C7.75717 3.20188 8.078 4.02035 8.11634 4.98146L8.12572 5.21277L8.32256 5.09083C8.70729 4.85236 9.47634 4.41024 10.3033 4.12874C10.5871 4.03202 10.8785 3.98298 11.1695 3.98298C12.0012 3.98298 12.6795 4.3819 12.9394 5.02411L12.9739 5.1086L13.0676 5.11013C13.1268 5.11005 13.1592 5.08299 13.2564 5.00264C13.4323 4.8562 13.8452 4.5133 14.2295 4.5133C14.4451 4.5133 14.6228 4.6211 14.7732 4.8429C15.039 5.23493 14.8341 5.80632 14.5968 6.46795C14.1958 7.5876 13.6999 8.97133 15.5959 9.91583C15.3023 10.0998 14.7335 10.4072 14.2125 10.4072C14.212 10.4072 14.212 10.4072 14.212 10.4072C13.6969 10.4071 13.368 10.1059 13.2061 9.48619C13.1136 9.13294 13.3787 8.51945 13.6347 7.92615C14.0007 7.07893 14.379 6.2029 13.9717 5.66099C13.8563 5.50769 13.7182 5.47552 13.6228 5.47552C13.4485 5.47552 13.2994 5.57901 13.218 5.67582L13.1754 5.72677L13.1899 5.79175C13.3842 6.6754 12.9603 7.73766 12.4532 8.3984C11.8265 9.21687 11.7315 9.5688 12.3587 10.176C12.8614 10.6639 12.8214 10.7412 12.5619 11.2438C12.2926 11.7649 11.7771 13.3472 11.7213 14.2724C11.613 14.28 11.4362 14.2896 11.2232 14.2896ZM2.96119 3.77779C2.72008 3.77779 2.52392 3.97212 2.52392 4.21101C2.52392 4.44982 2.72008 4.64415 2.96119 4.64415C3.2023 4.64415 3.39846 4.44982 3.39846 4.21101C3.39846 3.97212 3.2023 3.77779 2.96119 3.77779Z" fill="currentColor"/>
</svg>
