<svg width="16" height="16" viewBox="0 0 16 16" fill="none" xmlns="http://www.w3.org/2000/svg">
<path d="M14.1289 10.0937C15.6862 6.84503 14.6943 3.32961 12.5847 2.48454C10.8874 1.80022 10.0702 3.73777 10.5156 4.78715C10.9305 5.76153 11.5484 5.63221 11.5484 5.63176C10.6306 4.94341 10.5556 1.98432 12.481 3.45758C14.41 4.92949 14.4927 7.83109 13.4927 10.1952C13.2457 10.7796 12.9067 11.2006 12.5371 11.5031C12.3683 10.0641 13.4294 7.81942 13.428 7.81807C13.4285 7.81807 12.8631 7.67798 11.7002 6.91239C10.5255 6.13961 9.58075 5.02288 9.23994 4.59361C9.23904 4.59092 9.2386 4.58823 9.2377 4.58553C9.91213 4.54018 10.4357 3.96228 10.4137 3.27572C10.3912 2.57434 9.8111 2.02788 9.1187 2.05258C8.85019 2.06201 8.60412 2.1563 8.40431 2.30807C8.09582 1.84692 7.44878 1.46704 6.69396 1.38487C5.13404 1.21379 4.62485 2.3202 4.6244 2.32065C4.62395 2.32065 5.55209 3.08174 5.0411 3.44411C4.52966 3.80647 3.63295 4.48136 3.91404 5.43374C4.19558 6.38703 5.36979 6.31563 6.05994 6.079C6.19779 6.03185 6.42904 5.99054 6.52648 6.15578C5.97911 6.54463 5.78648 8.06504 5.16772 8.15933C3.56245 8.40271 3.59703 6.39062 2.88891 5.97572C2.24905 5.60033 1.59886 5.9636 1.30205 6.22403C0.992225 6.49524 1.15118 6.82662 1.15118 6.82662C1.26838 6.64971 1.43811 6.61513 1.43811 6.61513C1.19878 6.91553 1.44035 7.21323 1.44035 7.21323C1.4866 6.90341 1.7861 6.83022 1.7861 6.83022C1.62356 7.23659 1.86154 7.39464 1.86154 7.39464C1.93698 7.07988 2.33033 6.86075 2.5948 7.00264C3.01958 7.19617 3.64507 8.62498 4.55525 9.17503C4.12014 8.9613 3.73982 8.84814 3.50902 8.93031C2.72951 9.20871 2.69673 10.4036 3.01823 11.4745C3.24724 12.2363 3.79236 13.3978 3.79236 13.3979C3.79236 13.3977 3.62128 13.6754 2.49961 13.4017C1.99221 13.2777 1.97155 14.6328 1.97155 14.6328C1.97155 14.6328 3.4273 13.9523 4.92435 13.9961C4.9239 13.996 4.07659 12.2713 3.89114 11.6887C3.63295 10.8794 4.15966 10.835 5.05726 11.9055C5.95486 12.9758 6.66433 14.0316 8.24041 13.9952C9.03609 13.9767 9.6297 13.5582 10.0136 12.8818C10.3136 12.9022 11.0087 12.8981 11.7967 12.5422C11.9359 13.1056 12.2543 13.6441 12.5816 13.8419C12.9359 14.0562 13.1649 13.8015 13.1649 13.8014C12.9601 13.7433 12.9561 13.5904 12.9561 13.5904C13.3167 13.7281 13.4469 13.4047 13.4469 13.4047C13.1595 13.3426 13.0661 13.1877 13.0661 13.1877C13.5048 13.2194 13.4927 12.9443 13.4927 12.9443C13.1065 12.8486 12.803 12.3172 12.6665 12.0074C13.1878 11.5909 13.7024 10.982 14.1289 10.0937ZM6.08015 4.79703C5.77481 4.80286 5.52245 4.55994 5.51707 4.2546C5.51123 3.94926 5.7537 3.69691 6.05904 3.69107C6.36438 3.68568 6.61673 3.92816 6.62257 4.2335C6.62841 4.53884 6.38548 4.79119 6.08015 4.79703ZM7.31497 11.1545C6.98493 10.8137 5.9158 9.94736 4.96207 9.39416C5.17132 9.48127 5.27639 9.43996 5.47665 9.2563C5.76134 8.99632 6.50852 7.51184 7.37693 7.04216C7.6926 7.29316 7.9701 8.22848 8.00512 8.95231C8.07158 10.3057 7.8529 11.7092 7.31497 11.1545ZM11.6862 11.6236C11.6907 11.7557 11.6984 11.8774 11.7091 11.9908C11.1402 12.2206 10.6 12.2616 10.2848 12.2614C10.4725 11.6925 10.5547 11.0157 10.5291 10.2814C10.49 9.1665 10.2184 8.0116 9.88564 7.08661C10.1124 7.18135 10.935 7.55584 11.4815 8.22759C12.12 9.01383 11.6413 10.3497 11.6862 11.6236Z" fill="#DE64D2"/>
</svg>
