<svg width="16" height="16" viewBox="0 0 16 16" fill="none" xmlns="http://www.w3.org/2000/svg">
<path fill-rule="evenodd" clip-rule="evenodd" d="M3.92236 11.9662C3.77561 11.4379 4.06455 11.0068 4.57417 10.8219C5.16228 10.6105 6.01886 10.0442 6.01886 9.30769C6.01886 8.26162 5.41596 7.75021 4.81419 7.40575L5.26921 5.75951L13.5574 5.73309L13.8804 7.31805C13.2912 7.70266 12.8339 8.35144 12.8339 9.35841C12.8339 10.3654 13.8577 10.8525 14.4538 10.9856C15.0976 11.1314 15.0567 11.8246 14.9088 12L3.92236 11.9662ZM9.06521 11.0807C8.56355 10.8757 7.54658 10.5926 7.54658 9.27177C7.54658 8.18871 8.12218 7.42477 8.57037 7.10566L8.40657 6.32481H5.84026L5.61275 7.17012C6.1019 7.48077 6.71276 8.19188 6.71276 9.27494C6.71276 10.4837 5.57521 10.9825 5.07697 11.1917C4.77324 11.3185 4.89724 11.5309 4.89724 11.5309L9.24494 11.5097C9.24494 11.5097 9.36666 11.2075 9.06521 11.0807ZM10.1152 4.37109L11.197 2.9161L11.8511 3.38208L10.5998 4.69865L10.1152 4.37109ZM8.10853 3.72443L8.44183 2.04861L9.26769 2.1997L8.77627 3.8713L8.10853 3.72443ZM5.2931 2.21133L6.05412 2L6.49663 3.76036L5.88463 3.87447L5.2931 2.21133ZM2.61532 3.90194L3.17271 3.34721L4.47521 4.59087L4.08048 5.01352L2.61532 3.90194ZM2.80074 6.67561L1 6.15892L1.32875 5.41927L2.97933 6.14835L2.80074 6.67561Z" fill="currentColor"/>
</svg>
