<svg width="16" height="16" viewBox="0 0 16 16" fill="none" xmlns="http://www.w3.org/2000/svg">
<path fill-rule="evenodd" clip-rule="evenodd" d="M7.1223 6.1914C7.1223 6.1914 12.3861 5.46868 13.1601 6.45407C13.9337 7.4395 15.1792 11.3463 14.9784 11.0306C14.778 10.7149 13.5362 8.20888 13.5362 8.20888C13.5362 8.20888 13.9115 14.9244 13.3663 14.9383C13.1106 14.9448 12.991 13.8304 12.863 12.6384C12.7181 11.2891 12.5625 9.8404 12.1869 9.80457C11.4794 9.73713 8.63017 9.55329 8.53896 10.1652C8.5139 10.3333 8.51496 10.797 8.51629 11.3782C8.5198 12.9123 8.52518 15.265 8.05698 15.1606C7.64925 15.0697 7.49686 12.8957 7.37032 11.0905C7.29664 10.0393 7.23172 9.11314 7.13025 8.79617C6.83152 7.86207 5.7458 7.83124 5.673 9.16979C5.65268 9.54542 5.65913 10.1578 5.66633 10.8427C5.6848 12.5982 5.70829 14.8301 5.29896 14.7713C4.7302 14.6896 5.01738 7.93475 5.01738 7.93475C5.01738 7.93475 4.06073 8.90127 3.62528 9.11452C3.11835 9.36271 2.64516 9.25719 2.61202 8.79822C2.57888 8.33925 3.37922 5.76305 3.37922 5.76305C3.37922 5.76305 1.41957 5.23572 1.05745 3.61956C0.695335 2.00345 1.60755 1.61439 2.74331 1.36202C2.74331 1.36202 -0.31976 4.12531 3.6141 4.9123C7.5478 5.69929 7.99381 3.9021 7.62646 2.917C7.25911 1.93191 6.28971 0.812505 6.28971 0.812505C6.28971 0.812505 8.22057 1.46891 8.61595 3.13766C9.01175 4.80641 7.1223 6.1914 7.1223 6.1914ZM4.50875 6.17027C4.45841 6.396 4.69154 6.76301 4.94082 6.81869C5.19059 6.8743 5.57008 6.61209 5.62028 6.38641C5.67049 6.16069 5.43745 5.85539 5.18809 5.79975C4.93873 5.74414 4.55908 5.94455 4.50875 6.17027ZM10.9115 12.1799C10.9102 11.121 10.9424 10.0066 11.1943 9.9635C11.6263 9.88952 11.5892 10.6644 11.549 11.5072C11.5367 11.7639 11.5241 12.0269 11.5244 12.2742C11.5257 13.333 11.5089 14.1852 11.2533 14.1855C10.9981 14.1858 10.9127 13.2387 10.9115 12.1799Z" fill="currentColor" />
</svg>
