<svg width="16" height="16" viewBox="0 0 16 16" fill="none" xmlns="http://www.w3.org/2000/svg">
<path fill-rule="evenodd" clip-rule="evenodd" d="M5.50072 4.45029C5.45142 4.43038 5.40113 4.40946 5.34985 4.38805C4.34653 3.97179 3.44379 3.41112 2.64024 2.70606C2.59517 2.66673 2.56934 2.60946 2.56934 2.54971V1.38457C2.56934 1.30142 2.61888 1.22623 2.69531 1.19336C2.77174 1.1605 2.86042 1.17644 2.92082 1.2337C4.53425 2.76233 5.90802 3.45544 7.82652 3.45544H7.83399C8.15216 3.46689 8.41059 3.46639 8.61773 3.45544C10.2838 3.36183 11.5097 2.66672 13.0821 1.23071C13.1429 1.17544 13.231 1.161 13.3062 1.19386C13.3819 1.22723 13.4307 1.30191 13.4307 1.38457V2.49196C13.4307 2.54922 13.4068 2.60449 13.3644 2.64382C12.4054 3.53909 11.5231 4.15004 10.4989 4.52448V11.4611C11.5231 11.842 12.4054 12.4609 13.3644 13.3562C13.4068 13.3955 13.4307 13.4508 13.4307 13.5085V14.6154C13.4307 14.6981 13.3819 14.7728 13.3062 14.8061C13.231 14.839 13.1429 14.8245 13.0821 14.7693C11.5097 13.3333 10.2838 12.6182 8.61872 12.5246C8.41059 12.5137 8.15216 12.5132 7.83399 12.5246H7.82652C5.90802 12.5246 4.53425 13.2377 2.92082 14.7663C2.86042 14.8236 2.77174 14.8395 2.69531 14.8066C2.61888 14.7738 2.56934 14.6986 2.56934 14.6154V13.4503C2.56934 13.3905 2.59517 13.3333 2.64024 13.2939C3.44379 12.5889 4.34653 12.0282 5.34985 11.6119C5.40113 11.5905 5.45142 11.5696 5.50072 11.5497V4.45029ZM6.8008 4.85411V11.1334C7.11748 11.0717 7.43715 11.0448 7.82005 11.0448C8.12578 11.0269 8.39465 11.0289 8.64312 11.0448L8.65059 11.0458C8.8393 11.0652 9.02204 11.0896 9.1993 11.1195V4.86108C9.02204 4.89096 8.8393 4.91486 8.65059 4.93428L8.64312 4.93527C8.39465 4.9512 8.12578 4.95319 7.82005 4.93527C7.43715 4.93527 7.11748 4.91187 6.8008 4.85411Z" fill="currentColor" />
</svg>
