<svg width="16" height="16" viewBox="0 0 16 16" fill="none" xmlns="http://www.w3.org/2000/svg">
<path fill-rule="evenodd" clip-rule="evenodd" d="M12.4913 12.5385L12.3268 13.2223L3.65727 13.2505L3.50873 12.5594L6.22548 11.5368L6.37647 10.2073C5.93576 9.83896 5.62516 9.30371 5.41769 8.6543C3.66709 6.65817 4.67007 2.74939 8.11848 2.74939C11.6786 2.74939 12.4753 6.94789 10.5737 8.86422C10.397 9.44244 10.1269 9.9249 9.72668 10.2625L9.94029 11.5503L12.4913 12.5385ZM9.20862 11.7393C9.18775 11.4815 9.15338 10.9512 9.13128 10.6161C8.80825 10.7344 8.46616 10.7923 8.12217 10.7867C7.74451 10.7921 7.36937 10.7245 7.0173 10.5878C6.99643 10.9561 6.96083 11.5785 6.94855 11.851C6.90681 12.6772 9.2786 12.692 9.20862 11.7393ZM10.2435 6.5219C10.1928 6.37781 10.1194 6.24271 10.0262 6.12169C9.76965 6.43106 9.29824 6.83617 8.92135 6.89019C9.0699 6.33653 9.17793 5.60854 9.0834 5.29427C8.51624 6.10328 7.14865 6.846 5.75529 6.66431C5.89893 8.85317 6.56921 10.0869 8.0792 10.0869C9.61497 10.0919 10.1465 8.74269 10.2435 6.5219Z" fill="currentColor"/>
</svg>
