<svg width="16" height="16" viewBox="0 0 16 16" fill="none" xmlns="http://www.w3.org/2000/svg">
<path fill-rule="evenodd" clip-rule="evenodd" d="M12.9007 5.01919C12.1868 7.52398 10.5806 9.11629 7.96788 9.11629C5.2909 9.11629 3.68471 7.46771 3.01368 4.85798L2 3.93484L2.67995 2.80639C2.64783 2.38512 2.62998 1.95016 2.62998 1.5L13.3379 1.51217C13.3379 1.95321 13.32 2.37904 13.2861 2.7927L14 3.97286L12.9007 5.01919ZM5.13385 2.7638L4.25223 4.01088L5.15526 5.18344L5.98156 3.98046L5.13385 2.7638ZM8.04105 2.7638L7.03629 4.10061L8.08209 5.4587L9.04045 4.06259L8.04105 2.7638ZM11.0143 2.7638L10.1416 4.01088L11.0339 5.18344L11.8602 3.98046L11.0143 2.7638ZM7.10767 12.1214L7.32362 9.94209H8.64604L8.9191 12.1138C13.2754 13.0126 13.1719 14.5 8.11779 14.5C2.57644 14.5 2.46758 13.2027 7.10767 12.1214Z" fill="currentColor"/>
</svg>
