<svg width="16" height="16" viewBox="0 0 16 16" fill="none" xmlns="http://www.w3.org/2000/svg">
<path fill-rule="evenodd" clip-rule="evenodd" d="M4.51847 3.00218C4.81478 2.38463 5.14607 1.87769 5.51062 1.4798C5.53978 1.44814 5.57843 1.42665 5.62084 1.41883L6.62291 1.232C6.69588 1.21872 6.77038 1.24685 6.81607 1.30509C7.17968 1.7706 7.44359 2.35102 7.6045 3.04713C7.85285 2.5183 8.19426 1.99769 8.6294 1.48567C8.65887 1.45088 8.69937 1.42743 8.74408 1.41883L9.73235 1.23239C9.8083 1.21793 9.88565 1.24881 9.93075 1.31174C10.5088 2.11611 10.7974 3.00492 10.7974 3.97776V4.89744C10.9643 4.53551 11.1364 4.2279 11.3132 3.97463C11.3364 3.9414 11.3693 3.916 11.4074 3.90193L12.2506 3.59081C12.3379 3.55876 12.4361 3.5912 12.4865 3.66976C13.2364 4.83255 13.6102 6.05515 13.6102 7.33676C13.6102 8.35415 13.3853 9.31018 12.9359 10.2041C12.5039 11.0636 11.8636 11.8664 11.0133 12.6111C11.1175 13.1558 11.4534 13.7657 12.0103 14.4464C12.059 14.5059 12.069 14.588 12.0361 14.6575C12.0032 14.727 11.9332 14.7712 11.8563 14.7712H10.6538C10.5929 14.7712 10.5353 14.7433 10.4976 14.6954C10.2312 14.3571 9.98989 13.9221 9.77566 13.3893C9.15643 13.7064 8.41857 13.9343 7.56139 14.0708C7.5039 14.0799 7.44527 14.0634 7.40099 14.0256C7.3567 13.9878 7.33122 13.9325 7.33122 13.8743V12.9966C7.33122 12.9022 7.39762 12.8208 7.4901 12.8018C8.28123 12.6394 8.93915 12.4143 9.46286 12.1243C9.40548 11.7167 9.37683 11.3071 9.37683 10.8959V4.67582C9.37683 3.86324 9.28264 3.21676 9.086 2.73836C8.484 3.47277 8.03347 4.45929 7.72899 5.69517V11.8425C7.72899 11.9524 7.63995 12.0415 7.53012 12.0415H6.50038C6.39055 12.0415 6.30147 11.9524 6.30147 11.8425V5.02134C6.30147 4.00316 6.20845 3.24373 6.00943 2.74578C5.4217 3.49622 4.97038 4.40066 4.65363 5.45831V11.8425C4.65363 11.9524 4.5646 12.0415 4.45473 12.0415H3.43194C3.32207 12.0415 3.23303 11.9524 3.23303 11.8425V4.41317C3.23303 3.42665 2.96342 2.53042 2.42357 1.72526C2.38269 1.6639 2.37874 1.58533 2.41329 1.52084C2.44788 1.45596 2.51534 1.41531 2.58879 1.41531H3.66688C3.73047 1.41531 3.79023 1.4458 3.82768 1.49739C4.1284 1.91013 4.3594 2.4116 4.51847 3.00218ZM11.8027 5.40047C11.404 5.96799 11.0697 6.68403 10.7974 7.54704V11.0632C11.2103 10.5812 11.5313 10.0724 11.7598 9.53571C12.0465 8.86226 12.1896 8.14778 12.1896 7.39187C12.1896 6.70983 12.0605 6.04616 11.8027 5.40047Z" fill="currentColor"/>
</svg>
