<svg width="16" height="16" viewBox="0 0 16 16" fill="none" xmlns="http://www.w3.org/2000/svg">
<path d="M14.4774 9.7247C14.4774 9.7247 14.8163 10.135 15.1563 9.59907C15.1563 9.59907 14.4518 9.7529 14.4198 9.11806C14.4003 8.73134 14.4864 8.23614 14.5378 7.98243C14.861 7.29646 15.1003 6.53148 15.1369 5.65589C15.1792 4.64088 14.7425 3.93626 14.0356 3.79508C13.1884 3.62592 12.4321 4.03447 11.8753 5.27527C11.2275 6.71893 11.2343 8.14167 9.85401 9.97442C9.84805 9.98229 9.84191 9.99038 9.83577 9.99843C9.56094 9.96418 8.43158 9.85188 7.68271 10.207C7.23259 10.4205 7.03045 10.6381 7.20329 11.0835C7.20329 11.0835 7.28576 10.5838 7.74648 10.5481C7.74648 10.5481 7.22403 10.8058 7.68271 11.3077C7.68271 11.3077 7.69099 10.7008 8.16108 10.5701C8.16108 10.5701 7.87116 11.0164 8.48435 11.1802C8.48435 11.1802 8.12651 10.5542 8.7226 10.3335C9.17682 10.1653 9.53452 10.2588 9.60797 10.2815C8.92642 11.0794 7.55994 12.2538 4.84869 12.5619C3.21517 12.7476 3.15954 11.8267 3.4249 11.4748C4.08162 10.6039 6.4536 10.7308 8.30322 9.67353C11.1597 8.04074 10.6046 6.41713 9.71514 5.66999C9.39729 5.40303 8.53661 5.21518 7.981 5.12043C8.86474 4.60313 9.02353 3.69637 9.02353 3.69637C8.48517 4.47754 6.76681 4.79708 6.76681 4.79708C7.98523 4.17215 8.18337 2.51198 8.18337 2.51198C7.53165 3.79303 6.5116 3.94927 6.5116 3.94927C6.98956 2.74955 6.86024 2.16761 6.86024 2.16761C5.80411 4.79712 2.89741 5.61104 1.97792 5.94904C1.68081 6.05825 1.54972 5.77074 1.33325 5.68368C1.16714 4.62805 1.02099 2.7405 1.6466 2.13304C1.83878 1.94641 2.09441 1.89406 2.42814 1.97297C2.8607 2.07527 3.22113 2.27641 3.56973 2.4709C4.29509 2.87563 4.98019 3.25785 5.93861 2.42724C6.50368 1.93749 7.27161 1.70556 8.15944 1.75678C8.95662 1.80268 9.84309 2.07854 10.6556 2.53358C11.8258 3.1888 12.8267 3.05398 13.4602 2.82551C14.1459 2.57825 14.5521 2.17716 14.569 2.16019C14.6364 2.09287 14.6364 1.98371 14.569 1.91634C14.5017 1.84903 14.3925 1.84903 14.3252 1.91634C14.3215 1.91994 13.9573 2.27968 13.3432 2.50111C12.52 2.79803 11.6724 2.70775 10.8241 2.23265C9.96686 1.7526 9.02758 1.46135 8.17927 1.4125C7.19997 1.3561 6.34707 1.61682 5.71278 2.1666C4.93698 2.83897 4.43395 2.55823 3.7378 2.16979C3.38579 1.97338 2.98679 1.75073 2.50751 1.63738C2.05624 1.53063 1.68577 1.61423 1.40626 1.88573C0.614719 2.65453 0.845284 4.79125 0.991884 5.72726C0.989928 5.72835 0.98811 5.72917 0.986154 5.7303C0.784289 5.8482 0.735346 6.67085 1.35454 6.79266C1.95067 6.90997 2.79966 6.60522 5.91655 6.32398C4.66975 6.8552 2.51629 7.63633 2.40294 8.2925C2.28959 8.94867 3.13966 9.51106 3.13966 9.51106C3.13966 9.51106 2.26125 8.47999 4.66975 7.51133C7.0783 6.54272 8.57896 7.26321 8.57896 7.26321C8.23709 6.76924 7.88089 6.45921 7.58123 6.26512C8.5115 6.15054 9.38773 6.54904 9.0939 7.5872C8.79042 8.65925 6.65501 9.09787 4.85815 9.50437C4.31019 9.62836 3.83104 9.77678 3.4169 9.9474C3.01626 9.70105 2.33416 9.34267 1.71633 9.3136C1.21867 9.29023 0.937939 9.38715 0.8809 9.86152C0.8809 9.86152 1.18874 9.45934 1.61212 9.6446C1.61212 9.6446 1.02987 9.62623 1.19843 10.2849C1.19843 10.2849 1.49132 9.75327 1.96764 9.85911C1.96764 9.85911 1.50182 10.1165 1.96582 10.5495C1.96582 10.5495 1.94462 9.82873 2.57446 9.91442C2.79748 9.94481 2.9484 10.027 3.0496 10.113C1.91788 10.672 1.38424 11.4323 1.39211 12.3469C1.39998 13.2564 2.13857 14.0115 2.80339 14.1772C5.0385 14.7341 7.19288 13.9709 8.82703 12.7904C8.67534 13.0668 8.5397 13.3744 8.47211 13.6782C8.36395 14.1645 8.41143 14.4577 8.86906 14.595C8.86906 14.595 8.52547 14.223 8.78041 13.8375C8.78041 13.8375 8.6627 14.408 9.34052 14.3546C9.34052 14.3546 8.86679 13.9751 9.05255 13.5239C9.05255 13.5239 9.22653 14.0269 9.73247 13.6438C9.73247 13.6438 9.01871 13.5414 9.21089 12.9355C9.31751 12.5994 9.57918 12.2416 9.75035 12.0313C10.1432 11.6646 10.4887 11.2795 10.7769 10.8958C12.5881 8.48395 12.3836 5.82505 13.612 5.82505C14.2222 5.82505 13.7926 7.05052 13.1646 8.28195C12.0545 10.4588 11.0622 11.2027 10.8651 12.555C10.6849 13.7906 12.2515 15.001 14.0356 14.1141C14.0356 14.1141 10.6782 13.9635 13.4002 9.88499C13.6116 9.56828 13.8352 9.23628 14.0493 8.88327C13.9797 9.29891 13.9402 9.73266 13.9876 10.0723C14.0565 10.5658 14.2035 10.8238 14.6802 10.7923C14.6802 10.7923 14.2282 10.564 14.3321 10.1136C14.3321 10.1136 14.4215 10.6893 15.0378 10.4021C15.0378 10.4021 14.4612 10.2124 14.4774 9.7247V9.7247ZM6.03827 5.66053C5.94798 5.89396 5.65301 6.0009 5.44132 5.91925C5.22968 5.8376 5.08999 5.55373 5.18033 5.3203C5.27061 5.08691 5.55667 4.99235 5.76836 5.07399C5.98005 5.15564 6.12856 5.42714 6.03827 5.66053Z" fill="currentColor" />
</svg>
