<svg width="65" height="65" viewBox="0 0 65 65" fill="none" xmlns="http://www.w3.org/2000/svg">
<path d="M13.0649 47.5416C12.8642 47.2228 13.3684 46.931 13.568 47.2474C13.6801 47.4249 13.7952 47.6014 13.9105 47.7782C14.2977 48.3718 14.6869 48.9684 14.9707 49.6162C15.0358 49.7659 14.8735 49.9 14.7447 49.7909C14.1354 49.2734 13.7112 48.586 13.2934 47.909C13.2174 47.7858 13.1415 47.663 13.0649 47.5416Z" fill="currentColor"/>
<path d="M15.2889 45.2483C15.0269 44.8673 14.7428 44.5248 14.366 44.2535C14.001 43.9904 13.6616 44.5907 14.0153 44.8534C14.3029 45.067 14.4983 45.3563 14.6947 45.6469C14.7415 45.7162 14.7886 45.7858 14.8368 45.8542C14.8666 45.8966 14.8975 45.9421 14.9296 45.9893C15.1129 46.2588 15.3342 46.5842 15.6055 46.7173C15.7859 46.806 15.985 46.6604 15.9405 46.4598C15.8536 46.0687 15.5389 45.6115 15.3086 45.2769L15.2889 45.2483Z" fill="currentColor"/>
<path d="M19.0634 53.5583C18.8883 53.3442 19.1879 53.0359 19.371 53.2505C21.1096 55.2925 22.7219 57.5181 24.24 59.726C24.4081 59.9702 24.0479 60.2091 23.8491 60.0278C22.6586 58.9431 21.7768 57.5672 20.8974 56.1951C20.3147 55.2859 19.7331 54.3783 19.0634 53.5583Z" fill="currentColor"/>
<path d="M21.1003 58.956L21.0997 58.9554C21.044 58.9009 20.9881 58.8462 20.9332 58.7912C20.6933 58.5517 20.3209 58.9237 20.5608 59.1636C20.6161 59.2187 20.6708 59.2747 20.7256 59.3307C20.8512 59.459 20.977 59.5876 21.1099 59.7074C21.1413 59.7357 21.173 59.7655 21.2051 59.7956C21.3489 59.9306 21.5021 60.0743 21.681 60.1401C21.8094 60.1876 21.9572 60.0398 21.9097 59.9114C21.8434 59.7315 21.6993 59.578 21.5639 59.4339C21.5342 59.4023 21.505 59.3711 21.4771 59.3403C21.3572 59.2074 21.2286 59.0815 21.1003 58.956Z" fill="currentColor"/>
<path d="M20.4091 51.5977L20.4089 51.5975C20.3592 51.5434 20.3096 51.4894 20.2573 51.4391C20.2003 51.3845 20.1446 51.3288 20.0889 51.2731C20.0075 51.1917 19.9261 51.1104 19.8408 51.0326C19.6499 50.859 19.9336 50.5768 20.1237 50.7497C20.4134 51.0139 20.7401 51.3504 20.8584 51.7347C20.8962 51.8568 20.7484 51.9122 20.6649 51.8474C20.5717 51.7746 20.4902 51.686 20.4091 51.5977Z" fill="currentColor"/>
<path d="M20.8669 25.8416C18.8509 28.3871 16.6301 30.9283 14.2523 33.1413C14.0248 33.3533 13.6885 33.02 13.9099 32.799C14.8491 31.8603 15.7009 30.818 16.5535 29.7749C17.7948 28.2561 19.0377 26.7353 20.5542 25.5292C20.7784 25.3504 21.0442 25.6175 20.8669 25.8416Z" fill="currentColor"/>
<path d="M19.4764 29.8421C18.4591 30.8035 17.5405 31.8762 16.6223 32.9485C15.936 33.7501 15.2499 34.5513 14.5228 35.3057C14.3441 35.4912 14.6233 35.7713 14.8056 35.5886C15.0597 35.3339 15.3173 35.0787 15.5763 34.8221L15.5768 34.8217C17.0736 33.3386 18.6171 31.8095 19.7906 30.084C19.9218 29.8911 19.6369 29.6904 19.4764 29.8421Z" fill="currentColor"/>
<path d="M13.9748 25.7307C15.535 23.7385 17.1127 21.7239 19.2555 20.4644C19.3964 20.3815 19.5331 20.5706 19.4258 20.6845C18.6846 21.4716 17.9483 22.2687 17.211 23.0668L17.2107 23.0672C15.3808 25.0482 13.5444 27.0361 11.6108 28.8969C11.5068 28.9971 11.3517 28.8423 11.452 28.7383C12.341 27.817 13.1556 26.7769 13.9748 25.7307Z" fill="currentColor"/>
<path d="M17.8942 19.6797C18.8346 18.6919 19.7744 17.7048 20.6431 16.6575C20.8219 16.4421 20.5561 16.1853 20.3406 16.3547C18.4276 17.8543 16.8177 19.855 15.2828 21.7624L15.2823 21.7631L15.2802 21.7657L15.2798 21.7662L15.2757 21.7712L15.2754 21.7717L15.2739 21.7735C15.1098 21.9774 14.9466 22.1802 14.784 22.3812C14.5908 22.6206 14.9268 22.9648 15.1266 22.7236C16.0019 21.6672 16.9482 20.6733 17.8937 19.6802L17.8942 19.6797Z" fill="currentColor"/>
<path d="M34.1029 32.0254C33.8885 31.7769 33.6758 31.5303 33.4596 31.2944C33.192 31.0021 33.6242 30.5666 33.8966 30.8574C34.0793 31.0531 34.2668 31.2485 34.4555 31.4451C35.2201 32.2419 36.0038 33.0584 36.5643 33.9936C36.6342 34.11 36.494 34.253 36.3773 34.1813C35.4934 33.6372 34.7898 32.8217 34.1029 32.0254Z" fill="currentColor"/>
<path d="M33.2586 27.8523C33.0349 27.6609 32.7116 27.9736 32.9313 28.1799C33.1426 28.3782 33.3395 28.6069 33.538 28.8373C33.9088 29.2677 34.285 29.7046 34.7708 29.9618C34.9006 30.0304 35.0337 29.8936 34.9677 29.765C34.5896 29.0261 33.8813 28.3849 33.2586 27.8523Z" fill="currentColor"/>
<path d="M34.8431 27.4658C34.9008 27.6243 34.6954 27.6954 34.591 27.6129C33.8477 27.0238 33.2551 26.2348 32.6843 25.4747C32.6442 25.4213 32.6042 25.3681 32.5643 25.3151C32.3746 25.0633 32.8038 24.7366 32.9997 24.9791C33.177 25.1984 33.3691 25.4107 33.5618 25.6239C34.0699 26.1858 34.5827 26.7529 34.8431 27.4658Z" fill="currentColor"/>
<path d="M31.4855 34.6363C31.6142 34.7226 31.79 34.5493 31.7016 34.4202C31.0526 33.4747 30.2915 32.6021 29.5339 31.7336C29.2487 31.4065 28.9638 31.08 28.6857 30.7504C28.3886 30.3975 27.8834 30.9064 28.1797 31.2561C28.3342 31.4386 28.488 31.6235 28.6423 31.8092C29.4986 32.8391 30.372 33.8898 31.4855 34.6363Z" fill="currentColor"/>
<path d="M24.1242 21.1057C24.6153 21.5316 25.0625 22.0021 25.5027 22.4793C25.5777 22.5606 25.6553 22.6424 25.7336 22.7251C26.0764 23.0863 26.4347 23.4641 26.6625 23.8944C26.746 24.052 26.6026 24.3113 26.405 24.2294C25.8459 23.9981 25.4349 23.5119 25.0614 23.0515C25.0267 23.0088 24.992 22.966 24.9574 22.9232L24.9558 22.9213C24.561 22.4339 24.1692 21.9502 23.7077 21.5223C23.4266 21.2625 23.8402 20.8594 24.1242 21.1057Z" fill="currentColor"/>
<path d="M25.0317 20.6879C25.299 21.0369 25.5791 21.4026 25.9054 21.6559C26.1 21.8067 26.4691 21.6787 26.3687 21.386C26.1965 20.8834 25.785 20.4247 25.4282 20.027L25.3893 19.9836C25.1722 19.7411 24.9472 19.5064 24.7223 19.2718C24.4961 19.0357 24.2698 18.7996 24.0516 18.5558C23.796 18.2702 23.3937 18.6857 23.6347 18.9727C24.0131 19.4233 24.3855 19.8803 24.7571 20.3366C24.8478 20.4477 24.9386 20.5663 25.0309 20.6868L25.0314 20.6874L25.0317 20.6879Z" fill="currentColor"/>
<path d="M29.7012 19.5964C29.5586 19.7214 29.4138 19.8427 29.2603 19.9539C29.0556 20.1021 28.8572 19.7604 29.062 19.6144C29.2023 19.5142 29.3326 19.4019 29.4631 19.2895L29.4913 19.2652C29.5098 19.2492 29.5282 19.2331 29.5466 19.2169C29.6602 19.1171 29.7722 19.0187 29.9194 18.9729C30.0512 18.9317 30.1784 19.0927 30.1021 19.2098C30.0242 19.329 29.9132 19.4203 29.8032 19.5109C29.7687 19.5392 29.7344 19.5674 29.7012 19.5964Z" fill="currentColor"/>
<path d="M21.1413 42.7474C20.8883 42.4181 20.3179 42.7343 20.5717 43.0805C20.7882 43.3754 20.9909 43.6791 21.1936 43.9829L21.1937 43.9831C21.3491 44.2159 21.5045 44.4488 21.666 44.6775C21.986 45.1304 22.315 45.5881 22.8862 45.7056C23.0156 45.7326 23.1377 45.6252 23.1017 45.4901C22.9883 45.0599 22.7136 44.7388 22.433 44.4108C22.3774 44.3458 22.3216 44.2806 22.2667 44.2142C22.0071 43.8993 21.763 43.5734 21.5188 43.2472C21.3937 43.0802 21.2686 42.9131 21.1413 42.7474Z" fill="currentColor"/>
<path d="M22.0522 40.9877C22.3267 41.2845 22.612 41.5932 22.8413 41.9259C22.8625 41.9566 22.8848 41.9885 22.9078 42.0215C23.1001 42.2968 23.3437 42.6457 23.3978 42.9551C23.4375 43.1812 23.232 43.344 23.0217 43.2445C22.7917 43.1357 22.5882 42.9078 22.4013 42.6985C22.3361 42.6255 22.273 42.5548 22.2114 42.4922C22.0605 42.3388 21.9229 42.1704 21.7854 42.0019C21.6681 41.8583 21.5507 41.7145 21.4251 41.5801C21.0456 41.1744 21.6579 40.5613 22.0355 40.9696L22.0522 40.9877Z" fill="currentColor"/>
<path d="M43.3282 47.5152C43.1772 47.7101 43.026 47.9053 42.8729 48.0995L42.8078 48.1819L42.8076 48.1822C42.0216 49.1786 41.2551 50.1502 40.6291 51.2613C40.5449 51.411 40.7751 51.5454 40.8597 51.3956C41.3568 50.5129 42.0338 49.7506 42.7081 48.9913L42.7086 48.9909C42.9752 48.6906 43.2415 48.3907 43.496 48.0841C44.0074 47.4682 44.5021 46.84 44.9968 46.2117C45.3538 45.7585 45.7107 45.3052 46.074 44.8564C46.1713 44.7359 46.0257 44.5914 45.9052 44.6876C44.8918 45.4966 44.1133 46.5018 43.3287 47.5147L43.3282 47.5152Z" fill="currentColor"/>
<path d="M52.5045 31.7627C51.6998 32.6764 50.8769 33.5825 50.0282 34.4589C49.7106 34.7872 49.2023 34.2789 49.5272 33.9577C49.7252 33.7619 49.9194 33.5573 50.1146 33.3517C50.7777 32.6529 51.4516 31.9427 52.3258 31.5315C52.4776 31.4599 52.6175 31.6344 52.5045 31.7627Z" fill="currentColor"/>
<path d="M50.4867 36.5686C49.9342 37.1278 49.4308 37.7333 49.0195 38.404C48.8822 38.6282 49.2325 38.8314 49.371 38.6095C49.7879 37.9407 50.3223 37.3602 50.8935 36.8197C51.1094 36.6154 51.3448 36.4238 51.5806 36.2318C51.918 35.9572 52.2562 35.6819 52.5395 35.3676C52.6907 35.1995 52.5025 34.9581 52.3015 35.0588C51.6576 35.3813 51.0786 35.9684 50.57 36.4842L50.4867 36.5686Z" fill="currentColor"/>
<path d="M45.3214 54.9735L45.3216 54.9733C47.1447 53.4726 48.9873 51.9558 50.5566 50.2133C50.6454 50.1149 50.5287 49.9374 50.4081 50.0206C48.7043 51.1913 47.1593 52.5983 45.6207 53.9996C44.9282 54.6302 44.237 55.2597 43.5332 55.8659C43.31 56.0586 43.6332 56.3763 43.856 56.1886C44.3392 55.782 44.8296 55.3784 45.3214 54.9735Z" fill="currentColor"/>
<path d="M51.1068 44.5608C50.1345 46.0305 48.4301 47.2746 46.9648 48.2226C46.7451 48.3648 46.5587 48.0254 46.7627 47.8772C47.5498 47.3064 48.277 46.6443 48.9739 45.9669C49.15 45.7957 49.3231 45.616 49.4971 45.4354C49.9064 45.0106 50.3207 44.5805 50.7902 44.2441C50.9792 44.1083 51.2307 44.3736 51.1068 44.5608Z" fill="currentColor"/>
<path fill-rule="evenodd" clip-rule="evenodd" d="M0.644531 32.1376C0.644531 14.4647 14.9712 0.137634 32.6445 0.137634C50.3175 0.137634 64.6445 14.4647 64.6445 32.1376C64.6445 49.811 50.3175 64.1376 32.6445 64.1376C14.9712 64.1376 0.644531 49.811 0.644531 32.1376ZM62.3908 39.7783C62.4898 39.8552 62.5895 39.9327 62.6897 40.0111C63.3469 37.4964 63.6991 34.8582 63.6991 32.1376C63.6991 31.7214 63.6842 31.309 63.6677 30.8962C62.6897 30.2012 61.7645 29.4526 60.9295 28.5869C60.4993 28.1408 60.1302 27.6404 59.7625 27.1418C59.4061 26.6588 59.051 26.1774 58.6428 25.7485C58.2461 25.3313 57.7287 25.0851 57.2179 24.8421C56.6481 24.571 56.0865 24.3038 55.7096 23.8075C55.5824 23.64 55.5275 23.4521 55.4708 23.258C55.4237 23.0969 55.3753 22.9314 55.2833 22.7697C55.1059 22.4575 54.8675 22.2109 54.601 21.9964C54.6626 22.227 54.7275 22.4589 54.7926 22.6918L54.7927 22.6923C55.186 24.0984 55.59 25.5432 55.3541 26.9825C55.2808 27.4309 55.0762 27.7853 54.8751 28.1337C54.7051 28.4281 54.5376 28.7183 54.4539 29.0574C53.9513 29.7711 54.1994 30.2977 55.1991 30.6368C55.3743 30.709 55.5487 30.7824 55.7231 30.8561C55.8209 30.9186 55.9209 30.9698 56.0197 31.0203C56.1972 31.1111 56.3707 31.1998 56.5203 31.3487C56.9421 31.769 56.9709 31.9872 56.8699 32.5598C56.8158 32.8658 56.7202 33.0417 56.6425 33.1848C56.4874 33.4704 56.4033 33.6252 56.8616 34.4237C57.1173 34.8697 57.5619 35.2488 57.9599 35.5882L57.9975 35.6203C58.0203 35.6397 58.0429 35.659 58.0653 35.6782L58.1374 35.7401L58.2397 35.8276C58.8376 36.3391 59.3908 36.8124 59.8816 37.4485C60.6131 38.3965 61.4721 39.0642 62.3899 39.7776L62.3908 39.7783ZM54.869 52.6423C54.7092 53.2131 54.448 53.9051 54.1055 54.5713C55.9162 52.8388 57.5162 50.8908 58.8666 48.7664C58.6169 48.538 58.3825 48.2966 58.1486 48.0558C57.6961 47.5897 57.2455 47.1258 56.6906 46.7626C56.2085 46.4467 56.6591 45.669 57.1442 45.9867C57.7473 46.3819 58.2358 46.8783 58.7275 47.3778C58.9306 47.5842 59.1343 47.7911 59.3468 47.9917C60.6672 45.7723 61.7155 43.3736 62.4539 40.842C62.3596 40.8394 62.2631 40.8094 62.1736 40.7391C61.9145 40.5354 61.6311 40.3337 61.3422 40.128L61.3409 40.1271C61.2304 40.0484 61.1192 39.9692 61.0081 39.8891C60.8343 40.624 60.1957 41.0994 59.4631 41.6447C59.3722 41.7123 59.28 41.781 59.1869 41.8514C58.7257 42.2002 58.47 42.6012 58.2369 42.9669C57.8951 43.503 57.6018 43.9631 56.7804 44.0712C56.4528 44.1144 56.3776 44.0189 56.3059 43.928C56.2025 43.7967 56.1065 43.6748 55.2695 43.993C55.0249 44.0858 54.7725 44.3123 54.5379 44.5229C54.4122 44.6357 54.2915 44.744 54.18 44.8246C53.9919 44.9606 53.7393 45.1023 53.4658 45.2557C52.5415 45.774 51.3788 46.4261 51.663 47.4467C51.7828 47.8773 52.0755 48.2319 52.3755 48.5955C52.709 48.9997 53.0517 49.4149 53.1762 49.9577C53.2168 50.1346 53.2191 50.3317 53.2214 50.5294C53.2252 50.8509 53.2289 51.1743 53.3974 51.4162C53.5639 51.6555 53.9473 51.8143 54.2884 51.9555C54.4226 52.0111 54.5503 52.064 54.6557 52.118C54.8364 52.2104 54.9218 52.4541 54.869 52.6423ZM4.77704 40.2325C3.82427 38.3477 2.87148 36.4629 1.70334 34.7044C3.00954 50.6538 16.3582 63.1926 32.6445 63.1926C35.4426 63.1926 38.1519 62.8165 40.731 62.1226C40.0005 61.5266 39.3576 60.8388 38.7151 60.1514L38.7147 60.151C38.1058 59.4995 37.4971 58.8483 36.8146 58.2762C36.7083 58.4828 36.4363 58.582 36.205 58.3814C35.5717 57.8327 35.1377 57.1393 34.7016 56.4425C34.3867 55.9393 34.0706 55.4342 33.6775 54.9808C33.1594 54.3828 32.5333 53.9191 31.9056 53.4542L31.9053 53.454L31.9045 53.4534C31.6062 53.2325 31.3074 53.0112 31.0198 52.7752C29.9993 51.938 29.3342 50.8819 28.6683 49.8246C28.3677 49.3472 28.0668 48.8695 27.733 48.4116C27.7502 48.6313 27.7551 48.8544 27.742 49.0842C27.7153 49.5467 27.6077 49.9961 27.5001 50.4457C27.378 50.9556 27.2559 51.4659 27.2517 51.996C27.2415 53.3288 27.6251 54.7098 28.0027 56.0689C28.2219 56.8577 28.439 57.6392 28.5759 58.3997C28.6421 58.7684 28.1956 59.1149 27.8995 58.7938C27.6217 58.4923 27.3079 58.2048 26.9917 57.915C26.3179 57.2977 25.6325 56.6697 25.2583 55.873C25.127 55.5927 25.4196 55.1874 25.7288 55.4026C26.5144 55.949 27.2547 56.6683 27.8846 57.4375C27.8617 56.4529 27.4973 55.5329 27.1314 54.6094C26.8089 53.7954 26.4854 52.9786 26.3935 52.1124C26.3119 51.3435 26.3853 50.6149 26.4583 49.8899C26.547 49.008 26.6353 48.1314 26.4436 47.1937C25.749 47.8648 25.1487 48.6014 24.5985 49.4139C24.3069 49.8439 23.707 49.6433 23.5973 49.2709C21.821 48.3498 19.9886 46.9823 18.7494 45.4433C18.3853 44.9911 18.0726 44.5106 17.7609 44.0316C17.2972 43.319 16.8356 42.6096 16.2096 42.0011C15.4315 41.2452 14.5154 40.7004 13.5953 40.1532C13.3807 40.0255 13.1658 39.8977 12.9524 39.7671C11.4074 38.8206 10.3531 37.7603 9.4189 36.2239C9.29204 36.0153 9.15794 35.7756 9.01494 35.5199C8.2175 34.094 7.1434 32.1735 5.50741 32.4112C7.03517 35.5914 8.15236 39.0721 8.80771 42.5311C8.83305 42.6649 8.90062 42.9328 8.98878 43.2823C9.3721 44.8019 10.1447 47.8649 9.52856 48.165C9.24973 48.3008 9.00083 47.7862 8.79237 47.053C8.76018 47.0279 8.72949 46.9991 8.7018 46.9632C7.12502 44.8773 5.95105 42.555 4.77704 40.2325ZM11.0892 20.8207C8.48135 22.2038 5.7986 23.6265 2.8864 23.2525C2.04691 26.0685 1.58956 29.0488 1.58956 32.1376C1.58956 32.382 1.59776 32.6243 1.60597 32.8667C1.60871 32.9476 1.61145 33.0286 1.61389 33.1096C1.67676 33.1407 1.73552 33.1863 1.78493 33.253C2.04916 33.6111 2.29917 33.9779 2.54282 34.3484C3.41518 33.3917 4.06176 32.2868 4.7051 31.1875C5.40068 29.9989 6.09247 28.8167 7.06175 27.8354C7.64309 27.2472 8.32466 26.7991 9.00847 26.3494C9.2628 26.1822 9.51743 26.0147 9.76734 25.8398C11.1536 24.8693 12.0193 23.7611 12.708 22.2221C13.1844 21.1573 13.6968 20.1906 14.2616 19.2695C13.2096 19.6962 12.1556 20.2552 11.0892 20.8207ZM14.5909 6.94559C14.5554 6.9542 14.5235 6.9527 14.4944 6.94596C12.7271 8.22147 11.0952 9.67251 9.6341 11.2834C14.957 7.61141 22.1452 7.20608 28.3726 8.08561C31.028 8.46058 33.753 9.13065 36.5089 9.80832C42.8332 11.3635 49.32 12.9585 55.4996 11.1187C54.3585 9.87836 53.1152 8.73571 51.7876 7.6945C50.2124 8.06996 48.4247 8.03668 46.7807 8.00607C46.4795 8.00046 46.183 7.99494 45.8937 7.99204C43.6297 7.96921 41.5331 7.74128 39.3627 7.0661C36.1544 6.0683 33.0948 5.2363 29.7103 5.08772C28.6694 5.04205 27.6252 5.04542 26.5814 5.08098L26.39 5.09848C26.2298 5.11316 26.0713 5.12767 25.9148 5.14161C24.6992 5.25127 23.4888 5.40472 22.2878 5.62067C21.3436 5.79074 20.3934 5.93301 19.4429 6.07531C17.8165 6.31882 16.1895 6.56243 14.5909 6.94559ZM48.8701 7.40055C49.6622 7.34479 50.4533 7.28909 51.2435 7.26671C46.0587 3.38329 39.6205 1.08266 32.6445 1.08266C26.2472 1.08266 20.303 3.01876 15.3619 6.33478C17.7861 5.73632 20.2199 5.27485 22.7043 4.96271C25.2625 4.64121 28.2012 4.41628 30.799 4.76023C32.9477 4.90844 35.0851 5.26512 37.1998 5.90811C39.9521 6.74498 42.4639 7.48117 45.3607 7.54105C46.5322 7.56514 47.7021 7.48277 48.8701 7.40055ZM53.6365 20.4309C53.7297 20.4118 53.8327 20.4249 53.9386 20.4893L54.0507 20.5572C54.7665 20.9904 55.4772 21.4205 55.9428 22.1379C56.0473 22.299 56.1323 22.4897 56.2186 22.6837C56.3724 23.0292 56.5308 23.385 56.813 23.6017C57.0396 23.7756 57.3453 23.8713 57.6514 23.967C57.8892 24.0413 58.1272 24.1158 58.3284 24.2271C59.0703 24.6376 59.5677 25.3706 60.057 26.0917C60.2949 26.4423 60.5309 26.79 60.7922 27.0966C61.6328 28.0832 62.5726 28.9462 63.597 29.7266C63.3069 25.9536 62.3458 22.3707 60.8274 19.0959C55.2515 20.4777 48.9477 19.9716 43.4695 18.4753C41.0213 17.8068 38.7396 16.8061 36.4321 15.7941C36.1119 15.6537 35.7912 15.513 35.4695 15.373C31.9922 13.8591 28.5317 13.0076 24.7276 13.2232L24.8095 13.3238C25.1342 13.7227 25.4608 14.1239 25.8119 14.5137C26.0361 14.7625 26.2823 15.0026 26.5304 15.2445C27.1637 15.8619 27.8096 16.4916 28.135 17.3121C28.1874 17.4442 28.2323 17.5793 28.2738 17.7159C28.7024 17.0804 29.4341 16.5471 29.985 16.2166C30.6265 15.8319 31.6475 15.3423 32.3092 15.8966C32.3998 15.9726 32.4043 16.0658 32.3638 16.1414C32.3897 16.2368 32.3867 16.3633 32.3522 16.522C32.4462 17.1006 32.6528 17.61 32.9249 18.0797C33.3336 18.4225 33.8157 18.6178 34.3167 18.8208C34.4497 18.8746 34.5841 18.9291 34.7187 18.9869C34.9317 19.0786 35.1383 19.1853 35.3438 19.2957C36.2553 19.6047 37.1561 19.934 38.0519 20.2614C42.3801 21.8433 46.5931 23.3831 51.3486 22.3992C51.9594 21.4534 52.83 20.3976 53.6365 20.4309ZM27.1806 46.3273C27.2285 46.3621 27.27 46.4085 27.3041 46.465C27.9472 47.2051 28.4822 47.9982 29.0127 48.7847L29.0542 48.8461C29.3044 48.5048 29.5316 48.1355 29.7598 47.7645C30.1908 47.064 30.6253 46.3577 31.2253 45.8228C31.5246 45.556 31.8282 45.3374 32.1195 45.1277C32.3571 44.9566 32.5865 44.7915 32.7987 44.6109C31.0305 43.4403 30.1108 41.5412 29.1961 39.6525C28.9153 39.0727 28.635 38.4938 28.3307 37.9373C28.01 37.5052 27.7055 37.0635 27.4008 36.6215L27.4007 36.6213L27.3996 36.6196C27.1998 36.3298 27 36.04 26.7955 35.7527C26.4212 35.3418 26.0114 34.9394 25.5922 34.5363C25.5941 34.8148 25.5226 35.0962 25.3392 35.3833C25.2478 35.5258 25.1111 35.6305 24.976 35.7341C24.8481 35.832 24.7216 35.9289 24.6359 36.0559C24.172 36.7437 24.3973 37.2913 24.6776 37.9725C24.705 38.0393 24.733 38.1073 24.7609 38.1768C25.2692 39.4426 25.4586 40.3648 25.4428 41.7268C25.4245 43.3099 25.4166 44.5982 26.3097 45.9407C26.499 45.8396 26.7599 45.877 26.9081 46.0309C26.9902 46.1159 27.0685 46.2028 27.1466 46.2896L27.1806 46.3273ZM18.0188 15.4899C17.3936 16.1779 16.7685 16.8658 16.1703 17.5778C15.2762 18.6411 14.3473 19.789 13.6912 21.0237C13.4202 21.533 13.2106 22.0677 13.0011 22.602C12.7415 23.2642 12.4821 23.9259 12.1065 24.5377C11.4396 25.6242 10.4606 26.3559 9.47792 27.0904C8.73284 27.6473 7.98567 28.2057 7.3709 28.9215C6.66315 29.7457 6.08378 30.645 5.5104 31.5474C7.7534 31.1393 9.01952 33.4224 10.1695 35.4962C10.7185 36.4861 11.241 37.4284 11.8307 38.0073C12.6856 38.8468 13.6687 39.4769 14.6507 40.1062C15.5871 40.7063 16.5224 41.3057 17.3444 42.0853C17.6508 41.6322 18.0456 41.2572 18.4426 40.8802C18.9706 40.3789 19.5022 39.874 19.8344 39.1769C20.0565 38.7108 20.219 38.2239 20.3814 37.7375C20.5908 37.1105 20.7998 36.4842 21.1358 35.9043C21.891 34.5999 23.0423 33.7432 24.2804 34.4162C24.063 33.6751 23.6369 32.9823 23.2103 32.2886L23.1748 32.2308C22.686 32.8127 22.0884 33.294 21.4945 33.7722C21.334 33.9015 21.1737 34.0305 21.016 34.1613C20.1035 34.9177 19.2124 35.6973 18.4208 36.581C18.2801 36.7381 18.0634 36.5106 18.1925 36.353C19.5066 34.7444 21.1354 32.9487 22.9611 31.8786C22.7758 31.5702 22.601 31.2596 22.4524 30.9418C22.4489 30.9354 22.4455 30.929 22.4421 30.9225L22.4366 30.912L22.4264 30.892C22.4216 30.8827 22.4168 30.8732 22.412 30.864C20.9602 32.5268 19.3297 33.9792 17.6975 35.433C16.6361 36.3784 15.5739 37.3246 14.5599 38.3295C14.4109 38.477 14.1946 38.2558 14.3315 38.1012C15.0563 37.2847 15.8587 36.5523 16.6618 35.8193L16.6623 35.8188L16.6628 35.8184C17.1425 35.3805 17.6227 34.9422 18.0866 34.4858C18.5443 34.0357 18.992 33.5763 19.4396 33.117L19.44 33.1166C20.3208 32.2129 21.201 31.3097 22.1545 30.48C22.1715 30.4657 22.1888 30.4573 22.2064 30.4487L22.2129 30.4456C21.9053 29.7236 21.7563 28.9406 21.8514 28.0682C21.8927 27.6893 21.9885 27.3159 22.0842 26.9423C22.2189 26.4168 22.3537 25.891 22.3375 25.3491C22.3248 24.9371 22.2361 24.5871 22.0988 24.2727C22.0658 24.2297 22.0452 24.1859 22.0381 24.1403C21.9008 23.8633 21.7241 23.6137 21.5269 23.3738C21.1833 23.6958 20.8359 24.0073 20.4902 24.3172C19.4229 25.2742 18.372 26.2164 17.499 27.4117C17.3152 27.6632 16.893 27.4263 17.0749 27.164C18.1416 25.6212 19.5331 23.9741 21.1163 22.9085L21.071 22.8596L20.989 22.7713L20.9888 22.7711C20.8204 22.5899 20.6487 22.4051 20.4819 22.209C19.9362 21.5675 19.1821 20.6524 19.6638 19.7609C19.827 19.459 20.1111 19.303 20.3962 19.1464C20.4366 19.1242 20.477 19.102 20.5171 19.0794C20.6301 19.0154 20.7689 18.9703 20.9092 18.9248C21.0979 18.8636 21.2894 18.8014 21.4254 18.6909C22.3435 17.9443 22.1123 17.1201 21.8698 16.2555C21.8413 16.1537 21.8125 16.0512 21.7855 15.9483C21.754 15.828 21.7217 15.7103 21.6898 15.5941C21.5345 15.028 21.3895 14.4991 21.391 13.8898C21.3918 13.5735 21.4269 13.2624 21.4618 12.954C21.513 12.5005 21.5637 12.0527 21.5033 11.6022C20.803 12.0586 20.1704 12.8868 19.5999 13.6337C19.3363 13.9789 19.0859 14.3067 18.8482 14.5724C18.5734 14.8795 18.2963 15.1844 18.0192 15.4894L18.019 15.4896L18.0188 15.4899ZM36.696 39.807C36.7118 39.809 36.7275 39.811 36.745 39.8184C37.7665 40.2421 38.1799 41.4061 38.5856 42.5489C38.7616 43.0445 38.9362 43.5361 39.1583 43.9615C39.1441 42.8885 39.3237 41.7998 39.6145 40.7746C39.6722 40.5707 39.7399 40.3689 39.8122 40.1683L39.8277 40.1043C39.8793 39.892 39.931 39.6795 39.9926 39.4673C40.2575 38.5492 40.4668 37.6031 40.3739 36.6405C40.3615 36.5129 40.3397 36.3873 40.318 36.2624C40.3018 36.1695 40.2858 36.0771 40.2736 35.9844C40.0169 36.1152 39.7558 36.2379 39.4947 36.3605L39.4943 36.3607C39.282 36.4605 39.0697 36.5602 38.8596 36.6644C38.8084 36.6898 38.7568 36.7151 38.7051 36.7405C38.3411 36.9191 37.9697 37.1015 37.6407 37.3377C37.0218 37.7831 36.9584 38.3022 36.8908 38.8563C36.8568 39.1352 36.8216 39.423 36.714 39.7147C36.7063 39.7353 36.6992 39.7527 36.6922 39.7699L36.6921 39.7703C36.6876 39.7814 36.6831 39.7926 36.6784 39.8045C36.6808 39.8049 36.6833 39.8053 36.6857 39.8057C36.689 39.8061 36.6926 39.8066 36.696 39.807ZM31.4375 29.584C31.643 30.0646 30.9667 30.3389 30.7833 29.8598L30.7463 29.7632C29.4245 26.3109 28.0921 22.831 27.7076 19.1325C27.5427 17.5436 26.8947 16.9384 25.966 16.071C25.7544 15.8733 25.5282 15.6621 25.2898 15.4224C24.8057 14.9358 24.3879 14.4025 23.9718 13.8715C23.4479 13.2028 22.9268 12.5376 22.2795 11.9735C22.2543 12.3108 22.2083 12.644 22.1623 12.9772C22.0454 13.8229 21.9286 14.6683 22.153 15.5785C22.1921 15.7367 22.2407 15.9059 22.2913 16.0822C22.5417 16.9539 22.8415 17.9981 22.2855 18.7403C22.1007 18.9869 21.8488 19.1008 21.596 19.2151C21.4243 19.2928 21.2522 19.3706 21.1002 19.4903C19.8069 20.5092 20.6436 21.3742 21.4315 22.1887C21.5107 22.2705 21.5894 22.3519 21.6653 22.4328C22.1613 22.9613 22.589 23.4707 22.8735 24.0523C24.2643 25.2881 25.6547 26.853 26.502 28.493C26.6162 28.7138 26.3527 28.8976 26.1716 28.7479C25.3744 28.0905 24.7216 27.2787 24.0673 26.4649L24.067 26.4646L24.0664 26.4639C23.7886 26.1184 23.5104 25.7724 23.2208 25.4378C23.2217 25.4603 23.2237 25.482 23.2256 25.5037C23.2282 25.5341 23.2309 25.5646 23.2309 25.5969C23.2301 26.0823 23.1185 26.5593 23.0075 27.0334C22.9561 27.2528 22.9049 27.4715 22.8649 27.6902C22.6482 28.8751 22.8334 29.9137 23.3417 30.901C23.814 31.5218 24.3548 32.0346 24.9154 32.5663C25.2577 32.8908 25.6074 33.2224 25.9534 33.5898C26.9257 34.6224 27.8741 35.8305 28.51 37.1483C28.8969 37.7921 29.2409 38.4646 29.5839 39.1351C30.5426 41.0091 31.4932 42.8672 33.3478 44.0368C33.5858 43.7175 33.7745 43.3301 33.8867 42.8144C33.9059 42.7264 33.9242 42.6377 33.9425 42.5486C34.0711 41.9233 34.2026 41.2838 34.6757 40.8143C34.9146 40.5773 35.1291 40.4803 35.3186 40.3947C35.6649 40.2382 35.9272 40.1197 36.1002 39.2529C36.1366 39.0704 36.0942 38.917 36.051 38.7603C36.0053 38.595 35.9587 38.426 36.0025 38.2154C36.2644 36.962 37.7394 36.2994 38.8649 35.7939C39.0276 35.7208 39.183 35.651 39.3264 35.5831C40.6737 34.9465 41.6577 34.1808 42.4014 32.8652C42.5413 32.6182 42.6637 32.3659 42.7827 32.1141C42.7812 32.1127 42.7796 32.1117 42.7779 32.1107C42.7762 32.1097 42.7745 32.1086 42.773 32.1073C42.5406 31.9071 42.3051 31.7059 42.068 31.5033L42.0651 31.5008L42.06 31.4965L42.0598 31.4963C40.6596 30.2999 39.2045 29.0567 38.0037 27.7003C36.9816 26.5461 36.6859 25.4199 36.3461 23.9539C35.99 22.4164 34.9205 21.4364 33.8578 20.4625C33.0451 19.7178 32.2364 18.9766 31.7534 17.9925C31.7282 18.4363 31.7119 18.8807 31.6956 19.3249C31.6542 20.4532 31.6128 21.5802 31.4267 22.6933C31.3752 23.0012 31.3212 23.3035 31.268 23.6016C30.9545 25.3581 30.6669 26.9696 31.0636 28.7067C31.1764 28.9736 31.2902 29.2396 31.404 29.5057L31.4375 29.584ZM30.5546 21.9336C30.6242 21.8868 30.7043 21.9358 30.732 22.0032C30.7709 21.6435 30.8043 21.279 30.8263 20.9062C30.8346 20.7667 30.8385 20.6266 30.8424 20.4864V20.4858L30.8439 20.4298C30.8015 20.4701 30.7588 20.5102 30.7164 20.5502L30.7161 20.5504C30.6427 20.6195 30.5698 20.688 30.4996 20.7565C30.3984 20.8552 30.2985 20.9552 30.1985 21.0552C29.9825 21.2713 29.7665 21.4875 29.5377 21.6907C29.2252 21.968 28.7652 21.5144 29.0763 21.2288C29.226 21.0916 29.3799 20.9238 29.5403 20.7489C29.9295 20.3245 30.3577 19.8576 30.8611 19.6808C30.869 19.1857 30.8806 18.6909 30.9345 18.1987C30.943 18.1214 30.9911 17.8905 31.0437 17.6378C31.1045 17.3461 31.1713 17.0253 31.1901 16.8787C30.4158 16.839 29.2368 18.2253 28.9307 18.7425C28.7884 18.9828 28.6851 19.2399 28.6103 19.5053C28.6084 19.5375 28.6058 19.5689 28.6028 19.6004C28.6278 19.878 28.6476 20.1578 28.6674 20.4374C28.7262 21.267 28.7849 22.0953 28.9786 22.8629C29.3195 24.2155 29.7799 25.5262 30.2893 26.8193C30.2551 25.6832 30.4034 24.5678 30.557 23.4125L30.557 23.4122C30.6136 22.9867 30.6709 22.5556 30.72 22.1162C30.6161 22.2684 30.4817 22.4006 30.3487 22.5313L30.3485 22.5315C30.3044 22.5749 30.2604 22.6182 30.2178 22.6619C30.0785 22.8041 29.857 22.5825 29.9992 22.4433C30.0429 22.4007 30.086 22.3566 30.1294 22.3124C30.2629 22.1763 30.3981 22.0384 30.5546 21.9336ZM49.1406 26.1093C49.212 25.9921 49.2825 25.8765 49.3523 25.7635C45.245 27.6745 40.4117 25.8379 36.967 23.3315C37.064 23.5707 37.1548 23.802 37.243 24.0267C37.8097 25.4706 38.2695 26.6419 39.5734 27.871C39.9737 28.2485 40.3918 28.6124 40.8106 28.9769C41.6461 29.7041 42.4844 30.4336 43.1899 31.2783C43.3217 31.0264 43.4669 30.782 43.6379 30.5507C43.6392 30.548 43.6403 30.5453 43.6412 30.5427C43.642 30.5403 43.6427 30.5379 43.6434 30.5355C43.6456 30.5284 43.6477 30.5213 43.6525 30.5141C44.299 29.5362 44.8288 29.4097 45.5831 29.2297C45.8808 29.1586 46.2135 29.0792 46.6021 28.9358C47.6549 28.5469 48.4414 27.2565 49.1406 26.1093ZM46.1927 39.3697L46.1933 39.3667C46.2911 38.756 46.389 38.1451 46.5176 37.5387C46.6738 36.8002 46.9523 36.1705 47.234 35.5335C47.4139 35.1267 47.5951 34.7169 47.7467 34.274C48.1162 33.1936 47.8156 32.478 47.4866 31.6943C47.3203 31.2984 47.1468 30.8852 47.0487 30.3988C46.9933 30.1241 46.9764 29.8928 46.9959 29.6753C46.7354 29.75 46.4661 29.7999 46.1985 29.8494C45.5401 29.9713 44.8926 30.0911 44.4149 30.5747C44.0073 31.6582 43.4777 32.8259 42.7678 33.8241C42.8243 34.0314 42.8774 34.2357 42.9301 34.4378C43.1648 35.3392 43.3886 36.1986 43.8453 37.0986C44.2115 37.8197 44.6637 38.4834 45.1158 39.1466C45.4206 39.5938 45.7252 40.0408 46.0033 40.5052C46.0713 40.1275 46.132 39.7485 46.1927 39.3697ZM35.4334 19.674C34.9892 19.5187 34.5434 19.3628 34.0727 19.2714C33.95 19.2478 33.8362 19.2201 33.728 19.189C34.0397 19.5501 34.3776 19.8959 34.7161 20.2425C35.263 20.8024 35.8119 21.3642 36.2555 21.9953C36.6078 22.2891 36.9763 22.5708 37.3433 22.8515L37.3436 22.8517C37.6635 23.0964 37.9824 23.3402 38.2885 23.5905C38.6055 23.8498 38.9431 24.0905 39.2829 24.3263C42.5028 26.0505 45.9109 26.5367 49.6543 25.2881C49.6606 25.2784 49.667 25.2684 49.6735 25.2586C49.6767 25.2538 49.6799 25.249 49.6831 25.2443C49.7166 25.1901 49.7502 25.136 49.7837 25.0819C50.1082 24.5578 50.43 24.0382 50.7 23.5178C50.7854 23.3528 50.9051 23.132 51.05 22.8846C46.5731 24.1408 41.895 22.2287 37.5381 20.4478L37.5372 20.4474C37.1553 20.2913 36.7758 20.1362 36.3992 19.9844C36.0724 19.8974 35.7533 19.7859 35.4334 19.674ZM31.9301 11.5233C23.442 9.25108 13.738 10.3073 6.4341 15.4905C5.68444 16.668 5.01263 17.8986 4.42427 19.1767C6.36261 17.7848 8.42221 16.6605 10.6446 15.7364C11.974 15.184 13.385 14.6069 14.8237 14.1619C15.3492 13.922 15.8848 13.7026 16.46 13.5402C17.5854 13.2232 18.5608 12.944 19.5421 12.4365C19.5732 12.3953 19.6044 12.3542 19.6355 12.313L19.6359 12.3125C19.7421 12.1724 19.8481 12.0323 19.9531 11.8889C20.4306 11.237 20.931 10.7672 21.6927 10.4922C21.8787 10.4252 22.1504 10.5449 22.2327 10.7347C23.1359 11.35 23.8275 12.1285 24.4967 12.9414C24.4994 12.9407 24.502 12.9398 24.5045 12.9388C24.5089 12.9372 24.5132 12.9356 24.5184 12.9354C27.4849 12.728 30.3656 13.093 33.1644 14.1125C34.4167 14.5689 35.6352 15.1043 36.8536 15.6397C38.4347 16.3345 40.0156 17.0292 41.6697 17.5509C47.9847 19.5427 54.1006 19.4215 60.5309 18.4675C60.0354 17.4584 59.4837 16.4827 58.8853 15.5388C55.2249 17.4232 50.0716 16.6279 46.2432 15.8008C43.4307 15.1932 40.7049 14.2931 37.9784 13.3929C35.9742 12.7311 33.9697 12.0692 31.9301 11.5233ZM32.3156 9.47826C24.7228 7.86966 15.427 7.26222 8.84738 12.1917C8.10334 13.0784 7.40832 14.0065 6.7657 14.9737C12.9767 10.6639 21.2626 9.14816 28.6425 10.3406C31.9972 10.8828 35.2374 11.8862 38.4773 12.8896C40.2424 13.4363 42.0075 13.9829 43.791 14.4549C46.3787 15.1402 49.0225 15.6586 51.7023 15.7798C53.3454 15.8544 54.9162 15.6315 56.4982 15.407C57.2024 15.3071 57.9088 15.2068 58.6248 15.1323C57.7621 13.8168 56.8051 12.5694 55.7579 11.4028C49.4021 13.4809 42.6499 11.8869 36.2261 10.3704C34.9066 10.0589 33.601 9.75071 32.3156 9.47826ZM11.1203 19.9387C12.2676 19.3564 13.4042 18.7796 14.6609 18.3978C14.7227 18.3791 14.7769 18.3806 14.8267 18.3907C15.4697 17.4356 16.1804 16.5156 16.9941 15.5774C17.5214 14.9695 18.0278 14.3662 18.5211 13.7528C17.2326 14.3368 15.8736 14.7757 14.5148 15.2147C13.4901 15.5456 12.4652 15.8767 11.471 16.2697C8.89866 17.287 6.28177 18.4678 4.01857 20.0787C3.67985 20.8819 3.37969 21.7045 3.10834 22.5406C3.95446 22.2629 4.81767 22.071 5.68246 21.8787C6.97358 21.5916 8.26827 21.3038 9.51471 20.7284C10.0607 20.4764 10.5917 20.2069 11.1203 19.9387ZM8.12055 43.4862C7.37875 39.8146 6.32331 36.1243 4.75999 32.7118C4.22815 33.5142 3.65664 34.2934 2.95976 34.9982C3.91521 36.538 4.73432 38.1579 5.55341 39.7776C6.42553 41.5023 7.29765 43.227 8.33426 44.8549C8.27686 44.5042 8.2293 44.1872 8.19266 43.9429L8.19258 43.9424C8.15927 43.7203 8.13499 43.5584 8.12055 43.4862ZM22.446 47.3761C22.9554 47.7289 23.4641 48.0814 23.936 48.4786C24.4248 47.7589 24.9649 47.029 25.618 46.4542C24.4415 45.7276 24.4931 43.9046 24.5413 42.1964C24.5717 41.1206 24.6009 40.0904 24.3212 39.4082C24.2142 39.1474 24.0666 38.8762 23.9148 38.5972C23.5124 37.8577 23.0802 37.0632 23.2945 36.2625C23.4201 35.793 23.72 35.5124 23.9929 35.2568L24.0038 35.2467C22.4164 34.1637 21.3422 37.0794 20.8318 38.4648L20.8317 38.4651C20.7824 38.5987 20.7384 38.7181 20.6997 38.8183C20.2861 39.89 19.6221 40.5993 18.9362 41.332C18.5665 41.7269 18.1904 42.1287 17.8437 42.5977C17.944 42.71 18.0428 42.8245 18.1382 42.9446C18.3796 43.2489 18.6092 43.5575 18.8377 43.8646C19.4215 44.6491 19.9978 45.4237 20.7432 46.0896C21.2747 46.5645 21.8607 46.9706 22.446 47.3761ZM54.4599 25.299C54.4461 25.1931 54.4307 25.0875 54.4139 24.9831C54.3832 24.7936 54.342 24.6059 54.3006 24.4178L54.2885 24.3626C53.4686 25.461 52.5154 26.4825 51.5682 27.4974L51.5674 27.4983C51.04 28.0634 50.5143 28.6267 50.0147 29.2C49.8171 29.4264 49.4979 29.0986 49.6872 28.8725C50.0435 28.447 50.3944 28.0035 50.7482 27.5563C51.7941 26.2345 52.8651 24.881 54.1736 23.8667C54.0928 23.5464 54.0049 23.2276 53.917 22.909L53.9167 22.908C53.7948 22.4657 53.6729 22.0238 53.5703 21.5791C53.5667 21.564 53.5654 21.5495 53.564 21.5351L53.564 21.5345C53.5635 21.5294 53.563 21.5243 53.5624 21.5192C52.9614 21.8297 52.2768 22.7542 51.8572 23.3208C51.765 23.4454 51.6855 23.5527 51.6226 23.6324C50.9212 24.5205 50.2865 25.47 49.7194 26.4495C49.5689 26.7098 49.4308 26.9855 49.2919 27.2629L49.2918 27.2632L49.2916 27.2635C49.2711 27.3045 49.2505 27.3456 49.2299 27.3867C49.1664 27.5447 49.102 27.7012 49.038 27.8569C48.6353 28.8354 48.2463 29.7807 48.1969 30.855C48.2326 30.9649 48.2707 31.0748 48.3086 31.1839C48.4095 31.4742 48.5086 31.7596 48.5551 32.0283C48.7089 32.9135 48.5914 33.5924 48.2841 34.4113C47.6277 36.1607 47.3105 37.8674 46.9839 39.6246C46.8524 40.3321 46.7194 41.0477 46.5621 41.7777C46.4936 42.0962 45.9648 42.192 45.8282 41.8739C45.7032 41.5827 45.5654 41.2982 45.4221 41.0168C45.2329 41.2608 45.0008 41.4898 44.7752 41.7123C44.6438 41.842 44.5146 41.9695 44.3973 42.0966C44.1679 42.3447 43.9198 42.5767 43.6698 42.8084C43.3635 43.1534 43.0548 43.4966 42.7461 43.8398L42.7447 43.8413C41.9425 44.7332 41.1402 45.6252 40.3792 46.5489C38.7185 48.5639 37.0433 50.5606 35.2012 52.4144C35.0226 52.5944 34.7483 52.319 34.9235 52.1363C36.5671 50.4242 38.0648 48.5899 39.5642 46.7535C39.7858 46.482 40.0076 46.2104 40.2298 45.9392C40.4764 45.6383 40.7227 45.3326 40.9704 45.025C41.9037 43.8661 42.8571 42.6823 43.9246 41.6441C43.9634 41.5895 44.0018 41.535 44.0399 41.481C44.1454 41.3315 44.2487 41.1851 44.3509 41.0482C44.3927 40.9923 44.4384 40.9261 44.4876 40.8547C44.6303 40.6477 44.8029 40.3973 44.9992 40.2286C44.8247 39.9179 44.6447 39.6099 44.4613 39.3034C44.0621 39.9018 43.548 40.4098 43.0337 40.9179L43.0326 40.919C42.6611 41.286 42.2894 41.6532 41.9612 42.0546C41.8351 42.2092 41.5705 42.0022 41.6858 41.8421C42.4407 40.796 43.2079 39.7495 44.3079 39.0451L44.1663 38.8103L44.1649 38.808C43.669 37.9861 43.1725 37.1632 42.7543 36.298C42.7082 36.2027 42.6558 36.0999 42.6004 35.9914C42.401 35.6007 42.1639 35.136 42.0529 34.6838C41.8587 34.8878 41.6543 35.0771 41.438 35.2501L41.4207 35.2987C41.3252 35.5661 41.2305 35.8316 41.2033 36.1389C41.2024 36.1485 41.2012 36.158 41.2 36.1675L41.2 36.1678C41.1988 36.1775 41.1975 36.1873 41.1966 36.1973C41.1977 36.2077 41.1983 36.2185 41.1989 36.2294L41.199 36.2318C41.1993 36.2378 41.1996 36.2438 41.2 36.2497C41.4365 37.3894 41.1756 38.3939 40.7703 39.4894C40.1325 41.2114 39.8058 42.8964 39.6224 44.7273C39.6059 44.8927 39.3945 45.0278 39.262 44.8766C38.7346 44.2741 38.4333 43.5545 38.1342 42.8402C38.0682 42.6825 38.0023 42.5252 37.9341 42.3694C36.894 44.0638 35.4386 45.5919 34.0312 47.0694C33.5333 47.5922 33.0414 48.1086 32.576 48.6238C32.4076 48.8102 32.1453 48.5385 32.3032 48.3506C32.9493 47.582 33.5608 46.7507 34.1761 45.9142C35.2547 44.4479 36.3449 42.9657 37.653 41.7784C37.376 41.2488 37.0328 40.7593 36.5126 40.3701C36.4819 40.3469 36.4568 40.3188 36.4378 40.2873C36.3549 40.4033 36.2637 40.489 36.1366 40.6084L36.1362 40.6087C36.0538 40.6861 35.9563 40.7777 35.8363 40.9008C35.1095 41.6466 34.9482 42.2839 34.7778 42.9573C34.6602 43.4219 34.5383 43.9037 34.2232 44.4503C33.8784 45.0478 33.3781 45.3656 32.8374 45.7089C32.7343 45.7744 32.6297 45.8409 32.5244 45.9104C31.5707 46.5395 30.9839 47.4334 30.3863 48.344C30.1321 48.7313 29.8759 49.1216 29.5886 49.4959C29.5722 49.5172 29.5546 49.5348 29.537 49.5524C30.2997 50.6494 31.1224 51.6924 32.3032 52.5098C34.0327 53.7068 35.3849 55.1716 36.3704 56.9936C36.4722 56.961 36.5901 56.9741 36.7095 57.0598C37.6357 57.7252 38.4052 58.5545 39.1744 59.3834C39.9251 60.1924 40.6756 61.0011 41.5712 61.657C41.6431 61.7097 41.6906 61.7734 41.7217 61.8411C43.0586 61.4332 44.3547 60.9331 45.6085 60.356C46.9577 58.7526 48.3519 57.1882 49.9784 55.8633C50.2064 55.6777 50.5106 55.967 50.3059 56.1908C50.0149 56.5089 49.723 56.8263 49.4309 57.1439C48.6976 57.9413 47.9637 58.7394 47.2429 59.5491C48.8594 58.6864 50.3871 57.6822 51.8172 56.5579C51.8198 56.519 51.8284 56.4801 51.8513 56.4415C52.006 56.1775 52.1687 55.9201 52.3313 55.6628C52.5856 55.2604 52.8398 54.8582 53.0635 54.4306C53.1108 54.3404 53.164 54.245 53.219 54.1464C53.3853 53.848 53.5678 53.5205 53.653 53.2217C53.6772 53.1367 53.6998 53.0632 53.7194 52.9992C53.782 52.7948 53.8146 52.6883 53.7771 52.6207C53.7365 52.5473 53.6134 52.5196 53.3567 52.4619C53.2019 52.4271 52.9986 52.3813 52.7357 52.3081C52.5497 52.2561 52.4153 52.0787 52.4142 51.8859C52.4056 50.387 52.1286 49.5771 51.2644 48.3749C51.0496 48.0766 50.8785 47.806 50.7288 47.5216C50.727 47.5414 50.7217 47.5609 50.7098 47.58C49.9283 48.7712 48.7771 49.6691 47.6265 50.5666C46.7616 51.2411 45.8971 51.9154 45.19 52.7138C44.9673 52.9653 44.6051 52.5978 44.8229 52.3467C46.4247 50.4996 48.4862 48.7541 50.5032 47.3734C50.5555 47.3378 50.6136 47.3479 50.6585 47.3794C50.5672 47.1922 50.4811 46.9984 50.4029 46.7794C50.3561 46.6492 50.4047 46.4553 50.5118 46.3658C51.2511 45.7508 52.0408 45.2089 52.8314 44.6664L52.8318 44.6661C53.2006 44.4131 53.5696 44.1598 53.9337 43.899C54.0142 43.8414 54.0937 43.7831 54.1727 43.7251C54.7641 43.2908 55.3276 42.8771 56.0902 42.9622C56.2007 42.9746 56.3006 43.0458 56.397 43.1145C56.4901 43.1809 56.5799 43.2449 56.6726 43.2512C57.0768 43.2787 57.0857 43.2463 57.111 43.1547C57.1222 43.1141 57.1366 43.0617 57.1902 42.9978C57.23 42.9504 57.244 42.8112 57.2578 42.6736C57.2689 42.5625 57.28 42.4525 57.3044 42.393C57.4364 42.0703 57.7579 41.8148 58.044 41.5875C58.1146 41.5314 58.1831 41.4769 58.246 41.4236C58.3704 41.3184 58.5163 41.2098 58.6697 41.0956C59.3511 40.5883 60.1819 39.9699 59.943 39.0388C59.757 38.8666 59.5811 38.6881 59.4295 38.4976C59.2311 38.2491 59.044 38.0152 58.8565 37.7891C58.365 38.4352 57.7151 39.0093 57.0933 39.5586C56.815 39.8045 56.5423 40.0453 56.292 40.2855C56.0603 40.5082 55.7186 40.1657 55.9398 39.9333C56.2485 39.6092 56.5467 39.2456 56.8492 38.8769L56.8496 38.8764C57.3265 38.295 57.8141 37.7006 58.3695 37.2281C58.124 36.9597 57.8613 36.697 57.5626 36.4316C56.2329 38.1223 54.5862 39.6639 53.0156 41.1342C52.8342 41.3039 52.6539 41.4727 52.4752 41.6407C52.3764 41.7335 52.2285 41.5864 52.3262 41.4921C53.0314 40.8081 53.6623 40.0031 54.2969 39.1936L54.2974 39.1932L54.2976 39.1929C55.1818 38.065 56.0731 36.928 57.1816 36.0966C56.682 35.6524 56.1977 35.1546 55.8975 34.5547C55.8505 34.6016 55.8029 34.6483 55.7553 34.6949L55.7539 34.6963C55.6278 34.8198 55.5014 34.9436 55.3866 35.0741C55.2939 35.1793 55.1922 35.2771 55.0907 35.3747L55.067 35.3975C54.6337 35.9408 54.1371 36.4347 53.6411 36.9281C53.3658 37.2018 53.0907 37.4755 52.8266 37.7573C52.7271 37.8634 52.6273 37.9697 52.5273 38.0761C51.308 39.3739 50.0621 40.6998 49.0794 42.1789C48.9353 42.396 48.5861 42.1957 48.728 41.9738C50.0719 39.8671 51.7782 38.0384 53.4804 36.2139L53.4807 36.2136L53.4829 36.2113C53.9766 35.6822 54.47 35.1534 54.954 34.6183C54.9683 34.5958 54.9825 34.5733 54.9967 34.5508L55.0338 34.4918C55.0968 34.3918 55.1596 34.2921 55.2238 34.1957C55.2622 34.1383 55.3003 34.0745 55.3396 34.0084C55.4521 33.8196 55.575 33.6133 55.7455 33.4921C55.7761 33.3769 55.8169 33.2661 55.8575 33.1559C55.9543 32.893 56.0501 32.6329 56.0034 32.321C55.9424 31.9127 55.552 31.6889 55.0876 31.5044C54.8473 31.69 54.6119 31.8846 54.3795 32.0856C54.1558 32.3467 53.9148 32.5963 53.6747 32.845C53.4873 33.0391 53.3004 33.2327 53.1227 33.4307C52.5291 34.0917 51.9228 34.7328 51.2689 35.335C51.1263 35.4664 50.9175 35.2602 51.0556 35.1217C51.5544 34.6214 51.9902 34.0673 52.4262 33.513C52.5404 33.3678 52.6547 33.2224 52.7701 33.0782C52.8194 33.0165 52.8689 32.954 52.9188 32.8911C53.2099 32.5235 53.513 32.1407 53.8603 31.818C53.9183 31.7423 53.9766 31.6593 54.0365 31.5738C54.1206 31.454 54.208 31.3295 54.3024 31.2139C53.9053 31.0594 53.5531 30.8786 53.4007 30.584C53.19 30.1772 53.2147 29.3905 53.3656 28.9481C53.4693 28.6438 53.6539 28.4137 53.8423 28.1789C54.059 27.9088 54.2808 27.6324 54.3899 27.2295C54.5194 26.7515 54.54 26.2534 54.506 25.7593C53.8711 26.588 53.1513 27.3544 52.4309 28.1215C51.8179 28.7742 51.2046 29.4273 50.6428 30.1196C50.5047 30.2899 50.2108 30.0608 50.3396 29.8857L50.4061 29.7955C51.5802 28.2035 52.8361 26.5004 54.4248 25.3151C54.4337 25.3082 54.4431 25.3049 54.4526 25.3016C54.4551 25.3007 54.4575 25.2999 54.4599 25.299Z" fill="currentColor"/>
</svg>
