<svg width="160" height="146" viewBox="0 0 160 146" fill="none" xmlns="http://www.w3.org/2000/svg">
<g clip-path="url(#clip0_1009_71737)">
<mask id="mask0_1009_71737" style="mask-type:alpha" maskUnits="userSpaceOnUse" x="-20" y="-14" width="180" height="160">
<rect x="-20" y="-14" width="180" height="160" fill="url(#paint0_linear_1009_71737)"/>
</mask>
<g mask="url(#mask0_1009_71737)">
<path d="M30.1634 118.854C29.6618 118.057 30.9222 117.328 31.4211 118.118C31.7014 118.562 31.9892 119.003 32.2775 119.445C33.2454 120.929 34.2184 122.421 34.9279 124.041C35.0907 124.415 34.6849 124.75 34.3629 124.477C32.8398 123.184 31.7791 121.465 30.7346 119.772C30.5446 119.464 30.355 119.157 30.1634 118.854Z" fill="url(#paint1_linear_1009_71737)"/>
<path d="M35.7235 113.121C35.0685 112.168 34.3583 111.312 33.4161 110.634C32.5038 109.976 31.6551 111.477 32.5394 112.134C33.2584 112.668 33.747 113.391 34.238 114.117C34.3551 114.29 34.4726 114.464 34.5932 114.636C34.6677 114.742 34.745 114.855 34.8252 114.973C35.2834 115.647 35.8367 116.46 36.5151 116.793C36.9661 117.015 37.4638 116.651 37.3525 116.15C37.1351 115.172 36.3485 114.029 35.7727 113.192L35.7235 113.121Z" fill="url(#paint2_linear_1009_71737)"/>
<path d="M45.1598 133.896C44.7221 133.361 45.4711 132.59 45.9288 133.126C50.2754 138.231 54.3062 143.795 58.1015 149.315C58.5217 149.925 57.6211 150.523 57.1242 150.069C54.1478 147.358 51.9433 143.918 49.7449 140.488C48.2882 138.215 46.834 135.946 45.1598 133.896Z" fill="url(#paint3_linear_1009_71737)"/>
<path d="M50.252 147.39C50.1127 147.254 49.9717 147.116 49.8344 146.978C49.2346 146.379 48.3036 147.309 48.9034 147.909C49.0416 148.047 49.1784 148.187 49.3154 148.327C49.6293 148.647 49.9438 148.969 50.2761 149.269C50.3546 149.339 50.4338 149.414 50.5142 149.489C50.8736 149.826 51.2566 150.186 51.7039 150.35C52.0248 150.469 52.3944 150.099 52.2756 149.778C52.1098 149.329 51.7495 148.945 51.4111 148.585C51.3369 148.506 51.2638 148.428 51.1939 148.351C50.8943 148.018 50.5728 147.704 50.252 147.39Z" fill="url(#paint4_linear_1009_71737)"/>
<path d="M48.5242 128.994C48.4 128.859 48.2753 128.723 48.1446 128.598C48.0021 128.461 47.8628 128.322 47.7235 128.183C47.52 127.979 47.3165 127.776 47.1032 127.582C46.626 127.147 47.3353 126.442 47.8106 126.874C48.5348 127.535 49.3516 128.376 49.6473 129.337C49.7418 129.642 49.3722 129.78 49.1636 129.619C48.9306 129.437 48.7269 129.215 48.5242 128.994Z" fill="url(#paint5_linear_1009_71737)"/>
<path d="M49.6687 64.6039C44.6286 70.9678 39.0764 77.3207 33.132 82.8533C32.5632 83.3833 31.7225 82.5501 32.2759 81.9976C34.6239 79.6507 36.7535 77.0451 38.885 74.4372C41.9883 70.6402 45.0956 66.8384 48.8867 63.8229C49.4474 63.3761 50.1117 64.0438 49.6687 64.6039Z" fill="url(#paint6_linear_1009_71737)"/>
<path d="M46.1923 74.6053C43.6489 77.0086 41.3525 79.6905 39.057 82.3713C37.3412 84.3751 35.6259 86.3784 33.8083 88.2642C33.3613 88.7281 34.0595 89.4282 34.5152 88.9715C35.1504 88.3349 35.7945 87.6967 36.4421 87.0552C40.1842 83.3477 44.044 79.5237 46.9778 75.21C47.3058 74.7278 46.5935 74.226 46.1923 74.6053Z" fill="url(#paint7_linear_1009_71737)"/>
<path d="M32.4383 64.3268C36.3388 59.3461 40.283 54.3097 45.64 51.1611C45.9922 50.9537 46.334 51.4265 46.0657 51.7112C44.2128 53.6791 42.3721 55.6717 40.5289 57.6671C35.9539 62.6196 31.3622 67.5903 26.5282 72.2423C26.2682 72.4929 25.8803 72.1058 26.1312 71.8458C28.3536 69.5426 30.3901 66.9422 32.4383 64.3268Z" fill="url(#paint8_linear_1009_71737)"/>
<path d="M42.2367 49.1992C44.5879 46.7297 46.9374 44.2619 49.1091 41.6437C49.556 41.1052 48.8916 40.4633 48.3527 40.8867C43.5703 44.6358 39.5454 49.6375 35.7082 54.4061L35.6859 54.4337C35.2758 54.9434 34.8678 55.4504 34.4612 55.9529C33.9783 56.5516 34.8181 57.412 35.3178 56.809C37.506 54.1679 39.8728 51.682 42.2367 49.1992Z" fill="url(#paint9_linear_1009_71737)"/>
<path d="M82.7588 80.0636C82.2229 79.4423 81.6909 78.8257 81.1506 78.2359C80.4815 77.5054 81.5621 76.4165 82.243 77.1436C82.6997 77.6327 83.1685 78.1212 83.6402 78.6127C85.5519 80.6046 87.511 82.646 88.9122 84.9841C89.0871 85.275 88.7366 85.6324 88.4449 85.4531C86.235 84.0931 84.4761 82.0542 82.7588 80.0636Z" fill="url(#paint10_linear_1009_71737)"/>
<path d="M80.6481 69.6307C80.0886 69.1521 79.2804 69.9341 79.8297 70.4499C80.358 70.9455 80.8503 71.5171 81.3466 72.0933C82.2734 73.1694 83.214 74.2614 84.4286 74.9045C84.753 75.0761 85.0857 74.734 84.9208 74.4124C83.9755 72.5653 82.2048 70.9623 80.6481 69.6307Z" fill="url(#paint11_linear_1009_71737)"/>
<path d="M84.6094 68.6646C84.7536 69.0606 84.2402 69.2385 83.9789 69.0323C82.1207 67.5594 80.6393 65.5869 79.2122 63.6868C79.112 63.5533 79.0121 63.4203 78.9123 63.2878C78.4379 62.6583 79.5111 61.8416 80.0007 62.4476C80.4441 62.9959 80.9242 63.5268 81.406 64.0596C82.6763 65.4645 83.9583 66.8823 84.6094 68.6646Z" fill="url(#paint12_linear_1009_71737)"/>
<path d="M76.2153 86.5907C76.5369 86.8065 76.9766 86.3732 76.7556 86.0504C75.1329 83.6868 73.2302 81.5054 71.3363 79.334C70.6231 78.5163 69.911 77.6999 69.2157 76.8759C68.4729 75.9938 67.2098 77.2659 67.9506 78.1403C68.3369 78.5964 68.7214 79.0589 69.1072 79.523C71.2479 82.0979 73.4314 84.7244 76.2153 86.5907Z" fill="url(#paint13_linear_1009_71737)"/>
<path d="M57.8119 52.7643C59.0396 53.8291 60.1577 55.0052 61.258 56.1982C61.4456 56.4016 61.6395 56.6061 61.8355 56.8126C62.6923 57.7158 63.5882 58.6601 64.1577 59.736C64.3664 60.1299 64.008 60.7783 63.514 60.5734C62.1161 59.9952 61.0887 58.7797 60.1549 57.6289C60.068 57.5219 59.9814 57.4149 59.8948 57.308L59.891 57.3033C58.904 56.0847 57.9244 54.8754 56.7705 53.8057C56.0678 53.1563 57.1018 52.1486 57.8119 52.7643Z" fill="url(#paint14_linear_1009_71737)"/>
<path d="M60.0807 51.7197C60.7488 52.5922 61.4491 53.5066 62.2649 54.1396C62.7515 54.5167 63.674 54.1967 63.4233 53.465C62.9927 52.2085 61.9639 51.0618 61.072 50.0676L60.9746 49.959C60.4318 49.3528 59.8694 48.7661 59.3072 48.1795C58.7415 47.5893 58.1758 46.999 57.6305 46.3895C56.9914 45.6755 55.9856 46.7141 56.5881 47.4318C57.5341 48.5583 58.4651 49.7008 59.3942 50.8414C59.6208 51.1194 59.8478 51.4157 60.0786 51.717L60.0807 51.7197Z" fill="url(#paint15_linear_1009_71737)"/>
<path d="M71.7545 48.9911C71.398 49.3036 71.0359 49.6068 70.6523 49.8846C70.1405 50.2552 69.6446 49.4009 70.1564 49.036C70.5073 48.7855 70.8329 48.5049 71.1591 48.2237L71.2296 48.163C71.2761 48.1231 71.322 48.0827 71.3679 48.0423C71.6518 47.7928 71.9319 47.5467 72.3 47.4323C72.6294 47.3293 72.9475 47.7317 72.7566 48.0245C72.5621 48.3224 72.2844 48.5509 72.0093 48.7772C71.9233 48.848 71.8375 48.9186 71.7545 48.9911Z" fill="url(#paint16_linear_1009_71737)"/>
<path d="M50.3546 106.869C49.7221 106.045 48.2961 106.836 48.9305 107.701C49.4717 108.438 49.9785 109.198 50.4852 109.957C50.8736 110.539 51.2626 111.122 51.6664 111.694C52.4664 112.826 53.2889 113.97 54.7167 114.264C55.0405 114.331 55.3455 114.063 55.2557 113.725C54.9722 112.65 54.2853 111.847 53.5838 111.027C53.4448 110.865 53.3053 110.701 53.1682 110.535C52.5191 109.748 51.9088 108.933 51.2982 108.118C50.9856 107.7 50.6727 107.283 50.3546 106.869Z" fill="url(#paint17_linear_1009_71737)"/>
<path d="M52.6317 102.469C53.318 103.211 54.0314 103.983 54.6046 104.815C54.6575 104.891 54.7133 104.971 54.7709 105.054C55.2515 105.742 55.8606 106.614 55.996 107.388C56.0952 107.953 55.5815 108.36 55.0556 108.111C54.4805 107.839 53.9718 107.269 53.5046 106.746C53.3417 106.564 53.1837 106.387 53.0299 106.23C52.6525 105.847 52.3087 105.426 51.9647 105.005C51.6716 104.646 51.3782 104.286 51.064 103.95C50.1152 102.936 51.646 101.403 52.5901 102.424L52.6317 102.469Z" fill="url(#paint18_linear_1009_71737)"/>
<path d="M105.822 118.788C105.445 119.275 105.067 119.763 104.684 120.249L104.521 120.455C102.556 122.946 100.639 125.375 99.0744 128.153C98.8639 128.527 99.4394 128.863 99.6508 128.489C100.894 126.282 102.586 124.376 104.272 122.478C104.939 121.728 105.605 120.977 106.242 120.21C107.52 118.67 108.757 117.1 109.994 115.529C110.886 114.396 111.779 113.263 112.687 112.141C112.93 111.84 112.566 111.479 112.265 111.719C109.731 113.742 107.784 116.256 105.822 118.788Z" fill="url(#paint19_linear_1009_71737)"/>
<path d="M128.763 79.4067C126.751 81.6911 124.694 83.9563 122.572 86.1473C121.778 86.9681 120.507 85.6972 121.32 84.8942C121.815 84.4048 122.3 83.8933 122.788 83.3792C124.446 81.6322 126.131 79.8569 128.316 78.8288C128.696 78.6497 129.046 79.0861 128.763 79.4067Z" fill="url(#paint20_linear_1009_71737)"/>
<path d="M123.718 91.4215C122.337 92.8194 121.079 94.3333 120.051 96.0101C119.707 96.5705 120.583 97.0786 120.929 96.5237C121.972 94.8517 123.308 93.4005 124.736 92.0494C125.275 91.5385 125.864 91.0594 126.453 90.5795C127.297 89.8931 128.142 89.2048 128.851 88.419C129.229 87.9988 128.758 87.3953 128.256 87.647C126.646 88.4532 125.198 89.921 123.927 91.2105L123.718 91.4215Z" fill="url(#paint21_linear_1009_71737)"/>
<path d="M110.805 137.434C115.363 133.682 119.97 129.89 123.893 125.533C124.115 125.287 123.823 124.844 123.522 125.052C119.263 127.978 115.4 131.496 111.553 134.999C109.822 136.576 108.094 138.149 106.335 139.665C105.777 140.146 106.585 140.941 107.142 140.472C108.35 139.455 109.576 138.446 110.805 137.434Z" fill="url(#paint22_linear_1009_71737)"/>
<path d="M125.269 111.402C122.838 115.076 118.577 118.186 114.914 120.557C114.365 120.912 113.899 120.063 114.408 119.693C116.376 118.266 118.194 116.611 119.936 114.917C120.377 114.489 120.809 114.04 121.245 113.588C122.268 112.526 123.303 111.451 124.477 110.61C124.95 110.271 125.579 110.934 125.269 111.402Z" fill="url(#paint23_linear_1009_71737)"/>
<path fill-rule="evenodd" clip-rule="evenodd" d="M-0.887695 80.3441C-0.887695 36.1616 34.9291 0.344086 79.1128 0.344086C123.296 0.344086 159.113 36.1616 159.113 80.3441C159.113 124.527 123.296 160.344 79.1128 160.344C34.9291 160.344 -0.887695 124.527 -0.887695 80.3441ZM153.479 99.4457C153.726 99.6381 153.976 99.8318 154.226 100.028C155.869 93.741 156.75 87.1455 156.75 80.3441C156.75 79.3036 156.712 78.2725 156.671 77.2405C154.226 75.5029 151.913 73.6316 149.826 71.4674C148.75 70.3519 147.828 69.101 146.908 67.8545C146.017 66.647 145.13 65.4435 144.109 64.3712C143.117 63.3282 141.824 62.7128 140.547 62.1052C139.122 61.4275 137.718 60.7596 136.776 59.5188C136.458 59.1 136.321 58.6304 136.179 58.145C136.061 57.7422 135.94 57.3286 135.71 56.9242C135.267 56.1438 134.671 55.5272 134.004 54.9911C134.158 55.5676 134.32 56.1472 134.483 56.7295C135.466 60.2448 136.477 63.8579 135.887 67.4561C135.704 68.5773 135.192 69.4632 134.69 70.3342C134.265 71.0703 133.846 71.7958 133.637 72.6435C132.38 74.4278 133 75.7443 135.5 76.592C135.938 76.7726 136.374 76.956 136.81 77.1403C137.054 77.2965 137.304 77.4244 137.551 77.5507C137.995 77.7777 138.429 77.9995 138.803 78.3717C139.857 79.4224 139.929 79.9679 139.677 81.3995C139.541 82.1646 139.302 82.6043 139.108 82.962C138.72 83.676 138.51 84.0631 139.656 86.0592C140.295 87.1742 141.407 88.122 142.402 88.9706L142.496 89.0507C142.553 89.0993 142.609 89.1476 142.665 89.1955L142.845 89.3501L143.101 89.569C144.596 90.8478 145.979 92.0309 147.206 93.6213C149.035 95.9914 151.182 97.6605 153.477 99.4441L153.479 99.4457ZM134.674 131.606C134.275 133.033 133.622 134.763 132.766 136.428C137.292 132.097 141.292 127.227 144.668 121.916C144.044 121.345 143.458 120.742 142.874 120.14C141.742 118.974 140.616 117.814 139.228 116.906C138.023 116.117 139.15 114.172 140.362 114.967C141.87 115.955 143.092 117.196 144.321 118.445C144.829 118.96 145.338 119.478 145.869 119.979C149.17 114.431 151.791 108.434 153.637 102.105C153.401 102.098 153.16 102.024 152.936 101.848C152.288 101.339 151.58 100.834 150.857 100.32L150.854 100.318C150.578 100.121 150.3 99.9231 150.022 99.7228C149.588 101.56 147.991 102.748 146.16 104.112C145.933 104.281 145.702 104.453 145.469 104.629C144.316 105.5 143.677 106.503 143.094 107.417C142.24 108.757 141.506 109.908 139.453 110.178C138.634 110.286 138.446 110.047 138.267 109.82C138.008 109.492 137.768 109.187 135.676 109.982C135.064 110.215 134.433 110.781 133.847 111.307C133.532 111.589 133.231 111.86 132.952 112.062C132.482 112.402 131.85 112.756 131.166 113.139C128.856 114.435 125.949 116.065 126.659 118.617C126.959 119.693 127.691 120.58 128.441 121.489C129.274 122.499 130.131 123.537 130.442 124.894C130.544 125.337 130.55 125.829 130.555 126.324C130.565 127.127 130.574 127.936 130.995 128.541C131.412 129.139 132.37 129.536 133.223 129.889C133.558 130.028 133.878 130.16 134.141 130.295C134.593 130.526 134.806 131.135 134.674 131.606ZM9.44365 100.581C7.06171 95.8693 4.67971 91.1572 1.75934 86.7609C5.02485 126.635 38.3968 157.982 79.1128 157.982C86.108 157.982 92.8813 157.041 99.3291 155.306C97.5029 153.816 95.8957 152.097 94.2894 150.379C92.7672 148.75 91.2443 147.121 89.5382 145.691C89.2724 146.207 88.5922 146.455 88.014 145.953C86.4309 144.582 85.3459 142.848 84.2557 141.106C83.4682 139.848 82.6779 138.586 81.6953 137.452C80.4 135.957 78.8349 134.798 77.2654 133.636L77.2627 133.633C76.517 133.081 75.77 132.528 75.0511 131.938C72.4997 129.845 70.837 127.205 69.1722 124.562C68.4206 123.368 67.6684 122.174 66.8339 121.029C66.877 121.578 66.8891 122.136 66.8564 122.71C66.7897 123.867 66.5208 124.99 66.2517 126.114C65.9465 127.389 65.6411 128.665 65.6306 129.99C65.6052 133.322 66.5643 136.774 67.5082 140.172C68.0561 142.144 68.5988 144.098 68.9411 145.999C69.1067 146.921 67.9904 147.787 67.2503 146.985C66.5557 146.231 65.7713 145.512 64.9806 144.788C63.296 143.244 61.5826 141.674 60.6472 139.683C60.3188 138.982 61.0505 137.968 61.8234 138.506C63.7874 139.872 65.6381 141.671 67.2129 143.594C67.1557 141.132 66.2446 138.832 65.3299 136.523C64.5237 134.489 63.7148 132.447 63.4851 130.281C63.2812 128.359 63.4646 126.537 63.647 124.725C63.869 122.52 64.0896 120.328 63.6105 117.984C61.8739 119.662 60.3731 121.503 58.9976 123.535C58.2687 124.61 56.7688 124.108 56.4947 123.177C52.0539 120.875 47.4729 117.456 44.3748 113.608C43.4645 112.478 42.6828 111.277 41.9035 110.079C40.7443 108.298 39.5902 106.524 38.0253 105.003C36.0801 103.113 33.7897 101.751 31.4895 100.383C30.9528 100.064 30.4156 99.7443 29.8821 99.4178C26.0196 97.0514 23.3838 94.4007 21.0484 90.5598C20.7312 90.0383 20.396 89.4389 20.0385 88.7997C18.0448 85.2351 15.3596 80.4338 11.2696 81.0281C15.089 88.9785 17.882 97.6802 19.5204 106.328C19.5837 106.662 19.7527 107.332 19.9731 108.206C20.9314 112.005 22.8629 119.662 21.3225 120.412C20.6254 120.752 20.0032 119.465 19.482 117.633C19.4016 117.57 19.3248 117.498 19.2556 117.408C15.3136 112.193 12.3787 106.387 9.44365 100.581ZM25.2242 52.0518C18.7045 55.5094 11.9976 59.0663 4.71701 58.1312C2.61828 65.1712 1.47489 72.622 1.47489 80.3441C1.47489 80.955 1.4954 81.5607 1.51591 82.1667C1.52277 82.369 1.52962 82.5714 1.53571 82.774C1.6929 82.8517 1.83981 82.9658 1.96332 83.1324C2.6239 84.0278 3.24893 84.9448 3.85806 85.8711C6.03898 83.4793 7.65544 80.7171 9.26379 77.9688C11.0028 74.9972 12.7323 72.0418 15.1554 69.5885C16.6088 68.1181 18.3128 66.9977 20.0223 65.8735C20.6581 65.4554 21.2947 65.0368 21.9195 64.5995C25.3852 62.1733 27.5495 59.4028 29.2711 55.5553C30.4622 52.8933 31.7432 50.4765 33.1551 48.1738C30.5252 49.2405 27.8903 50.6379 25.2242 52.0518ZM33.9785 17.364C33.8896 17.3855 33.8101 17.3817 33.7371 17.3649C29.3188 20.5537 25.2393 24.1813 21.5864 28.2084C34.8936 19.0285 52.8642 18.0152 68.433 20.214C75.0714 21.1514 81.884 22.8266 88.7737 24.5208C104.585 28.4086 120.802 32.3964 136.251 27.7967C133.398 24.6959 130.29 21.8393 126.971 19.2362C123.033 20.1749 118.563 20.0917 114.453 20.0152C113.7 20.0011 112.959 19.9873 112.236 19.9801C106.576 19.923 101.334 19.3532 95.9083 17.6653C87.8876 15.1708 80.2385 13.0908 71.7771 12.7193C69.175 12.6051 66.5645 12.6136 63.9548 12.7024L63.4765 12.7462C63.0759 12.7829 62.6797 12.8192 62.2884 12.854C59.2493 13.1282 56.2233 13.5118 53.2207 14.0517C50.8602 14.4769 48.4847 14.8325 46.1086 15.1883C42.0425 15.7971 37.9749 16.4061 33.9785 17.364ZM119.677 18.5014C121.657 18.362 123.635 18.2227 125.61 18.1668C112.649 8.45823 96.553 2.70666 79.1128 2.70666C63.1193 2.70666 48.2588 7.54689 35.906 15.837C41.9664 14.3408 48.0511 13.1871 54.2621 12.4068C60.6575 11.603 68.0045 11.0407 74.499 11.9006C79.8707 12.2711 85.2144 13.1628 90.501 14.7703C97.382 16.8624 103.661 18.7029 110.903 18.8526C113.832 18.9128 116.757 18.7069 119.677 18.5014ZM131.593 51.0772C131.826 51.0295 132.083 51.0622 132.348 51.2231L132.629 51.393C134.418 52.476 136.195 53.5512 137.359 55.3448C137.62 55.7475 137.833 56.2243 138.048 56.7092C138.433 57.573 138.829 58.4625 139.534 59.0042C140.101 59.4391 140.865 59.6782 141.63 59.9174C142.225 60.1034 142.82 60.2895 143.323 60.5677C145.178 61.594 146.421 63.4264 147.645 65.2292C148.239 66.1057 148.829 66.9751 149.482 67.7415C151.584 70.2079 153.933 72.3656 156.494 74.3165C155.769 64.884 153.366 55.9268 149.57 47.7396C135.631 51.1941 119.871 49.9291 106.175 46.1883C100.055 44.517 94.3507 42.0153 88.5819 39.4852C87.7814 39.1342 86.9796 38.7825 86.1753 38.4325C77.482 34.6477 68.8307 32.5191 59.3204 33.058L59.5252 33.3096C60.3369 34.3068 61.1534 35.3098 62.0311 36.2842C62.5916 36.9064 63.2071 37.5064 63.8274 38.1112C65.4106 39.6548 67.0254 41.2291 67.8388 43.2802C67.9698 43.6105 68.0821 43.9483 68.186 44.2898C69.2573 42.701 71.0866 41.3677 72.4639 40.5415C74.0677 39.5796 76.6202 38.3558 78.2745 39.7415C78.5009 39.9314 78.5121 40.1644 78.4111 40.3534C78.4756 40.592 78.4682 40.9083 78.3821 41.305C78.6169 42.7516 79.1334 44.025 79.8137 45.1993C80.8355 46.0562 82.0408 46.5445 83.2933 47.0519C83.6258 47.1866 83.9618 47.3227 84.2984 47.4674C84.8308 47.6966 85.3473 47.9633 85.861 48.2393C88.1398 49.0118 90.3917 49.8349 92.6313 50.6534C103.452 54.6082 113.984 58.4577 125.873 55.9979C127.4 53.6334 129.577 50.9939 131.593 51.0772ZM65.4529 115.818C65.5726 115.905 65.6765 116.021 65.7616 116.163C67.3694 118.013 68.7069 119.996 70.0333 121.962L70.1369 122.115C70.7624 121.262 71.3305 120.339 71.9011 119.411C72.9784 117.66 74.0648 115.894 75.5647 114.557C76.313 113.89 77.0721 113.344 77.8003 112.819C78.3943 112.392 78.9679 111.979 79.4983 111.527C75.0777 108.601 72.7785 103.853 70.4918 99.1314C69.7898 97.6817 69.0889 96.2345 68.3282 94.8433C67.5264 93.7631 66.7652 92.6587 66.0035 91.5538L66.0003 91.5491C65.5009 90.8246 65.0014 90.0999 64.4901 89.3817C63.5544 88.3544 62.5298 87.3485 61.4818 86.3408C61.4865 87.0369 61.3078 87.7406 60.8493 88.4582C60.6209 88.8146 60.2792 89.0763 59.9413 89.3352C59.6217 89.58 59.3054 89.8222 59.0912 90.1396C57.9314 91.8594 58.4946 93.2282 59.1953 94.9313C59.2639 95.0981 59.3339 95.2682 59.4037 95.4421C60.6743 98.6065 61.1478 100.912 61.1085 104.317C61.0627 108.275 61.043 111.495 63.2755 114.852C63.749 114.599 64.4012 114.693 64.7717 115.077C64.9768 115.29 65.1726 115.507 65.3679 115.724L65.4529 115.818ZM42.5482 38.7248C40.9853 40.4448 39.4225 42.1646 37.9271 43.9445C35.6917 46.6028 33.3694 49.4725 31.7291 52.5593C31.0518 53.8324 30.5277 55.1692 30.0039 56.505C29.3548 58.1605 28.7063 59.8146 27.7675 61.3443C26.1002 64.0605 23.6526 65.8899 21.1959 67.726C19.3332 69.1182 17.4653 70.5143 15.9283 72.3038C14.159 74.3642 12.7105 76.6126 11.2771 78.8685C16.8846 77.8482 20.0499 83.5561 22.9249 88.7404C24.2973 91.2153 25.6036 93.5709 27.0779 95.0182C29.2151 97.1171 31.673 98.6923 34.1281 100.266C36.4689 101.766 38.8071 103.264 40.8623 105.213C41.6281 104.08 42.6153 103.143 43.6078 102.2C44.9277 100.947 46.2569 99.6849 47.0874 97.9422C47.6425 96.7771 48.0489 95.5599 48.4549 94.3437C48.9782 92.7763 49.5009 91.2106 50.3407 89.7607C52.2289 86.4999 55.1071 84.3581 58.2023 86.0405C57.6588 84.1878 56.5936 82.4557 55.5272 80.7216L55.4383 80.5771C54.2163 82.0318 52.7223 83.2349 51.2376 84.4306C50.8363 84.7538 50.4357 85.0764 50.0413 85.4033C47.7601 87.2943 45.5323 89.2433 43.5533 91.4524C43.2015 91.8454 42.6597 91.2765 42.9825 90.8826C46.2677 86.861 50.3398 82.3717 54.904 79.6966C54.4409 78.9256 54.0039 78.149 53.6324 77.3546C53.6236 77.3386 53.615 77.3225 53.6065 77.3063L53.5929 77.2801L53.5673 77.23C53.5555 77.2067 53.5434 77.1831 53.5314 77.16C49.9017 81.3169 45.8254 84.9479 41.7451 88.5824C39.0915 90.9461 36.4361 93.3115 33.9008 95.8238C33.5284 96.1925 32.9876 95.6395 33.3301 95.2531C35.1419 93.2117 37.148 91.3808 39.1558 89.5482L39.1582 89.546C40.3576 88.4513 41.5581 87.3556 42.7177 86.2145C43.862 85.0892 44.9813 83.9406 46.1002 82.7926C48.3021 80.5333 50.5037 78.2743 52.8876 76.2C52.9301 76.1642 52.9733 76.1432 53.0173 76.1218L53.0336 76.1139C52.2645 74.309 51.8921 72.3516 52.1297 70.1705C52.2332 69.2234 52.4725 68.2898 52.7119 67.3558C53.0486 66.0421 53.3856 64.7274 53.3452 63.3729C53.3134 62.3427 53.0916 61.4678 52.7482 60.6819C52.6659 60.5743 52.6144 60.4648 52.5966 60.3506C52.2532 59.6582 51.8116 59.0341 51.3185 58.4344C50.4595 59.2396 49.591 60.0183 48.7269 60.793C46.0586 63.1854 43.4313 65.5411 41.2487 68.5293C40.7893 69.1581 39.7339 68.5658 40.1886 67.9099C42.8553 64.0531 46.3341 59.9352 50.2921 57.2713L50.1788 57.1489L49.9739 56.9283C49.553 56.4753 49.1231 56.0127 48.7061 55.5226C47.3419 53.9188 45.4565 51.6311 46.6607 49.4023C47.0688 48.6475 47.7792 48.2574 48.4918 47.866C48.5928 47.8105 48.6938 47.755 48.794 47.6985C49.0767 47.5384 49.4235 47.4258 49.7744 47.312C50.2459 47.1589 50.7248 47.0035 51.0649 46.7272C53.3601 44.8607 52.7821 42.8002 52.1759 40.6389C52.1045 40.3841 52.0326 40.128 51.965 39.8706C51.8862 39.5699 51.8055 39.2757 51.7259 38.9853C51.3377 37.57 50.975 36.2477 50.9788 34.7244C50.9807 33.9336 51.0686 33.156 51.1558 32.385C51.2839 31.2512 51.4105 30.1317 51.2595 29.0056C49.5087 30.1466 47.9273 32.2171 46.5011 34.0843C45.842 34.9473 45.216 35.7668 44.6218 36.4311C43.9349 37.1988 43.241 37.9625 42.5482 38.7248ZM89.2415 99.5175C89.2811 99.5225 89.3203 99.5275 89.3641 99.5459C91.9179 100.605 92.9513 103.515 93.9657 106.372C94.4057 107.611 94.8421 108.84 95.3974 109.904C95.3618 107.221 95.811 104.499 96.538 101.937C96.6821 101.427 96.8514 100.922 97.032 100.421L97.071 100.261C97.2 99.7301 97.3291 99.1988 97.483 98.6683C98.1455 96.3731 98.6685 94.0077 98.4365 91.6012C98.4053 91.2823 98.3508 90.9683 98.2965 90.6559C98.2562 90.4238 98.216 90.1926 98.1857 89.9609C97.5439 90.288 96.8912 90.5947 96.2384 90.9014C95.7077 91.1507 95.1759 91.4006 94.6507 91.661C94.5225 91.7245 94.3936 91.7878 94.2643 91.8512C93.3544 92.2978 92.4258 92.7536 91.6032 93.3443C90.0561 94.4576 89.8977 95.7556 89.7286 97.1406C89.6435 97.8381 89.5556 98.5576 89.2865 99.2868C89.2672 99.3383 89.2497 99.3816 89.2322 99.4248C89.2209 99.4527 89.2093 99.4814 89.1976 99.5113C89.2037 99.5124 89.2097 99.5133 89.2157 99.5141C89.2242 99.5153 89.2332 99.5165 89.2415 99.5175ZM76.0953 73.96C76.609 75.1614 74.9182 75.8472 74.4597 74.6496L74.3672 74.4081C71.0626 65.7771 67.7316 57.0775 66.7703 47.8313C66.358 43.859 64.7381 42.346 62.4165 40.1775C61.8874 39.6833 61.3218 39.1551 60.7258 38.556C59.5156 37.3396 58.4711 36.0064 57.4309 34.6786C56.1212 33.0069 54.8184 31.3439 53.2001 29.9338C53.1372 30.7769 53.0221 31.6101 52.907 32.4431C52.6148 34.5572 52.3228 36.6708 52.8839 38.9462C52.9816 39.3418 53.1031 39.7648 53.2296 40.2054C53.8555 42.3848 54.6052 44.9952 53.2151 46.8508C52.7531 47.4671 52.1234 47.7519 51.4912 48.0378C51.062 48.2319 50.6317 48.4266 50.2518 48.7258C47.0184 51.2731 49.1104 53.4356 51.08 55.4717C51.278 55.6764 51.4747 55.8797 51.6647 56.0821C52.9045 57.4033 53.9739 58.6767 54.6851 60.1307C58.162 63.2203 61.6381 67.1324 63.7565 71.2325C64.0419 71.7845 63.3831 72.244 62.9303 71.8697C60.9375 70.2262 59.3055 68.1967 57.6695 66.1622L57.6674 66.1597C56.9729 65.2959 56.2774 64.4309 55.5534 63.5946C55.5557 63.6507 55.5605 63.705 55.5653 63.7593C55.5719 63.8354 55.5786 63.9115 55.5786 63.9923C55.5767 65.2058 55.2975 66.3983 55.02 67.5836C54.8916 68.132 54.7636 68.6788 54.6636 69.2255C54.1218 72.1878 54.5849 74.7843 55.8556 77.2526C57.0362 78.8045 58.3882 80.0866 59.79 81.4157C60.6456 82.227 61.5198 83.056 62.3848 83.9745C64.8157 86.556 67.1867 89.5764 68.7764 92.8709C69.7436 94.4803 70.6037 96.1615 71.4612 97.8376C73.8581 102.523 76.2345 107.168 80.871 110.092C81.4661 109.294 81.9377 108.325 82.2184 107.036C82.2663 106.816 82.312 106.594 82.3577 106.372C82.6793 104.808 83.0081 103.209 84.1908 102.036C84.7879 101.443 85.3244 101.201 85.798 100.987C86.6638 100.596 87.3195 100.299 87.752 98.1322C87.843 97.6759 87.7371 97.2924 87.629 96.9007C87.5149 96.4874 87.3982 96.065 87.5077 95.5385C88.1626 92.405 91.8501 90.7486 94.6638 89.4847C95.0706 89.302 95.4591 89.1275 95.8175 88.9579C99.186 87.3663 101.646 85.4519 103.505 82.163C103.855 81.5455 104.161 80.9148 104.459 80.2851C104.455 80.2819 104.451 80.2793 104.446 80.2767C104.442 80.2741 104.438 80.2716 104.434 80.2683C103.853 79.7678 103.264 79.2647 102.672 78.7583L102.664 78.752L102.652 78.7412C99.1511 75.7503 95.5129 72.6418 92.5108 69.2507C89.9555 66.3651 89.2163 63.5497 88.3667 59.8847C87.4764 56.0411 84.8029 53.591 82.146 51.1562C80.1143 49.2944 78.0924 47.4415 76.885 44.9813C76.8221 46.0908 76.7813 47.2018 76.7405 48.3123C76.6369 51.133 76.5334 53.9505 76.0681 56.7333C75.9394 57.5029 75.8045 58.2587 75.6715 59.004C74.8877 63.3953 74.1687 67.4241 75.1605 71.7668C75.4426 72.434 75.727 73.0989 76.0116 73.7643L76.0953 73.96ZM73.888 54.8339C74.062 54.7169 74.2623 54.8395 74.3315 55.0079C74.4288 54.1088 74.5121 53.1974 74.5673 52.2655C74.588 51.9167 74.5977 51.5664 74.6074 51.216L74.6113 51.0744C74.5052 51.1754 74.3985 51.2756 74.2924 51.3754C74.1087 51.5481 73.9259 51.72 73.7505 51.8912C73.4975 52.138 73.2476 52.388 72.9978 52.638C72.4577 53.1784 71.9177 53.7187 71.3458 54.2267C70.5645 54.92 69.4145 53.786 70.1921 53.072C70.5666 52.729 70.9512 52.3096 71.3523 51.8722C72.3252 50.8113 73.3957 49.6439 74.6543 49.2021C74.674 47.9642 74.703 46.7272 74.8377 45.4968C74.859 45.3036 74.9792 44.7263 75.1108 44.0946C75.2627 43.3652 75.4297 42.5632 75.4768 42.1967C73.5409 42.0975 70.5935 45.5633 69.8281 46.8564C69.4725 47.4571 69.2143 48.0999 69.0272 48.7633C69.0225 48.8437 69.0159 48.9223 69.0084 49.0009C69.0709 49.6951 69.1205 50.3945 69.17 51.0935C69.3169 53.1676 69.4636 55.2383 69.9479 57.1572C70.8003 60.5387 71.9511 63.8154 73.2246 67.0482C73.1391 64.2079 73.5099 61.4195 73.8939 58.5313C74.0353 57.4676 74.1787 56.3889 74.3016 55.2905C74.0418 55.6711 73.7056 56.0016 73.3733 56.3283C73.263 56.4367 73.1524 56.5454 73.0459 56.6547C72.6978 57.0103 72.1439 56.4564 72.4995 56.1083C72.6086 56.0016 72.7166 55.8916 72.8249 55.781C73.1587 55.4406 73.4967 55.0959 73.888 54.8339ZM120.353 65.2732C120.532 64.9803 120.708 64.6912 120.882 64.4086C110.614 69.1862 98.531 64.5948 89.919 58.3286C90.1615 58.9266 90.3885 59.505 90.609 60.0669C92.0259 63.6765 93.1754 66.6048 96.4351 69.6774C97.436 70.6212 98.4812 71.5309 99.5282 72.4421C101.617 74.2602 103.713 76.0841 105.477 78.1958C105.806 77.5661 106.169 76.9551 106.597 76.3768C106.6 76.3701 106.602 76.3633 106.605 76.3566C106.607 76.3507 106.609 76.3447 106.61 76.3388C106.616 76.321 106.621 76.3032 106.633 76.2851C108.249 73.8405 109.574 73.5243 111.459 73.0742C112.204 72.8965 113.036 72.698 114.007 72.3394C116.639 71.3673 118.605 68.1412 120.353 65.2732ZM112.984 98.4243L112.985 98.4168C113.23 96.89 113.474 95.3627 113.796 93.8468C114.186 92.0006 114.882 90.4263 115.587 88.8337C116.037 87.8167 116.49 86.7923 116.868 85.6849C117.792 82.984 117.041 81.1949 116.218 79.2358C115.803 78.2461 115.369 77.213 115.123 75.9969C114.985 75.3102 114.943 74.7319 114.991 74.1883C114.34 74.3751 113.667 74.4997 112.998 74.6235C111.352 74.9282 109.733 75.2278 108.539 76.4367C107.52 79.1455 106.196 82.0648 104.421 84.5602C104.562 85.0785 104.695 85.5892 104.827 86.0946C105.414 88.3481 105.973 90.4964 107.115 92.7464C108.03 94.5493 109.161 96.2084 110.291 97.8665C111.053 98.9845 111.815 100.102 112.51 101.263C112.68 100.319 112.832 99.3713 112.984 98.4243ZM86.0851 49.185C84.9746 48.7967 83.86 48.4069 82.6834 48.1785C82.3765 48.1195 82.092 48.0503 81.8216 47.9726C82.6008 48.8753 83.4454 49.7399 84.2919 50.6064C85.6592 52.006 87.0313 53.4106 88.1403 54.9883C89.0211 55.7226 89.9422 56.4271 90.8599 57.1288C91.6596 57.7404 92.4575 58.3506 93.2229 58.9761C94.0154 59.6245 94.8594 60.2262 95.709 60.8157C103.759 65.1263 112.279 66.3417 121.638 63.2203C121.653 63.1959 121.669 63.171 121.686 63.1466C121.694 63.1346 121.702 63.1226 121.71 63.1109C121.793 62.9754 121.877 62.84 121.961 62.7048C122.772 61.3945 123.577 60.0955 124.252 58.7946C124.465 58.382 124.765 57.8299 125.127 57.2114C113.934 60.3521 102.239 55.5717 91.3468 51.1195C90.392 50.7292 89.4411 50.3406 88.4996 49.9609C87.6824 49.7435 86.8848 49.4646 86.0851 49.185ZM77.3266 28.8082C56.1064 23.1277 31.8461 25.7682 13.5863 38.7263C11.7122 41.6699 10.0326 44.7464 8.56172 47.9417C13.4076 44.462 18.5566 41.6512 24.1127 39.341C27.4362 37.96 30.9637 36.5172 34.5605 35.4047C35.8742 34.8049 37.2131 34.2566 38.6513 33.8505C41.4649 33.058 43.9032 32.36 46.3566 31.0912C46.4344 30.9882 46.5123 30.8854 46.5901 30.7826C46.8554 30.4323 47.1216 30.0808 47.384 29.7223C48.5779 28.0924 49.8289 26.9181 51.733 26.2304C52.198 26.0629 52.8773 26.3623 53.0832 26.8367C55.341 28.375 57.0701 30.3212 58.7431 32.3534C58.75 32.3517 58.7563 32.3494 58.7626 32.3471C58.7735 32.343 58.7843 32.3391 58.7974 32.3385C66.2136 31.8201 73.4155 32.7324 80.4125 35.2812C83.5432 36.4222 86.5896 37.7608 89.6356 39.0993C93.5884 40.8363 97.5406 42.573 101.676 43.8772C117.464 48.8568 132.753 48.5537 148.829 46.1686C147.59 43.6461 146.211 41.2068 144.715 38.847C135.564 43.5581 122.681 41.5698 113.11 39.502C106.078 37.9829 99.2638 35.7328 92.4476 33.4822C87.4371 31.8277 82.4257 30.173 77.3266 28.8082ZM78.2904 23.6957C59.3083 19.6741 36.0688 18.1555 19.6196 30.4793C17.7594 32.6959 16.0219 35.0164 14.4153 37.4341C29.9429 26.6599 50.6579 22.8704 69.1076 25.8515C77.4946 27.207 85.595 29.7156 93.6948 32.224C98.1077 33.5907 102.52 34.9573 106.979 36.1373C113.449 37.8505 120.058 39.1464 126.758 39.4496C130.865 39.6361 134.792 39.0788 138.747 38.5175C140.508 38.2677 142.274 38.017 144.064 37.8309C141.907 34.542 139.515 31.4234 136.897 28.5069C121.007 33.7022 104.126 29.7172 88.0667 25.926C84.7681 25.1473 81.504 24.3768 78.2904 23.6957ZM25.3018 49.8467C28.1701 48.391 31.0116 46.949 34.1535 45.9946C34.3079 45.9478 34.4435 45.9516 34.568 45.9768C36.1755 43.589 37.9523 41.2891 39.9865 38.9434C41.3049 37.4238 42.5708 35.9155 43.8041 34.382C40.5828 35.8419 37.1853 36.9393 33.7881 38.0366C31.2263 38.8641 28.6641 39.6917 26.1787 40.6744C19.7478 43.2175 13.2055 46.1696 7.54745 50.1967C6.70066 52.2047 5.95024 54.2613 5.27187 56.3516C7.38717 55.6572 9.54522 55.1774 11.7072 54.6968C14.935 53.9791 18.1718 53.2594 21.2879 51.821C22.6528 51.191 23.9803 50.5173 25.3018 49.8467ZM17.8025 108.716C15.948 99.5366 13.3093 90.3109 9.40102 81.7794C8.07142 83.7855 6.64264 85.7336 4.9004 87.4954C7.28905 91.3451 9.33685 95.3946 11.3846 99.4441C13.5649 103.756 15.7452 108.067 18.3368 112.137C18.1932 111.261 18.0743 110.468 17.9827 109.857C17.8995 109.302 17.8386 108.896 17.8025 108.716ZM53.6165 118.44C54.8897 119.322 56.1617 120.203 57.3415 121.196C58.5635 119.397 59.9136 117.573 61.5464 116.135C58.6052 114.319 58.734 109.761 58.8547 105.491C58.9307 102.802 59.0035 100.226 58.3043 98.5205C58.0369 97.8685 57.668 97.1905 57.2884 96.4929C56.2825 94.6443 55.2017 92.6581 55.7377 90.6561C56.0517 89.4825 56.8012 88.7809 57.4837 88.1421L57.5108 88.1167C53.5422 85.4093 50.8568 92.6984 49.5808 96.1619C49.4577 96.4961 49.3474 96.7953 49.2506 97.0458C48.2165 99.7251 46.5566 101.498 44.8419 103.33C43.9176 104.317 42.9773 105.322 42.1105 106.494C42.3612 106.775 42.6083 107.061 42.8469 107.362C43.4502 108.122 44.0243 108.894 44.5956 109.661C46.0549 111.623 47.4959 113.559 49.3592 115.224C50.6881 116.411 52.1532 117.426 53.6165 118.44ZM133.652 63.2475C133.617 62.9827 133.579 62.7188 133.537 62.4578C133.46 61.9839 133.357 61.5147 133.253 61.0445L133.223 60.9064C131.173 63.6526 128.79 66.2061 126.422 68.7436L126.42 68.7456C125.102 70.1584 123.788 71.5667 122.539 73C122.045 73.5661 121.246 72.7464 121.72 72.1813C122.611 71.1175 123.488 70.0087 124.372 68.8908C126.987 65.5863 129.664 62.2025 132.936 59.6667C132.734 58.8661 132.514 58.069 132.294 57.2724L132.294 57.2699C131.989 56.1643 131.684 55.0595 131.428 53.9478C131.419 53.9101 131.415 53.8739 131.412 53.8377C131.411 53.825 131.409 53.8108 131.408 53.7981C129.905 54.5744 128.194 56.8855 127.145 58.3021C126.914 58.6136 126.716 58.8818 126.558 59.0809C124.805 61.3013 123.218 63.6751 121.8 66.1237C121.424 66.7746 121.079 67.4638 120.732 68.1573C120.68 68.2599 120.628 68.364 120.577 68.4667C120.418 68.8617 120.257 69.253 120.097 69.6422C119.09 72.0886 118.118 74.4518 117.994 77.1375C118.083 77.4123 118.179 77.6869 118.273 77.9598C118.525 78.6856 118.773 79.399 118.889 80.0709C119.274 82.2837 118.98 83.981 118.212 86.0283C116.571 90.4017 115.778 94.6685 114.962 99.0614C114.633 100.83 114.3 102.619 113.907 104.444C113.736 105.24 112.414 105.48 112.072 104.685C111.76 103.957 111.415 103.246 111.057 102.542C110.584 103.152 110.004 103.724 109.44 104.281C109.111 104.605 108.788 104.924 108.495 105.241C107.921 105.862 107.301 106.442 106.676 107.021C105.91 107.883 105.139 108.741 104.367 109.6L104.363 109.603C102.358 111.833 100.352 114.063 98.4496 116.372C94.298 121.41 90.1099 126.402 85.5045 131.036C85.0581 131.486 84.3723 130.797 84.8102 130.341C88.9194 126.06 92.6635 121.475 96.412 116.884C96.9662 116.205 97.5206 115.526 98.0762 114.848C98.6928 114.096 99.3084 113.331 99.9276 112.563C102.261 109.665 104.645 106.706 107.313 104.11C107.41 103.974 107.506 103.838 107.602 103.702C107.865 103.329 108.123 102.963 108.379 102.621C108.484 102.481 108.598 102.315 108.721 102.137C109.077 101.619 109.509 100.993 110 100.571C109.564 99.7948 109.114 99.0248 108.655 98.2585C107.657 99.7544 106.372 101.024 105.086 102.295L105.083 102.297C104.154 103.215 103.225 104.133 102.405 105.137C102.089 105.523 101.428 105.006 101.716 104.605C103.603 101.99 105.521 99.3738 108.271 97.6128L107.914 97.02C106.674 94.9652 105.433 92.9079 104.387 90.745C104.272 90.5068 104.141 90.2498 104.003 89.9785C103.504 89.0017 102.911 87.8401 102.634 86.7095C102.148 87.2194 101.637 87.6929 101.097 88.1251L101.053 88.2467C100.815 88.9153 100.578 89.5789 100.51 90.3474C100.508 90.3712 100.505 90.3949 100.502 90.4187C100.499 90.4431 100.495 90.4683 100.493 90.4933C100.496 90.5192 100.497 90.5462 100.499 90.5734L100.499 90.5795C100.5 90.5944 100.501 90.6094 100.502 90.6243C101.093 93.4734 100.441 95.9848 99.4274 98.7235C97.833 103.029 97.0161 107.241 96.5576 111.818C96.5165 112.232 95.9878 112.57 95.6566 112.192C94.3381 110.685 93.5848 108.886 92.837 107.1C92.672 106.706 92.5073 106.313 92.3368 105.924C89.7366 110.16 86.098 113.98 82.5795 117.674C81.3347 118.98 80.105 120.271 78.9416 121.56C78.5206 122.025 77.8646 121.346 78.2595 120.876C79.8746 118.955 81.4035 116.877 82.9418 114.785C85.6382 111.12 88.3639 107.414 91.6341 104.446C90.9417 103.122 90.0837 101.898 88.7831 100.925C88.7064 100.867 88.6437 100.797 88.5959 100.718C88.3888 101.008 88.1607 101.223 87.843 101.521C87.637 101.714 87.3923 101.944 87.0923 102.252C85.2752 104.117 84.8721 105.71 84.4461 107.393C84.1521 108.555 83.8473 109.759 83.0595 111.126C82.1975 112.62 80.9468 113.414 79.5951 114.272C79.3372 114.436 79.0757 114.602 78.8125 114.776C76.4282 116.349 74.9613 118.584 73.4671 120.86C72.8316 121.828 72.1911 122.804 71.473 123.74C71.4318 123.793 71.3879 123.837 71.3439 123.881C73.2508 126.623 75.3074 129.231 78.2595 131.275C82.5833 134.267 85.9639 137.929 88.4275 142.484C88.682 142.403 88.9768 142.435 89.2752 142.65C91.5908 144.313 93.5146 146.386 95.4377 148.459C97.3145 150.481 99.1906 152.503 101.43 154.142C101.609 154.274 101.728 154.433 101.806 154.603C105.148 153.583 108.388 152.333 111.523 150.89C114.896 146.882 118.381 142.971 122.448 139.658C123.018 139.194 123.778 139.917 123.267 140.477C122.539 141.272 121.809 142.066 121.079 142.86C119.246 144.853 117.411 146.848 115.609 148.873C119.65 146.716 123.47 144.206 127.045 141.395C127.051 141.298 127.073 141.2 127.13 141.104C127.517 140.444 127.923 139.8 128.33 139.157C128.966 138.151 129.601 137.145 130.161 136.076C130.279 135.851 130.412 135.613 130.549 135.366C130.965 134.62 131.421 133.801 131.634 133.054C131.695 132.842 131.751 132.658 131.8 132.498C131.957 131.987 132.038 131.721 131.945 131.552C131.843 131.368 131.535 131.299 130.894 131.155C130.507 131.068 129.998 130.953 129.341 130.77C128.876 130.64 128.54 130.197 128.537 129.715C128.516 125.967 127.823 123.943 125.663 120.937C125.126 120.192 124.698 119.515 124.324 118.804C124.319 118.854 124.306 118.902 124.276 118.95C122.323 121.928 119.445 124.173 116.568 126.416C114.406 128.103 112.244 129.788 110.477 131.785C109.92 132.413 109.014 131.494 109.559 130.867C113.564 126.249 118.717 121.885 123.76 118.433C123.891 118.345 124.036 118.37 124.148 118.448C123.92 117.981 123.704 117.496 123.509 116.949C123.392 116.623 123.514 116.138 123.781 115.915C125.629 114.377 127.604 113.022 129.58 111.666C130.502 111.033 131.426 110.4 132.336 109.748C132.537 109.604 132.736 109.458 132.934 109.313C134.412 108.227 135.821 107.193 137.728 107.406C138.004 107.437 138.253 107.615 138.494 107.786C138.727 107.952 138.952 108.112 139.183 108.128C140.194 108.197 140.216 108.116 140.279 107.887C140.307 107.785 140.343 107.654 140.477 107.494C140.577 107.376 140.612 107.028 140.646 106.684C140.674 106.406 140.702 106.131 140.763 105.982C141.093 105.176 141.897 104.537 142.612 103.969C142.788 103.828 142.96 103.692 143.117 103.559C143.428 103.296 143.793 103.024 144.176 102.739C145.88 101.471 147.957 99.9247 147.359 97.5969C146.894 97.1665 146.455 96.7202 146.076 96.244C145.58 95.6227 145.112 95.0379 144.643 94.4727C143.414 96.088 141.79 97.5233 140.235 98.8965C139.539 99.5111 138.858 100.113 138.232 100.714C137.653 101.27 136.798 100.414 137.351 99.8332C138.123 99.023 138.869 98.1141 139.625 97.1923C140.817 95.7389 142.037 94.2516 143.426 93.0702C142.812 92.3993 142.155 91.7424 141.408 91.079C138.084 95.3059 133.967 99.1597 130.041 102.835C129.587 103.26 129.137 103.682 128.69 104.102C128.443 104.334 128.073 103.966 128.317 103.73C130.08 102.02 131.658 100.008 133.244 97.984C135.455 95.164 137.685 92.3201 140.456 90.2416C139.207 89.131 137.996 87.8865 137.246 86.3867C137.128 86.5041 137.009 86.6206 136.89 86.7372L136.887 86.7407C136.571 87.0494 136.255 87.3589 135.968 87.6854C135.737 87.9484 135.482 88.1928 135.229 88.4367L135.169 88.4938C134.086 89.852 132.845 91.0867 131.604 92.3202C130.916 93.0046 130.229 93.6887 129.568 94.3932C129.32 94.6585 129.07 94.9242 128.82 95.1902C125.772 98.4347 122.657 101.75 120.2 105.447C119.84 105.99 118.967 105.489 119.322 104.934C122.682 99.6677 126.947 95.096 131.203 90.5349L131.209 90.5282C132.443 89.2055 133.677 87.8834 134.887 86.5457C134.923 86.4895 134.958 86.4332 134.994 86.3769L135.086 86.2296C135.244 85.9795 135.401 85.7302 135.561 85.4893C135.657 85.3459 135.753 85.1861 135.851 85.0211C136.132 84.5489 136.439 84.0333 136.866 83.7303C136.942 83.4422 137.044 83.1653 137.146 82.8897C137.388 82.2326 137.627 81.5824 137.51 80.8026C137.358 79.7817 136.382 79.2222 135.221 78.7609C134.62 79.225 134.032 79.7116 133.451 80.214C132.891 80.8667 132.289 81.4907 131.689 82.1125C131.22 82.5978 130.753 83.0818 130.309 83.5768C128.825 85.2292 127.309 86.832 125.674 88.3375C125.318 88.666 124.795 88.1504 125.141 87.8042C126.388 86.5535 127.477 85.1683 128.567 83.7826C128.853 83.4195 129.139 83.0561 129.427 82.6954C129.55 82.5413 129.674 82.385 129.799 82.2277C130.526 81.3088 131.284 80.3519 132.153 79.545C132.298 79.3557 132.443 79.1481 132.593 78.9345C132.803 78.6351 133.022 78.3237 133.258 78.0348C132.265 77.6484 131.385 77.1965 131.004 76.4601C130.477 75.443 130.539 73.4762 130.916 72.3703C131.175 71.6094 131.637 71.0343 132.107 70.4474C132.649 69.7719 133.204 69.081 133.477 68.0737C133.8 66.8788 133.852 65.6334 133.767 64.3984C132.179 66.4699 130.38 68.3861 128.579 70.3037C127.047 71.9355 125.513 73.5684 124.109 75.2989C123.763 75.7247 123.029 75.152 123.351 74.7141L123.517 74.4887C126.452 70.5087 129.592 66.2511 133.564 63.2877C133.586 63.2706 133.61 63.2623 133.633 63.254C133.64 63.2519 133.646 63.2498 133.652 63.2475Z" fill="url(#paint24_linear_1009_71737)"/>
</g>
</g>
<defs>
<linearGradient id="paint0_linear_1009_71737" x1="70" y1="-14" x2="70" y2="146" gradientUnits="userSpaceOnUse">
<stop stop-color="white"/>
<stop offset="1" stop-color="white" stop-opacity="0"/>
</linearGradient>
<linearGradient id="paint1_linear_1009_71737" x1="14.9268" y1="31.7898" x2="91.708" y2="108.572" gradientUnits="userSpaceOnUse">
<stop stop-color="#559D3E"/>
<stop offset="1" stop-color="currentColor"/>
</linearGradient>
<linearGradient id="paint2_linear_1009_71737" x1="14.9268" y1="31.7898" x2="91.708" y2="108.572" gradientUnits="userSpaceOnUse">
<stop stop-color="#559D3E"/>
<stop offset="1" stop-color="currentColor"/>
</linearGradient>
<linearGradient id="paint3_linear_1009_71737" x1="14.9268" y1="31.7898" x2="91.708" y2="108.572" gradientUnits="userSpaceOnUse">
<stop stop-color="#559D3E"/>
<stop offset="1" stop-color="currentColor"/>
</linearGradient>
<linearGradient id="paint4_linear_1009_71737" x1="14.9268" y1="31.7898" x2="91.708" y2="108.572" gradientUnits="userSpaceOnUse">
<stop stop-color="#559D3E"/>
<stop offset="1" stop-color="currentColor"/>
</linearGradient>
<linearGradient id="paint5_linear_1009_71737" x1="14.9268" y1="31.7898" x2="91.708" y2="108.572" gradientUnits="userSpaceOnUse">
<stop stop-color="#559D3E"/>
<stop offset="1" stop-color="currentColor"/>
</linearGradient>
<linearGradient id="paint6_linear_1009_71737" x1="14.9268" y1="31.7898" x2="91.708" y2="108.572" gradientUnits="userSpaceOnUse">
<stop stop-color="#559D3E"/>
<stop offset="1" stop-color="currentColor"/>
</linearGradient>
<linearGradient id="paint7_linear_1009_71737" x1="14.9268" y1="31.7898" x2="91.708" y2="108.572" gradientUnits="userSpaceOnUse">
<stop stop-color="#559D3E"/>
<stop offset="1" stop-color="currentColor"/>
</linearGradient>
<linearGradient id="paint8_linear_1009_71737" x1="14.9268" y1="31.7898" x2="91.708" y2="108.572" gradientUnits="userSpaceOnUse">
<stop stop-color="#559D3E"/>
<stop offset="1" stop-color="currentColor"/>
</linearGradient>
<linearGradient id="paint9_linear_1009_71737" x1="14.9268" y1="31.7898" x2="91.708" y2="108.572" gradientUnits="userSpaceOnUse">
<stop stop-color="#559D3E"/>
<stop offset="1" stop-color="currentColor"/>
</linearGradient>
<linearGradient id="paint10_linear_1009_71737" x1="14.9268" y1="31.7898" x2="91.708" y2="108.572" gradientUnits="userSpaceOnUse">
<stop stop-color="#559D3E"/>
<stop offset="1" stop-color="currentColor"/>
</linearGradient>
<linearGradient id="paint11_linear_1009_71737" x1="14.9268" y1="31.7898" x2="91.708" y2="108.572" gradientUnits="userSpaceOnUse">
<stop stop-color="#559D3E"/>
<stop offset="1" stop-color="currentColor"/>
</linearGradient>
<linearGradient id="paint12_linear_1009_71737" x1="14.9268" y1="31.7898" x2="91.708" y2="108.572" gradientUnits="userSpaceOnUse">
<stop stop-color="#559D3E"/>
<stop offset="1" stop-color="currentColor"/>
</linearGradient>
<linearGradient id="paint13_linear_1009_71737" x1="14.9268" y1="31.7898" x2="91.708" y2="108.572" gradientUnits="userSpaceOnUse">
<stop stop-color="#559D3E"/>
<stop offset="1" stop-color="currentColor"/>
</linearGradient>
<linearGradient id="paint14_linear_1009_71737" x1="14.9268" y1="31.7898" x2="91.708" y2="108.572" gradientUnits="userSpaceOnUse">
<stop stop-color="#559D3E"/>
<stop offset="1" stop-color="currentColor"/>
</linearGradient>
<linearGradient id="paint15_linear_1009_71737" x1="14.9268" y1="31.7898" x2="91.708" y2="108.572" gradientUnits="userSpaceOnUse">
<stop stop-color="#559D3E"/>
<stop offset="1" stop-color="currentColor"/>
</linearGradient>
<linearGradient id="paint16_linear_1009_71737" x1="14.9268" y1="31.7898" x2="91.708" y2="108.572" gradientUnits="userSpaceOnUse">
<stop stop-color="#559D3E"/>
<stop offset="1" stop-color="currentColor"/>
</linearGradient>
<linearGradient id="paint17_linear_1009_71737" x1="14.9268" y1="31.7898" x2="91.708" y2="108.572" gradientUnits="userSpaceOnUse">
<stop stop-color="#559D3E"/>
<stop offset="1" stop-color="currentColor"/>
</linearGradient>
<linearGradient id="paint18_linear_1009_71737" x1="14.9268" y1="31.7898" x2="91.708" y2="108.572" gradientUnits="userSpaceOnUse">
<stop stop-color="#559D3E"/>
<stop offset="1" stop-color="currentColor"/>
</linearGradient>
<linearGradient id="paint19_linear_1009_71737" x1="14.9268" y1="31.7898" x2="91.708" y2="108.572" gradientUnits="userSpaceOnUse">
<stop stop-color="#559D3E"/>
<stop offset="1" stop-color="currentColor"/>
</linearGradient>
<linearGradient id="paint20_linear_1009_71737" x1="14.9268" y1="31.7898" x2="91.708" y2="108.572" gradientUnits="userSpaceOnUse">
<stop stop-color="#559D3E"/>
<stop offset="1" stop-color="currentColor"/>
</linearGradient>
<linearGradient id="paint21_linear_1009_71737" x1="14.9268" y1="31.7898" x2="91.708" y2="108.572" gradientUnits="userSpaceOnUse">
<stop stop-color="#559D3E"/>
<stop offset="1" stop-color="currentColor"/>
</linearGradient>
<linearGradient id="paint22_linear_1009_71737" x1="14.9268" y1="31.7898" x2="91.708" y2="108.572" gradientUnits="userSpaceOnUse">
<stop stop-color="#559D3E"/>
<stop offset="1" stop-color="currentColor"/>
</linearGradient>
<linearGradient id="paint23_linear_1009_71737" x1="14.9268" y1="31.7898" x2="91.708" y2="108.572" gradientUnits="userSpaceOnUse">
<stop stop-color="#559D3E"/>
<stop offset="1" stop-color="currentColor"/>
</linearGradient>
<linearGradient id="paint24_linear_1009_71737" x1="14.9268" y1="31.7898" x2="91.708" y2="108.572" gradientUnits="userSpaceOnUse">
<stop stop-color="#559D3E"/>
<stop offset="1" stop-color="currentColor"/>
</linearGradient>
<clipPath id="clip0_1009_71737">
<rect width="160" height="146" fill="white"/>
</clipPath>
</defs>
</svg>
