<svg width="65" height="65" viewBox="0 0 65 65" fill="none" xmlns="http://www.w3.org/2000/svg">
<path d="M21.7105 20.1796C20.9215 19.9505 20.1079 19.8192 19.4368 19.7039C16.5074 19.2009 14.4309 17.8472 12.926 15.5271C14.1083 16.1461 15.4898 16.3665 16.7357 16.9455C18.4749 17.754 20.283 18.8188 21.7105 20.1796ZM61.38 43.2439C59.7691 44.0276 58.1388 44.5984 56.4681 44.9772C55.7622 44.1205 55.1907 43.1511 54.2266 42.5429C53.1132 41.8404 51.7044 41.5983 50.4454 41.2977C49.7638 41.1349 49.0538 40.9848 48.4179 40.6753C47.9542 40.4496 47.3356 39.7707 46.7708 39.8276C46.6484 39.8399 46.5088 39.9107 46.4833 40.0462C46.1083 42.0582 47.9812 44.5168 50.0812 45.5476C50.0561 45.5464 50.0314 45.5468 50.0067 45.5457C47.248 45.4476 44.2748 44.8791 41.5029 43.9438C40.8049 42.9172 40.7073 41.8056 40.4935 40.5264C40.2619 39.1423 39.8764 37.7579 39.2798 36.4835C38.1312 34.0287 36.1176 31.9253 34.1216 30.146C33.8551 29.9087 33.3746 30.1337 33.4921 30.5128C34.3634 33.3254 34.6531 36.3102 35.7227 39.0648C36.2482 40.4178 36.9788 41.4557 37.8628 42.4359C37.7124 42.3606 37.5611 42.2858 37.4137 42.2083C30.6828 38.6591 29.2374 30.8002 25.9648 24.4395C25.7324 22.7224 26.4775 21.1284 26.3507 19.3753C26.2264 17.6578 25.3798 15.7164 24.1122 14.5266C23.8644 14.2942 23.3415 14.4387 23.3793 14.8302C23.5511 16.6057 23.3906 18.3318 23.4433 20.1175C23.4478 20.2664 23.4583 20.4146 23.4737 20.5617C22.1057 18.9864 20.2568 17.9074 18.4285 16.9512C16.4861 15.935 14.0058 15.8096 12.2879 14.4215C12.2789 14.4039 12.2692 14.3878 12.2602 14.3702C12.1977 14.2471 12.106 14.1902 12.0094 14.1756C11.9941 14.161 11.9772 14.1486 11.9619 14.134C11.725 13.9046 11.3949 14.2298 11.5742 14.4795C11.548 14.5659 11.545 14.6629 11.5876 14.7632C12.633 17.2184 14.1424 19.0179 16.6661 20.0928C18.0093 20.6646 19.4675 20.8222 20.8833 21.1209C21.8362 21.3215 22.6057 21.6565 23.355 22.1363C23.8157 22.8103 24.2256 23.5136 24.5946 24.24C24.2832 24.0903 23.949 23.9631 23.5878 23.8624C22.2562 23.4911 20.6925 23.225 19.3167 23.0656C18.6377 22.9866 17.8712 22.9133 17.2705 23.3111C15.8195 24.2719 17.4981 26.0882 18.5165 26.6855C20.8575 28.0591 23.6241 26.44 26.0153 27.4879C26.2526 28.0943 26.4832 28.7043 26.7156 29.3133C25.8495 28.5797 24.8738 28.1231 23.4033 27.8828C20.8265 27.4617 18.1175 27.2896 15.6174 26.5422C15.196 26.416 14.7861 26.2798 14.3853 26.1338C14.2565 25.0982 14.2307 23.9462 13.8725 22.9716C13.6349 22.326 12.9208 21.4177 12.1045 21.7298C11.3458 22.0199 11.4783 23.2071 11.6576 23.8078C11.8096 24.316 12.0285 24.7745 12.3025 25.1985C10.9675 24.4579 9.7975 23.4777 8.82852 22.0947C8.57065 21.7264 8.35656 21.3563 8.17167 20.9839C8.19188 20.9599 8.20873 20.9308 8.21883 20.8918C8.40297 20.1796 8.96175 19.5707 9.24583 18.8947C9.47338 18.3524 9.66688 17.8022 9.799 17.2289C9.96255 16.5181 10.4019 14.8545 9.49022 14.4121C8.74618 14.0509 8.06987 14.9844 7.76484 15.5173C7.44821 16.0705 7.27343 16.6517 7.18098 17.2479C7.08367 16.316 7.04662 15.359 6.9815 14.3713C9.26155 11.1672 12.1322 8.41632 15.4381 6.27475C15.5208 7.22203 15.8947 8.20972 16.428 9.04996C16.0485 8.92495 15.6488 8.84972 15.1806 8.87068C14.4901 8.90212 13.0147 9.12331 12.9829 10.0508C12.9507 10.9898 14.2453 11.2832 14.9377 11.348C15.7817 11.4266 17.2514 11.3708 17.9888 10.7286C19.7778 12.0419 22.1342 12.6182 23.9602 13.8758C23.9692 13.8821 23.9782 13.8851 23.9872 13.8908C24.8637 14.9144 25.8503 15.8497 26.8529 16.5428C28.6715 17.7996 30.9381 18.7884 33.0924 19.2608C34.6598 19.6047 36.7651 20.1107 38.3692 20.9809C38.9377 21.5868 39.4826 22.216 40.0265 22.853C38.8692 22.6355 37.5989 22.9657 36.4544 23.0937C33.5632 23.417 31.3198 22.996 28.8235 21.6093C28.6296 21.5019 28.3077 21.6329 28.3373 21.8885C28.4919 23.2355 29.8819 24.4829 30.8228 25.3239C32.1073 26.4718 33.7601 27.1754 35.3713 27.7503C36.9773 28.3233 38.5612 28.3016 40.1668 27.769C41.0572 27.4734 42.6463 26.6777 43.9039 26.6447C44.4279 27.0182 44.9728 27.3682 45.5372 27.6889C44.7905 27.665 44.0356 27.7428 43.1759 28.0168C41.5961 28.5202 40.2061 29.7036 38.5073 29.8414C38.0339 29.8795 38.0331 30.5401 38.5073 30.5787C40.0654 30.7048 41.6134 30.932 43.1737 30.6546C44.9324 30.3417 46.5066 29.4263 48.2271 28.9839C49.4098 29.4633 50.6201 29.8488 51.8096 30.1471C52.1236 30.2257 52.4443 30.292 52.764 30.3582C51.5053 30.74 50.3465 31.3687 49.0422 32.0503C46.7536 33.2464 44.2703 34.0721 41.6845 34.2588C41.4176 34.2779 41.3581 34.58 41.5561 34.733C44.2183 36.7874 48.6882 36.3656 51.67 35.4468C54.4223 34.5987 56.1627 32.2823 58.5999 30.963C60.1782 30.966 61.9893 30.8017 63.2592 30.0988C63.3127 30.8436 63.3494 31.5929 63.3494 32.3512C63.3494 36.1845 62.6503 39.8538 61.38 43.2439ZM56.0957 47.7643C55.5298 48.3546 54.9302 48.9077 54.261 49.4018C51.9896 51.0785 49.3046 51.5392 46.7727 52.6167C47.2513 52.1264 47.6881 51.5957 48.2069 51.1388C49.5142 49.9886 51.0764 49.453 52.7217 48.9339C53.8254 48.5855 55.0564 48.3126 56.0957 47.7643ZM52.6992 45.5112C52.6809 45.4899 52.6584 45.4716 52.633 45.4566C51.9956 45.0909 51.2905 45.1295 50.6059 44.8825C49.4577 44.4689 48.3708 43.4778 47.7682 42.4288C47.5238 42.0036 47.3966 41.5242 47.2596 41.0589C47.1398 40.651 47.1664 40.4354 46.9826 40.4395C47.2465 40.4335 47.888 41.0881 48.1694 41.2648C49.0171 41.7985 49.9798 42.0878 50.9458 42.3438C52.0854 42.6466 53.2239 42.9172 54.1772 43.6395C54.7229 44.0531 55.2008 44.6111 55.6761 45.1418C54.7 45.3267 53.709 45.4484 52.6992 45.5112ZM40.6006 62.2733C42.0382 61.1302 43.1789 59.5635 43.7351 57.9684C43.8111 57.7495 43.8781 57.5257 43.9402 57.2985C44.0525 58.4007 44.3979 59.2675 45.3007 58.7967C47.4254 57.6888 45.258 54.2519 44.6898 52.8278C45.0806 50.2315 45.7397 47.8179 48.4314 46.6475C48.6163 46.6617 48.8012 46.6763 48.9887 46.6846C51.3343 46.7849 53.6779 46.6857 55.9976 46.3024C56.1661 46.2748 56.3218 46.2373 56.4823 46.2033C56.2413 46.3556 55.9961 46.4974 55.7458 46.6221C54.2801 47.3504 52.6041 47.5985 51.1015 48.2341C50.0082 48.6966 49.0546 49.1503 48.2383 50.0216C47.5231 50.7847 47.105 51.9925 46.3935 52.7829C46.3838 52.7874 46.3741 52.7911 46.3647 52.7956C46.316 52.8181 46.2775 52.8727 46.2592 52.9225C46.1697 53.0105 46.0788 53.0966 45.9788 53.1695C45.8063 53.2949 45.9519 53.5554 46.1473 53.4585C47.4796 52.7975 49.071 52.5797 50.5 52.2208C51.9323 51.8611 53.057 51.3498 54.2988 50.5208C55.1825 49.9306 55.9797 49.3093 56.6462 48.4784C57.208 47.7778 57.6309 46.783 58.2223 46.0244C58.4588 45.7983 58.7006 45.5786 58.9596 45.3795C59.6269 45.0745 60.2733 44.7227 60.9462 44.3443C57.3012 53.0419 49.8098 59.7222 40.6006 62.2733ZM42.2549 59.3192C41.7163 59.6972 41.1579 60.0336 40.5407 60.2821C40.1174 60.4528 39.6814 60.5965 39.2315 60.6759C38.9882 60.7189 38.7008 60.793 38.4527 60.7575C38.3127 60.7762 38.1884 60.7335 38.0795 60.6298C37.749 60.549 37.7573 60.439 38.1046 60.3005C38.4946 59.8944 39.3101 59.6983 39.8131 59.5392C40.6504 59.2739 41.5531 59.0411 42.4439 58.9995C42.3836 59.1073 42.3215 59.214 42.2549 59.3192ZM44.4952 54.231L44.4982 54.2108C45.0454 55.2995 45.9523 56.3486 45.5076 57.5949C44.8987 59.3008 44.4395 56.8366 44.4312 56.4036C44.4181 55.7022 44.4922 54.9941 44.5065 54.2916C44.5068 54.2688 44.4997 54.2512 44.4952 54.231ZM34.1227 53.5584C33.4266 54.6591 32.9105 55.9504 32.1148 56.907C30.3864 58.9846 27.9641 59.5845 25.5778 60.4307C26.0187 59.8166 26.4072 59.1335 26.9199 58.6234C27.9507 57.5986 29.0926 56.776 30.2902 55.9653C31.2323 55.3279 32.2884 54.8822 33.2204 54.2317C33.525 54.0195 33.8252 53.7931 34.1227 53.5584ZM26.1115 51.3128C24.4659 51.3551 22.8801 51.7308 21.3751 52.3982C18.8586 53.5139 16.092 54.2152 13.3171 53.6022C12.3238 53.3829 11.079 53.037 10.1987 52.4536C10.4626 52.4509 10.7261 52.4532 10.9892 52.4685C11.2403 52.4405 11.5577 52.3488 11.792 52.2777C14.3954 51.4902 16.2042 49.7495 19.131 49.8531C21.5286 49.9381 23.815 50.6631 26.1115 51.3128ZM32.0321 49.0283C30.8438 48.6446 29.6536 48.2745 28.4825 47.81C26.6901 47.0989 25.36 46.7714 24.004 45.2897C23.0998 44.302 22.2693 43.2757 21.3246 42.3397C22.2768 42.6065 23.2053 43.0137 24.1604 43.2323C25.2915 43.4906 26.4925 43.4902 27.5191 44.0976C29.359 45.1864 30.319 47.1752 31.7188 48.6966C31.821 48.8082 31.9258 48.919 32.0321 49.0283ZM41.9345 52.9738C41.7361 54.0214 41.0875 54.8676 40.3573 55.6094C40.0021 55.9702 39.6219 56.2333 39.2023 56.5043C38.9467 56.6087 38.7135 56.7517 38.5032 56.9332C38.075 57.242 38.02 57.2637 38.3374 56.9983C38.9235 55.7063 40.1702 54.7418 40.6361 53.3028C40.9071 52.4682 40.9243 51.6234 41.0231 50.7547C41.1148 49.949 41.3173 49.3498 41.6238 48.8381C41.549 50.1619 42.186 51.6414 41.9345 52.9738ZM39.7383 43.2877C38.0361 41.5751 36.755 39.9324 36.0615 37.5172C35.5393 35.6983 35.1673 33.8397 34.6942 32.0069C36.2793 33.8363 37.9051 35.5295 38.8539 37.8836C39.5478 39.606 39.6316 41.8748 40.4988 43.5868C40.2432 43.4902 39.9894 43.3906 39.7383 43.2877ZM6.51815 49.675C7.79591 49.1185 8.91198 48.1536 9.79039 47.1094C10.1108 46.7284 10.3892 46.3238 10.6497 45.9095C10.5662 46.4645 10.561 47.0293 10.6797 47.5817C10.7931 48.1098 11.1 49.0762 11.8477 48.8643C12.5749 48.6585 12.5196 47.5263 12.4926 46.9803C12.4428 45.9727 12.076 45.1216 11.664 44.2196C11.6561 44.2028 11.6438 44.1942 11.6337 44.1807C12.0708 43.3671 12.5147 42.5594 13.0619 41.8138C13.5533 41.5459 14.0387 41.2625 14.517 40.9635C15.2862 40.4822 16.0051 39.9399 16.6878 39.3553C16.3364 40.0518 16.0609 40.7861 15.9194 41.602C15.7641 42.4969 15.5055 44.936 16.9865 44.9001C18.628 44.8604 19.3058 41.7674 19.4405 40.6472C19.5854 39.4395 19.5929 37.9574 19.3144 36.7305C19.3792 36.6568 19.4454 36.5842 19.5098 36.5097C20.9249 34.8723 23.1282 33.4272 25.3529 33.6091C26.942 34.3573 28.6506 35.2222 30.0728 36.3357C30.3767 36.8439 30.6922 37.3447 31.0215 37.8339C30.2431 37.3765 29.3856 37.073 28.3388 36.9951C27.3369 36.9207 26.3301 36.9723 25.3312 36.9588C24.0354 36.9412 22.9628 36.4573 21.7075 36.2829C21.1977 36.2122 20.8811 36.8245 21.3474 37.1373C23.3468 38.4802 24.9999 39.7681 27.4417 40.1158C29.3751 40.3909 31.2978 40.2262 33.1927 40.5735C34.268 41.6997 35.5004 42.6717 36.9619 43.3955C38.8584 44.3353 40.9217 44.8454 42.9278 45.4749C43.3376 45.6037 43.7452 45.7242 44.1528 45.8395C43.8391 45.9024 43.524 45.9903 43.2055 46.1146C41.8327 46.6513 40.6077 47.5993 39.3636 48.3635C38.5548 48.8606 37.7535 49.2951 36.9496 49.669C35.835 49.9119 34.7395 49.7671 33.7518 48.8014C32.5156 47.5926 31.6368 46.082 30.4089 44.8653C29.2411 43.7084 27.9716 42.8801 26.3275 42.6211C24.318 42.3053 22.3617 41.8831 20.3654 41.4987C20.1292 41.4534 19.8219 41.7233 20.0076 41.9643C22.0035 44.5535 23.5478 47.4754 26.7949 48.5477C27.8552 48.898 29.0192 49.1963 30.1282 49.3262C31.2397 49.4568 32.2398 49.7506 33.2432 50.0886C33.5793 50.3213 33.9412 50.5077 34.3282 50.641C32.3655 51.1807 30.3228 51.3147 28.054 50.9471C24.7926 50.4187 21.5608 48.9324 18.2084 49.0934C16.6275 49.1693 15.2042 49.6514 13.7883 50.3457C12.4668 50.9935 11.1089 51.9326 9.6171 52.1186C9.43558 52.141 9.40339 52.3622 9.57481 52.4322C12.5787 53.6624 14.8984 54.9911 18.287 54.4746C21.2337 54.0255 23.7143 51.7005 26.6576 51.4651C28.9694 52.1017 31.3011 52.6048 33.7765 52.2451C33.8117 52.2402 33.845 52.2309 33.8798 52.2256C33.5149 52.5191 33.1624 52.8312 32.7851 53.1029C31.7678 53.8357 30.6323 54.3545 29.6446 55.1285C28.6857 55.88 27.7796 56.6158 26.9428 57.5088C26.4581 58.0264 25.9794 58.5418 25.555 59.1111C25.1231 59.6912 24.7432 60.6175 24.1024 61.0049C23.7903 61.1931 23.9917 61.744 24.3592 61.6142C27.0681 60.6557 30.0769 60.3854 32.1825 58.1978C33.6714 56.6506 33.9322 54.5068 35.0464 52.8001C35.5959 52.3342 36.1363 51.857 36.6738 51.3981C37.9197 50.8607 39.0897 50.1413 40.2009 49.3438C40.0231 50.0055 39.9797 50.7214 39.9018 51.3749C39.6481 53.5101 38.7356 55.5132 37.8123 57.4429C37.7457 57.5825 37.8602 57.8094 38.0391 57.7382C39.7057 57.0792 41.235 56.1611 42.1624 54.5629C43.457 52.3312 42.4214 50.1428 42.4723 47.8021C42.5674 47.7097 42.6654 47.6173 42.7695 47.5241C43.7613 46.9028 44.7887 46.4447 46.0556 46.3081C46.4208 46.3833 46.7884 46.448 47.1589 46.5031C46.9104 46.6153 46.7128 46.7115 46.6619 46.7534C46.2352 47.1064 45.834 47.5862 45.5207 48.0424C44.499 49.5294 44.0813 51.4251 43.8549 53.1793C43.6378 54.859 43.4813 56.6195 42.8346 58.1911C42.811 58.1874 42.7923 58.1773 42.7661 58.1776C41.3761 58.1967 39.9669 58.6503 38.7218 59.2503C38.264 59.4704 37.1704 60.0052 37.2202 60.6313C37.2969 61.5898 39.0081 61.2204 39.55 61.0853C40.1822 60.9281 40.8577 60.6826 41.4782 60.3514C40.6477 61.3155 39.6028 62.1756 38.459 62.7916C36.4664 63.1932 34.4053 63.4058 32.2944 63.4058C21.5585 63.4058 12.0959 57.9572 6.51815 49.675ZM11.2646 44.8589C11.2905 44.8125 11.3159 44.7653 11.3414 44.7185C11.8515 45.5693 12.3627 47.0323 11.9731 47.923C11.4679 49.078 11.0371 47.0813 11.0225 46.6453C11.0023 46.0412 11.1026 45.4401 11.2646 44.8589ZM3.64714 44.3555C6.63904 44.4042 9.48424 43.6021 12.1468 42.2873C11.3653 43.5014 10.9229 44.8754 10.0977 46.094C9.25294 47.3407 7.96994 48.8842 6.47811 49.6125C5.37439 47.9646 4.42374 46.2059 3.64714 44.3555ZM9.20541 39.9092C8.86257 39.7606 8.52498 39.5959 8.21022 39.3934C7.93663 39.2172 6.8288 38.3294 7.93738 38.2287C8.56241 38.1718 9.32068 38.7729 9.69457 39.2115C9.98576 39.5533 10.1942 39.9477 10.4345 40.3216C10.0194 40.2015 9.60587 40.0832 9.20541 39.9092ZM5.90323 41.1716C5.95937 41.1607 5.99792 41.1293 6.02674 41.0904C6.19553 41.1125 6.36433 41.1319 6.53387 41.1488C5.9676 41.6147 5.12063 41.9995 4.47839 42.1346C4.27553 42.1769 3.95067 42.3083 4.05322 41.8883C4.11198 41.648 4.70931 41.4186 4.87811 41.3606C5.21195 41.2461 5.55815 41.2397 5.90323 41.1716ZM3.50304 43.9902C2.99254 42.7282 2.55539 41.4287 2.21219 40.0907C2.78332 40.3527 3.44653 40.5219 3.84849 40.6401C4.12695 40.7221 4.41177 40.7921 4.69921 40.8565C4.40728 40.9362 4.12845 41.0664 3.86271 41.3116C3.5633 41.5878 3.18416 42.1847 3.59511 42.5257C4.02402 42.8813 4.79165 42.5395 5.21008 42.3558C5.81266 42.0908 6.55259 41.6742 7.01818 41.1911C7.60802 41.2322 8.1975 41.2438 8.77462 41.2247C9.4498 41.2027 10.1763 41.1465 10.9181 41.0481C10.9637 41.0518 11.0049 41.0458 11.0412 41.0305C12.1198 40.8812 13.2258 40.6401 14.2562 40.2812C11.1381 42.565 7.31909 44.1508 3.50304 43.9902ZM18.8814 39.1142C18.8866 39.7628 18.869 40.4193 18.7485 41.0586C18.6606 41.5275 18.54 41.9965 18.3432 42.4329C17.8903 43.4389 18.0026 43.6732 17.1672 43.3311C16.3869 43.0111 16.6272 42.4486 16.7933 41.6765C16.9007 41.1761 17.0535 40.6989 17.2365 40.2202C17.5883 39.3003 18.0606 38.3912 18.576 37.5431C18.652 37.4626 18.7272 37.3817 18.802 37.3005C18.9001 37.8975 18.8769 38.5472 18.8814 39.1142ZM20.7898 32.0578C19.7089 32.6252 18.8735 33.4983 17.9027 34.3599C16.1069 35.9535 14.3808 36.7837 12.2115 37.085C13.6491 36.4648 14.7899 35.6972 16.0938 34.4643C17.394 33.2341 19.0337 32.2142 20.7898 32.0578ZM1.47488 28.5853C1.49883 28.622 1.52728 28.6557 1.5647 28.6837C3.35184 30.0072 4.66627 31.6543 6.99722 32.0185C9.93036 32.477 12.8268 31.3332 15.7364 31.1191C16.9266 31.0315 18.0801 31.1273 19.2062 31.3504C18.552 31.5012 17.9277 31.7456 17.3779 32.0858C16.3779 32.7034 15.6237 33.5923 14.7727 34.3775C13.444 35.6032 11.9888 36.5108 10.3495 37.2515C10.1156 37.357 10.2436 37.7156 10.4753 37.7156C12.9601 37.7156 14.8954 37.4458 16.9479 35.9322C18.6389 34.6851 19.8638 32.7607 21.9317 32.1293C22.5893 32.3695 23.2401 32.6394 23.8857 32.9291C23.1495 32.983 22.4253 33.154 21.7778 33.4224C19.4873 34.3726 18.2597 36.741 16.5299 38.3848C16.3951 38.5128 16.2536 38.6378 16.1148 38.7635C14.6967 39.6086 12.8822 40.0323 11.1621 40.3059C10.8896 39.5301 10.2504 38.6224 9.55497 38.1917C8.93892 37.8103 7.67053 37.2822 7.03689 37.8908C6.33064 38.5697 7.08891 39.3803 7.66903 39.7861C8.18028 40.1439 8.6964 40.383 9.23198 40.5724C7.74912 40.7524 6.18805 40.7232 4.72765 40.4392C3.67783 40.2348 2.88887 39.569 1.99698 39.1577C1.50669 36.9663 1.23946 34.6904 1.23946 32.3512C1.23946 31.0753 1.32554 29.8208 1.47488 28.5853ZM7.21542 23.8055C7.23263 23.8212 7.2476 23.8381 7.26519 23.8534C7.36699 23.9436 7.47029 24.0293 7.57471 24.1109C7.29102 24.2445 7.01144 24.3961 6.71726 24.4949C6.01102 24.7318 5.22805 24.8729 4.48176 24.8404C3.88442 24.8145 2.72119 24.6637 3.83914 23.6629C4.10187 23.4275 4.78342 23.3246 5.08283 23.3227C5.80143 23.3182 6.51104 23.6532 7.21542 23.8055ZM14.1682 30.1655C12.6367 30.3732 11.1138 30.679 9.55797 30.8077C6.76367 31.0394 4.82945 30.009 2.70548 28.6283C4.66777 28.3503 6.49458 27.7017 8.55006 28.0692C10.5531 28.427 12.2763 29.5438 14.1682 30.1655ZM32.3899 39.667C31.294 39.5237 30.1521 39.5967 29.0349 39.5009C26.954 39.3227 25.3895 38.7609 23.852 37.8028C24.62 37.9327 25.3989 37.9824 26.3099 37.9424C27.1228 37.9065 27.9836 37.8552 28.7976 37.8971C30.1469 37.9671 31.1668 38.5764 32.1387 39.365C32.2207 39.4675 32.306 39.5664 32.3899 39.667ZM27.3953 31.0487C27.8025 32.051 28.2374 33.0372 28.7449 33.9804C28.8403 34.1578 28.9372 34.3352 29.0338 34.5126C28.2965 34.0133 27.5173 33.5653 26.7234 33.1503C24.086 31.7726 21.3579 30.4173 18.3668 30.0468C17.2735 29.9113 16.2024 29.9435 15.1391 30.0498C13.5106 28.6456 11.1138 27.7297 9.01677 27.4348C6.46725 27.0762 4.23249 28.0336 1.73499 28.0553C1.65153 28.0561 1.58566 28.0819 1.53401 28.1208C1.96105 24.9875 2.85331 22.003 4.14304 19.2394C4.78866 20.695 5.56115 22.094 6.65514 23.2572C5.79694 23.0158 4.98926 22.7576 4.06108 23.1341C3.55506 23.3388 2.68227 23.9223 2.89785 24.5829C3.18716 25.4691 4.94473 25.4358 5.60606 25.3767C6.41074 25.3045 7.60578 25.154 8.28882 24.6016C9.42098 25.2839 10.6692 25.6241 11.9499 25.968C12.2007 26.1207 12.4578 26.2682 12.7254 26.4056C14.7929 27.467 17.3076 27.9049 19.5801 28.2264C21.194 28.4547 22.9388 28.6392 24.5138 29.0475C25.6961 29.3541 26.6014 30.155 27.3953 31.0487ZM25.7253 26.7592C25.0744 26.5029 24.3992 26.4179 23.663 26.4228C22.8864 26.4273 22.1087 26.4928 21.3302 26.4565C20.5304 26.4187 17.7313 26.0683 17.8375 24.6914C17.9371 23.3998 22.2187 24.6304 23.0343 24.8288C23.8348 25.023 24.6971 25.3239 25.3473 25.8539C25.4768 26.1537 25.6021 26.4557 25.7253 26.7592ZM25.5213 20.8892C25.4779 21.6602 25.3166 22.4492 25.2982 23.2187C25.2552 23.1438 25.2136 23.0678 25.1702 22.9941C25.1792 22.9088 25.1567 22.8182 25.0886 22.7366C24.0669 21.5053 24.2929 19.6725 24.388 18.2181C24.4352 17.495 24.4101 16.8348 24.3599 16.1697C25.2477 17.5492 25.6089 19.3371 25.5213 20.8892ZM12.4758 24.3482C12.313 24.002 12.1591 23.6139 12.0978 23.2321C12.0364 22.9904 12.0382 22.749 12.1026 22.5072C12.2243 22.1992 12.3785 22.1453 12.5648 22.3466C13.2932 22.548 13.3972 24.0024 13.4971 24.6035C13.5701 25.044 13.6734 25.4725 13.7827 25.9014C13.6895 25.8636 13.5967 25.8247 13.5046 25.785C13.0941 25.3569 12.728 24.8849 12.4758 24.3482ZM10.3975 24.8411C9.31843 24.389 8.31015 23.8182 7.44073 22.8661C6.25691 21.57 5.33284 20.1485 4.60264 18.5564C4.58169 18.5111 4.55474 18.4785 4.52554 18.4505C5.03492 17.4351 5.59857 16.4526 6.212 15.5042C6.32241 19.1197 7.69411 22.5098 10.3975 24.8411ZM7.62412 19.5909C7.69411 18.547 7.71394 17.4388 8.09195 16.4672C8.39025 15.7011 9.35624 14.3953 9.24246 16.06C9.18295 16.9369 8.95502 17.8239 8.68255 18.6571C8.49766 19.2222 8.09682 19.8005 7.90033 20.3791C7.79516 20.1178 7.70309 19.8551 7.62412 19.5909ZM38.2502 1.87297C39.2334 2.58409 40.0676 3.18628 40.7252 4.3424C41.3821 5.49627 41.7533 6.63405 41.9831 7.85454C41.5778 7.19471 41.0733 6.72088 40.5635 7.07681C40.1152 7.3897 40.2364 8.12102 40.3846 8.55143C40.5115 8.92158 40.7174 9.24233 40.9719 9.53688C41.3106 9.92912 41.8229 10.1997 42.1119 10.6185C42.1613 10.6904 42.2253 10.7282 42.2927 10.7514C42.3256 11.7002 42.302 12.6646 42.2433 13.6303C42.1025 13.0876 41.9401 12.5393 41.7369 11.976C41.0583 10.0934 40.211 8.25426 39.0373 6.63443C39.3726 6.01501 39.4688 5.13997 39.3692 4.44982C39.2966 3.94755 38.9864 2.71807 38.2794 2.72668C37.7797 2.73267 37.6285 3.56168 37.621 3.92884C37.6098 4.48425 37.8172 4.94236 38.0241 5.40121C37.2827 4.61113 36.4204 3.93482 35.518 3.34423C34.881 2.92729 34.2197 2.52271 33.5524 2.15555C33.4277 2.08706 31.9295 1.5032 31.6222 1.31307C31.8468 1.3082 32.0691 1.29585 32.2944 1.29585C34.3323 1.29585 36.3223 1.49796 38.2502 1.87297ZM46.2966 28.604C45.5125 28.8705 44.7419 29.2466 43.9488 29.4697C43.0872 29.7122 42.2395 29.8189 41.3866 29.8608C41.6631 29.7283 41.9356 29.591 42.2025 29.4585C43.6801 28.7268 44.9032 28.5292 46.2966 28.604ZM41.4378 24.4755C41.967 25.0597 42.5509 25.5979 43.1737 26.0949C41.5804 26.3655 39.7091 27.1941 38.7742 27.2159C36.9601 27.2581 35.2811 26.4842 33.6646 25.7543C32.4157 25.1899 30.2734 23.9373 29.3328 22.5158C30.7502 23.1475 31.9819 23.9107 33.6493 24.1468C36.2699 24.5181 38.9677 23.4578 41.3877 24.4186C41.4049 24.4373 41.421 24.4564 41.4378 24.4755ZM35.8747 17.9433C35.7066 17.8239 35.5393 17.7046 35.3668 17.5904C33.8248 16.5739 32.0658 15.938 30.5982 14.8174C28.9706 13.5752 27.6221 12.0565 26.881 10.1282C26.5172 9.1817 26.3102 8.22133 26.0389 7.29875C27.8069 9.03349 30.2554 10.1308 32.0923 11.8753C33.8181 13.5135 34.5996 15.9578 35.8747 17.9433ZM38.8823 17.3733C38.7311 16.4459 38.5949 15.5529 38.3205 14.6539C38.3134 14.6307 38.3037 14.603 38.2932 14.573C38.5649 15.1064 38.8408 15.6393 39.0732 16.1888C39.6623 17.5814 39.8142 18.8786 39.9059 20.3791C39.9164 20.5449 39.9224 20.7328 39.9299 20.9311C39.4093 19.8229 39.0882 18.6387 38.8823 17.3733ZM42.2272 9.669C42.2298 9.70044 42.2313 9.73225 42.2335 9.76369C42.0202 9.5904 41.7952 9.42872 41.5857 9.23934C41.3473 9.02338 41.1264 8.80594 40.9655 8.52299C40.8914 8.39199 40.5527 7.70221 40.7469 7.5555C41.15 7.24972 41.9277 8.92046 42.2272 9.669ZM42.7066 7.86165C42.7025 7.34067 42.7399 6.82081 42.7912 6.29946C42.82 6.0064 42.8312 5.63026 43.0315 5.39036C43.1336 5.26797 43.7452 4.96332 43.8702 5.07148C43.9477 5.1381 43.7942 5.67143 43.7695 5.76238C43.6146 6.33127 43.3062 6.90091 43.0161 7.41104C42.9315 7.55925 42.8166 7.70858 42.7066 7.86165ZM38.7618 5.27546C38.7416 5.41655 38.7053 5.56439 38.6701 5.7141C38.5934 5.55204 38.5088 5.3926 38.4295 5.22755C38.2367 4.82671 38.09 4.46778 38.0065 4.03251C37.9856 3.92397 37.9193 3.77539 37.9268 3.66834C37.9485 3.34647 38.3913 3.1773 38.5829 3.45426C38.8819 3.88542 38.8333 4.77917 38.7618 5.27546ZM39.3528 8.24229C39.3704 8.25801 39.3891 8.26437 39.4074 8.27522C39.4471 8.3527 39.4864 8.43054 39.5249 8.50839C39.0743 8.60383 38.6608 8.64575 38.1738 8.6087C37.6738 8.57052 36.5297 8.59634 36.2291 8.15096C35.762 7.45894 37.0675 7.5671 37.4717 7.61426C38.0866 7.68612 38.8718 7.81001 39.3528 8.24229ZM37.0671 5.22605C36.3856 5.34731 35.7347 5.58348 35.0341 5.64486C34.1444 5.72271 32.7379 5.83461 31.9553 5.38362C31.032 4.85141 32.15 4.54451 32.708 4.43036C33.3169 4.3061 33.918 4.26231 34.5303 4.34652C35.2964 4.45206 36.3706 4.76533 37.0671 5.22605ZM23.1619 11.6227C22.87 11.2256 22.6065 10.8274 22.3647 10.4261C23.0504 9.40813 24.8229 5.85969 22.7674 5.28369C21.8198 5.01833 21.2629 6.18568 21.1075 6.9286C21.0682 7.11723 21.0469 7.31185 21.0334 7.50834C20.6506 6.31555 20.4234 5.0595 20.3189 3.6923C23.7342 2.26334 27.4604 1.43433 31.3662 1.31943C31.3681 1.33702 31.37 1.35461 31.3715 1.3722C31.3764 1.42498 31.4022 1.45492 31.4493 1.47475C33.3038 2.25361 35.0041 3.19901 36.4428 4.45244C35.5625 4.13056 34.5457 3.99396 33.7118 3.94643C32.9969 3.90638 30.572 3.8974 30.5286 5.0494C30.483 6.25903 32.7806 6.28711 33.4973 6.35597C34.7077 6.47199 36.4488 6.43943 37.5192 5.78521C37.5821 5.74666 37.6195 5.69875 37.6454 5.6486C38.075 6.13665 38.4714 6.66474 38.8299 7.23812C38.3426 7.0581 37.8055 6.99597 37.2763 6.96565C36.7007 6.93272 35.5382 6.92711 35.3818 7.67078C35.192 8.57576 36.4956 8.89089 37.1169 8.99943C38.0264 9.15887 38.8666 9.14203 39.7495 8.96762C40.7918 11.2271 41.4 13.6946 41.6942 16.1405C42.0232 18.8805 41.7833 21.5468 42.7025 24.2176C42.7148 24.2528 42.7291 24.285 42.7414 24.3198C42.0879 23.722 41.4618 23.091 40.8248 22.4421C40.5995 21.4585 40.6934 19.9722 40.6466 19.3903C40.5617 18.3281 40.3442 17.3295 39.9374 16.3448C39.413 15.0768 38.5893 12.9206 37.4421 12.1096C37.2797 11.9947 37.1034 12.1837 37.1349 12.3458C37.3516 13.4648 37.7513 14.5169 37.8527 15.6726C37.947 16.7461 37.9713 17.8722 38.1836 18.9329C38.2685 19.3588 38.3909 19.7701 38.5425 20.1695C38.468 20.0991 38.3931 20.0303 38.3183 19.961C38.3149 19.9532 38.3138 19.9457 38.3093 19.9378C37.7726 19.0923 37.1023 18.3311 36.6064 17.4632C36.2366 16.8157 36.045 16.0828 35.7063 15.4215C35.0636 14.1666 34.2796 12.9105 33.3619 11.8435C31.0597 9.16486 27.2377 8.0428 25.1579 5.20247C25.0868 5.08795 25.0108 4.97529 24.9299 4.86376C24.8573 4.75223 24.781 4.64444 24.7136 4.52729C24.6803 4.46965 24.6287 4.43672 24.5725 4.42399C24.5351 4.38245 24.501 4.33978 24.4617 4.29899C24.2353 4.06208 23.8607 4.36411 24.0156 4.64331C25.3308 7.01655 25.1347 9.91901 26.6359 12.2331C27.5274 13.6071 28.7636 14.7396 30.1386 15.6038C31.8738 16.6944 33.808 17.355 35.518 18.4928C35.9735 18.7959 36.3931 19.1286 36.7984 19.4741C34.1602 18.3225 31.1428 17.7757 28.6625 16.4201C26.5756 15.2789 24.5632 13.5285 23.1619 11.6227ZM22.0252 9.65178C21.7999 9.02451 21.6877 8.33548 21.6641 7.68537C21.6495 7.28191 21.5933 6.52215 21.91 6.21038C22.8909 5.96636 23.2641 6.26689 23.0294 7.11087C22.9995 7.23101 22.9635 7.34928 22.9209 7.46568C22.7738 8.0544 22.4691 8.61656 22.2408 9.17871C22.188 9.30858 22.1016 9.4755 22.0252 9.65178ZM16.1866 5.79494C17.4382 5.03405 18.7489 4.36149 20.1086 3.781C19.9514 6.19728 20.5446 8.30067 21.6349 10.4093C21.6439 10.4265 21.651 10.4456 21.66 10.4628C21.6622 10.4677 21.6663 10.4699 21.6689 10.4744C21.7415 10.6133 21.8089 10.7518 21.8856 10.891C22.1023 11.2832 22.3467 11.6829 22.6136 12.0819C21.5391 11.4793 20.4084 10.946 19.3313 10.4209C17.3495 9.45454 16.6339 7.77894 16.1866 5.79494ZM17.3817 10.2267C16.7975 10.3797 16.2155 10.5261 15.5998 10.559C15.245 10.5781 13.9268 10.6496 13.7359 10.1507C13.52 9.58516 15.4445 9.50844 15.879 9.58554C16.3996 9.67798 16.8255 9.90853 17.278 10.1226C17.3124 10.1574 17.3465 10.1933 17.3817 10.2267ZM49.7021 26.7585C49.6702 27.1608 49.6594 27.4958 49.6792 27.7874C49.3274 27.3895 48.9984 26.9505 48.735 26.4916C47.9 25.038 47.373 23.4339 47.0028 21.8069C46.3265 18.8382 46.3018 15.5933 45.3325 12.7197C45.9436 13.4937 46.6113 14.2336 47.1855 14.984C48.5489 16.7659 49.6811 18.653 50.1126 20.8896C50.4996 22.8975 49.8574 24.7775 49.7021 26.7585ZM60.6876 29.4843C59.5846 29.2275 58.5677 28.8578 57.6598 28.0351C56.3914 26.8857 55.5429 25.3782 54.925 23.7999C54.4669 22.6284 54.3655 21.4383 54.1091 20.2219C54.0593 19.9853 54.0151 19.7166 53.9414 19.4632C54.0028 19.5119 54.0634 19.5606 54.1218 19.6096C56.1268 21.2945 58.0849 23.5506 58.9626 26.0406C59.4926 27.5445 59.7605 28.6119 60.6876 29.4843ZM57.113 30.9185C57.2503 30.926 57.3937 30.9327 57.5404 30.9391C55.9606 31.7337 54.5114 32.9497 53.0132 33.7311C51.4132 34.5657 49.4801 35.0463 47.6859 35.187C46.3744 35.2896 43.9728 35.4019 42.5288 34.7491C44.481 34.6661 46.3797 34.2989 48.2439 33.6574C50.5977 32.8479 52.5592 30.9245 55.1222 30.7392C55.7877 30.8186 56.4539 30.8826 57.113 30.9185ZM63.1933 29.2339C62.8164 29.4398 62.4044 29.5999 61.9691 29.7223C60.9612 28.8282 60.6034 28.0018 60.1614 26.6724C59.8182 25.6398 59.5225 24.6981 58.896 23.8029C57.3705 21.6224 55.5133 20.1036 53.4586 18.4636C53.2838 18.324 53.0652 18.5358 53.2116 18.7106C53.2857 18.7989 53.3467 18.8962 53.4028 18.9973C53.398 18.9992 53.3927 19.001 53.3886 18.9969C53.3976 19.0055 53.4073 19.0137 53.4163 19.0224C53.9957 20.1025 53.654 21.8279 53.8329 22.9698C54.0267 24.2041 54.4605 25.3393 55.0889 26.4232C56.2435 28.4158 57.6781 29.46 59.5375 30.0648C58.4087 30.1026 57.2761 30.012 56.3072 29.9012C54.4983 29.6943 52.7276 29.3589 50.9914 28.8155C50.229 27.5336 51.0041 25.5358 51.1887 24.1566C51.4634 22.1015 51.1056 20.174 50.1901 18.3127C48.7945 15.4743 46.4841 12.5707 44.2261 10.3651C44.1546 10.2514 44.0877 10.1361 44.0106 10.0242C43.7953 9.71241 43.289 9.99611 43.4956 10.3251C44.8369 12.4629 44.9575 14.6292 45.182 17.0915C45.3808 19.266 45.6858 21.4776 46.2913 23.5795C46.6529 24.8336 47.2076 26.2016 48.0006 27.226C48.2559 27.5557 48.5138 27.8151 48.7776 28.0381C47.6544 27.5987 46.5548 27.0845 45.5372 26.4598C44.8115 25.9183 44.2332 25.236 43.8811 24.276C43.3578 22.8489 43.0962 21.2822 43.0225 19.7728C42.9469 18.2237 42.8488 16.8089 42.6168 15.4002C42.8548 13.1359 43.0124 10.8603 42.7429 8.60608C43.6602 7.81001 45.4238 5.26572 44.1004 4.42661C43.408 3.98722 42.7717 4.67887 42.4701 5.24626C42.3488 5.47382 42.2597 5.72757 42.195 5.9948C41.7301 4.55611 40.9636 3.18816 39.8446 2.22479C52.3695 5.35405 61.8826 16.0847 63.1933 29.2339ZM32.2944 0.351196C14.6215 0.351196 0.294434 14.6778 0.294434 32.3512C0.294434 36.5018 1.0935 40.4639 2.53181 44.1032C2.52994 44.1609 2.55165 44.2181 2.59357 44.2597C3.39712 46.2617 4.39455 48.1641 5.56714 49.9422C5.55553 49.9448 5.54468 49.949 5.53308 49.9512C5.49378 49.9602 5.51025 50.0219 5.54992 50.0122C5.56751 50.0081 5.58435 50.001 5.60194 49.9965C11.3305 58.6447 21.1442 64.3512 32.2944 64.3512C49.9678 64.3512 64.2944 50.0242 64.2944 32.3512C64.2944 14.6778 49.9678 0.351196 32.2944 0.351196Z" fill="currentColor"/>
</svg>
