<svg width="16" height="16" viewBox="0 0 16 16" fill="none" xmlns="http://www.w3.org/2000/svg">
<path fill-rule="evenodd" clip-rule="evenodd" d="M3.6139 11.4999H12.3861C12.7246 11.4999 13 11.7746 13 12.1119C13 12.4494 12.7246 12.7241 12.3861 12.7241H3.6139C3.27548 12.7241 3 12.4494 3 12.1119C3 11.7746 3.27548 11.4999 3.6139 11.4999ZM12.3861 7.51672H3.6139C3.27548 7.51672 3 7.79139 3 8.12892C3 8.46626 3.27548 8.74094 3.6139 8.74094H12.3861C12.7246 8.74094 13 8.46626 13 8.12892C13 7.79139 12.7246 7.51672 12.3861 7.51672ZM12.3861 3.53375H3.6139C3.27548 3.53375 3 3.80825 3 4.14578C3 4.4833 3.27548 4.75798 3.6139 4.75798H12.3861C12.7246 4.75798 13 4.4833 13 4.14578C13 3.80825 12.7246 3.53375 12.3861 3.53375Z" fill="currentColor"/>
</svg>
