<svg width="16" height="16" viewBox="0 0 16 16" fill="none" xmlns="http://www.w3.org/2000/svg">
<path fill-rule="evenodd" clip-rule="evenodd" d="M9.07124 4.05873C8.54167 4.57255 8.12347 4.9783 7.99133 5.87109C7.86658 6.72814 8.13436 7.11734 8.50472 7.65565L8.50478 7.65574L8.50503 7.65611C8.91198 8.249 9.41832 8.98667 9.22181 10.32C9.03184 11.6166 8.37238 12.2605 7.79063 12.8284L7.79003 12.829C7.55443 13.0587 7.14638 13.0562 6.91675 12.8209C6.67991 12.5781 6.68343 12.1887 6.93101 11.9465L6.93102 11.9465C7.45836 11.433 7.87467 11.0276 8.00435 10.1395C8.12981 9.28578 7.86377 8.89747 7.4918 8.35455L7.49179 8.35453C7.08497 7.76299 6.57874 7.02652 6.77458 5.69217C6.96725 4.38652 7.62886 3.74373 8.2155 3.17403C8.33093 3.06203 8.48331 3.00004 8.64431 3.00004C8.81218 3.00004 8.96861 3.06661 9.08544 3.18724C9.32123 3.43097 9.31525 3.82175 9.07137 4.05861L9.07124 4.05873ZM4.26153 5.87071C4.39298 4.9768 4.81158 4.5714 5.34174 4.05805C5.58509 3.8219 5.59108 3.4313 5.35494 3.18721C5.2381 3.06658 5.08132 3.00001 4.91346 3.00001C4.75263 3.00001 4.60043 3.062 4.48483 3.17401C3.89976 3.74177 3.23658 4.38544 3.04355 5.69214C2.84718 7.02684 3.35517 7.76507 3.7634 8.3582C4.13379 8.89708 4.40037 9.28504 4.27368 10.1399C4.14399 11.0269 3.72768 11.4326 3.19998 11.9465C2.95275 12.1887 2.94906 12.578 3.18572 12.8212C3.41447 13.0558 3.82375 13.0588 4.05953 12.829L4.06005 12.8285C4.64217 12.2594 5.30063 11.6158 5.49078 10.32C5.68768 8.9883 5.18162 8.24919 4.77463 7.65553L4.77437 7.65516C4.40358 7.11788 4.13523 6.72902 4.26153 5.87071ZM11.7218 5.87092C11.8541 4.97683 12.2727 4.57126 12.8025 4.05809C12.9206 3.94362 12.9871 3.79006 12.9894 3.62575C12.9921 3.46127 12.9303 3.30559 12.8159 3.18725C12.6991 3.06662 12.5425 3.00005 12.3748 3.00005C12.214 3.00005 12.0614 3.06204 11.9458 3.17404L11.9455 3.1743C11.3609 3.74094 10.698 4.38338 10.5043 5.69235C10.3092 7.03058 10.8179 7.76758 11.2268 8.35947C11.5962 8.90064 11.8608 9.2886 11.7347 10.1413C11.6054 11.0265 11.1894 11.4323 10.6631 11.9457L10.6624 11.9464C10.4148 12.1882 10.4116 12.5779 10.6481 12.8213C10.8737 13.0532 11.283 13.0583 11.5224 12.8276L11.523 12.8271C12.1033 12.2605 12.7627 11.6168 12.9516 10.3202C13.1489 8.99209 12.6438 8.25267 12.2379 7.65858L12.2375 7.65804L12.2375 7.65796C11.8648 7.11824 11.5964 6.72939 11.7218 5.87092Z" fill="currentColor"/>
</svg>
