<svg width="65" height="65" viewBox="0 0 65 65" fill="currentColor" xmlns="http://www.w3.org/2000/svg">
    <path d="M58.2551 44.4452C58.3333 44.6461 58.4115 44.8468 58.4917 45.046C58.522 45.1215 58.3998 45.154 58.37 45.0796C58.2914 44.8822 58.2102 44.6851 58.129 44.4878C57.9376 44.0229 57.7457 43.5567 57.5853 43.0827C57.5672 43.03 57.6518 42.9946 57.6749 43.0446C57.8876 43.5016 58.0715 43.9739 58.2551 44.4452Z" fill="currentColor"/>
    <path d="M41.3973 47.1354C41.5806 46.4572 41.7675 45.766 41.7561 45.0813C41.7535 44.9371 41.5279 44.8501 41.4621 45.0018C41.1873 45.6346 41.0922 46.3448 40.9988 47.0431C40.9598 47.3348 40.921 47.6243 40.8696 47.9053C40.8325 48.1071 41.1362 48.1958 41.181 47.991C41.2422 47.7092 41.3194 47.4234 41.3973 47.1354Z" fill="currentColor"/>
    <path d="M42.3861 42.4208C42.3086 42.7194 42.2311 43.0179 42.1544 43.3165C42.0803 43.6066 41.6435 43.4831 41.7078 43.1934C41.7696 42.9159 41.8308 42.6384 41.8921 42.3609C42.0211 41.7766 42.1501 41.1924 42.2831 40.6091C42.3138 40.4744 42.3422 40.3362 42.371 40.1966L42.371 40.1962C42.4983 39.5779 42.6316 38.9305 42.9909 38.4271C43.0343 38.3668 43.157 38.3579 43.1709 38.4507C43.2606 39.0506 43.1052 39.6367 42.9504 40.2204C42.9193 40.3377 42.8882 40.4548 42.8591 40.572C42.7059 41.1891 42.5461 41.8046 42.3863 42.42L42.3861 42.4208Z" fill="currentColor"/>
    <path d="M19.892 51.8831C19.9245 51.8473 19.9823 51.8936 19.9583 51.9339C18.7823 53.8639 17.4303 55.6949 16.0862 57.515C15.8961 57.7724 15.7061 58.0298 15.5168 58.2871C15.2788 58.6103 14.7345 58.2879 14.977 57.9722C15.1778 57.711 15.3783 57.4491 15.5789 57.1871L15.6067 57.1508C16.982 55.354 18.3644 53.5481 19.892 51.8831Z" fill="currentColor"/>
    <path d="M21.123 50.3339C21.3382 50.0591 21.5602 49.7876 21.7825 49.5158C22.2253 48.9742 22.6692 48.4314 23.0627 47.8587C23.094 47.813 23.0219 47.7568 22.9853 47.7991C22.5303 48.3237 22.1171 48.89 21.7051 49.4548C21.4979 49.7387 21.291 50.0222 21.0792 50.2999C21.0598 50.3251 21.1033 50.3589 21.123 50.3339Z" fill="currentColor"/>
    <path d="M23.9807 54.0898C23.901 54.2136 23.8211 54.3375 23.741 54.4612C23.7139 54.5031 23.6462 54.4631 23.6745 54.4221L24.066 53.854C24.0861 53.8244 24.1342 53.8519 24.1142 53.8828C24.0698 53.9517 24.0253 54.0208 23.9807 54.0898Z" fill="currentColor"/>
    <path d="M2.03926 30.9442C5.17087 29.9672 8.37251 28.9684 11.5564 28.1998C11.6819 28.1694 11.7244 28.3446 11.6088 28.389C8.5354 29.5721 5.31748 30.5758 2.16895 31.5579L1.91387 31.6375C1.52866 31.7573 1.36548 31.1547 1.74762 31.0352L2.03926 30.9442Z" fill="currentColor"/>
    <path d="M19.6661 25.3034C18.7531 25.6283 17.8487 25.9503 16.9595 26.2343C16.7454 26.3023 16.836 26.6398 17.0527 26.5724C17.9455 26.2936 18.8725 26.037 19.8084 25.7779C21.9459 25.1862 24.1298 24.5816 26.0595 23.6704C26.1938 23.6066 26.092 23.4238 25.9648 23.4458C23.8715 23.8064 21.7464 24.5629 19.6661 25.3034Z" fill="currentColor"/>
    <path d="M11.8655 21.3019C12.3015 21.25 12.7384 21.1988 13.176 21.1476C16.227 20.7902 19.3074 20.4295 22.3014 19.7833C22.3858 19.7656 22.3683 19.6263 22.2809 19.632C19.2224 19.8195 16.1576 20.3053 13.1219 20.7865C12.6885 20.8552 12.2555 20.9238 11.8233 20.9914C11.65 21.0188 11.6884 21.3227 11.8655 21.3019Z" fill="currentColor"/>
    <path d="M16.1629 36.267C15.8905 36.428 15.6179 36.589 15.3454 36.7502C15.1619 36.8587 14.9987 36.5764 15.1792 36.4654C15.4434 36.3028 15.7074 36.1401 15.9714 35.9774L15.9733 35.9762C18.496 34.4218 21.0141 32.8703 23.5862 31.397C23.7673 31.2932 23.9238 31.565 23.7485 31.6758C21.2508 33.2608 18.7093 34.7625 16.1629 36.267Z" fill="currentColor"/>
    <path d="M18.4046 40.9781C17.5744 41.336 16.8643 41.9696 16.1718 42.5876L16.1714 42.5878C15.9107 42.8205 15.6525 43.0509 15.3913 43.2635C15.2504 43.3778 15.4397 43.6264 15.5872 43.5167C15.8568 43.3165 16.1419 43.1235 16.4297 42.9286C17.207 42.4022 18.0033 41.863 18.5634 41.1363C18.6432 41.0326 18.4949 40.939 18.4046 40.9781Z" fill="currentColor"/>
    <path d="M9.8264 42.1662C8.43527 42.9265 7.09514 43.8018 5.76173 44.6726L5.76079 44.6732C5.34094 44.9474 4.92175 45.2212 4.50185 45.4908C4.31981 45.608 4.49009 45.9009 4.67219 45.7819C5.08433 45.5118 5.4998 45.244 5.91591 44.9758C7.26286 44.1075 8.61663 43.2349 9.88657 42.2689C9.94582 42.2237 9.8962 42.1282 9.8264 42.1662Z" fill="currentColor"/>
    <path d="M14.7475 39.2062L14.747 39.2066C14.6542 39.2702 14.5616 39.3336 14.4704 39.3983C14.4041 39.4451 14.3396 39.3354 14.4064 39.2892C14.5006 39.2243 14.5942 39.1574 14.6879 39.0904L14.6883 39.0901C14.9111 38.9308 15.1351 38.7708 15.3706 38.6354C15.4144 38.6106 15.4666 38.6733 15.4261 38.7071C15.2127 38.8876 14.9796 39.0473 14.7475 39.2062Z" fill="currentColor"/>
    <path d="M46.0517 39.9795C45.8041 41.5617 45.741 43.1854 45.6784 44.7979C45.6561 45.3715 45.6338 45.9437 45.6034 46.5122C45.5883 46.7876 46.0157 46.7867 46.0312 46.5124C46.0631 45.9425 46.104 45.3696 46.1449 44.7953C46.2587 43.2015 46.3732 41.5963 46.2998 40.0125C46.2935 39.8789 46.075 39.8314 46.0517 39.9795Z" fill="currentColor"/>
    <path d="M40.5713 28.0224L40.0944 27.5437C39.9316 27.3806 39.6767 27.6347 39.8414 27.7968L40.0124 27.9659C40.044 27.9971 40.0756 28.0283 40.1072 28.0596C40.1356 28.0876 40.164 28.1157 40.1924 28.1438C40.2355 28.1864 40.2787 28.2291 40.322 28.2717C40.3522 28.3016 40.3824 28.3336 40.4131 28.3661C40.5251 28.4849 40.6435 28.6105 40.7924 28.6639C40.8898 28.6987 41.0005 28.5887 40.965 28.491C40.9111 28.3428 40.7861 28.2258 40.6672 28.1144C40.6342 28.0835 40.6017 28.053 40.5713 28.0224Z" fill="currentColor"/>
    <path d="M57.3868 32.8815C52.2578 34.1544 46.8122 32.8778 42.529 29.9525C42.37 29.844 42.5152 29.5876 42.681 29.692C44.7245 30.9765 47.0843 31.9013 49.4489 32.3905C52.1987 32.959 54.5094 32.8261 57.2468 32.374C57.5743 32.3201 57.7214 32.7984 57.3868 32.8815Z" fill="currentColor"/>
    <path d="M59.6212 32.7494C59.804 32.6978 59.9869 32.646 60.1697 32.5943C60.3525 32.5426 60.5353 32.4908 60.7182 32.4392C60.7509 32.4299 60.7836 32.4209 60.8161 32.4119C61.0941 32.3352 61.3644 32.2606 61.5962 32.081C61.7306 31.9773 61.6033 31.7947 61.472 31.7816C61.202 31.7547 60.9364 31.8376 60.6773 31.9186C60.6227 31.9356 60.5685 31.9525 60.5146 31.9683C60.3479 32.0172 60.1813 32.066 60.0146 32.1148L59.9878 32.1227C59.8215 32.1714 59.6551 32.2201 59.4887 32.2689C59.1814 32.3591 59.3113 32.837 59.6212 32.7494Z" fill="currentColor"/>
    <path d="M42.7681 23.2454C42.8215 23.307 42.741 23.3876 42.6793 23.3345C42.5452 23.22 42.4203 23.0951 42.2955 22.9702C42.2608 22.9356 42.2261 22.9009 42.1912 22.8665C42.1209 22.7967 42.2307 22.6865 42.3004 22.7572C42.3366 22.7939 42.373 22.8304 42.4095 22.8669C42.5324 22.99 42.6554 23.1131 42.7681 23.2454Z" fill="currentColor"/>
    <path fill-rule="evenodd" clip-rule="evenodd" d="M32.499 0.865082C14.8257 0.865082 0.499023 15.1917 0.499023 32.8651C0.499023 50.5381 14.8257 64.8651 32.499 64.8651C50.172 64.8651 64.499 50.5381 64.499 32.8651C64.499 15.1917 50.172 0.865082 32.499 0.865082ZM52.2878 56.7981C51.8005 49.9385 51.2005 43.083 50.5957 36.2331C50.9408 36.2556 51.287 36.2702 51.6332 36.2773L51.7147 36.8437L51.715 36.8459C51.8053 37.4734 51.8956 38.1007 51.9887 38.7276C52.0258 38.9761 52.4068 38.8721 52.3679 38.6232C52.276 38.0416 52.1817 37.4604 52.0874 36.8791L52.087 36.8765L51.991 36.2844C52.6197 36.2878 53.2485 36.2653 53.8762 36.2174C53.9634 36.5723 54.0714 36.9232 54.1792 37.273L54.1795 37.274L54.1796 37.2745C54.223 37.4151 54.2662 37.5556 54.3081 37.6961C54.4061 38.0244 54.9207 37.8848 54.8223 37.5547C54.7797 37.4113 54.7383 37.2671 54.697 37.1227C54.6055 36.8033 54.5137 36.4829 54.4065 36.1688C54.6438 36.1452 54.8811 36.1201 55.1176 36.089C55.4926 37.2234 55.8593 38.3607 56.226 39.4978L56.2263 39.4989L56.3149 39.7737C56.3714 39.9485 56.6431 39.8766 56.5922 39.697L56.4936 39.349L56.4917 39.3423C56.1785 38.237 55.8653 37.1315 55.5604 36.0239C55.7486 35.9951 55.9365 35.9663 56.124 35.933C56.8253 38.0587 57.5791 40.1635 58.333 42.2686L58.3341 42.2719C58.9176 43.9013 59.5013 45.531 60.0606 47.1704C59.9041 47.4709 59.744 47.7688 59.5782 48.0638L59.5721 48.0451C59.568 48.0326 59.5639 48.0201 59.5602 48.0076C59.5451 47.9609 59.5311 47.9133 59.517 47.8655C59.4712 47.7103 59.4248 47.5529 59.3401 47.4167C59.2911 47.3369 59.153 47.365 59.1571 47.4661C59.1641 47.6296 59.2144 47.7879 59.2643 47.9446L59.2644 47.945C59.2785 47.9894 59.2926 48.0337 59.3057 48.078C59.3345 48.1764 59.3636 48.2752 59.3928 48.3739L59.3951 48.3819C58.9804 49.0994 58.5403 49.8 58.0713 50.4797C57.9834 50.1444 57.8959 49.8089 57.8083 49.4732L57.8077 49.4712C57.1622 46.9971 56.5148 44.5157 55.7003 42.0938C55.6629 41.9819 55.5016 42.0272 55.5241 42.1421C56.0254 44.6555 56.7011 47.1368 57.375 49.6111C57.4809 50 57.5867 50.3886 57.6918 50.7772C57.7068 50.833 57.7386 50.8693 57.776 50.8947C56.9949 51.9876 56.1472 53.0288 55.2344 54.0098C54.6921 50.8536 54.0412 47.6966 53.3563 44.5696C53.332 44.4562 53.1725 44.5078 53.1875 44.616C53.6355 47.9178 54.1228 51.2331 54.7272 54.5102C54.7279 54.5151 54.7297 54.5187 54.7316 54.5225L54.7317 54.5227C54.7333 54.5258 54.7349 54.5288 54.7359 54.5326C53.9596 55.3291 53.1452 56.0885 52.2878 56.7981ZM30.3157 63.8276L30.3201 63.8197C30.3299 63.802 30.3399 63.7841 30.3477 63.764C32.2846 58.8124 34.2121 53.8582 36.1175 48.8943C36.7193 47.3265 37.2931 45.7323 37.8686 44.1333L37.8689 44.1325L37.869 44.1321L37.8693 44.1314L37.8694 44.1311C39.1112 40.6808 40.3611 37.2079 41.9186 33.9295C41.9699 33.9547 42.0214 33.9786 42.0729 34.0025L42.1163 34.0227C42.1354 34.0316 42.1545 34.0406 42.1735 34.0496C41.1791 36.9406 40.2373 39.8508 39.2958 42.7602L39.2938 42.7663L39.2918 42.7723C39.01 43.6431 38.7282 44.5139 38.445 45.384C38.3511 45.6729 38.8021 45.7942 38.8983 45.509C39.1939 44.634 39.4911 43.7594 39.7883 42.8846C40.7616 40.02 41.7353 37.1543 42.6571 34.2731C43.0167 34.4344 43.3798 34.5882 43.7473 34.7304C43.7056 34.9276 43.6717 35.1289 43.6384 35.3266L43.6383 35.3269L43.6383 35.3272C43.6079 35.5071 43.5781 35.6843 43.5433 35.8525C43.4917 36.1029 43.8727 36.211 43.9292 35.9588L44.0465 35.4331C44.0799 35.2834 44.1134 35.1337 44.1467 34.9842C44.1541 34.9509 44.1628 34.9176 44.171 34.8846L44.2558 34.9154C44.4083 34.9708 44.5612 35.0264 44.7155 35.0781L44.654 35.4307C43.0569 44.5779 41.4596 53.7259 39.9635 62.8897C39.9573 62.9296 39.9618 62.9651 39.9664 63.0005L39.9676 63.0098C39.4908 63.1273 39.0094 63.2351 38.5244 63.3306C38.6474 62.5521 38.7744 61.7721 38.9017 60.9909L38.9033 60.9809L38.9034 60.9802L38.9034 60.9798L38.9035 60.9792C39.3873 58.0087 39.8739 55.0215 40.1525 52.0396C40.1622 51.9367 39.9964 51.9161 39.9736 52.0153C39.2948 54.9106 38.8095 57.8883 38.3278 60.8434C38.1866 61.7095 38.0458 62.5736 37.9005 63.4331C37.9001 63.4361 37.9012 63.4387 37.9009 63.4417C36.4726 63.6925 35.0119 63.8456 33.5238 63.8939C33.8599 62.7081 34.2048 61.5181 34.5507 60.3251L34.551 60.3242C35.592 56.7331 36.6411 53.1145 37.4791 49.5025C37.5038 49.3962 37.3529 49.3565 37.3166 49.4579C36.0709 52.9553 34.9996 56.5722 33.9364 60.1614C33.5717 61.3926 33.208 62.6205 32.8385 63.8392C32.8331 63.8568 32.833 63.8727 32.8329 63.8887C32.8328 63.8962 32.8327 63.9037 32.8321 63.9114C32.7811 63.912 32.7304 63.9137 32.6797 63.9155C32.6197 63.9176 32.5595 63.9197 32.499 63.9197C31.7628 63.9197 31.0353 63.8852 30.3118 63.8347L30.3157 63.8276ZM9.91489 54.1685C10.1016 54.2489 10.3262 54.2392 10.5175 54.0637C13.6075 51.2287 16.691 48.3872 19.7744 45.5457C25.3416 40.4154 30.9085 35.2852 36.5134 30.1943C36.5283 30.208 36.5432 30.2215 36.5583 30.235L36.5787 30.2534L36.5894 30.2632C36.3191 30.596 36.0476 30.9286 35.7759 31.2615L35.769 31.27C34.1177 33.2932 32.4583 35.3263 30.9881 37.4783C29.8253 39.1807 28.5002 40.7659 27.1753 42.3509C26.3398 43.3503 25.5044 44.3497 24.7097 45.3784C24.5821 45.5442 24.8669 45.7661 25.002 45.6037C25.8262 44.6123 26.6116 43.5848 27.3971 42.5571C28.5833 41.0053 29.7698 39.4532 31.0899 38.0248C33.0821 35.8689 34.908 33.5617 36.7297 31.2595L37.1291 30.755C37.2026 30.8186 37.2778 30.8803 37.3529 30.9419L37.3531 30.9421C37.398 30.9789 37.4428 31.0157 37.4873 31.0529C34.4533 35.0637 31.8885 39.4675 29.3383 43.8462L29.3381 43.8465L29.3374 43.8477L29.3368 43.8487L29.3366 43.849C28.2105 45.7826 27.0872 47.7113 25.9276 49.599C25.8112 49.7888 26.1035 49.9561 26.2244 49.7727C27.4443 47.9204 28.7173 46.0836 29.9935 44.2422L29.9942 44.2412C32.8605 40.1053 35.7436 35.9452 38.0801 31.5312C38.5517 31.8972 39.0349 32.2445 39.5312 32.569C37.7178 36.0981 35.9971 39.6727 34.2764 43.2472L34.276 43.248C33.2211 45.4395 32.1661 47.6311 31.0899 49.812C31.0323 49.9288 31.2052 50.0317 31.2658 49.9145C32.38 47.755 33.5155 45.6062 34.651 43.4573L34.6518 43.4557L34.6522 43.4549L34.6523 43.4546C36.4983 39.9612 38.3444 36.4675 40.0997 32.9268C40.4541 33.1435 40.813 33.3516 41.178 33.5481C40.1104 36.9882 38.6852 40.3598 37.2687 43.7107C36.6203 45.2446 35.9736 46.7743 35.3641 48.3041C33.349 53.3608 31.356 58.4258 29.3731 63.4956C29.3346 63.5944 29.3305 63.6831 29.3481 63.7614C28.0501 63.6304 26.7795 63.4114 25.5339 63.1259C25.5661 63.0997 25.5949 63.0641 25.6162 63.0154C25.6929 62.8413 25.7698 62.6671 25.8467 62.4928C26.6908 60.5801 27.5419 58.6517 28.1826 56.6633C28.2069 56.587 28.0935 56.5413 28.0542 56.6095C27.0034 58.4126 26.1377 60.3314 25.2791 62.2345C25.2096 62.3886 25.1401 62.5427 25.0705 62.6966C25.0144 62.8216 25.0436 62.9391 25.1091 63.0278C23.3938 62.609 21.7343 62.0491 20.144 61.3589C20.1458 61.3567 20.1476 61.3547 20.1495 61.3528L20.1531 61.3492C20.1575 61.3448 20.162 61.3405 20.1657 61.3342C20.2792 61.1308 20.3954 60.9277 20.5118 60.7242L20.5192 60.7113L20.5195 60.7109L20.52 60.71C20.9165 60.0173 21.3158 59.3195 21.6231 58.5875C21.6696 58.4763 21.5041 58.431 21.4435 58.5119C20.9764 59.1373 20.5838 59.8262 20.1946 60.5092L20.1944 60.5095L20.1935 60.5112C20.0735 60.7218 19.9537 60.9318 19.8323 61.1392C19.8188 61.1624 19.8128 61.1853 19.8094 61.2073C16.0563 59.5246 12.7006 57.1203 9.91489 54.1685ZM13.6181 9.81854C15.9106 10.3391 18.2333 10.8666 20.5554 11.0954C20.7163 11.1111 20.7294 10.8738 20.5917 10.8263C18.4034 10.0728 16.0915 9.58979 13.8088 9.11286C13.4574 9.03943 13.1066 8.96614 12.7571 8.89203C13.6875 8.12478 14.6685 7.41778 15.6854 6.76132C17.5476 7.35472 19.4241 7.90687 21.3005 8.45903C24.3641 9.36049 27.4278 10.262 30.4301 11.3431C30.3605 11.7866 30.3028 12.2313 30.2575 12.677C29.2768 12.385 28.225 12.2102 27.1928 12.0386C26.6416 11.947 26.096 11.8563 25.5698 11.7492C25.3501 11.7047 25.2551 12.0385 25.4766 12.0879C26.0022 12.2047 26.5392 12.3444 27.0818 12.4856L27.0822 12.4857L27.0825 12.4858C28.1184 12.7553 29.1751 13.0303 30.2134 13.1617C30.1606 13.8084 30.1348 14.4552 30.1348 15.1008C27.2011 14.9749 24.247 14.981 21.2947 14.9871C19.1647 14.9915 17.0354 14.9959 14.9155 14.9507C14.8433 14.9492 14.8433 15.0607 14.9155 15.063C17.0364 15.121 19.164 15.229 21.2924 15.337C24.2447 15.4869 27.1987 15.6368 30.1385 15.6536C30.1399 15.7083 30.142 15.7631 30.144 15.8179L30.146 15.8725C26.5049 16.132 22.8634 16.386 19.222 16.6401L19.22 16.6403L19.2167 16.6405C14.628 16.9607 10.0391 17.2809 5.45098 17.6117C5.97945 16.6772 6.55507 15.7737 7.17374 14.9028C7.40012 14.9109 7.62891 14.9213 7.85902 14.9317C8.81321 14.9749 9.79032 15.0192 10.714 14.9106C10.7892 14.902 10.8221 14.7849 10.7334 14.7658C9.81754 14.5695 8.8322 14.522 7.87095 14.4757C7.74379 14.4696 7.61685 14.4635 7.49074 14.457C8.83624 12.6317 10.3794 10.9632 12.0845 9.47364C12.5939 9.58598 13.1053 9.7021 13.6181 9.81854ZM33.8984 1.84529C33.4912 2.52309 33.1125 3.21661 32.7678 3.92585C31.6633 3.52095 30.5973 2.91539 29.5507 2.32081C29.3677 2.21686 29.1853 2.11324 29.0034 2.01109C30.1512 1.88234 31.3167 1.81011 32.499 1.81011C32.9684 1.81011 33.434 1.82471 33.8984 1.84529ZM1.44405 32.8651C1.44405 31.0824 1.60237 29.3376 1.89093 27.6369C11.4303 24.9003 21.0071 22.2388 30.6576 19.9225C30.783 20.4846 30.9312 21.0412 31.1034 21.5921C30.9072 21.6396 30.7139 21.7147 30.5214 21.7894C30.4154 21.8306 30.3095 21.8717 30.2036 21.908C29.6048 22.1138 29.0056 22.3197 28.4064 22.5255C28.0508 22.6479 28.1998 23.2116 28.5632 23.094C29.1654 22.8994 29.7676 22.7048 30.3694 22.5102C30.4802 22.4744 30.596 22.4429 30.7132 22.4111C30.9143 22.3565 31.1191 22.3009 31.3081 22.2205C31.5173 22.8208 31.7561 23.4122 32.0237 23.9942C21.9169 28.2941 11.8162 32.6098 1.71727 36.9293C1.54324 35.598 1.44405 34.2435 1.44405 32.8651ZM28.1328 2.12188C28.5225 2.32372 28.9229 2.52015 29.3259 2.7179C30.4192 3.25424 31.5321 3.80024 32.5039 4.48988C32.3287 4.87275 32.1603 5.25825 32.0035 5.64787C31.4207 5.30387 30.7906 5.04211 30.1587 4.77954C29.6458 4.56645 29.1316 4.35282 28.6403 4.09428C27.8018 3.65291 26.923 3.2898 26.0462 2.9275L26.0459 2.92735C25.8179 2.83317 25.5901 2.73904 25.3632 2.64361C26.2716 2.42953 27.1949 2.25362 28.1328 2.12188ZM20.5484 5.13863C22.6753 6.08488 24.8168 7.03761 26.986 7.85718C27.2458 7.95523 27.4228 7.53268 27.1751 7.40843C25.1194 6.37439 22.9809 5.44891 20.8595 4.53084L20.8551 4.52897C20.6745 4.45078 20.4939 4.37265 20.3136 4.29451C21.1216 3.94906 21.9499 3.64291 22.7912 3.36595C22.7939 3.36836 22.7965 3.37079 22.7991 3.3732C22.8106 3.38385 22.8219 3.39434 22.838 3.40225C23.6905 3.81661 24.5437 4.24716 25.3991 4.67878C27.1868 5.58086 28.9837 6.4876 30.8021 7.26096C30.9948 7.3433 31.1666 7.07907 30.972 6.97016C29.2426 6.0026 27.4196 5.13374 25.6067 4.26965C24.8495 3.90873 24.094 3.54865 23.3478 3.18256C23.8628 3.02387 24.3841 2.88015 24.9104 2.74803C24.8838 2.83149 24.9059 2.92244 25.0133 2.97259C25.2932 3.10229 25.5724 3.23538 25.8519 3.3686C26.6314 3.74013 27.4131 4.11275 28.2189 4.41577C28.7519 4.61621 29.2719 4.85799 29.7909 5.09932C30.4805 5.41993 31.1683 5.73975 31.8826 5.96075H31.8834C31.5184 6.90242 31.2082 7.86167 30.9544 8.8329C30.7699 8.73707 30.5741 8.66325 30.3757 8.58849L30.3754 8.58837L30.3747 8.58812C30.3239 8.56897 30.2729 8.54977 30.222 8.53011L29.7928 8.36421C29.5077 8.25397 29.2226 8.14374 28.9375 8.03383C28.4244 7.83547 28.2144 8.64988 28.7118 8.85236L29.9046 9.33741C29.9689 9.36358 30.0329 9.39071 30.0967 9.4178C30.3131 9.50967 30.5282 9.60101 30.7546 9.65217C30.6681 10.0321 30.5903 10.4127 30.5221 10.7948C27.4545 9.93753 24.4403 8.90094 21.4263 7.86439L21.4259 7.86427C19.803 7.30613 18.18 6.748 16.5488 6.21788C17.4965 5.64936 18.4789 5.13399 19.4883 4.66765C19.8407 4.82377 20.1935 4.98071 20.5466 5.13782L20.5484 5.13863ZM3.57457 22.7249C4.26848 22.6219 5.02683 22.5093 5.57524 22.1513C5.7358 22.0461 5.73018 21.7601 5.51835 21.7149C4.8776 21.5786 4.13393 21.7347 3.44602 21.8885C3.86895 20.7706 4.35662 19.6848 4.90005 18.6328C9.66852 18.2916 14.436 17.9381 19.2037 17.5846C22.8668 17.3129 26.5301 17.0413 30.1939 16.7753C30.2268 17.2277 30.2759 17.678 30.3369 18.1264C29.4402 18.2271 28.5452 18.359 27.6522 18.4906L27.6515 18.4907C27.4332 18.5229 27.215 18.555 26.9969 18.5867C26.7761 18.6189 26.8255 19.0022 27.0497 18.9797C27.2369 18.961 27.4243 18.9426 27.6117 18.9242C28.5441 18.8326 29.4781 18.7407 30.4061 18.617C30.4368 18.8098 30.4716 19.0018 30.5072 19.1934C21.0797 22.0547 11.543 24.5848 1.99909 27.0306C2.27493 25.5799 2.65294 24.1663 3.12302 22.795C3.26816 22.7704 3.41953 22.7479 3.5741 22.725L3.57457 22.7249ZM9.56569 53.8021C8.49416 52.6291 7.51395 51.3727 6.63105 50.0455L7.32954 49.549C8.11683 48.9894 8.90436 48.4297 9.69145 47.8699C9.89394 47.726 10.1013 47.5847 10.3096 47.4427C11.0777 46.9193 11.8588 46.387 12.4562 45.6845C12.5355 45.5914 12.4629 45.4023 12.3233 45.4559C11.4578 45.7873 10.6971 46.3427 9.94586 46.8912C9.75206 47.0327 9.55889 47.1738 9.36471 47.3104L6.2725 49.4864C5.15082 47.7202 4.20092 45.835 3.45013 43.851C4.10112 43.4922 4.73407 43.107 5.3673 42.7217L5.36774 42.7214L5.36805 42.7212C5.84823 42.429 6.32858 42.1367 6.81706 41.8558C7.29031 41.5835 7.77797 41.3369 8.26556 41.0903C8.96179 40.7382 9.65787 40.3861 10.3116 39.9597C10.4048 39.8991 10.3243 39.7726 10.2267 39.8145C9.50926 40.1206 8.82983 40.5025 8.15014 40.8847C7.67278 41.153 7.19528 41.4215 6.70441 41.6638C6.19691 41.9145 5.68464 42.1523 5.17244 42.3901C4.52839 42.6891 3.88445 42.988 3.25027 43.3124C2.62637 41.5657 2.15554 39.7471 1.85126 37.8717C12.0602 33.5537 22.2669 29.2321 32.4672 24.8946C32.6963 25.3325 32.9425 25.7644 33.2075 26.1885C32.3409 26.6483 31.4729 27.1055 30.6048 27.5628L30.6041 27.5632L30.6032 27.5637C29.2657 28.2683 27.9282 28.9729 26.5953 29.6868C26.2244 29.8855 26.5526 30.4439 26.9247 30.2501C28.2617 29.5531 29.5937 28.847 30.9257 28.1408L30.9265 28.1404C31.8072 27.6736 32.688 27.2067 33.5702 26.7424C33.5842 26.7634 33.5982 26.7845 33.6121 26.8055C33.6439 26.8535 33.6756 26.9014 33.7087 26.949C31.9946 27.757 30.3557 28.7883 28.7304 29.811L28.7301 29.8111C28.0474 30.2408 27.3669 30.6689 26.6844 31.0783C24.3366 32.4863 22.0023 33.9138 19.6728 35.3521C19.351 35.5508 19.6414 36.0539 19.9704 35.8611C22.3324 34.4778 24.6873 33.0848 27.031 31.6712C27.7139 31.2591 28.4127 30.8577 29.1141 30.4548C30.7924 29.4906 32.4854 28.518 34.0111 27.3719C34.2622 27.7155 34.5268 28.0527 34.8042 28.3843C33.0945 29.6951 31.3806 31.0002 29.6668 32.3052L29.664 32.3074L29.663 32.3081C26.8575 34.4444 24.0521 36.5806 21.2653 38.7419C20.979 38.9642 21.3619 39.4679 21.6565 39.249C24.4643 37.1603 27.2529 35.0472 30.0415 32.9341C31.7936 31.6064 33.5457 30.2787 35.3027 28.957C35.3382 28.9963 35.3736 29.0357 35.4089 29.0751L35.4094 29.0756C35.5048 29.1821 35.6004 29.2888 35.7005 29.393C35.7398 29.4343 35.7804 29.4741 35.8211 29.5139C35.8482 29.5406 35.8754 29.5672 35.9023 29.5943C30.3033 34.7092 24.6688 39.7824 19.0341 44.8557L19.0327 44.8569L19.0267 44.8623C15.9205 47.6591 12.8142 50.4559 9.7139 53.2598C9.53051 53.4256 9.50356 53.6265 9.56569 53.8021ZM48.6428 59.3143C48.6446 59.3412 48.6529 59.3637 48.6618 59.3858C47.5795 60.0467 46.4495 60.6366 45.2852 61.1639C45.4387 58.3208 45.4949 55.4866 45.5513 52.6437V52.6419C45.5614 52.1293 45.5716 51.6161 45.5824 51.1028C45.5846 50.9977 45.43 51.0014 45.4207 51.1028C45.3704 51.653 45.3195 52.2027 45.2686 52.7521L45.2677 52.7624V52.7633C45.0004 55.6486 44.7338 58.5251 44.5715 61.4229C44.5708 61.4368 44.5734 61.4485 44.576 61.4601C44.5769 61.4639 44.5777 61.4678 44.5785 61.4717L44.5792 61.4761C44.5796 61.478 44.5798 61.48 44.5801 61.4821C43.3468 62.0034 42.0698 62.4394 40.7614 62.7999C42.4201 53.7807 43.9818 44.7432 45.5433 35.7066L45.6037 35.357C45.7484 35.3996 45.8947 35.4383 46.0408 35.4771L46.134 35.5018C46.137 35.5819 46.1438 35.6612 46.1531 35.7376C46.1937 36.0611 46.1729 36.3947 46.1522 36.7268C46.1454 36.8354 46.1386 36.9438 46.134 37.0517C46.1194 37.3848 46.6449 37.3863 46.6531 37.0517C46.6557 36.9508 46.6568 36.8506 46.6579 36.7509V36.7506C46.6616 36.4094 46.6653 36.0737 46.7261 35.7376C46.7277 35.7284 46.7291 35.7191 46.7303 35.7098L46.7314 35.7011L46.7325 35.6924L46.7343 35.6783L46.7351 35.6715C46.7359 35.6656 46.7368 35.6597 46.7377 35.6538C47.0353 35.7245 47.3339 35.7896 47.6334 35.8484C47.8414 40.7708 48.0129 45.6928 48.1113 50.6215C48.1128 50.6979 48.2318 50.6982 48.2307 50.6215C48.1498 45.728 48.1416 40.8389 48.1693 35.9479C48.6409 36.0288 49.1143 36.0939 49.59 36.1455C50.1836 43.2383 50.7813 50.3367 51.5033 57.4171C50.7147 58.0287 49.8962 58.6024 49.05 59.1369C48.8868 56.9968 48.7053 54.8515 48.4665 52.7189C48.4579 52.6403 48.3381 52.6358 48.34 52.7189C48.3939 54.9166 48.5095 57.12 48.6428 59.3143ZM61.6741 22.201C61.5898 22.219 61.5056 22.2549 61.4263 22.3178C56.5028 26.2372 46.6865 24.2868 43.8031 18.5313C41.8284 14.5899 45.0423 9.67799 49.6338 11.9753C51.3233 12.8207 53.2695 15.2381 51.4756 17.0578C49.7622 18.7959 48.1461 16.8568 47.3807 15.3369C47.2116 15.0005 46.701 15.1038 46.6045 15.4384C45.4218 19.546 52.5958 20.4408 53.3496 16.1577C54.2138 11.2409 46.9664 8.56567 43.7136 11.6388C39.7576 15.3762 42.882 20.9648 46.7239 23.2381C51.3955 26.0025 57.5919 26.7997 62.0304 23.2539C62.2078 23.7988 62.3728 24.349 62.5203 24.907C57.8329 28.1208 51.8746 29.0008 46.8302 25.9112C46.7415 25.8565 46.661 25.9954 46.7486 26.0504C51.7058 29.143 58.0077 29.4244 62.6981 25.6323C63.0925 27.2847 63.3542 28.9873 63.4728 30.7306C63.3508 30.7812 63.228 30.8317 63.106 30.8818C62.7718 31.0203 62.963 31.4938 63.3006 31.3437C63.371 31.3126 63.4417 31.2812 63.5121 31.2497C63.5192 31.3853 63.5217 31.5219 63.5241 31.6585C63.5255 31.7379 63.527 31.8174 63.5293 31.8965C63.5155 31.9036 63.502 31.9084 63.4881 31.9171C54.9679 37.283 43.4741 35.8843 36.4944 28.5988C29.4652 21.2627 29.9892 10.144 35.159 1.931C35.7526 1.98153 36.342 2.0459 36.9255 2.12936L36.9229 2.13235C36.9213 2.13419 36.9196 2.13594 36.9179 2.13769C36.9144 2.14146 36.9108 2.1452 36.9075 2.14957C31.9084 9.05147 31.7857 19.2073 37.6793 25.7532C37.853 25.946 38.192 25.6911 38.0427 25.4725C35.6088 21.9016 34.0362 18.4969 34.077 14.0764C34.1147 9.95046 35.315 5.9907 37.683 2.60281C37.768 2.48155 37.7807 2.36291 37.7474 2.26073C38.5236 2.39285 39.2909 2.54967 40.0462 2.7383C38.4806 5.05203 37.2395 8.59112 37.7759 11.3731C37.8017 11.5074 37.9828 11.4584 37.9963 11.3431C38.0503 10.876 38.0801 10.4096 38.1098 9.9447C38.1759 8.90998 38.2416 7.88253 38.5719 6.87023C39.0405 5.43191 39.8774 4.15603 40.7607 2.9419C40.7621 2.94009 40.7627 2.93818 40.7634 2.93627C40.7639 2.93462 40.7645 2.93298 40.7655 2.93142C50.4572 5.6022 58.2532 12.8447 61.6741 22.201ZM61.9039 42.8491C61.8575 42.754 61.811 42.6586 61.7643 42.5635C61.6344 42.2967 61.2283 42.531 61.3645 42.7971C61.4039 42.8738 61.4433 42.9507 61.4826 43.0275C61.522 43.1047 61.5615 43.1818 61.6011 43.2589C61.6072 43.2709 61.6132 43.2828 61.6192 43.2947C61.6459 43.3474 61.6719 43.3989 61.7021 43.4457C61.3406 44.4427 60.9315 45.4169 60.4734 46.3635C60.0095 44.9494 59.5612 43.5311 59.113 42.1128L59.1127 42.1118C58.4409 39.9864 57.7692 37.8611 57.0451 35.7503C57.3426 35.6848 57.6391 35.6137 57.9344 35.5359C57.9306 35.5931 57.937 35.6523 57.9643 35.714C58.6125 37.1812 59.3053 38.5839 60.116 39.9687C60.1616 40.0466 60.2904 39.9953 60.2638 39.9066C59.7967 38.341 59.2305 36.8537 58.5897 35.3521C58.8835 35.2649 59.1758 35.1713 59.467 35.0718C59.4674 35.123 59.4778 35.1762 59.5048 35.2308C59.6313 35.4873 59.7538 35.7493 59.8768 36.0125L59.8769 36.0128L59.8771 36.0132C60.2394 36.7883 60.6066 37.574 61.0977 38.2617C61.5734 38.9275 61.9155 39.5724 62.1262 40.3542C62.2452 40.7955 62.2647 40.8647 62.4466 41.0825C62.2834 41.6791 62.1015 42.2675 61.9039 42.8491ZM62.6543 40.2876C62.6183 40.2389 62.5775 40.185 62.5281 40.1199C61.9893 39.4054 61.7874 38.7957 61.5236 37.9993C61.5036 37.9388 61.4832 37.8772 61.4622 37.8144C61.2125 37.0659 60.8525 36.3494 60.4955 35.6389L60.4953 35.6385C60.367 35.3831 60.239 35.1285 60.1167 34.8734C60.1134 34.8666 60.1092 34.8619 60.105 34.8573C60.1015 34.8535 60.098 34.8496 60.095 34.8446C61.2811 34.3988 62.4357 33.8487 63.5458 33.1914C63.5203 35.635 63.2131 38.0102 62.6543 40.2876Z" fill="currentColor"/>
</svg>
