<svg width="16" height="16" viewBox="0 0 16 16" fill="none" xmlns="http://www.w3.org/2000/svg">
<path fill-rule="evenodd" clip-rule="evenodd" d="M2.66669 14L2.93995 1.61058L10.8486 1.33331L13.3334 3.47628L13.1236 13.8684L2.66669 14ZM8.89924 12.2768C9.15025 12.0842 10.1448 11.1098 10.1448 11.1098L9.17408 10.9531L8.89765 9.09372C8.89765 9.09372 7.82367 9.58717 6.8895 9.30363C6.9038 9.40859 6.92604 9.72972 6.93081 9.84564C4.40951 11.2195 5.81076 12.5713 8.89924 12.2721V12.2768ZM8.68476 6.3085C8.67364 5.51272 8.33524 5.10073 7.53929 5.09916C6.51298 5.09916 6.44307 5.9999 6.44466 6.37429C6.44058 6.628 6.45225 6.88173 6.47961 7.13404C6.47961 8.1178 6.87679 8.27131 6.99913 8.39663C7.04652 8.48787 7.11772 8.565 7.20541 8.62007C7.2931 8.67514 7.39409 8.70616 7.49798 8.70993C7.91264 8.70993 7.9746 8.53135 8.03179 8.47182C8.12235 8.37783 8.49093 8.20865 8.48935 7.84523C8.48935 7.19826 8.71018 7.21863 8.71971 7.06198C8.73083 6.8505 8.68952 6.62336 8.68476 6.3038V6.3085ZM10.1146 4.25639L10.0288 2.24031L3.71048 2.50035L3.5516 11.8993C4.04093 10.8936 5.01323 10.1871 5.68843 9.33183C5.30396 8.49532 5.26742 6.94763 5.50891 6.63119C5.43875 6.46926 5.40984 6.29286 5.42471 6.11738C5.42471 5.88398 5.75834 5.51742 5.83936 5.28088C5.99239 4.91825 6.25191 4.60904 6.58457 4.39298C6.91722 4.17692 7.3078 4.06389 7.70611 4.06841C9.80957 4.03708 10.1067 5.29028 10.2481 6.2803C10.3688 7.09331 10.4832 7.8233 10.5658 8.30108C10.6516 8.75379 10.7088 9.98349 11.2918 10.5584C11.5586 10.7849 11.8398 10.9942 12.1339 11.185L12.2403 11.3338L12.3992 4.28459L10.1146 4.25639Z" fill="currentColor"/>
</svg>
