<svg width="24" height="24" viewBox="0 0 24 24" fill="none" xmlns="http://www.w3.org/2000/svg">
<path fill-rule="evenodd" clip-rule="evenodd" d="M8.5 9C8.5 8.72386 8.72386 8.5 9 8.5H15C15.2761 8.5 15.5 8.72386 15.5 9C15.5 9.27614 15.2761 9.5 15 9.5H9C8.72386 9.5 8.5 9.27614 8.5 9Z" fill="currentColor"/>
<path fill-rule="evenodd" clip-rule="evenodd" d="M8.5 12C8.5 11.7239 8.72386 11.5 9 11.5H15C15.2761 11.5 15.5 11.7239 15.5 12C15.5 12.2761 15.2761 12.5 15 12.5H9C8.72386 12.5 8.5 12.2761 8.5 12Z" fill="currentColor"/>
<path fill-rule="evenodd" clip-rule="evenodd" d="M8.5 15C8.5 14.7239 8.72386 14.5 9 14.5H15C15.2761 14.5 15.5 14.7239 15.5 15C15.5 15.2761 15.2761 15.5 15 15.5H9C8.72386 15.5 8.5 15.2761 8.5 15Z" fill="currentColor"/>
<path fill-rule="evenodd" clip-rule="evenodd" d="M3.8521 7.5755C3.59932 8.71289 3.5 10.1585 3.5 12C3.5 13.8415 3.59932 15.2871 3.8521 16.4245C4.10361 17.5562 4.50036 18.3519 5.07424 18.9258C5.64812 19.4996 6.44378 19.8964 7.5755 20.1479C8.71289 20.4007 10.1585 20.5 12 20.5C13.8415 20.5 15.2871 20.4007 16.4245 20.1479C17.5562 19.8964 18.3519 19.4996 18.9258 18.9258C19.4996 18.3519 19.8964 17.5562 20.1479 16.4245C20.4007 15.2871 20.5 13.8415 20.5 12C20.5 10.1585 20.4007 8.71289 20.1479 7.5755C19.8964 6.44378 19.4996 5.64812 18.9258 5.07424C18.3519 4.50036 17.5562 4.10361 16.4245 3.8521C15.2871 3.59932 13.8415 3.5 12 3.5C10.1585 3.5 8.71289 3.59932 7.5755 3.8521C6.44378 4.10361 5.64812 4.50036 5.07424 5.07424C4.50036 5.64812 4.10361 6.44378 3.8521 7.5755ZM7.35855 2.87592C8.60348 2.59924 10.1357 2.5 12 2.5C13.8643 2.5 15.3965 2.59924 16.6415 2.87592C17.8921 3.15385 18.8832 3.61745 19.6329 4.36713C20.3825 5.11681 20.8461 6.10794 21.1241 7.35855C21.4008 8.60348 21.5 10.1357 21.5 12C21.5 13.8643 21.4008 15.3965 21.1241 16.6415C20.8461 17.8921 20.3825 18.8832 19.6329 19.6329C18.8832 20.3825 17.8921 20.8461 16.6415 21.1241C15.3965 21.4008 13.8643 21.5 12 21.5C10.1357 21.5 8.60348 21.4008 7.35855 21.1241C6.10794 20.8461 5.11681 20.3825 4.36713 19.6329C3.61745 18.8832 3.15385 17.8921 2.87592 16.6415C2.59924 15.3965 2.5 13.8643 2.5 12C2.5 10.1357 2.59924 8.60348 2.87592 7.35855C3.15385 6.10794 3.61745 5.11681 4.36713 4.36713C5.11681 3.61745 6.10794 3.15385 7.35855 2.87592Z" fill="currentColor"/>
</svg>
