<svg width="16" height="16" viewBox="0 0 16 16" fill="none" xmlns="http://www.w3.org/2000/svg">
<path fill-rule="evenodd" clip-rule="evenodd" d="M8.39359 11.049C8.25724 12.0549 8.56852 12.8498 8.77175 13.1649C9.18908 12.902 9.67567 12.7703 10.1686 12.7868C10.9185 12.7868 11.5835 13.0543 11.5835 13.6383C11.5835 14.1013 11.078 14.5708 10.1133 14.5708C9.67085 14.5708 9.15635 14.3444 8.71901 13.9791L8.28297 13.5469C8.02308 13.212 7.86222 12.811 7.81862 12.3893L6.52849 12.042L7.2771 10.9448C5.63453 10.2284 3.84661 7.28151 3.84918 5.13472C3.8569 -0.472147 12.1572 -0.214892 12.1508 5.04854C12.1469 7.39212 10.1133 10.5834 8.39359 11.049ZM10.112 13.9585C10.705 13.9585 10.9687 13.7257 10.9687 13.6383C10.9687 13.6653 10.9391 13.4003 10.1674 13.4003C9.84433 13.3898 9.5238 13.4601 9.23481 13.6048C9.48502 13.8082 9.79073 13.9315 10.112 13.9585ZM7.99999 2.2033C6.36385 1.89331 4.79974 3.56546 5.05056 5.19131L5.3747 5.1733C5.84162 3.91662 6.69957 3.00465 7.99999 2.53645V2.2033ZM6.93238 14.3702C7.37486 14.3869 7.70414 14.1553 7.9614 13.9071L8.36014 14.3586C8.05015 14.6506 7.58066 14.985 6.98383 14.985C6.74839 14.9826 6.51766 14.9187 6.31457 14.7996C6.11149 14.6804 5.94312 14.5102 5.82619 14.3058L6.10917 14.0229C6.33053 14.2374 6.62422 14.3613 6.93238 14.3702Z" fill="currentColor"/>
</svg>
