<svg width="64" height="64" viewBox="0 0 64 64" fill="none" xmlns="http://www.w3.org/2000/svg">
<path fill-rule="evenodd" clip-rule="evenodd" d="M55.4972 15.9976C54.1663 17.129 53.8559 21.1016 53.8559 21.1016H52.929C52.929 21.1016 53.0012 17.8478 51.4025 16.2316C49.8038 14.6153 46.9422 14.3771 46.9422 14.3771L47.0315 13.3861C47.0315 13.3861 50.348 12.9948 51.445 11.8847C52.9545 10.3577 52.8652 7.57609 52.8652 7.57609L53.8091 7.49527C53.8091 7.49527 53.9792 10.6385 55.2803 11.9442C56.5814 13.25 59.9575 13.3733 59.9575 13.3733L60 14.4197C60 14.4197 57.1299 14.6026 55.4972 15.9976ZM45.0288 9.99197H44.4803C44.4803 9.99197 44.4803 8.05246 43.5449 7.09972C42.6094 6.14698 40.9469 6.03214 40.9469 6.03214L41.0022 5.44943C41.0022 5.44943 42.9963 5.23677 43.6426 4.59877C44.5313 3.70132 44.442 2.04679 44.442 2.04679L44.999 2C44.999 2 45.1223 3.82892 45.8919 4.59877C46.6615 5.36862 48.6132 5.44943 48.6132 5.44943L48.6387 6.06616C48.6387 6.06616 46.9379 6.17675 45.994 6.99764C45.2116 7.65265 45.0288 9.99197 45.0288 9.99197ZM43.277 12.2079C43.277 12.2079 41.5762 12.3143 40.6322 13.1352C39.8499 13.8029 39.667 16.1423 39.667 16.1423H39.1185C39.1185 16.1423 39.1185 14.207 38.1831 13.2543C37.2477 12.3015 35.5894 12.1824 35.5894 12.1824L35.6404 11.5955C35.6404 11.5955 37.6346 11.3828 38.2809 10.7448C39.1738 9.8431 39.0803 8.19282 39.0803 8.19282L39.6415 8.14603C39.6415 8.14603 39.7266 10.009 40.4919 10.7746C41.2573 11.5402 43.2472 11.6252 43.2472 11.6252L43.277 12.2079ZM39.5012 20.638L45.59 17.7543L45.9685 18.2094L41.8993 23.0836L42.5074 32.4409L39.531 33.483L35.8743 28.0388L35.6277 36.8048L32.3366 41.9854L31.8817 55.9787H30.0448L28.0932 43.0997L18.1946 43.2231L13.6449 47.336L12.9179 55.7958L10.7408 55.8681L10.1243 45.3752L13.2283 38.5699L13.275 33.0662C11.6635 32.1857 9.18037 32.4579 9.18037 39.3908L4.26509 40.5818C2.28367 28.4258 11.9569 27.7793 15.1204 31.2245L25.3251 31.3563C25.3124 27.2136 29.3688 17.7628 39.5012 20.638ZM25.104 45.0733L20.9286 47.5402L21.8513 55.7193L19.602 56L17.1911 46.7406L18.3646 45.2136L25.104 45.0733ZM41.2615 38.0298L43.6724 47.4253L41.793 48.1399L38.8167 41.9513L34.6455 42.802L37.2987 37.8894L41.2615 38.0298Z" fill="#202322"/>
</svg>
