<svg width="64" height="64" viewBox="0 0 64 64" fill="none" xmlns="http://www.w3.org/2000/svg">
<path fill-rule="evenodd" clip-rule="evenodd" d="M50.7704 43.7942L45.3196 45.1498L49.0936 39.5342L53.4073 39.679L56 49.6466L54.1241 50.4188L50.7704 43.7942ZM51.9561 28.777L51.7128 32.2165L50.3501 31.8655L49.0006 33.4142L47.4079 30.1677L46.7663 30.3607C46.7663 30.3607 46.7177 32.9579 46.7177 34.4495C46.7177 38.3409 45.6293 41.3023 43.3861 43.1054L43.8816 58.9123L41.5323 59L39.1608 44.8953C38.306 45.0396 37.4397 45.1072 36.5726 45.0971L13.2871 44.9392L9.93345 51.3751L8 50.603L10.6546 40.7626L17.1584 40.2581C16.3419 38.4276 15.9778 36.4302 16.0966 34.432C16.163 32.1375 16.3621 26.3158 16.3621 26.3158C8.33183 26.3158 10.1679 21.3495 10.1679 21.3495C12.4775 21.3495 14.3976 20.38 14.3976 19.0244L18.8486 19.1384C20.0383 18.317 21.0557 17.274 21.8439 16.0674C21.5253 14.7513 20.2334 12.6235 20.2334 12.6235L20.8749 12.2769C21.5545 12.8193 22.1718 13.4343 22.7155 14.1108C23.054 12.9475 23.0028 11.7067 22.5695 10.5747L23.5915 10.136C23.5915 10.136 26.0913 15.1286 22.5606 19.2393L25.3568 19.3051C25.5205 21.1039 23.826 22.4683 21.4988 22.9201L25.0604 31.6155H37.8601L41.3996 25.2936C40.8819 25.1356 38.5326 23.6572 38.6919 21.8584L41.4261 21.8935C41.1076 16.2648 37.8424 14.5188 37.8424 14.5188L38.13 13.4395C38.13 13.4395 44.594 15.9446 44.9612 21.933L49.0847 21.9857L49.6643 23.8283L53.4162 25.8069L53.018 28.4392L51.9561 28.777ZM23.388 38.3497C23.2004 38.3415 23.0132 38.3713 22.8376 38.4372C22.6621 38.5032 22.502 38.604 22.367 38.7334C22.2321 38.8629 22.1253 39.0182 22.053 39.19C21.9807 39.3618 21.9445 39.5464 21.9466 39.7325C21.9487 39.9187 21.9891 40.1024 22.0652 40.2726C22.1414 40.4427 22.2518 40.5956 22.3896 40.722C22.5274 40.8484 22.6898 40.9456 22.8667 41.0077C23.0437 41.0697 23.2316 41.0953 23.4189 41.0829C25.1931 41.0829 25.202 38.3497 23.388 38.3497ZM26.1178 34.2916C25.7529 34.2957 25.4045 34.4433 25.1494 34.7021C24.8942 34.9608 24.7532 35.3095 24.7573 35.6714C24.7614 36.0332 24.9103 36.3787 25.1713 36.6316C25.4322 36.8846 25.7838 37.0245 26.1488 37.0204C27.9229 36.9985 27.9539 34.2916 26.1178 34.2916ZM31.2899 36.3931C31.1023 36.3848 30.9151 36.4146 30.7395 36.4806C30.564 36.5465 30.4039 36.6473 30.269 36.7768C30.1341 36.9062 30.0272 37.0616 29.9549 37.2334C29.8826 37.4051 29.8464 37.5897 29.8485 37.7759C29.8506 37.962 29.891 38.1458 29.9671 38.3159C30.0433 38.486 30.1537 38.639 30.2915 38.7654C30.4293 38.8918 30.5917 38.989 30.7687 39.051C30.9457 39.1131 31.1336 39.1387 31.3209 39.1262C33.095 39.1175 33.1083 36.3711 31.2899 36.3711V36.3931ZM46.2089 20.3317C47.3105 15.655 45.0674 13.3123 45.0674 13.3123L45.7266 12.4349C45.7266 12.4349 50.151 15.3611 49.4829 20.4151L46.2089 20.3317ZM16.6231 17.7389L14.0835 17.7784C13.5941 16.4905 13.4445 15.1001 13.6489 13.7388C13.8534 12.3776 14.405 11.0906 15.2515 10L16.2116 10.7107C15.5882 11.6538 15.3001 12.7763 15.3931 13.9002C16.0368 13.4719 16.7179 13.1019 17.4283 12.7946L17.9371 13.3035C17.1298 14.0689 16.3898 14.9011 15.725 15.791C15.9554 16.4694 16.2564 17.1223 16.6231 17.7389ZM22.7464 58.921L20.0918 58.8245L20.0564 46.9792L23.9145 46.6546L22.7464 58.921Z" fill="currentColor"/>
</svg>
