<svg width="64" height="64" viewBox="0 0 64 64" fill="none" xmlns="http://www.w3.org/2000/svg">
<path fill-rule="evenodd" clip-rule="evenodd" d="M53.8691 27.8995L54.4934 26.1253L64 29.9709L62.1536 33.3572L53.8691 27.8995ZM54.7547 22.7975L60.9979 20.7531L61.5868 24.3781L55.193 24.3286L54.7547 22.7975ZM54.6573 37.3064L51.146 30.5518L52.5098 29.5747L57.5663 35.1765L54.6573 37.3064ZM45.4651 24.6978C45.4031 22.9281 46.2975 20.9693 47.9712 18.3079C46.4392 12.9763 33.5187 12.9448 32.8767 21.9104C36.3039 22.6039 39.7399 24.6123 43.0607 28.2598C35.8788 34.3614 34.453 37.3335 34.6567 46.4297L36.2861 46.3847L37.4197 38.3557L40.0764 40.3911L41.2808 33.6364L43.4947 36.3383L44.4865 29.9124C45.8892 31.6982 47.1576 33.5888 48.2812 35.5683L35.3961 52L26.9833 47.6455L19.602 51.311L18.5394 47.0511L13.1905 45.8218L17.0915 42.5345L12.5175 40.1479C7.5229 43.3856 1.00512 43.3 1.00512 43.3L2.58586 35.9105L0 29.282C0 29.282 5.50823 29.327 11.9552 33.2852C12.6016 32.4116 13.2614 31.574 13.9388 30.7815L9.10807 27.2601L13.9787 25.0085L13.8901 19.9831L23.99 22.9236C25.9485 22.0679 28.0574 21.6252 30.189 21.6222C31.2074 8.72089 52.2308 7.93285 52.2308 24.5312C52.2219 28.8857 45.6023 28.9262 45.4518 24.6888L45.4651 24.6978ZM34.5726 30.6149C37.8403 30.6149 37.6012 26.0758 34.7763 26.0758C31.9513 26.0758 31.8052 30.6059 34.5593 30.6059L34.5726 30.6149Z" fill="currentColor"/>
</svg>
