<svg width="64" height="64" viewBox="0 0 64 64" fill="none" xmlns="http://www.w3.org/2000/svg">
<path fill-rule="evenodd" clip-rule="evenodd" d="M32.5546 17.0421L46.7029 19.691L48 15.7084L46.6553 15.0023L45.4583 15.8376C38.6154 14.347 35.7781 10.7196 34.1282 7C17.1616 9.27516 20.7333 21.0017 23.2797 28.704L20.1038 28.2794C19.6842 30.9653 20.5711 34.9849 22.1448 37.2L24.777 35.2341C24.8003 37.0964 24.4384 38.677 24.0613 40.3242C23.6646 42.0568 23.2511 43.8631 23.2511 46.1484C23.2511 60.0024 39.5882 59.3517 39.7742 51.1417C39.9459 43.1994 30.8856 44.0947 30.8856 48.6174C30.8856 51.8247 34.152 51.9263 35.0104 50.2556L33.3986 48.3543C35.0342 47.4498 36.8987 48.1605 36.8987 50.3526C36.8987 54.9998 28.4154 55.2444 28.4154 47.9528C28.4154 44.7177 30.4802 42.6641 32.9694 40.7397L31.5722 39.7382C31.7328 38.8871 31.9559 38.0481 32.2398 37.2277L34.9532 39.2491C35.6494 38.7276 36.3456 38.1969 37.0084 37.6338L33.2556 34.971C33.4147 34.6787 33.5718 34.407 33.7227 34.146C33.9696 33.7189 34.1999 33.3207 34.3952 32.9082L38.687 36.0325C39.2632 35.4121 39.7655 34.731 40.1843 34.0019L34.9675 30.31C34.9466 29.2447 34.7978 28.1854 34.524 27.1534L41.0617 31.9067C41.2956 31.0593 41.4126 30.1857 41.4098 29.3085C41.4098 25.3074 37.4853 20.9232 32.5546 19.1557V17.0421ZM34.3793 11.6311C34.2089 11.6229 34.0385 11.6494 33.8787 11.7092C33.7189 11.7689 33.573 11.8606 33.4501 11.9786C33.3272 12.0965 33.2298 12.2383 33.1638 12.3952C33.0979 12.552 33.0649 12.7207 33.0667 12.8907C33.0686 13.0607 33.1054 13.2286 33.1748 13.384C33.2441 13.5393 33.3447 13.6789 33.4702 13.7942C33.5957 13.9094 33.7435 13.9979 33.9046 14.0541C34.0657 14.1104 34.2366 14.1332 34.4069 14.1212C36.0165 14.1212 36.0257 11.6311 34.3793 11.6311Z" fill="#202322"/>
</svg>
