<svg width="48" height="48" viewBox="0 0 48 48" fill="none" xmlns="http://www.w3.org/2000/svg">
<path fill-rule="evenodd" clip-rule="evenodd" d="M36.8816 45.7274C36.8816 45.7274 34.1095 46.8001 33.723 44.2113C33.3365 41.6226 32.2069 33.6089 32.2069 33.6089L31.234 33.6673C31.234 33.6673 30.2577 42.3377 30.0912 44.4039C29.9079 46.7313 27.1657 45.8271 27.1657 45.8271L27.4156 29.8856C27.4156 29.8856 24.9666 27.7335 25.2765 25.0348C25.3565 24.3472 25.3898 23.804 25.3898 23.804L37.4681 21.3046C37.4681 21.3046 37.8712 23.9587 37.9712 24.8697C38.3044 27.7094 35.6388 29.7515 35.6388 29.7515L36.8816 45.7274ZM22.8642 22.1435L23.1141 45.8237C23.1141 45.8237 20.3719 46.7279 20.1853 44.4004C20.022 42.3377 19.0458 33.6639 19.0458 33.6639L18.0729 33.6054C18.0729 33.6054 16.9467 41.5848 16.5535 44.2079C16.1603 46.831 13.3948 45.724 13.3948 45.724L14.6576 29.7481C14.6576 29.7481 12.0154 27.706 12.3253 24.8663C12.5485 22.7829 13.0216 20.1667 13.0216 20.1667C13.0216 20.1667 15.2607 18.104 20.192 18.104H35.5422C35.5422 18.104 37.0516 18.4684 36.3052 20.0567L22.8642 22.1435ZM28.2686 13.6038C28.2686 9.01072 34.1594 9.70174 33.663 13.786C33.1832 17.7189 28.2686 18.2518 28.2686 13.6038ZM15.7605 13.786C15.264 9.70174 21.1416 9.01072 21.1416 13.6038C21.1416 18.2518 16.2403 17.7189 15.7605 13.786ZM18.1195 7.34678L18.3627 1.54705L21.0283 1.98023L19.3623 7.56681L18.1195 7.34678ZM12.2153 0.814781L14.9708 0L16.5235 7.49461L15.264 8.10999L12.2153 0.814781ZM13.3948 9.76018L9 7.43617L10.586 5.15684L13.9579 8.69444L13.3948 9.76018Z" fill="#202322"/>
</svg>
