<svg width="64" height="64" viewBox="0 0 64 64" fill="none" xmlns="http://www.w3.org/2000/svg">
<path fill-rule="evenodd" clip-rule="evenodd" d="M49.5612 25.82C50.1378 30.7555 49.281 35.7543 47.0961 40.2035C39.1252 40.7539 37.7515 46.2585 36.861 54.3998L33.2339 54.3448L33.8095 47.4035L30.758 46.9191L29.9435 54.3007L26.7454 54.2512L27.0711 49.3686L23.9979 48.8732L23.3735 54.1851L19.388 54.1191C20.1482 44.4585 19.4369 39.5209 12.4977 37.0549C11.2307 32.5546 11.3348 27.7712 12.7963 23.3319C9.43526 20.976 6.92128 16.5833 6.40002 12.0585L7.23078 11.0567L9.59273 12.0035L11.0805 9.98329C12.1284 12.7026 13.9474 15.0255 17.0532 16.1264C19.817 13.2695 23.6938 11.3154 28.8141 11.0622L28.7489 19.1374L31.8493 19.798L31.8765 27.8402L37.2194 16.5282L34.2276 15.7136L35.471 11.6071C40.7379 12.7081 44.2889 15.075 46.5369 18.1301C51.6843 17.5796 53.7367 13.3961 55.2245 8.86586L56.7611 8.7998C59.4489 15.7741 55.3114 23.1448 49.5612 25.82ZM24.1717 29.5026C22.2387 25.6493 18.3021 26.1007 17.1998 29.6126C16.2876 32.5246 19.2523 36.1851 21.6794 38.9704C25.187 37.8145 29.5417 36.1631 30.3236 33.1741C31.2466 29.6897 27.5435 27.6035 24.1717 29.5026ZM38.251 33.0695C36.6655 30.6365 34.0593 31.275 33.5814 33.7246C33.1796 35.7558 35.4438 37.9631 37.2791 39.6475C39.5488 38.5796 42.3505 37.1099 42.66 35.0347C43.0184 32.6071 40.3795 31.5062 38.251 33.0695Z" fill="currentColor"/>
</svg>
