<svg width="64" height="64" viewBox="0 0 64 64" fill="none" xmlns="http://www.w3.org/2000/svg">
<path fill-rule="evenodd" clip-rule="evenodd" d="M56.4668 31.6914C54.8968 29.7894 56.1385 27.4594 58.1842 27.6591L58.3698 30.2792C59.3213 30.3267 61.1672 28.6292 59.7494 26.9506C58.5125 25.4623 56.324 25.3862 54.7731 27.5735C53.2221 29.7609 54.7731 34.0072 51.8234 38.1774C48.1791 43.3319 41.3235 42.0956 36.5232 38.767C36.2783 41.1838 35.6904 43.5534 34.7772 45.8045C32.8266 50.5596 35.2529 53.8454 37.5413 54.2305C44.0781 55.3527 45.1534 47.7779 41.2474 47.0979C38.3929 46.6224 38.1931 49.1949 38.7117 50.0128L41.0904 48.862C42.2846 50.5358 40.8763 52.7802 38.4547 52.3618C34.3538 51.6628 35.3053 43.4365 42.061 44.592C49.3019 45.833 47.77 59.7274 36.6516 57.8206C31.0045 56.8696 28.2831 50.6119 29.9911 45.0199C30.8475 42.2525 30.5953 39.913 29.8389 38.1774C28.659 42.3238 25.7807 46.0328 22.6645 47.2643C14.139 50.6404 8.5727 40.2125 5.2234 42.8326C4.21956 43.6172 4.16247 45.2101 5.28049 46.6367C5.28049 46.6367 4.21956 47.3357 3.3299 46.7698C1.63146 45.6904 1.36504 41.7104 3.68196 40.184C9.11506 36.6034 14.6243 44.6585 19.6863 42.6329C22.8881 41.3538 23.792 38.9334 24.2202 36.4513C16.7319 40.0271 9.64314 36.651 8.52037 30.1508C7.65925 25.1152 11.7317 21.3777 11.2797 18.7386C10.8278 16.0995 8.86767 15.0962 7.10738 15.9093C5.09495 16.8318 5.68012 18.9716 6.57454 19.352L8.15879 17.3644C10.0904 18.0729 10.157 20.4932 7.92568 21.5203C6.17015 22.3239 4.34801 21.4157 3.52972 19.4804C2.52588 17.1029 3.52972 14.421 6.18442 13.1989C9.22924 11.7724 13.5015 13.8124 14.2199 18.0063C14.8289 21.5631 11.9268 26.2231 12.4406 29.2045C13.178 33.5364 20.2857 34.1213 25.0956 29.0619C18.9774 26.7462 17.0078 22.5712 17.0078 19.4424C17.0078 16.5893 18.8728 10.6217 26.0471 10.6217C32.7505 10.6217 38.2549 15.7049 37.0608 28.2155C41.628 28.4532 44.6728 24.8061 44.0972 21.5584C43.3883 17.3977 39.8439 16.3278 39.078 11.839C37.8267 4.44009 44.9726 3.70781 46.5663 6.50855C46.7103 6.80384 46.7605 7.13604 46.7104 7.46067C46.6602 7.7853 46.512 8.08687 46.2856 8.32499C44.4112 6.76533 41.3806 7.33118 41.9515 10.6692C42.6128 14.5446 47.3656 15.4243 48.5074 20.536C49.9347 26.9601 46.6995 31.9863 40.0866 33.6886C43.1457 36.7936 46.4426 38.2725 48.6834 35.1151C50.4294 32.6472 50.2487 28.4913 52.3325 25.5431C52.8497 24.8049 53.5271 24.1929 54.314 23.7528C55.1009 23.3127 55.9771 23.0559 56.8772 23.0015C57.7773 22.9471 58.6781 23.0965 59.5123 23.4386C60.3466 23.7807 61.0928 24.3067 61.6953 24.9773C63.565 27.2312 63.3747 29.8703 61.4479 31.5726C59.8731 32.9515 57.7227 33.1893 56.4668 31.6914ZM28.9349 20.4362C26.3421 20.4362 26.2755 24.4542 28.7541 24.4542C31.6943 24.4542 31.4802 20.4362 28.9349 20.4362ZM34.0778 21.1732C33.901 21.1646 33.7242 21.1923 33.5584 21.2545C33.3927 21.3167 33.2414 21.4121 33.1138 21.5348C32.9863 21.6576 32.8852 21.8052 32.8168 21.9684C32.7484 22.1316 32.7142 22.3071 32.7161 22.4841C32.7181 22.6611 32.7562 22.8358 32.8282 22.9975C32.9001 23.1592 33.0044 23.3045 33.1346 23.4244C33.2648 23.5443 33.4182 23.6364 33.5853 23.6949C33.7524 23.7534 33.9297 23.7772 34.1064 23.7647C35.7763 23.7647 35.7858 21.1732 34.0778 21.1732Z" fill="#202322"/>
</svg>
