<svg width="48" height="48" viewBox="0 0 48 48" fill="none" xmlns="http://www.w3.org/2000/svg">
<path fill-rule="evenodd" clip-rule="evenodd" d="M39 32.997L29.9142 34.1342L29.7622 26.3032L26.0374 31.9787C26.0374 32.8748 25.963 33.0344 24.7052 33.0344C23.4474 33.0344 23.1758 32.9088 23.1629 31.5544L19.1826 26.2557L20.4177 45.7193C20.4177 45.7193 17.7987 46.7784 17.4236 44.2224C17.0485 41.6664 16.4956 37.6372 16.4956 37.6372H14.8789C14.8789 37.6372 13.993 42.3894 13.8346 44.426C13.6567 46.7241 11.0021 45.8279 11.0021 45.8279L11.6003 30.7092C11.6003 30.7092 8.64174 27.8307 9.03621 25.8688C9.43068 23.9068 9.91569 20.0473 9.91569 20.0473C12.4216 17.6712 17.6467 18.4486 19.6644 19.7995L24.5953 29.8233L28.6887 20.3189L34.7901 18.9374C36.9112 19.1139 37.4189 19.8572 38.6702 24.6128C39.0711 26.1132 37.5676 27.3793 36.5685 28.031L39 32.997ZM32.7596 11.4628C35.6082 11.4628 35.6049 14.2734 35.6049 16.8939L29.9595 17.7968C29.9595 14.4567 29.911 11.4595 32.7596 11.4595V11.4628ZM12.5994 14.1954C12.1435 10.38 18.0315 9.61968 18.0315 13.9068C18.0315 18.2483 13.0359 17.8647 12.5994 14.1954ZM34.7449 45.6311L31.7249 45.777L30.8163 35.9536L35.6017 35.7329L34.7449 45.6311Z" fill="#202322"/>
</svg>
