<svg width="64" height="64" viewBox="0 0 64 64" fill="none" xmlns="http://www.w3.org/2000/svg">
<path fill-rule="evenodd" clip-rule="evenodd" d="M19.0473 14.6551L19.3345 12H45.1582L45.8859 14.4723L44.3444 17.5988C57.1365 25.9585 55.6955 47.5936 40.3803 53H40.3564L23.5475 52.6248L23.4757 52.6826C7.73926 46.7375 7.16955 25.6218 20.1867 17.4978L19.0473 14.6551ZM24.9598 49.4887L39.825 49.4214C51.5974 44.674 52.8422 28.3057 43.3007 21.163C34.6832 25.9729 31.2314 13.948 20.4213 21.6007C11.191 28.9839 12.3209 44.9193 24.9598 49.4887ZM26.736 33.5774C27.6071 32.9244 28.5348 32.3513 29.508 31.8651L28.426 29.97L35.2721 25.7661C35.2721 25.7661 37.2206 28.2576 37.7329 29.8064C40.6772 29.9892 43.5449 31.4418 45.3928 35.4485C43.2097 39.258 40.05 40.2296 36.9477 40.0083C35.8562 41.509 33.0842 41.889 29.8718 41.6293L32.2225 38.8972C29.7856 37.993 27.8275 36.8386 27.0711 36.5788C26.0179 39.9458 21.9772 40.9078 19.2915 39.7775C21.9868 37.5793 23.0353 33.1926 18.334 29.9748C22.748 29.0705 25.1513 30.2345 26.736 33.5774ZM39.9686 35.5928C41.7496 35.5928 41.7591 32.8126 39.9399 32.8126C39.5729 32.8165 39.2225 32.9666 38.9657 33.23C38.709 33.4934 38.5669 33.8485 38.5707 34.2172C38.5745 34.5858 38.7239 34.9379 38.9861 35.1959C39.2482 35.4538 39.6017 35.5966 39.9686 35.5928Z" fill="#202322"/>
</svg>
