<svg width="48" height="48" viewBox="0 0 48 48" fill="none" xmlns="http://www.w3.org/2000/svg">
<path fill-rule="evenodd" clip-rule="evenodd" d="M44.5385 34.1798L35.096 33.0464L37.6053 28.0931C36.5673 27.4435 35.0053 26.1815 35.4219 24.686C36.7386 19.9493 37.266 19.2049 39.4528 19.029L45.385 20.2301C45.385 20.2301 46.3222 22.7541 46.9269 24.6691C47.3804 26.1037 45.6135 27.6093 44.683 28.2859L44.5385 34.1798ZM38.5425 17.0023C38.5425 14.3904 38.5425 11.5889 41.4985 11.5889C44.4546 11.5889 44.4042 14.5765 44.4042 17.9057L38.5425 17.0023ZM33.5542 14.3667L29.9565 13.3754L31.1793 16.867L29.11 17.5708L27.9948 13.7171L25.7039 16.7621L24.0613 15.3208L26.7251 12.5464L22.9964 11.7987L23.4533 9.71454L26.9602 10.4487L25.8853 7.10933L28.015 6.43265L28.9757 9.98859L31.3942 7.22775L33.0066 8.66907L30.4873 11.1965L34.011 12.2115L33.5542 14.3667ZM26.3132 22.5883L27.6401 23.7691L25.8228 25.3322L28.1036 25.5657L27.7274 27.3487L25.5171 26.5333L26.4644 28.7224L24.7512 29.3077L24.3481 26.9394L23.0045 28.7968L21.6071 27.4908L23.4042 26.036L21.1032 25.8398L21.5634 24.0161L23.6696 24.7909L22.6618 22.7372L24.5093 22.1079L24.9192 24.5033L26.3132 22.5883ZM20.2097 9.2544L19.0138 10.6078L17.4888 8.76719L17.2402 11.0544L15.4128 10.6382L16.2492 8.47284L14.1531 9.46078L13.6493 7.65067L15.8596 7.2582L13.9718 5.98605L15.2482 4.50074L16.7833 6.36837L17.0386 4L18.772 4.33834L17.9758 6.60859L20.0652 5.66124L20.6228 7.39353L18.2916 7.81308L20.2097 9.2544ZM12.1031 30.7592L12.7211 45.8288C12.7211 45.8288 9.96665 46.722 9.77854 44.4281C9.61394 42.398 8.69354 37.6613 8.69354 37.6613H7.01397C7.01397 37.6613 6.43284 41.6571 6.02639 44.2386C5.61993 46.8201 2.91583 45.7307 2.91583 45.7307L3.81944 30.6848C3.81944 30.6848 0.554361 28.1202 1.05151 25.8804C1.49156 23.9146 2.09284 20.9338 2.09284 20.9338C4.40057 18.6162 11.233 17.7568 13.8498 20.1387C13.8498 20.1387 14.3503 23.9857 14.7601 25.9413C15.1699 27.8968 12.1031 30.7592 12.1031 30.7592ZM4.34682 14.0216C4.34682 9.74837 10.4638 10.5062 9.99016 14.3092C9.54004 17.9666 4.34682 18.3557 4.34682 14.0216ZM42.6641 45.7848L39.5301 45.6427L38.6332 35.7768L43.6013 35.9967L42.6641 45.7848Z" fill="#202322"/>
</svg>
