<svg width="64" height="64" viewBox="0 0 64 64" fill="none" xmlns="http://www.w3.org/2000/svg">
<path fill-rule="evenodd" clip-rule="evenodd" d="M50.2311 33.8336L42.5635 25.5111L40.0277 28.1791C43.0893 31.6761 45.2252 35.6123 45.28 38.939C44.82 39.1367 42.1637 40.037 42.1637 40.037C41.0683 37.2208 38.9652 34.3386 36.5664 31.7475L33.7677 34.6625C35.9585 37.4074 37.4153 40.4981 37.3824 42.996C37.3824 42.996 34.7974 44.341 34.4633 44.3355C34.1894 43.1058 32.6943 40.6299 30.52 38.0442L27.097 41.6016C29.1343 49.7429 22.7155 58.4002 22.7155 58.4002L18.6681 46.2514L6.40002 42.1396C6.40002 42.1396 14.807 35.9416 23.1098 37.7917L26.7848 34.2179C24.9285 32.5001 22.7927 31.1131 20.47 30.117C20.47 30.117 21.6639 27.6027 21.8337 27.2129C24.3585 27.0482 27.4256 28.6073 30.164 30.935L32.9079 28.2395C29.4684 25.2092 26.1002 23.0572 24.5612 22.7113C24.5612 22.3161 26.029 19.121 26.029 19.121C29.3151 19.67 33.1488 21.8659 36.5116 24.7316L39.3431 21.9867L31.8399 13.807C31.8399 13.807 43.6917 3.09098 55.7736 8.95403C62.0227 20.6582 50.2311 33.8336 50.2311 33.8336ZM45.3786 13.4117C42.7771 11.375 39.5622 15.3661 42.0487 17.3094C44.9952 19.6096 47.9308 15.399 45.3786 13.4007V13.4117Z" fill="#202322"/>
</svg>
