<svg width="64" height="64" viewBox="0 0 64 64" fill="none" xmlns="http://www.w3.org/2000/svg">
<path fill-rule="evenodd" clip-rule="evenodd" d="M52.442 25.6378L52.1715 35.1638L48.5664 40.7888L48.0628 56H46.048L43.7488 41.9998L41.2817 42.0322L40.6474 34.4382L47.4658 32.2196L46.9668 18.4828C49.8163 16.7681 53.7479 16.2596 58.9386 18.4828L59.7221 30.4216L56.4575 31.5586L52.442 25.6378ZM37.9844 25.6378L37.7139 35.1638L41.5335 56H39.5188L32.9335 42.0044L18.6112 42.1431L13.621 46.608L12.0213 55.792L9.63345 55.8706L9.73605 44.4634L13.1406 37.0681L13.1732 31.0918C11.4057 30.1396 8.68204 30.4355 8.68204 37.9648L3.29075 39.2636C1.11744 26.0491 11.7275 25.3512 15.2113 29.0812L26.4043 29.2245C26.4043 24.4083 31.5111 12.941 44.4857 18.4782L45.2692 30.417L42.0045 31.554L37.9844 25.6378ZM26.1664 44.126L21.5727 46.8067L22.5847 55.6903L20.1176 55.9954L17.4779 45.9378L18.7651 44.2785L26.1664 44.126ZM31.707 44.2785L33.0501 46.5895L30.0327 55.6718H28.1345L28.6009 44.26L31.707 44.2785ZM58.3557 36.4672L61 46.682L58.9293 47.4723L55.6647 40.7519L51.0895 41.6763L54.0044 36.3332L58.3557 36.4672Z" fill="currentColor"/>
</svg>
