<svg width="48" height="48" viewBox="0 0 48 48" fill="none" xmlns="http://www.w3.org/2000/svg">
<path fill-rule="evenodd" clip-rule="evenodd" d="M17.885 30.6237L18.7818 45.7227C18.7818 45.7227 16.0816 46.7784 15.6949 44.2223C15.3082 41.6662 14.7381 37.6369 14.7381 37.6369H13.0713C13.0713 37.6369 12.1579 42.3893 11.9946 44.426C11.8112 46.7241 9.07435 45.8279 9.07435 45.8279L9.66439 30.6984C9.66439 30.6984 6.63082 27.83 7.03752 25.868C7.44422 23.9059 7.94426 20.0463 7.94426 20.0463C10.5278 17.6532 17.3117 18.5188 19.6118 20.8441C19.6118 20.8441 20.2085 23.8313 20.6452 25.8069C21.1353 28.0507 17.885 30.6237 17.885 30.6237ZM11.0945 14.1941C10.6245 10.3787 16.6949 9.62167 16.6949 13.9056C16.6949 18.2472 11.5479 17.867 11.0945 14.1941Z" fill="#202322"/>
<path fill-rule="evenodd" clip-rule="evenodd" d="M38.1031 30.759L38.7211 45.8286C38.7211 45.8286 35.9666 46.7218 35.7785 44.4279C35.6139 42.3979 34.6935 37.6611 34.6935 37.6611H33.014C33.014 37.6611 32.4328 41.6569 32.0264 44.2384C31.6199 46.8199 28.9158 45.7305 28.9158 45.7305L29.8194 30.6846C29.8194 30.6846 26.5544 28.12 27.0515 25.8802C27.4916 23.9144 28.0928 20.9337 28.0928 20.9337C30.4006 18.616 37.233 17.7567 39.8498 20.1386C39.8498 20.1386 40.3503 23.9855 40.7601 25.9411C41.1699 27.8967 38.1031 30.759 38.1031 30.759ZM30.3468 14.0214C30.3468 9.74819 36.4638 10.5061 35.9902 14.309C35.54 17.9664 30.3468 18.3555 30.3468 14.0214Z" fill="#202322"/>
</svg>
