<svg width="64" height="64" viewBox="0 0 64 64" fill="none" xmlns="http://www.w3.org/2000/svg">
<path fill-rule="evenodd" clip-rule="evenodd" d="M50.5988 40.6188L45.9543 41.5512L48.9103 36.1662L53.3183 36.32L56 46.6193L53.9001 47.4025L50.5988 40.6188ZM47.3212 25.3727L47.0468 34.9819L43.3861 40.6607L42.8753 56H40.8321L38.6612 41.8823L25.8913 42.0175L20.107 46.526L19.3266 55.7949L16.905 55.8695L16.1909 44.372L19.6435 36.9122L19.6766 32.1798C17.9266 30.9909 14.7625 30.7811 14.7625 38.8937L9.29509 40.2038C7.09109 26.888 17.8415 26.1607 21.3651 29.9186L24.5292 29.8533C23.0744 28.4981 21.9839 26.8079 21.3556 24.9345L24.4251 24.6081C22.5333 23.2887 21.2941 20.342 20.982 17.8337L25.1677 18.2579C22.2684 16.7939 21.384 13.437 22.486 9.72109L25.948 11.7213C24.0562 9.17093 23.5265 5.82333 25.948 2.86271L28.3129 5.73474C28.4453 3.18441 30.0581 0.52685 34.3904 0C30.0865 13.0547 40.4821 19.7312 39.6876 27.6107L40.7706 27.6433C40.7706 27.6433 42.0287 23.0509 40.4017 19.4282C43.353 16.8359 47.7563 15.5631 53.9048 18.174L54.7041 30.1983L51.3934 31.3406L47.3212 25.3727ZM33.6053 44.0223L28.9419 46.7265L29.9682 55.6923L27.471 56L24.7656 45.8733L26.071 44.1948L33.6053 44.0223Z" fill="#202322"/>
</svg>
