<svg width="64" height="64" viewBox="0 0 64 64" fill="none" xmlns="http://www.w3.org/2000/svg">
<path fill-rule="evenodd" clip-rule="evenodd" d="M47.4114 22.2939L41.9733 10.6283C43.4356 10.1463 44.975 9.93856 46.5134 10.0157L47.3962 15.2936L48.839 15.4643L49.2627 10.3773C50.6456 10.6831 51.9967 11.1169 53.2984 11.6729L51.5934 17.4881L52.6023 18.3468L54.0198 16.7549L58 22.0579L56.1385 25.3672L47.4114 22.2939ZM47.4618 31.0268L43.9306 36.1038L44.2988 26.3013L35.9652 15.1479C36.8241 13.9648 37.8721 12.93 39.0676 12.0847L47.5224 26.005L47.4618 31.0268ZM41.2771 55.9799H39.1382L36.8328 29.7864L32.7416 23.5293C32.9494 21.4921 33.5235 19.5087 34.4366 17.6739L42.0036 27.4764L41.2771 55.9799ZM35.0975 39.5085L31.5663 39.5537L30.0529 31.0167L24.1154 24.2926L29.6241 24.3679L34.5274 30.8058L35.0975 39.5085ZM29.1448 39.5788L25.321 39.6341L23.8732 33.3619L18.1375 27.15C15.1511 27.15 12.6994 27.2504 12.6994 34.7328L6.37348 36.2645C3.75533 20.1797 15.59 19.768 20.4631 24.6692C25.2454 29.4801 27.5861 31.8704 27.5861 31.8704L29.1448 39.5788ZM18.5108 44.2993L17.5675 55.774L14.7576 55.8644L13.9353 41.8035L15.2722 40.0207L18.5108 44.2993ZM17.4716 30.1881L21.6889 34.9287L23.0913 40.5882L20.2613 43.1342L16.9016 36.7666L17.4716 30.1881ZM32.6054 41.5373L27.2128 45.163L29.0439 55.6384L26.335 56L22.4002 44.1386L24.2062 42.2153L32.6054 41.5373ZM54.0652 32.9752L57.2282 44.9019L55.1145 45.841L51.0788 37.8061L44.5208 39.4483L49.061 32.7844L54.0652 32.9752Z" fill="#202322"/>
</svg>
