<svg width="64" height="64" viewBox="0 0 64 64" fill="none" xmlns="http://www.w3.org/2000/svg">
<path fill-rule="evenodd" clip-rule="evenodd" d="M48.6841 20.8053C47.9332 23.2044 47.8579 25.7675 48.4665 28.2074C49.1348 30.9606 49.5464 33.7711 49.6959 36.602C49.6959 43.5795 41.6919 43.7125 40.2702 40.6944C39.8806 40.6944 38.8738 40.6944 37.5432 40.7251L34.5885 46.2498L34.634 53.8975C34.634 53.8975 35.9242 54.6342 35.6459 56H32.5343L31.2948 40.8069L23.3363 40.9195L20.9027 47.6668L22.6027 53.4525C23.0492 53.6845 23.4281 54.0301 23.7023 54.4553C23.9764 54.8805 24.1363 55.3706 24.166 55.8772L20.9988 55.9693L12.1499 33.461L8.89159 37.9115C5.55742 34.8422 12.3978 27.8237 15.8787 24.3145C17.9024 20.0482 19.6834 17.3779 21.7932 17.3779C23.9889 17.3779 25.2639 19.1939 26.7868 20.8257C25.9368 22.2836 26.0279 24.7033 26.0279 24.7033L27.0398 24.7391C28.2794 20.8769 30.4701 17.6234 33.0504 17.6234C35.7825 17.6234 36.2581 19.8794 37.9783 23.6495C38.4842 24.8107 37.3206 26.4119 39.9363 26.4119C39.9363 22.1046 40.2955 18.6977 41.4541 16.3957C40.1741 15.035 40.9482 13.0041 40.9482 13.0041L43.4172 14.0272C44.5129 13.3141 45.7982 12.9571 47.1005 13.0041L56 16.7435L55.747 20.3653L48.6841 20.8053ZM15.2918 53.5701C15.7163 53.7733 16.0766 54.0919 16.3321 54.4903C16.5877 54.8888 16.7285 55.3513 16.7388 55.8261L12.9493 55.9182L12.6002 41.5384L15.6712 48.4853L15.2918 53.5701ZM39.4759 45.8559L38.9699 53.8771C38.9699 53.8771 40.341 54.6495 40.1842 55.9949H36.8956L36.6173 45.9634L38.1807 42.8941L39.4759 45.8559Z" fill="currentColor"/>
</svg>
