<svg width="64" height="64" viewBox="0 0 64 64" fill="none" xmlns="http://www.w3.org/2000/svg">
<path fill-rule="evenodd" clip-rule="evenodd" d="M35.0676 17.98C34.5152 15.7378 35.8521 13.0041 38.9901 13.0041C39.7856 12.9673 40.5723 13.181 41.2345 13.6137C41.8968 14.0464 42.3997 14.6754 42.6694 15.4083L46.1388 15.4785C46.4062 14.8183 46.8768 14.2557 47.4855 13.8686C48.0942 13.4814 48.8109 13.2888 49.5364 13.3174C52.7959 13.3174 53.829 16.5591 52.7185 18.7202L58 23.0423L56.42 25.3547L37.8409 25.5708C37.8409 25.5708 30.2392 33.9991 28.8801 36.668C27.5211 39.337 29.7254 49.4293 36.8907 49.4293C44.0561 49.4293 46.404 39.2559 44.2107 34.5394C46.791 32.4688 49.1761 30.1761 51.3374 27.6887L54.5416 27.7319C52.5187 30.4634 50.1688 32.9483 47.542 35.1337C49.0558 38.9156 46.8238 45.0531 46.2161 47.5599C45.6085 50.0668 52.6412 52.6277 52.6412 52.6277L52.5031 54L24.6373 53.9298L27.3056 49.5644L23.2341 40.8389V37.4298L19.9193 40.2717L24.3776 49.2618L21.5656 53.9244H13.2788C10.4061 49.2888 9.23487 46.474 10.5166 42.7029C14.8202 29.8714 16.5604 29.3095 24.3776 26.4947C30.5817 24.2363 31.6977 22.2643 35.0676 17.98ZM39.0011 19.0119C41.7026 19.0119 41.7192 14.9058 38.9569 14.9058C36.1946 14.9058 36.062 19.0119 39.0011 19.0119Z" fill="#202322"/>
</svg>
