<svg width="48" height="48" viewBox="0 0 48 48" fill="none" xmlns="http://www.w3.org/2000/svg">
<path d="M29.9565 13.3754L33.5542 14.3667L34.011 12.2115L30.4873 11.1965L33.0066 8.66907L31.3942 7.22775L28.9757 9.98859L28.015 6.43265L25.8853 7.10933L26.9602 10.4487L23.4533 9.71454L22.9964 11.7987L26.7251 12.5464L24.0613 15.3208L25.7039 16.7621L27.9948 13.7171L29.11 17.5708L31.1793 16.867L29.9565 13.3754Z" fill="currentColor"/>
<path d="M27.6401 23.7691L26.3132 22.5883L24.9192 24.5033L24.5093 22.1079L22.6618 22.7372L23.6696 24.7909L21.5634 24.0161L21.1032 25.8398L23.4042 26.036L21.6071 27.4908L23.0045 28.7968L24.3481 26.9394L24.7512 29.3077L26.4644 28.7224L25.5171 26.5333L27.7274 27.3487L28.1036 25.5657L25.8228 25.3322L27.6401 23.7691Z" fill="currentColor"/>
<path d="M19.0138 10.6078L20.2097 9.2544L18.2916 7.81308L20.6228 7.39353L20.0652 5.66124L17.9758 6.60859L18.772 4.33834L17.0386 4L16.7833 6.36837L15.2482 4.50074L13.9718 5.98605L15.8596 7.2582L13.6493 7.65067L14.1531 9.46078L16.2492 8.47284L15.4128 10.6382L17.2402 11.0544L17.4888 8.76719L19.0138 10.6078Z" fill="currentColor"/>
<path d="M12.7211 45.8288L12.1031 30.7592C12.1031 30.7592 15.1699 27.8968 14.7601 25.9413C14.3503 23.9857 13.8498 20.1387 13.8498 20.1387C11.233 17.7568 4.40057 18.6162 2.09284 20.9338C2.09284 20.9338 1.49156 23.9146 1.05151 25.8804C0.554361 28.1202 3.81944 30.6848 3.81944 30.6848L2.91583 45.7307C2.91583 45.7307 5.61993 46.8201 6.02639 44.2386C6.43284 41.6571 7.01397 37.6613 7.01397 37.6613H8.69354C8.69354 37.6613 9.61394 42.398 9.77854 44.4281C9.96665 46.722 12.7211 45.8288 12.7211 45.8288Z" fill="currentColor"/>
<path d="M4.34682 14.0216C4.34682 9.74837 10.4638 10.5062 9.99016 14.3092C9.54004 17.9666 4.34682 18.3557 4.34682 14.0216Z" fill="currentColor"/>
<path d="M44.7818 45.7227L43.885 30.6237C43.885 30.6237 47.1353 28.0507 46.6452 25.8069C46.2085 23.8313 45.6118 20.8441 45.6118 20.8441C43.3116 18.5188 36.5278 17.6532 33.9443 20.0463C33.9443 20.0463 33.4442 23.9059 33.0375 25.868C32.6308 27.83 35.6644 30.6984 35.6644 30.6984L35.0743 45.8279C35.0743 45.8279 37.8112 46.7241 37.9946 44.426C38.1579 42.3893 39.0713 37.6369 39.0713 37.6369H40.7381C40.7381 37.6369 41.3082 41.6662 41.6949 44.2223C42.0816 46.7784 44.7818 45.7227 44.7818 45.7227Z" fill="currentColor"/>
<path d="M37.0945 14.1941C36.6245 10.3787 42.6949 9.62167 42.6949 13.9056C42.6949 18.2472 37.5479 17.867 37.0945 14.1941Z" fill="currentColor"/>
</svg>
