<svg width="48" height="48" viewBox="0 0 48 48" fill="none" xmlns="http://www.w3.org/2000/svg">
<path fill-rule="evenodd" clip-rule="evenodd" d="M36.4965 28.0269L39 32.9965L29.6326 34.1303L29.4693 28.217C28.5492 27.5381 26.8024 26.0275 27.2424 24.5882C27.8458 22.6703 28.7759 20.1346 28.7759 20.1346L34.6597 18.9329C36.8465 19.1094 37.3699 19.8494 38.66 24.6052C39.0767 26.109 37.5266 27.3718 36.4965 28.0269ZM32.7662 11.4547C35.7064 11.4547 35.7031 14.262 35.7031 16.886L29.8826 17.7991C29.8826 14.4521 29.8293 11.4547 32.7662 11.4547ZM17.885 30.6237L18.7818 45.7227C18.7818 45.7227 16.0816 46.7784 15.6949 44.2223C15.3082 41.6662 14.7381 37.6369 14.7381 37.6369H13.0713C13.0713 37.6369 12.1579 42.3893 11.9946 44.426C11.8112 46.7241 9.07435 45.8279 9.07435 45.8279L9.66439 30.6984C9.66439 30.6984 6.63082 27.83 7.03752 25.868C7.44422 23.9059 7.94426 20.0463 7.94426 20.0463C10.5278 17.6532 17.3117 18.5188 19.6118 20.8441C19.6118 20.8441 20.2085 23.8313 20.6452 25.8069C21.1353 28.0507 17.885 30.6237 17.885 30.6237ZM11.0945 14.1941C10.6245 10.3787 16.6949 9.62167 16.6949 13.9056C16.6949 18.2472 11.5479 17.867 11.0945 14.1941ZM34.5997 45.6344L31.4861 45.7804L30.5493 35.96L35.4831 35.7359L34.5997 45.6344Z" fill="currentColor"/>
</svg>
