<svg width="48" height="48" viewBox="0 0 48 48" fill="none" xmlns="http://www.w3.org/2000/svg">
<path fill-rule="evenodd" clip-rule="evenodd" d="M26.9273 27.0138L32.0895 30.6173L35 34.8405L27.2062 35.4672L26.9273 27.0138ZM32.8773 29.35L25.2403 23.3477L25.6446 45.8249C25.6446 45.8249 22.6679 46.7406 22.4762 44.3836C22.3019 42.2946 21.3433 33.5105 21.3433 33.5105L20.3255 33.4513C20.3255 33.4513 19.2345 41.5356 18.8267 44.1886C18.4189 46.8416 15.5642 45.7135 15.5642 45.7135L16.5018 29.7852C16.5018 29.7852 13.539 27.1461 14.0619 24.8413C14.5115 22.8289 15.132 19.8835 15.132 19.8835C16.3763 18.644 18.6559 18.0313 20.9355 18.0661H28.4435C30.6116 18.0661 33.4419 20.155 33.4419 20.155L32.3753 25.5724C33.0062 26.1887 33.4907 26.6726 33.6789 26.8815C34.8745 28.1906 33.7243 29.35 32.8773 29.35ZM27.5094 10.2011C30.5802 10.2011 30.5245 13.3589 30.5245 16.3531H24.4421C24.4421 13.6827 24.4386 10.2011 27.5094 10.2011ZM24.2434 5.18063C22.3263 6.51757 20.5416 5.26768 20.9076 3.30405C21.2109 1.67465 23.5741 0.706767 25.4633 0C26.8576 1.47272 28.5411 3.40153 28.1577 5.03441C27.7081 6.94929 25.3867 6.97366 24.2434 5.18063ZM23.0269 13.1605C23.0269 17.6135 17.6451 17.2235 17.171 13.4564C16.6796 9.54309 23.0269 8.76669 23.0269 13.1605ZM30.0469 45.7588H27.5199L27.2549 37.3054L31.0159 37.0757L30.0469 45.7588Z" fill="currentColor"/>
</svg>
