<svg width="64" height="64" viewBox="0 0 64 64" fill="none" xmlns="http://www.w3.org/2000/svg">
<path fill-rule="evenodd" clip-rule="evenodd" d="M47.8358 30.9266H31.0575C27.5936 30.9266 26.7875 31.2581 26.3742 32.5181C22.4927 30.3961 23.0673 24.2581 29.8175 22.9858C32.463 22.4885 43.3095 20.2546 43.3095 20.2546L45.0167 23.1557H48.894C51.7875 23.1557 55.2432 23.5204 57 27.8224C55.6028 29.4719 53.8502 30.9266 47.8358 30.9266ZM47.964 25.2777C45.6491 25.2777 45.5375 28.788 48.0053 28.788C50.254 28.788 50.2705 25.2777 47.964 25.2777ZM52.5357 25.8952C52.3732 25.8878 52.2109 25.9137 52.0588 25.9714C51.9066 26.0292 51.7678 26.1174 51.6509 26.2308C51.534 26.3442 51.4414 26.4803 51.3788 26.6309C51.3162 26.7814 51.285 26.9432 51.2869 27.1062C51.2889 27.2693 51.3241 27.4303 51.3903 27.5793C51.4565 27.7282 51.5524 27.8621 51.672 27.9726C51.7916 28.0831 51.9325 28.168 52.086 28.2219C52.2395 28.2759 52.4024 28.2979 52.5647 28.2866C54.0982 28.2866 54.1106 25.8952 52.5357 25.8952ZM23.2864 22.3102L23.9354 16.9224L22.2075 16.3878L22.7449 11L26.7793 11.6507L25.4979 14.7673L27.1513 15.3848L23.2864 22.3102ZM29.619 34.6898H32.2976C38.2913 34.6898 41.127 40.9603 37.4646 43.5009C37.0223 41.4908 34.8811 41.6856 31.0534 41.6856H28.5732C19.3553 41.6856 17.0322 34.0142 21.7983 28.4606C22.4431 33.6744 23.8072 34.6898 29.619 34.6898ZM12.9193 21.8129L7 15.6915L11.547 11.7957L14.4405 16.7691L16.3667 15.8366L19.9134 25.5844L15.0522 20.6359L12.9193 21.8129ZM10.7492 26.923L11.3444 25.2652L18.3095 29.0574L12.9358 28.4772L12.4233 30.2137L7.0496 29.7413L7.61177 25.6797L10.7492 26.923ZM23.4269 48.9716C26.5891 48.3292 30.0737 47.6329 33.1409 47.0485C39.0271 45.9337 42.458 43.8366 40.1969 36.9941C47.5341 38.6519 46.9967 50.9651 36.5883 50.9609H34.4223C33.9428 51.5992 33.3848 52.3493 32.9301 53C25.5433 50.7454 14.2255 53.7294 8.78158 51.0231C12.9648 50.132 19.9423 46.3647 19.9423 46.3647L23.4269 48.9716Z" fill="black"/>
</svg>
