<svg width="16" height="16" viewBox="0 0 16 16" fill="none" xmlns="http://www.w3.org/2000/svg">
<path fill-rule="evenodd" clip-rule="evenodd" d="M2.56278 13.5006L2.41425 12.8152L3.38822 12.4645L3.58911 12.8675L4.47908 12.5632L4.30254 12.1358L5.81099 11.5916L5.93274 10.4813C5.895 10.4277 5.85969 10.3741 5.82438 10.3194C4.99894 10.1233 4.82727 9.18102 5.20712 8.59785C5.1706 8.37465 5.14219 8.13968 5.1219 7.89294C4.59961 7.20994 3.41744 4.86874 5.352 4.40245C5.14503 3.14602 6.16527 2.5592 6.93472 3.1935C7.51667 2.08438 9.82621 2.37658 9.94065 3.55874C10.1098 3.50341 10.2916 3.49908 10.4632 3.54629C10.6348 3.59351 10.7887 3.69017 10.9058 3.82425C11.0229 3.95833 11.0979 4.12389 11.1216 4.30031C11.1452 4.47673 11.1164 4.65621 11.0388 4.81639C11.8131 5.06719 11.4187 7.14298 10.8598 7.88929C10.8525 8.10843 10.8404 8.3154 10.8233 8.5102C11.2032 9.12745 11.0546 10.1319 10.2913 10.3364C10.2511 10.4009 10.2097 10.4582 10.1695 10.5275L10.3534 11.6318L11.8143 12.1565L11.611 12.6192L12.5156 12.9601L12.7481 12.4913L13.5858 12.792L13.4214 13.4702L2.56278 13.5006ZM8.07914 13.0002L9.71177 12.2819L9.60098 11.1497C9.34444 11.3825 9.07142 11.5965 8.78406 11.7901L7.40344 11.8168C7.09906 11.6217 6.81154 11.4013 6.54391 11.1582L6.47208 12.2466L8.07914 13.0002ZM9.41836 10.2889C9.18358 10.2154 8.96671 10.0938 8.7816 9.93173C8.5965 9.76968 8.44723 9.57081 8.34333 9.34782H7.72242C7.72242 9.34782 7.59215 10.1039 6.64252 10.3035C6.91955 10.6034 7.23568 10.8647 7.58241 11.0803L8.49673 11.1095C8.84359 10.885 9.15504 10.6101 9.42079 10.2938L9.41836 10.2889ZM10.2195 7.24524C9.84934 6.43806 9.59854 5.37886 9.68377 4.47793C9.00442 5.06475 7.07473 5.97542 6.10805 5.49696C6.09588 5.94133 5.92665 6.51963 5.74281 7.01514C5.74492 7.60184 5.79828 8.18724 5.9023 8.76465C6.30407 9.17615 7.16117 8.7476 7.44849 8.38845L8.74997 8.45176C9.06773 8.88518 9.67281 9.01423 10.0685 8.817C10.1614 8.30087 10.2127 7.77811 10.2219 7.25377L10.2195 7.24524Z" fill="currentColor"/>
</svg>
