<svg width="16" height="16" viewBox="0 0 16 16" fill="none" xmlns="http://www.w3.org/2000/svg">
<path d="M5.61133 2.02589C3.18224 1.49648 3.33797 3.39613 3.33797 3.39613L2.43484 4.39266C2.43484 4.39266 1.65626 2.77328 2.96425 1.77676C4.27224 0.780196 5.61133 2.02589 5.61133 2.02589Z" fill="currentColor"/>
<path fill-rule="evenodd" clip-rule="evenodd" d="M13.8017 6.63491C13.8017 6.63491 14.4557 8.44117 13.0854 8.81488C13.0854 8.81488 14.6425 14.3581 14.1131 14.2959C13.7365 14.2516 13.464 13.3995 13.2192 12.6339C13.1198 12.3233 13.0251 12.0269 12.9297 11.8045C12.8727 11.6714 12.7345 11.6892 12.3593 11.7374C12.1197 11.7682 11.7836 11.8114 11.3103 11.8356C10.0958 11.8979 8.75668 11.1194 8.75668 11.1194C8.75668 11.1194 10.4332 14.9322 9.69095 14.545C9.25146 14.3158 8.63135 13.3544 8.02551 12.4152C7.43918 11.5063 6.86621 10.6181 6.48331 10.4343C6.1586 10.2784 6.62951 11.2859 7.12682 12.3499C7.63334 13.4336 8.16726 14.5759 7.91584 14.6073C7.06562 14.7136 4.58366 11.2128 4.11651 7.69373C4.11651 7.69373 2.74627 9.06397 2.02998 8.93943C1.31373 8.81488 2.18571 5.54495 3.80508 3.55186C5.42445 1.55877 8.13383 1.93245 9.28609 3.67641C10.4383 5.42037 9.90901 7.06655 8.00932 7.00426C6.10967 6.94196 5.98505 5.14009 6.82588 4.57953C6.82588 4.57953 6.51971 5.76711 7.37812 6.04485C8.33542 6.35452 9.16154 5.79408 8.72553 4.54839C8.34724 3.46761 6.67826 2.26468 5.73588 3.55186C4.45908 5.29578 5.98505 7.32005 8.4764 7.94286C10.9677 8.56571 12.6495 8.628 12.6495 8.628C12.6495 8.628 12.556 6.97748 13.8017 6.63491ZM3.33797 6.46363C3.33797 6.64422 3.48435 6.79061 3.66494 6.79061C3.84554 6.79061 3.99196 6.64422 3.99196 6.46363C3.99196 6.28304 3.84554 6.13665 3.66494 6.13665C3.48435 6.13665 3.33797 6.28304 3.33797 6.46363Z" fill="currentColor"/>
<path d="M11.9224 13.0484C11.6585 12.2386 11.7856 12.1576 11.9433 12.115C12.1011 12.0725 12.3393 12.3215 12.4937 12.8945C12.5145 12.9716 12.5361 13.0497 12.5575 13.1273C12.6955 13.6262 12.8273 14.1025 12.6908 14.1393C12.533 14.1818 12.1063 13.6126 11.9224 13.0484Z" fill="currentColor"/>
</svg>
