<svg width="16" height="16" viewBox="0 0 16 16" fill="none" xmlns="http://www.w3.org/2000/svg">
<path fill-rule="evenodd" clip-rule="evenodd" d="M4.32157 5.04914C4.75851 3.56284 5.39303 2.32761 6.22195 1.34218C6.25373 1.30442 6.29747 1.27867 6.34588 1.26925L7.80868 0.98419C7.90723 0.964971 8.006 1.01622 8.04703 1.10782C8.41787 1.93589 8.72508 3.1774 8.96373 4.83251C8.96373 4.83251 9.16626 6.19027 9.1666 6.19286C9.23177 6.66913 9.27691 7.00752 9.30232 7.211C9.3596 7.72651 9.42566 8.16023 9.50122 8.51199C10.2344 7.37137 11.2004 6.80893 12.3884 6.80893C13.208 6.80893 13.9046 7.09118 14.4788 7.65464C15.0546 8.21959 15.3424 8.90485 15.3424 9.71039C15.3424 10.5697 15.0515 11.2984 14.4714 11.8973C13.8889 12.4987 13.1795 12.7994 12.3434 12.7994C11.3338 12.7994 10.4383 12.4459 9.6584 11.7353C9.12435 13.0842 8.64405 13.9517 8.23154 14.3451C7.77045 14.7847 7.01362 15.0198 5.95208 15.0198H4.94688C4.82762 15.0198 4.73098 14.9232 4.73098 14.804V13.8812C4.73098 13.762 4.82762 13.6654 4.94688 13.6654H5.41946C6.29017 13.6654 6.89529 13.5096 7.22295 13.1567C7.56414 12.7892 7.9889 11.8351 8.51464 10.3019C8.28011 9.87924 8.12615 9.52376 8.05012 9.23679C7.97146 8.93994 7.86769 8.28666 7.74093 7.27786C7.74093 7.27786 7.46337 5.15491 7.46342 5.15521C7.31641 4.04263 7.15273 3.21197 6.96797 2.66413C6.4438 3.35864 5.98619 4.25319 5.5926 5.34633C5.14225 6.59696 4.91523 7.71378 4.91523 8.69764V9.2978C4.91523 9.41701 4.81854 9.51366 4.69933 9.51366H3.59659C3.47738 9.51366 3.38069 9.41701 3.38069 9.2978V8.90769C3.38069 8.1971 3.25494 7.19309 3.00573 5.89528C2.7591 4.61084 2.53518 3.76724 2.3253 3.367C2.06086 2.86412 1.64712 2.61224 1.08358 2.61224H0.873529C0.75427 2.61224 0.657623 2.51555 0.657623 2.39633V1.48112C0.657623 1.36191 0.75427 1.26526 0.873529 1.26526H1.70618C2.57667 1.26526 3.17581 1.61591 3.51318 2.30194C3.80308 2.89806 4.07367 3.81361 4.32157 5.04914ZM10.0715 10.3667C10.7966 11.1379 11.5223 11.5349 12.2609 11.5349C12.7535 11.5349 13.1646 11.3653 13.493 11.0236C13.8246 10.6785 13.9879 10.2452 13.9879 9.72537C13.9879 9.26925 13.8324 8.88041 13.5202 8.55938C13.21 8.24038 12.8328 8.08085 12.3884 8.08085C11.3983 8.08085 10.6445 8.86111 10.0715 10.3667Z" fill="currentColor" />
</svg>
