<svg width="16" height="16" viewBox="0 0 16 16" fill="none" xmlns="http://www.w3.org/2000/svg">
<path fill-rule="evenodd" clip-rule="evenodd" d="M11.3891 8.99042C12.025 6.08058 10.68 3.44495 8.44383 3.01474C9.66473 1.92975 12.5935 2.28196 12.5935 4.93296C12.5935 6.74599 11.4565 7.70451 12.9031 8.81431C12.4765 9.17834 11.8713 9.20434 11.3891 8.99042ZM10.0075 10.9015C10.0075 10.3106 9.99212 9.73028 9.94957 9.1807C9.78056 9.80474 9.51109 10.3283 9.08915 10.6829L9.29598 11.9227L11.7449 12.8741L11.5865 13.5325L3.23993 13.5596L3.09692 12.8942L5.71247 11.9097L5.85784 10.6297C5.52376 10.3349 5.26244 9.9668 5.09433 9.55418C4.91938 10.0396 4.8368 10.5535 4.85086 11.0694C3.15956 8.66067 3.16311 4.36919 6.45943 3.55723C6.76865 3.4638 7.0902 3.41758 7.41322 3.42013C7.46758 3.42013 7.51959 3.42013 7.57159 3.42013H7.64014C10.5358 3.42249 12.1975 7.37594 10.0075 10.9015ZM8.58921 12.1047C8.56911 11.8553 8.53602 11.3448 8.51475 11.0233C8.20226 11.1378 7.87127 11.1935 7.5385 11.1876C7.17483 11.1925 6.81364 11.1271 6.47479 10.9949C6.4547 11.3495 6.42042 11.9499 6.4086 12.2123C6.36842 13.0077 8.65185 13.0219 8.58448 12.1047H8.58921ZM5.52218 8.8415C5.84838 9.92766 6.4677 10.5186 7.49595 10.5186C8.95323 10.5186 9.47209 9.25989 9.57727 7.17975C9.40117 6.71408 9.1577 6.3796 8.82559 6.2425C8.39538 7.91962 6.53743 7.68205 5.52218 8.8415Z" fill="currentColor"/>
</svg>
