<svg width="16" height="16" viewBox="0 0 16 16" fill="none" xmlns="http://www.w3.org/2000/svg">
<path fill-rule="evenodd" clip-rule="evenodd" d="M5.74475 6.63628C5.37501 5.8421 5.19286 5.13014 5.19286 4.50115C5.19286 3.53281 5.54304 2.72742 6.24222 2.0846C6.93527 1.44702 7.80464 1.12561 8.85232 1.12561C10.0006 1.12561 10.9203 1.4672 11.6148 2.14066C12.3114 2.81637 12.6638 3.7122 12.6638 4.83153C12.6638 5.38054 12.6056 5.85368 12.4912 6.25171C12.3794 6.64076 12.1167 7.28209 11.7014 8.1753C11.7014 8.1753 11.2454 9.16644 11.2453 9.16681C10.4529 10.8807 10.047 11.9862 10.047 12.4903C10.047 12.8163 10.1413 13.0856 10.3365 13.296C10.5268 13.501 10.7705 13.6019 11.0661 13.6019C11.4937 13.6019 11.9765 13.3477 12.5263 12.8631C12.604 12.7945 12.7223 12.8009 12.7923 12.8773L13.3672 13.505C13.438 13.5824 13.4328 13.7025 13.3556 13.7735C12.5503 14.5136 11.7731 14.8744 11.033 14.8744C10.372 14.8744 9.81808 14.6538 9.3702 14.2155C8.92068 13.7755 8.69521 13.2337 8.69521 12.5894C8.69521 11.7844 9.11038 10.4827 9.95561 8.68881C9.95561 8.68881 10.59 7.34076 10.5899 7.34114C11.0636 6.32982 11.3054 5.51172 11.3054 4.88422C11.3054 4.11135 11.085 3.48908 10.6348 3.02042C10.1874 2.55438 9.59444 2.32528 8.85894 2.32528C8.16963 2.32528 7.61034 2.52822 7.1841 2.94232C6.75976 3.35454 6.55122 3.8972 6.55122 4.56693C6.55122 5.21348 6.76328 5.96954 7.17999 6.83697C7.17999 6.83697 7.43771 7.37253 7.43764 7.37215C7.88253 8.29415 8.09753 8.97509 8.09753 9.41086C8.09753 10.1366 7.82508 10.7683 7.27712 11.3046C6.7308 11.839 6.086 12.1055 5.34339 12.1055C4.57683 12.1055 3.92512 11.8356 3.38807 11.2963C2.85135 10.757 2.58264 10.1023 2.58264 9.33163C2.58264 8.58865 2.84706 7.9462 3.37697 7.40429C3.9083 6.86126 4.542 6.59068 5.27732 6.59068C5.42431 6.59068 5.58015 6.60563 5.74475 6.63628ZM3.69651 9.33835C3.69651 8.88763 3.85236 8.50232 4.1645 8.1824C4.47503 7.86398 4.85029 7.7044 5.29051 7.7044C5.74344 7.7044 6.12565 7.86249 6.43678 8.17941C6.74919 8.49783 6.9044 8.88875 6.9044 9.35143C6.9044 9.80589 6.74765 10.1935 6.43349 10.5134C6.12076 10.8322 5.7443 10.9917 5.30374 10.9917C4.85115 10.9917 4.47013 10.834 4.16121 10.5171C3.85053 10.1987 3.69651 9.80514 3.69651 9.33835Z" fill="currentColor" />
</svg>
