<svg width="192" height="192" viewBox="0 0 192 192" fill="none" xmlns="http://www.w3.org/2000/svg">
<path fill-rule="evenodd" clip-rule="evenodd" d="M122.51 12L69.4903 12C64.186 12 59.0989 14.1071 55.3482 17.8579L17.8579 55.3482C14.1071 59.0989 12 64.186 12 69.4903L12 122.51C12 127.814 14.1071 132.901 17.8579 136.652L55.3482 174.142C59.0989 177.893 64.186 180 69.4903 180L122.51 180C127.814 180 132.901 177.893 136.652 174.142L174.142 136.652C177.893 132.901 180 127.814 180 122.51L180 69.4903C180 64.186 177.893 59.0989 174.142 55.3482L136.652 17.8579C132.901 14.1071 127.814 12 122.51 12ZM69.4903 5.09283e-06C61.0034 5.745e-06 52.8641 3.37142 46.8629 9.37258L9.37258 46.8629C3.37142 52.8641 0 61.0034 0 69.4903L3.20614e-06 122.51C3.61671e-06 130.997 3.37142 139.136 9.37258 145.137L46.8629 182.627C52.8641 188.629 61.0034 192 69.4903 192L122.51 192C130.997 192 139.136 188.629 145.137 182.627L182.627 145.137C188.629 139.136 192 130.997 192 122.51L192 69.4903C192 61.0034 188.629 52.8641 182.627 46.8629L145.137 9.37258C139.136 3.37142 130.997 0 122.51 0L69.4903 5.09283e-06Z" fill="#230000"/>
<path d="M83.7882 58.5783C80.5494 55.3297 78.73 50.9225 78.73 46.3268C78.73 41.7312 80.5493 37.3243 83.7882 34.0754C87.0258 30.8255 91.419 29 95.998 29C118.85 29.7894 118.857 62.8616 95.998 63.6537C91.419 63.6537 87.0271 61.8282 83.7882 58.5783Z" fill="#230000"/>
<path d="M34.1503 68.4907H157.851L157.853 68.4894C160.315 68.4759 162.609 69.7415 163.917 71.8362C165.223 73.931 165.357 76.5558 164.268 78.7722C163.18 80.9896 161.025 82.483 158.574 82.7202L124.035 86.3031C122.878 86.4227 121.805 86.9683 121.024 87.8347C120.243 88.7011 119.809 89.8263 119.805 90.9938L119.593 155.813C119.568 157.934 118.622 159.939 117.002 161.302C115.381 162.665 113.248 163.249 111.163 162.902C109.56 162.61 108.097 161.8 106.998 160.594C105.898 159.388 105.224 157.854 105.077 156.226L101.27 120.384C101.062 118.645 100.015 117.119 98.4696 116.304C96.9247 115.489 95.0776 115.489 93.5327 116.304C91.9867 117.119 90.9403 118.645 90.7327 120.384L86.8936 156.532C86.5792 159.032 85.0025 161.193 82.7217 162.248C80.4409 163.302 77.7797 163.102 75.6808 161.717C73.5831 160.333 72.3455 157.96 72.4072 155.441H72.4082L72.1975 91.0341C72.1934 89.8553 71.7545 88.7197 70.9672 87.8462C70.1787 86.9716 69.0964 86.4208 67.9277 86.3002L33.4286 82.7202C30.9762 82.4852 28.8208 80.9917 27.7323 78.7743C26.6428 76.557 26.7764 73.9322 28.0838 71.8375C29.3913 69.7417 31.6865 68.4762 34.1503 68.4907Z" fill="#230000"/>
<g opacity="0.25">
<path d="M38.5144 48.6165C38.7755 46.8332 39.7561 45.2367 41.2259 44.2012C42.4903 43.2997 44.0105 42.8307 45.5615 42.8647C47.1124 42.8977 48.6122 43.4309 49.8363 44.386H49.8374L72.1706 63.8612H47.7878L39.8444 53.627C38.7343 52.2107 38.2533 50.3987 38.5144 48.6165Z" fill="#230000"/>
<path d="M142.163 46.696L122.478 63.8609H146.009L152.156 55.9369C153.064 54.787 153.559 53.3627 153.56 51.8941C153.743 46.334 146.359 43.0883 142.163 46.696Z" fill="#230000"/>
<path d="M124.272 140.354L124.41 112.768L143.657 135.849C145.373 137.895 145.951 140.669 145.199 143.234C144.446 145.799 142.462 147.814 139.915 148.601C137.368 149.388 134.598 148.842 132.537 147.146H132.538L124.272 140.354Z" fill="#230000"/>
<path d="M49.1843 143.192C48.4257 140.653 48.9715 137.903 50.6408 135.849L67.656 115.427L67.7485 142.225L61.7622 147.146C59.6953 148.796 56.9478 149.31 54.4275 148.518C51.9072 147.725 49.9439 145.73 49.1843 143.192Z" fill="#230000"/>
</g>
</svg>
