<svg width="16" height="16" viewBox="0 0 16 16" fill="none" xmlns="http://www.w3.org/2000/svg">
<path d="M11.2232 14.2894C11.0562 14.2894 10.8951 14.2835 10.7422 14.272C10.7439 14.1539 10.7746 13.9271 10.9416 13.6091C11.1457 13.2198 11.8137 11.92 11.8393 11.54C11.8614 11.2127 11.8031 10.5917 11.1657 10.1093L11.0549 10.0255L10.9744 10.1385C10.5108 10.7886 9.85894 12.1849 9.67105 12.9141H8.72774C8.78356 12.7328 8.89731 12.4195 9.10438 12.0483C9.21516 11.8502 9.41967 11.5486 9.61736 11.2571C9.83593 10.9351 10.0421 10.631 10.1163 10.4738C10.3749 9.92554 10.403 9.02336 10.2445 8.6693L10.2092 8.59035L10.1227 8.58945C10.1073 8.58932 10.0916 8.58924 10.0754 8.58924C9.82699 8.58924 8.95526 8.60965 8.16023 8.87219C6.83858 9.30886 5.59149 11.3877 5.04238 13.2155L5.02691 13.267L5.0316 13.2764C5.00629 13.4383 4.91443 14.0239 4.87617 14.2679C4.73174 14.2751 4.49779 14.2844 4.24739 14.2844C4.08173 14.2844 3.93278 14.2804 3.80271 14.2724C3.82418 14.1156 3.88549 13.8575 4.01446 13.596C4.11245 13.3975 4.21731 13.2318 4.31867 13.0716C4.57277 12.67 4.81282 12.2905 4.89173 11.5054C4.98414 10.5858 4.85743 9.40622 4.44116 9.02536C4.17815 8.75536 3.47315 8.57428 2.97627 8.57428C2.66196 8.57428 2.44262 8.63977 2.32431 8.76891C2.2546 8.84496 2.22274 8.94121 2.23207 9.04726C2.26155 9.38453 2.53986 10.4131 3.13012 10.5651C3.18739 10.5799 3.40497 10.6359 3.54621 10.6687C3.61511 11.2143 3.61916 11.5914 3.58703 11.7086C3.39726 11.6797 2.88501 11.3358 2.59405 11.0667C1.65509 10.1983 1.2318 8.51651 1.41224 8.02483C1.44449 7.93681 1.47866 7.9354 1.49148 7.93481C1.83629 7.91998 2.44327 7.81112 3.03025 7.70584C3.53646 7.61505 4.01459 7.52928 4.28612 7.50977L4.36562 7.50406L4.39902 7.43175C5.09738 5.9211 4.8432 5.00255 4.62953 4.5894C4.46647 4.27416 4.22656 4.05955 3.98775 4.01528L3.83977 3.98793L3.82848 4.13794C3.8007 4.50687 3.65047 4.70427 3.49142 4.91325C3.29343 5.17349 3.08871 5.44255 3.18751 5.99153C3.19961 6.05906 3.24968 6.09247 3.30272 6.12783C3.41222 6.20094 3.51903 6.2853 3.51733 6.44099C3.51439 6.71801 3.31269 6.86296 3.115 6.86296C3.00098 6.86296 2.89136 6.81503 2.80636 6.72807C2.62413 6.54132 2.4189 6.2718 2.1541 5.57058C1.99556 5.15074 1.96808 4.59933 1.96356 4.38178L1.96152 4.27999L1.86305 4.25396C1.67614 4.20462 1.41343 4.10339 1.25928 4.04144C1.3387 3.87655 1.50776 3.5622 1.78444 3.21888L1.84678 3.14151L1.79147 3.05894C1.59566 2.76674 1.5415 2.34579 1.64244 1.9375C1.8115 1.97657 2.15427 2.08751 2.49908 2.38716L2.57816 2.45589L2.66439 2.39641C3.15125 2.06042 3.70079 1.84551 4.29775 1.75757C4.50972 1.72647 4.71994 1.71062 4.92244 1.71062C5.83264 1.71062 6.6166 2.02318 7.1888 2.61447C7.75717 3.20171 8.078 4.02018 8.11634 4.98129L8.12572 5.2126L8.32255 5.09066C8.70729 4.8522 9.47634 4.41007 10.3033 4.12857C10.5871 4.03185 10.8785 3.98281 11.1695 3.98281C12.0012 3.98281 12.6795 4.38174 12.9394 5.02394L12.9739 5.10843L13.0676 5.10996C13.1268 5.10988 13.1592 5.08282 13.2564 5.00247C13.4323 4.85603 13.8452 4.51313 14.2295 4.51313C14.4451 4.51313 14.6228 4.62093 14.7732 4.84274C15.039 5.23476 14.8341 5.80615 14.5968 6.46779C14.1958 7.58744 13.6999 8.97116 15.5959 9.91566C15.3023 10.0996 14.7335 10.407 14.2125 10.407C14.212 10.407 14.212 10.407 14.212 10.407C13.6969 10.407 13.368 10.1057 13.2061 9.48602C13.1136 9.13277 13.3787 8.51928 13.6347 7.92599C14.0007 7.07876 14.379 6.20273 13.9717 5.66082C13.8563 5.50752 13.7182 5.47536 13.6228 5.47536C13.4485 5.47536 13.2994 5.57885 13.218 5.67565L13.1754 5.72661L13.1899 5.79158C13.3842 6.67524 12.9603 7.7375 12.4532 8.39824C11.8265 9.2167 11.7315 9.56863 12.3587 10.1758C12.8614 10.6637 12.8214 10.741 12.5619 11.2437C12.2926 11.7647 11.7771 13.3471 11.7213 14.2722C11.613 14.2799 11.4362 14.2894 11.2232 14.2894V14.2894ZM2.96119 3.77762C2.72008 3.77762 2.52392 3.97195 2.52392 4.21084C2.52392 4.44965 2.72008 4.64398 2.96119 4.64398C3.2023 4.64398 3.39846 4.44965 3.39846 4.21084C3.39846 3.97195 3.2023 3.77762 2.96119 3.77762Z" fill="currentColor" />
</svg>
