<svg width="40" height="16" viewBox="0 0 40 16" fill="none" xmlns="http://www.w3.org/2000/svg">
<g opacity="0.1">
<path d="M31.9995 2.66663L29.3606 7.65076C29.2756 7.81116 29.3992 7.99996 29.5891 7.99996H34.4123C34.6012 7.99996 34.7239 8.18756 34.6395 8.34703L31.9995 13.3333" stroke="currentColor" stroke-linecap="round" stroke-linejoin="round"/>
</g>
<g opacity="0.1">
<path d="M23.9996 2.66663L21.3607 7.65076C21.2757 7.81116 21.3993 7.99996 21.5892 7.99996H26.4124C26.6013 7.99996 26.724 8.18756 26.6396 8.34703L23.9996 13.3333" stroke="currentColor" stroke-linecap="round" stroke-linejoin="round"/>
</g>
<path d="M15.9996 2.66663L13.3607 7.65076C13.2757 7.81116 13.3993 7.99996 13.5892 7.99996H18.4124C18.6013 7.99996 18.724 8.18756 18.6396 8.34703L15.9996 13.3333" stroke="currentColor" stroke-linecap="round" stroke-linejoin="round"/>
<path d="M7.99957 2.66663L5.36071 7.65076C5.27571 7.81116 5.39925 7.99996 5.58915 7.99996H10.4124C10.6013 7.99996 10.724 8.18756 10.6396 8.34703L7.99957 13.3333" stroke="currentColor" stroke-linecap="round" stroke-linejoin="round"/>
</svg>
