<svg width="16" height="16" viewBox="0 0 16 16" fill="none" xmlns="http://www.w3.org/2000/svg">
<path d="M14.1289 10.0939C15.6862 6.84518 14.6943 3.32975 12.5847 2.48468C10.8874 1.80037 10.0702 3.73792 10.5156 4.78729C10.9305 5.76168 11.5484 5.63236 11.5484 5.63191C10.6306 4.94355 10.5556 1.98447 12.481 3.45772C14.41 4.92963 14.4927 7.83124 13.4927 10.1954C13.2457 10.7798 12.9067 11.2007 12.5371 11.5032C12.3683 10.0642 13.4294 7.81957 13.428 7.81822C13.4285 7.81822 12.8631 7.67812 11.7002 6.91253C10.5255 6.13976 9.58075 5.02303 9.23994 4.59376C9.23904 4.59106 9.23859 4.58837 9.2377 4.58568C9.91213 4.54032 10.4357 3.96243 10.4137 3.27587C10.3912 2.57449 9.8111 2.02802 9.1187 2.05272C8.85019 2.06215 8.60412 2.15644 8.40431 2.30821C8.09582 1.84706 7.44878 1.46719 6.69396 1.38502C5.13404 1.21394 4.62485 2.32034 4.6244 2.32079C4.62395 2.32079 5.55209 3.08189 5.0411 3.44425C4.52966 3.80661 3.63295 4.4815 3.91404 5.43389C4.19558 6.38717 5.36979 6.31578 6.05994 6.07914C6.19779 6.03199 6.42904 5.99068 6.52648 6.15592C5.97911 6.54478 5.78648 8.06518 5.16772 8.15948C3.56245 8.40285 3.59703 6.39077 2.88891 5.97586C2.24905 5.60048 1.59886 5.96374 1.30205 6.22418C0.992225 6.49539 1.15118 6.82677 1.15118 6.82677C1.26838 6.64985 1.43811 6.61528 1.43811 6.61528C1.19878 6.91567 1.44035 7.21338 1.44035 7.21338C1.4866 6.90355 1.7861 6.83036 1.7861 6.83036C1.62356 7.23673 1.86154 7.39479 1.86154 7.39479C1.93698 7.08002 2.33033 6.86089 2.5948 7.00278C3.01958 7.19632 3.64507 8.62512 4.55525 9.17518C4.12014 8.96144 3.73982 8.84829 3.50902 8.93046C2.72951 9.20885 2.69673 10.4037 3.01823 11.4747C3.24724 12.2365 3.79236 13.398 3.79236 13.398C3.79236 13.3978 3.62128 13.6755 2.49961 13.4018C1.99221 13.2779 1.97155 14.633 1.97155 14.633C1.97155 14.6329 3.4273 13.9525 4.92435 13.9963C4.9239 13.9961 4.07659 12.2715 3.89114 11.6889C3.63295 10.8796 4.15966 10.8352 5.05726 11.9056C5.95486 12.9759 6.66433 14.0317 8.24041 13.9953C9.03609 13.9768 9.6297 13.5583 10.0136 12.882C10.3136 12.9023 11.0087 12.8982 11.7967 12.5423C11.9359 13.1057 12.2543 13.6442 12.5816 13.842C12.9359 14.0563 13.1649 13.8016 13.1649 13.8016C12.9601 13.7434 12.9561 13.5906 12.9561 13.5906C13.3167 13.7283 13.4469 13.4049 13.4469 13.4049C13.1595 13.3428 13.0661 13.1879 13.0661 13.1879C13.5048 13.2195 13.4927 12.9444 13.4927 12.9444C13.1065 12.8487 12.803 12.3174 12.6665 12.0076C13.1878 11.591 13.7024 10.9822 14.1289 10.0939V10.0939ZM6.08015 4.79717C5.77481 4.80301 5.52245 4.56008 5.51707 4.25474C5.51123 3.94941 5.7537 3.69705 6.05904 3.69122C6.36438 3.68583 6.61673 3.9283 6.62257 4.23364C6.62841 4.53898 6.38548 4.79133 6.08015 4.79717V4.79717ZM7.31497 11.1546C6.98493 10.8139 5.9158 9.9475 4.96207 9.3943C5.17132 9.48141 5.27639 9.4401 5.47665 9.25645C5.76134 8.99646 6.50852 7.51198 7.37693 7.0423C7.6926 7.29331 7.97009 8.22863 8.00512 8.95246C8.07157 10.3058 7.8529 11.7093 7.31497 11.1546V11.1546ZM11.6862 11.6238C11.6907 11.7558 11.6984 11.8776 11.7091 11.9909C11.1402 12.2208 10.6 12.2618 10.2848 12.2616C10.4725 11.6926 10.5547 11.0159 10.5291 10.2816C10.49 9.16664 10.2184 8.01175 9.88565 7.08675C10.1124 7.1815 10.935 7.55599 11.4815 8.22773C12.12 9.01398 11.6413 10.3498 11.6862 11.6238Z" fill="currentColor"/>
</svg>
