<svg width="16" height="16" viewBox="0 0 16 16" fill="none" xmlns="http://www.w3.org/2000/svg">
<path fill-rule="evenodd" clip-rule="evenodd" d="M7.99443 8.54647C8.22352 6.66176 8.66524 5.09727 9.31593 3.853C10.1387 2.27924 11.1441 1.51334 12.2984 1.51334C13.0346 1.51334 13.6453 1.79061 14.1305 2.34514C14.6064 2.88893 14.8478 3.57232 14.8478 4.39777C14.8478 5.18074 14.6075 6.02376 14.1204 6.92487C14.0847 6.99125 14.0155 7.03226 13.9403 7.03226H12.9486C12.8759 7.03226 12.8087 6.9937 12.7719 6.93121C12.7352 6.86824 12.7344 6.79063 12.77 6.72717C13.2315 5.90514 13.4663 5.15145 13.4663 4.46317C13.4663 3.93452 13.3575 3.50691 13.1292 3.1823C12.9215 2.88697 12.6476 2.73711 12.305 2.73711C11.9187 2.73711 11.5529 2.96508 11.1927 3.39464C10.7954 3.86862 10.4148 4.5813 10.0462 5.52878C9.665 6.51239 9.34527 7.78643 9.08533 9.35044C8.82466 10.9188 8.69404 12.3588 8.69404 13.671V14.2816C8.69404 14.3949 8.60236 14.4866 8.48926 14.4866H7.51728C7.40418 14.4866 7.3125 14.3949 7.3125 14.2816V13.6314C7.3125 12.3979 7.18847 11.0257 6.94088 9.51396C6.69388 8.0061 6.39348 6.7755 6.03831 5.82216C5.5819 4.60376 5.10933 3.74756 4.61006 3.25991C4.3123 2.96947 4.00979 2.81619 3.69499 2.81619C3.3594 2.81619 3.08755 2.96605 2.87599 3.25991C2.64442 3.58111 2.53371 4.00091 2.53371 4.51589C2.53371 5.22614 2.76684 5.96079 3.22662 6.7218C3.26484 6.78477 3.26602 6.86385 3.22975 6.92828C3.19343 6.99272 3.12528 7.03226 3.05138 7.03226H2.06626C1.99168 7.03226 1.92295 6.99174 1.88692 6.92633C1.39488 6.03352 1.15222 5.19636 1.15222 4.41729C1.15222 3.59282 1.39429 2.90601 1.87223 2.35539C2.35983 1.79402 2.97191 1.51334 3.70812 1.51334C4.85877 1.51334 5.85394 2.26752 6.66123 3.81688C7.30142 5.04602 7.747 6.62222 7.99443 8.54647Z" fill="currentColor" />
</svg>
