<svg width="16" height="16" viewBox="0 0 16 16" fill="none" xmlns="http://www.w3.org/2000/svg">
<path fill-rule="evenodd" clip-rule="evenodd" d="M7.39163 14.9387C-2.37797 13.7479 -0.221871 -0.0519629 8.94952 1.06416C18.0841 2.18346 16.3167 16.031 7.39163 14.9387ZM3.209 11.6951L4.83087 8.569L2.2989 6.26849C1.76148 8.09588 2.0126 10.1614 3.209 11.6951ZM5.69619 9.35331L4.77169 11.1759L6.66067 10.2233L5.69619 9.35331ZM5.84334 6.61778L3.97195 6.39074L5.33151 7.60371L5.84334 6.61778ZM2.75955 5.12856L6.39036 5.57151L8.22016 2.03422C5.60022 1.91991 3.72084 3.28688 2.75955 5.12856ZM8.46968 3.8886L7.54998 5.7017L8.89354 5.86047L8.46968 3.8886ZM7.01256 6.76067L6.19363 8.37372L7.69393 9.71212L9.52373 8.79604L9.14146 7.01945L7.01256 6.76067ZM8.53366 10.4631L10.2003 11.9491L9.75886 9.85818L8.53366 10.4631ZM9.30141 2.15964L10.0899 6.00653L13.8151 6.45266C13.3561 4.42681 11.899 2.65499 9.30141 2.15964ZM11.5183 12.9843C13.1529 11.811 14.0103 9.76451 13.9687 7.75295L10.7697 9.3406L11.5183 12.9843ZM12.2988 7.40525L10.3283 7.15917L10.557 8.27053L12.2988 7.40525ZM7.4908 10.9822L4.16069 12.6429C6.06727 14.1337 8.67601 14.2099 10.3715 13.5955L7.4908 10.9822Z" fill="currentColor"/>
</svg>
