<svg width="16" height="16" viewBox="0 0 16 16" fill="none" xmlns="http://www.w3.org/2000/svg">
<path d="M12.7991 3.30337C13.9839 3.69826 15.6112 2.5952 15.388 2.38187C15.1648 2.16859 14.6949 2.82955 14.2999 2.52237C13.905 2.21523 14.5377 1.5687 14.291 1.41654C14.0444 1.26437 13.5337 2.38797 12.9633 2.16858C12.3928 1.94916 12.8828 1.48095 12.6675 1.37262C12.4522 1.26437 11.3951 2.76066 11.0912 3.6212C10.4327 3.94892 10.0336 4.51102 10.0336 4.51102C10.521 4.35711 10.8986 4.4116 11.1718 4.61277C10.9391 5.01343 9.96408 6.7749 10.7807 6.81377C11.5645 6.8511 11.3323 5.17402 11.2455 4.67222C11.5632 4.9576 11.7176 5.46465 11.7176 6.07474C11.7176 7.21741 11.3072 8.2618 9.63974 8.21792C8.03105 8.17559 7.66515 6.94541 7.75291 3.74214C7.82468 1.12298 4.33027 1.46041 4.33027 1.46041C6.83145 2.99619 6.18447 5.17259 6.18447 5.17259C4.81294 2.11861 1.82912 3.61051 1.82912 3.61051C4.17467 3.73079 5.28237 6.43559 5.28237 6.43559C5.28237 6.43559 4.33027 5.23408 2.88223 5.62901C1.11752 6.11028 0.591232 8.42031 0.591232 8.42031C3.01387 6.37496 4.40523 7.55948 5.60281 9.44656C6.25674 10.477 7.0906 11.1979 8.09099 11.5679L7.73591 13.4194C7.73591 13.4194 9.3899 12.2357 10.4243 12.982C11.5482 13.7929 10.057 14.6903 9.44268 14.4709C9.44268 14.4709 10.2135 14.9473 11.0566 14.2664C11.8037 13.6629 11.5566 12.9707 10.8293 12.6297C9.69151 12.0964 8.16264 12.8647 8.16264 12.8647L8.48271 11.6912C9.28153 11.8905 10.2522 11.9044 11.2354 11.6726L11.2194 11.7283C11.2194 11.7283 12.6768 11.9779 12.8523 12.8116C13.0278 13.6453 12.258 13.9012 12.258 13.9012C12.258 13.9012 13.419 13.9054 13.3751 12.7207C13.3422 11.8335 12.1704 11.5614 11.7157 11.5387C11.9026 11.4785 12.2553 11.3651 12.4481 11.2896C15.5154 10.0867 14.9653 4.81174 13.161 3.72917C12.4367 3.29454 11.79 3.33509 11.2752 3.5391C11.5436 3.31435 12.0476 3.05283 12.7991 3.30337V3.30337ZM12.3164 4.18095C12.5346 4.18095 12.7114 4.35776 12.7114 4.57588C12.7114 4.79397 12.5346 4.97082 12.3164 4.97082C12.0984 4.97082 11.9215 4.79397 11.9215 4.57588C11.9215 4.35776 12.0984 4.18095 12.3164 4.18095Z" fill="currentColor" />
</svg>
