<svg width="16" height="16" viewBox="0 0 16 16" fill="none" xmlns="http://www.w3.org/2000/svg">
<path fill-rule="evenodd" clip-rule="evenodd" d="M11.4583 12.1847C11.947 13.8305 11.0555 14.6003 11.0555 14.6003L10.2419 12.0998C9.67656 12.3062 9.07759 12.4079 8.47498 12.3997C7.75067 12.4101 7.03148 12.2784 6.359 12.0122L5.57356 14.6666C5.57356 14.6666 4.68608 13.4721 5.1023 12.1608C5.16272 11.9737 5.23656 11.7175 5.33457 11.4163C4.64497 10.8955 4.17061 10.1444 4 9.30332L4.819 8.91179C4.97194 9.44428 5.26523 9.92704 5.66889 10.3107C6.07168 8.98346 6.53623 7.39875 6.76179 6.63692C5.62324 5.55921 5.99917 3.33875 7.73116 2.91404L7.36597 1.44082L8.83212 1.33331L8.89119 2.90077C10.7064 3.29894 10.9924 5.68795 9.7921 6.73513C9.97201 7.31513 10.3171 8.43398 10.6608 9.55549L9.67395 10.3226L8.65624 7.21559C8.56704 7.22493 8.4774 7.22937 8.38771 7.22886C8.18835 7.22912 7.98949 7.20911 7.79427 7.16913L6.67317 10.9624C7.23365 11.1888 7.83468 11.3007 8.44007 11.2915C10.3198 11.2915 11.4852 10.2032 11.8342 8.81755L12.6667 9.18918C12.4914 10.1071 11.9952 10.9349 11.265 11.5278L11.4583 12.1847ZM8.34743 5.99056C9.57862 5.99056 9.58668 4.08598 8.32595 4.08598C7.06522 4.08598 6.99809 5.99056 8.34743 5.99056Z" fill="currentColor"/>
</svg>
