<svg width="16" height="16" viewBox="0 0 16 16" fill="none" xmlns="http://www.w3.org/2000/svg">
<path fill-rule="evenodd" clip-rule="evenodd" d="M10.5041 11.2217C10.1194 10.969 9.81883 10.6725 9.59999 10.3337C9.30954 9.8839 9.1623 9.35594 9.1623 8.74933C9.1623 7.95261 9.44821 7.26834 10.0215 6.69804C10.5944 6.12773 11.2817 5.84283 12.0834 5.84283C12.8756 5.84283 13.5543 6.12521 14.1206 6.69098C14.6859 7.25675 14.9688 7.93799 14.9688 8.73521C14.9688 9.98273 14.224 11.0326 12.7011 11.8606C11.2348 12.6583 9.39627 13.0607 7.18362 13.0607C5.27956 13.0607 3.26912 12.5801 1.15227 11.6165C1.07865 11.5827 1.03125 11.5096 1.03125 11.4289V10.2752C1.03125 10.2051 1.06705 10.1401 1.12605 10.1017C1.18505 10.0639 1.25917 10.0589 1.32321 10.0876C3.51418 11.087 5.63254 11.5878 7.67778 11.5878C8.79621 11.5878 9.73866 11.4672 10.5041 11.2217ZM10.2838 8.75689C10.2838 8.2597 10.4582 7.83664 10.8072 7.4877C11.1561 7.13875 11.5792 6.96428 12.0764 6.96428C12.5675 6.96428 12.9855 7.13926 13.3294 7.48971C13.6748 7.84168 13.8473 8.26878 13.8473 8.77102C13.8473 9.26266 13.6769 9.67816 13.335 10.018C12.9926 10.3584 12.5756 10.5278 12.0834 10.5278C11.5903 10.5278 11.1672 10.3528 10.8132 10.0034C10.4607 9.65497 10.2838 9.23946 10.2838 8.75689ZM5.49236 3.8823C5.87963 4.13241 6.18167 4.42891 6.40051 4.76978C6.69096 5.2221 6.8382 5.75055 6.8382 6.35666C6.8382 7.15388 6.55179 7.83765 5.97846 8.40846C5.40563 8.97877 4.71834 9.26367 3.91658 9.26367C3.11935 9.26367 2.43912 8.98078 1.87587 8.41501C1.31262 7.84924 1.03125 7.168 1.03125 6.37128C1.03125 5.11872 1.77653 4.06686 3.29887 3.23837C4.76523 2.44115 6.60373 2.03876 8.81689 2.03876C10.7255 2.03876 12.7364 2.52132 14.8487 3.48999C14.9219 3.52377 14.9688 3.59689 14.9688 3.67757V4.8308C14.9688 4.90139 14.933 4.96644 14.874 5.00426C14.815 5.04258 14.7403 5.04762 14.6768 5.01838C12.4853 4.01441 10.3675 3.51117 8.32222 3.51117C7.2048 3.51117 6.26134 3.63371 5.49236 3.8823ZM5.71625 6.3496C5.71625 6.84225 5.54178 7.26431 5.19233 7.61577C4.84339 7.96673 4.42083 8.14221 3.92414 8.14221C3.43249 8.14221 3.01447 7.96674 2.67057 7.61628C2.32516 7.26482 2.15271 6.83721 2.15271 6.33548C2.15271 5.84384 2.32213 5.42783 2.662 5.08796C3.00187 4.7481 3.41787 4.57867 3.90951 4.57867C4.40318 4.57867 4.82775 4.75264 5.18426 5.10007C5.53875 5.44649 5.71625 5.86249 5.71625 6.3496Z" fill="currentColor"/>
</svg>
