<svg width="16" height="16" viewBox="0 0 16 16" fill="none" xmlns="http://www.w3.org/2000/svg">
<path fill-rule="evenodd" clip-rule="evenodd" d="M5.25305 7.03909C5.08432 5.21346 4.20601 3.43963 2.62836 1.7124C2.56416 1.64252 2.54768 1.54156 2.58631 1.45498C2.62438 1.36835 2.71017 1.3125 2.80447 1.3125H4.07421C4.14068 1.3125 4.20374 1.34 4.24919 1.38834C5.78423 3.03303 6.68185 4.91685 6.94375 7.03909H9.05657C9.31847 4.91685 10.2161 3.03303 11.7511 1.38834C11.796 1.34 11.8596 1.3125 11.9255 1.3125H13.1953C13.2902 1.3125 13.3759 1.36835 13.414 1.45498C13.4521 1.54156 13.4356 1.64252 13.372 1.7124C11.7943 3.43963 10.9154 5.21346 10.7473 7.03909H13.1044C13.2362 7.03909 13.343 7.14601 13.343 7.27793V8.19918C13.343 8.3311 13.2362 8.43807 13.1044 8.43807H10.7325C10.7939 10.5499 11.6756 12.4975 13.3691 14.2843C13.4345 14.3536 13.4526 14.4553 13.4151 14.543C13.3771 14.6307 13.2907 14.6875 13.1953 14.6875H11.8591C11.7903 14.6875 11.725 14.6578 11.6796 14.6061C10.8711 13.6847 10.228 12.6489 9.75081 11.4985C9.30654 10.4286 9.0685 9.40824 9.03555 8.43807H6.96477C6.93125 9.40824 6.69378 10.4286 6.24951 11.4985C5.77173 12.6489 5.12863 13.6847 4.3202 14.6061C4.27532 14.6578 4.20942 14.6875 4.14068 14.6875H2.80447C2.70903 14.6875 2.62267 14.6307 2.58518 14.543C2.54768 14.4553 2.56586 14.3536 2.6312 14.2843C4.32475 12.4975 5.20646 10.5499 5.26781 8.43807H2.89594C2.76413 8.43807 2.65733 8.3311 2.65733 8.19918V7.27793C2.65733 7.14601 2.76413 7.03909 2.89594 7.03909H5.25305Z" fill="currentColor" />
</svg>
