<svg width="38" height="16" viewBox="0 0 38 16" fill="none" xmlns="http://www.w3.org/2000/svg">
<path fill-rule="evenodd" clip-rule="evenodd" d="M2.34758 2.0006L7.57645 2C7.91082 2 8.10916 2.36689 7.93623 2.6426L5.60821 7.0121H7.57617C7.97759 7.0121 8.12657 7.53093 7.84278 7.76008L0.92919 13.8917C0.59423 14.1878 0.0890947 13.8259 0.256451 13.4183L2.11478 7.91002H0.423807C0.112795 7.91002 -0.0888258 7.58824 0.0389683 7.31324L1.95226 2.27303C2.01603 2.10474 2.17686 2.00117 2.3475 2.00068L2.34758 2.0006Z" fill="currentColor"/>
<path fill-rule="evenodd" clip-rule="evenodd" d="M12.3476 2.0006L17.5765 2C17.9108 2 18.1092 2.36689 17.9362 2.6426L15.6082 7.0121H17.5762C17.9776 7.0121 18.1266 7.53093 17.8428 7.76008L10.9292 13.8917C10.5942 14.1878 10.0891 13.8259 10.2565 13.4183L12.1148 7.91002H10.4238C10.1128 7.91002 9.91117 7.58824 10.039 7.31324L11.9523 2.27303C12.016 2.10474 12.1769 2.00117 12.3475 2.00068L12.3476 2.0006Z" fill="currentColor"/>
<path fill-rule="evenodd" clip-rule="evenodd" d="M22.3476 2.0006L27.5765 2C27.9108 2 28.1092 2.36689 27.9362 2.6426L25.6082 7.0121H27.5762C27.9776 7.0121 28.1266 7.53093 27.8428 7.76008L20.9292 13.8917C20.5942 14.1878 20.0891 13.8259 20.2565 13.4183L22.1148 7.91002H20.4238C20.1128 7.91002 19.9112 7.58824 20.039 7.31324L21.9523 2.27303C22.016 2.10474 22.1769 2.00117 22.3475 2.00068L22.3476 2.0006Z" fill="currentColor"/>
<path opacity="0.1" fill-rule="evenodd" clip-rule="evenodd" d="M32.3476 2.0006L37.5765 2C37.9108 2 38.1092 2.36689 37.9362 2.6426L35.6082 7.0121H37.5762C37.9776 7.0121 38.1266 7.53093 37.8428 7.76008L30.9292 13.8917C30.5942 14.1878 30.0891 13.8259 30.2565 13.4183L32.1148 7.91002H30.4238C30.1128 7.91002 29.9112 7.58824 30.039 7.31324L31.9523 2.27303C32.016 2.10474 32.1769 2.00117 32.3475 2.00068L32.3476 2.0006Z" fill="currentColor"/>
</svg>
