<svg width="16" height="16" viewBox="0 0 16 16" fill="none" xmlns="http://www.w3.org/2000/svg">
<path fill-rule="evenodd" clip-rule="evenodd" d="M8.50641 8.7345C7.26975 9.54534 5.95264 10.1797 5.3609 11.5913L9.77171 12.1893C9.72441 11.8572 9.63265 11.5335 9.49902 11.2272L6.63574 10.9023L7.12659 10.3128L8.95908 10.3212C8.77458 10.0878 8.57747 9.86526 8.3687 9.65457L9.21541 8.93476C10.1535 10.0117 10.9879 11.3687 10.7657 13.4441L10.7016 13.4301L10.6675 13.4217L9.80034 13.2312L5.16456 12.2019C5.12783 12.3603 5.09961 12.5207 5.08003 12.6823C5.06789 12.7877 5.06288 12.894 5.06503 13.0002L7.72651 13.6121L6.99297 14.3628L5.13593 13.783C5.19183 14.1583 5.26 14.4538 5.26 14.4538L4.46783 14.6666C4.46783 14.6666 3.89245 13.6738 4.01789 12.6346C4.27831 10.4808 5.70995 9.25265 7.06523 8.32137C6.17216 7.34109 5.30091 6.14513 5.30091 4.57527C5.32449 4.09417 5.4273 3.62066 5.60496 3.17486L6.38623 3.37792C6.38623 3.37792 6.36305 3.6776 6.34396 3.9997L10.9047 4.3442C10.9184 4.26858 10.9307 4.19016 10.9402 4.11033C10.9686 3.88237 10.9777 3.65231 10.9675 3.42273L7.40473 3.28269L7.76742 2.70292L10.812 2.54047C10.6839 2.14975 10.5053 1.74363 10.5053 1.74363L11.2061 1.33331C11.2061 1.33331 12.1605 2.78134 11.9764 4.23917C11.6928 6.54005 10.0199 7.743 8.50641 8.7345ZM6.32487 4.64109C6.326 4.94474 6.37197 5.24646 6.46122 5.53595L9.48811 6.11152L8.38643 6.68009L6.81572 6.30058C7.14159 6.81593 7.58471 7.25146 8.02375 7.68699C9.07089 7.00779 10.0989 6.3678 10.6143 5.25587L6.32487 4.64109Z" fill="currentColor"/>
</svg>
