<svg width="16" height="16" viewBox="0 0 16 16" fill="none" xmlns="http://www.w3.org/2000/svg">
<path fill-rule="evenodd" clip-rule="evenodd" d="M3.73688 2.75453C4.03165 2.14645 4.37555 1.62158 4.76907 1.17893C4.79865 1.14585 4.83825 1.12279 4.88186 1.11427L5.90653 0.906225C5.97972 0.891187 6.05542 0.917253 6.10404 0.974401C6.49005 1.42557 6.77027 2.02714 6.94022 2.7811C7.2014 2.2402 7.5483 1.70781 7.98093 1.18495C8.011 1.14835 8.05311 1.12329 8.09973 1.11376L9.14545 0.906225C9.22416 0.890685 9.30437 0.921766 9.35199 0.986434C9.94554 1.79454 10.2443 2.74952 10.2443 3.85213V10.4501C10.2443 11.1232 10.2659 11.5795 10.312 11.8185C10.3526 12.0259 10.4428 12.2063 10.5812 12.3566C10.8559 12.6442 11.3156 12.7728 11.9507 12.7728H12.3964V11.9187C12.3964 11.8373 12.4445 11.7635 12.5192 11.7303C12.5934 11.6972 12.6807 11.7111 12.7408 11.7656L14.4172 13.2772C14.4613 13.3167 14.4858 13.3731 14.4853 13.432C14.4848 13.491 14.4593 13.547 14.4147 13.5857L12.7383 15.0472C12.6771 15.1003 12.5909 15.1129 12.5172 15.0794C12.444 15.046 12.3964 14.9726 12.3964 14.8918V14.0663H11.6284C10.6283 14.0663 9.90593 13.7901 9.45225 13.2641C9.0071 12.7482 8.77148 11.9271 8.77148 10.794V4.40372C8.77148 3.55642 8.67774 2.90593 8.47722 2.45525C7.81098 3.29775 7.34076 4.32552 7.06354 5.53757V11.9187C7.06354 12.0326 6.9713 12.1249 6.8575 12.1249H5.79724C5.68345 12.1249 5.59071 12.0326 5.59071 11.9187V4.78346C5.59071 3.74867 5.49396 2.9741 5.28642 2.46177C4.65427 3.24546 4.18706 4.19362 3.88277 5.30547V11.9187C3.88277 12.0326 3.79052 12.1249 3.67673 12.1249H2.61647C2.50217 12.1249 2.40993 12.0326 2.40993 11.9187V4.35359C2.40993 3.14615 2.13021 2.17502 1.55822 1.44312C1.50959 1.38096 1.50107 1.29674 1.53566 1.22556C1.57025 1.15487 1.64193 1.10975 1.72064 1.10975H2.86011C2.92929 1.10975 2.99395 1.14485 3.03205 1.203C3.34036 1.67272 3.57546 2.18956 3.73688 2.75453Z" fill="currentColor" />
</svg>
