<svg width="16" height="16" viewBox="0 0 16 16" fill="none" xmlns="http://www.w3.org/2000/svg">
<path d="M9.799 10.4153C9.48972 10.4153 9.48763 11.4026 9.48763 12.2724C9.48763 13.1422 9.48972 14.1253 9.799 14.1253C10.1082 14.1253 10.1953 13.4336 10.1953 12.5638C10.1953 11.694 10.1082 10.4153 9.799 10.4153ZM14.659 0.789253C14.659 0.789253 10.6621 3.36259 10.2241 2.54132C9.78604 1.72004 9.34803 0.679752 8.80051 1.17252C8.45517 1.48322 9.29328 3.25309 9.07427 4.95039C8.85522 6.6477 8.47196 9.71381 5.89862 9.76856C3.32526 9.82331 2.44921 8.23551 2.83248 5.93593C3.21575 3.63635 4.69408 3.80061 5.24159 5.33366C5.78911 6.86671 7.15791 5.22415 6.39138 4.07437C5.62486 2.92458 3.54426 1.72003 2.17545 3.5816C0.80664 5.44316 1.0804 6.6477 1.57318 8.18076C2.06594 9.71381 3.87278 10.0971 4.25605 11.6301C4.63932 13.1631 4.69408 15.6818 5.18684 15.1342C5.67961 14.5867 4.96784 11.8491 5.40585 11.7396C5.84387 11.6301 5.62486 14.5867 6.39138 14.6962C7.15791 14.8057 6.5304 11.8268 6.92662 11.461C7.46781 10.9615 10.6621 9.22104 11.0453 9.93282C11.4286 10.6446 11.4834 13.7107 12.0309 13.7654C12.5784 13.8202 11.5929 7.14047 12.1951 5.66217C12.7974 4.18387 14.2757 4.01961 14.659 2.97933C15.0423 1.93904 14.659 0.789253 14.659 0.789253ZM11.1822 4.12912C10.895 4.12912 10.6621 3.89631 10.6621 3.60875C10.6621 3.32164 10.895 3.08883 11.1822 3.08883C11.4695 3.08883 11.7024 3.32164 11.7024 3.60875C11.7024 3.89631 11.4695 4.12912 11.1822 4.12912Z" fill="currentColor" />
</svg>
