<svg width="16" height="16" viewBox="0 0 16 16" fill="none" xmlns="http://www.w3.org/2000/svg">
<path fill-rule="evenodd" clip-rule="evenodd" d="M8.56844 4.61885L7.54241 2.31359C10.7853 1.2932 13.3021 2.82308 13.3021 6.02902H8.44054L8.56844 4.61885ZM11.2159 9.39782C10.9928 9.39782 10.6987 9.39782 10.3633 9.39782L7.55093 6.74872H13.3334C13.3334 8.32175 12.323 9.39782 11.2088 9.39782H11.2159ZM11.2074 10.3403C13.6332 10.3403 13.6943 14 11.3765 14C9.49072 14 8.99334 12.2794 9.63283 11.1978L8.63807 10.2233L7.60636 11.2354C8.21601 12.3184 7.73852 13.9986 6.16821 13.9986C3.41698 13.9986 3.61878 10.3389 5.9991 10.3389C6.24729 10.3373 6.49358 10.3812 6.72528 10.4683L7.82663 9.42984C6.98676 9.43958 6.20943 9.44654 5.73478 9.44654C4.16163 9.44654 3.57472 8.15192 3.57472 6.74872H5.07824L2.91534 4.63138C2.10532 3.83512 3.46956 3.08201 4.22132 3.44255L4.26111 4.49496L10.4599 10.4809C10.6948 10.3865 10.9464 10.3387 11.2003 10.3403H11.2074ZM6.06874 12.9337C7.03508 12.9337 7.0095 11.4024 5.9991 11.4024C4.98871 11.4024 4.92334 12.9337 6.06874 12.9337ZM11.277 12.9337C12.2434 12.9337 12.2178 11.4024 11.2074 11.4024C10.197 11.4024 10.1316 12.9337 11.277 12.9337Z" fill="currentColor"/>
</svg>
