<svg width="16" height="16" viewBox="0 0 16 16" fill="none" xmlns="http://www.w3.org/2000/svg">
<path fill-rule="evenodd" clip-rule="evenodd" d="M10.824 4.1596L7.42624 3.67969C7.37149 3.67198 7.32214 3.64258 7.28921 3.59813C7.25632 3.55369 7.24265 3.49788 7.25125 3.44326L7.41618 2.39636C7.4337 2.28512 7.53711 2.20847 7.64864 2.22408L12.876 2.95547C12.9673 2.96825 13.039 3.03999 13.0518 3.13128L13.7832 8.35865C13.7988 8.47013 13.7221 8.57354 13.6109 8.59106L12.564 8.756C12.5094 8.76459 12.4536 8.75093 12.4091 8.71804C12.3647 8.68515 12.3353 8.63575 12.3276 8.58101L11.8476 5.18331L7.50305 9.53443L9.60878 11.6402C9.64763 11.679 9.66936 11.7317 9.66924 11.7866C9.66912 11.8415 9.6471 11.8941 9.60809 11.9327L8.85516 12.6785C8.77446 12.7584 8.64436 12.7581 8.56402 12.6778L6.45805 10.5718L3.29833 13.7178C3.2177 13.7981 3.08728 13.798 3.00682 13.7175L2.27543 12.9861C2.23666 12.9473 2.21493 12.8947 2.21497 12.8399C2.21505 12.7851 2.23691 12.7326 2.27572 12.6939L5.43483 9.54854L3.32951 7.44322C3.24917 7.36288 3.24885 7.23279 3.32878 7.15208L4.07453 6.39916C4.11318 6.36015 4.16578 6.33817 4.22065 6.338C4.27556 6.33788 4.32828 6.35962 4.36709 6.39847L6.47285 8.5042L10.824 4.1596Z" fill="currentColor"/>
</svg>
