<svg width="16" height="16" viewBox="0 0 16 16" fill="none" xmlns="http://www.w3.org/2000/svg">
<path d="M4.79102 4.55246C4.79102 4.55246 3.73754 4.03399 3.54935 4.4373C3.36075 4.84056 3.56449 5.59906 3.56449 5.59906L4.79102 4.55246ZM14.9273 4.28093C14.823 4.25111 14.699 4.27042 14.6888 4.35535C14.6789 4.43971 14.7685 4.51908 14.8974 4.56375C15.1981 4.66787 15.3388 4.91608 15.291 5.23892C15.2726 5.36419 15.1826 5.46319 15.0913 5.54383C15.0909 5.37266 15.03 5.18205 14.917 5.02528C14.7722 4.82366 14.4895 4.68812 14.2621 4.71758C13.9941 4.75236 13.7261 4.97565 13.767 5.32688C13.1403 4.34042 11.9956 3.47027 10.0731 3.21817C7.13566 2.83303 4.98453 4.45861 3.08705 6.94485C2.53679 7.66592 1.523 8.59154 0.390564 8.68482C0.766542 9.26601 1.45181 10.1934 1.45181 10.1934L3.43971 9.6246L2.8694 10.5795C2.8694 10.5795 3.0175 10.4371 4.98944 10.5451C5.23654 10.5587 6.06132 10.6348 6.27079 10.65C6.27161 11.6342 5.66407 12.8989 5.92304 12.6797C6.27365 12.3828 6.5269 12.1815 6.62754 12.5968C6.79364 13.2809 7.64338 11.9749 8.23087 10.7612C8.76926 10.7865 9.00246 10.8328 9.88779 10.8062C10.6107 10.7845 11.1479 10.6853 11.6527 10.601C11.6261 11.4802 11.0088 12.8163 11.1237 12.7678C11.5963 12.5684 11.7824 12.1351 11.9326 12.6194C12.3032 13.8128 14.4286 9.90047 14.2109 6.31952C14.3934 6.42908 14.701 6.4177 14.8557 6.27083C14.9666 6.16557 15.0296 6.05645 15.0705 5.92791C15.3094 5.86392 15.5258 5.60626 15.5876 5.33449C15.6964 4.85656 15.3863 4.41209 14.9273 4.28093V4.28093ZM3.90814 8.78379C3.60826 8.79279 3.35829 8.55926 3.34929 8.26212C3.34029 7.96506 3.57594 7.71689 3.87583 7.70793C4.1753 7.69893 4.42568 7.9325 4.43427 8.22956C4.44327 8.52666 4.20762 8.77479 3.90814 8.78379ZM14.7951 5.70089C14.7235 5.77956 14.3913 5.94828 14.1234 5.58106C14.0354 5.46086 13.9826 5.0801 14.2968 5.03518C14.4359 5.01533 14.5705 5.08652 14.6691 5.22378C14.7837 5.38313 14.818 5.6158 14.7951 5.70089Z" fill="currentColor"  />
</svg>
