<svg width="16" height="16" viewBox="0 0 16 16" fill="none" xmlns="http://www.w3.org/2000/svg">
<path fill-rule="evenodd" clip-rule="evenodd" d="M14.6715 14.1304C13.7695 15.0776 12.372 14.0187 12.6382 13.0358L11.0278 11.6761L8.95745 12.7186L8.52268 12.0127L9.45728 11.0476L8.08939 9.68199L6.83832 10.9464L7.32189 11.8116C6.10484 13.0313 4.58019 12.1944 4.58019 12.1944L3.03189 13.5645L3.25075 14.0113C1.88582 15.3635 0.145268 13.5645 1.47619 12.2405L1.90504 12.4386L3.26702 10.863C3.26702 10.863 2.50839 9.16819 3.60862 8.07806L4.45006 8.57249L5.76915 7.36768L2.1239 3.73389L1.87251 1.5L4.10698 1.59233L7.97552 5.35271L11.6222 2.02273L14.1362 1.62063L13.7665 3.96175L10.2307 7.53597L11.5941 8.85992L12.3794 8.04976L13.101 8.49654L12.1147 10.3864L13.5935 12.1601C14.602 11.9472 15.5071 13.2532 14.6715 14.1304ZM12.8245 3.88133L13.2992 2.46802L11.8441 2.88203C11.8441 2.88203 5.86823 8.62015 5.18946 9.24415C4.51069 9.86815 5.5355 11.0119 6.303 10.2732C7.07049 9.53455 12.8245 3.88133 12.8245 3.88133Z" fill="currentColor"/>
</svg>
