<svg width="16" height="16" viewBox="0 0 16 16" fill="none" xmlns="http://www.w3.org/2000/svg">
<path fill-rule="evenodd" clip-rule="evenodd" d="M5.7348 6.41271C5.44335 6.26262 5.19634 6.08736 4.99319 5.88741C4.71814 5.61726 4.41192 5.18346 4.07825 4.5836C4.07825 4.5836 3.69374 3.89273 3.69393 3.89321C3.2674 3.1302 2.80407 2.72642 2.26798 2.72642H2.09199C1.97976 2.72642 1.88879 2.6354 1.88879 2.52308V1.79976C1.88879 1.68744 1.97976 1.59642 2.09199 1.59642H2.56781C3.4737 1.59642 4.31049 2.21081 5.04451 3.48411C5.04456 3.48411 5.0446 3.48411 5.0447 3.48411C5.0447 3.48411 5.57261 4.40302 5.57227 4.40253C5.90391 4.97576 6.24596 5.37954 6.60626 5.60661C6.96076 5.83028 7.42733 5.93728 8.00341 5.93728C8.57558 5.93728 9.04108 5.83028 9.39776 5.60661C9.75999 5.37906 10.103 4.97576 10.4342 4.40302C10.4342 4.40302 10.9621 3.48411 10.9623 3.48411C11.6964 2.21081 12.5311 1.59642 13.4325 1.59642H13.9083C14.0205 1.59642 14.1115 1.68744 14.1115 1.79976V2.52308C14.1115 2.6354 14.0205 2.72642 13.9083 2.72642H13.7388C13.1987 2.72642 12.733 3.12971 12.3066 3.89273C12.3066 3.89273 11.922 4.5836 11.922 4.5836C11.5884 5.18346 11.2821 5.61726 11.0071 5.88741C10.8039 6.08736 10.5569 6.26262 10.2655 6.41271C10.874 6.80584 11.3555 7.28659 11.7113 7.85401C12.1338 8.52794 12.3452 9.26627 12.3452 10.0704C12.3452 11.229 11.9145 12.238 11.0501 13.0954C10.1862 13.9523 9.17035 14.3798 8.00341 14.3798C6.83657 14.3798 5.81967 13.9523 4.95363 13.0954C4.08691 12.238 3.65506 11.229 3.65506 10.0704C3.65506 9.26627 3.86648 8.52794 4.28895 7.85401C4.64475 7.28659 5.12633 6.80584 5.7348 6.41271ZM8.00341 13.0087C7.18133 13.0087 6.47923 12.7231 5.89723 12.1513C5.31669 11.581 5.02601 10.894 5.02601 10.0898C5.02601 9.27304 5.31548 8.57829 5.89452 8.00555C6.47434 7.43184 7.17741 7.14522 8.00341 7.14522C8.82922 7.14522 9.53114 7.43135 10.1088 8.00507C10.6859 8.5783 10.9742 9.27304 10.9742 10.0898C10.9742 10.894 10.6836 11.581 10.103 12.1513C9.52112 12.7231 8.82128 13.0087 8.00341 13.0087Z" fill="currentColor" />
</svg>
