<svg width="16" height="16" viewBox="0 0 16 16" fill="none" xmlns="http://www.w3.org/2000/svg">
<path d="M14.1523 9.15107C13.4847 8.74503 13.7084 8.04504 13.54 6.97113C13.4868 6.63412 13.2869 6.31906 12.9789 6.07998C12.885 5.45394 12.3376 5.35809 10.9077 4.85408C9.47334 4.34848 9.42221 2.58215 10.1961 2.03441C10.9705 1.48663 12.6152 1.68273 12.9569 2.56756C13.2985 3.45239 12.6152 3.59986 12.6152 3.59986C12.6152 3.59986 12.1601 2.52546 11.4768 2.9889C10.9431 3.35106 11.2947 4.1055 12.1601 4.29507C13.025 4.48469 13.73 3.90378 13.7994 3.00944C13.8813 1.95897 13.3438 0.966493 11.3176 0.945419C9.29087 0.924346 8.5186 2.76342 9.01945 4.04855C9.52031 5.33365 11.4086 5.64339 11.4086 5.64339C11.4123 5.64356 11.4161 5.64381 11.4198 5.64397C11.1351 5.66072 10.6288 5.48844 10.1833 5.71114C8.67446 6.46554 9.01363 8.13881 7.48821 8.37352C6.04051 8.59622 5.89795 7.81331 5.89795 7.81331L6.85019 7.5281L6.56381 6.40918C6.35391 7.18515 5.54714 7.23781 5.15269 6.94C4.75866 6.64219 4.70088 5.99 5.15394 5.62801C5.91332 5.0215 7.01645 6.02504 7.01645 6.02504C7.01645 6.02504 7.12452 3.61013 7.02767 3.60178C6.76831 3.57946 4.26778 3.78404 3.51671 3.73378C2.4036 3.65938 2.32754 2.87086 2.32754 2.87086C2.02038 2.58648 1.53989 4.1343 1.63882 6.61035C1.77349 9.9923 2.77395 10.4789 3.25734 10.8036C3.74074 11.1284 3.74989 11.4836 3.08402 11.8153C2.41815 12.1471 2.21532 11.7124 1.54945 12.2338C0.883171 12.7552 1.13713 14.0905 1.5985 14.2327C2.05945 14.3749 1.91854 13.7489 2.12346 13.1327C2.32837 12.5165 3.28852 12.3709 4.26196 12.3709C5.2354 12.3709 5.62819 11.7279 5.62819 11.7279C5.86054 13.359 4.40744 12.4565 3.77648 13.1617C3.13514 13.8782 3.33091 15.0547 3.85047 15.0547C4.64394 15.0547 4.00592 14.5315 4.46688 13.868C4.92824 13.2044 6.39963 13.6831 7.11704 13.1617C7.83403 12.6403 7.9554 11.8058 7.9554 11.8058C12.274 11.6897 12.9074 9.9696 12.9074 9.9696C12.9074 9.9696 13.841 11.4055 12.1784 11.4886C10.7577 11.5596 10.3549 11.8739 10.1833 12.8187C10.017 13.7331 10.9759 13.8979 11.1808 13.2343C11.3857 12.5707 11.4539 12.1742 12.8226 12.185C13.6934 12.1919 14.1165 11.9198 14.5775 10.9718C15.0388 10.0238 14.9486 9.63555 14.1523 9.15107ZM4.88169 4.86638C4.65849 4.86638 4.47768 4.699 4.47768 4.49251C4.47768 4.28605 4.65849 4.11871 4.88169 4.11871C5.10489 4.11871 5.2857 4.28605 5.2857 4.49251C5.2857 4.699 5.10489 4.86638 4.88169 4.86638Z" fill="currentColor"/>
</svg>
