<svg width="24" height="20" viewBox="0 0 24 20" fill="none" xmlns="http://www.w3.org/2000/svg">
<path fill-rule="evenodd" clip-rule="evenodd" d="M9.57144 8.42857C9.57144 7.08942 10.6609 6 12 6V6.00002C13.3394 6.00002 14.4286 7.08949 14.4286 8.42859C14.4286 9.43819 13.8386 10.0289 13.3639 10.5042L13.3629 10.5052C12.948 10.9189 12.7143 11.1726 12.7143 11.5717V11.7715C12.7143 11.8503 12.65 11.9143 12.5714 11.9143H11.4286C11.3498 11.9143 11.2857 11.8503 11.2857 11.7715V11.5717C11.2857 10.5611 11.8765 9.96997 12.352 9.49484C12.7663 9.08112 13 8.82743 13 8.42857C13 7.87717 12.5514 7.42857 12 7.42857C11.4486 7.42857 11 7.87717 11 8.42857C11 8.5074 10.936 8.57143 10.8572 8.57143H9.7143C9.63547 8.57143 9.57144 8.5074 9.57144 8.42857ZM12 14C12.4734 14 12.8572 13.6163 12.8572 13.1429C12.8572 12.6695 12.4734 12.2857 12 12.2857C11.5266 12.2857 11.1429 12.6695 11.1429 13.1429C11.1429 13.6163 11.5266 14 12 14Z" fill="currentColor"/>
</svg>
