<svg width="16" height="16" viewBox="0 0 16 16" fill="none" xmlns="http://www.w3.org/2000/svg">
<path fill-rule="evenodd" clip-rule="evenodd" d="M1.93054 12.9039C1.93054 13.0209 2.02549 13.1158 2.14251 13.1158H13.8575C13.9745 13.1158 14.0695 13.0209 14.0695 12.9039V11.8141C14.0695 11.6971 13.9745 11.6021 13.8575 11.6021H2.14251C2.02549 11.6021 1.93054 11.6971 1.93054 11.8141V12.9039ZM4.92634 8.33317C4.50366 7.77932 4.29419 7.17175 4.29419 6.51255C4.29419 5.52144 4.65982 4.66776 5.39274 3.95317C6.12399 3.24024 6.99433 2.8842 8.00375 2.8842C9.01317 2.8842 9.88351 3.24024 10.6148 3.95317C11.3477 4.66776 11.7129 5.52144 11.7129 6.51255C11.7129 7.17175 11.5038 7.77932 11.0812 8.33317H13.8575C13.9745 8.33317 14.0695 8.4277 14.0695 8.54472V9.63452C14.0695 9.75153 13.9745 9.84648 13.8575 9.84648H9.22597C9.10895 9.84648 9.01401 9.75153 9.01401 9.63452V8.61843C9.01401 8.54639 9.05065 8.47934 9.11103 8.44061C9.83395 7.9738 10.1996 7.34999 10.1996 6.56418C10.1996 5.97452 9.98179 5.46689 9.5487 5.04005C9.11395 4.61238 8.59924 4.39792 8.00375 4.39792C7.40368 4.39792 6.88772 4.61196 6.45546 5.03963C6.02446 5.46647 5.80791 5.97452 5.80791 6.56418C5.80791 7.34999 6.17104 7.9738 6.88938 8.44103C6.94976 8.47976 6.98599 8.5468 6.98599 8.61843V9.63452C6.98599 9.75153 6.89105 9.84648 6.77403 9.84648H2.14251C2.02549 9.84648 1.93054 9.75153 1.93054 9.63452V8.54472C1.93054 8.4277 2.02549 8.33317 2.14251 8.33317H4.92634Z" fill="currentColor" />
</svg>
