<svg width="16" height="16" viewBox="0 0 16 16" fill="none" xmlns="http://www.w3.org/2000/svg">
<path fill-rule="evenodd" clip-rule="evenodd" d="M11.7199 8.25381L12.4586 6.50075L13.6562 6.90575L12.8272 9.98808L9.86103 13.1702L9.95713 14.6297L5.86788 14.6846L5.88796 12.1418L4.38622 9.09419L2.77405 7.65789L2.34375 5.21343L3.5787 5.14255L3.98748 6.71337L5.03884 7.51324L5.19662 7.41489L4.10653 4.38752L4.59277 1.90256L5.86931 2.14122L5.64556 3.9912L6.64959 6.78714C6.76146 6.75098 6.87334 6.71771 6.98235 6.68733L6.63811 3.95648L8.08391 1.31531L9.24428 1.94016L8.20296 4.08521L8.55867 6.34309C8.71931 6.3185 8.81398 6.30837 8.81398 6.30837L9.41066 3.99409L12.0254 2.98159L12.5231 4.08377L10.5725 5.51284L10.6184 8.42594L11.7199 8.25381Z" fill="currentColor"/>
</svg>
