<svg width="16" height="16" viewBox="0 0 16 16" fill="none" xmlns="http://www.w3.org/2000/svg">
<path fill-rule="evenodd" clip-rule="evenodd" d="M4.80154 10.7905L1.80867 12.7579C1.71045 12.8223 1.57864 12.7956 1.51358 12.6978L1.00903 11.9408C0.977549 11.8935 0.966217 11.8357 0.977131 11.78C0.988464 11.7244 1.02162 11.6755 1.06906 11.6442L5.18814 8.92027C5.24102 8.88539 5.30651 8.87565 5.36695 8.89378C5.42782 8.91192 5.47735 8.95599 5.50212 9.01413L6.30679 10.8873L9.28497 8.92023C9.33828 8.88522 9.40376 8.87561 9.46463 8.89399C9.52549 8.91238 9.57502 8.95683 9.59979 9.0153L10.3902 10.8864L13.3671 8.92023C13.42 8.88526 13.4859 8.87565 13.5463 8.89391C13.6072 8.91217 13.6567 8.95645 13.6815 9.01475L15.0025 12.1171C15.0482 12.2246 14.9991 12.3488 14.8925 12.3961L14.0391 12.7746C13.9867 12.7979 13.9271 12.7991 13.8738 12.7778C13.8204 12.7566 13.7776 12.7149 13.7554 12.6619L12.9717 10.7913L9.98051 12.7579C9.9272 12.7927 9.86172 12.8022 9.80085 12.7838C9.74041 12.7653 9.69088 12.7209 9.66611 12.6625L8.87571 10.7919L5.9139 12.7574C5.86101 12.7924 5.79511 12.8022 5.73466 12.784C5.6738 12.7658 5.62427 12.7215 5.59908 12.6631L4.80154 10.7905ZM4.80825 5.11307L1.81622 7.08001C1.718 7.14453 1.5862 7.11774 1.52113 7.02003L1.01659 6.26299C0.985104 6.21573 0.973352 6.15789 0.984686 6.10223C0.996019 6.04657 1.02876 5.99767 1.07619 5.96631L5.19569 3.24246C5.24816 3.20754 5.31406 3.19784 5.37451 3.21597C5.43495 3.23411 5.48449 3.27818 5.50967 3.33632L6.31435 5.20944L9.29253 3.24238C9.34542 3.20741 9.41132 3.1978 9.47218 3.21618C9.53305 3.23457 9.58216 3.27902 9.60692 3.33749L10.3977 5.2086L13.3747 3.24238C13.4276 3.20745 13.493 3.19784 13.5539 3.2161C13.6148 3.23436 13.6639 3.27864 13.6891 3.33695L15.01 6.43933C15.0558 6.54675 15.0067 6.67095 14.9001 6.71826L14.0467 7.0968C13.9938 7.1201 13.9342 7.12123 13.8809 7.10003C13.8276 7.07883 13.7852 7.03703 13.7629 6.98409L12.9788 5.11324L9.98009 7.08013C9.9272 7.11489 9.8613 7.12434 9.80085 7.10591C9.74041 7.08744 9.69088 7.04307 9.66611 6.98468L8.87571 5.11407L5.9139 7.0795C5.86101 7.11468 5.79511 7.12438 5.73424 7.10608C5.67338 7.08773 5.62385 7.04324 5.59908 6.98468L4.80825 5.11307Z" fill="currentColor" />
</svg>
