<svg width="16" height="16" viewBox="0 0 16 16" fill="none" xmlns="http://www.w3.org/2000/svg">
<path fill-rule="evenodd" clip-rule="evenodd" d="M6.27421 8.00518C4.34457 6.3245 2.61838 4.82497 2.31793 4.57602C1.61943 3.99535 3.08078 2.10362 3.95972 2.88497C4.34299 3.22569 6.0889 4.77616 8 6.47298C9.91109 4.77616 11.657 3.22569 12.0403 2.88497C12.9192 2.10362 14.3806 3.99535 13.6821 4.57602C13.3816 4.82497 11.6554 6.3245 9.72578 8.00518C11.618 9.68499 13.3196 11.1953 13.6533 11.4904C14.4228 12.171 12.905 13.7944 12.1763 13.1552C11.8526 12.8714 10.0099 11.2618 8 9.5092C5.99009 11.2618 4.14738 12.8714 3.82372 13.1552C3.09495 13.7944 1.57718 12.171 2.34672 11.4904C2.68041 11.1953 4.38204 9.68499 6.27421 8.00518ZM2.97923 11.9189L10.6086 5.14937L12.4494 3.52454L12.9725 4.12951L11.149 5.73482L3.47987 12.4689L2.97923 11.9189Z" fill="currentColor"/>
</svg>
