<svg width="65" height="65" viewBox="0 0 65 65" fill="none" xmlns="http://www.w3.org/2000/svg">
<path d="M30.62 63.2844C33.3248 61.3817 34.2216 57.4088 31.9052 54.7455C31.2368 53.9767 31.6051 53.7593 31.4101 52.6829C31.3427 52.3098 31.2488 51.943 31.1253 51.5882C32.1111 51.1754 33.134 50.9747 34.1033 50.456C35.5738 49.6693 36.941 48.4428 37.8647 47.0573C39.4131 44.7349 39.8158 41.8168 38.9168 39.1632C38.8292 38.9042 38.7259 38.6452 38.6125 38.3881C38.6698 38.3492 38.724 38.2986 38.7704 38.2256C39.1679 37.6051 39.0538 36.5991 38.8053 35.7716C39.2102 32.9881 41.6201 30.8514 44.2482 30.2133C45.9149 29.8087 48.0314 30.1542 49.2668 31.448C50.0898 32.3099 50.3814 33.5495 51.1142 34.477C51.1412 34.5114 51.1756 34.5339 51.2093 34.5574C51.2198 34.5675 51.231 34.5761 51.2422 34.5851C51.2437 34.5863 51.2452 34.5881 51.2475 34.5892C51.4615 34.7667 51.7464 34.7865 52.1614 34.7131C52.9425 34.5754 53.5945 33.9882 54.3655 33.7939C55.6818 33.4627 57.5153 33.932 58.1464 35.2708C58.5693 36.1687 57.9892 37.3375 58.4188 38.2036C58.6591 38.6875 59.1026 38.93 59.4099 39.3784C59.9507 40.1662 60.0054 40.8583 59.8126 41.7928C59.7523 42.0855 58.8908 43.8356 58.1696 44.0496C57.4678 43.7652 57.7915 42.1341 57.5251 41.4414C57.3174 40.9017 56.9944 40.4971 56.5965 40.1939C54.4684 37.9457 50.4398 38.3185 47.891 39.5345C44.6899 41.0619 42.0404 43.0855 40.0542 46.0636C38.026 49.1056 36.9335 52.6807 37.2779 56.3605C37.4474 58.1723 37.9602 61.1459 39.5811 62.5075C37.2872 63.0475 34.899 63.3417 32.4404 63.3417C31.8289 63.3417 31.2229 63.3193 30.62 63.2844ZM10.094 53.8398C10.0906 53.8173 10.0887 53.7952 10.0823 53.7717C9.25484 50.66 10.1995 46.8129 12.2943 44.3322C13.4515 42.962 15.2199 41.8635 16.9532 41.4013C17.8432 41.164 19.4582 40.8964 20.4294 41.3456C20.4328 41.3706 20.4358 41.3957 20.4395 41.4204C17.7904 40.5068 14.7764 42.6892 13.4598 44.94C11.844 47.7025 10.771 52.422 12.1012 55.7433C11.4039 55.1381 10.7343 54.5037 10.094 53.8398ZM2.38326 24.4559C3.40165 23.6561 5.0997 23.5502 6.17535 24.0873C7.02083 24.5094 7.31426 25.1191 8.25105 25.0248C8.67248 24.9821 8.94906 24.707 9.41391 24.9193C9.7994 25.0952 10.4742 26.1199 10.1093 26.6259C10.1018 26.636 10.0898 26.6446 10.0812 26.654C10.07 26.6491 10.0629 26.6413 10.0509 26.6372C6.36735 25.4526 3.23285 29.2877 2.74368 32.5877C2.18752 36.333 4.44286 41.5319 7.75215 43.483C7.77461 43.4961 7.79706 43.5055 7.81914 43.5137C6.78691 44.9299 5.97999 46.6531 5.90064 48.42C3.03636 43.718 1.38583 38.1953 1.38583 32.2867C1.38583 29.5815 1.73316 26.9575 2.38326 24.4559ZM23.0107 2.69404C22.3965 3.25694 21.8733 3.95084 21.416 4.81989C20.7348 6.11449 20.4256 7.20773 19.1449 8.03898C18.0124 8.77404 17.0535 9.80852 16.4427 11.0185C15.678 10.1749 14.5182 9.81825 13.349 10.3725C11.9604 11.0316 11.7658 12.3726 11.4529 13.6579C9.85592 13.4124 8.21437 13.8083 6.87823 14.6579C10.7437 9.06373 16.3944 4.8008 23.0107 2.69404ZM33.954 1.27032C33.9671 1.27257 33.9776 1.2793 33.9918 1.28043C35.8276 1.39533 37.7315 2.11168 38.69 3.78803C39.1956 4.67318 39.1264 5.69942 39.9726 6.23874C40.848 6.7964 41.5906 6.683 42.3163 7.57863C42.7673 8.13554 43.1468 8.92075 43.298 9.61577C43.6097 11.0462 43.3107 12.4823 42.5012 13.6931C42.0142 14.421 41.4364 14.8252 41.3181 13.6328C41.2758 13.2035 41.5176 12.8135 41.4132 12.3599C41.4109 12.3494 41.406 12.3405 41.4038 12.33C41.3566 10.9384 41.2152 9.61465 40.1459 8.55622C38.8026 7.22681 36.7311 6.54864 34.8788 6.47378C33.1594 6.40454 31.4494 6.7208 29.9864 7.64824C29.2273 8.12918 28.4795 8.71715 27.8923 9.39383C27.5862 9.74677 27.3414 10.2333 27.0416 10.6274C25.9165 11.2379 25.0393 12.3816 24.461 13.5179C24.0965 14.2335 23.8865 14.7601 23.2252 15.2463C22.815 15.5479 22.3737 15.7411 21.9826 16.0816C21.1472 16.8081 20.5192 17.7393 20.1801 18.794C19.6367 20.4853 19.621 22.4427 20.6079 23.9166C20.1944 23.7972 19.7703 23.6074 19.3773 23.5966C18.317 23.5678 17.2934 24.0884 16.4756 24.7565C15.7057 23.9106 15.656 22.4195 15.8873 21.266C15.9258 21.1867 15.9483 21.0972 15.9475 20.9977C15.9674 20.9187 15.9879 20.842 16.01 20.7679C16.2361 20.0066 16.6332 19.2985 17.1583 18.7053C17.4188 18.4115 17.9027 18.1345 18.0794 17.7876C18.5015 16.9571 17.7758 16.2149 17.5284 15.4574C17.0142 13.8813 17.2825 12.269 18.2339 10.9216C19.0734 9.73254 20.2576 9.45521 21.2693 8.56408C21.9998 7.92108 22.1671 6.79079 22.5856 5.94569C23.4722 4.15556 24.4539 3.05446 25.8982 1.92829C28.008 1.4758 30.1956 1.23215 32.4404 1.23215C32.9483 1.23215 33.4521 1.24637 33.954 1.27032ZM56.3622 12.4849C55.3139 11.7012 54.0814 11.2158 52.8003 11.212C52.5024 11.2113 51.7621 11.462 51.4933 11.3861C51.4765 11.3812 50.6516 10.4365 50.7463 10.5312C50.0633 9.84857 49.3406 9.58995 48.3633 9.46532C46.9231 9.28118 45.5762 9.73816 44.505 10.6214C44.4709 9.3055 44.0229 8.01989 43.213 6.97306C42.8676 6.52656 42.4765 6.17512 42 5.87683C41.6426 5.65339 40.3218 5.31355 40.3311 5.32104C40.2619 5.26452 39.6728 3.4845 39.3547 3.03949C39.0309 2.58625 38.6585 2.22995 38.2206 1.89385C38.145 1.83622 38.0664 1.78868 37.9897 1.73629C45.337 3.06232 51.7879 6.96482 56.3622 12.4849ZM55.1485 32.3463C55.086 32.0581 55.129 31.5034 55.1395 31.2979C55.1806 30.4977 55.4479 29.9045 55.9696 29.3143C56.3899 28.8394 56.9622 28.3704 57.5659 28.1724C56.4423 29.0205 56.205 31.0019 56.4707 32.402C56.0512 32.3167 55.6152 32.298 55.1485 32.3463ZM53.6495 32.7538C53.4867 32.3159 53.3014 31.8896 53.2898 31.3885C53.2693 30.494 53.5279 29.6294 53.9804 28.8644C54.4591 28.0549 55.0096 27.5414 55.8959 27.2405C56.7413 26.9538 58.0142 27.0488 58.8084 27.6544C58.4308 27.532 58.018 27.5032 57.5988 27.5481C56.7866 27.6346 56.1975 28.2012 55.6361 28.7585C54.9864 29.4026 54.6395 30.0452 54.5111 30.9487C54.4576 31.3241 54.3741 31.9671 54.4965 32.4612C54.2906 32.5214 53.9852 32.6277 53.6495 32.7538ZM52.0076 33.4646C51.8579 32.8021 51.6049 32.1876 51.2665 31.6336C51.0865 30.0681 50.7175 28.5152 50.6711 26.9077C50.6269 25.3841 50.8096 23.8631 51.3021 22.415C51.6861 21.2847 53.5196 18.1412 55.1309 19.2858C55.1238 19.3947 55.1136 19.5058 55.0916 19.6256C54.8303 21.0123 54.9187 22.3873 56.7986 22.4543C57.2953 22.4723 57.7006 22.3095 58.0348 22.0408C58.0446 22.0452 58.0509 22.0531 58.0618 22.0568C59.3347 22.5105 60.1857 24.1988 59.6487 25.5218C59.5839 25.6801 59.6902 25.9028 59.8351 25.9799C60.6199 26.3984 61.1573 26.8456 61.3815 27.6739C61.4826 28.0463 61.1903 29.8839 60.5087 29.5834C60.4204 29.5445 60.2808 28.8618 60.2164 28.7432C60.1173 28.5598 59.9979 28.3981 59.8631 28.26C59.0783 26.3565 56.0067 26.4182 54.5594 27.5294C53.1521 28.6103 52.0151 31.2859 52.8093 33.0881C52.4724 33.2299 52.1798 33.3654 52.0076 33.4646ZM49.6385 29.8596C49.2339 27.5736 48.9554 25.2744 49.5116 22.9768C50.0992 20.547 51.9099 16.7696 54.8236 18.1248C54.9003 18.2251 54.9654 18.3359 55.0156 18.4601C53.029 17.7524 50.9978 21.2469 50.5131 22.8054C49.9072 24.7553 49.8058 26.8018 49.9667 28.8289C49.9955 29.1897 50.0277 29.7054 50.1014 30.2365C49.9532 30.104 49.7983 29.9786 49.6385 29.8596ZM48.0078 28.9711C46.9052 26.441 47.0377 23.8084 48.2956 21.2653C48.9438 19.9546 49.9177 18.5294 51.2606 17.8613C51.536 17.7243 51.8332 17.6206 52.1352 17.5465C50.9566 18.1596 49.988 19.4609 49.3196 20.8442C48.0452 23.4821 47.8266 26.4901 48.6497 29.2548C48.4408 29.15 48.2275 29.0538 48.0078 28.9711ZM44.8063 28.5796C44.3968 28.6283 44.0035 28.7091 43.6213 28.8079C42.9787 28.5006 42.4832 27.9059 42.061 27.2614C41.8088 26.8759 41.4476 26.4017 41.5052 25.9062C41.5936 25.1472 42.3122 25.0461 42.9634 25.1502C43.0165 25.1584 43.0659 25.1565 43.1131 25.1498C43.8422 25.2299 44.4537 24.8904 44.4387 23.7927C44.4167 22.1946 42.478 21.1867 41.0576 21.2525C40.1062 21.2963 39.1346 21.7761 38.3891 22.3368C38.2289 22.4573 37.9721 22.8181 37.7775 22.8619C37.5282 22.9177 36.7718 22.4843 36.4474 22.4431C34.3833 22.1796 32.7133 23.8129 32.0377 25.6446C31.998 25.7535 31.9977 25.8501 32.0246 25.9317C31.5661 26.0312 31.0818 26.1948 30.6926 26.0653C30.2918 25.1038 29.7356 24.4379 29.0469 23.984C28.5499 22.4476 28.0802 20.7428 28.6371 19.2045C29.1892 17.6809 31.8472 16.3126 32.0067 19.1424C32.0291 19.5347 31.7196 19.9591 31.7664 20.3917C31.9378 21.9592 33.8428 21.7537 34.8376 21.0328C35.6988 20.4089 36.2602 19.2352 36.4028 18.2026C36.5529 17.1161 36.1435 16.6299 35.8556 15.6827C35.5285 14.604 35.8141 13.4228 35.356 12.4976C36.0095 11.9916 36.3482 11.4033 37.4062 11.2865C38.2233 11.1963 39.102 11.2749 39.8251 11.7469C40.7309 12.3378 40.5886 12.6073 40.5142 13.6298C40.4659 14.2866 40.3057 15.1385 41.1699 15.436C42.7257 15.9709 43.8519 13.7129 44.2976 12.0321C44.3175 12.0167 44.3369 12.0006 44.356 11.98C45.148 11.1248 46.3969 10.5361 47.5785 10.5488C48.3892 10.5574 49.2747 10.867 49.8454 11.4325C50.0449 11.6301 50.2919 12.2499 50.5599 12.458C51.033 12.8255 51.292 12.7566 51.8556 12.7005C53.2868 12.5572 54.8371 12.6073 55.9767 13.6493C57.4562 15.0026 59.7901 19.206 57.1246 20.4576C55.8865 21.0388 56.3637 20.1125 56.2121 19.2768C56.0931 18.6211 55.9393 18.1278 55.495 17.6225C53.1042 14.9049 49.4772 17.5731 48.0179 19.8442C46.3782 22.3967 45.678 25.8156 46.8528 28.6511C46.1907 28.528 45.502 28.4973 44.8063 28.5796ZM41.3993 29.7485C40.8192 29.1728 40.3809 27.7993 40.4651 26.7232C40.4805 26.7745 40.4936 26.8277 40.5112 26.8763C40.7937 27.6619 41.6123 28.5867 42.5629 29.1575C42.1535 29.3252 41.7646 29.522 41.3993 29.7485ZM39.8555 31.0198C39.2372 30.2983 38.8389 29.5194 38.8539 28.4198C38.864 27.6784 39.211 26.7513 39.7649 26.069C39.47 27.0721 39.6522 28.3554 40.0141 29.1841C40.1406 29.4752 40.4056 29.8735 40.729 30.2204C40.4165 30.4648 40.1242 30.7305 39.8555 31.0198ZM38.0661 34.2532C37.6506 33.6708 37.1536 33.1345 36.8602 32.484C36.4466 31.5674 36.8984 30.7717 36.8344 29.8349C36.7277 28.2922 35.6659 27.3314 34.4315 26.5694C33.9532 26.2741 33.4903 26.0054 32.9532 25.9077C32.9547 25.9047 32.9569 25.9017 32.958 25.8983C33.8679 23.5453 35.6404 23.1463 37.6952 23.9372C37.8464 23.9952 38.0747 23.9319 38.1784 23.8092C39.2031 22.6037 40.2885 21.5478 41.9966 22.1796C42.3151 22.2971 44.142 23.5285 43.3103 24.2478C43.2987 24.2579 43.237 24.2602 43.1471 24.2594C42.381 24.103 41.4921 24.0427 40.8592 24.5877C40.8237 24.6183 40.7971 24.6561 40.7653 24.6895C39.3292 25.0255 38.3037 26.5634 38.0855 27.977C37.8703 29.3738 38.3513 30.7391 39.2795 31.7253C38.7398 32.4698 38.3288 33.3194 38.0661 34.2532ZM26.3657 23.1332C26.0034 21.7305 26.213 20.0972 27.0409 18.9283C27.4192 18.3939 27.9556 17.8736 28.5667 17.5312C27.3418 18.9792 27.8579 21.7488 28.4586 23.6602C27.8384 23.3769 27.1363 23.216 26.3657 23.1332ZM24.5684 23.0603C24.0504 20.8161 24.7357 18.6357 26.823 17.3235C27.4174 16.9503 28.4215 16.6075 29.4066 16.5267C28.4028 16.7999 27.5132 17.5982 26.8676 18.3995C25.698 19.8502 25.5977 21.4176 25.8514 23.0887C25.6624 23.0764 25.4715 23.0663 25.2758 23.0606C25.0336 23.0539 24.7994 23.0539 24.5684 23.0603ZM30.4853 11.69C30.9703 12.0227 31.2244 12.3498 31.7855 12.5253C31.9726 12.5841 32.1938 12.3809 32.3746 12.3738C33.7541 12.3195 34.433 12.275 34.8114 13.6264C35.0255 14.3918 34.6613 15.0883 34.7598 15.811C34.8721 15.9634 34.9847 16.1157 35.097 16.268C35.5293 16.9541 35.6569 17.7034 35.4802 18.5163C35.3197 19.2236 34.2351 21.2226 33.2253 20.6702C32.3304 20.181 33.2466 18.9527 33.1179 18.2045C33.0613 17.8785 32.9158 17.6038 32.7136 17.377C31.8869 15.2946 28.7674 15.475 27.0682 16.3601C24.6706 17.6083 23.0523 20.4879 23.8989 23.1063C23.2903 23.1744 22.7008 23.32 22.0915 23.6041C21.9366 23.6763 21.7244 23.841 21.5387 23.9331C19.7134 21.8641 20.6038 18.3018 22.4931 16.5921C23.1361 16.0102 24.0018 15.7508 24.5606 15.082C25.0894 14.4491 25.2732 13.5475 25.774 12.8719C26.9327 11.3078 28.6876 10.4568 30.4853 11.69ZM37.5327 8.5259C35.0775 8.00529 32.4505 9.179 30.5912 10.7333C30.2045 10.5125 29.806 10.3022 29.3482 10.2255C28.9549 10.16 28.5795 10.1652 28.2213 10.2225C28.3695 10.0155 28.5275 9.81264 28.7161 9.62812C29.8801 8.48997 31.2682 7.63252 32.8881 7.37877C34.6273 7.1063 36.3923 7.30129 37.9882 8.07491C38.7693 8.45329 39.3427 8.94995 39.76 9.5368C39.1107 9.0364 38.3127 8.69133 37.5327 8.5259ZM34.6995 11.7431C34.5738 11.6529 34.4368 11.5661 34.2744 11.4875C33.5348 11.1308 33.064 11.3767 32.3375 11.3849C31.967 11.3891 31.6354 11.2805 31.3154 11.1286C32.9491 9.84894 35.2699 8.81559 37.3449 9.20819C38.4418 9.41591 39.3951 9.83472 40.0007 10.7666C39.8921 10.7098 39.7817 10.6559 39.6691 10.6065C37.825 9.79168 35.7213 10.0121 34.6995 11.7431ZM33.3855 34.1985C32.958 34.185 32.7455 34.2704 32.2993 34.3063C31.1893 34.3961 31.1616 34.4953 30.428 33.5746C30.1121 33.1779 29.7861 32.7972 29.392 32.4795C28.7516 31.9637 27.9997 31.731 27.2572 31.7946C26.8908 31.759 26.5292 31.7654 26.1602 31.8702C25.4409 32.0742 25.3353 32.5012 24.8446 32.9462C22.0556 29.8214 15.1387 31.1381 14.507 35.5478C14.3086 35.9014 14.2424 36.3191 14.3902 36.7941C14.5721 37.379 15.3341 37.6624 15.4112 38.2081C15.4917 38.7807 14.7525 39.1261 14.1978 39.1774C11.5487 39.4241 11.3152 36.5396 11.5944 34.8741C11.7213 34.1177 11.6528 33.651 11.3152 32.9511C10.8567 32.0027 10.8702 31.5509 11.5233 30.6171C12.0169 29.9105 12.5641 29.5538 13.3385 29.2623C14.0721 28.9861 15.1649 28.9494 15.7361 28.3783C16.2436 27.8707 16.1676 26.9871 16.6347 26.3995C17.2548 25.6191 17.9076 25.3504 18.8447 25.1842C19.8373 25.0083 20.0525 25.3459 20.962 25.3923C21.593 25.4241 21.7962 25.2434 22.3105 24.9859C24.4865 23.8964 27.8863 24.0173 29.3647 26.1098C29.4657 26.3486 29.5881 26.5627 29.7363 26.7464C29.7824 26.8389 29.8471 26.9048 29.9235 26.9474C30.2438 27.2498 30.6559 27.4355 31.1855 27.4523C31.7368 27.4699 32.2975 27.1952 32.8555 27.3322C33.8922 27.5874 35.0016 28.6485 35.3272 29.5729C35.7639 30.8121 35.2471 31.9259 35.9387 33.1199C36.7587 34.5361 37.8142 35.4946 37.8988 37.0703C36.8725 35.5013 35.3347 34.2599 33.3855 34.1985ZM30.4317 50.2296C30.3629 50.1341 30.291 50.0417 30.2162 49.9515C31.1552 49.1491 32.1627 48.6135 32.9008 47.5326C33.4072 46.79 33.8585 45.9988 34.155 45.1455C34.6947 43.5912 34.6082 41.8235 33.7343 40.399C31.6167 36.9464 26.5457 36.5718 24.2499 39.9091C24.2144 39.9608 24.1945 40.0117 24.1871 40.0603C23.9924 40.3706 23.9333 40.7187 23.9951 41.0514C23.9711 41.2572 23.9973 41.4676 24.1006 41.6697C24.3487 42.154 25.3709 42.3011 25.3042 42.8385C25.1467 44.1114 22.6937 42.8808 22.2914 42.4523C21.7929 41.9219 21.5215 41.3564 21.5829 40.5877C21.6098 40.2523 21.7094 39.9652 21.8041 39.6834C22.2966 39.4484 22.4358 38.9405 22.2648 38.3963C21.9995 37.5531 20.9481 36.9659 21.8179 36.0987C22.5171 35.4022 23.7507 34.989 24.6474 34.6203C25.0819 34.4414 25.3783 34.3291 25.6841 33.9829C25.9682 33.6614 26.131 33.2696 26.3664 32.9747C27.9896 32.2179 28.9755 34.3029 29.87 35.2188C30.6278 35.9954 31.2458 35.8715 32.2604 35.7109C35.1868 35.2476 37.4328 37.5303 38.1615 40.2486C38.8569 42.8396 38.1581 45.7095 36.3504 47.6707C34.7171 49.4425 32.8735 50.0136 30.8288 50.8868C30.7132 50.6596 30.5829 50.4392 30.4317 50.2296ZM26.494 55.3829C27.5936 55.9765 28.1457 57.4814 27.9694 58.7734C27.8283 59.8049 27.359 60.5897 26.6131 61.3255C26.1677 61.7645 25.5318 61.857 25.1403 62.3061C25.0991 62.3536 25.0714 62.4023 25.0535 62.4502C24.5516 62.3278 24.0546 62.1935 23.5631 62.0471C25.9884 61.1178 28.1749 57.6176 26.494 55.3829ZM22.7476 60.4202C23.6223 60.0163 24.6156 59.236 25.1792 58.4474C25.5936 57.8677 26.0303 56.5278 25.8971 55.5835C27.0873 56.5727 26.1935 58.4133 25.4899 59.3977C24.6373 60.5905 23.8772 61.1433 22.5148 61.452C22.401 61.4775 22.3217 61.5448 22.2742 61.6306C21.8041 61.4678 21.34 61.2941 20.8808 61.1096C21.5537 60.9673 22.2603 60.6455 22.7476 60.4202ZM20.5828 50.1903C21.2906 50.5099 21.7371 51.2311 21.9354 51.9969C21.1989 52.7484 20.6191 53.8012 20.5956 54.8357C20.3418 55.8391 19.9122 56.6352 19.1045 57.3358C18.3818 57.9631 17.6531 58.5436 16.6953 58.7607C16.5883 58.785 16.5254 58.8539 16.4936 58.9358C16.2245 58.7741 15.961 58.6046 15.6971 58.435C18.7033 58.2689 22.5182 52.7342 20.5828 50.1903ZM29.7214 49.435C29.6731 49.3912 29.6226 49.3519 29.5732 49.3107C31.5908 47.8148 33.1018 45.2185 32.6826 42.7315C32.1938 39.8361 29.8576 38.354 27.2329 38.613C29.6974 37.8993 32.6852 39.3934 33.5442 42.0623C34.0606 43.6664 33.5595 45.269 32.6886 46.6486C31.909 47.8837 30.7802 48.5446 29.7214 49.435ZM31.1814 43.7386C31.1762 42.5971 30.5395 41.3661 29.6559 40.5379C29.4568 40.2519 29.1989 39.9926 28.8785 39.7725C28.5334 39.5352 28.1461 39.3462 27.7407 39.2141C30.2802 39.3866 32.2522 41.4754 31.9419 44.2858C31.745 46.0714 30.5481 47.8545 29.0473 48.9368C28.7992 48.7875 28.5406 48.6662 28.2748 48.5847C29.633 47.3106 31.1896 45.7297 31.1814 43.7386ZM29.6944 43.7338C30.0204 43.1641 30.1675 42.5623 30.1428 41.9859C30.5904 42.8699 30.7637 43.8973 30.4984 44.7398C30.3183 45.3106 29.95 45.9285 29.6293 46.4296C29.09 47.2721 28.3152 47.6621 27.5922 48.2714C27.5439 47.6711 27.3152 47.1314 26.9492 46.7073C28.078 46.2028 29.2535 44.5036 29.6944 43.7338ZM22.4336 51.5193C22.3034 50.5615 21.822 49.6708 20.9088 49.2048C20.313 48.9005 19.7999 48.9077 19.1689 48.9481C18.8346 48.9694 18.5049 49.1375 18.3443 48.8938C17.9674 48.3219 19.4024 47.1841 19.6419 47.0494C20.3871 46.6299 21.215 46.5632 22.0234 46.8147C22.5066 46.9648 22.916 47.3653 23.4464 47.4091C24.0287 47.457 24.4996 47.0183 25.061 47.0221C25.9667 47.0277 26.5745 47.7534 26.6381 48.5959C26.3223 48.7059 26.0112 48.8837 25.7126 49.1423C25.3529 49.453 24.6107 50.5642 24.6392 50.5458C24.3835 50.7101 23.7256 50.7038 23.4217 50.8404C23.0496 51.0069 22.7319 51.2509 22.4336 51.5193ZM6.42387 28.1664C4.40057 30.2908 4.34144 33.4739 5.32239 36.1193C5.78424 37.3641 6.44221 38.4079 7.38125 39.3398C8.26864 40.2209 9.1841 40.6008 10.2388 41.0712C9.52843 41.5821 8.87383 42.2019 8.27276 42.9328C8.24244 42.8883 8.20015 42.8482 8.14177 42.8164C5.29208 41.2557 3.31706 37.0546 3.31482 33.868C3.31294 31.1044 5.42981 27.3756 8.40562 27.1338C7.64923 27.2715 7.11514 27.4403 6.42387 28.1664ZM10.9488 40.6071C9.32371 39.829 7.89512 39.1632 6.85128 37.5359C5.53535 35.4834 4.96946 32.4035 5.99608 30.1351C6.25021 29.5737 6.5616 29.1223 6.9456 28.781C4.37624 32.2025 7.25662 38.8593 11.0637 40.5409C11.0255 40.563 10.987 40.5847 10.9488 40.6071ZM23.4093 33.6184C23.3453 33.6491 23.2836 33.6831 23.2203 33.7153C22.2708 32.9088 20.7513 32.7194 19.5858 32.8088C17.9484 32.935 16.8458 33.4575 15.8045 34.4964C15.6878 34.5458 15.5725 34.6012 15.4613 34.6626C16.7956 31.4761 22.0504 31.2246 24.4427 33.2179C24.1148 33.3759 23.7263 33.4679 23.4093 33.6184ZM20.5877 35.5796C19.5746 34.608 18.4128 34.0626 16.8925 34.2146C17.6134 33.7168 18.4237 33.4009 19.4256 33.31C20.395 33.222 21.9336 33.2527 22.8483 33.9107C22.4085 34.1551 21.9849 34.4279 21.5675 34.7135C21.1772 34.9807 20.8351 35.2592 20.5877 35.5796ZM13.2427 23.887C14.3026 24.0502 14.8165 24.5727 15.5901 25.1914C15.6358 25.228 15.6825 25.2475 15.7289 25.2591C15.763 25.2961 15.7974 25.3325 15.8334 25.368C15.6687 25.554 15.5111 25.7554 15.385 25.947C15.1271 26.34 15.102 27.12 14.8374 27.4134C14.2008 28.1196 12.6876 28.0758 11.8766 28.6328C11.0319 29.2121 10.1804 30.1912 9.8664 31.1834C9.43674 32.5397 10.5161 33.4676 10.4454 34.8411C10.3975 35.7641 10.1082 36.4714 10.3904 37.412C10.7025 38.4498 11.4638 39.3855 12.4275 39.9024C12.1734 39.9974 11.9234 40.1 11.6805 40.2156C10.0258 39.1954 8.53737 37.6145 7.635 35.919C6.40815 33.6147 6.19893 29.7118 8.61147 28.0889C8.65975 28.0845 8.70317 28.0747 8.75257 28.0721C9.35814 28.0388 9.76198 28.1481 10.3492 27.879C11.2104 27.4849 11.7856 26.6001 11.4473 25.6195C11.2654 25.0918 10.8799 24.5892 10.4121 24.2474C11.2617 23.759 12.2714 23.7373 13.2427 23.887ZM8.9281 23.7935C8.56581 22.3312 10.8541 21.4648 11.932 21.4C13.1495 21.327 13.8366 21.9262 14.7543 22.4476C14.7615 22.918 14.8247 23.3769 14.946 23.8073C13.3725 22.8088 11.1876 22.738 9.67627 23.8807C9.43075 23.8155 9.17774 23.8099 8.9281 23.7935ZM7.74317 23.411C7.32661 21.967 8.12717 20.5983 9.61564 19.9856C10.847 19.4789 14.1769 19.4605 14.6466 21.1721C14.6806 21.2952 14.7394 21.3892 14.8112 21.4618C14.8026 21.5291 14.7993 21.5961 14.7925 21.6631C14.4624 21.4251 14.053 21.2488 13.7521 21.1171C12.8033 20.702 11.7336 20.5714 10.7033 20.7885C9.42476 21.0579 7.90635 22.1972 7.99019 23.6108C7.93255 23.5667 7.85021 23.4997 7.74317 23.411ZM4.57797 18.5698C4.58434 18.5586 4.59295 18.5503 4.59819 18.5368C4.60417 18.5208 4.61203 18.5065 4.6184 18.4904C4.80516 18.1147 4.99566 17.7408 5.19701 17.374C6.60352 15.2313 9.11486 14.5516 11.774 15.1729C12.2516 15.2848 12.6322 14.9566 12.6719 14.4891C12.7299 13.8046 12.6532 13.2013 13.023 12.5557C13.7958 11.2068 15.1885 10.9834 15.9131 12.4909C15.9138 12.4932 15.9153 12.4939 15.9161 12.4958C15.7469 13.287 15.7342 14.1063 15.8708 14.9184C15.9767 15.5483 16.2758 16.0337 16.4576 16.6348C16.7312 17.5372 16.4966 17.5578 15.9763 18.3018C15.7072 18.6866 15.4711 19.1458 15.2776 19.6443C13.8516 18.1016 10.7265 18.1042 9.06209 19.0668C8.17957 19.5777 6.82583 21.4202 6.84679 22.8106C5.47023 22.1156 3.83767 22.2444 2.72235 23.262C3.21489 21.6373 3.83767 20.0699 4.57797 18.5698ZM12.103 43.3883C10.0367 45.3727 8.48235 49.322 8.82406 52.4411C8.09461 51.5878 7.40745 50.6978 6.77306 49.7681C6.78317 49.7445 6.79664 49.7243 6.80076 49.6974C7.15107 47.6284 7.24801 46.0336 8.49957 44.2446C9.83758 42.3332 11.5663 40.9443 13.7071 40.3051C14.8416 40.4222 16.1646 39.8852 16.4973 38.7354C16.7144 37.9857 16.4213 37.7092 16.1717 37.0987C15.4202 35.2588 16.9925 34.7008 18.6385 35.1937C19.3594 35.4093 19.7718 35.8771 20.2067 36.422C20.1633 36.6788 20.1715 36.9621 20.2464 37.2814C20.3261 37.6223 20.502 37.9289 20.6723 38.22C20.8804 38.5756 20.9249 38.7927 20.9915 39.0434C20.8407 39.5012 20.5102 39.9986 20.4402 40.4331C20.4316 40.4859 20.4298 40.5405 20.4242 40.5944C17.8402 39.4559 13.8041 41.755 12.103 43.3883ZM13.258 56.6996C12.8781 55.1145 12.3134 53.7398 12.3332 52.0238C12.3523 50.3157 12.6566 48.627 13.3276 47.0524C14.1469 45.1305 15.3255 43.1701 17.4128 42.4564C18.3503 42.136 19.7699 41.9972 20.7775 42.4362C21.0061 42.8467 21.3258 43.2102 21.6847 43.5043C22.6301 44.2794 24.2185 44.5074 25.2118 43.6851C25.8642 43.1447 26.0064 42.4762 25.5636 41.7898C25.3473 41.4541 24.918 41.5716 24.8424 41.0701C24.7937 40.7434 24.9135 40.4978 25.1253 40.3114C25.4113 40.1224 25.753 39.9903 25.9993 39.9611C26.3234 39.9226 26.6965 39.9873 27.012 40.0543C28.2385 40.3148 29.215 41.24 28.9511 42.547C28.7318 43.6331 27.8934 44.6361 27.0884 45.3645C26.8107 45.6156 26.4304 45.8076 26.1748 46.0917C25.8462 45.9202 25.4715 45.8102 25.061 45.7776C24.1474 45.7047 23.6971 45.9356 22.8023 45.6919C22.0073 45.4752 21.1465 45.4135 20.3373 45.6369C18.9447 46.0217 17.2155 47.2369 17.247 48.8627C17.2586 49.4522 17.5071 50.0713 18.1265 50.2554C18.5053 50.3684 18.8908 50.2011 19.262 50.0948C21.0462 51.0994 19.9732 53.8783 19.0259 55.1048C17.9701 56.472 16.9633 57.374 15.2738 57.859C15.1653 57.8901 15.1065 57.9608 15.0815 58.0409C14.4553 57.6176 13.8509 57.1659 13.258 56.6996ZM17.2017 59.343C18.0902 59.1712 18.9151 58.5189 19.5674 57.9552C20.1947 57.4137 20.6311 56.8538 20.9433 56.198C21.0394 56.3605 21.1622 56.5165 21.3041 56.667C21.2842 56.6977 21.2659 56.7306 21.2524 56.7695C20.9646 57.5971 20.5967 58.2722 19.883 58.8157C19.3085 59.2524 18.7789 59.5466 18.1179 59.7985C18.1029 59.8037 18.0932 59.8131 18.0797 59.8198C17.7841 59.6656 17.4918 59.5066 17.2017 59.343ZM19.0472 60.3113C19.5985 60.0755 20.1326 59.6413 20.5226 59.3389C21.2722 58.7565 21.663 58.051 21.9744 57.1996C22.8498 57.679 23.8072 57.484 24.147 56.4353C23.9606 55.9705 24.0774 55.5768 24.4973 55.2545C24.5598 55.2257 24.622 55.2036 24.6841 55.186C24.7342 55.2021 24.7893 55.2096 24.8529 55.1942C24.9363 55.1744 25.0161 55.1662 25.0969 55.1542C25.1272 55.1583 25.1572 55.1617 25.1875 55.1684C25.7526 55.7081 24.927 57.493 24.711 57.7816C24.2473 58.4006 23.5328 58.944 22.8853 59.3587C22.3943 59.6731 21.5567 59.9628 20.9725 60.1339C20.4646 60.2824 19.9889 60.184 19.6026 60.5624C19.4174 60.4782 19.2299 60.3988 19.0472 60.3113ZM25.9611 62.6602C26.8721 61.9696 27.6573 61.4352 28.2337 60.3154C28.6873 59.4343 28.7999 58.2876 28.6296 57.3167C28.3422 55.6797 26.9604 54.4345 25.3424 54.4925C24.7878 54.2795 24.1627 54.275 23.6668 54.6482C23.001 55.1493 23.0474 57.5611 21.901 55.719C20.8463 54.0239 23.2461 51.7016 24.8925 51.9894C25.2024 52.0433 25.5352 51.955 25.6984 51.6615C25.9439 51.2199 26.2306 50.4583 26.6898 50.1966C28.0645 49.4137 29.3804 50.8819 29.8479 51.9905C30.2195 52.8719 29.8482 54.0134 30.279 54.7841C30.4692 55.1239 31.0474 55.433 31.3124 55.6872C32.077 56.4207 32.6223 57.5637 32.6178 58.6559C32.6111 60.3442 30.9347 62.3769 29.3119 63.1849C28.1753 63.0715 27.0581 62.893 25.9611 62.6602ZM40.8555 62.1785C40.8222 62.156 40.7863 62.1362 40.7447 62.1205C38.6282 61.33 38.2221 57.2239 38.1155 55.4005C37.9321 52.2521 38.9898 49.057 40.7559 46.4738C42.3103 44.1994 44.2475 42.2408 46.7087 40.9668C48.6294 39.9724 51.4825 38.9439 53.8123 39.4843C52.4073 39.5371 51.0177 40.0195 49.7567 40.7493C47.9153 41.3459 46.0504 42.5013 44.56 43.6548C42.5524 45.2088 41.6224 47.384 41.0292 49.798C40.4543 52.1361 40.4292 54.7073 40.9992 57.0461C41.4255 58.7928 42.4222 60.0279 43.5689 61.2799C42.6831 61.6201 41.7777 61.9195 40.8555 62.1785ZM44.6236 60.8584C44.4096 60.5635 44.1214 60.3528 43.8474 60.0609C43.2347 59.4081 42.6913 58.636 42.2957 57.8284C41.2268 55.6449 41.3473 52.8947 41.7406 50.5529C42.1239 48.2691 43.0446 45.9577 44.9201 44.5115C45.4684 44.0889 46.0706 43.6518 46.7012 43.2352C46.5822 43.367 46.4669 43.4995 46.3565 43.6331C44.4608 45.9288 43.3818 48.8208 43.4118 51.8176C43.4286 53.4876 43.612 55.1186 44.0881 56.7299C44.5009 58.1263 45.2386 59.0608 46.014 60.2233C45.5567 60.446 45.0933 60.6578 44.6236 60.8584ZM46.9583 59.7394C46.0968 58.6895 45.3179 57.8534 44.9036 56.5049C44.4878 55.1512 44.3508 53.7492 44.2984 52.3449C44.1794 49.1565 44.8572 46.3361 47.0167 43.9026C47.9486 42.8524 49.3522 41.7902 50.8571 41.219C48.8398 42.8329 47.4247 45.9502 47.0283 48.1071C46.5616 50.6443 46.6017 53.5082 47.2899 56.0064C47.5107 56.807 47.873 57.548 48.3379 58.2247C48.4973 58.4568 48.6122 58.6173 48.7159 58.7356C48.1421 59.0893 47.5557 59.4231 46.9583 59.7394ZM49.6501 58.1368C48.7125 58.0237 48.083 56.201 47.8996 55.5431C47.3532 53.5815 47.2207 51.5496 47.4606 49.5357C47.6911 47.5951 48.2563 45.8491 49.2706 44.172C49.8915 43.145 50.9177 42.115 52.0866 41.5428C50.4813 43.416 49.9839 46.9401 50.2822 48.9368C50.5468 50.7068 51.201 52.4007 52.5215 53.6511C52.7879 53.9041 53.3355 54.4947 53.8123 54.8061C52.5233 56.0296 51.1337 57.1472 49.6501 58.1368ZM54.5859 54.0505C54.2618 54.284 54.3404 54.3147 53.5657 53.7294C52.3489 52.8098 51.5338 51.6073 51.1363 50.1319C50.5217 47.8488 50.9735 41.8759 53.9501 41.0933C54.0867 41.0952 54.2233 41.1041 54.3602 41.124C53.4287 42.1139 53.1555 44.4531 53.2913 45.5838C53.5537 47.7639 55.0145 50.3153 57.2635 50.9474C56.4397 52.041 55.5441 53.0763 54.5859 54.0505ZM57.5954 50.4886C57.3892 50.4182 57.1729 50.3714 56.9738 50.2685C56.0246 49.7778 55.306 48.7011 54.9239 47.7504C54.6103 46.9712 54.4388 46.1721 54.3737 45.3349C54.3378 44.8787 54.4194 41.6278 55.5841 41.6992C56.4322 42.4044 56.4266 43.3812 56.9292 44.0702C57.0486 44.2813 57.2148 44.4269 57.4102 44.5164C57.5704 44.6148 57.7594 44.6986 57.9914 44.7619C58.1868 44.815 58.3253 44.7218 58.3915 44.5875C58.8399 44.4947 59.2886 44.2622 59.6071 43.9621C61.0118 42.6379 61.6675 40.204 60.6648 38.503C60.5039 38.2298 59.9264 37.8765 59.8197 37.6272C59.5779 37.0632 59.8687 36.1949 59.7778 35.5867C59.621 34.5395 59.0498 33.7913 58.1931 33.1809C57.8679 32.9496 57.5434 32.7714 57.2141 32.6341C56.9266 31.7407 56.7967 30.5681 57.2923 29.7443C57.793 28.9112 59.0409 28.5673 59.5821 29.4352C59.7426 29.6927 59.7314 30.0542 59.9047 30.2997C60.3673 30.9543 60.9646 31.0116 61.5208 30.4027C62.1769 29.6852 62.346 28.269 62.1477 27.3483C61.9126 26.255 61.34 25.8946 60.5338 25.4417C61.0529 23.7422 60.1352 22.1474 58.53 21.4992C59.015 20.7959 59.2643 19.8341 59.3751 19.0709C59.5008 18.2004 59.4088 17.3044 59.1486 16.4424C61.9066 21.0819 63.4954 26.4979 63.4954 32.2867C63.4954 39.0876 61.3033 45.3734 57.5954 50.4886ZM32.4404 0.286743C14.7674 0.286743 0.44043 14.6138 0.44043 32.2867C0.44043 48.6487 12.7228 62.1325 28.5686 64.0453C28.6457 64.1213 28.7539 64.164 28.8912 64.1232C28.9182 64.1149 28.9436 64.1048 28.971 64.0966C30.111 64.2197 31.2675 64.2867 32.4404 64.2867C50.1138 64.2867 64.4404 49.9601 64.4404 32.2867C64.4404 14.6138 50.1138 0.286743 32.4404 0.286743Z" fill="currentColor"/>
</svg>
