<svg width="16" height="16" viewBox="0 0 16 16" fill="none" xmlns="http://www.w3.org/2000/svg">
<path fill-rule="evenodd" clip-rule="evenodd" d="M11.9446 10.6584C11.4311 11.1884 11.0248 11.6073 10.1322 11.7386C9.28767 11.8567 8.85476 11.5738 8.34809 11.2251C7.85251 10.8853 7.23862 10.4645 6.2589 10.4645C6.07546 10.4645 5.88251 10.4795 5.68569 10.5089C4.38661 10.6994 3.74368 11.3589 3.17644 11.9409C3.0606 12.0594 2.99793 12.2166 3.00039 12.3835C3.00268 12.5476 3.06782 12.7004 3.18437 12.8137C3.42098 13.0454 3.82237 13.0405 4.05264 12.8058C4.57217 12.2727 4.97832 11.8562 5.86385 11.7265C6.00909 11.7059 6.13902 11.696 6.26225 11.696C6.85906 11.696 7.20553 11.934 7.64407 12.2358C8.14317 12.5789 8.756 13 9.74258 13C9.92937 13 10.1204 12.9854 10.31 12.9562C11.6179 12.7643 12.2612 12.1009 12.8287 11.5154C12.9432 11.3971 13.005 11.2414 13.0022 11.077C12.9999 10.9127 12.9335 10.7592 12.8152 10.645C12.5789 10.4158 12.1742 10.4221 11.9446 10.6584ZM4.05187 5.34167L4.05247 5.34105C4.57206 4.80739 4.977 4.39147 5.86378 4.26142C6.01113 4.23924 6.1451 4.22833 6.27221 4.22833C6.85551 4.22833 7.19948 4.46483 7.63488 4.76419L7.63519 4.7644C8.1394 5.1121 8.75381 5.53515 9.74251 5.53515C9.9293 5.53515 10.1203 5.52036 10.3099 5.49166C11.6177 5.2996 12.261 4.63596 12.8286 4.05045L12.8287 4.05034C12.9431 3.93221 13.0049 3.77676 13.0021 3.61215C12.9998 3.4479 12.9334 3.29456 12.8151 3.18012C12.5789 2.95091 12.1741 2.95707 11.9445 3.19368C11.431 3.72359 11.0247 4.14259 10.1321 4.27392C9.9918 4.29417 9.86469 4.30368 9.74286 4.30368C9.13827 4.30368 8.77254 4.05216 8.34906 3.76093L8.34802 3.76021L8.34695 3.75948C7.85384 3.42123 7.23978 3.00002 6.25654 3.00002C6.07327 3.00002 5.88103 3.01481 5.68473 3.04404C4.38935 3.23306 3.74589 3.89189 3.17824 4.4731L3.17778 4.47356C2.938 4.71951 2.94152 5.1121 3.18464 5.34906C3.42055 5.57863 3.82336 5.57669 4.05187 5.34167ZM4.05752 9.06775L4.04502 9.08166C3.81457 9.30894 3.41793 9.31 3.18466 9.08236C2.94171 8.84522 2.93801 8.45351 3.17639 8.2088C3.74274 7.62643 4.38497 6.96659 5.68527 6.77575C5.88175 6.74671 6.07417 6.73192 6.25744 6.73192C7.24103 6.73192 7.85316 7.15215 8.34768 7.49175C8.88094 7.86022 9.28744 8.12747 10.1325 8.00687C11.0263 7.87395 11.4319 7.45513 11.9446 6.92522C12.1734 6.68966 12.5796 6.68298 12.8151 6.91184C12.9334 7.0261 12.9998 7.17979 13.0021 7.34404C13.0049 7.5083 12.9431 7.6641 12.8287 7.78223C12.2618 8.36778 11.6189 9.03148 10.3113 9.22426C10.1187 9.2526 9.92773 9.26704 9.74394 9.26704C8.75424 9.26704 8.1408 8.84452 7.64709 8.50446L7.64647 8.50404C7.20547 8.20141 6.85707 7.96233 6.26378 7.96233C6.13984 7.96233 6.00921 7.97254 5.86361 7.99332C4.97686 8.12477 4.57139 8.54067 4.05814 9.06711L4.05752 9.06775Z" fill="currentColor"/>
</svg>
