<svg width="16" height="16" viewBox="0 0 16 16" fill="none" xmlns="http://www.w3.org/2000/svg">
<path d="M6.33333 15C10.0133 15 13 11.864 13 8C13 4.136 10.0133 1 6.33333 1C8.17333 1 9.66667 2.568 9.66667 4.5C9.66667 6.432 8.17333 8 6.33333 8C4.49333 8 3 9.568 3 11.5C3 13.432 4.49333 15 6.33333 15ZM6.33333 12.5938C5.75833 12.5938 5.29167 12.1038 5.29167 11.5C5.29167 10.8963 5.75833 10.4063 6.33333 10.4063C6.90833 10.4063 7.375 10.8963 7.375 11.5C7.375 12.1038 6.90833 12.5938 6.33333 12.5938Z" fill="#202322"/>
</svg>
