<svg width="16" height="16" viewBox="0 0 16 16" fill="none" xmlns="http://www.w3.org/2000/svg">
<path d="M9.66667 15C7.82667 15 6.33333 13.432 6.33333 11.5C6.33333 9.568 7.82667 8 9.66667 8C11.5067 8 13 6.432 13 4.5C13 2.568 11.5067 1 9.66667 1C5.98667 1 3 4.136 3 8C3 11.864 5.98667 15 9.66667 15ZM9.66667 5.59375C9.09167 5.59375 8.625 5.10375 8.625 4.5C8.625 3.89625 9.09167 3.40625 9.66667 3.40625C10.2417 3.40625 10.7083 3.89625 10.7083 4.5C10.7083 5.10375 10.2417 5.59375 9.66667 5.59375Z" fill="currentColor"/>
</svg>
