<svg width="16" height="16" viewBox="0 0 16 16" fill="none" xmlns="http://www.w3.org/2000/svg">
<g clip-path="url(#clip0_384_41616)">
<path d="M6.33333 15C10.0133 15 13 11.864 13 8C13 4.136 10.0133 1 6.33333 1C8.17333 1 9.66667 2.568 9.66667 4.5C9.66667 6.432 8.17333 8 6.33333 8C4.49333 8 3 9.568 3 11.5C3 13.432 4.49333 15 6.33333 15ZM6.33333 12.5938C5.75833 12.5938 5.29167 12.1038 5.29167 11.5C5.29167 10.8963 5.75833 10.4063 6.33333 10.4063C6.90833 10.4063 7.375 10.8963 7.375 11.5C7.375 12.1038 6.90833 12.5938 6.33333 12.5938Z" fill="currentColor"/>
<path d="M6.32292 15C4.48292 15 2.98958 13.432 2.98958 11.5C2.98958 9.568 4.48292 8 6.32292 8C8.16292 8 9.65625 6.432 9.65625 4.5C9.65625 2.568 8.16292 1 6.32292 1C2.64292 1 -0.34375 4.136 -0.343749 8C-0.343749 11.864 2.64292 15 6.32292 15ZM6.32292 5.59375C5.74792 5.59375 5.28125 5.10375 5.28125 4.5C5.28125 3.89625 5.74792 3.40625 6.32292 3.40625C6.89792 3.40625 7.36458 3.89625 7.36458 4.5C7.36458 5.10375 6.89792 5.59375 6.32292 5.59375Z" fill="white"/>
</g>
<defs>
<clipPath id="clip0_384_41616">
<rect width="16" height="16" fill="white"/>
</clipPath>
</defs>
</svg>
