<svg width="16" height="16" viewBox="0 0 16 16" fill="none" xmlns="http://www.w3.org/2000/svg">
<path d="M13.6034 5.09609C12.8305 4.74534 12.4477 5.68039 12.4477 5.68039C9.73435 4.21298 7.81853 6.92131 7.81853 6.92131C7.81853 6.92131 7.56402 6.22439 8.37382 5.40279C9.18354 4.58077 10.3035 4.6323 11.2096 4.5629C12.6358 4.4536 12.7389 2.32251 10.0842 2.59721C6.92927 2.92385 6.1277 6.52111 6.1277 6.52111C5.408 6.0274 7.03507 3.52104 7.87762 2.4289C8.27674 1.9115 6.92195 1.94641 5.61928 3.20645C4.31665 4.46607 4.20585 6.48911 4.20585 6.48911C4.20585 6.48911 3.47456 6.73015 2.95675 7.77907C2.0689 9.57645 2.54935 11.7989 3.40852 11.9981C4.67247 12.2911 6.34118 10.672 6.34118 10.672C6.20196 11.101 5.75364 11.8255 5.06423 12.3234C4.48791 12.7397 4.33672 13.2281 5.21741 13.3192C6.09815 13.4103 7.07023 12.9684 7.87492 11.8042C8.40495 11.0373 9.10399 10.7633 9.05238 11.3308C9.00081 11.8983 7.75436 12.6771 7.63451 13.2049C7.41591 14.1674 8.94329 14.3311 11.5617 12.2036C13.9051 10.2996 13.4702 7.31653 13.4702 7.31653C14.345 6.87269 14.3763 5.44642 13.6034 5.09609ZM5.68615 9.55068C5.55802 9.85987 5.29463 10.0448 5.09785 9.96294C4.90108 9.88149 4.84539 9.56481 4.97355 9.25562C5.10168 8.94643 5.36507 8.76191 5.56185 8.84337C5.75862 8.92482 5.81431 9.24149 5.68615 9.55068Z" fill="currentColor" />
</svg>
