<svg width="16" height="16" viewBox="0 0 16 16" fill="none" xmlns="http://www.w3.org/2000/svg">
<path d="M6.865 14.3353C6.865 14.3353 9.5491 14.3353 11.2267 12.5429C11.2267 12.5429 13.4465 11.755 12.9125 8.7648C12.9125 8.7648 14.4816 11.8488 11.8558 13.8872C9.70529 15.5566 6.865 14.3353 6.865 14.3353Z" fill="currentColor"/>
<path fill-rule="evenodd" clip-rule="evenodd" d="M13.5768 6.92213L14.985 7.26414C15.0333 7.27583 15.0626 7.3233 15.0505 7.37009C15.0403 7.40992 15.0036 7.43639 14.9633 7.43639C14.9561 7.43639 13.6167 7.11203 13.6167 7.11203L13.6577 8.30796C13.6594 8.3562 13.6204 8.3967 13.5708 8.39823C13.5698 8.39832 13.5688 8.39832 13.5677 8.39832C13.5194 8.39832 13.4794 8.36108 13.4778 8.31378L13.4337 7.02843L12.7689 6.12443C9.22607 6.97874 8.06788 3.02285 8.06788 3.02285C5.8172 2.49817 3.57121 5.00683 3.41381 7.23311C3.18477 10.4726 5.37009 12.4291 7.35476 11.992C9.89669 11.4322 11.287 9.3551 9.67025 7.83331C8.37941 6.61829 6.55646 7.62586 6.2363 8.82647C5.87211 10.1922 6.7376 11.2866 6.7376 11.2866C4.35665 10.6478 4.64006 7.97097 5.69 6.77789C6.96762 5.32605 9.2409 5.09349 10.7887 6.68685C11.9944 7.92796 12.8796 11.6101 9.16903 13.3371C5.08916 15.2361 1.2765 12.4055 0.966773 8.45641C0.617004 3.99692 4.90713 0.191227 9.28328 1.49248C13.0711 2.61883 12.9811 6.06838 12.9545 6.07586L13.5768 6.92213ZM10.4333 4.68884C10.4333 4.95256 10.6534 5.16629 10.9249 5.16629C11.1963 5.16629 11.4164 4.95256 11.4164 4.68884C11.4164 4.42516 11.1963 4.21143 10.9249 4.21143C10.6534 4.21143 10.4333 4.42516 10.4333 4.68884Z" fill="currentColor"/>
</svg>
