<svg width="16" height="16" viewBox="0 0 16 16" fill="none" xmlns="http://www.w3.org/2000/svg">
<path fill-rule="evenodd" clip-rule="evenodd" d="M10.791 15.1478C9.38469 15.1478 8.61311 14.411 8.61311 13.171C8.61311 11.5194 10.2352 7.571 10.2352 6.23837C10.2352 5.23942 9.81416 4.47942 8.79206 4.47942C7.76995 4.47942 7.16469 5.18468 7.16469 5.9531C7.16469 7.05416 8.211 8.74468 8.211 9.5931C8.211 11.352 7.01416 12.3005 5.49416 12.3005C3.69521 12.3005 2.72995 10.9005 2.72995 9.64047C2.72995 8.30784 3.63416 6.78258 5.90153 7.15626C5.66258 6.71626 5.491 6.29416 5.491 5.39731C5.491 4.01942 6.66995 2.85205 8.77942 2.85205C10.8889 2.85205 12.0068 4.351 12.0068 6.13731C12.0068 7.64679 10.3731 11.6731 10.3731 12.812C10.3731 13.1647 10.6636 13.3963 11.1426 13.3963C11.6689 13.3963 12.3426 13.1299 12.6163 12.9752C12.7331 13.2721 13.27 13.9752 13.27 13.9752C12.7847 14.4773 11.5531 15.1478 10.791 15.1478ZM6.28995 8.75626C5.64679 8.60679 4.53416 8.62152 4.53416 9.65416C4.53416 10.1489 5.00995 10.6563 5.50258 10.6563C6.80469 10.651 6.50258 9.02995 6.28995 8.75626Z" fill="currentColor"/>
</svg>
