<svg width="16" height="16" viewBox="0 0 16 16" fill="none" xmlns="http://www.w3.org/2000/svg">
<path fill-rule="evenodd" clip-rule="evenodd" d="M11.5415 11.8574C11.14 11.8594 10.743 11.7724 10.379 11.6028C10.015 11.4332 9.69305 11.1851 9.43627 10.8764C8.62048 12.4658 7.51522 14.1764 5.16364 14.1764L4.94259 12.9406C7.00469 12.9406 7.70048 10.8574 8.58153 9.07005C8.38639 8.2086 8.29521 7.32688 8.30995 6.44373C8.30995 4.66794 8.04785 3.70689 7.36259 3.70689C5.72574 3.70689 5.82574 7.70689 6.02259 11.0195L4.10364 11.0785C4.4489 7.65426 4.03838 4.4932 1.7489 2.83636L2.49627 1.82373C3.33838 2.20899 4.39101 3.09636 4.9468 4.53215C5.36785 2.98057 6.16785 2.0711 7.25627 2.0711C8.89101 2.0711 9.8668 3.43952 9.8668 5.47426C9.8668 5.93847 9.85732 6.54163 9.89206 7.15847C10.3889 6.70584 10.8552 6.54268 11.5257 6.54268C13.1436 6.54268 14.251 7.59531 14.251 9.31952C14.251 10.8858 13.011 11.8574 11.5415 11.8574ZM11.5415 8.20794C10.9763 8.20794 10.6531 8.61952 10.2931 9.22584C10.5426 9.78584 10.9384 10.1974 11.5668 10.1974C11.8187 10.1948 12.0598 10.0946 12.2394 9.91795C12.419 9.74129 12.5232 9.50188 12.53 9.25005C12.5278 8.60689 12.1057 8.20794 11.5394 8.20794H11.5415Z" fill="#559D3E"/>
</svg>
