<svg width="16" height="16" viewBox="0 0 16 16" fill="none" xmlns="http://www.w3.org/2000/svg">
<path fill-rule="evenodd" clip-rule="evenodd" d="M11.9089 13.9897L11.5668 15.0423C10.6121 15.0065 9.8521 14.7339 9.46157 13.8991C8.92328 14.09 8.37113 14.2392 7.81 14.3455L7.53736 13.1044C8.09729 12.9729 8.64411 12.7907 9.17105 12.5602C9.17105 12.4602 9.16368 12.356 9.16368 12.2444C9.16368 11.057 9.19736 8.05914 9.19736 6.93177C9.19736 5.22124 8.99526 4.59177 8.25631 4.59177C7.65842 4.59177 7.49526 4.91703 7.39526 5.62545C7.40894 5.82545 7.41526 6.03703 7.41526 6.26335C7.41526 6.96019 7.41526 11.7928 7.41526 11.7928L5.65105 11.7739C5.65105 11.7739 5.65105 7.89703 5.65105 6.93177C5.65105 5.22124 5.53842 4.59177 4.71105 4.59177C4.07947 4.59177 3.9321 4.95598 3.8321 5.74966L3.8721 11.737L2.14052 11.8286L2.13105 4.34335L2.01315 3.16756L3.51842 2.95703L3.67736 3.60019C4.01421 3.2244 4.52789 2.95703 5.33105 2.95703C6.06789 2.95703 6.63842 3.24861 6.9921 3.9265C7.31631 3.38861 7.87421 2.95703 8.86894 2.95703C10.1721 2.95703 10.8889 3.70229 10.9489 5.94966C11.1693 5.55858 11.4484 5.20358 11.7763 4.89703L12.3026 4.81808C13.1447 5.49808 13.9868 6.89072 13.9868 8.48019C13.9868 10.2697 12.9753 12.0002 11.0395 13.157C11.1668 13.6181 11.4268 13.8444 11.9089 13.9897ZM12.3542 8.61387C12.3542 7.95493 12.1384 7.28756 11.9332 7.09598C11.4995 7.40651 11.1795 8.09703 10.9395 9.01703C10.9395 9.94124 10.9321 10.8128 10.9289 11.4318C11.9458 10.5128 12.3542 9.44861 12.3542 8.61387Z" fill="#559D3E"/>
</svg>
