<svg width="16" height="16" viewBox="0 0 16 16" fill="none" xmlns="http://www.w3.org/2000/svg">
<path fill-rule="evenodd" clip-rule="evenodd" d="M8.34627 12.6244C6.89574 12.6244 5.12837 12.2823 3.80732 11.477L4.29995 10.3191C5.57258 10.9802 8.1368 11.2044 9.19364 10.7623C8.90416 10.5602 8.43995 10.0044 8.43995 8.86756C8.43995 7.55703 9.38732 6.43492 11.1252 6.43492C12.8 6.43492 13.8621 7.49703 13.8621 9.17808C13.8652 11.3223 11.4978 12.6244 8.34627 12.6244ZM10.881 10.2033C11.4989 10.0665 12.4547 9.59177 12.0263 8.69913C11.8157 8.27177 11.1989 8.03071 10.7736 8.23492C9.64837 8.77913 10.581 10.0591 10.881 10.2076V10.2033ZM6.94101 5.29387C7.23048 5.49492 7.55995 5.99282 7.55995 7.12756C7.55995 8.43913 6.61259 9.56124 4.87469 9.56124C3.19995 9.56124 2.13785 8.49913 2.13785 6.81808C2.13785 4.68019 4.50522 3.37598 7.6568 3.37598C9.10732 3.37598 10.8747 3.71808 12.1957 4.52335L11.7031 5.68124C10.4273 5.01808 7.99995 4.85071 6.94101 5.29387ZM5.1189 5.79282C4.50101 5.92966 3.53995 6.4044 3.97364 7.29703C4.18416 7.7244 4.80101 7.96545 5.22627 7.76124C6.35258 7.21703 5.4189 5.94545 5.1189 5.79282Z" fill="#2992DE"/>
</svg>
