<svg width="16" height="16" viewBox="0 0 16 16" fill="none" xmlns="http://www.w3.org/2000/svg">
<path fill-rule="evenodd" clip-rule="evenodd" d="M15.3326 12.1222L13.5905 14.9001L13.1611 13.8769C12.7589 14.1664 12.2137 14.3611 11.4611 14.3611C9.92421 14.3611 9.14526 13.3938 9.14526 11.1169C9.14526 9.92957 9.1779 8.20326 9.1779 7.07483C9.1779 5.36431 8.97579 4.73483 8.2379 4.73483C7.64 4.73483 7.47579 5.0601 7.37579 5.76957C7.38912 5.96817 7.39614 6.17869 7.39684 6.40115C7.39684 7.09799 7.39684 11.9306 7.39684 11.9306L5.63263 11.9117C5.63263 11.9117 5.63263 8.03483 5.63263 7.06957C5.63263 5.35904 5.52 4.72957 4.69263 4.72957C4.06105 4.72957 3.91263 5.09483 3.81368 5.88747L3.86316 11.8864L2.12737 11.9759L2.11789 4.48641L2 3.31062L3.50632 3.1001L3.66211 3.74536C3.99895 3.36957 4.51158 3.1001 5.31474 3.1001C6.05684 3.1001 6.62316 3.39168 6.97684 4.07168C7.30105 3.53273 7.85789 3.1001 8.85368 3.1001C10.2158 3.1001 10.9368 3.91378 10.9368 6.40641C10.9368 8.80431 10.9158 11.2148 10.9158 11.2148C10.9589 12.3043 11.1263 12.8475 11.9979 12.8475C12.2285 12.8471 12.4545 12.7826 12.6505 12.6611L12.2042 11.5938L15.3326 12.1222Z" fill="currentColor"/>
</svg>
