<svg width="16" height="16" viewBox="0 0 16 16" fill="none" xmlns="http://www.w3.org/2000/svg">
<path fill-rule="evenodd" clip-rule="evenodd" d="M12.2463 8.88052L10.3852 8.78368C10.5431 10.0079 11.101 11.151 12.0694 11.8479L11.2589 12.671C9.65152 12.0332 8.78625 10.4405 8.61994 8.72263L7.21994 8.70263C7.05257 10.4447 6.18415 12.0626 4.57467 12.7026L3.73257 11.8458C4.70415 11.1363 5.2652 9.96473 5.41678 8.71631L3.63889 8.75842V7.12473L5.39152 7.17526C5.21152 5.99526 4.65467 4.88894 3.73046 4.18263L4.70731 3.29736C6.13468 4.00684 6.97467 5.54684 7.19467 7.1921L8.65994 7.17631C8.89362 5.55105 9.74099 4.03421 11.1684 3.32789L12.0778 4.17947C11.1673 4.87631 10.6157 5.96157 10.4252 7.12684L12.361 7.03526L12.2463 8.88052Z" fill="currentColor"/>
</svg>
