<svg width="16" height="16" viewBox="0 0 16 16" fill="none" xmlns="http://www.w3.org/2000/svg">
<path fill-rule="evenodd" clip-rule="evenodd" d="M9.71835 11.5066L9.48151 11.3856C8.75204 9.99506 7.92256 9.86559 6.38783 11.4435L6.15625 11.3856C5.42783 9.99506 4.5573 9.99085 3.02151 11.5687L2.29099 10.6214C4.42783 7.80033 5.74677 8.27191 6.42046 9.47085C8.09625 7.80033 9.19099 8.41085 9.77835 9.5298C11.9162 7.62348 13.0836 8.83822 13.7089 10.4961L12.8331 11.3856C12.1047 9.99506 11.2531 9.92769 9.71835 11.5066ZM9.71835 7.49822L9.48151 7.37717C8.75204 5.98664 7.92256 5.85717 6.38783 7.43506L6.15625 7.37717C5.42783 5.98664 4.5573 5.98243 3.02151 7.56033L2.29099 6.61296C4.42783 3.79191 5.74677 4.26348 6.42046 5.46243C8.09625 3.79191 9.19099 4.40243 9.77835 5.52138C11.9162 3.61506 13.0836 4.8298 13.7089 6.48769L12.8331 7.37717C12.1047 5.98664 11.2531 5.91927 9.71835 7.49822Z" fill="#DE64D2"/>
</svg>
