<svg width="64" height="64" viewBox="0 0 64 64" fill="none" xmlns="http://www.w3.org/2000/svg">
<path d="M11.6143 55.4161C12.2689 54.8446 13.0347 54.4303 13.6912 53.8442C14.5415 53.0852 15.1961 52.1061 15.6826 51.0806C16.5891 49.1688 16.9031 46.9925 17.0061 44.8988C17.1138 42.7045 16.9466 39.7549 15.8934 37.5238C14.1219 35.2898 12.4658 32.9851 11.1035 30.4573C10.2662 28.9044 9.37958 27.1963 9.09925 25.4364C9.04573 26.9848 9.45369 28.6495 10.2438 30.3386C11.907 33.8927 14.9524 37.3026 14.3166 41.4971C13.6986 45.5721 10.4103 48.6692 6.54974 49.7864C8.00452 51.864 9.70669 53.754 11.6143 55.4161ZM34.3051 62.9607C34.3134 62.9015 34.3355 62.839 34.3744 62.7769C35.7049 60.6383 35.4979 57.2822 35.0533 54.8978C34.5604 52.2528 33.5884 49.643 32.0113 47.4536C30.5381 45.4086 28.7173 43.6473 26.8048 41.9765C27.7206 43.1719 28.5807 44.4167 29.3865 45.7293C31.2002 48.6838 32.6554 51.9949 32.6468 55.5221C32.6408 57.8594 32.5139 61.2551 30.7283 63.0228C31.1508 63.04 31.5737 63.055 32 63.055C32.7763 63.055 33.5431 63.0168 34.3051 62.9607ZM58.017 48.9484C57.9724 48.9054 57.9342 48.8522 57.9163 48.7747C57.1711 45.5399 56.0913 42.804 53.7701 40.3574C51.8273 38.3094 49.5158 36.5541 47.0973 35.1072C44.0751 33.2991 40.8893 32.2773 37.6227 31.4487C39.3578 32.4263 40.9604 33.8077 42.3448 35.0024C44.8887 37.1975 47.1995 39.79 48.7635 42.7838C50.3085 45.7409 51.1596 49.0813 51.0237 52.4212C50.9624 53.9258 50.8568 55.6983 50.2108 57.1483C53.2869 54.9172 55.936 52.1364 58.017 48.9484ZM60.7338 20.215C57.6958 20.2996 54.7369 19.7262 51.7116 19.7371C48.1217 19.7502 44.6451 20.712 41.1198 21.2547C37.8349 21.7604 34.752 21.6182 31.4689 21.1881C28.6047 20.8127 25.5532 20.9134 22.8308 19.8434C21.7952 20.8588 20.7532 22.2829 22.0628 23.5112C23.1381 24.5199 24.9192 24.878 26.3078 25.192C29.3412 25.8773 32.4491 26.0484 35.535 26.3448C41.1449 26.8834 46.8619 28.041 51.9414 30.5572C56.1175 32.6254 60.0825 35.6465 62.0254 39.9439C62.6946 37.4078 63.055 34.746 63.055 32C63.055 27.8273 62.2264 23.8499 60.7338 20.215ZM32 0.945029C24.2512 0.945029 17.1711 3.78985 11.7311 8.48281C11.8943 8.52884 12.0601 8.58236 12.2349 8.65048C12.763 8.8567 13.2069 9.31556 13.8057 9.21675C14.4767 9.10634 15.4974 8.02508 16.2066 7.76084C18.429 6.93146 20.8049 7.73389 22.8125 8.75752C23.8264 9.27439 24.5408 9.99298 25.5705 9.65464C26.4496 9.36571 27.1716 9.11607 28.1305 9.15799C30.1365 9.24594 31.8821 10.4182 33.0068 12.0301C33.0244 12.0552 33.0304 12.0792 33.0386 12.1035C33.0779 12.0938 33.1157 12.0818 33.1565 12.0732C35.0192 11.6753 36.7532 12.1181 38.5501 12.5885C42.4515 13.6099 46.0067 11.13 49.9597 12.34C53.3349 13.3726 56.6696 15.2234 59.4474 17.472C54.2338 7.64295 43.9014 0.945029 32 0.945029ZM3.72438 19.1622C4.69486 19.1169 5.74955 19.4189 6.66014 19.581C8.24293 19.8625 9.9088 20.1851 11.4635 19.6858C14.8084 17.2018 20.1772 16.4611 23.8604 16.0348C24.0247 15.8218 24.2175 15.6235 24.4503 15.4465C25.8111 14.4116 27.4519 14.7874 28.9988 14.3495C30.3817 13.958 31.2111 12.8206 32.4989 12.2816C31.2245 10.4709 27.2794 8.22943 25.3732 10.5274C25.3055 10.6094 25.1531 10.6247 25.0663 10.5671C23.4772 9.52028 21.9468 8.37389 20.0661 7.90232C17.5768 7.27804 15.6946 8.5498 13.8955 10.106C13.7825 10.2037 13.5785 10.2684 13.4434 10.1644C12.7117 9.60225 12.0912 9.1273 11.2442 8.90461C8.07975 11.7502 5.5089 15.2387 3.72438 19.1622ZM39.3877 62.0774C41.2617 57.1389 41.3852 52.145 38.9884 47.3604C36.94 43.2715 33.6172 39.7021 29.9404 37.0246C26.6768 34.648 23.0546 32.7104 20.1439 29.8775C18.2419 28.0268 14.9524 24.7062 15.8514 21.7368C15.9413 21.0953 16.2339 20.4587 16.7123 19.8407C18.4369 17.6127 20.7918 17.2781 23.3559 16.5996C23.4109 16.585 23.4562 16.5977 23.491 16.6243C23.5139 16.5794 23.5367 16.5352 23.561 16.4914C21.4378 16.7639 19.2655 17.1086 17.1872 17.7115C17.1917 17.7609 17.1778 17.81 17.1314 17.8481C15.2429 19.3871 13.8102 20.8977 13.7035 23.4693C13.6515 24.7261 13.8835 25.8901 14.2941 26.9953C14.3128 27.0106 14.3327 27.0245 14.3488 27.0469C15.6587 28.8823 16.7512 30.7859 18.2157 32.521C19.5047 34.048 20.8281 35.5061 22.2653 36.8954C22.9225 37.5313 23.5546 38.1796 24.1655 38.8409C25.1322 39.6658 26.1102 40.4828 27.0806 41.3118C30.2795 44.0443 33.3403 47.0097 34.9163 50.9949C36.2424 54.348 37.2615 59.4586 35.3771 62.869C36.7379 62.7215 38.0707 62.4838 39.3731 62.1668C39.3735 62.1384 39.3754 62.1096 39.3877 62.0774ZM60.0062 18.5667C57.2452 16.1875 53.8435 14.2765 50.4081 13.0766C48.7059 12.4819 47.0546 12.3236 45.2813 12.6529C43.8655 12.9156 42.5151 13.4134 41.057 13.2933C37.7683 13.0223 34.0873 10.8284 31.223 13.6691C30.4322 14.4531 29.8409 14.9393 28.708 15.1665C26.8351 15.5415 25.1071 15.2885 23.9944 17.2126C23.6916 17.7362 22.9191 18.8957 23.317 19.5065C23.5573 19.8759 25.1539 20.0013 25.563 20.0676C27.2947 20.3483 29.0631 20.3681 30.8065 20.553C34.5043 20.9456 37.8888 21.0171 41.5802 20.3771C44.9306 19.7962 48.2942 19.0432 51.7116 19.0503C54.607 19.0567 57.5559 19.4268 60.4654 19.5825C60.3165 19.2415 60.1671 18.9013 60.0062 18.5667ZM22.5422 19.3404C22.5441 19.3385 22.546 19.3385 22.5479 19.337C22.7687 18.7584 22.9188 18.1483 23.11 17.5637C21.6032 17.853 19.971 18.0592 19.0458 19.4451C18.2846 20.5852 18.1296 21.9116 18.7187 23.098C19.3553 23.9547 19.9841 24.7553 20.9602 25.2856C22.0258 25.8642 23.3406 26.1996 24.512 26.4915C26.7397 27.0465 29.0272 27.2883 31.2848 27.6847C35.8677 28.4897 40.6464 28.9168 45.123 30.205C48.8691 31.2833 52.4516 33.1393 55.5247 35.5312C57.5476 37.1054 60.547 39.7144 61.2229 42.5229C61.4295 41.9496 61.6156 41.3661 61.7885 40.7774C60.0889 36.1428 55.7234 32.951 51.3969 30.8858C46.4812 28.5388 41.0162 27.4612 35.6151 27.0406C33.2864 26.859 30.9599 26.7393 28.6443 26.4107C26.3822 26.0899 23.5565 25.7396 21.7207 24.232C19.7805 22.6388 21.0384 20.7184 22.5422 19.3404ZM60.9621 43.2067C60.6069 41.2534 58.8819 39.284 57.5749 37.9748C56.0176 36.4149 54.211 35.0948 52.3172 33.9728C48.3941 31.6478 44.2046 30.3817 39.7369 29.6174C35.3931 28.8741 31.0733 28.0305 26.7348 27.2636C25.1685 26.9867 23.5782 26.6337 22.0815 26.0678C22.7537 26.4253 23.4435 26.7374 24.0898 27.0263C29.0414 29.2416 34.3531 29.8618 39.5352 31.2848C43.9407 32.4944 48.1232 34.5776 51.6839 37.4471C53.3854 38.8188 55.0026 40.3342 56.2246 42.1595C57.4548 43.9961 58.0435 46.0168 58.5379 48.1359C59.4867 46.5789 60.2951 44.9284 60.9621 43.2067ZM48.7426 58.1491C50.3516 56.4371 50.3396 53.2458 50.2703 51.0552C50.1719 47.9457 49.1651 44.7637 47.5962 42.0869C44.7529 37.2356 39.8035 32.7055 34.5054 30.7017C33.0656 30.3686 31.6153 30.037 30.1612 29.6578C26.4676 28.6945 21.3102 27.2681 18.7782 24.1273C17.8227 22.9423 17.5342 21.544 18.0896 20.1042C19.0181 17.6973 21.0789 17.5225 23.3054 17.027C23.317 16.9989 23.3297 16.972 23.3413 16.9443C21.891 17.3403 20.3206 17.5323 19.0204 18.3339C17.3062 19.3909 15.4659 21.4737 16.8066 23.5228C18.2741 25.7658 21.6287 27.2595 24.0026 28.1929C28.1769 29.8345 32.6539 31.0303 36.2749 33.7942C40.0992 36.7132 42.4286 41.4698 43.6211 46.0396C44.9205 51.0211 44.6226 56.2201 42.9504 61.0627C44.9931 60.2929 46.9307 59.3115 48.7426 58.1491ZM42.2988 61.2985C44.5882 54.9753 44.4722 48.3559 41.5746 42.2217C40.3354 39.5984 38.7971 36.9332 36.5833 35.0121C34.4185 33.1333 31.7511 31.9311 29.1021 30.9071C24.9821 29.3146 19.5938 28.0466 16.7093 24.3889C17.9264 27.7917 21.5328 30.4269 24.3503 32.3754C27.7498 34.7269 31.3945 36.8217 34.2621 39.8458C36.9022 42.6296 39.2522 45.8498 40.5131 49.5019C41.9589 53.69 41.5053 57.9286 39.9761 62.016C40.7635 61.8075 41.5371 61.5665 42.2988 61.2985ZM30.1062 62.9307C32.2893 60.8906 32.3399 55.9293 31.8357 53.2023C31.1729 49.6206 29.1799 46.4442 27.0907 43.5256C25.8257 41.7583 24.4016 40.2145 22.9304 38.6972C22.3188 38.1769 21.714 37.6533 21.1264 37.1196C17.9249 34.2119 14.2092 30.3177 13.2536 25.9395C12.5171 22.5628 13.854 19.9976 16.3601 17.9683C15.9618 18.0996 15.5677 18.2415 15.1789 18.3953C15.1778 18.4361 15.1624 18.478 15.1224 18.5143C13.2967 20.166 11.77 22.2683 11.5863 24.8028C11.4208 27.0806 12.4512 29.3752 13.696 31.2279C16.2912 35.0892 20.3142 37.8109 23.2885 41.3732C25.8987 44.4995 27.8617 48.0528 28.4299 52.1327C28.9643 55.9697 27.8486 59.2326 25.8991 62.452C27.2573 62.7226 28.6481 62.9015 30.0639 62.9887C30.0759 62.9689 30.0864 62.9491 30.1062 62.9307ZM17.8755 42.7894C18.5986 45.5886 19.3718 48.4083 18.9672 51.3243C18.6019 53.9554 17.4106 56.4001 15.9031 58.5626C17.4215 59.4848 19.0294 60.2723 20.7042 60.9269C21.5486 59.2097 22.4315 57.7475 22.6942 55.7912C22.967 53.7551 23.104 51.6435 22.6991 49.6153C21.9337 45.7828 19.7783 42.2744 17.3253 39.2945C17.6517 40.4214 17.8182 41.615 17.8755 42.7894ZM15.244 58.1404C16.4641 56.0894 17.7407 54.1421 18.1794 51.7412C18.5649 49.6299 18.2797 47.5389 17.8306 45.4744C17.5109 49.5592 15.9967 54.0478 11.9864 55.7388C13.0167 56.6082 14.1055 57.4091 15.244 58.1404ZM13.9202 33.5154C16.143 36.6855 18.9496 39.4334 20.8341 42.8343C22.4139 45.6855 23.6059 48.8552 23.6082 52.1477C23.6093 53.8292 23.4802 55.7788 22.887 57.3702C22.4053 58.6633 21.5852 59.7943 21.0055 61.0459C22.4068 61.5762 23.8559 62.0074 25.3455 62.3326C27.7285 57.7804 28.5103 53.3981 26.6334 48.4405C24.8777 43.8026 21.2499 40.3103 17.7864 36.9097C14.9685 34.1431 12.1559 31.0898 11.3359 27.0844C10.6697 23.8297 12.071 20.9785 14.3199 18.7599C13.9075 18.9466 13.5018 19.1476 13.1051 19.3669C12.7798 19.5466 12.4789 19.7371 12.196 19.9354C12.1754 19.9882 12.1398 20.0346 12.0762 20.0619C12.0361 20.0788 11.9965 20.0904 11.9564 20.1061C10.883 20.9104 10.1345 21.8509 9.67189 22.8877C8.77252 26.4986 11.9658 30.7275 13.9202 33.5154ZM6.21289 49.3069C8.64377 48.0086 10.9627 47.2436 12.4946 44.6626C14.0972 41.963 14.1115 39.1669 12.8273 36.367C11.1521 32.7137 8.07451 29.1874 8.42782 24.9117C8.58127 23.0557 9.3736 21.6047 10.5522 20.459C9.80587 20.5496 9.04649 20.5114 8.26389 20.4182C6.70918 20.2334 5.01373 20.0627 3.47549 19.7131C1.84966 23.482 0.945057 27.6345 0.945057 32C0.945057 38.4079 2.88713 44.3614 6.21289 49.3069ZM10.2718 8.51537C10.2767 8.40346 10.3497 8.29979 10.496 8.30241C16.1774 3.14386 23.7216 0 32 0C49.673 0 64 14.3266 64 32C64 49.673 49.673 64 32 64C14.327 64 3.05176e-05 49.673 3.05176e-05 32C3.05176e-05 22.7166 3.95717 14.3607 10.2718 8.51537Z" fill="#2083CB"/>
</svg>
