<svg width="128" height="128" viewBox="0 0 128 128" fill="none" xmlns="http://www.w3.org/2000/svg">
<rect width="128" height="128" fill="#230000"/>
<path fill-rule="evenodd" clip-rule="evenodd" d="M75.0457 29L52.9543 29C50.7442 29 48.6246 29.878 47.0618 31.4408L31.4408 47.0617C29.878 48.6245 29 50.7442 29 52.9543L29 75.0457C29 77.2558 29.878 79.3754 31.4408 80.9382L47.0617 96.5592C48.6246 98.122 50.7442 99 52.9543 99L75.0457 99C77.2558 99 79.3754 98.122 80.9382 96.5592L96.5592 80.9382C98.122 79.3754 99 77.2558 99 75.0457L99 52.9543C99 50.7442 98.122 48.6246 96.5592 47.0618L80.9382 31.4408C79.3754 29.878 77.2558 29 75.0457 29ZM52.9543 24C49.4181 24 46.0267 25.4048 43.5262 27.9052L27.9052 43.5262C25.4048 46.0267 24 49.4181 24 52.9543L24 75.0457C24 78.5819 25.4048 81.9733 27.9052 84.4738L43.5262 100.095C46.0267 102.595 49.4181 104 52.9543 104L75.0457 104C78.5819 104 81.9733 102.595 84.4738 100.095L100.095 84.4738C102.595 81.9733 104 78.5819 104 75.0457L104 52.9543C104 49.4181 102.595 46.0267 100.095 43.5262L84.4738 27.9052C81.9733 25.4048 78.5819 24 75.0457 24L52.9543 24Z" fill="#FAF5EC"/>
<path d="M58.9118 48.4076C57.5622 47.054 56.8042 45.2177 56.8042 43.3028C56.8042 41.388 57.5622 39.5518 58.9118 38.1981C60.2607 36.8439 62.0913 36.0833 63.9992 36.0833C73.521 36.4122 73.5235 50.1923 63.9992 50.5223C62.0913 50.5223 60.2613 49.7617 58.9118 48.4076Z" fill="#FAF5EC"/>
<path d="M38.2293 52.5378H89.7712L89.7719 52.5372C90.798 52.5316 91.754 53.0589 92.2987 53.9317C92.8431 54.8046 92.8987 55.8982 92.4452 56.8217C91.9916 57.7456 91.0939 58.3679 90.0725 58.4667L75.6814 59.9596C75.1992 60.0094 74.7521 60.2368 74.4266 60.5978C74.1011 60.9587 73.9204 61.4276 73.9187 61.914L73.8305 88.9219C73.8202 89.8059 73.4257 90.6413 72.7508 91.2089C72.0754 91.7771 71.1868 92.0203 70.3178 91.8759C69.6501 91.7543 69.0403 91.4165 68.5824 90.9141C68.1242 90.4118 67.8432 89.7723 67.782 89.0942L66.1956 74.1601C66.1091 73.4352 65.6731 72.7996 65.029 72.4601C64.3853 72.1202 63.6157 72.1202 62.972 72.4601C62.3278 72.7996 61.8918 73.4352 61.8053 74.1601L60.2057 89.2218C60.0747 90.2634 59.4177 91.1637 58.4674 91.6034C57.517 92.0426 56.4082 91.9592 55.5337 91.3821C54.6596 90.8053 54.144 89.8165 54.1697 88.7671H54.1701L54.0823 61.9308C54.0806 61.4397 53.8977 60.9665 53.5697 60.6026C53.2411 60.2381 52.7902 60.0087 52.3032 59.9584L37.9286 58.4667C36.9067 58.3688 36.0087 57.7465 35.5551 56.8226C35.1012 55.8987 35.1568 54.8051 35.7016 53.9323C36.2464 53.059 37.2027 52.5317 38.2293 52.5378Z" fill="#FAF5EC"/>
<g opacity="0.5">
<path d="M40.0476 44.2569C40.1565 43.5138 40.565 42.8486 41.1775 42.4171C41.7043 42.0415 42.3377 41.8461 42.9839 41.8603C43.6302 41.874 44.2551 42.0962 44.7651 42.4941H44.7656L54.0711 50.6088H43.9116L40.6018 46.3445C40.1393 45.7544 39.9389 44.9994 40.0476 44.2569Z" fill="#FAF5EC"/>
<path d="M83.2346 43.4566L75.0324 50.6087H84.8369L87.3984 47.307C87.7765 46.8279 87.983 46.2344 87.9834 45.6225C88.0596 43.3058 84.9828 41.9534 83.2346 43.4566Z" fill="#FAF5EC"/>
<path d="M75.7799 82.4807L75.8373 70.9867L83.8572 80.6037C84.5719 81.4563 84.8131 82.6119 84.4996 83.6806C84.1857 84.7494 83.3591 85.5891 82.2978 85.9169C81.2365 86.2448 80.0824 86.0175 79.2237 85.311H79.2241L75.7799 82.4807Z" fill="#FAF5EC"/>
<path d="M44.4934 83.6633C44.1774 82.6056 44.4048 81.4595 45.1003 80.6039L52.19 72.0944L52.2285 83.2606L49.7343 85.3109C48.873 85.9984 47.7282 86.2124 46.6781 85.8824C45.628 85.5519 44.8099 84.7208 44.4934 83.6633Z" fill="#FAF5EC"/>
</g>
</svg>
