<svg width="212" height="96" viewBox="0 0 212 96" fill="none" xmlns="http://www.w3.org/2000/svg">
<rect opacity="0.75" x="-0.5" y="0.5" width="159" height="95" rx="1.5" transform="matrix(-1 0 0 1 211 0)" fill="white" stroke="#6B360D"/>
<path opacity="0.75" d="M72.968 10.128V13.56H76.184V10.128H77.312V18H76.184V14.58H72.968V18H71.84V10.128H72.968ZM81.6524 11.904C82.3484 11.904 82.9044 12.12 83.3204 12.552C83.7364 12.976 83.9444 13.544 83.9444 14.256V15.792C83.9444 16.504 83.7364 17.076 83.3204 17.508C82.9044 17.932 82.3484 18.144 81.6524 18.144C80.9884 18.144 80.4444 17.944 80.0204 17.544V20.04H78.9404V12.048H79.9124L79.9604 12.552C80.3924 12.12 80.9564 11.904 81.6524 11.904ZM82.8524 14.304C82.8524 13.88 82.7244 13.544 82.4684 13.296C82.2204 13.048 81.8804 12.924 81.4484 12.924C81.1364 12.924 80.8524 12.996 80.5964 13.14C80.3484 13.276 80.1564 13.468 80.0204 13.716V16.344C80.1564 16.584 80.3484 16.776 80.5964 16.92C80.8444 17.056 81.1284 17.124 81.4484 17.124C81.8804 17.124 82.2204 17 82.4684 16.752C82.7244 16.504 82.8524 16.168 82.8524 15.744V14.304ZM90.9194 17.016V18H90.2834C89.9954 18 89.7434 17.952 89.5274 17.856C89.3194 17.752 89.1594 17.604 89.0474 17.412C88.6074 17.9 87.9834 18.144 87.1754 18.144C86.5354 18.144 86.0274 17.992 85.6514 17.688C85.2754 17.384 85.0874 16.964 85.0874 16.428C85.0874 15.94 85.2474 15.556 85.5674 15.276C85.8874 14.996 86.3794 14.812 87.0434 14.724L88.8314 14.484V14.1C88.8314 13.716 88.7194 13.424 88.4954 13.224C88.2794 13.024 87.9594 12.924 87.5354 12.924C87.1194 12.924 86.7954 13.024 86.5634 13.224C86.3394 13.416 86.2274 13.688 86.2274 14.04V14.124H85.1354V14.04C85.1354 13.384 85.3514 12.864 85.7834 12.48C86.2234 12.096 86.8194 11.904 87.5714 11.904C88.3234 11.904 88.9034 12.1 89.3114 12.492C89.7194 12.876 89.9234 13.42 89.9234 14.124V16.416C89.9234 16.816 90.1154 17.016 90.4994 17.016H90.9194ZM87.2474 17.208C87.5994 17.208 87.9114 17.132 88.1834 16.98C88.4634 16.828 88.6794 16.62 88.8314 16.356V15.336L87.2234 15.576C86.5194 15.688 86.1674 15.968 86.1674 16.416C86.1674 16.664 86.2634 16.86 86.4554 17.004C86.6554 17.14 86.9194 17.208 87.2474 17.208ZM95.8525 14.964C96.1725 15.084 96.4165 15.26 96.5845 15.492C96.7605 15.724 96.8485 15.996 96.8485 16.308V16.476C96.8485 16.956 96.6725 17.332 96.3205 17.604C95.9685 17.868 95.4485 18 94.7605 18H91.7725V12.048H94.6165C95.3125 12.048 95.8325 12.18 96.1765 12.444C96.5205 12.7 96.6925 13.072 96.6925 13.56V13.716C96.6925 14.012 96.6205 14.268 96.4765 14.484C96.3325 14.692 96.1245 14.852 95.8525 14.964ZM92.8525 12.924V14.568H94.6885C94.9765 14.568 95.2005 14.5 95.3605 14.364C95.5285 14.22 95.6125 14.032 95.6125 13.8V13.668C95.6125 13.436 95.5285 13.256 95.3605 13.128C95.2005 12.992 94.9725 12.924 94.6765 12.924H92.8525ZM95.7685 16.2C95.7685 15.952 95.6845 15.764 95.5165 15.636C95.3485 15.5 95.1125 15.432 94.8085 15.432H92.8525V17.124H94.8205C95.1085 17.124 95.3365 17.056 95.5045 16.92C95.6805 16.776 95.7685 16.584 95.7685 16.344V16.2ZM99.2032 12.048V16.284L102.011 12.048H103.007V18H101.951V13.764L99.1552 18H98.1592V12.048H99.2032ZM103.64 13.032V12.048H108.692V13.032H106.712V18H105.62V13.032H103.64ZM111.761 18.144C111.257 18.144 110.813 18.044 110.429 17.844C110.045 17.644 109.749 17.364 109.541 17.004C109.333 16.636 109.229 16.212 109.229 15.732V14.316C109.229 13.836 109.333 13.416 109.541 13.056C109.749 12.688 110.045 12.404 110.429 12.204C110.813 12.004 111.257 11.904 111.761 11.904C112.233 11.904 112.653 12.004 113.021 12.204C113.397 12.396 113.689 12.664 113.897 13.008C114.105 13.352 114.209 13.744 114.209 14.184V14.316H113.129V14.184C113.129 13.816 113.001 13.516 112.745 13.284C112.489 13.044 112.161 12.924 111.761 12.924C111.313 12.924 110.961 13.052 110.705 13.308C110.449 13.556 110.321 13.9 110.321 14.34V15.708C110.321 16.148 110.449 16.496 110.705 16.752C110.961 17 111.313 17.124 111.761 17.124C112.161 17.124 112.489 17.012 112.745 16.788C113.001 16.556 113.129 16.26 113.129 15.9V15.768H114.209V15.9C114.209 16.572 113.985 17.116 113.537 17.532C113.089 17.94 112.497 18.144 111.761 18.144ZM120.374 18H119.282V15.78H118.286L116.486 18H115.274V17.856L116.99 15.744C116.462 15.664 116.046 15.476 115.742 15.18C115.446 14.876 115.298 14.496 115.298 14.04V13.872C115.298 13.312 115.498 12.868 115.898 12.54C116.298 12.212 116.83 12.048 117.494 12.048H120.374V18ZM119.282 14.856V13.02H117.506C117.162 13.02 116.89 13.096 116.69 13.248C116.49 13.4 116.39 13.612 116.39 13.884V14.028C116.39 14.292 116.486 14.496 116.678 14.64C116.878 14.784 117.154 14.856 117.506 14.856H119.282Z" fill="#6B360D"/>
<path d="M73.5 85.73V86H71.664L70.26 83.012H63.6L62.196 86H60.36V85.73L65.94 74.192H67.92L73.5 85.73ZM69.486 81.392L66.93 75.974L64.374 81.392H69.486ZM85.6236 85.748V86H83.6616L79.7376 82.256H77.1096V86H75.3816V77.09H77.1096V80.744H79.6836L83.3916 77.09H85.3896V77.342L81.2676 81.464L85.6236 85.748ZM86.425 78.638V77.09H96.901V78.638H92.563V86H90.835V78.638H86.425ZM100.311 77.09V83.894L106.845 77.09H108.429V86H106.773V79.196L100.239 86H98.655V77.09H100.311ZM120.217 81.482C120.709 81.638 121.081 81.878 121.333 82.202C121.597 82.514 121.729 82.898 121.729 83.354V83.534C121.729 84.314 121.423 84.92 120.811 85.352C120.211 85.784 119.359 86 118.255 86H111.487V77.09H118.021C119.125 77.09 119.977 77.3 120.577 77.72C121.189 78.128 121.495 78.716 121.495 79.484V79.664C121.495 80.492 121.069 81.098 120.217 81.482ZM113.215 78.422V80.834H117.949C118.513 80.834 118.945 80.738 119.245 80.546C119.557 80.342 119.713 80.054 119.713 79.682V79.502C119.713 79.154 119.563 78.89 119.263 78.71C118.963 78.518 118.525 78.422 117.949 78.422H113.215ZM119.947 83.318C119.947 82.958 119.797 82.682 119.497 82.49C119.197 82.298 118.765 82.202 118.201 82.202H113.215V84.65H118.201C118.765 84.65 119.197 84.554 119.497 84.362C119.797 84.158 119.947 83.87 119.947 83.498V83.318ZM135.534 84.47V86H134.346C133.758 86 133.266 85.886 132.87 85.658C132.474 85.43 132.198 85.106 132.042 84.686C131.562 85.202 130.986 85.586 130.314 85.838C129.642 86.09 128.85 86.216 127.938 86.216C126.654 86.216 125.664 85.994 124.968 85.55C124.272 85.094 123.924 84.446 123.924 83.606C123.924 82.886 124.194 82.31 124.734 81.878C125.274 81.446 126.066 81.176 127.11 81.068L131.916 80.564C131.88 79.892 131.598 79.382 131.07 79.034C130.542 78.686 129.786 78.512 128.802 78.512C127.854 78.512 127.098 78.674 126.534 78.998C125.97 79.322 125.688 79.754 125.688 80.294V80.366H123.978V80.294C123.978 79.622 124.176 79.028 124.572 78.512C124.98 77.984 125.55 77.582 126.282 77.306C127.014 77.018 127.86 76.874 128.82 76.874C130.344 76.874 131.526 77.21 132.366 77.882C133.206 78.554 133.626 79.496 133.626 80.708V83.48C133.626 83.792 133.722 84.038 133.914 84.218C134.106 84.386 134.382 84.47 134.742 84.47H135.534ZM127.902 84.686C128.874 84.686 129.708 84.536 130.404 84.236C131.1 83.924 131.604 83.486 131.916 82.922V81.968L127.488 82.436C126.864 82.496 126.396 82.622 126.084 82.814C125.784 83.006 125.634 83.27 125.634 83.606C125.634 84.326 126.39 84.686 127.902 84.686ZM148.527 84.47V88.304H146.817V86H137.151V77.09H138.879V84.47H145.035V77.09H146.745V84.47H148.527ZM152.026 77.09V83.894L158.56 77.09H160.144V86H158.488V79.196L151.954 86H150.37V77.09H152.026ZM172.766 85.982H171.038V83.066H168.374L164.81 86H162.578V85.784L165.89 83.066C164.822 83.018 163.994 82.748 163.406 82.256C162.818 81.752 162.524 81.068 162.524 80.204V80.006C162.524 79.082 162.842 78.368 163.478 77.864C164.126 77.348 165.026 77.09 166.178 77.09H172.766V85.982ZM171.038 81.59V78.602H166.304C164.972 78.602 164.306 79.07 164.306 80.006V80.204C164.306 81.128 164.972 81.59 166.304 81.59H171.038Z" fill="#6B360D"/>
<path opacity="0.75" d="M198.184 81.104C198.688 81.104 199.132 81.2 199.516 81.392C199.908 81.584 200.208 81.856 200.416 82.208C200.632 82.56 200.74 82.964 200.74 83.42V83.804C200.74 84.26 200.628 84.664 200.404 85.016C200.188 85.368 199.88 85.644 199.48 85.844C199.088 86.036 198.636 86.132 198.124 86.132C197.596 86.132 197.128 86.028 196.72 85.82C196.312 85.612 195.996 85.32 195.772 84.944C195.548 84.568 195.436 84.136 195.436 83.648V80.564C195.436 80.052 195.548 79.604 195.772 79.22C195.996 78.828 196.308 78.528 196.708 78.32C197.116 78.104 197.584 77.996 198.112 77.996C198.616 77.996 199.064 78.084 199.456 78.26C199.848 78.436 200.152 78.684 200.368 79.004C200.584 79.324 200.692 79.692 200.692 80.108V80.276H199.84V80.108C199.84 79.716 199.68 79.4 199.36 79.16C199.048 78.912 198.632 78.788 198.112 78.788C197.56 78.788 197.12 78.948 196.792 79.268C196.464 79.58 196.3 80.004 196.3 80.54V81.764C196.532 81.556 196.808 81.396 197.128 81.284C197.456 81.164 197.808 81.104 198.184 81.104ZM199.876 83.432C199.876 82.944 199.724 82.568 199.42 82.304C199.116 82.032 198.684 81.896 198.124 81.896C197.7 81.896 197.328 81.976 197.008 82.136C196.696 82.296 196.46 82.516 196.3 82.796V83.636C196.3 84.148 196.468 84.56 196.804 84.872C197.14 85.184 197.58 85.34 198.124 85.34C198.66 85.34 199.084 85.204 199.396 84.932C199.716 84.66 199.876 84.288 199.876 83.816V83.432Z" fill="#6B360D"/>
<g opacity="0.75">
<rect width="2" height="4" transform="matrix(-1 0 0 1 67 14)" fill="#6B360D"/>
<rect width="2" height="2" transform="matrix(-1 0 0 1 63 16)" fill="#6B360D"/>
</g>
<g opacity="0.75">
<rect x="203" y="13.5" width="1" height="10" rx="0.5" transform="rotate(90 203 13.5)" fill="#6B360D"/>
</g>
<g opacity="0.25" clip-path="url(#clip0_1136_49992)">
<g clip-path="url(#clip1_1136_49992)">
<rect x="-0.5" y="0.5" width="203" height="95" rx="1.5" transform="matrix(-1 0 0 1 47 0)" fill="white" stroke="#6B360D"/>
<path opacity="0.05" d="M14 96L-40.6667 0H-73L-18.3333 96H14Z" fill="#6B360D"/>
<path opacity="0.1" d="M-22.6667 0L32 96H22L-32.6667 0H-22.6667Z" fill="#6B360D"/>
<g opacity="0.75">
<path d="M30.2072 17.0846C30.2071 17.0806 30.207 17.0766 30.207 17.0726C30.207 17.0726 30.207 17.0725 30.207 17.0726C30.207 17.0721 30.207 17.0715 30.207 17.0711C30.207 17.0711 30.207 17.071 30.207 17.0711L30.207 12.0711C30.207 11.7949 30.4309 11.5711 30.707 11.5711C30.9832 11.5711 31.207 11.7949 31.207 12.0711V15.8639L36.7174 10.3535C36.9127 10.1583 37.2293 10.1583 37.4245 10.3535C37.6198 10.5488 37.6198 10.8654 37.4245 11.0606L31.9141 16.5711L35.707 16.5711C35.9832 16.5711 36.207 16.7949 36.207 17.0711C36.207 17.3472 35.9832 17.5711 35.707 17.5711L30.707 17.5711C30.4354 17.5711 30.2144 17.3545 30.2072 17.0846Z" fill="#6B360D"/>
</g>
<path opacity="0.75" d="M34.1226 81.008C34.8906 81.008 35.5026 81.212 35.9586 81.62C36.4226 82.028 36.6546 82.572 36.6546 83.252V83.816C36.6546 84.52 36.4186 85.084 35.9466 85.508C35.4746 85.924 34.8466 86.132 34.0626 86.132C33.2706 86.132 32.6426 85.956 32.1786 85.604C31.7146 85.244 31.4826 84.752 31.4826 84.128V84.008H32.3346V84.128C32.3346 84.504 32.4866 84.8 32.7906 85.016C33.0946 85.232 33.5066 85.34 34.0266 85.34C34.5706 85.34 34.9986 85.208 35.3106 84.944C35.6226 84.672 35.7786 84.3 35.7786 83.828V83.264C35.7786 82.816 35.6186 82.464 35.2986 82.208C34.9866 81.944 34.5626 81.812 34.0266 81.812C33.5546 81.812 33.1666 81.92 32.8626 82.136C32.5586 82.344 32.3946 82.62 32.3706 82.964H31.5306L31.7826 78.128H36.3426V78.932H32.5626L32.4306 81.572C32.8546 81.196 33.4186 81.008 34.1226 81.008Z" fill="#6B360D"/>
</g>
</g>
<defs>
<clipPath id="clip0_1136_49992">
<rect width="48" height="96" fill="white"/>
</clipPath>
<clipPath id="clip1_1136_49992">
<rect width="204" height="96" fill="white" transform="translate(-156)"/>
</clipPath>
</defs>
</svg>
