<svg width="256" height="60" viewBox="0 0 256 60" fill="none" xmlns="http://www.w3.org/2000/svg">
<g clip-path="url(#clip0_1136_50029)">
<rect opacity="0.75" width="204" height="60" rx="2" transform="matrix(-1 0 0 1 256 0)" fill="#6B360D"/>
<path opacity="0.75" d="M87.392 16.98V19.632H86.276V18H81.332V19.632H80.216V16.98H80.948C81.156 16.62 81.312 16.204 81.416 15.732C81.52 15.252 81.576 14.748 81.584 14.22L81.644 10.128H86.492V16.98H87.392ZM82.64 14.304C82.616 15.408 82.428 16.3 82.076 16.98H85.376V11.148H82.7L82.64 14.304ZM89.2618 15.42V15.708C89.2618 16.156 89.3898 16.508 89.6458 16.764C89.9098 17.012 90.2698 17.136 90.7258 17.136C91.1098 17.136 91.4298 17.04 91.6858 16.848C91.9498 16.656 92.0858 16.42 92.0938 16.14H93.1738C93.1418 16.732 92.9018 17.216 92.4538 17.592C92.0058 17.96 91.4298 18.144 90.7258 18.144C89.9578 18.144 89.3418 17.928 88.8778 17.496C88.4138 17.056 88.1818 16.472 88.1818 15.744V14.316C88.1818 13.836 88.2858 13.416 88.4938 13.056C88.7018 12.688 88.9978 12.404 89.3818 12.204C89.7658 12.004 90.2058 11.904 90.7018 11.904C91.4538 11.904 92.0538 12.124 92.5018 12.564C92.9498 13.004 93.1738 13.584 93.1738 14.304V15.42H89.2618ZM90.7018 12.912C90.2618 12.912 89.9098 13.044 89.6458 13.308C89.3898 13.564 89.2618 13.912 89.2618 14.352V14.52H92.0938V14.352C92.0938 13.912 91.9658 13.564 91.7098 13.308C91.4618 13.044 91.1258 12.912 90.7018 12.912ZM99.3398 18H98.2598V13.032H95.9678L95.9078 15.852C95.8918 16.588 95.7398 17.132 95.4518 17.484C95.1718 17.828 94.7398 18 94.1558 18H93.8318V17.016H94.0238C94.3198 17.016 94.5318 16.916 94.6598 16.716C94.7958 16.516 94.8718 16.192 94.8878 15.744L94.9718 12.048H99.3398V18ZM106.4 17.016V18H105.764C105.476 18 105.224 17.952 105.008 17.856C104.8 17.752 104.64 17.604 104.528 17.412C104.088 17.9 103.464 18.144 102.656 18.144C102.016 18.144 101.508 17.992 101.132 17.688C100.756 17.384 100.568 16.964 100.568 16.428C100.568 15.94 100.728 15.556 101.048 15.276C101.368 14.996 101.86 14.812 102.524 14.724L104.312 14.484V14.1C104.312 13.716 104.2 13.424 103.976 13.224C103.76 13.024 103.44 12.924 103.016 12.924C102.6 12.924 102.276 13.024 102.044 13.224C101.82 13.416 101.708 13.688 101.708 14.04V14.124H100.616V14.04C100.616 13.384 100.832 12.864 101.264 12.48C101.704 12.096 102.3 11.904 103.052 11.904C103.804 11.904 104.384 12.1 104.792 12.492C105.2 12.876 105.404 13.42 105.404 14.124V16.416C105.404 16.816 105.596 17.016 105.98 17.016H106.4ZM102.728 17.208C103.08 17.208 103.392 17.132 103.664 16.98C103.944 16.828 104.16 16.62 104.312 16.356V15.336L102.704 15.576C102 15.688 101.648 15.968 101.648 16.416C101.648 16.664 101.744 16.86 101.936 17.004C102.136 17.14 102.4 17.208 102.728 17.208ZM111.825 11.904C112.561 11.904 113.153 12.128 113.601 12.576C114.049 13.016 114.273 13.6 114.273 14.328V15.732C114.273 16.46 114.049 17.044 113.601 17.484C113.153 17.924 112.561 18.144 111.825 18.144C111.081 18.144 110.485 17.924 110.037 17.484C109.589 17.044 109.365 16.46 109.365 15.732V15.516H108.333V18H107.253V12.048H108.333V14.52H109.365V14.328C109.365 13.592 109.589 13.004 110.037 12.564C110.485 12.124 111.081 11.904 111.825 11.904ZM113.181 14.364C113.181 13.916 113.057 13.564 112.809 13.308C112.569 13.052 112.241 12.924 111.825 12.924C111.401 12.924 111.065 13.052 110.817 13.308C110.569 13.564 110.445 13.916 110.445 14.364V15.708C110.445 16.14 110.569 16.484 110.817 16.74C111.065 16.996 111.401 17.124 111.825 17.124C112.241 17.124 112.569 16.996 112.809 16.74C113.057 16.484 113.181 16.14 113.181 15.708V14.364Z" fill="white"/>
<g opacity="0.75">
<circle cx="242" cy="14" r="2" fill="white"/>
</g>
<path opacity="0.75" d="M243.476 45.968C243.868 46.136 244.172 46.372 244.388 46.676C244.612 46.972 244.724 47.316 244.724 47.708V47.996C244.724 48.42 244.612 48.796 244.388 49.124C244.164 49.444 243.844 49.692 243.428 49.868C243.02 50.044 242.544 50.132 242 50.132C241.176 50.132 240.516 49.94 240.02 49.556C239.524 49.164 239.276 48.644 239.276 47.996V47.708C239.276 47.316 239.384 46.972 239.6 46.676C239.816 46.372 240.12 46.136 240.512 45.968C240.168 45.8 239.904 45.572 239.72 45.284C239.536 44.996 239.444 44.664 239.444 44.288V44.06C239.444 43.42 239.672 42.916 240.128 42.548C240.584 42.18 241.208 41.996 242 41.996C242.784 41.996 243.404 42.184 243.86 42.56C244.316 42.928 244.544 43.428 244.544 44.06V44.288C244.544 44.664 244.452 44.996 244.268 45.284C244.084 45.572 243.82 45.8 243.476 45.968ZM240.296 44.264C240.296 44.704 240.44 45.04 240.728 45.272C241.016 45.496 241.44 45.608 242 45.608C242.56 45.608 242.984 45.496 243.272 45.272C243.56 45.04 243.704 44.704 243.704 44.264V44.108C243.704 43.676 243.556 43.348 243.26 43.124C242.972 42.892 242.552 42.776 242 42.776C241.44 42.776 241.016 42.892 240.728 43.124C240.44 43.348 240.296 43.676 240.296 44.108V44.264ZM243.86 47.744C243.86 47.32 243.696 46.992 243.368 46.76C243.04 46.52 242.584 46.4 242 46.4C241.416 46.4 240.956 46.52 240.62 46.76C240.292 46.992 240.128 47.32 240.128 47.744V48.008C240.128 48.424 240.292 48.752 240.62 48.992C240.948 49.224 241.408 49.34 242 49.34C242.584 49.34 243.04 49.224 243.368 48.992C243.696 48.76 243.86 48.432 243.86 48.008V47.744Z" fill="white"/>
<path d="M72.798 39.272C74.718 39.272 76.194 39.686 77.226 40.514C78.258 41.33 78.774 42.506 78.774 44.042V44.168C78.774 45.692 78.258 46.862 77.226 47.678C76.194 48.494 74.718 48.902 72.798 48.902H70.764V50.216H68.982V48.902H66.93C64.998 48.902 63.516 48.5 62.484 47.696C61.464 46.88 60.954 45.704 60.954 44.168V44.042C60.954 42.506 61.464 41.33 62.484 40.514C63.516 39.686 64.998 39.272 66.93 39.272H68.982V37.976H70.764V39.272H72.798ZM62.772 44.204C62.772 45.26 63.108 46.04 63.78 46.544C64.452 47.036 65.502 47.282 66.93 47.282H68.982V40.892H66.93C65.502 40.892 64.452 41.144 63.78 41.648C63.108 42.152 62.772 42.944 62.772 44.024V44.204ZM76.956 44.024C76.956 42.956 76.614 42.17 75.93 41.666C75.258 41.15 74.214 40.892 72.798 40.892H70.764V47.282H72.798C74.226 47.282 75.276 47.036 75.948 46.544C76.62 46.04 76.956 45.26 76.956 44.204V44.024ZM85.9147 50.216C84.8227 50.216 83.8747 50.036 83.0707 49.676C82.2667 49.304 81.6487 48.782 81.2167 48.11C80.7847 47.426 80.5687 46.628 80.5687 45.716V45.41C80.5687 44.486 80.7847 43.682 81.2167 42.998C81.6487 42.314 82.2667 41.792 83.0707 41.432C83.8747 41.06 84.8227 40.874 85.9147 40.874C86.9947 40.874 87.9307 41.06 88.7227 41.432C89.5267 41.792 90.1387 42.314 90.5587 42.998C90.9907 43.682 91.2067 44.486 91.2067 45.41V45.716C91.2067 46.628 90.9907 47.426 90.5587 48.11C90.1387 48.782 89.5267 49.304 88.7227 49.676C87.9307 50.036 86.9947 50.216 85.9147 50.216ZM85.8967 48.632C87.0007 48.632 87.8647 48.374 88.4887 47.858C89.1127 47.342 89.4247 46.628 89.4247 45.716V45.41C89.4247 44.486 89.1127 43.766 88.4887 43.25C87.8647 42.722 87.0007 42.458 85.8967 42.458C84.7687 42.458 83.8927 42.716 83.2687 43.232C82.6567 43.748 82.3507 44.474 82.3507 45.41V45.716C82.3507 46.628 82.6627 47.342 83.2867 47.858C83.9227 48.374 84.7927 48.632 85.8967 48.632ZM95.3029 41.09V44.762H101.711V41.09H103.439V50H101.711V46.292H95.3029V50H93.5749V41.09H95.3029ZM111.157 50.216C110.065 50.216 109.117 50.036 108.313 49.676C107.509 49.304 106.891 48.782 106.459 48.11C106.027 47.426 105.811 46.628 105.811 45.716V45.41C105.811 44.486 106.027 43.682 106.459 42.998C106.891 42.314 107.509 41.792 108.313 41.432C109.117 41.06 110.065 40.874 111.157 40.874C112.237 40.874 113.173 41.06 113.965 41.432C114.769 41.792 115.381 42.314 115.801 42.998C116.233 43.682 116.449 44.486 116.449 45.41V45.716C116.449 46.628 116.233 47.426 115.801 48.11C115.381 48.782 114.769 49.304 113.965 49.676C113.173 50.036 112.237 50.216 111.157 50.216ZM111.139 48.632C112.243 48.632 113.107 48.374 113.731 47.858C114.355 47.342 114.667 46.628 114.667 45.716V45.41C114.667 44.486 114.355 43.766 113.731 43.25C113.107 42.722 112.243 42.458 111.139 42.458C110.011 42.458 109.135 42.716 108.511 43.232C107.899 43.748 107.593 44.474 107.593 45.41V45.716C107.593 46.628 107.905 47.342 108.529 47.858C109.165 48.374 110.035 48.632 111.139 48.632ZM127.547 45.482C128.039 45.638 128.411 45.878 128.663 46.202C128.927 46.514 129.059 46.898 129.059 47.354V47.534C129.059 48.314 128.753 48.92 128.141 49.352C127.541 49.784 126.689 50 125.585 50H118.817V41.09H125.351C126.455 41.09 127.307 41.3 127.907 41.72C128.519 42.128 128.825 42.716 128.825 43.484V43.664C128.825 44.492 128.399 45.098 127.547 45.482ZM120.545 42.422V44.834H125.279C125.843 44.834 126.275 44.738 126.575 44.546C126.887 44.342 127.043 44.054 127.043 43.682V43.502C127.043 43.154 126.893 42.89 126.593 42.71C126.293 42.518 125.855 42.422 125.279 42.422H120.545ZM127.277 47.318C127.277 46.958 127.127 46.682 126.827 46.49C126.527 46.298 126.095 46.202 125.531 46.202H120.545V48.65H125.531C126.095 48.65 126.527 48.554 126.827 48.362C127.127 48.158 127.277 47.87 127.277 47.498V47.318ZM142.864 48.47V50H141.676C141.088 50 140.596 49.886 140.2 49.658C139.804 49.43 139.528 49.106 139.372 48.686C138.892 49.202 138.316 49.586 137.644 49.838C136.972 50.09 136.18 50.216 135.268 50.216C133.984 50.216 132.994 49.994 132.298 49.55C131.602 49.094 131.254 48.446 131.254 47.606C131.254 46.886 131.524 46.31 132.064 45.878C132.604 45.446 133.396 45.176 134.44 45.068L139.246 44.564C139.21 43.892 138.928 43.382 138.4 43.034C137.872 42.686 137.116 42.512 136.132 42.512C135.184 42.512 134.428 42.674 133.864 42.998C133.3 43.322 133.018 43.754 133.018 44.294V44.366H131.308V44.294C131.308 43.622 131.506 43.028 131.902 42.512C132.31 41.984 132.88 41.582 133.612 41.306C134.344 41.018 135.19 40.874 136.15 40.874C137.674 40.874 138.856 41.21 139.696 41.882C140.536 42.554 140.956 43.496 140.956 44.708V47.48C140.956 47.792 141.052 48.038 141.244 48.218C141.436 48.386 141.712 48.47 142.072 48.47H142.864ZM135.232 48.686C136.204 48.686 137.038 48.536 137.734 48.236C138.43 47.924 138.934 47.486 139.246 46.922V45.968L134.818 46.436C134.194 46.496 133.726 46.622 133.414 46.814C133.114 47.006 132.964 47.27 132.964 47.606C132.964 48.326 133.72 48.686 135.232 48.686ZM154.291 49.982H152.563V47.066H149.899L146.335 50H144.103V49.784L147.415 47.066C146.347 47.018 145.519 46.748 144.931 46.256C144.343 45.752 144.049 45.068 144.049 44.204V44.006C144.049 43.082 144.367 42.368 145.003 41.864C145.651 41.348 146.551 41.09 147.703 41.09H154.291V49.982ZM152.563 45.59V42.602H147.829C146.497 42.602 145.831 43.07 145.831 44.006V44.204C145.831 45.128 146.497 45.59 147.829 45.59H152.563Z" fill="white"/>
<g opacity="0.75">
<rect width="2" height="8" transform="matrix(-1 0 0 1 75 10)" fill="white"/>
<rect width="2" height="6" transform="matrix(-1 0 0 1 71 12)" fill="white"/>
<rect width="2" height="4" transform="matrix(-1 0 0 1 67 14)" fill="white"/>
<rect width="2" height="2" transform="matrix(-1 0 0 1 63 16)" fill="white"/>
</g>
</g>
<g opacity="0.25" clip-path="url(#clip1_1136_50029)">
<g clip-path="url(#clip2_1136_50029)">
<rect opacity="0.75" width="128" height="60" rx="2" transform="matrix(-1 0 0 1 48 0)" fill="#6B360D"/>
<g opacity="0.75">
<path d="M30.5 10.5C30.5 10.2239 30.7239 10 31 10C31.2761 10 31.5 10.2239 31.5 10.5V17.5C31.5 17.7761 31.2761 18 31 18C30.7239 18 30.5 17.7761 30.5 17.5V10.5Z" fill="white"/>
<path d="M33.5 10.5C33.5 10.2239 33.7239 10 34 10C34.2761 10 34.5 10.2239 34.5 10.5V17.5C34.5 17.7761 34.2761 18 34 18C33.7239 18 33.5 17.7761 33.5 17.5V10.5Z" fill="white"/>
<path d="M37 10C36.7239 10 36.5 10.2239 36.5 10.5V17.5C36.5 17.7761 36.7239 18 37 18C37.2761 18 37.5 17.7761 37.5 17.5V10.5C37.5 10.2239 37.2761 10 37 10Z" fill="white"/>
</g>
<path opacity="0.75" d="M36.357 42.128V42.908C34.725 45.508 33.909 47.776 33.909 49.712V50H33.045V49.712C33.045 48.784 33.253 47.728 33.669 46.544C34.085 45.352 34.673 44.14 35.433 42.908H31.413V42.128H36.357Z" fill="white"/>
<path d="M-59.796 44.006C-59.16 44.246 -58.674 44.576 -58.338 44.996C-58.002 45.416 -57.834 45.902 -57.834 46.454V46.67C-57.834 47.798 -58.38 48.674 -59.472 49.298C-60.552 49.91 -62.094 50.216 -64.098 50.216C-66.27 50.216 -67.926 49.808 -69.066 48.992C-70.194 48.164 -70.758 46.958 -70.758 45.374V45.212H-68.94V45.374C-68.94 46.466 -68.55 47.27 -67.77 47.786C-66.978 48.29 -65.742 48.542 -64.062 48.542C-62.562 48.542 -61.452 48.386 -60.732 48.074C-60.012 47.762 -59.652 47.276 -59.652 46.616V46.418C-59.652 45.866 -59.922 45.476 -60.462 45.248C-61.002 45.008 -61.92 44.888 -63.216 44.888H-66.366V43.286H-63.342C-62.142 43.286 -61.278 43.16 -60.75 42.908C-60.21 42.656 -59.94 42.248 -59.94 41.684V41.486C-59.94 40.262 -61.362 39.65 -64.206 39.65C-65.79 39.65 -66.966 39.914 -67.734 40.442C-68.502 40.97 -68.886 41.768 -68.886 42.836V42.98H-70.686V42.836C-70.686 41.264 -70.128 40.064 -69.012 39.236C-67.884 38.396 -66.27 37.976 -64.17 37.976C-62.25 37.976 -60.762 38.276 -59.706 38.876C-58.65 39.476 -58.122 40.316 -58.122 41.396V41.63C-58.122 42.698 -58.68 43.49 -59.796 44.006ZM-44.2079 48.47V50H-45.3959C-45.9839 50 -46.4759 49.886 -46.8719 49.658C-47.2679 49.43 -47.5439 49.106 -47.6999 48.686C-48.1799 49.202 -48.7559 49.586 -49.4279 49.838C-50.0999 50.09 -50.8919 50.216 -51.8039 50.216C-53.0879 50.216 -54.0779 49.994 -54.7739 49.55C-55.4699 49.094 -55.8179 48.446 -55.8179 47.606C-55.8179 46.886 -55.5479 46.31 -55.0079 45.878C-54.4679 45.446 -53.6759 45.176 -52.6319 45.068L-47.8259 44.564C-47.8619 43.892 -48.1439 43.382 -48.6719 43.034C-49.1999 42.686 -49.9559 42.512 -50.9399 42.512C-51.8879 42.512 -52.6439 42.674 -53.2079 42.998C-53.7719 43.322 -54.0539 43.754 -54.0539 44.294V44.366H-55.7639V44.294C-55.7639 43.622 -55.5659 43.028 -55.1699 42.512C-54.7619 41.984 -54.1919 41.582 -53.4599 41.306C-52.7279 41.018 -51.8819 40.874 -50.9219 40.874C-49.3979 40.874 -48.2159 41.21 -47.3759 41.882C-46.5359 42.554 -46.1159 43.496 -46.1159 44.708V47.48C-46.1159 47.792 -46.0199 48.038 -45.8279 48.218C-45.6359 48.386 -45.3599 48.47 -44.9999 48.47H-44.2079ZM-51.8399 48.686C-50.8679 48.686 -50.0339 48.536 -49.3379 48.236C-48.6419 47.924 -48.1379 47.486 -47.8259 46.922V45.968L-52.2539 46.436C-52.8779 46.496 -53.3459 46.622 -53.6579 46.814C-53.9579 47.006 -54.1079 47.27 -54.1079 47.606C-54.1079 48.326 -53.3519 48.686 -51.8399 48.686ZM-25.1671 48.47V52.304H-26.8951V50H-42.5911V41.09H-40.8631V48.47H-35.6251V41.09H-33.8971V48.47H-28.6771V41.09H-26.9491V48.47H-25.1671ZM-21.5816 41.09V47.894L-15.0476 41.09H-13.4636V50H-15.1196V43.196L-21.6536 50H-23.2376V41.09H-21.5816ZM-12.2469 42.638V41.09H-1.77089V42.638H-6.10889V50H-7.83689V42.638H-12.2469ZM10.9171 48.47V50H9.72914C9.14114 50 8.64914 49.886 8.25314 49.658C7.85714 49.43 7.58114 49.106 7.42514 48.686C6.94514 49.202 6.36914 49.586 5.69714 49.838C5.02514 50.09 4.23314 50.216 3.32114 50.216C2.03714 50.216 1.04714 49.994 0.351141 49.55C-0.344859 49.094 -0.692859 48.446 -0.692859 47.606C-0.692859 46.886 -0.422859 46.31 0.117141 45.878C0.657141 45.446 1.44914 45.176 2.49314 45.068L7.29914 44.564C7.26314 43.892 6.98114 43.382 6.45314 43.034C5.92514 42.686 5.16914 42.512 4.18514 42.512C3.23714 42.512 2.48114 42.674 1.91714 42.998C1.35314 43.322 1.07114 43.754 1.07114 44.294V44.366H-0.638859V44.294C-0.638859 43.622 -0.440859 43.028 -0.0448593 42.512C0.363141 41.984 0.933141 41.582 1.66514 41.306C2.39714 41.018 3.24314 40.874 4.20314 40.874C5.72714 40.874 6.90914 41.21 7.74914 41.882C8.58914 42.554 9.00914 43.496 9.00914 44.708V47.48C9.00914 47.792 9.10514 48.038 9.29714 48.218C9.48914 48.386 9.76514 48.47 10.1251 48.47H10.9171ZM3.28514 48.686C4.25714 48.686 5.09114 48.536 5.78714 48.236C6.48314 47.924 6.98714 47.486 7.29914 46.922V45.968L2.87114 46.436C2.24714 46.496 1.77914 46.622 1.46714 46.814C1.16714 47.006 1.01714 47.27 1.01714 47.606C1.01714 48.326 1.77314 48.686 3.28514 48.686Z" fill="white"/>
</g>
</g>
<defs>
<clipPath id="clip0_1136_50029">
<rect width="204" height="60" fill="white" transform="translate(52)"/>
</clipPath>
<clipPath id="clip1_1136_50029">
<rect width="48" height="60" fill="white"/>
</clipPath>
<clipPath id="clip2_1136_50029">
<rect width="128" height="60" fill="white" transform="translate(-80)"/>
</clipPath>
</defs>
</svg>
