<svg width="204" height="96" viewBox="0 0 204 96" fill="none" xmlns="http://www.w3.org/2000/svg">
<g clip-path="url(#clip0_1142_50023)">
<rect x="-0.5" y="0.5" width="203" height="95" rx="1.5" transform="matrix(-1 0 0 1 203 0)" fill="white" stroke="#6B360D"/>
<path opacity="0.05" d="M170 96L115.333 0H83L137.667 96H170Z" fill="#6B360D"/>
<path opacity="0.1" d="M133.333 0L188 96H178L123.333 0H133.333Z" fill="#6B360D"/>
<path d="M19.052 79.952C19.676 80.192 20.15 80.534 20.474 80.978C20.81 81.41 20.978 81.932 20.978 82.544V82.742C20.978 83.738 20.594 84.53 19.826 85.118C19.07 85.706 18.056 86 16.784 86H9.656V74.192H16.406C17.726 74.192 18.752 74.456 19.484 74.984C20.228 75.5 20.6 76.232 20.6 77.18V77.396C20.6 77.96 20.468 78.458 20.204 78.89C19.94 79.322 19.556 79.676 19.052 79.952ZM11.456 75.794V79.232H16.388C17.984 79.232 18.782 78.692 18.782 77.612V77.396C18.782 76.88 18.578 76.484 18.17 76.208C17.762 75.932 17.174 75.794 16.406 75.794H11.456ZM19.16 82.49C19.16 81.398 18.356 80.852 16.748 80.852H11.456V84.398H16.748C17.504 84.398 18.092 84.248 18.512 83.948C18.944 83.636 19.16 83.216 19.16 82.688V82.49ZM25.3908 77.09V80.762H31.7988V77.09H33.5268V86H31.7988V82.292H25.3908V86H23.6628V77.09H25.3908ZM46.9327 77.09V77.342L41.8567 86.99C41.4607 87.734 40.9987 88.262 40.4707 88.574C39.9547 88.898 39.2467 89.06 38.3467 89.06H36.5467V87.53H38.3467C38.8507 87.53 39.2287 87.452 39.4807 87.296C39.7327 87.152 39.9727 86.858 40.2007 86.414L40.3627 86.126L35.7187 77.342V77.09H37.5547L41.3347 84.434L45.0967 77.09H46.9327ZM50.8615 77.09V84.47H56.0995V77.09H57.8275V84.47H63.0475V77.09H64.7755V86H49.1335V77.09H50.8615ZM78.8585 84.47V86H77.6705C77.0825 86 76.5905 85.886 76.1945 85.658C75.7985 85.43 75.5225 85.106 75.3665 84.686C74.8865 85.202 74.3105 85.586 73.6385 85.838C72.9665 86.09 72.1745 86.216 71.2625 86.216C69.9785 86.216 68.9885 85.994 68.2925 85.55C67.5965 85.094 67.2485 84.446 67.2485 83.606C67.2485 82.886 67.5185 82.31 68.0585 81.878C68.5985 81.446 69.3905 81.176 70.4345 81.068L75.2405 80.564C75.2045 79.892 74.9225 79.382 74.3945 79.034C73.8665 78.686 73.1105 78.512 72.1265 78.512C71.1785 78.512 70.4225 78.674 69.8585 78.998C69.2945 79.322 69.0125 79.754 69.0125 80.294V80.366H67.3025V80.294C67.3025 79.622 67.5005 79.028 67.8965 78.512C68.3045 77.984 68.8745 77.582 69.6065 77.306C70.3385 77.018 71.1845 76.874 72.1445 76.874C73.6685 76.874 74.8505 77.21 75.6905 77.882C76.5305 78.554 76.9505 79.496 76.9505 80.708V83.48C76.9505 83.792 77.0465 84.038 77.2385 84.218C77.4305 84.386 77.7065 84.47 78.0665 84.47H78.8585ZM71.2265 84.686C72.1985 84.686 73.0325 84.536 73.7285 84.236C74.4245 83.924 74.9285 83.486 75.2405 82.922V81.968L70.8125 82.436C70.1885 82.496 69.7205 82.622 69.4085 82.814C69.1085 83.006 68.9585 83.27 68.9585 83.606C68.9585 84.326 69.7145 84.686 71.2265 84.686ZM90.1773 82.112H81.5913C81.6513 82.892 81.9873 83.51 82.5993 83.966C83.2113 84.41 84.0273 84.632 85.0473 84.632C85.9953 84.632 86.7633 84.476 87.3513 84.164C87.9513 83.84 88.2753 83.414 88.3233 82.886H90.1773C90.0813 83.93 89.5773 84.746 88.6653 85.334C87.7653 85.922 86.5593 86.216 85.0473 86.216C83.9793 86.216 83.0493 86.036 82.2573 85.676C81.4653 85.304 80.8533 84.782 80.4213 84.11C80.0013 83.438 79.7913 82.652 79.7913 81.752V81.374C79.7913 80.462 80.0013 79.67 80.4213 78.998C80.8533 78.314 81.4653 77.792 82.2573 77.432C83.0493 77.06 83.9793 76.874 85.0473 76.874C86.6433 76.874 87.8973 77.27 88.8093 78.062C89.7213 78.842 90.1773 79.922 90.1773 81.302V82.112ZM85.0473 78.458C84.0873 78.458 83.3073 78.656 82.7073 79.052C82.1193 79.436 81.7593 79.976 81.6273 80.672H88.3413C88.2333 79.976 87.8913 79.436 87.3153 79.052C86.7393 78.656 85.9833 78.458 85.0473 78.458ZM105.925 77.09V86H104.269V78.872L103.855 79.61L100.003 86H98.4735L94.6215 79.61L94.2075 78.872V86H92.5515V77.09H94.9995L99.2475 84.2L103.477 77.09H105.925ZM120.009 84.47V86H118.821C118.233 86 117.741 85.886 117.345 85.658C116.949 85.43 116.673 85.106 116.517 84.686C116.037 85.202 115.461 85.586 114.789 85.838C114.117 86.09 113.325 86.216 112.413 86.216C111.129 86.216 110.139 85.994 109.443 85.55C108.747 85.094 108.399 84.446 108.399 83.606C108.399 82.886 108.669 82.31 109.209 81.878C109.749 81.446 110.541 81.176 111.585 81.068L116.391 80.564C116.355 79.892 116.073 79.382 115.545 79.034C115.017 78.686 114.261 78.512 113.277 78.512C112.329 78.512 111.573 78.674 111.009 78.998C110.445 79.322 110.163 79.754 110.163 80.294V80.366H108.453V80.294C108.453 79.622 108.651 79.028 109.047 78.512C109.455 77.984 110.025 77.582 110.757 77.306C111.489 77.018 112.335 76.874 113.295 76.874C114.819 76.874 116.001 77.21 116.841 77.882C117.681 78.554 118.101 79.496 118.101 80.708V83.48C118.101 83.792 118.197 84.038 118.389 84.218C118.581 84.386 118.857 84.47 119.217 84.47H120.009ZM112.377 84.686C113.349 84.686 114.183 84.536 114.879 84.236C115.575 83.924 116.079 83.486 116.391 82.922V81.968L111.963 82.436C111.339 82.496 110.871 82.622 110.559 82.814C110.259 83.006 110.109 83.27 110.109 83.606C110.109 84.326 110.865 84.686 112.377 84.686ZM131.436 85.982H129.708V83.066H127.044L123.48 86H121.248V85.784L124.56 83.066C123.492 83.018 122.664 82.748 122.076 82.256C121.488 81.752 121.194 81.068 121.194 80.204V80.006C121.194 79.082 121.512 78.368 122.148 77.864C122.796 77.348 123.696 77.09 124.848 77.09H131.436V85.982ZM129.708 81.59V78.602H124.974C123.642 78.602 122.976 79.07 122.976 80.006V80.204C122.976 81.128 123.642 81.59 124.974 81.59H129.708Z" fill="#6B360D"/>
<g opacity="0.75">
<path d="M186.207 17.0846C186.207 17.0806 186.207 17.0766 186.207 17.0726C186.207 17.0726 186.207 17.0725 186.207 17.0726C186.207 17.0721 186.207 17.0715 186.207 17.0711C186.207 17.0711 186.207 17.071 186.207 17.0711L186.207 12.0711C186.207 11.7949 186.431 11.5711 186.707 11.5711C186.983 11.5711 187.207 11.7949 187.207 12.0711V15.8639L192.717 10.3535C192.913 10.1583 193.229 10.1583 193.425 10.3535C193.62 10.5488 193.62 10.8654 193.425 11.0606L187.914 16.5711L191.707 16.5711C191.983 16.5711 192.207 16.7949 192.207 17.0711C192.207 17.3472 191.983 17.5711 191.707 17.5711L186.707 17.5711C186.435 17.5711 186.214 17.3545 186.207 17.0846Z" fill="#6B360D"/>
</g>
<path opacity="0.75" d="M21.6 17.82V18H20.412L18.564 14.88L16.716 18H15.516V17.82L17.82 14.04L15.54 10.308V10.128H16.728L18.564 13.2L20.388 10.128H21.576V10.308L19.308 14.04L21.6 17.82ZM24.5765 18.144C23.8165 18.144 23.2085 17.924 22.7525 17.484C22.2965 17.044 22.0685 16.46 22.0685 15.732V14.328C22.0685 13.592 22.2965 13.004 22.7525 12.564C23.2085 12.124 23.8165 11.904 24.5765 11.904C25.3445 11.904 25.9565 12.124 26.4125 12.564C26.8765 13.004 27.1085 13.592 27.1085 14.328V15.732C27.1085 16.46 26.8765 17.044 26.4125 17.484C25.9565 17.924 25.3445 18.144 24.5765 18.144ZM24.5885 17.124C25.0285 17.124 25.3765 16.996 25.6325 16.74C25.8965 16.484 26.0285 16.14 26.0285 15.708V14.364C26.0285 13.916 25.9005 13.564 25.6445 13.308C25.3885 13.052 25.0365 12.924 24.5885 12.924C24.1485 12.924 23.7965 13.052 23.5325 13.308C23.2765 13.564 23.1485 13.916 23.1485 14.364V15.708C23.1485 16.148 23.2765 16.496 23.5325 16.752C23.7965 17 24.1485 17.124 24.5885 17.124ZM32.9067 12.048V18H31.8147V15.96C31.2707 16.072 30.7707 16.128 30.3147 16.128C29.6267 16.128 29.0827 15.96 28.6827 15.624C28.2827 15.28 28.0827 14.816 28.0827 14.232V12.048H29.1627V14.112C29.1627 14.448 29.2747 14.704 29.4987 14.88C29.7307 15.056 30.0587 15.144 30.4827 15.144C30.8907 15.144 31.3347 15.1 31.8147 15.012V12.048H32.9067ZM39.7751 12.048V12.216L37.2911 18.696C37.1071 19.176 36.8711 19.52 36.5831 19.728C36.3031 19.936 35.9151 20.04 35.4191 20.04H34.4711V19.056H35.3231C35.5711 19.056 35.7631 19.012 35.8991 18.924C36.0431 18.836 36.1671 18.652 36.2711 18.372L36.3791 18.072L34.0391 12.216V12.048H35.1431L36.9431 16.668L38.6711 12.048H39.7751Z" fill="#6B360D"/>
<path opacity="0.75" d="M190.123 81.008C190.891 81.008 191.503 81.212 191.959 81.62C192.423 82.028 192.655 82.572 192.655 83.252V83.816C192.655 84.52 192.419 85.084 191.947 85.508C191.475 85.924 190.847 86.132 190.063 86.132C189.271 86.132 188.643 85.956 188.179 85.604C187.715 85.244 187.483 84.752 187.483 84.128V84.008H188.335V84.128C188.335 84.504 188.487 84.8 188.791 85.016C189.095 85.232 189.507 85.34 190.027 85.34C190.571 85.34 190.999 85.208 191.311 84.944C191.623 84.672 191.779 84.3 191.779 83.828V83.264C191.779 82.816 191.619 82.464 191.299 82.208C190.987 81.944 190.563 81.812 190.027 81.812C189.555 81.812 189.167 81.92 188.863 82.136C188.559 82.344 188.395 82.62 188.371 82.964H187.531L187.783 78.128H192.343V78.932H188.563L188.431 81.572C188.855 81.196 189.419 81.008 190.123 81.008Z" fill="#6B360D"/>
<g opacity="0.75">
<rect opacity="0.25" x="9" y="10" width="2" height="8" fill="#6B360D"/>
<rect x="9" y="16" width="2" height="2" fill="#6B360D"/>
</g>
</g>
<defs>
<clipPath id="clip0_1142_50023">
<rect width="204" height="96" fill="white"/>
</clipPath>
</defs>
</svg>
