<svg width="65" height="65" viewBox="0 0 65 65" fill="none" xmlns="http://www.w3.org/2000/svg">
<path d="M58.2551 44.4451C58.3333 44.646 58.4115 44.8467 58.4918 45.046C58.5221 45.1214 58.3998 45.154 58.37 45.0795C58.2914 44.8821 58.2102 44.685 58.129 44.4878C57.9376 44.0228 57.7457 43.5566 57.5853 43.0826C57.5672 43.0299 57.6518 42.9946 57.6749 43.0445C57.8876 43.5015 58.0716 43.9738 58.2551 44.4451Z" fill="currentColor"/>
<path d="M41.3973 47.1353C41.5806 46.4571 41.7675 45.7659 41.7561 45.0812C41.7535 44.937 41.5279 44.85 41.4621 45.0017C41.1873 45.6345 41.0922 46.3447 40.9988 47.0431C40.9598 47.3347 40.921 47.6242 40.8696 47.9052C40.8326 48.107 41.1362 48.1957 41.181 47.9909C41.2422 47.7091 41.3194 47.4233 41.3973 47.1353Z" fill="currentColor"/>
<path d="M42.3861 42.4207C42.3086 42.7193 42.2311 43.0178 42.1544 43.3165C42.0803 43.6065 41.6435 43.483 41.7079 43.1933C41.7696 42.9159 41.8309 42.6383 41.8922 42.3608C42.0212 41.7765 42.1502 41.1923 42.2831 40.609C42.3138 40.4743 42.3422 40.3361 42.371 40.1965C42.4983 39.5781 42.6316 38.9304 42.9909 38.427C43.0343 38.3667 43.1571 38.3578 43.1709 38.4506C43.2607 39.0505 43.1052 39.6366 42.9504 40.2203C42.9193 40.3376 42.8882 40.4548 42.8591 40.5719C42.7059 41.189 42.5459 41.8053 42.3861 42.4207Z" fill="currentColor"/>
<path d="M19.892 51.883C19.9245 51.8472 19.9824 51.8935 19.9583 51.9338C18.7823 53.8638 17.4303 55.6948 16.0862 57.5149C15.8961 57.7724 15.7061 58.0297 15.5168 58.287C15.2788 58.6102 14.7345 58.2879 14.977 57.9721C15.1778 57.711 15.3783 57.4491 15.5789 57.187L15.6067 57.1507C16.9821 55.3539 18.3644 53.548 19.892 51.883Z" fill="currentColor"/>
<path d="M21.123 50.3338C21.3382 50.059 21.5602 49.7875 21.7825 49.5157C22.2253 48.9742 22.6692 48.4313 23.0627 47.8587C23.094 47.8129 23.0219 47.7567 22.9853 47.799C22.5303 48.3236 22.1172 48.8899 21.7051 49.4547C21.4979 49.7386 21.291 50.0221 21.0793 50.2998C21.0598 50.325 21.1033 50.3588 21.123 50.3338Z" fill="currentColor"/>
<path d="M23.9808 54.0897C23.901 54.2135 23.8211 54.3374 23.7411 54.4611C23.7139 54.503 23.6462 54.463 23.6745 54.4221L24.066 53.8539C24.0861 53.8243 24.1342 53.8518 24.1143 53.8827C24.0698 53.9516 24.0253 54.0207 23.9808 54.0897Z" fill="currentColor"/>
<path d="M2.03928 30.9441C5.17088 29.9671 8.37252 28.9683 11.5564 28.1997C11.6819 28.1693 11.7245 28.3445 11.6088 28.3889C8.53542 29.572 5.3175 30.5757 2.16897 31.5578L1.91388 31.6374C1.52867 31.7572 1.36549 31.1546 1.74763 31.0351L2.03928 30.9441Z" fill="currentColor"/>
<path d="M19.6661 25.3033C18.7531 25.6283 17.8487 25.9502 16.9595 26.2342C16.7454 26.3022 16.836 26.6397 17.0528 26.5724C17.9456 26.2935 18.8725 26.0369 19.8084 25.7778C21.9459 25.1861 24.1299 24.5815 26.0595 23.6703C26.1938 23.6065 26.092 23.4237 25.9649 23.4457C23.8715 23.8063 21.7464 24.5628 19.6661 25.3033Z" fill="currentColor"/>
<path d="M11.8656 21.3018C12.3015 21.2499 12.7384 21.1987 13.176 21.1475C16.227 20.7902 19.3074 20.4294 22.3014 19.7832C22.3858 19.7656 22.3684 19.6262 22.2809 19.6319C19.2224 19.8195 16.1576 20.3052 13.122 20.7864C12.6885 20.8551 12.2555 20.9237 11.8233 20.9913C11.65 21.0188 11.6885 21.3226 11.8656 21.3018Z" fill="currentColor"/>
<path d="M16.1629 36.2669C15.8905 36.4279 15.618 36.5889 15.3454 36.7501C15.162 36.8586 14.9987 36.5763 15.1792 36.4653C15.4434 36.3027 15.7074 36.14 15.9714 35.9773L15.9733 35.9762C18.496 34.4217 21.0141 32.8702 23.5862 31.3969C23.7673 31.2931 23.9238 31.565 23.7485 31.6757C21.2509 33.2607 18.7093 34.7624 16.1629 36.2669Z" fill="currentColor"/>
<path d="M18.4047 40.978C17.5744 41.3359 16.8643 41.9695 16.1718 42.5875C15.9111 42.8201 15.6525 43.0508 15.3913 43.2634C15.2505 43.3777 15.4397 43.6263 15.5872 43.5166C15.8568 43.3165 16.1419 43.1234 16.4297 42.9285C17.207 42.4022 18.0033 41.8629 18.5634 41.1362C18.6432 41.0325 18.4949 40.9389 18.4047 40.978Z" fill="currentColor"/>
<path d="M9.82641 42.1661C8.43529 42.9265 7.09516 43.8017 5.76174 44.6725L5.76081 44.6732C5.34096 44.9474 4.92177 45.2211 4.50187 45.4907C4.31982 45.6079 4.4901 45.9008 4.6722 45.7818C5.08434 45.5118 5.49981 45.2439 5.91593 44.9757C7.26287 44.1074 8.61665 43.2348 9.88658 42.2688C9.94583 42.2236 9.89622 42.1281 9.82641 42.1661Z" fill="currentColor"/>
<path d="M14.7475 39.2062C14.6547 39.2697 14.5616 39.3335 14.4704 39.3982C14.4041 39.445 14.3396 39.3354 14.4064 39.2891C14.5006 39.2242 14.5942 39.1573 14.6879 39.0903C14.9108 38.931 15.1351 38.7707 15.3707 38.6353C15.4144 38.6105 15.4666 38.6732 15.4261 38.707C15.2127 38.8875 14.9796 39.0472 14.7475 39.2062Z" fill="currentColor"/>
<path d="M46.0518 39.9795C45.8041 41.5616 45.741 43.1853 45.6784 44.7978C45.6561 45.3714 45.6339 45.9436 45.6034 46.5121C45.5883 46.7875 46.0157 46.7866 46.0312 46.5123C46.0631 45.9424 46.104 45.3695 46.145 44.7952C46.2587 43.2014 46.3732 41.5962 46.2998 40.0124C46.2935 39.8788 46.0751 39.8313 46.0518 39.9795Z" fill="currentColor"/>
<path d="M40.5713 28.0223L40.0944 27.5436C39.9316 27.3805 39.6768 27.6346 39.8414 27.7967L40.0124 27.9658C40.044 27.997 40.0756 28.0282 40.1072 28.0595C40.1356 28.0875 40.164 28.1156 40.1924 28.1437C40.2356 28.1863 40.2788 28.229 40.322 28.2716C40.3522 28.3015 40.3824 28.3335 40.4131 28.366C40.5251 28.4848 40.6435 28.6104 40.7925 28.6638C40.8898 28.6987 41.0006 28.5886 40.965 28.4909C40.9111 28.3427 40.7861 28.2257 40.6672 28.1143C40.6342 28.0834 40.6017 28.0529 40.5713 28.0223Z" fill="currentColor"/>
<path d="M57.3868 32.8814C52.2578 34.1543 46.8122 32.8777 42.529 29.9524C42.37 29.8439 42.5152 29.5875 42.681 29.6919C44.7245 30.9764 47.0843 31.9012 49.4489 32.3904C52.1987 32.9589 54.5094 32.826 57.2468 32.3739C57.5743 32.32 57.7214 32.7984 57.3868 32.8814Z" fill="currentColor"/>
<path d="M59.6212 32.7493C59.804 32.6977 59.9869 32.646 60.1697 32.5942C60.3525 32.5425 60.5354 32.4907 60.7182 32.4391C60.7509 32.4299 60.7836 32.4208 60.8161 32.4118C61.0942 32.3351 61.3644 32.2605 61.5962 32.0809C61.7306 31.9772 61.6033 31.7946 61.472 31.7815C61.202 31.7546 60.9364 31.8375 60.6773 31.9185C60.6227 31.9355 60.5685 31.9524 60.5146 31.9682C60.3479 32.0171 60.1813 32.0659 60.0147 32.1147L59.9878 32.1226C59.8215 32.1713 59.6551 32.22 59.4887 32.2688C59.1814 32.359 59.3113 32.8369 59.6212 32.7493Z" fill="currentColor"/>
<path d="M42.7681 23.2453C42.8215 23.3069 42.741 23.3875 42.6793 23.3344C42.5453 23.2199 42.4203 23.095 42.2955 22.9701C42.2608 22.9355 42.2261 22.9008 42.1913 22.8664C42.1209 22.7966 42.2308 22.6864 42.3004 22.7571C42.3366 22.7938 42.373 22.8303 42.4095 22.8668C42.5325 22.9899 42.6554 23.113 42.7681 23.2453Z" fill="currentColor"/>
<path fill-rule="evenodd" clip-rule="evenodd" d="M32.499 0.86499C14.8257 0.86499 0.499039 15.1916 0.499039 32.865C0.499039 50.538 14.8257 64.865 32.499 64.865C50.172 64.865 64.4991 50.538 64.4991 32.865C64.4991 15.1916 50.172 0.86499 32.499 0.86499ZM52.2878 56.798C51.8005 49.9384 51.2005 43.0829 50.5957 36.233C50.9408 36.2555 51.287 36.2701 51.6332 36.2772L51.7148 36.8436L51.7151 36.8458C51.8053 37.4733 51.8956 38.1006 51.9887 38.7275C52.0258 38.9761 52.4068 38.872 52.3679 38.6231C52.2761 38.0415 52.1817 37.4603 52.0874 36.879L51.991 36.2843C52.6198 36.2877 53.2485 36.2652 53.8762 36.2173C53.9634 36.5722 54.0715 36.9231 54.1792 37.2729L54.1795 37.274C54.2228 37.4146 54.2663 37.5556 54.3081 37.6961C54.4061 38.0243 54.9208 37.8847 54.8223 37.5546C54.7797 37.4112 54.7384 37.267 54.697 37.1226C54.6055 36.8032 54.5137 36.4828 54.4065 36.1687C54.6438 36.1451 54.8811 36.12 55.1176 36.0889C55.4926 37.2233 55.8593 38.3606 56.226 39.4977L56.2263 39.4988L56.3149 39.7736C56.3714 39.9484 56.6432 39.8765 56.5922 39.6969L56.4937 39.3489L56.4917 39.3422C56.1785 38.2369 55.8653 37.1314 55.5604 36.0238C55.7486 35.995 55.9365 35.9662 56.124 35.9329C56.8253 38.0586 57.5791 40.1634 58.333 42.2685L58.3341 42.2718C58.9177 43.9012 59.5013 45.5309 60.0606 47.1703C59.9042 47.4708 59.744 47.7688 59.5782 48.0637L59.5721 48.045C59.568 48.0325 59.5639 48.02 59.5602 48.0075C59.5451 47.9608 59.5311 47.9133 59.517 47.8655C59.4713 47.7102 59.4248 47.5528 59.3401 47.4166C59.2911 47.3368 59.153 47.3649 59.1571 47.466C59.1641 47.6295 59.2145 47.7878 59.2643 47.9445C59.2784 47.989 59.2926 48.0336 59.3057 48.0779C59.3345 48.1763 59.3636 48.2751 59.3928 48.3738L59.3952 48.3818C58.9805 49.0993 58.5403 49.7999 58.0714 50.4796C57.9834 50.1443 57.8959 49.8088 57.8083 49.4731L57.8077 49.4711C57.1622 46.997 56.5148 44.5156 55.7004 42.0937C55.6629 41.9818 55.5016 42.0271 55.5241 42.142C56.0254 44.6554 56.7012 47.1367 57.375 49.611C57.4809 49.9999 57.5867 50.3885 57.6918 50.7771C57.7068 50.8329 57.7386 50.8692 57.7761 50.8947C56.995 51.9875 56.1472 53.0287 55.2344 54.0097C54.6921 50.8535 54.0412 47.6965 53.3563 44.5695C53.332 44.4561 53.1726 44.5078 53.1875 44.6159C53.6355 47.9177 54.1228 51.233 54.7273 54.5101C54.7279 54.515 54.7297 54.5186 54.7316 54.5224C54.7332 54.5254 54.7349 54.5287 54.7359 54.5325C53.9596 55.329 53.1452 56.0884 52.2878 56.798ZM30.3157 63.8276L30.3201 63.8196C30.3299 63.8019 30.3399 63.784 30.3477 63.7639C32.2846 58.8123 34.2121 53.8581 36.1175 48.8942C36.7194 47.3264 37.2931 45.7322 37.8686 44.1332L37.869 44.132L37.8694 44.131C39.1112 40.6807 40.3612 37.2078 41.9187 33.9294C41.9699 33.9546 42.0214 33.9785 42.0729 34.0024L42.1163 34.0226C42.1354 34.0315 42.1545 34.0405 42.1735 34.0495C41.1791 36.9405 40.2373 39.8507 39.2958 42.7601L39.2938 42.7662L39.2918 42.7722C39.01 43.6431 38.7282 44.5138 38.4451 45.3839C38.3511 45.6728 38.8021 45.7941 38.8983 45.5089C39.194 44.6339 39.4911 43.7593 39.7883 42.8846C40.7616 40.0199 41.7353 37.1542 42.6571 34.273C43.0168 34.4343 43.3798 34.5881 43.7473 34.7303C43.7056 34.9275 43.6717 35.1288 43.6384 35.3265C43.6081 35.5064 43.5781 35.6842 43.5434 35.8524C43.4917 36.1028 43.8727 36.211 43.9292 35.9587L44.0465 35.433C44.08 35.2833 44.1134 35.1336 44.1467 34.9841C44.1542 34.9508 44.1628 34.9175 44.171 34.8845L44.2558 34.9153C44.4083 34.9707 44.5612 35.0263 44.7156 35.078L44.654 35.4306C43.0569 44.5778 41.4597 53.7258 39.9635 62.8896C39.9573 62.9295 39.9618 62.965 39.9664 63.0005L39.9676 63.0097C39.4908 63.1273 39.0095 63.235 38.5244 63.3305C38.6474 62.552 38.7744 61.772 38.9017 60.9908L38.9033 60.9808L38.9034 60.9797C39.3873 58.0093 39.8739 55.0214 40.1525 52.0395C40.1622 51.9366 39.9964 51.916 39.9736 52.0152C39.2948 54.9105 38.8095 57.8882 38.3278 60.8433C38.1866 61.7094 38.0458 62.5735 37.9005 63.433C37.9001 63.436 37.9012 63.4387 37.9009 63.4416C36.4727 63.6924 35.0119 63.8455 33.5238 63.8938C33.8599 62.708 34.2048 61.518 34.5507 60.325C35.5918 56.7339 36.6411 53.1144 37.4791 49.5024C37.5038 49.3961 37.3529 49.3564 37.3166 49.4578C36.071 52.9552 34.9996 56.5721 33.9364 60.1613C33.5717 61.3925 33.208 62.6204 32.8385 63.8391C32.8331 63.8567 32.833 63.8726 32.8329 63.8886C32.8328 63.8961 32.8327 63.9036 32.8321 63.9114C32.7811 63.9119 32.7304 63.9136 32.6797 63.9154C32.6197 63.9175 32.5595 63.9196 32.499 63.9196C31.7629 63.9196 31.0353 63.8852 30.3118 63.8346L30.3157 63.8276ZM9.9149 54.1684C10.1017 54.2488 10.3262 54.2391 10.5175 54.0636C13.6075 51.2286 16.691 48.3871 19.7744 45.5456C25.3416 40.4153 30.9085 35.2851 36.5135 30.1942C36.5283 30.2079 36.5432 30.2214 36.5583 30.2349L36.5787 30.2534L36.5894 30.2631C36.3191 30.5959 36.0476 30.9285 35.7759 31.2614L35.769 31.2699C34.1177 33.2931 32.4583 35.3262 30.9881 37.4782C29.8253 39.1806 28.5002 40.7658 27.1753 42.3508C26.3398 43.3502 25.5044 44.3496 24.7098 45.3783C24.5821 45.5441 24.867 45.766 25.0021 45.6036C25.8262 44.6122 26.6116 43.5847 27.3971 42.557C28.5833 41.0052 29.7698 39.4531 31.0899 38.0247C33.0822 35.8688 34.908 33.5616 36.7297 31.2594L37.1291 30.7549C37.2027 30.8186 37.2778 30.8802 37.3529 30.9418C37.3978 30.9786 37.4428 31.0156 37.4873 31.0528C34.4533 35.0636 31.8885 39.4674 29.3383 43.8461L29.3375 43.8476L29.3369 43.8486C28.2108 45.7821 27.0872 47.7113 25.9276 49.5989C25.8112 49.7887 26.1035 49.956 26.2244 49.7726C27.4444 47.9203 28.7173 46.0835 29.9935 44.2421L29.9942 44.2411C32.8606 40.1052 35.7437 35.9451 38.0802 31.5311C38.5517 31.8971 39.0349 32.2445 39.5312 32.5689C37.7178 36.098 35.9971 39.6726 34.2764 43.2471C33.2215 45.4386 32.1661 47.631 31.0899 49.8119C31.0323 49.9287 31.2052 50.0316 31.2658 49.9144C32.3801 47.7549 33.5155 45.6061 34.651 43.4572L34.6518 43.4556L34.6524 43.4545C36.4983 39.9611 38.3444 36.4675 40.0997 32.9267C40.4541 33.1434 40.8131 33.3515 41.178 33.548C40.1104 36.9881 38.6852 40.3597 37.2687 43.7107C36.6203 45.2445 35.9737 46.7742 35.3641 48.304C33.349 53.3607 31.356 58.4257 29.3732 63.4955C29.3346 63.5943 29.3305 63.683 29.3481 63.7613C28.0501 63.6303 26.7795 63.4113 25.5339 63.1258C25.5661 63.0996 25.5949 63.064 25.6162 63.0154C25.6929 62.8412 25.7698 62.667 25.8467 62.4927C26.6908 60.58 27.5419 58.6516 28.1826 56.6633C28.2069 56.5869 28.0935 56.5412 28.0542 56.6094C27.0034 58.4125 26.1378 60.3313 25.2791 62.2344C25.2096 62.3886 25.1401 62.5426 25.0706 62.6965C25.0144 62.8215 25.0436 62.939 25.1091 63.0277C23.3938 62.6089 21.7343 62.049 20.1441 61.3588C20.1458 61.3566 20.1477 61.3546 20.1495 61.3527L20.1531 61.3491C20.1575 61.3447 20.162 61.3404 20.1658 61.3341C20.2792 61.1307 20.3954 60.9276 20.5118 60.7241L20.5193 60.7112L20.52 60.7099C20.9165 60.0172 21.3158 59.3194 21.6232 58.5874C21.6696 58.4762 21.5041 58.4309 21.4435 58.5118C20.9765 59.1372 20.5838 59.8261 20.1946 60.5091L20.1935 60.5111C20.0735 60.7217 19.9538 60.9317 19.8323 61.1391C19.8188 61.1623 19.8128 61.1852 19.8095 61.2073C16.0563 59.5245 12.7006 57.1202 9.9149 54.1684ZM13.6181 9.81845C15.9106 10.339 18.2333 10.8665 20.5554 11.0953C20.7163 11.111 20.7294 10.8737 20.5917 10.8262C18.4034 10.0727 16.0915 9.58969 13.8089 9.11277C13.4574 9.03934 13.1066 8.96605 12.7571 8.89194C13.6875 8.12469 14.6685 7.41769 15.6854 6.76122C17.5476 7.35463 19.4241 7.90677 21.3006 8.45894C24.3641 9.36039 27.4278 10.2619 30.4301 11.343C30.3605 11.7865 30.3028 12.2312 30.2575 12.6769C29.2768 12.3849 28.225 12.2101 27.1929 12.0385C26.6416 11.9469 26.096 11.8562 25.5698 11.7491C25.3501 11.7046 25.2551 12.0384 25.4766 12.0878C26.0023 12.2046 26.5392 12.3443 27.0818 12.4855C28.1177 12.7551 29.1751 13.0302 30.2134 13.1616C30.1606 13.8083 30.1348 14.4551 30.1348 15.1007C27.2011 14.9748 24.247 14.9809 21.2947 14.987C19.1647 14.9914 17.0354 14.9958 14.9155 14.9506C14.8433 14.9491 14.8433 15.0606 14.9155 15.0629C17.0364 15.1209 19.164 15.2289 21.2924 15.3369C24.2447 15.4868 27.1987 15.6367 30.1385 15.6535C30.1399 15.7082 30.142 15.763 30.144 15.8178L30.146 15.8724C26.5049 16.1319 22.8635 16.3859 19.222 16.64L19.22 16.6402L19.2168 16.6404C14.628 16.9606 10.0391 17.2808 5.45099 17.6117C5.97946 16.6771 6.55509 15.7736 7.17375 14.9027C7.40014 14.9108 7.62892 14.9212 7.85904 14.9316C8.81322 14.9748 9.79034 15.0191 10.714 14.9106C10.7892 14.9019 10.8221 14.7848 10.7334 14.7657C9.81755 14.5694 8.83221 14.5219 7.87097 14.4756C7.74381 14.4695 7.61686 14.4634 7.49076 14.4569C8.83626 12.6316 10.3794 10.9631 12.0845 9.47355C12.594 9.58589 13.1053 9.70201 13.6181 9.81845ZM33.8984 1.8452C33.4912 2.523 33.1125 3.21652 32.7678 3.92576C31.6633 3.52086 30.5973 2.91529 29.5507 2.32072C29.3677 2.21677 29.1853 2.11315 29.0034 2.011C30.1513 1.88225 31.3167 1.81002 32.499 1.81002C32.9684 1.81002 33.434 1.82462 33.8984 1.8452ZM1.44407 32.865C1.44407 31.0823 1.60238 29.3375 1.89094 27.6368C11.4303 24.9002 21.0071 22.2387 30.6576 19.9224C30.783 20.4845 30.9312 21.0411 31.1034 21.592C30.9072 21.6395 30.7139 21.7146 30.5214 21.7893C30.4154 21.8305 30.3095 21.8716 30.2037 21.9079C29.6048 22.1137 29.0056 22.3196 28.4064 22.5254C28.0509 22.6478 28.1998 23.2115 28.5632 23.0939C29.1654 22.8993 29.7676 22.7047 30.3695 22.5101C30.4802 22.4743 30.5961 22.4428 30.7132 22.411C30.9143 22.3564 31.1191 22.3008 31.3081 22.2204C31.5173 22.8207 31.7561 23.4121 32.0237 23.9941C21.917 28.294 11.8162 32.6097 1.71729 36.9292C1.54325 35.5979 1.44407 34.2434 1.44407 32.865ZM28.1328 2.12179C28.5225 2.32362 28.9229 2.52006 29.3259 2.7178C30.4192 3.25415 31.5321 3.80014 32.5039 4.48979C32.3288 4.87266 32.1603 5.25816 32.0035 5.64777C31.4207 5.30378 30.7907 5.04202 30.1587 4.77945C29.6458 4.56636 29.1316 4.35272 28.6403 4.09418C27.8019 3.65282 26.9231 3.2897 26.0462 2.92741C25.8183 2.83322 25.5902 2.73895 25.3632 2.64352C26.2716 2.42943 27.1949 2.25353 28.1328 2.12179ZM20.5485 5.13854C22.6753 6.08479 24.8168 7.03752 26.9861 7.85708C27.2458 7.95514 27.4228 7.53259 27.1751 7.40834C25.1194 6.37429 22.9809 5.44881 20.8595 4.53075L20.8552 4.52888C20.6745 4.45069 20.4939 4.37256 20.3136 4.29442C21.1216 3.94897 21.9499 3.64282 22.7913 3.36586C22.7939 3.36827 22.7966 3.3707 22.7992 3.37311C22.8106 3.38376 22.8219 3.39425 22.838 3.40216C23.6905 3.81652 24.5438 4.24707 25.3991 4.67869C27.1868 5.58077 28.9838 6.48751 30.8021 7.26087C30.9949 7.34321 31.1666 7.07898 30.972 6.97007C29.2426 6.00251 27.4196 5.13364 25.6067 4.26956C24.8495 3.90864 24.094 3.54856 23.3478 3.18246C23.8628 3.02377 24.3841 2.88005 24.9104 2.74794C24.8838 2.8314 24.9059 2.92235 25.0133 2.9725C25.2932 3.1022 25.5725 3.23529 25.8519 3.36851C26.6314 3.74004 27.4131 4.11265 28.2189 4.41568C28.7519 4.61612 29.2719 4.8579 29.791 5.09923C30.4805 5.41984 31.1684 5.73965 31.8826 5.96066C31.5177 6.90232 31.2082 7.86158 30.9544 8.8328C30.7699 8.73698 30.5741 8.66316 30.3757 8.5884L30.3747 8.58802C30.3239 8.56888 30.273 8.54968 30.222 8.53002L29.7928 8.36412C29.5077 8.25388 29.2226 8.14364 28.9375 8.03374C28.4244 7.83538 28.2144 8.64979 28.7118 8.85227L29.9046 9.33732C29.969 9.36348 30.0329 9.39062 30.0967 9.41771C30.3131 9.50958 30.5283 9.60092 30.7546 9.65208C30.6681 10.032 30.5903 10.4126 30.5222 10.7947C27.4545 9.93744 24.4404 8.90085 21.4263 7.8643C19.8033 7.30616 18.18 6.7479 16.5488 6.21779C17.4965 5.64927 18.4789 5.1339 19.4883 4.66756C19.8407 4.82368 20.1935 4.98062 20.5466 5.13773L20.5485 5.13854ZM3.57458 22.7248C4.2685 22.6218 5.02685 22.5092 5.57525 22.1512C5.73581 22.046 5.7302 21.7601 5.51836 21.7148C4.87761 21.5785 4.13394 21.7346 3.44604 21.8884C3.86896 20.7705 4.35663 19.6847 4.90007 18.6327C9.66854 18.2915 14.436 17.938 19.2037 17.5845C22.8669 17.3128 26.5301 17.0412 30.1939 16.7752C30.2269 17.2277 30.2759 17.6779 30.3369 18.1263C29.4402 18.227 28.5453 18.3589 27.6522 18.4905C27.4339 18.5227 27.215 18.5549 26.9969 18.5866C26.7761 18.6188 26.8255 19.0021 27.0497 18.9796C27.2369 18.9609 27.4243 18.9425 27.6117 18.9241C28.5441 18.8325 29.4781 18.7407 30.4061 18.6169C30.4368 18.8097 30.4716 19.0017 30.5072 19.1933C21.0797 22.0546 11.543 24.5847 1.99911 27.0305C2.27494 25.5798 2.65296 24.1662 3.12304 22.7949C3.26818 22.7703 3.42001 22.7478 3.57458 22.7248ZM9.56571 53.802C8.49417 52.629 7.51397 51.3726 6.63106 50.0454L7.32956 49.5489C8.11685 48.9893 8.90438 48.4296 9.69146 47.8698C9.89396 47.7259 10.1013 47.5846 10.3096 47.4426C11.0778 46.9192 11.8588 46.3869 12.4562 45.6845C12.5355 45.5913 12.4629 45.4023 12.3233 45.4558C11.4578 45.7872 10.6971 46.3426 9.94587 46.8911C9.75207 47.0326 9.5589 47.1737 9.36473 47.3103L6.27251 49.4863C5.15083 47.7201 4.20093 45.8349 3.45015 43.8509C4.10113 43.4921 4.73409 43.1069 5.36732 42.7216C5.8475 42.4294 6.32859 42.1366 6.81708 41.8557C7.29033 41.5834 7.77799 41.3368 8.26557 41.0902C8.9618 40.7381 9.65788 40.386 10.3116 39.9596C10.4048 39.899 10.3244 39.7725 10.2267 39.8144C9.50927 40.1205 8.82985 40.5024 8.15016 40.8846C7.67279 41.153 7.1953 41.4214 6.70442 41.6637C6.19692 41.9144 5.68465 42.1522 5.17245 42.39C4.5284 42.689 3.88447 42.9879 3.25029 43.3123C2.62638 41.5656 2.15556 39.747 1.85128 37.8716C12.0602 33.5536 22.2669 29.232 32.4672 24.8946C32.6963 25.3325 32.9426 25.7644 33.2075 26.1884C32.3409 26.6482 31.4729 27.1054 30.6049 27.5627L30.6032 27.5636C29.2658 28.2682 27.9282 28.9728 26.5953 29.6867C26.2244 29.8854 26.5527 30.4438 26.9247 30.25C28.2617 29.553 29.5937 28.8469 30.9257 28.1407C31.8064 27.6739 32.688 27.2066 33.5702 26.7423C33.5843 26.7633 33.5982 26.7844 33.6121 26.8054C33.6439 26.8534 33.6757 26.9013 33.7087 26.9489C31.9946 27.7569 30.3557 28.7882 28.7304 29.8109C28.0476 30.2405 27.3669 30.6688 26.6844 31.0782C24.3366 32.4862 22.0023 33.9137 19.6728 35.352C19.351 35.5507 19.6414 36.0538 19.9704 35.861C22.3324 34.4777 24.6873 33.0847 27.031 31.6711C27.7139 31.2591 28.4127 30.8576 29.1141 30.4547C30.7924 29.4905 32.4854 28.5179 34.0111 27.3718C34.2622 27.7154 34.5268 28.0526 34.8042 28.3842C33.0945 29.695 31.3806 31.0001 29.6668 32.3051L29.664 32.3073L29.663 32.308C26.8575 34.4443 24.0522 36.5805 21.2654 38.7418C20.979 38.9641 21.3619 39.4678 21.6565 39.2489C24.4644 37.1602 27.2529 35.0471 30.0415 32.934C31.7936 31.6063 33.5457 30.2786 35.3027 28.9569C35.3383 28.9962 35.3736 29.0356 35.4089 29.075C35.5044 29.1816 35.6004 29.2887 35.7005 29.3929C35.7398 29.4342 35.7804 29.474 35.8211 29.5139C35.8483 29.5405 35.8755 29.5671 35.9023 29.5943C30.3033 34.7091 24.6688 39.7823 19.0342 44.8556L19.0328 44.8568L19.0267 44.8622C15.9205 47.659 12.8143 50.4558 9.71392 53.2597C9.53053 53.4255 9.50358 53.6264 9.56571 53.802ZM48.6428 59.3142C48.6446 59.3412 48.6529 59.3636 48.6619 59.3857C47.5795 60.0466 46.4496 60.6365 45.2852 61.1638C45.4387 58.3208 45.4949 55.4865 45.5513 52.6436V52.6418C45.5615 52.1292 45.5716 51.616 45.5824 51.1027C45.5846 50.9976 45.43 51.0013 45.4207 51.1027C45.3705 51.653 45.3195 52.2026 45.2686 52.752L45.2677 52.7623C45.0004 55.6475 44.7339 58.525 44.5715 61.4228C44.5708 61.4368 44.5734 61.4484 44.576 61.46C44.5769 61.4638 44.5777 61.4677 44.5785 61.4716L44.5793 61.476C44.5796 61.478 44.5799 61.4799 44.5801 61.482C43.3469 62.0033 42.0699 62.4394 40.7614 62.7998C42.4201 53.7806 43.9818 44.7431 45.5433 35.7065L45.6037 35.3569C45.7484 35.3995 45.8947 35.4382 46.0408 35.477L46.134 35.5017C46.137 35.5818 46.1438 35.6612 46.1531 35.7375C46.1937 36.061 46.1729 36.3946 46.1522 36.7267C46.1454 36.8353 46.1387 36.9437 46.134 37.0516C46.1194 37.3847 46.6449 37.3862 46.6532 37.0516C46.6557 36.9507 46.6568 36.8505 46.6579 36.7508C46.6617 36.4097 46.6653 36.0736 46.7261 35.7375C46.7278 35.7283 46.7291 35.719 46.7303 35.7098L46.7314 35.701L46.7325 35.6923L46.7343 35.6782L46.7352 35.6714C46.736 35.6655 46.7368 35.6596 46.7377 35.6537C47.0353 35.7244 47.334 35.7895 47.6334 35.8483C47.8415 40.7707 48.0129 45.6927 48.1113 50.6214C48.1128 50.6978 48.2318 50.6982 48.2307 50.6214C48.1499 45.7279 48.1416 40.8388 48.1693 35.9478C48.6409 36.0287 49.1143 36.0938 49.59 36.1455C50.1836 43.2382 50.7813 50.3366 51.5033 57.417C50.7147 58.0286 49.8962 58.6023 49.05 59.1368C48.8868 56.9967 48.7053 54.8514 48.4665 52.7188C48.4579 52.6402 48.3381 52.6357 48.34 52.7188C48.3939 54.9165 48.5095 57.1199 48.6428 59.3142ZM61.6741 22.2009C61.5899 22.2189 61.5057 22.2548 61.4263 22.3177C56.5028 26.2371 46.6865 24.2867 43.8031 18.5312C41.8285 14.5898 45.0423 9.6779 49.6338 11.9752C51.3233 12.8206 53.2695 15.238 51.4756 17.0577C49.7622 18.7958 48.1461 16.8568 47.3807 15.3369C47.2116 15.0004 46.7011 15.1037 46.6045 15.4383C45.4218 19.5459 52.5958 20.4408 53.3496 16.1576C54.2138 11.2408 46.9664 8.56558 43.7136 11.6387C39.7576 15.3761 42.882 20.9647 46.7239 23.238C51.3955 26.0024 57.5919 26.7996 62.0304 23.2538C62.2078 23.7987 62.3728 24.3489 62.5203 24.9069C57.8329 28.1208 51.8746 29.0007 46.8302 25.9111C46.7415 25.8564 46.661 25.9953 46.7486 26.0503C51.7058 29.1429 58.0077 29.4243 62.6981 25.6322C63.0926 27.2846 63.3542 28.9872 63.4728 30.7305C63.3508 30.7811 63.228 30.8316 63.106 30.8817C62.7718 31.0202 62.9631 31.4937 63.3006 31.3436C63.371 31.3125 63.4417 31.2811 63.5121 31.2496C63.5192 31.3852 63.5217 31.5219 63.5241 31.6584C63.5256 31.7378 63.527 31.8173 63.5293 31.8964C63.5155 31.9035 63.502 31.9084 63.4882 31.917C54.9679 37.2829 43.4741 35.8842 36.4944 28.5987C29.4652 21.2626 29.9892 10.1439 35.159 1.93091C35.7526 1.98144 36.342 2.04581 36.9255 2.12927L36.9229 2.13226C36.9213 2.13409 36.9196 2.13585 36.9179 2.1376C36.9144 2.14137 36.9108 2.14511 36.9076 2.14948C31.9085 9.05138 31.7857 19.2072 37.6793 25.7531C37.853 25.9459 38.1921 25.691 38.0427 25.4724C35.6088 21.9015 34.0362 18.4968 34.077 14.0763C34.1148 9.95037 35.315 5.9906 37.683 2.60272C37.768 2.48146 37.7807 2.36281 37.7474 2.26064C38.5237 2.39276 39.2909 2.54958 40.0462 2.73821C38.4806 5.05194 37.2395 8.59103 37.7759 11.373C37.8017 11.5073 37.9828 11.4583 37.9963 11.343C38.0503 10.8759 38.0801 10.4095 38.1098 9.94461C38.176 8.90989 38.2416 7.88244 38.5719 6.87014C39.0405 5.43182 39.8774 4.15594 40.7607 2.94181C40.7621 2.94 40.7627 2.93809 40.7634 2.93618C40.7639 2.93453 40.7645 2.93289 40.7655 2.93133C50.4572 5.60211 58.2533 12.8446 61.6741 22.2009ZM61.9039 42.849C61.8575 42.7539 61.8111 42.6585 61.7643 42.5634C61.6344 42.2966 61.2283 42.5309 61.3646 42.797C61.404 42.8737 61.4433 42.9506 61.4826 43.0274C61.5221 43.1046 61.5615 43.1817 61.6011 43.2588C61.6072 43.2708 61.6132 43.2827 61.6192 43.2946C61.6459 43.3473 61.6719 43.3988 61.7021 43.4456C61.3406 44.4426 60.9315 45.4169 60.4734 46.3634C60.0095 44.9493 59.5613 43.531 59.113 42.1127L59.1127 42.1117C58.4409 39.9863 57.7692 37.861 57.0451 35.7502C57.3427 35.6847 57.6391 35.6136 57.9344 35.5358C57.9306 35.593 57.937 35.6522 57.9643 35.7139C58.6126 37.1811 59.3053 38.5838 60.116 39.9686C60.1617 40.0465 60.2904 39.9952 60.2638 39.9065C59.7967 38.3409 59.2305 36.8536 58.5897 35.352C58.8835 35.2648 59.1758 35.1712 59.467 35.0717C59.4674 35.123 59.4779 35.1761 59.5048 35.2307C59.6314 35.4872 59.7538 35.7492 59.8768 36.0124C60.2391 36.7875 60.6066 37.5739 61.0977 38.2616C61.5734 38.9274 61.9155 39.5723 62.1262 40.3541C62.2452 40.7954 62.2647 40.8646 62.4466 41.0824C62.2834 41.679 62.1015 42.2674 61.9039 42.849ZM62.6543 40.2875C62.6184 40.2388 62.5776 40.1849 62.5282 40.1198C61.9894 39.4054 61.7874 38.7956 61.5236 37.9992C61.5036 37.9387 61.4832 37.8771 61.4622 37.8143C61.2126 37.0658 60.8525 36.3493 60.4955 35.6388C60.3672 35.3834 60.239 35.1284 60.1167 34.8733C60.1134 34.8665 60.1092 34.8619 60.105 34.8572C60.1015 34.8534 60.0981 34.8495 60.095 34.8445C61.2811 34.3987 62.4357 33.8486 63.5458 33.1914C63.5203 35.635 63.2131 38.0101 62.6543 40.2875Z" fill="currentColor"/>
</svg>
