<svg width="65" height="64" viewBox="0 0 65 64" fill="none" xmlns="http://www.w3.org/2000/svg">
<path fill-rule="evenodd" clip-rule="evenodd" d="M44.7318 16.1863C44.3703 15.7386 44.0854 15.2296 43.9492 14.596C43.9388 14.5464 43.9332 14.4972 43.9275 14.4479L43.9244 14.4208L43.9218 14.3996C43.9207 14.3902 43.9194 14.3808 43.9181 14.3714C43.6562 13.5495 43.8219 12.7595 44.1805 11.8496C44.2304 11.7229 44.2809 11.5922 44.3325 11.4587C44.7402 10.4039 45.2148 9.17583 45.9849 8.39511C46.0642 8.31465 46.1941 8.31951 46.2734 8.39511C46.5186 8.62745 46.4224 9.08481 46.3347 9.50192C46.3126 9.6069 46.2911 9.70933 46.2757 9.80499C46.3333 10.354 46.4665 10.9057 46.669 11.4301C46.7273 11.5423 46.7878 11.6537 46.8486 11.7653C46.9864 12.0187 47.1256 12.2746 47.2409 12.5469C47.3932 12.7767 47.5553 12.9971 47.7376 13.1917C47.9608 13.43 48.1862 13.6437 48.405 13.8511C49.0358 14.4493 49.6117 14.9954 49.924 15.9269C50.274 16.9707 50.4948 18.2242 50.4873 19.3264C50.4809 20.327 50.1494 21.2471 49.8161 22.1725L49.8155 22.1742L49.8151 22.1752C49.7808 22.2704 49.7465 22.3656 49.7126 22.4609L49.7115 22.4647C49.6741 22.5978 49.6366 22.7309 49.5988 22.8636C49.5821 22.9225 49.5649 22.9904 49.5462 23.0639C49.4472 23.4529 49.3076 24.0012 49.003 24.2278C48.9861 24.2417 48.9689 24.2544 48.9491 24.2622C48.9409 24.2669 48.9332 24.2725 48.9256 24.278C48.9143 24.2861 48.9032 24.2942 48.8907 24.2993C48.842 24.3195 48.7821 24.2952 48.7447 24.2622C48.6714 24.2361 48.6077 24.184 48.5681 24.1129C48.5205 24.0886 48.4835 24.047 48.4722 23.9838C48.1126 21.9601 47.394 20.5989 46.2128 18.9633C45.5316 18.0202 45.0743 17.1553 44.7318 16.1863ZM49.3802 17.9244C49.1699 16.5568 48.7863 15.5904 47.918 14.5051C47.0141 13.3751 45.9066 11.8833 45.8071 10.3458C45.6853 10.7556 45.5569 11.1646 45.4232 11.5901L45.358 11.798C44.6592 14.0254 45.8799 15.3004 47.2856 16.7685L47.2867 16.7696L47.2903 16.7734C47.3754 16.8622 47.4611 16.9517 47.5471 17.0422C48.5931 18.1433 49.1175 19.2837 49.3039 20.5042C49.4592 19.695 49.5262 18.8709 49.3802 17.9244ZM46.0429 17.4479C46.4508 18.1422 46.9172 18.8174 47.4303 19.5543C48.0853 20.4945 48.464 21.4096 48.683 22.4156C48.7178 20.9735 48.3637 19.6651 47.2278 18.5026C46.8899 18.1565 46.517 17.8446 46.1465 17.5347L46.0429 17.4479Z" fill="currentColor"/>
<path fill-rule="evenodd" clip-rule="evenodd" d="M19.4899 20.9159C19.4832 20.9021 19.4763 20.8879 19.4698 20.8741C19.4692 20.8694 19.4689 20.8647 19.4685 20.86C19.4674 20.8452 19.4662 20.8306 19.4597 20.815C18.498 18.4932 19.1711 16.4443 19.91 14.1949C19.9338 14.1227 19.9576 14.0502 19.9814 13.9775C20.5701 12.1817 20.8044 10.1906 20.6102 8.29908C20.7745 7.68789 20.8624 7.02319 20.8396 6.24322C20.825 5.75217 20.0791 5.74955 20.0746 6.24322C20.0727 6.41688 20.0634 6.58792 20.0495 6.75746C19.4875 7.59283 18.7949 8.20216 18.0513 8.8564C17.7941 9.08263 17.5306 9.31442 17.2646 9.56261C16.1792 10.5754 15.7301 11.7697 15.7222 13.2742C15.7091 15.7277 16.846 17.6271 18.0136 19.5778C18.347 20.1348 18.6829 20.6959 18.9952 21.2754C19.182 21.6219 19.6794 21.3176 19.5162 20.9707C19.5077 20.9526 19.4988 20.9343 19.4899 20.9159ZM19.1498 8.62768C19.4466 8.30993 19.6925 8.01688 19.9069 7.71372C19.6888 8.7617 19.2843 9.74766 18.8783 10.7373C18.4023 11.8977 17.9242 13.0633 17.7418 14.3398C17.5823 15.457 17.6834 16.6049 17.9536 17.7108C17.351 16.3429 16.8731 14.9304 16.8188 13.4733C16.7365 11.2584 17.7085 10.1708 19.1498 8.62768ZM19.0156 15.4643L19.0145 15.467L19.014 15.4683C18.9745 15.5684 18.9349 15.6689 18.8953 15.7699C18.6048 16.5105 18.4162 17.1696 18.3399 17.804C17.878 15.9342 17.7668 14.1725 18.8084 12.1297C19.0034 11.7474 19.1967 11.391 19.3822 11.049C19.6621 10.533 19.9241 10.0498 20.1472 9.55999C20.1794 10.2232 20.1917 10.886 20.1315 11.5533C20.0049 12.9564 19.5235 14.1768 19.0156 15.4643Z" fill="currentColor"/>
<path fill-rule="evenodd" clip-rule="evenodd" d="M10.3129 18.7447C10.3844 18.7627 10.4428 18.8188 10.4409 18.9214C10.399 21.3878 10.5831 23.3673 12.1831 25.361C12.5466 25.8142 12.9484 26.2275 13.3492 26.6399C13.9947 27.3042 14.6378 27.9658 15.1144 28.7867C16.5905 31.3295 16.3147 34.2233 15.0152 36.7774C14.8546 37.0932 14.4703 36.9383 14.4029 36.6651C14.203 36.4041 14.1165 36.0653 14.032 35.7341C13.9865 35.5562 13.9417 35.3804 13.88 35.22C13.7685 34.9292 13.6154 34.6788 13.4448 34.4438C12.8456 33.8051 12.1613 33.2659 11.4717 32.7223C10.6405 32.0674 9.80156 31.4062 9.09426 30.5574C7.73155 28.9218 7.5766 27.095 7.86629 25.105C7.70161 23.3426 8.40448 21.6681 9.26343 19.9948C9.36015 19.5971 9.5978 19.2866 9.84075 18.9693C9.89114 18.9035 9.94175 18.8374 9.99139 18.7702C10.079 18.6519 10.229 18.6698 10.3129 18.7447ZM12.4511 28.0327C12.1523 27.7033 11.8496 27.3694 11.5585 27.0093C10.4087 25.5867 9.65043 23.5859 9.59466 21.6386C8.76678 23.9714 8.7155 26.2372 10.7684 28.253C11.4026 28.8758 12.077 29.451 12.7502 30.0251C13.0677 30.2958 13.3852 30.5666 13.6978 30.8418C14.0979 31.194 14.4355 31.5952 14.7236 32.0414C14.7379 32.0634 14.7693 32.1357 14.8094 32.2311C14.7008 31.6581 14.535 31.1079 14.3142 30.6131C13.8508 29.5762 13.1616 28.8162 12.4511 28.0327ZM14.5703 36.0632L14.5739 36.0521C14.5761 36.0451 14.5783 36.0381 14.5807 36.0314C14.5577 35.9868 14.534 35.9434 14.5101 35.8998L14.4965 35.875C14.517 35.9446 14.5395 36.0127 14.5653 36.0778C14.5671 36.073 14.5687 36.0681 14.5703 36.0632ZM11.6889 30.3316C10.5374 29.5181 9.38997 28.7076 8.66423 27.5004C9.1403 29.1258 10.3499 30.3216 11.8006 31.6327C11.9554 31.7725 12.1276 31.9211 12.3094 32.0781C13.2486 32.8889 14.4448 33.9217 14.8296 35.1029C14.9336 34.5493 14.9688 33.97 14.9437 33.3928C14.8883 33.3779 14.8374 33.3491 14.8086 33.2985C14.07 32.0137 12.8772 31.1711 11.6889 30.3316Z" fill="currentColor"/>
<path d="M50.6273 29.8018C50.756 30.1095 51.2606 29.9894 51.1415 29.66C50.7083 28.4625 51.2136 27.2104 51.6802 26.0544C51.8109 25.7306 51.9385 25.4143 52.0417 25.1089C52.4339 23.9483 52.313 22.8883 51.9309 21.7412C51.8751 21.5732 51.6202 21.5556 51.5723 21.7412C51.4583 22.1817 51.408 22.6248 51.3574 23.0701C51.3272 23.3364 51.2968 23.6037 51.2527 23.8715C51.1671 24.3903 51.001 24.846 50.8305 25.3139C50.7453 25.5477 50.6588 25.7849 50.5809 26.0341C50.1853 27.2999 50.1108 28.5671 50.6273 29.8018Z" fill="currentColor"/>
<path d="M17.8199 23.8662C17.6033 23.3095 17.392 22.7666 16.9449 22.2896C16.4874 21.8012 16.121 21.2894 15.7469 20.7668C15.5672 20.5158 15.3857 20.2622 15.1915 20.0077C14.9834 19.7348 15.4512 19.38 15.6657 19.642C15.7637 19.7618 15.8587 19.8826 15.9532 20.0027C16.2646 20.3986 16.5711 20.7882 16.9659 21.1181C17.0895 21.2215 17.2144 21.319 17.3381 21.4155C17.6817 21.6836 18.0163 21.9447 18.2889 22.3057C18.8915 23.104 19.03 23.8514 18.567 24.7643C18.4978 24.9005 18.2792 24.8979 18.2096 24.7643C18.0535 24.4663 17.9359 24.1643 17.8199 23.8662Z" fill="currentColor"/>
<path d="M10.5599 34.29C10.3092 34.0961 9.94987 34.4333 10.2029 34.6474C11.1191 35.4221 12.0248 36.5352 12.6641 37.554C13.2154 38.4328 13.3666 39.3965 13.5206 40.3781C13.5641 40.6552 13.6078 40.9337 13.6608 41.2121C13.7135 41.4894 14.0968 41.4404 14.175 41.2121C15.15 38.3628 12.5933 35.8608 10.5599 34.29Z" fill="currentColor"/>
<path d="M13.5496 15.6612C13.0974 18.0288 13.6835 20.9911 15.1911 22.9194C15.3434 23.1144 15.0781 23.3936 14.9134 23.1975C13.5417 21.5653 12.5907 19.5652 12.5656 17.403C12.5488 15.9427 13.0035 14.6605 13.4617 13.3688C13.7874 12.4504 14.1148 11.5272 14.2756 10.5318C14.3116 10.3084 14.6106 10.3986 14.6342 10.5805C14.7851 11.7627 14.4305 12.8027 14.0696 13.8613C13.8701 14.4465 13.6687 15.0374 13.5496 15.6612Z" fill="currentColor"/>
<path d="M35.3201 8.35903C35.8144 8.64338 36.3401 8.87347 36.8656 9.10348C37.4689 9.36755 38.072 9.63151 38.6271 9.97737C39.0772 10.2577 39.4562 10.6218 39.8346 10.9852C40.2013 11.3374 40.5674 11.689 40.997 11.9632C41.2537 12.1275 41.5131 11.812 41.3907 11.5695C40.522 9.85611 39.4385 9.03571 37.7217 8.23141L37.556 8.15382C35.4674 7.17672 33.7946 6.39409 33.1429 3.94715C33.025 3.50402 32.3644 3.69152 32.4595 4.13541C32.8783 6.08984 33.555 7.34364 35.3201 8.35903Z" fill="currentColor"/>
<path d="M41.8493 9.58845C41.7744 9.44561 41.7143 9.33126 41.6744 9.27719C40.9692 8.32292 40.035 7.89828 39.0731 7.46103C38.5173 7.20837 37.9522 6.95151 37.4167 6.58582C37.1618 6.41179 37.3917 6.00458 37.6611 6.16776C38.2206 6.50667 38.852 6.67928 39.4844 6.85218C40.2424 7.05945 41.002 7.26712 41.6411 7.76215C42.5135 8.43771 43.0192 9.28505 43.1876 10.3536C43.213 10.5138 43.1692 10.6437 43.0315 10.738C42.6052 11.0288 42.1256 10.115 41.8493 9.58845Z" fill="currentColor"/>
<path d="M52.2325 15.6769C52.2594 15.8181 52.2804 15.9606 52.3015 16.1031C52.346 16.4035 52.3904 16.7038 52.4889 16.9924C52.5809 17.263 52.9159 17.2391 53.0166 16.9924C53.179 16.5944 53.0156 16.0136 52.8968 15.5917C52.888 15.5605 52.8795 15.5302 52.8714 15.501C52.7022 14.8924 52.5095 14.3912 52.1913 13.8437C52.0117 13.5345 51.5416 13.81 51.7123 14.1236C51.9907 14.6334 52.1247 15.1091 52.2325 15.6769Z" fill="currentColor"/>
<path d="M48.5841 9.86877C48.6462 10.2412 48.8214 10.5402 49.0336 10.8422C49.3386 11.2764 48.6384 11.6638 48.3307 11.2532C47.858 10.6225 47.3823 9.65132 47.9273 8.91663C48.0444 8.75831 48.2544 8.74671 48.3697 8.91663C48.5081 9.12044 48.5301 9.35861 48.5521 9.59646C48.5606 9.68793 48.569 9.77936 48.5841 9.86877Z" fill="currentColor"/>
<path fill-rule="evenodd" clip-rule="evenodd" d="M32.1736 0C49.8466 0 64.1736 14.327 64.1736 32C64.1736 47.1732 53.6091 59.8711 39.4374 63.162C38.4767 63.4914 37.4871 63.6579 36.4893 63.7021C35.0772 63.893 33.6381 64 32.1736 64C14.5002 64 0.173599 49.6734 0.173599 32C0.173599 14.327 14.5002 0 32.1736 0ZM8.72689 48.03C8.50973 49.3098 8.29257 50.5895 8.31358 51.8733C8.79564 52.4516 9.30202 53.0085 9.82413 53.55C9.479 51.5276 9.86419 49.6042 10.2607 47.6244C10.4416 46.7208 10.6249 45.8055 10.7422 44.8636C11.228 40.9581 10.2658 38.0332 7.89439 34.9687C5.91451 32.4102 4.45149 29.4531 3.97056 26.2434C3.7314 24.6505 3.65131 23.1684 3.84555 21.5613C4.03991 19.9501 4.50112 18.5891 4.99129 17.1426C5.03537 17.0125 5.07968 16.8817 5.12406 16.75C3.77893 19.1311 2.73585 21.7042 2.05393 24.4222C2.06198 24.6994 2.06012 24.9767 2.05825 25.2538C2.0538 25.917 2.04935 26.5794 2.1808 27.2374C2.47348 28.7012 3.13744 30.0115 3.81673 31.3166C4.37183 32.3828 5.06691 33.3659 5.76124 34.3481C6.57905 35.5048 7.39581 36.6601 7.9816 37.9479C8.93786 40.0513 9.20247 42.3972 9.13697 44.684C9.10509 45.8012 8.91599 46.9156 8.72689 48.03ZM8.18595 46.6493C8.24958 46.1803 8.30871 45.7121 8.35325 45.2454C8.63058 42.3298 8.37159 39.2488 6.90258 36.6604C6.35363 35.6931 5.69278 34.7269 5.02306 33.7477C4.75039 33.3491 4.47613 32.9481 4.20747 32.5442C4.53832 33.2583 4.83699 33.9885 5.02113 34.8209C5.26683 35.9329 5.37144 37.0576 5.47624 38.1844C5.53587 38.8255 5.59556 39.4673 5.68134 40.1078C5.88979 41.6639 6.47582 42.8493 7.12075 44.1538C7.24468 44.4045 7.37091 44.6598 7.49692 44.9228C7.76116 45.4737 8.0093 46.0538 8.18595 46.6493ZM2.95779 30.5205C2.2987 29.333 1.77846 28.1076 1.55652 26.822C1.27358 28.507 1.11863 30.2349 1.11863 32C1.11863 39.2425 3.60452 45.9 7.76041 51.1817C7.73945 50.1592 7.84724 49.1352 7.98347 48.113C7.586 46.7829 7.05566 45.8008 6.21954 44.6376C5.34637 43.4219 4.91821 42.1981 4.7947 40.6999C4.72552 39.8661 4.71985 39.0311 4.71419 38.1964C4.70618 37.0171 4.69817 35.8384 4.511 34.6648C4.34526 33.6275 3.9349 32.729 3.51949 31.8194C3.32519 31.394 3.12978 30.9661 2.95779 30.5205ZM9.44649 14.7155C10.0274 13.1155 10.3193 11.4455 10.5109 9.75832C8.56022 11.6585 6.85842 13.8116 5.4594 16.1669C4.34895 20.1312 3.86763 24.2829 5.13304 28.2959C5.31007 28.8576 5.52864 29.388 5.77379 29.8992C5.12256 26.8864 5.53987 23.7706 6.78319 20.803C7.1241 19.9895 7.49549 19.1901 7.86692 18.3907C8.42839 17.1823 8.99016 15.9732 9.44649 14.7155ZM55.9082 22.254C56.7956 19.2153 57.003 15.7522 56.4289 12.6177C50.7381 5.5055 41.9907 0.945404 32.1736 0.945404C24.1781 0.945404 16.89 3.96875 11.3856 8.93231C12.4669 11.8159 10.5027 15.3773 9.09336 17.9328C9.02031 18.0652 8.94866 18.1952 8.8791 18.322C7.69154 20.4871 6.56087 22.583 6.19185 25.0734C5.83105 27.508 6.2289 29.8697 7.07961 32.1396C7.52726 32.8026 8.00454 33.4458 8.48354 34.0913C9.14911 34.9881 9.81806 35.8896 10.4155 36.855C11.8953 39.247 12.1693 41.9181 11.8774 44.666C11.7498 45.8666 11.4241 47.081 11.0969 48.3009C10.5839 50.2135 10.0673 52.1396 10.3054 54.0463C15.6871 59.3845 23.013 62.7593 31.1264 63.0288C29.4179 62.7103 27.8515 61.7907 26.5592 60.5953C26.4578 60.5227 26.3567 60.4489 26.2579 60.3733C26.228 60.4239 26.1849 60.4706 26.1112 60.5036C25.1589 60.9272 24.0602 60.5846 23.0809 60.2792C22.9476 60.2376 22.8163 60.1967 22.6881 60.1585C21.2161 59.7202 19.7434 58.9399 18.6202 57.8972C16.5149 55.9427 14.8289 53.1398 14.2293 50.3122C13.4063 46.4333 14.5444 42.9171 15.9397 39.3372C16.1036 38.9166 16.2827 38.4816 16.4665 38.0354C17.6891 35.0666 19.1156 31.6029 17.6127 28.602C17.6099 28.5966 17.6077 28.5913 17.6056 28.586C17.6039 28.5816 17.6024 28.5772 17.6009 28.5728C17.5993 28.5681 17.5977 28.5633 17.5958 28.5586C17.5801 28.5379 17.565 28.5165 17.55 28.4952C17.5278 28.4637 17.5056 28.4323 17.4813 28.4029C17.2983 28.178 17.3518 27.9077 17.5011 27.7352C17.588 27.5387 17.8529 27.4238 18.0719 27.6121C20.0151 29.2828 21.4306 31.2399 22.3097 33.4185C22.3361 33.1157 22.3654 32.8128 22.3946 32.5099C22.476 31.6681 22.5574 30.826 22.5758 29.9849C22.6155 28.1982 22.5354 26.435 22.3427 24.6557C22.2563 23.8583 22.13 23.0381 22.0021 22.2065C21.5974 19.5773 21.1752 16.8337 21.9377 14.3368C22.0028 12.4852 22.4291 10.6438 23.3753 9.03972C23.5684 8.71298 23.7791 8.40683 23.9966 8.10816C24.4154 7.42325 24.9012 6.77502 25.3948 6.17244C25.4297 6.12985 25.4657 6.08569 25.5028 6.04018C26.2893 5.07599 27.5726 3.50271 28.816 3.23144C28.8553 3.22283 28.8879 3.22732 28.9178 3.2363C28.9504 3.21572 28.9916 3.20674 29.041 3.21871C29.6906 3.37406 29.2624 4.29121 28.9939 4.86621C28.9351 4.99218 28.8839 5.10173 28.8535 5.18325C28.298 6.66873 28.3145 7.90718 28.3998 9.38891C28.5563 10.0061 28.8127 10.6083 29.1907 11.1832C29.8751 12.2232 30.7272 13.1156 31.5795 14.0082C32.2951 14.7577 33.0107 15.5073 33.6273 16.3443C34.9331 18.1176 34.9967 20.041 34.5427 21.946C35.5877 19.7397 36.2067 17.3245 35.4833 15.0247C35.048 14.2054 34.5397 13.4232 33.9802 12.6847C33.8952 12.5726 33.8094 12.4608 33.7235 12.3489C33.1168 11.5581 32.5083 10.7651 32.1657 9.86124C31.9737 9.53076 31.8173 9.17334 31.7103 8.78073C31.537 8.14409 32.4895 7.89184 32.6916 8.51013C33.1602 9.94355 34.628 10.6661 36.0493 11.3658C36.8576 11.7636 37.6509 12.1541 38.2368 12.6638C38.4336 12.8344 38.6159 13.0182 38.7914 13.2076C39.5894 13.7506 40.3566 14.3255 41.0112 15.0797C41.9813 16.1965 42.8927 17.3474 43.7153 18.5795C45.3475 21.0249 46.9075 24.3241 46.7031 27.3546C46.6024 28.8494 46.2476 30.1934 45.3179 31.3667C45.2053 31.509 45.0934 31.6362 44.9807 31.7642C44.1362 34.8635 45.2097 38.3086 46.176 41.41C46.3891 42.094 46.597 42.7612 46.778 43.4044C46.4972 39.7713 47.2226 36.66 50.0397 33.9578C50.4027 33.6094 50.8769 33.8145 51.0472 34.158C51.1472 34.2707 51.2071 34.4238 51.1812 34.6057C50.8649 36.8305 51.4177 39.0547 51.9673 41.2665C52.2612 42.4492 52.5543 43.6284 52.7131 44.8022C53.0851 47.5546 53.1263 50.2804 52.1023 52.9052C51.3762 54.7668 50.3358 56.5625 49.0187 58.0836C52.3808 55.9076 55.2941 53.1013 57.5936 49.8291C57.5367 49.3553 57.495 48.8822 57.4534 48.4101C57.347 47.2022 57.241 46 56.8832 44.8139C56.4446 43.3564 55.9094 41.9245 55.2761 40.5348C54.0721 37.8925 52.8707 35.2299 53.1592 32.25C53.3981 29.7853 54.1653 27.527 54.9407 25.2443C55.2756 24.2583 55.6121 23.2677 55.9082 22.254ZM61.2847 41.0765C61.4283 41.2452 61.5721 41.4142 61.7139 41.5854C62.693 38.5658 63.2286 35.3463 63.2286 32C63.2286 30.3734 63.1021 28.776 62.861 27.2168C62.367 29.1758 61.3636 31.0187 60.3564 32.7467C59.2729 34.6042 58.6026 36.3524 59.487 38.4546C59.9114 39.463 60.595 40.2662 61.2847 41.0765ZM59.9945 45.7993C60.5881 44.6046 61.1046 43.3662 61.5429 42.0907C59.7056 40.3769 58.0801 37.7147 58.5098 35.1517C58.7013 34.0099 59.3272 32.9769 59.9354 31.9731C60.1413 31.6333 60.3455 31.2965 60.5297 30.9603C61.4291 29.3195 62.3015 27.4249 62.5459 25.5177C62.2068 23.9218 61.7427 22.3731 61.169 20.8778C61.1753 22.0111 61.1211 23.1403 61.0548 24.2889C60.9807 25.5708 60.8823 27.0641 60.3796 28.2599C59.9623 29.2529 59.1169 29.9875 58.2996 30.6977C58.0424 30.9212 57.7879 31.1423 57.5505 31.3682C56.5116 32.3571 56.0699 33.4619 56.0041 34.6446C56.2504 36.2233 56.9985 37.6005 57.7562 38.9953C58.1761 39.7684 58.599 40.5469 58.941 41.368C59.5656 42.8688 59.9709 44.2981 59.9945 45.7993ZM58.0678 30.2278C60.7434 27.9051 61.1271 23.8196 60.944 20.3082C60.9232 20.257 60.9034 20.2052 60.8835 20.1534C60.858 20.087 60.8323 20.0201 60.8048 19.9545C60.6005 22.1279 60.0959 24.1838 59.0588 26.1408C58.6994 26.8187 58.3135 27.4352 57.9394 28.0327C57.1473 29.2978 56.4083 30.478 56.0875 31.976C56.4673 31.5249 56.936 31.1492 57.4138 30.7661L57.4149 30.7652C57.6332 30.5902 57.8534 30.4138 58.0678 30.2278ZM60.6424 19.5904C59.6857 17.3986 58.4888 15.3357 57.0752 13.4426C57.5154 15.8091 57.6138 18.1535 57.238 20.5882C56.9288 22.5928 56.2166 24.4835 55.5043 26.3744C54.8957 27.9901 54.2869 29.6063 53.9295 31.2938C53.2487 34.5081 54.2968 36.9736 55.4627 39.7163C55.696 40.2651 55.934 40.825 56.1639 41.4043C57.1613 43.9182 57.9832 46.3686 58.1292 49.0446C58.5075 48.4693 58.8661 47.8799 59.2067 47.2788C59.4988 44.5773 57.9576 41.8656 56.6339 39.5365C56.5078 39.3148 56.3834 39.0958 56.2631 38.8813C55.2319 37.0429 54.8704 35.2109 55.1507 33.1217C55.4348 31.0003 56.272 29.3247 57.5168 27.6188C59.3358 25.1258 60.3048 22.6231 60.6424 19.5904ZM44.6914 59.7041C44.6723 59.7217 44.6514 59.7318 44.6308 59.7408C44.215 60.1926 43.7655 60.6125 43.2853 60.9995C44.3235 60.6016 45.3333 60.1484 46.3142 59.6458C47.0381 59.1109 47.7099 58.4683 48.3304 57.6838C50.0944 55.4543 51.6562 52.6683 51.7733 49.7662C51.8845 47.0082 51.2377 44.2558 50.6082 41.5873C50.535 41.2773 50.4568 40.9685 50.3786 40.6598L50.3777 40.6564C50.1306 39.6808 49.8838 38.7061 49.7934 37.6982C49.7504 37.2184 49.7714 36.757 49.8249 36.2996C48.6856 38.864 48.9395 41.7904 49.1901 44.6777C49.3413 46.4212 49.4914 48.1504 49.3327 49.777C48.9599 53.5998 47.5632 57.1052 44.6914 59.7041ZM28.1311 4.84903C26.268 6.74583 24.9626 9.48547 26.6314 11.9156C27.1458 12.6643 27.9645 13.0887 28.783 13.5129C29.0889 13.6715 29.3948 13.8301 29.6847 14.0055C29.6042 13.9 29.5264 13.7926 29.4519 13.6837C27.6116 10.9792 26.9933 7.83233 28.1311 4.84903ZM31.1713 27.2584C31.6433 26.5944 32.1096 25.9267 32.567 25.2538C33.3922 23.2485 33.9387 20.7502 33.2814 18.679C32.8821 17.4199 31.9565 16.4641 31.031 15.5084C30.9356 15.4099 30.8402 15.3114 30.7454 15.2125C30.2618 15.0328 29.7855 14.8875 29.3256 14.7471C28.3046 14.4356 27.364 14.1485 26.6026 13.5646C26.9433 14.1736 27.3626 14.7524 27.809 15.3683C28.0698 15.7282 28.3398 16.1009 28.6087 16.4997C29.7671 18.2187 30.3831 20.1735 30.8101 22.19C31.1657 23.8683 31.3266 25.5499 31.1713 27.2584ZM34.5334 29.7477C36.0566 26.4002 37.3101 22.784 36.8348 19.1409C36.3935 22.4502 34.282 25.6291 32.312 28.5949C31.6069 29.6563 30.9198 30.6908 30.3341 31.6938C27.2273 37.013 23.8832 45.0848 27.2007 50.9638C26.829 48.4379 27.2467 45.9063 28.3894 43.544C28.8615 42.5681 29.3836 41.6189 29.9054 40.6701C30.3188 39.9185 30.7321 39.1669 31.1204 38.4026C31.3867 37.878 31.6361 37.3279 31.8869 36.7749C31.9681 36.5957 32.0495 36.4162 32.1317 36.2371C32.4573 33.8874 33.4412 31.8301 34.5334 29.7477ZM38.51 22.8925C39.6111 21.0586 40.4 19.1674 39.476 16.8522C38.4561 14.2975 36.7629 13.2132 34.4417 11.9512C34.441 11.9509 34.4405 11.9506 34.44 11.9502C34.4397 11.95 34.4394 11.9498 34.4391 11.9497C34.4884 12.0065 34.5379 12.0634 34.5873 12.1202C35.0928 12.7012 35.5992 13.2832 36.0271 13.9183C37.1896 15.6448 38.2585 17.6004 38.5627 19.6836C38.7285 20.8161 38.6911 21.8786 38.51 22.8925ZM40.8171 32.9341C42.2619 32.03 43.7055 31.1267 44.6401 29.5579C46.6544 26.1764 45.2315 21.9325 43.2224 18.9099C42.4188 17.7007 41.5797 16.5199 40.6145 15.4289C40.3821 15.1661 40.1343 14.9337 39.8794 14.7136C39.8867 14.7269 39.8935 14.7405 39.9003 14.754C39.9058 14.7648 39.9112 14.7756 39.9169 14.7862C43.237 18.9593 42.3882 25.2396 40.1721 29.7499C39.9148 30.2736 39.6544 30.7891 39.396 31.3004C38.6258 32.8246 37.874 34.3125 37.2816 35.8688C37.286 35.8629 37.2902 35.857 37.2943 35.8512C37.3006 35.8421 37.3068 35.833 37.3129 35.8239C37.323 35.8089 37.3331 35.794 37.3441 35.779C38.2718 34.5269 39.545 33.7302 40.8171 32.9341ZM46.4576 54.723C46.9243 53.2899 47.135 51.7595 47.0654 50.2172C46.9175 46.9431 46.076 43.9273 45.2168 40.8478C45.0015 40.0765 44.7852 39.3011 44.5784 38.5168C44.1341 36.8326 43.8092 34.6173 44.0918 32.6501C43.7793 32.9215 43.4578 33.1662 43.1225 33.396C41.9121 35.5148 41.8316 37.7937 42.0917 40.1467C42.4852 41.8938 43.286 43.5501 44.0899 45.213C44.9499 46.9918 45.8137 48.7785 46.1862 50.6914C46.4299 51.9411 46.5934 53.3734 46.4576 54.723ZM33.6419 61.9498C33.0857 62.2001 32.4958 62.336 31.8895 62.3723C35.0592 62.9846 38.5837 62.5819 41.3264 61.059C42.8657 60.2042 44.1057 59.0226 45.038 57.6427C45.4298 56.5592 45.5096 55.3533 45.3831 54.2084C45.3636 54.0319 45.3445 53.8554 45.3254 53.6791C45.1199 51.7805 44.9158 49.8943 44.2651 48.082C43.9423 47.1835 43.5568 46.2844 43.1688 45.3795C43.0273 45.0496 42.8855 44.7189 42.7463 44.3872C42.9593 45.7128 43.1344 47.0467 43.0708 48.3941C43.0004 49.8902 42.5506 51.3028 42.0997 52.7188L42.0498 52.8756C41.6497 55.3319 40.5797 58.2426 38.7338 59.7768C38.0957 60.3071 36.8913 61.1092 35.786 61.4602C35.1191 61.7469 34.4001 61.9161 33.6419 61.9498ZM29.6207 43.986C30.0231 42.0641 30.9273 39.5973 32.0149 37.9045C32.0149 37.8812 32.0156 37.8583 32.0162 37.8355C32.0168 37.8165 32.0174 37.7975 32.0175 37.7783C31.5367 38.6283 31.0731 39.4859 30.607 40.3481L30.5208 40.5075C29.3003 42.7655 28.2243 45.0425 28.0447 47.6373C27.8673 50.191 28.7202 52.9366 30.2349 55.0209C32.0235 57.4817 34.1569 56.5397 35.2565 54.6938C34.5925 54.9098 33.8185 54.903 33.04 54.6901C30.9797 54.1264 30.0384 52.4029 29.6166 50.4365C29.1536 48.2785 29.1682 46.1489 29.6207 43.986ZM33.7357 45.9676C32.9908 43.6193 32.2445 41.2665 32.0516 38.8199C32.0478 38.7718 32.0466 38.725 32.0454 38.6782L32.0454 38.677C32.0445 38.6413 32.0436 38.6054 32.0415 38.5692C30.8266 41.0596 29.8183 43.6143 29.7569 46.4333C29.727 47.802 29.9373 49.1984 30.4085 50.4889C30.8551 51.7109 31.5276 52.6873 32.8207 53.1511C33.4749 53.3854 34.6909 53.6197 35.4185 53.1859C35.2439 50.7225 34.4905 48.3474 33.7357 45.9676ZM39.9827 56.9798C41.7163 53.6653 41.4577 50.6944 40.8596 47.1807C40.6789 46.1187 40.3734 45.0369 40.0659 43.9483C39.572 42.1993 39.0731 40.4328 39.0789 38.7028C39.0826 37.6249 39.3345 36.5534 39.781 35.5694C38.5695 36.5167 37.6102 37.6432 36.9605 39.1777C36.4402 40.4057 36.2308 41.6899 36.0193 42.9871L35.9994 43.1094C35.9504 44.7757 35.999 46.4801 36.1599 48.1598C37.3235 52.1536 38.1447 56.6063 35.7389 60.1413C35.6906 60.2119 35.6405 60.2778 35.5903 60.3438L35.5775 60.3608L35.5566 60.3883L35.56 60.387C37.3793 59.6948 38.8565 59.1328 39.9827 56.9798ZM41.6521 42.1761C41.5545 41.7269 41.457 41.278 41.3642 40.8286C40.8724 38.4502 40.9925 36.1929 41.9267 34.1573C41.8934 34.1772 41.8597 34.1975 41.8258 34.218L41.7739 34.2493C41.7351 34.2728 41.696 34.2964 41.6572 34.3197C39.9815 36.6458 40.6074 39.4879 41.2058 42.2058C41.283 42.5564 41.3599 42.9054 41.4311 43.2505C41.9012 45.5265 42.2725 47.9596 42.2497 50.3223C42.4656 49.1823 42.5873 48.0314 42.4638 46.7664C42.3127 45.217 41.9821 43.6952 41.6521 42.1761ZM38.1821 24.8367L38.1815 24.8376C38.0231 25.0661 37.8646 25.2945 37.7083 25.5236C37.1679 26.798 36.4511 28.0133 35.6951 29.2181C34.8874 31.0112 34.1198 32.8226 33.7773 34.749C33.2526 37.6986 33.9387 40.8103 34.7871 43.6952C34.6644 39.8293 35.2909 35.9871 37.166 32.4648C37.5511 31.7415 37.9796 31.0167 38.4125 30.2848C39.5732 28.3222 40.7644 26.3079 41.2287 24.1295C41.7384 21.7394 41.6598 19.2689 40.7762 17.1C41.4385 20.1416 39.8099 22.4897 38.1821 24.8367ZM24.5363 20.6308C25.7111 22.9307 26.8695 25.201 27.3762 27.7625C27.6386 29.0886 27.8527 30.61 27.7681 32.0722C28.5948 30.8611 29.45 29.6668 30.306 28.4733C31.0575 25.3122 29.8389 21.5396 28.4489 18.8482C28.0497 18.0753 27.5159 17.3921 26.9836 16.7107C26.4214 15.9911 25.8607 15.2734 25.4618 14.4543C24.7758 13.0444 24.7444 11.6327 24.9203 10.1296C24.8623 9.36758 24.9607 8.62391 25.1853 7.91242C24.5524 8.74554 24.01 9.64716 23.6579 10.7082C22.5579 14.0227 22.9587 17.5427 24.5363 20.6308ZM21.9497 47.6968C21.5608 50.8138 22.2326 53.7447 23.8888 56.405C25.454 58.9197 28.764 61.4505 31.8884 60.672C33.6767 60.2262 34.6202 58.8605 35.0791 57.2639C34.588 57.6434 33.9884 57.9327 33.2534 58.0881C30.166 58.7408 28.4006 55.3226 27.6491 52.9291C27.6311 52.8715 27.6149 52.8137 27.5988 52.756C27.5888 52.72 27.5787 52.684 27.5682 52.6481C24.2054 48.2025 24.6197 41.4398 26.4813 36.3295C25.6842 37.641 24.93 38.9816 24.2709 40.3645C23.8394 41.2696 23.4976 42.2059 23.1562 43.1413C22.9461 43.7167 22.7361 44.2919 22.5055 44.8591C22.2813 45.7974 22.0691 46.738 21.9497 47.6968ZM48.1594 53.5066C48.7331 51.3695 48.7193 49.1726 48.6134 46.9951C48.5645 45.9908 48.4526 45.0076 48.3426 44.0407C48.1955 42.7478 48.0516 41.4839 48.0662 40.2373C47.6754 41.7168 47.4524 43.2606 47.2364 44.7873C47.2297 44.8356 47.1975 44.867 47.1571 44.885C47.9535 48.326 48.232 52.1667 47.1459 55.4779C47.0182 55.8679 46.8685 56.2451 46.7035 56.6123C47.3371 55.6688 47.8521 54.6523 48.1594 53.5066ZM22.8633 21.7207C23.0584 22.9631 23.2493 24.1784 23.3117 25.3144C23.4166 27.2337 23.2041 29.1105 22.9914 30.9878C22.8614 32.1355 22.7314 33.2834 22.6739 34.4414C23.2218 36.1652 23.4505 38.0141 23.3592 39.9577C24.1747 37.8921 25.2249 36.0125 26.4054 34.1371C26.6685 33.719 26.9413 33.3069 27.2145 32.8953C27.2336 32.698 27.2441 32.5011 27.2396 32.305C27.2244 31.6407 27.0224 30.9659 26.8259 30.3097C26.7523 30.0639 26.6795 29.8206 26.6176 29.5815C26.2594 28.1971 25.8208 26.8358 25.3181 25.4963C24.953 24.5239 24.5057 23.5888 24.0597 22.6562C23.4538 21.3892 22.85 20.1268 22.4572 18.7816C22.5556 19.7612 22.7107 20.7492 22.8633 21.7207ZM17.29 53.6604C17.399 53.8569 17.5112 54.0531 17.6288 54.2481C18.5274 55.741 19.4312 57.1887 20.8834 58.2198C22.029 59.0338 24.1257 59.9848 25.6396 59.8617C25.2231 59.4908 24.8458 59.096 24.5217 58.6899C22.9752 56.7534 21.8565 54.5048 21.3475 52.0799C20.7883 49.414 21.2734 46.8446 21.9512 44.2547C22.6597 41.5461 22.7813 38.5815 22.1825 35.8527C21.7869 34.0517 20.9126 32.4173 19.8441 30.9128C20.8097 34.3141 19.9515 38.3547 18.8754 41.4705C18.7612 41.8014 18.6462 42.1276 18.5322 42.4509C17.7647 44.6278 17.0447 46.6699 16.9251 49.0667C16.8488 50.5907 16.9053 52.1753 17.29 53.6604ZM17.8172 41.7864C18.3504 40.2684 18.8846 38.7475 19.0622 37.1481C19.1603 36.2626 19.2138 35.2393 19.1782 34.1887C18.8266 35.872 18.1336 37.5418 17.4386 39.2165C16.581 41.2831 15.7203 43.357 15.4939 45.4729C15.2682 47.5819 15.5643 49.5499 16.2556 51.4193C16.0332 49.0876 16.3735 46.6272 16.9644 44.4239C17.2026 43.536 17.5097 42.6617 17.8172 41.7864Z" fill="currentColor"/>
</svg>
