<svg width="65" height="65" viewBox="0 0 65 65" fill="none" xmlns="http://www.w3.org/2000/svg">
<path d="M13.065 47.5416C12.8643 47.2229 13.3685 46.9311 13.5681 47.2474C13.6802 47.4249 13.7953 47.6015 13.9106 47.7782C14.2978 48.3718 14.687 48.9685 14.9708 49.6163C15.0359 49.766 14.8736 49.9 14.7448 49.791C14.1355 49.2735 13.7113 48.586 13.2935 47.909C13.2175 47.7859 13.1417 47.663 13.065 47.5416Z" fill="currentColor"/>
<path d="M15.289 45.2483C15.027 44.8673 14.743 44.5249 14.3661 44.2535C14.0012 43.9904 13.6617 44.5908 14.0154 44.8535C14.303 45.0671 14.4984 45.3563 14.6948 45.6469C14.7417 45.7162 14.7887 45.7858 14.8369 45.8543C14.8667 45.8967 14.8976 45.9422 14.9297 45.9893C15.113 46.2588 15.3343 46.5842 15.6056 46.7174C15.786 46.8061 15.9851 46.6605 15.9406 46.4599C15.8537 46.0688 15.539 45.6116 15.3087 45.277L15.289 45.2483Z" fill="currentColor"/>
<path d="M19.0635 53.5583C18.8884 53.3443 19.188 53.036 19.3711 53.2506C21.1097 55.2926 22.722 57.5181 24.2402 59.726C24.4083 59.9703 24.048 60.2092 23.8492 60.0279C22.6587 58.9431 21.7769 57.5672 20.8975 56.1951C20.3149 55.286 19.7332 54.3784 19.0635 53.5583Z" fill="currentColor"/>
<path d="M21.1004 58.956C21.0446 58.9015 20.9883 58.8463 20.9333 58.7913C20.6934 58.5517 20.321 58.9238 20.561 59.1637C20.6162 59.2188 20.671 59.2747 20.7257 59.3307C20.8513 59.459 20.9771 59.5876 21.11 59.7075C21.1414 59.7358 21.1731 59.7655 21.2053 59.7957C21.349 59.9306 21.5022 60.0744 21.6811 60.1401C21.8095 60.1877 21.9573 60.0398 21.9098 59.9114C21.8435 59.7316 21.6994 59.5781 21.564 59.4339C21.5343 59.4024 21.5051 59.3712 21.4772 59.3403C21.3573 59.2074 21.2287 59.0816 21.1004 58.956Z" fill="currentColor"/>
<path d="M20.4093 51.5978C20.3596 51.5437 20.3097 51.4894 20.2574 51.4391C20.2004 51.3846 20.1447 51.3289 20.089 51.2732C20.0076 51.1918 19.9262 51.1105 19.8409 51.0327C19.65 50.859 19.9337 50.5768 20.1238 50.7497C20.4135 51.014 20.7402 51.3504 20.8585 51.7348C20.8963 51.8568 20.7485 51.9122 20.665 51.8475C20.5718 51.7747 20.4904 51.686 20.4093 51.5978Z" fill="currentColor"/>
<path d="M20.8671 25.8416C18.851 28.3872 16.6302 30.9283 14.2524 33.1414C14.0249 33.3534 13.6886 33.0201 13.91 32.7991C14.8492 31.8603 15.701 30.8181 16.5536 29.7749C17.7949 28.2561 19.0378 26.7354 20.5543 25.5292C20.7785 25.3505 21.0443 25.6176 20.8671 25.8416Z" fill="currentColor"/>
<path d="M19.4765 29.8422C18.4592 30.8035 17.5406 31.8763 16.6224 32.9486C15.9361 33.7501 15.25 34.5514 14.5229 35.3058C14.3442 35.4913 14.6234 35.7714 14.8057 35.5886C15.0598 35.334 15.3174 35.0788 15.5764 34.8221C17.0733 33.3391 18.6172 31.8095 19.7907 30.0841C19.9219 29.8912 19.637 29.6905 19.4765 29.8422Z" fill="currentColor"/>
<path d="M13.9749 25.7308C15.5351 23.7385 17.1128 21.724 19.2556 20.4645C19.3965 20.3816 19.5332 20.5707 19.4259 20.6846C18.6847 21.4717 17.9485 22.2687 17.2111 23.0669C15.3812 25.0479 13.5445 27.0362 11.6109 28.897C11.5069 28.9972 11.3518 28.8424 11.4521 28.7384C12.3411 27.8171 13.1557 26.7769 13.9749 25.7308Z" fill="currentColor"/>
<path d="M17.8943 19.6797C18.8347 18.6919 19.7745 17.7048 20.6432 16.6576C20.822 16.4421 20.5562 16.1854 20.3407 16.3547C18.4277 17.8544 16.8178 19.8551 15.2829 21.7625L15.274 21.7736C15.1099 21.9774 14.9467 22.1802 14.7841 22.3812C14.591 22.6207 14.9269 22.9649 15.1268 22.7237C16.002 21.6672 16.9487 20.6729 17.8943 19.6797Z" fill="currentColor"/>
<path d="M34.103 32.0255C33.8886 31.777 33.6759 31.5304 33.4598 31.2944C33.1921 31.0022 33.6243 30.5666 33.8967 30.8575C34.0794 31.0532 34.2669 31.2485 34.4556 31.4451C35.2202 32.2419 36.0039 33.0585 36.5644 33.9937C36.6343 34.1101 36.4941 34.253 36.3774 34.1813C35.4935 33.6373 34.7899 32.8218 34.103 32.0255Z" fill="currentColor"/>
<path d="M33.2587 27.8523C33.035 27.6609 32.7117 27.9737 32.9314 28.18C33.1427 28.3783 33.3396 28.6069 33.5381 28.8374C33.9089 29.2678 34.2851 29.7046 34.7709 29.9619C34.9007 30.0305 35.0338 29.8937 34.9678 29.765C34.5897 29.0262 33.8814 28.385 33.2587 27.8523Z" fill="currentColor"/>
<path d="M34.8433 27.4659C34.9009 27.6243 34.6956 27.6955 34.5911 27.613C33.8478 27.0238 33.2552 26.2348 32.6844 25.4748C32.6443 25.4214 32.6043 25.3682 32.5644 25.3152C32.3747 25.0634 32.8039 24.7367 32.9998 24.9791C33.1771 25.1984 33.3692 25.4108 33.5619 25.6239C34.07 26.1859 34.5828 26.753 34.8433 27.4659Z" fill="currentColor"/>
<path d="M31.4857 34.6364C31.6143 34.7227 31.7902 34.5494 31.7017 34.4202C31.0527 33.4748 30.2916 32.6022 29.534 31.7337C29.2488 31.4066 28.9639 31.08 28.6858 30.7504C28.3887 30.3976 27.8835 30.9064 28.1798 31.2562C28.3343 31.4386 28.4881 31.6236 28.6424 31.8093C29.4987 32.8392 30.3721 33.8898 31.4857 34.6364Z" fill="currentColor"/>
<path d="M24.1243 21.1058C24.6154 21.5317 25.0626 22.0022 25.5028 22.4794C25.5778 22.5607 25.6554 22.6425 25.7338 22.7251C26.0765 23.0864 26.4348 23.4641 26.6626 23.8945C26.7461 24.052 26.6027 24.3114 26.4051 24.2294C25.846 23.9981 25.435 23.512 25.0615 23.0516C25.0268 23.0088 24.9921 22.966 24.9575 22.9233L24.9559 22.9214C24.5611 22.4339 24.1693 21.9502 23.7078 21.5223C23.4267 21.2626 23.8403 20.8595 24.1243 21.1058Z" fill="currentColor"/>
<path d="M25.0318 20.688C25.2991 21.0369 25.5792 21.4027 25.9055 21.6559C26.1001 21.8067 26.4692 21.6787 26.3689 21.3861C26.1966 20.8835 25.7851 20.4248 25.4283 20.0271L25.3894 19.9837C25.1723 19.7412 24.9473 19.5065 24.7224 19.2719C24.4962 19.0358 24.2699 18.7997 24.0518 18.5558C23.7961 18.2703 23.3938 18.6857 23.6348 18.9728C24.0132 19.4234 24.3856 19.8804 24.7573 20.3366C24.8479 20.4478 24.9387 20.5663 25.031 20.6869L25.0318 20.688Z" fill="currentColor"/>
<path d="M29.7013 19.5965C29.5587 19.7215 29.4139 19.8428 29.2604 19.9539C29.0557 20.1021 28.8574 19.7604 29.0621 19.6145C29.2024 19.5143 29.3327 19.402 29.4632 19.2896L29.4914 19.2653C29.51 19.2493 29.5283 19.2331 29.5467 19.217C29.6603 19.1172 29.7723 19.0187 29.9195 18.973C30.0513 18.9318 30.1785 19.0927 30.1022 19.2099C30.0243 19.329 29.9133 19.4204 29.8033 19.5109C29.7688 19.5393 29.7345 19.5675 29.7013 19.5965Z" fill="currentColor"/>
<path d="M21.1414 42.7475C20.8884 42.4181 20.318 42.7344 20.5718 43.0806C20.7883 43.3754 20.991 43.6792 21.1937 43.9829C21.349 44.2157 21.5046 44.4488 21.6661 44.6776C21.9861 45.1305 22.3151 45.5882 22.8863 45.7057C23.0158 45.7327 23.1378 45.6252 23.1018 45.4901C22.9884 45.06 22.7137 44.7388 22.4331 44.4109C22.3775 44.3459 22.3217 44.2807 22.2668 44.2142C22.0072 43.8994 21.7631 43.5734 21.5189 43.2472C21.3938 43.0802 21.2687 42.9131 21.1414 42.7475Z" fill="currentColor"/>
<path d="M22.0523 40.9877C22.3268 41.2846 22.6121 41.5932 22.8414 41.926C22.8626 41.9567 22.8849 41.9886 22.9079 42.0216C23.1002 42.2969 23.3438 42.6457 23.398 42.9552C23.4376 43.1813 23.2322 43.3441 23.0218 43.2445C22.7918 43.1357 22.5883 42.9079 22.4014 42.6986C22.3363 42.6256 22.2731 42.5548 22.2115 42.4922C22.0606 42.3389 21.9231 42.1704 21.7855 42.0019C21.6682 41.8583 21.5508 41.7146 21.4252 41.5801C21.0457 41.1744 21.658 40.5614 22.0356 40.9697L22.0523 40.9877Z" fill="currentColor"/>
<path d="M43.3283 47.5152C43.1773 47.7102 43.0261 47.9054 42.873 48.0995L42.8079 48.182C42.022 49.1783 41.2552 50.1502 40.6292 51.2613C40.545 51.4111 40.7752 51.5454 40.8598 51.3957C41.3569 50.5129 42.0339 49.7506 42.7082 48.9914C42.9749 48.6911 43.2416 48.3908 43.4961 48.0842C44.0075 47.4682 44.5022 46.84 44.9969 46.2118C45.3539 45.7585 45.7108 45.3052 46.0741 44.8565C46.1714 44.736 46.0258 44.5915 45.9053 44.6877C44.8919 45.4967 44.1129 46.5023 43.3283 47.5152Z" fill="currentColor"/>
<path d="M52.5046 31.7627C51.6999 32.6765 50.877 33.5826 50.0283 34.459C49.7107 34.7873 49.2024 34.2789 49.5273 33.9577C49.7254 33.762 49.9195 33.5574 50.1147 33.3517C50.7778 32.653 51.4517 31.9428 52.3259 31.5316C52.4777 31.46 52.6176 31.6345 52.5046 31.7627Z" fill="currentColor"/>
<path d="M50.4868 36.5687C49.9343 37.1278 49.4309 37.7334 49.0196 38.4041C48.8823 38.6283 49.2326 38.8315 49.3711 38.6096C49.788 37.9407 50.3225 37.3602 50.8936 36.8198C51.1095 36.6155 51.3449 36.4238 51.5808 36.2319C51.9181 35.9573 52.2564 35.682 52.5396 35.3676C52.6908 35.1996 52.5026 34.9582 52.3016 35.0589C51.6577 35.3813 51.0787 35.9684 50.5701 36.4843L50.4868 36.5687Z" fill="currentColor"/>
<path d="M45.3215 54.9736C47.1445 53.4729 48.9874 51.9559 50.5567 50.2134C50.6455 50.1149 50.5288 49.9375 50.4082 50.0207C48.7045 51.1913 47.1595 52.5984 45.6208 53.9997C44.9283 54.6303 44.2371 55.2598 43.5333 55.866C43.3101 56.0586 43.6333 56.3763 43.8561 56.1887C44.3393 55.7821 44.8297 55.3784 45.3215 54.9736Z" fill="currentColor"/>
<path d="M51.1069 44.5608C50.1346 46.0306 48.4302 47.2746 46.9649 48.2227C46.7452 48.3649 46.5588 48.0254 46.7628 47.8772C47.5499 47.3065 48.2771 46.6444 48.974 45.9669C49.1501 45.7958 49.3232 45.6161 49.4972 45.4355C49.9065 45.0106 50.3208 44.5806 50.7903 44.2442C50.9793 44.1083 51.2308 44.3737 51.1069 44.5608Z" fill="currentColor"/>
<path fill-rule="evenodd" clip-rule="evenodd" d="M0.644638 32.1377C0.644638 14.4647 14.9713 0.137695 32.6446 0.137695C50.3176 0.137695 64.6446 14.4647 64.6446 32.1377C64.6446 49.8111 50.3176 64.1377 32.6446 64.1377C14.9713 64.1377 0.644638 49.8111 0.644638 32.1377ZM62.3909 39.7783C62.4899 39.8553 62.5896 39.9328 62.6898 40.0112C63.3471 37.4965 63.6992 34.8583 63.6992 32.1377C63.6992 31.7215 63.6843 31.3091 63.6678 30.8962C62.6898 30.2012 61.7646 29.4527 60.9296 28.587C60.4994 28.1408 60.1304 27.6405 59.7626 27.1419C59.4063 26.6588 59.0512 26.1775 58.6429 25.7485C58.2462 25.3313 57.7288 25.0852 57.218 24.8421C56.6482 24.5711 56.0866 24.3039 55.7097 23.8076C55.5825 23.6401 55.5276 23.4522 55.4709 23.2581C55.4238 23.0969 55.3754 22.9315 55.2834 22.7697C55.106 22.4576 54.8676 22.211 54.6011 21.9965C54.6627 22.2271 54.7276 22.4589 54.7927 22.6918C55.1859 24.098 55.5901 25.5432 55.3542 26.9825C55.2809 27.431 55.0764 27.7854 54.8752 28.1337C54.7052 28.4282 54.5377 28.7184 54.454 29.0575C53.9514 29.7712 54.1995 30.2978 55.1992 30.6369C55.3744 30.7091 55.5488 30.7825 55.7232 30.8562C55.821 30.9187 55.921 30.9698 56.0198 31.0203C56.1973 31.1111 56.3708 31.1999 56.5204 31.3487C56.9422 31.769 56.971 31.9872 56.87 32.5599C56.8159 32.8659 56.7203 33.0418 56.6426 33.1849C56.4875 33.4705 56.4034 33.6253 56.8617 34.4237C57.1174 34.8697 57.562 35.2488 57.9601 35.5883L57.9976 35.6203C58.0204 35.6398 58.043 35.6591 58.0654 35.6783L58.1375 35.7401L58.2398 35.8277C58.8377 36.3392 59.3909 36.8124 59.8817 37.4486C60.6132 38.3966 61.4722 39.0643 62.39 39.7777L62.3909 39.7783ZM54.8691 52.6424C54.7093 53.2132 54.4481 53.9052 54.1056 54.5714C55.9163 52.8389 57.5163 50.8908 58.8667 48.7665C58.617 48.5381 58.3826 48.2967 58.1488 48.0559C57.6962 47.5898 57.2457 47.1259 56.6907 46.7626C56.2086 46.4467 56.6592 45.669 57.1443 45.9868C57.7474 46.3819 58.2359 46.8783 58.7276 47.3779C58.9307 47.5843 59.1344 47.7912 59.3469 47.9917C60.6673 45.7723 61.7156 43.3736 62.454 40.8421C62.3597 40.8394 62.2632 40.8095 62.1737 40.7391C61.9146 40.5355 61.6312 40.3337 61.3423 40.128L61.341 40.1271C61.2305 40.0485 61.1193 39.9693 61.0083 39.8892C60.8344 40.6241 60.1958 41.0995 59.4632 41.6448C59.3723 41.7124 59.2801 41.7811 59.1871 41.8515C58.7258 42.2003 58.4701 42.6013 58.237 42.967C57.8952 43.5031 57.6019 43.9631 56.7805 44.0713C56.4529 44.1145 56.3777 44.019 56.306 43.928C56.2026 43.7967 56.1066 43.6749 55.2696 43.993C55.025 44.0859 54.7726 44.3124 54.538 44.5229C54.4123 44.6358 54.2916 44.7441 54.1801 44.8247C53.992 44.9607 53.7394 45.1024 53.4659 45.2557C52.5416 45.7741 51.3789 46.4261 51.6631 47.4468C51.7829 47.8773 52.0756 48.232 52.3756 48.5956C52.7091 48.9997 53.0518 49.415 53.1763 49.9578C53.2169 50.1347 53.2192 50.3317 53.2215 50.5295C53.2253 50.851 53.229 51.1744 53.3975 51.4163C53.564 51.6556 53.9474 51.8144 54.2885 51.9556C54.4227 52.0112 54.5504 52.064 54.6558 52.118C54.8365 52.2105 54.9219 52.4541 54.8691 52.6424ZM4.77715 40.2326C3.82438 38.3478 2.87159 36.4629 1.70344 34.7044C3.00964 50.6539 16.3583 63.1927 32.6446 63.1927C35.4427 63.1927 38.152 62.8165 40.7311 62.1226C40.0006 61.5266 39.3577 60.8388 38.7152 60.1515C38.1063 59.5 37.4972 58.8484 36.8147 58.2763C36.7085 58.4829 36.4364 58.582 36.2051 58.3814C35.5718 57.8327 35.1378 57.1393 34.7018 56.4426C34.3868 55.9393 34.0707 55.4343 33.6776 54.9808C33.1595 54.3828 32.5335 53.9192 31.9057 53.4543L31.9046 53.4535C31.6063 53.2326 31.3075 53.0113 31.0199 52.7753C29.9994 51.938 29.3343 50.882 28.6684 49.8247C28.3678 49.3473 28.0669 48.8695 27.7331 48.4117C27.7503 48.6314 27.7552 48.8544 27.7421 49.0842C27.7154 49.5468 27.6079 49.9962 27.5002 50.4457C27.3781 50.9557 27.256 51.4659 27.2518 51.996C27.2416 53.3289 27.6252 54.7098 28.0028 56.069C28.222 56.8578 28.4391 57.6393 28.576 58.3998C28.6422 58.7684 28.1957 59.115 27.8997 58.7939C27.6218 58.4924 27.3081 58.2049 26.9918 57.9151C26.318 57.2977 25.6326 56.6698 25.2584 55.8731C25.1271 55.5928 25.4198 55.1874 25.7289 55.4026C26.5145 55.9491 27.2548 56.6684 27.8847 57.4375C27.8618 56.453 27.4974 55.533 27.1315 54.6094C26.809 53.7955 26.4855 52.9787 26.3936 52.1124C26.312 51.3435 26.3854 50.615 26.4584 49.8899C26.5471 49.0081 26.6354 48.1314 26.4438 47.1938C25.7491 47.8648 25.1488 48.6014 24.5986 49.414C24.307 49.844 23.7071 49.6434 23.5974 49.271C21.8212 48.3499 19.9887 46.9823 18.7495 45.4433C18.3854 44.9912 18.0727 44.5107 17.761 44.0316C17.2973 43.3191 16.8357 42.6097 16.2097 42.0012C15.4316 41.2452 14.5155 40.7004 13.5954 40.1533C13.3808 40.0256 13.1659 39.8978 12.9525 39.7672C11.4075 38.8206 10.3532 37.7603 9.419 36.224C9.29215 36.0154 9.15805 35.7756 9.01505 35.5199C8.2176 34.0941 7.1435 32.1736 5.50751 32.4113C7.03528 35.5914 8.15247 39.0722 8.80782 42.5311C8.83315 42.665 8.90072 42.9328 8.98889 43.2824C9.3722 44.802 10.1448 47.865 9.52866 48.165C9.24983 48.3009 9.00094 47.7863 8.79247 47.0531C8.76028 47.028 8.7296 46.9992 8.7019 46.9632C7.12512 44.8774 5.95115 42.555 4.77715 40.2326ZM11.0893 20.8208C8.48146 22.2038 5.79871 23.6266 2.88651 23.2525C2.04702 26.0685 1.58967 29.0489 1.58967 32.1377C1.58967 32.3821 1.59787 32.6243 1.60608 32.8667C1.60882 32.9477 1.61156 33.0286 1.61399 33.1097C1.67687 33.1407 1.73563 33.1864 1.78503 33.253C2.04927 33.6112 2.29928 33.978 2.54293 34.3485C3.41529 33.3918 4.06187 32.2869 4.7052 31.1876C5.40079 29.9989 6.09258 28.8168 7.06185 27.8355C7.6432 27.2473 8.32477 26.7991 9.00858 26.3495C9.2629 26.1822 9.51754 26.0148 9.76745 25.8399C11.1537 24.8694 12.0194 23.7612 12.7081 22.2222C13.1845 21.1574 13.6969 20.1907 14.2617 19.2696C13.2097 19.6963 12.1558 20.2552 11.0893 20.8208ZM14.591 6.94565C14.5555 6.95426 14.5237 6.95276 14.4945 6.94602C12.7272 8.22153 11.0954 9.67257 9.63421 11.2834C14.9571 7.61147 22.1453 7.20614 28.3727 8.08567C31.0281 8.46064 33.7531 9.13072 36.509 9.80838C42.8333 11.3635 49.3201 12.9586 55.4998 11.1187C54.3586 9.87842 53.1153 8.73578 51.7878 7.69456C50.2125 8.07002 48.4248 8.03674 46.7808 8.00613C46.4796 8.00052 46.1831 7.995 45.8938 7.9921C43.6298 7.96927 41.5332 7.74134 39.3628 7.06616C36.1545 6.06836 33.0949 5.23636 29.7104 5.08778C28.6695 5.04212 27.6253 5.04548 26.5815 5.08104L26.3901 5.09854C26.2299 5.11322 26.0714 5.12773 25.9149 5.14167C24.6993 5.25133 23.4889 5.40478 22.2879 5.62074C21.3437 5.7908 20.3935 5.93307 19.443 6.07537C17.8166 6.31888 16.1896 6.56249 14.591 6.94565ZM48.8702 7.40061C49.6623 7.34485 50.4534 7.28916 51.2436 7.26677C46.0588 3.38335 39.6206 1.08272 32.6446 1.08272C26.2473 1.08272 20.3031 3.01882 15.362 6.33484C17.7862 5.73638 20.22 5.27491 22.7044 4.96277C25.2626 4.64127 28.2013 4.41634 30.7991 4.76029C32.9478 4.9085 35.0852 5.26518 37.1999 5.90817C39.9522 6.74504 42.464 7.48123 45.3608 7.54111C46.5323 7.5652 47.7023 7.48283 48.8702 7.40061ZM53.6366 20.4309C53.7298 20.4118 53.8328 20.4249 53.9387 20.4893L54.0508 20.5573C54.7666 20.9904 55.4773 21.4205 55.9429 22.138C56.0474 22.299 56.1324 22.4898 56.2187 22.6838C56.3725 23.0293 56.5309 23.385 56.8131 23.6017C57.0397 23.7757 57.3454 23.8713 57.6515 23.967C57.8893 24.0414 58.1273 24.1159 58.3285 24.2271C59.0704 24.6376 59.5678 25.3706 60.0571 26.0918C60.295 26.4423 60.531 26.7901 60.7923 27.0967C61.6329 28.0832 62.5727 28.9463 63.5971 29.7267C63.307 25.9536 62.3459 22.3708 60.8275 19.0959C55.2516 20.4777 48.9478 19.9717 43.4696 18.4754C41.0214 17.8069 38.7397 16.8062 36.4322 15.7942C36.112 15.6537 35.7913 15.5131 35.4696 15.3731C31.9923 13.8591 28.5318 13.0077 24.7277 13.2233L24.8097 13.3239C25.1343 13.7228 25.4609 14.124 25.812 14.5137C26.0362 14.7626 26.2824 15.0026 26.5305 15.2445C27.1638 15.862 27.8097 16.4917 28.1351 17.3121C28.1875 17.4443 28.2324 17.5794 28.2739 17.716C28.7025 17.0805 29.4342 16.5471 29.9851 16.2167C30.6266 15.8319 31.6476 15.3424 32.3093 15.8967C32.3999 15.9726 32.4044 16.0658 32.3639 16.1414C32.3898 16.2369 32.3868 16.3634 32.3523 16.5221C32.4463 17.1007 32.6529 17.6101 32.925 18.0798C33.3337 18.4225 33.8158 18.6179 34.3168 18.8208C34.4498 18.8747 34.5842 18.9291 34.7188 18.987C34.9318 19.0787 35.1384 19.1854 35.3439 19.2958C36.2554 19.6048 37.1562 19.934 38.052 20.2614C42.3803 21.8434 46.5932 23.3831 51.3487 22.3992C51.9595 21.4534 52.8301 20.3976 53.6366 20.4309ZM27.1807 46.3274C27.2286 46.3622 27.2701 46.4086 27.3042 46.4651C27.9473 47.2052 28.4823 47.9983 29.0128 48.7848L29.0543 48.8462C29.3045 48.5049 29.5317 48.1355 29.7599 47.7646C30.1909 47.0641 30.6255 46.3577 31.2254 45.8228C31.5247 45.5561 31.8283 45.3375 32.1196 45.1278C32.3572 44.9567 32.5867 44.7915 32.7988 44.611C31.0306 43.4403 30.1109 41.5413 29.1962 39.6526C28.9154 39.0728 28.6351 38.4939 28.3308 37.9374C28.0101 37.5053 27.7056 37.0636 27.4009 36.6216L27.3997 36.6197C27.1999 36.3299 27.0001 36.04 26.7956 35.7528C26.4213 35.3418 26.0115 34.9395 25.5923 34.5364C25.5942 34.8148 25.5227 35.0963 25.3393 35.3834C25.2479 35.5259 25.1112 35.6306 24.9761 35.7341C24.8482 35.832 24.7217 35.9289 24.636 36.0559C24.1721 36.7438 24.3974 37.2914 24.6777 37.9726C24.7051 38.0393 24.7331 38.1073 24.761 38.1769C25.2693 39.4427 25.4587 40.3649 25.443 41.7268C25.4246 43.31 25.4168 44.5982 26.3098 45.9407C26.4991 45.8397 26.76 45.8771 26.9082 46.0309C26.9903 46.1159 27.0686 46.2029 27.1467 46.2896L27.1807 46.3274ZM18.0189 15.49C17.3937 16.178 16.7686 16.8659 16.1704 17.5779C15.2763 18.6412 14.3474 19.7891 13.6913 21.0238C13.4204 21.533 13.2107 22.0677 13.0012 22.6021C12.7416 23.2643 12.4822 23.9259 12.1066 24.5378C11.4397 25.6243 10.4607 26.356 9.47802 27.0905C8.73295 27.6473 7.98578 28.2058 7.371 28.9216C6.66326 29.7457 6.08389 30.6451 5.51051 31.5475C7.75351 31.1394 9.01963 33.4225 10.1696 35.4962C10.7186 36.4862 11.2411 37.4284 11.8308 38.0074C12.6857 38.8469 13.6688 39.477 14.6508 40.1063C15.5872 40.7063 16.5225 41.3057 17.3445 42.0854C17.6509 41.6322 18.0457 41.2572 18.4427 40.8803C18.9707 40.3789 19.5023 39.874 19.8345 39.1769C20.0566 38.7109 20.2191 38.224 20.3816 37.7375C20.5909 37.1106 20.7999 36.4843 21.1359 35.9043C21.8911 34.6 23.0424 33.7433 24.2805 34.4162C24.0631 33.6752 23.637 32.9823 23.2104 32.2887L23.1749 32.2309C22.6861 32.8128 22.0885 33.294 21.4946 33.7723C21.3341 33.9016 21.1739 34.0306 21.0161 34.1614C20.1036 34.9178 19.2125 35.6974 18.4209 36.581C18.2802 36.7382 18.0635 36.5107 18.1926 36.3531C19.5067 34.7445 21.1355 32.9487 22.9612 31.8787C22.7759 31.5703 22.6011 31.2597 22.4525 30.9419C22.449 30.9355 22.4456 30.929 22.4422 30.9226L22.4367 30.9121L22.4265 30.892C22.4218 30.8828 22.4169 30.8733 22.4121 30.8641C20.9603 32.5268 19.3298 33.9792 17.6976 35.433C16.6362 36.3785 15.5741 37.3246 14.56 38.3296C14.411 38.4771 14.1947 38.2559 14.3317 38.1013C15.0564 37.2847 15.8588 36.5524 16.6619 35.8194L16.6629 35.8185C17.1427 35.3806 17.6229 34.9423 18.0867 34.4859C18.5444 34.0357 18.9921 33.5763 19.4397 33.1171C20.3204 32.2134 21.2011 31.3098 22.1546 30.4801C22.1716 30.4657 22.1889 30.4573 22.2065 30.4488L22.213 30.4456C21.9054 29.7237 21.7564 28.9407 21.8515 28.0683C21.8928 27.6894 21.9886 27.316 22.0843 26.9424C22.219 26.4169 22.3538 25.891 22.3376 25.3492C22.3249 24.9371 22.2362 24.5872 22.0989 24.2728C22.0659 24.2298 22.0453 24.186 22.0382 24.1403C21.9009 23.8634 21.7242 23.6137 21.527 23.3738C21.1834 23.6959 20.836 24.0074 20.4903 24.3173C19.423 25.2742 18.3721 26.2165 17.4991 27.4118C17.3153 27.6633 16.8932 27.4264 17.075 27.164C18.1417 25.6213 19.5332 23.9741 21.1164 22.9086L21.0711 22.8596L20.9891 22.7714C20.8208 22.5902 20.6488 22.4051 20.482 22.2091C19.9363 21.5676 19.1822 20.6525 19.6639 19.761C19.8271 19.4591 20.1113 19.303 20.3963 19.1465C20.4367 19.1243 20.4771 19.1021 20.5172 19.0794C20.6303 19.0154 20.769 18.9704 20.9093 18.9248C21.098 18.8636 21.2895 18.8015 21.4256 18.691C22.3436 17.9443 22.1124 17.1201 21.8699 16.2556C21.8414 16.1537 21.8126 16.0513 21.7856 15.9483C21.7541 15.828 21.7218 15.7103 21.6899 15.5942C21.5346 15.0281 21.3896 14.4991 21.3911 13.8898C21.3919 13.5735 21.427 13.2625 21.4619 12.9541C21.5132 12.5005 21.5638 12.0528 21.5034 11.6023C20.8031 12.0587 20.1705 12.8869 19.6 13.6338C19.3364 13.979 19.086 14.3068 18.8483 14.5725C18.5736 14.8796 18.296 15.185 18.0189 15.49ZM36.6961 39.8071C36.7119 39.8091 36.7276 39.8111 36.7451 39.8184C37.7666 40.2421 38.18 41.4062 38.5858 42.5489C38.7617 43.0445 38.9363 43.5361 39.1584 43.9616C39.1442 42.8886 39.3238 41.7998 39.6147 40.7747C39.6723 40.5707 39.74 40.369 39.8123 40.1684L39.8278 40.1044C39.8794 39.8921 39.9311 39.6796 39.9927 39.4674C40.2577 38.5493 40.4669 37.6031 40.374 36.6405C40.3616 36.513 40.3398 36.3874 40.3181 36.2624C40.3019 36.1696 40.2859 36.0771 40.2737 35.9844C40.017 36.1153 39.7559 36.2379 39.4948 36.3606C39.2825 36.4604 39.0698 36.5603 38.8597 36.6645C38.8085 36.6899 38.7569 36.7152 38.7052 36.7406C38.3412 36.9192 37.9698 37.1015 37.6408 37.3378C37.0219 37.7831 36.9586 38.3023 36.8909 38.8563C36.8569 39.1353 36.8217 39.4231 36.7141 39.7148C36.7064 39.7354 36.6993 39.7527 36.6923 39.77C36.6878 39.7811 36.6832 39.7926 36.6785 39.8046C36.6809 39.805 36.6834 39.8054 36.6858 39.8057C36.6891 39.8062 36.6927 39.8066 36.6961 39.8071ZM31.4376 29.5841C31.6431 30.0646 30.9668 30.339 30.7834 29.8599L30.7464 29.7633C29.4246 26.3109 28.0922 22.8311 27.7077 19.1326C27.5428 17.5436 26.8948 16.9384 25.9661 16.0711C25.7545 15.8734 25.5283 15.6621 25.2899 15.4225C24.8058 14.9359 24.388 14.4026 23.9719 13.8715C23.448 13.2028 22.9269 12.5376 22.2796 11.9736C22.2545 12.3108 22.2084 12.6441 22.1624 12.9773C22.0455 13.8229 21.9287 14.6684 22.1531 15.5785C22.1922 15.7368 22.2408 15.906 22.2914 16.0822C22.5418 16.954 22.8417 17.9982 22.2856 18.7404C22.1008 18.9869 21.8489 19.1008 21.5961 19.2152C21.4244 19.2928 21.2523 19.3707 21.1003 19.4904C19.807 20.5093 20.6437 21.3743 21.4316 22.1887C21.5108 22.2706 21.5895 22.352 21.6655 22.4329C22.1614 22.9614 22.5892 23.4707 22.8736 24.0524C24.2644 25.2882 25.6548 26.853 26.5021 28.4931C26.6163 28.7139 26.3528 28.8976 26.1717 28.7479C25.3746 28.0906 24.7218 27.2787 24.0674 26.4649L24.0665 26.464C23.7887 26.1184 23.5105 25.7724 23.2209 25.4379C23.2219 25.4604 23.2238 25.4821 23.2257 25.5038C23.2283 25.5342 23.231 25.5647 23.231 25.597C23.2303 26.0824 23.1186 26.5594 23.0076 27.0335C22.9562 27.2529 22.905 27.4716 22.865 27.6903C22.6483 28.8752 22.8335 29.9138 23.3418 30.9011C23.8141 31.5219 24.3549 32.0347 24.9156 32.5663C25.2578 32.8909 25.6075 33.2224 25.9535 33.5899C26.9258 34.6225 27.8742 35.8306 28.5101 37.1484C28.897 37.7922 29.241 38.4647 29.584 39.1351C30.5427 41.0092 31.4933 42.8672 33.3479 44.0368C33.5859 43.7176 33.7746 43.3302 33.8868 42.8145C33.906 42.7265 33.9243 42.6377 33.9426 42.5487C34.0712 41.9233 34.2027 41.2838 34.6758 40.8144C34.9147 40.5774 35.1292 40.4804 35.3187 40.3948C35.665 40.2383 35.9273 40.1198 36.1003 39.2529C36.1367 39.0704 36.0943 38.917 36.0511 38.7603C36.0054 38.595 35.9588 38.426 36.0026 38.2154C36.2645 36.9621 37.7395 36.2995 38.865 35.7939C39.0277 35.7209 39.1831 35.651 39.3265 35.5832C40.6738 34.9466 41.6578 34.1808 42.4015 32.8653C42.5414 32.6183 42.6638 32.366 42.7828 32.1141C42.7813 32.1128 42.7797 32.1118 42.778 32.1107C42.7763 32.1097 42.7746 32.1087 42.7731 32.1074C42.5407 31.9072 42.3052 31.7059 42.0682 31.5034L42.0652 31.5009L42.0602 31.4965C40.6599 30.3002 39.2046 29.0568 38.0038 27.7004C36.9817 26.5461 36.686 25.4199 36.3462 23.9539C35.9901 22.4165 34.9207 21.4365 33.8579 20.4626C33.0452 19.7178 32.2365 18.9767 31.7535 17.9926C31.7283 18.4364 31.712 18.8808 31.6957 19.325C31.6543 20.4533 31.6129 21.5803 31.4268 22.6934C31.3753 23.0012 31.3213 23.3035 31.2681 23.6017C30.9546 25.3582 30.667 26.9697 31.0637 28.7068C31.1765 28.9737 31.2903 29.2396 31.4041 29.5058L31.4376 29.5841ZM30.5547 21.9336C30.6243 21.8868 30.7044 21.9359 30.7321 22.0032C30.771 21.6436 30.8044 21.279 30.8264 20.9063C30.8347 20.7667 30.8386 20.6266 30.8425 20.4865L30.844 20.4298C30.8016 20.4702 30.7589 20.5103 30.7165 20.5502C30.643 20.6193 30.5699 20.688 30.4997 20.7565C30.3985 20.8553 30.2986 20.9553 30.1986 21.0552C29.9826 21.2714 29.7666 21.4875 29.5378 21.6907C29.2253 21.9681 28.7653 21.5144 29.0764 21.2289C29.2262 21.0916 29.38 20.9239 29.5405 20.7489C29.9296 20.3246 30.3578 19.8576 30.8612 19.6809C30.8691 19.1857 30.8807 18.691 30.9346 18.1988C30.9431 18.1215 30.9912 17.8906 31.0438 17.6379C31.1046 17.3461 31.1714 17.0254 31.1902 16.8787C30.4159 16.8391 29.2369 18.2254 28.9308 18.7426C28.7885 18.9829 28.6852 19.24 28.6104 19.5054C28.6085 19.5376 28.6059 19.569 28.6029 19.6004C28.6279 19.8781 28.6477 20.1579 28.6675 20.4375C28.7263 21.2671 28.785 22.0954 28.9787 22.8629C29.3196 24.2155 29.78 25.5262 30.2894 26.8193C30.2552 25.6832 30.4035 24.5679 30.5571 23.4126C30.6136 22.9871 30.671 22.5556 30.7201 22.1163C30.6162 22.2685 30.4818 22.4007 30.3488 22.5314C30.3047 22.5747 30.2605 22.6182 30.2179 22.662C30.0787 22.8042 29.8571 22.5826 29.9993 22.4434C30.043 22.4007 30.0861 22.3567 30.1295 22.3125C30.263 22.1763 30.3982 22.0384 30.5547 21.9336ZM49.1407 26.1093C49.2121 25.9922 49.2826 25.8766 49.3524 25.7635C45.2452 27.6745 40.4118 25.838 36.9671 23.3315C37.0641 23.5707 37.1549 23.8021 37.2431 24.0268C37.8098 25.4707 38.2696 26.642 39.5735 27.871C39.9739 28.2485 40.3919 28.6124 40.8107 28.9769C41.6463 29.7041 42.4845 30.4337 43.19 31.2784C43.3218 31.0265 43.467 30.7821 43.638 30.5508C43.6394 30.5481 43.6404 30.5454 43.6413 30.5427C43.6421 30.5403 43.6428 30.538 43.6436 30.5356C43.6457 30.5285 43.6478 30.5213 43.6526 30.5141C44.2991 29.5363 44.8289 29.4098 45.5832 29.2297C45.8809 29.1587 46.2136 29.0792 46.6023 28.9358C47.655 28.547 48.4415 27.2565 49.1407 26.1093ZM46.1929 39.3698L46.1934 39.3668C46.2912 38.7561 46.3891 38.1451 46.5177 37.5388C46.6739 36.8003 46.9524 36.1706 47.2341 35.5335C47.414 35.1267 47.5952 34.717 47.7468 34.274C48.1163 33.1936 47.8157 32.478 47.4867 31.6944C47.3204 31.2985 47.1469 30.8852 47.0488 30.3988C46.9934 30.1241 46.9765 29.8928 46.996 29.6754C46.7355 29.7501 46.4662 29.8 46.1986 29.8495C45.5402 29.9713 44.8927 30.0912 44.415 30.5747C44.0074 31.6583 43.4779 32.826 42.7679 33.8242C42.8244 34.0315 42.8776 34.2357 42.9302 34.4379C43.1649 35.3393 43.3887 36.1986 43.8454 37.0986C44.2116 37.8198 44.6639 38.4834 45.1159 39.1467C45.4207 39.5938 45.7253 40.0409 46.0034 40.5052C46.0714 40.1275 46.1321 39.7486 46.1929 39.3698ZM35.4335 19.6741C34.9893 19.5187 34.5435 19.3628 34.0729 19.2714C33.9501 19.2479 33.8363 19.2202 33.7281 19.1891C34.0398 19.5502 34.3777 19.896 34.7162 20.2426C35.2631 20.8025 35.812 21.3643 36.2556 21.9954C36.6079 22.2891 36.9764 22.5709 37.3434 22.8516C37.6633 23.0962 37.9825 23.3403 38.2886 23.5905C38.6056 23.8499 38.9432 24.0905 39.2831 24.3263C42.5029 26.0506 45.911 26.5368 49.6544 25.2882C49.6607 25.2784 49.6671 25.2685 49.6736 25.2587C49.6768 25.2539 49.68 25.2491 49.6832 25.2444C49.7167 25.1902 49.7503 25.1361 49.7838 25.082C50.1083 24.5579 50.4301 24.0383 50.7001 23.5179C50.7855 23.3529 50.9052 23.132 51.0501 22.8846C46.5732 24.1409 41.8951 22.2287 37.5382 20.4479C37.1563 20.2918 36.7759 20.1363 36.3993 19.9844C36.0725 19.8975 35.7534 19.7859 35.4335 19.6741ZM31.9302 11.5233C23.4421 9.25114 13.7381 10.3073 6.4342 15.4906C5.68454 16.668 5.01273 17.8986 4.42438 19.1768C6.36272 17.7849 8.42232 16.6605 10.6447 15.7365C11.9741 15.1841 13.3851 14.6069 14.8238 14.1619C15.3493 13.922 15.8849 13.7027 16.4601 13.5403C17.5856 13.2233 18.5609 12.9441 19.5422 12.4365C19.5734 12.3953 19.6045 12.3542 19.6356 12.3131C19.7418 12.173 19.8482 12.0324 19.9532 11.889C20.4307 11.237 20.9311 10.7673 21.6928 10.4922C21.8788 10.4252 22.1505 10.545 22.2328 10.7347C23.136 11.35 23.8276 12.1285 24.4968 12.9414C24.4995 12.9408 24.5021 12.9398 24.5046 12.9389C24.509 12.9373 24.5133 12.9357 24.5185 12.9354C27.485 12.7281 30.3657 13.093 33.1645 14.1125C34.4168 14.5689 35.6353 15.1044 36.8537 15.6398C38.4348 16.3346 40.0157 17.0292 41.6698 17.5509C47.9848 19.5428 54.1007 19.4215 60.5311 18.4675C60.0355 17.4585 59.4839 16.4828 58.8854 15.5389C55.225 17.4233 50.0717 16.628 46.2433 15.8009C43.4308 15.1932 40.705 14.2932 37.9785 13.3929C35.9743 12.7312 33.9698 12.0693 31.9302 11.5233ZM32.3157 9.47832C24.7229 7.86972 15.4271 7.26228 8.84749 12.1918C8.10344 13.0784 7.40843 14.0066 6.76581 14.9737C12.9768 10.664 21.2627 9.14822 28.6426 10.3406C31.9974 10.8829 35.2375 11.8863 38.4774 12.8897C40.2425 13.4363 42.0076 13.983 43.7911 14.455C46.3788 15.1403 49.0227 15.6586 51.7024 15.7799C53.3455 15.8545 54.9163 15.6316 56.4983 15.4071C57.2025 15.3071 57.9089 15.2069 58.6249 15.1324C57.7622 13.8169 56.8052 12.5694 55.758 11.4028C49.4022 13.481 42.65 11.8869 36.2262 10.3705C34.9067 10.059 33.6011 9.75077 32.3157 9.47832ZM11.1204 19.9387C12.2677 19.3565 13.4043 18.7797 14.661 18.3979C14.7228 18.3792 14.777 18.3807 14.8268 18.3908C15.4698 17.4357 16.1805 16.5157 16.9942 15.5774C17.5215 14.9696 18.0279 14.3663 18.5212 13.7529C17.2327 14.3368 15.8737 14.7758 14.5149 15.2147C13.4902 15.5457 12.4653 15.8767 11.4711 16.2698C8.89876 17.2871 6.28188 18.4679 4.01867 20.0787C3.67996 20.8819 3.37979 21.7046 3.10845 22.5407C3.95456 22.263 4.81778 22.071 5.68256 21.8788C6.97369 21.5917 8.26838 21.3038 9.51481 20.7285C10.0608 20.4765 10.5918 20.207 11.1204 19.9387ZM8.12066 43.4863C7.37886 39.8147 6.32342 36.1244 4.7601 32.7118C4.22826 33.5143 3.65675 34.2935 2.95986 34.9982C3.91532 36.5381 4.73443 38.1579 5.55352 39.7777C6.42564 41.5024 7.29776 43.227 8.33437 44.855C8.27696 44.5043 8.22941 44.1872 8.19277 43.943C8.15946 43.7209 8.13509 43.5584 8.12066 43.4863ZM22.4462 47.3761C22.9555 47.729 23.4642 48.0814 23.9361 48.4787C24.4249 47.7589 24.965 47.0291 25.6181 46.4542C24.4416 45.7276 24.4932 43.9046 24.5415 42.1965C24.5719 41.1207 24.601 40.0904 24.3213 39.4082C24.2143 39.1475 24.0667 38.8763 23.9149 38.5972C23.5126 37.8578 23.0803 37.0633 23.2946 36.2625C23.4202 35.793 23.7201 35.5124 23.993 35.2569L24.0039 35.2467C22.4165 34.1638 21.3423 37.0794 20.8319 38.4648C20.7826 38.5985 20.7385 38.7182 20.6998 38.8184C20.2862 39.8901 19.6222 40.5993 18.9364 41.332C18.5666 41.727 18.1905 42.1287 17.8438 42.5978C17.9441 42.71 18.0429 42.8246 18.1383 42.9447C18.3797 43.2489 18.6093 43.5575 18.8378 43.8646C19.4216 44.6491 19.9979 45.4237 20.7433 46.0897C21.2748 46.5646 21.8608 46.9706 22.4462 47.3761ZM54.46 25.299C54.4462 25.1931 54.4308 25.0876 54.414 24.9832C54.3833 24.7936 54.3421 24.6059 54.3008 24.4179L54.2886 24.3626C53.4687 25.4611 52.5155 26.4825 51.5683 27.4975L51.5675 27.4983C51.0401 28.0634 50.5144 28.6267 50.0148 29.2001C49.8172 29.4265 49.498 29.0986 49.6874 28.8726C50.0436 28.447 50.3946 28.0035 50.7483 27.5564C51.7942 26.2346 52.8652 24.8811 54.1737 23.8667C54.0929 23.5465 54.005 23.2277 53.9171 22.909L53.9168 22.908C53.7949 22.4658 53.673 22.0238 53.5704 21.5792C53.5668 21.5641 53.5655 21.5496 53.5641 21.5351C53.5636 21.5301 53.5631 21.5244 53.5625 21.5193C52.9615 21.8298 52.2769 22.7543 51.8573 23.3209C51.7651 23.4455 51.6856 23.5528 51.6227 23.6324C50.9213 24.5206 50.2866 25.4701 49.7195 26.4496C49.569 26.7099 49.4309 26.9856 49.292 27.263C49.2715 27.304 49.2506 27.3457 49.23 27.3867C49.1666 27.5447 49.1021 27.7013 49.0381 27.857C48.6354 28.8355 48.2464 29.7808 48.197 30.8551C48.2327 30.965 48.2708 31.0748 48.3087 31.184C48.4096 31.4743 48.5087 31.7597 48.5552 32.0284C48.709 32.9136 48.5915 33.5925 48.2842 34.4114C47.6278 36.1607 47.3106 37.8675 46.984 39.6246C46.8525 40.3321 46.7195 41.0478 46.5622 41.7777C46.4937 42.0962 45.9649 42.1921 45.8283 41.8739C45.7033 41.5827 45.5655 41.2983 45.4222 41.0168C45.233 41.2609 45.0009 41.4899 44.7754 41.7124C44.6439 41.8421 44.5147 41.9696 44.3974 42.0966C44.168 42.3448 43.9199 42.5768 43.6699 42.8085C43.3636 43.1534 43.0549 43.4967 42.7462 43.8399L42.7448 43.8414C41.9426 44.7332 41.1403 45.6253 40.3793 46.5489C38.7187 48.564 37.0434 50.5607 35.2013 52.4145C35.0227 52.5945 34.7484 52.319 34.9236 52.1364C36.5672 50.4243 38.0649 48.59 39.5643 46.7536C39.786 46.4821 40.0077 46.2104 40.23 45.9392C40.4766 45.6384 40.7228 45.3326 40.9705 45.0251C41.9038 43.8662 42.8573 42.6823 43.9247 41.6441C43.9635 41.5896 44.0019 41.5351 44.04 41.4811C44.1455 41.3316 44.2488 41.1852 44.351 41.0483C44.3929 40.9924 44.4385 40.9262 44.4877 40.8548C44.6304 40.6478 44.803 40.3973 44.9993 40.2286C44.8249 39.918 44.6448 39.61 44.4614 39.3034C44.0622 39.9018 43.5481 40.4098 43.0338 40.9179L43.0327 40.919C42.6612 41.2861 42.2895 41.6533 41.9613 42.0547C41.8352 42.2093 41.5706 42.0023 41.6859 41.8421C42.4408 40.796 43.208 39.7496 44.308 39.0452L44.165 38.8081C43.6691 37.9861 43.1726 37.1632 42.7544 36.2981C42.7083 36.2028 42.6559 36.1 42.6005 35.9915C42.4011 35.6007 42.164 35.1361 42.053 34.6838C41.8588 34.8878 41.6544 35.0772 41.4381 35.2501L41.4208 35.2987C41.3253 35.5662 41.2306 35.8316 41.2034 36.139C41.2025 36.1486 41.2013 36.158 41.2001 36.1675C41.1989 36.1773 41.1976 36.1874 41.1967 36.1974C41.1978 36.2078 41.1984 36.2186 41.199 36.2294L41.1991 36.2319C41.1994 36.2378 41.1997 36.2438 41.2001 36.2498C41.4366 37.3894 41.1757 38.394 40.7704 39.4895C40.1326 41.2115 39.8059 42.8964 39.6225 44.7274C39.606 44.8928 39.3946 45.0279 39.2621 44.8767C38.7347 44.2742 38.4334 43.5546 38.1343 42.8402C38.0683 42.6826 38.0024 42.5252 37.9342 42.3695C36.8941 44.0639 35.4387 45.5919 34.0313 47.0695C33.5334 47.5922 33.0415 48.1086 32.5762 48.6239C32.4077 48.8103 32.1454 48.5385 32.3033 48.3507C32.9494 47.5821 33.5609 46.7507 34.1762 45.9142C35.2548 44.4479 36.345 42.9658 37.6531 41.7785C37.3762 41.2489 37.0329 40.7594 36.5127 40.3701C36.482 40.3469 36.4569 40.3188 36.4379 40.2874C36.355 40.4034 36.2638 40.4891 36.1367 40.6085C36.0543 40.6858 35.9564 40.7777 35.8364 40.9008C35.1096 41.6467 34.9483 42.284 34.7779 42.9573C34.6603 43.422 34.5384 43.9038 34.2233 44.4504C33.8785 45.0479 33.3782 45.3656 32.8375 45.709C32.7344 45.7745 32.6298 45.8409 32.5245 45.9104C31.5708 46.5396 30.984 47.4335 30.3864 48.3441C30.1322 48.7313 29.876 49.1217 29.5887 49.4959C29.5723 49.5172 29.5547 49.5348 29.5371 49.5524C30.2998 50.6494 31.1225 51.6925 32.3033 52.5099C34.0328 53.7068 35.385 55.1717 36.3705 56.9936C36.4723 56.9611 36.5902 56.9742 36.7096 57.0599C37.6358 57.7253 38.4053 58.5545 39.1745 59.3835C39.9253 60.1925 40.6757 61.0012 41.5713 61.657C41.6432 61.7098 41.6907 61.7734 41.7218 61.8412C43.0587 61.4332 44.3548 60.9332 45.6086 60.3561C46.9578 58.7527 48.352 57.1883 49.9785 55.8634C50.2065 55.6777 50.5107 55.967 50.306 56.1908C50.015 56.5089 49.7231 56.8264 49.431 57.144C48.6977 57.9414 47.9639 58.7394 47.243 59.5492C48.8595 58.6865 50.3872 57.6823 51.8173 56.558C51.8199 56.5191 51.8286 56.4802 51.8514 56.4416C52.0061 56.1775 52.1688 55.9202 52.3314 55.6629C52.5857 55.2605 52.8399 54.8582 53.0636 54.4306C53.111 54.3405 53.1641 54.2451 53.2191 54.1465C53.3854 53.848 53.5679 53.5205 53.6531 53.2218C53.6774 53.1368 53.6999 53.0632 53.7195 52.9993C53.7821 52.7948 53.8147 52.6884 53.7772 52.6208C53.7366 52.5474 53.6135 52.5197 53.3568 52.4619C53.202 52.4271 52.9987 52.3814 52.7358 52.3082C52.5498 52.2561 52.4154 52.0787 52.4143 51.886C52.4057 50.3871 52.1287 49.5771 51.2645 48.375C51.0497 48.0767 50.8787 47.8061 50.729 47.5216C50.7271 47.5415 50.7218 47.5609 50.7099 47.58C49.9284 48.7713 48.7773 49.6691 47.6266 50.5666C46.7618 51.2411 45.8972 51.9154 45.1901 52.7139C44.9674 52.9654 44.6052 52.5979 44.823 52.3467C46.4249 50.4997 48.4863 48.7541 50.5033 47.3734C50.5557 47.3379 50.6137 47.348 50.6586 47.3794C50.5673 47.1923 50.4812 46.9984 50.403 46.7795C50.3562 46.6492 50.4048 46.4554 50.5119 46.3659C51.2512 45.7509 52.0409 45.209 52.8315 44.6664C53.2003 44.4134 53.5697 44.1599 53.9338 43.8991C54.0143 43.8415 54.0938 43.7831 54.1728 43.7251C54.7642 43.2909 55.3277 42.8771 56.0904 42.9623C56.2008 42.9747 56.3007 43.0459 56.3971 43.1146C56.4902 43.181 56.58 43.245 56.6727 43.2512C57.0769 43.2787 57.0858 43.2464 57.1111 43.1548C57.1223 43.1141 57.1367 43.0618 57.1903 42.9979C57.2301 42.9504 57.2441 42.8112 57.2579 42.6737C57.269 42.5626 57.2801 42.4526 57.3045 42.393C57.4365 42.0704 57.758 41.8149 58.0441 41.5876C58.1147 41.5314 58.1832 41.477 58.2461 41.4237C58.3705 41.3184 58.5164 41.2098 58.6698 41.0956C59.3512 40.5884 60.182 39.9699 59.9431 39.0388C59.7571 38.8667 59.5812 38.6882 59.4296 38.4976C59.2312 38.2491 59.0441 38.0152 58.8566 37.7892C58.3651 38.4353 57.7152 39.0094 57.0934 39.5587C56.8151 39.8045 56.5424 40.0454 56.2921 40.2855C56.0604 40.5082 55.7187 40.1658 55.9399 39.9333C56.2486 39.6093 56.5468 39.2457 56.8493 38.877C57.3262 38.2956 57.8142 37.7007 58.3697 37.2281C58.1241 36.9598 57.8614 36.697 57.5627 36.4317C56.233 38.1224 54.5863 39.6639 53.0157 41.1342C52.8343 41.304 52.654 41.4728 52.4753 41.6408C52.3765 41.7336 52.2286 41.5865 52.3263 41.4922C53.0315 40.8081 53.6624 40.0032 54.297 39.1937C55.1813 38.0657 56.0732 36.9281 57.1817 36.0967C56.6821 35.6525 56.1978 35.1547 55.8976 34.5547C55.8506 34.6017 55.803 34.6483 55.7554 34.695L55.754 34.6963C55.6279 34.8198 55.5015 34.9436 55.3867 35.0742C55.294 35.1794 55.1923 35.2772 55.0908 35.3748L55.0671 35.3976C54.6338 35.9408 54.1372 36.4347 53.6412 36.9281C53.3659 37.2019 53.0908 37.4755 52.8267 37.7573C52.7272 37.8635 52.6274 37.9697 52.5274 38.0762C51.3081 39.3739 50.0622 40.6999 49.0795 42.179C48.9354 42.396 48.5863 42.1958 48.7281 41.9739C50.0721 39.8672 51.7783 38.0385 53.4805 36.214L53.483 36.2114C53.9767 35.6823 54.4701 35.1534 54.9541 34.6183C54.9684 34.5959 54.9826 34.5733 54.9968 34.5508L55.0339 34.4919C55.0969 34.3919 55.1597 34.2922 55.2239 34.1958C55.2623 34.1384 55.3004 34.0745 55.3397 34.0085C55.4522 33.8196 55.5751 33.6134 55.7457 33.4922C55.7762 33.3769 55.817 33.2662 55.8576 33.1559C55.9544 32.8931 56.0502 32.633 56.0035 32.3211C55.9425 31.9128 55.5522 31.6889 55.0877 31.5044C54.8474 31.6901 54.612 31.8847 54.3796 32.0857C54.1559 32.3467 53.9149 32.5964 53.6748 32.8451C53.4874 33.0392 53.3005 33.2328 53.1228 33.4308C52.5292 34.0918 51.9229 34.7329 51.269 35.3351C51.1264 35.4664 50.9176 35.2602 51.0557 35.1217C51.5545 34.6215 51.9903 34.0674 52.4263 33.5131C52.5405 33.3679 52.6548 33.2225 52.7702 33.0782C52.8195 33.0166 52.869 32.9541 52.9189 32.8911C53.21 32.5236 53.5131 32.1408 53.8605 31.8181C53.9184 31.7424 53.9767 31.6593 54.0366 31.5739C54.1207 31.4541 54.2081 31.3295 54.3025 31.214C53.9054 31.0594 53.5532 30.8787 53.4009 30.5841C53.1901 30.1773 53.2148 29.3906 53.3657 28.9482C53.4694 28.6438 53.654 28.4138 53.8424 28.179C54.0591 27.9088 54.2809 27.6325 54.39 27.2295C54.5195 26.7516 54.5401 26.2534 54.5061 25.7594C53.8712 26.588 53.1514 27.3545 52.431 28.1215C51.818 28.7743 51.2047 29.4274 50.6429 30.1196C50.5048 30.2899 50.211 30.0609 50.3397 29.8857L50.4062 29.7955C51.5803 28.2035 52.8362 26.5005 54.4249 25.3151C54.4338 25.3083 54.4432 25.305 54.4527 25.3017C54.4552 25.3008 54.4576 25.3 54.46 25.299Z" fill="currentColor"/>
</svg>
