<svg width="65" height="65" viewBox="0 0 65 65" fill="none" xmlns="http://www.w3.org/2000/svg">
<path d="M21.7106 20.1795C20.9216 19.9504 20.108 19.8191 19.4369 19.7038C16.5075 19.2008 14.4311 17.847 12.9261 15.5269C14.1085 16.146 15.4899 16.3664 16.7358 16.9454C18.475 17.7538 20.2831 18.8186 21.7106 20.1795ZM61.3801 43.2438C59.7693 44.0275 58.139 44.5983 56.4682 44.977C55.7623 44.1203 55.1908 43.151 54.2267 42.5428C53.1133 41.8403 51.7045 41.5981 50.4455 41.2976C49.7639 41.1348 49.0539 40.9847 48.4181 40.6752C47.9543 40.4495 47.3357 39.7706 46.7709 39.8275C46.6485 39.8398 46.5089 39.9106 46.4835 40.046C46.1085 42.0581 47.9813 44.5167 50.0813 45.5474C50.0562 45.5463 50.0315 45.5467 50.0068 45.5456C47.2481 45.4475 44.2749 44.879 41.5031 43.9437C40.8051 42.9171 40.7074 41.8055 40.4937 40.5262C40.262 39.1422 39.8765 37.7578 39.2799 36.4834C38.1313 34.0285 36.1177 31.9252 34.1217 30.1459C33.8553 29.9086 33.3747 30.1335 33.4922 30.5127C34.3635 33.3253 34.6532 36.3101 35.7229 39.0647C36.2483 40.4177 36.9789 41.4555 37.8629 42.4358C37.7125 42.3605 37.5613 42.2857 37.4138 42.2082C30.683 38.659 29.2375 30.8001 25.9649 24.4394C25.7325 22.7223 26.4777 21.1282 26.3508 19.3752C26.2265 17.6576 25.3799 15.7163 24.1123 14.5265C23.8645 14.2941 23.3417 14.4386 23.3795 14.83C23.5513 16.6056 23.3907 18.3317 23.4435 20.1173C23.448 20.2663 23.4584 20.4145 23.4738 20.5616C22.1058 18.9863 20.2569 17.9073 18.4286 16.951C16.4862 15.9349 14.0059 15.8095 12.288 14.4213C12.279 14.4038 12.2693 14.3877 12.2603 14.3701C12.1978 14.2469 12.1061 14.19 12.0096 14.1755C11.9942 14.1609 11.9774 14.1485 11.962 14.1339C11.7251 13.9045 11.395 14.2297 11.5743 14.4794C11.5481 14.5658 11.5451 14.6627 11.5877 14.7631C12.6331 17.2183 14.1425 19.0177 16.6662 20.0926C18.0095 20.6645 19.4676 20.8221 20.8835 21.1208C21.8364 21.3214 22.6059 21.6563 23.3551 22.1362C23.8159 22.8102 24.2257 23.5135 24.5947 24.2399C24.2833 24.0902 23.9491 23.963 23.5879 23.8623C22.2563 23.491 20.6926 23.2249 19.3168 23.0655C18.6379 22.9865 17.8714 22.9131 17.2707 23.311C15.8196 24.2717 17.4982 26.0881 18.5166 26.6854C20.8576 28.059 23.6242 26.4399 26.0154 27.4878C26.2527 28.0941 26.4833 28.7042 26.7157 29.3131C25.8496 28.5796 24.8739 28.123 23.4034 27.8827C20.8266 27.4616 18.1176 27.2895 15.6175 26.542C15.1961 26.4159 14.7863 26.2797 14.3854 26.1337C14.2567 25.0981 14.2308 23.9461 13.8727 22.9715C13.635 22.3259 12.9209 21.4176 12.1046 21.7297C11.346 22.0198 11.4785 23.2069 11.6577 23.8076C11.8097 24.3159 12.0286 24.7744 12.3026 25.1984C10.9676 24.4577 9.79762 23.4775 8.82864 22.0946C8.57077 21.7263 8.35668 21.3562 8.1718 20.9838C8.19201 20.9598 8.20885 20.9306 8.21895 20.8917C8.40309 20.1795 8.96188 19.5705 9.24595 18.8946C9.4735 18.3523 9.667 17.8021 9.79912 17.2287C9.96267 16.518 10.4021 14.8544 9.49035 14.412C8.7463 14.0508 8.06999 14.9842 7.76496 15.5172C7.44833 16.0704 7.27355 16.6516 7.18111 17.2478C7.0838 16.3159 7.04674 15.3589 6.98162 14.3712C9.26167 11.1671 12.1323 8.4162 15.4382 6.27463C15.5209 7.22191 15.8948 8.2096 16.4282 9.04984C16.0487 8.92483 15.6489 8.8496 15.1807 8.87056C14.4902 8.902 13.0148 9.12319 12.983 10.0506C12.9508 10.9897 14.2454 11.2831 14.9378 11.3478C15.7818 11.4264 17.2516 11.3707 17.9889 10.7284C19.7779 12.0417 22.1343 12.6181 23.9603 13.8757C23.9693 13.882 23.9783 13.885 23.9873 13.8906C24.8638 14.9143 25.8504 15.8496 26.8531 16.5427C28.6716 17.7995 30.9382 18.7883 33.0925 19.2606C34.6599 19.6046 36.7652 20.1106 38.3693 20.9808C38.9378 21.5867 39.4828 22.2159 40.0266 22.8529C38.8693 22.6354 37.5991 22.9655 36.4546 23.0935C33.5633 23.4169 31.32 22.9958 28.8236 21.6092C28.6297 21.5018 28.3078 21.6328 28.3374 21.8884C28.492 23.2354 29.882 24.4828 30.8229 25.3238C32.1074 26.4717 33.7602 27.1753 35.3714 27.7502C36.9774 28.3232 38.5613 28.3015 40.1669 27.7689C41.0573 27.4732 42.6465 26.6775 43.904 26.6446C44.428 27.0181 44.9729 27.3681 45.5373 27.6888C44.7906 27.6649 44.0358 27.7427 43.1761 28.0167C41.5963 28.5201 40.2062 29.7035 38.5074 29.8412C38.034 29.8794 38.0332 30.54 38.5074 30.5785C40.0655 30.7047 41.6135 30.9318 43.1738 30.6545C44.9325 30.3416 46.5067 29.4262 48.2272 28.9838C49.4099 29.4632 50.6203 29.8487 51.8097 30.147C52.1237 30.2256 52.4445 30.2918 52.7641 30.3581C51.5054 30.7398 50.3467 31.3686 49.0423 32.0502C46.7537 33.2463 44.2704 34.072 41.6846 34.2587C41.4177 34.2778 41.3582 34.5798 41.5562 34.7329C44.2184 36.7873 48.6883 36.3655 51.6701 35.4467C54.4225 34.5986 56.1628 32.2822 58.6001 30.9629C60.1783 30.9659 61.9894 30.8016 63.2593 30.0987C63.3129 30.8435 63.3495 31.5928 63.3495 32.3511C63.3495 36.1843 62.6504 39.8537 61.3801 43.2438ZM56.0958 47.7642C55.5299 48.3544 54.9303 48.9076 54.2612 49.4016C51.9897 51.0784 49.3047 51.5391 46.7728 52.6166C47.2515 52.1263 47.6882 51.5956 48.207 51.1386C49.5143 49.9885 51.0765 49.4529 52.7218 48.9338C53.8255 48.5854 55.0565 48.3125 56.0958 47.7642ZM52.6993 45.5111C52.681 45.4898 52.6585 45.4715 52.6331 45.4565C51.9957 45.0908 51.2906 45.1294 50.606 44.8824C49.4578 44.4688 48.3709 43.4777 47.7683 42.4286C47.5239 42.0035 47.3967 41.524 47.2597 41.0588C47.1399 40.6509 47.1665 40.4353 46.9827 40.4394C47.2466 40.4334 47.8881 41.088 48.1696 41.2647C49.0173 41.7984 49.9799 42.0877 50.9459 42.3437C52.0855 42.6465 53.2241 42.9171 54.1773 43.6394C54.723 44.053 55.2009 44.611 55.6763 45.1417C54.7002 45.3266 53.7091 45.4482 52.6993 45.5111ZM40.6007 62.2731C42.0383 61.1301 43.179 59.5634 43.7352 57.9683C43.8112 57.7493 43.8782 57.5255 43.9403 57.2984C44.0526 58.4006 44.398 59.2674 45.3008 58.7965C47.4255 57.6887 45.2581 54.2518 44.69 52.8277C45.0807 50.2314 45.7398 47.8177 48.4315 46.6474C48.6164 46.6616 48.8013 46.6762 48.9888 46.6845C51.3344 46.7848 53.678 46.6856 55.9978 46.3023C56.1662 46.2746 56.3219 46.2372 56.4824 46.2031C56.2414 46.3555 55.9963 46.4973 55.7459 46.622C54.2802 47.3503 52.6043 47.5984 51.1016 48.2339C50.0083 48.6965 49.0547 49.1501 48.2384 50.0214C47.5232 50.7846 47.1051 51.9923 46.3936 52.7828C46.3839 52.7873 46.3742 52.791 46.3648 52.7955C46.3162 52.818 46.2776 52.8726 46.2593 52.9224C46.1698 53.0103 46.0789 53.0964 45.979 53.1694C45.8064 53.2948 45.952 53.5553 46.1474 53.4583C47.4798 52.7974 49.0712 52.5796 50.5001 52.2206C51.9325 51.861 53.0571 51.3497 54.299 50.5207C55.1826 49.9305 55.9798 49.3092 56.6464 48.4783C57.2081 47.7777 57.6311 46.7829 58.2224 46.0242C58.459 45.7982 58.7007 45.5785 58.9597 45.3794C59.627 45.0744 60.2734 44.7225 60.9463 44.3442C57.3013 53.0418 49.81 59.7221 40.6007 62.2731ZM42.255 59.319C41.7164 59.697 41.158 60.0335 40.5408 60.282C40.1175 60.4527 39.6815 60.5964 39.2316 60.6758C38.9884 60.7188 38.7009 60.7929 38.4528 60.7573C38.3128 60.7761 38.1885 60.7334 38.0796 60.6297C37.7492 60.5489 37.7574 60.4388 38.1047 60.3004C38.4947 59.8943 39.3102 59.6982 39.8132 59.5391C40.6505 59.2737 41.5532 59.0409 42.444 58.9994C42.3837 59.1072 42.3216 59.2139 42.255 59.319ZM44.4953 54.2308L44.4983 54.2106C45.0455 55.2994 45.9524 56.3485 45.5077 57.5948C44.8988 59.3007 44.4396 56.8365 44.4314 56.4035C44.4183 55.7021 44.4924 54.994 44.5066 54.2915C44.507 54.2686 44.4998 54.2511 44.4953 54.2308ZM34.1229 53.5583C33.4267 54.659 32.9106 55.9502 32.1149 56.9069C30.3865 58.9844 27.9643 59.5844 25.5779 60.4306C26.0188 59.8164 26.4073 59.1334 26.9201 58.6233C27.9508 57.5985 29.0927 56.7759 30.2903 55.9652C31.2324 55.3278 32.2886 54.8821 33.2205 54.2316C33.5252 54.0194 33.8253 53.7929 34.1229 53.5583ZM26.1116 51.3127C24.466 51.355 22.8802 51.7307 21.3753 52.398C18.8587 53.5137 16.0921 54.2151 13.3172 53.6021C12.3239 53.3827 11.0791 53.0369 10.1988 52.4534C10.4627 52.4508 10.7262 52.4531 10.9893 52.4684C11.2404 52.4403 11.5578 52.3486 11.7921 52.2775C14.3955 51.4901 16.2044 49.7493 19.1311 49.853C21.5287 49.938 23.8151 50.6629 26.1116 51.3127ZM32.0322 49.0281C30.8439 48.6445 29.6537 48.2743 28.4826 47.8099C26.6903 47.0988 25.3601 46.7713 24.0041 45.2896C23.0999 44.3019 22.2694 43.2756 21.3247 42.3396C22.2769 42.6064 23.2054 43.0136 24.1606 43.2322C25.2916 43.4904 26.4926 43.4901 27.5193 44.0975C29.3592 45.1863 30.3192 47.1751 31.7189 48.6965C31.8211 48.8081 31.9259 48.9188 32.0322 49.0281ZM41.9346 52.9737C41.7362 54.0212 41.0876 54.8675 40.3574 55.6093C40.0023 55.9701 39.622 56.2332 39.2024 56.5042C38.9468 56.6086 38.7136 56.7515 38.5033 56.9331C38.0751 57.2418 38.0201 57.2635 38.3375 56.9982C38.9236 55.7062 40.1703 54.7417 40.6363 53.3027C40.9072 52.468 40.9245 51.6233 41.0233 50.7546C41.115 49.9488 41.3174 49.3496 41.624 48.838C41.5491 50.1618 42.1861 51.6413 41.9346 52.9737ZM39.7384 43.2876C38.0362 41.5749 36.7551 39.9323 36.0616 37.5171C35.5395 35.6982 35.1674 33.8395 34.6944 32.0067C36.2794 33.8362 37.9052 35.5294 38.854 37.8835C39.5479 39.6059 39.6317 41.8747 40.4989 43.5866C40.2433 43.4901 39.9895 43.3905 39.7384 43.2876ZM6.51828 49.6749C7.79603 49.1183 8.9121 48.1535 9.79051 47.1093C10.1109 46.7282 10.3893 46.3237 10.6498 45.9093C10.5664 46.4644 10.5611 47.0292 10.6798 47.5816C10.7932 48.1097 11.1001 49.076 11.8479 48.8642C12.5751 48.6584 12.5197 47.5262 12.4927 46.9801C12.443 45.9726 12.0762 45.1215 11.6641 44.2195C11.6562 44.2027 11.6439 44.1941 11.6338 44.1806C12.0709 43.3669 12.5148 42.5593 13.062 41.8137C13.5534 41.5457 14.0388 41.2624 14.5172 40.9634C15.2863 40.4821 16.0052 39.9398 16.6879 39.3551C16.3365 40.0517 16.061 40.786 15.9195 41.6019C15.7642 42.4968 15.5056 44.9359 16.9866 44.8999C18.6281 44.8603 19.3059 41.7673 19.4407 40.6471C19.5855 39.4394 19.593 37.9573 19.3145 36.7304C19.3793 36.6567 19.4455 36.5841 19.5099 36.5096C20.925 34.8722 23.1283 33.4271 25.353 33.609C26.9421 34.3572 28.6507 35.2221 30.0729 36.3355C30.3768 36.8438 30.6923 37.3446 31.0217 37.8337C30.2432 37.3764 29.3857 37.0729 28.3389 36.995C27.337 36.9205 26.3302 36.9722 25.3313 36.9587C24.0356 36.9411 22.9629 36.4572 21.7076 36.2828C21.1979 36.212 20.8812 36.8243 21.3476 37.1372C23.3469 38.4801 25.0001 39.768 27.4418 40.1157C29.3753 40.3907 31.2979 40.2261 33.1928 40.5734C34.2681 41.6996 35.5005 42.6715 36.9621 43.3954C38.8585 44.3352 40.9218 44.8453 42.9279 45.4748C43.3377 45.6036 43.7453 45.7241 44.1529 45.8394C43.8393 45.9022 43.5241 45.9902 43.2056 46.1144C41.8328 46.6511 40.6078 47.5992 39.3638 48.3634C38.555 48.8605 37.7536 49.295 36.9497 49.6689C35.8351 49.9118 34.7397 49.7669 33.752 48.8013C32.5157 47.5924 31.637 46.0819 30.409 44.8651C29.2413 43.7083 27.9717 42.88 26.3276 42.621C24.3181 42.3051 22.3618 41.883 20.3655 41.4986C20.1293 41.4533 19.822 41.7231 20.0077 41.9642C22.0037 44.5534 23.5479 47.4753 26.795 48.5476C27.8554 48.8979 29.0193 49.1962 30.1283 49.326C31.2399 49.4567 32.2399 49.7505 33.2433 50.0884C33.5794 50.3212 33.9413 50.5076 34.3283 50.6409C32.3657 51.1806 30.3229 51.3145 28.0541 50.947C24.7927 50.4185 21.5609 48.9323 18.2086 49.0933C16.6277 49.1692 15.2043 49.6513 13.7885 50.3456C12.4669 50.9934 11.1091 51.9325 9.61722 52.1185C9.4357 52.1409 9.40351 52.3621 9.57493 52.4321C12.5788 53.6623 14.8985 54.991 18.2872 54.4745C21.2338 54.0254 23.7144 51.7004 26.6577 51.465C28.9696 52.1016 31.3012 52.6046 33.7767 52.245C33.8118 52.2401 33.8452 52.2307 33.88 52.2255C33.515 52.5189 33.1625 52.8311 32.7852 53.1028C31.768 53.8356 30.6324 54.3544 29.6447 55.1283C28.6859 55.8799 27.7798 56.6157 26.9429 57.5087C26.4582 58.0263 25.9795 58.5417 25.5551 59.1109C25.1232 59.6911 24.7433 60.6174 24.1026 61.0047C23.7904 61.193 23.9918 61.7439 24.3593 61.614C27.0683 60.6555 30.077 60.3853 32.1827 58.1977C33.6715 56.6505 33.9324 54.5067 35.0466 52.8C35.596 52.334 36.1364 51.8569 36.6739 51.398C37.9198 50.8605 39.0898 50.1412 40.201 49.3436C40.0232 50.0053 39.9798 50.7213 39.902 51.3748C39.6482 53.51 38.7357 55.5131 37.8124 57.4428C37.7458 57.5824 37.8603 57.8092 38.0392 57.7381C39.7058 57.079 41.2351 56.1609 42.1625 54.5628C43.4571 52.3311 42.4215 50.1427 42.4724 47.802C42.5675 47.7096 42.6656 47.6171 42.7696 47.5239C43.7614 46.9027 44.7888 46.4445 46.0557 46.3079C46.421 46.3832 46.7885 46.4479 47.159 46.5029C46.9105 46.6152 46.7129 46.7114 46.662 46.7533C46.2353 47.1063 45.8341 47.5861 45.5209 48.0423C44.4991 49.5293 44.0814 51.4249 43.855 53.1791C43.6379 54.8589 43.4815 56.6194 42.8347 58.191C42.8111 58.1872 42.7924 58.1771 42.7662 58.1775C41.3762 58.1966 39.9671 58.6502 38.7219 59.2502C38.2641 59.4702 37.1705 60.0051 37.2203 60.6312C37.297 61.5897 39.0082 61.2203 39.5501 61.0852C40.1823 60.928 40.8578 60.6825 41.4784 60.3513C40.6479 61.3154 39.6029 62.1755 38.4591 62.7915C36.4665 63.1931 34.4054 63.4057 32.2946 63.4057C21.5586 63.4057 12.096 57.9571 6.51828 49.6749ZM11.2648 44.8588C11.2906 44.8124 11.316 44.7652 11.3415 44.7184C11.8516 45.5691 12.3629 47.0322 11.9732 47.9229C11.468 49.0779 11.0372 47.0812 11.0226 46.6452C11.0024 46.0411 11.1027 45.44 11.2648 44.8588ZM3.64726 44.3554C6.63916 44.404 9.48436 43.602 12.1469 42.2872C11.3654 43.5013 10.923 44.8752 10.0978 46.0939C9.25306 47.3405 7.97006 48.884 6.47823 49.6124C5.37451 47.9645 4.42387 46.2058 3.64726 44.3554ZM9.20553 39.9091C8.8627 39.7605 8.52511 39.5958 8.21035 39.3933C7.93676 39.217 6.82892 38.3293 7.9375 38.2286C8.56253 38.1717 9.3208 38.7728 9.6947 39.2114C9.98588 39.5531 10.1943 39.9476 10.4346 40.3215C10.0196 40.2014 9.606 40.0831 9.20553 39.9091ZM5.90335 41.1715C5.95949 41.1606 5.99804 41.1292 6.02686 41.0903C6.19566 41.1123 6.36445 41.1318 6.53399 41.1486C5.96773 41.6146 5.12075 41.9994 4.47851 42.1345C4.27566 42.1768 3.95079 42.3081 4.05334 41.8882C4.1121 41.6479 4.70943 41.4185 4.87823 41.3605C5.21208 41.246 5.55828 41.2396 5.90335 41.1715ZM3.50316 43.9901C2.99266 42.7281 2.55552 41.4286 2.21231 40.0906C2.78344 40.3526 3.44665 40.5217 3.84861 40.64C4.12707 40.722 4.41189 40.792 4.69933 40.8563C4.4074 40.9361 4.12857 41.0663 3.86284 41.3115C3.56342 41.5877 3.18429 42.1846 3.59523 42.5256C4.02415 42.8811 4.79177 42.5394 5.2102 42.3557C5.81278 42.0907 6.55271 41.6741 7.0183 41.1909C7.60815 41.2321 8.19762 41.2437 8.77474 41.2246C9.44992 41.2025 10.1764 41.1464 10.9182 41.048C10.9638 41.0517 11.005 41.0457 11.0413 41.0304C12.12 40.881 13.2259 40.64 14.2563 40.2811C11.1383 42.5649 7.31921 44.1507 3.50316 43.9901ZM18.8815 39.1141C18.8867 39.7627 18.8692 40.4192 18.7486 41.0584C18.6607 41.5274 18.5402 41.9964 18.3433 42.4328C17.8904 43.4388 18.0027 43.6731 17.1674 43.331C16.387 43.011 16.6273 42.4485 16.7935 41.6764C16.9009 41.176 17.0536 40.6988 17.2366 40.2201C17.5884 39.3001 18.0607 38.391 18.5761 37.5429C18.6521 37.4625 18.7273 37.3816 18.8022 37.3004C18.9002 37.8974 18.877 38.5471 18.8815 39.1141ZM20.7899 32.0576C19.709 32.625 18.8736 33.4982 17.9028 34.3598C16.107 35.9534 14.3809 36.7835 12.2117 37.0848C13.6492 36.4647 14.79 35.697 16.0939 34.4642C17.3942 33.234 19.0338 32.2141 20.7899 32.0576ZM1.475 28.5852C1.49895 28.6219 1.5274 28.6555 1.56483 28.6836C3.35196 30.007 4.66639 31.6542 6.99734 32.0184C9.93049 32.4768 12.827 31.3331 15.7365 31.119C16.9267 31.0314 18.0802 31.1272 19.2064 31.3503C18.5521 31.5011 17.9279 31.7455 17.3781 32.0857C16.378 32.7033 15.6239 33.5922 14.7728 34.3774C13.4441 35.6031 11.989 36.5107 10.3497 37.2514C10.1157 37.3569 10.2437 37.7155 10.4754 37.7155C12.9602 37.7155 14.8955 37.4456 16.948 35.9321C18.639 34.685 19.864 32.7605 21.9318 32.1291C22.5894 32.3694 23.2402 32.6393 23.8859 32.9289C23.1497 32.9828 22.4255 33.1539 21.778 33.4222C19.4874 34.3725 18.2598 36.7409 16.53 38.3847C16.3952 38.5127 16.2538 38.6377 16.1149 38.7634C14.6968 39.6085 12.8823 40.0322 11.1622 40.3058C10.8897 39.5299 10.2505 38.6223 9.55509 38.1915C8.93905 37.8102 7.67065 37.2821 7.03701 37.8906C6.33077 38.5696 7.08904 39.3802 7.66915 39.7859C8.1804 40.1437 8.69652 40.3829 9.2321 40.5723C7.74925 40.7523 6.18817 40.7231 4.72777 40.439C3.67795 40.2347 2.88899 39.5689 1.99711 39.1575C1.50681 36.9662 1.23959 34.6903 1.23959 32.3511C1.23959 31.0752 1.32567 29.8206 1.475 28.5852ZM7.21554 23.8054C7.23275 23.8211 7.24773 23.838 7.26532 23.8533C7.36712 23.9435 7.47042 24.0292 7.57484 24.1108C7.29114 24.2444 7.01156 24.396 6.71739 24.4948C6.01114 24.7317 5.22817 24.8728 4.48188 24.8402C3.88454 24.8144 2.72132 24.6636 3.83926 23.6628C4.10199 23.4274 4.78354 23.3245 5.08295 23.3226C5.80155 23.3181 6.51116 23.6531 7.21554 23.8054ZM14.1683 30.1653C12.6368 30.3731 11.1139 30.6788 9.55809 30.8076C6.7638 31.0393 4.82957 30.0089 2.7056 28.6282C4.66789 28.3501 6.4947 27.7015 8.55018 28.0691C10.5533 28.4269 12.2764 29.5437 14.1683 30.1653ZM32.39 39.6669C31.2941 39.5236 30.1522 39.5965 29.035 39.5007C26.9541 39.3226 25.3897 38.7608 23.8522 37.8027C24.6202 37.9325 25.399 37.9823 26.31 37.9423C27.1229 37.9063 27.9837 37.8551 28.7978 37.897C30.147 37.967 31.1669 38.5763 32.1389 39.3649C32.2208 39.4674 32.3062 39.5662 32.39 39.6669ZM27.3954 31.0486C27.8026 32.0509 28.2375 33.0371 28.745 33.9803C28.8404 34.1577 28.9374 34.3351 29.0339 34.5125C28.2966 34.0132 27.5174 33.5652 26.7236 33.1501C24.0861 31.7725 21.358 30.4172 18.3669 30.0467C17.2736 29.9112 16.2025 29.9434 15.1392 30.0497C13.5107 28.6454 11.1139 27.7296 9.0169 27.4347C6.46737 27.0761 4.23261 28.0335 1.73512 28.0552C1.65165 28.056 1.58578 28.0818 1.53413 28.1207C1.96118 24.9873 2.85343 22.0029 4.14316 19.2393C4.78878 20.6948 5.56127 22.0939 6.65526 23.2571C5.79706 23.0157 4.98939 22.7574 4.0612 23.134C3.55519 23.3387 2.68239 23.9222 2.89797 24.5827C3.18728 25.469 4.94485 25.4357 5.60618 25.3766C6.41086 25.3043 7.6059 25.1539 8.28894 24.6015C9.42111 25.2838 10.6693 25.624 11.95 25.9679C12.2008 26.1206 12.4579 26.2681 12.7255 26.4054C14.793 27.4669 17.3077 27.9048 19.5803 28.2263C21.1941 28.4546 22.939 28.6391 24.5139 29.0474C25.6962 29.3539 26.6016 30.1549 27.3954 31.0486ZM25.7254 26.7591C25.0745 26.5027 24.3994 26.4178 23.6632 26.4227C22.8866 26.4271 22.1088 26.4926 21.3303 26.4563C20.5305 26.4185 17.7314 26.0682 17.8377 24.6913C17.9372 23.3997 22.2189 24.6303 23.0344 24.8286C23.835 25.0229 24.6973 25.3238 25.3474 25.8538C25.4769 26.1536 25.6023 26.4556 25.7254 26.7591ZM25.5214 20.8891C25.478 21.6601 25.3167 22.449 25.2983 23.2185C25.2553 23.1437 25.2138 23.0677 25.1703 22.994C25.1793 22.9086 25.1569 22.8181 25.0888 22.7365C24.067 21.5051 24.2931 19.6723 24.3881 18.2179C24.4353 17.4948 24.4102 16.8346 24.3601 16.1696C25.2478 17.5491 25.609 19.337 25.5214 20.8891ZM12.4759 24.3481C12.3131 24.0019 12.1593 23.6138 12.0979 23.232C12.0365 22.9902 12.0384 22.7488 12.1027 22.5071C12.2244 22.199 12.3786 22.1451 12.565 22.3465C13.2933 22.5478 13.3973 24.0023 13.4973 24.6033C13.5703 25.0438 13.6736 25.4724 13.7828 25.9013C13.6896 25.8635 13.5968 25.8246 13.5048 25.7849C13.0942 25.3567 12.7281 24.8848 12.4759 24.3481ZM10.3976 24.841C9.31856 24.3889 8.31028 23.8181 7.44085 22.866C6.25704 21.5699 5.33297 20.1484 4.60277 18.5563C4.58181 18.511 4.55486 18.4784 4.52567 18.4503C5.03505 17.435 5.5987 16.4525 6.21212 15.5041C6.32253 19.1195 7.69423 22.5097 10.3976 24.841ZM7.62424 19.5907C7.69423 18.5469 7.71406 17.4387 8.09208 16.4671C8.39037 15.701 9.35636 14.3951 9.24258 16.0599C9.18307 16.9368 8.95514 17.8238 8.68267 18.6569C8.49778 19.2221 8.09694 19.8003 7.90045 20.379C7.79528 20.1177 7.70321 19.855 7.62424 19.5907ZM38.2503 1.87285C39.2335 2.58396 40.0677 3.18616 40.7253 4.34228C41.3822 5.49615 41.7535 6.63393 41.9833 7.85442C41.5779 7.19458 41.0734 6.72076 40.5637 7.07669C40.1153 7.38958 40.2365 8.1209 40.3848 8.55131C40.5116 8.92146 40.7175 9.24221 40.972 9.53676C41.3107 9.929 41.8231 10.1996 42.112 10.6184C42.1614 10.6903 42.2254 10.7281 42.2928 10.7513C42.3257 11.7 42.3021 12.6645 42.2434 13.6301C42.1026 13.0875 41.9402 12.5391 41.737 11.9759C41.0584 10.0933 40.2111 8.25414 39.0374 6.6343C39.3727 6.01489 39.4689 5.13985 39.3694 4.4497C39.2968 3.94743 38.9865 2.71795 38.2795 2.72656C37.7798 2.73255 37.6286 3.56156 37.6212 3.92871C37.6099 4.48413 37.8173 4.94223 38.0242 5.40109C37.2828 4.61101 36.4205 3.9347 35.5181 3.3441C34.8811 2.92717 34.2198 2.52259 33.5525 2.15543C33.4278 2.08694 31.9296 1.50308 31.6224 1.31295C31.8469 1.30808 32.0692 1.29573 32.2946 1.29573C34.3325 1.29573 36.3224 1.49784 38.2503 1.87285ZM46.2967 28.6039C45.5126 28.8704 44.742 29.2465 43.9489 29.4696C43.0874 29.7121 42.2396 29.8188 41.3867 29.8607C41.6633 29.7282 41.9357 29.5908 42.2026 29.4584C43.6802 28.7267 44.9033 28.529 46.2967 28.6039ZM41.4379 24.4753C41.9672 25.0596 42.551 25.5978 43.1738 26.0948C41.5805 26.3654 39.7092 27.194 38.7743 27.2157C36.9602 27.258 35.2812 26.484 33.6648 25.7542C32.4158 25.1898 30.2735 23.9371 29.333 22.5157C30.7503 23.1474 31.982 23.9106 33.6494 24.1467C36.27 24.518 38.9678 23.4577 41.3878 24.4184C41.405 24.4372 41.4211 24.4562 41.4379 24.4753ZM35.8748 17.9432C35.7068 17.8238 35.5395 17.7044 35.3669 17.5903C33.8249 16.5738 32.0659 15.9379 30.5984 14.8173C28.9707 13.5751 27.6222 12.0563 26.8811 10.1281C26.5173 9.18158 26.3104 8.2212 26.039 7.29863C27.8071 9.03337 30.2555 10.1307 32.0925 11.8752C33.8182 13.5134 34.5997 15.9577 35.8748 17.9432ZM38.8824 17.3732C38.7312 16.4458 38.595 15.5528 38.3207 14.6538C38.3135 14.6306 38.3038 14.6029 38.2933 14.5729C38.5651 15.1063 38.8409 15.6392 39.0733 16.1886C39.6624 17.5813 39.8144 18.8785 39.9061 20.379C39.9165 20.5448 39.9225 20.7326 39.93 20.931C39.4094 19.8228 39.0883 18.6386 38.8824 17.3732ZM42.2273 9.66888C42.2299 9.70032 42.2314 9.73213 42.2336 9.76357C42.0203 9.59028 41.7954 9.4286 41.5858 9.23921C41.3474 9.02326 41.1266 8.80581 40.9656 8.52287C40.8915 8.39187 40.5528 7.70209 40.747 7.55538C41.1501 7.2496 41.9279 8.92034 42.2273 9.66888ZM42.7067 7.86153C42.7026 7.34055 42.74 6.82069 42.7913 6.29933C42.8201 6.00628 42.8314 5.63014 43.0316 5.39023C43.1338 5.26785 43.7453 4.96319 43.8703 5.07136C43.9478 5.13798 43.7943 5.67131 43.7696 5.76226C43.6147 6.33114 43.3063 6.90078 43.0162 7.41091C42.9317 7.55912 42.8168 7.70846 42.7067 7.86153ZM38.7619 5.27533C38.7417 5.41643 38.7054 5.56427 38.6702 5.71398C38.5935 5.55192 38.5089 5.39248 38.4296 5.22743C38.2368 4.82659 38.0901 4.46766 38.0066 4.03239C37.9857 3.92385 37.9194 3.77526 37.9269 3.66822C37.9486 3.34635 38.3914 3.17718 38.583 3.45414C38.8821 3.8853 38.8334 4.77905 38.7619 5.27533ZM39.3529 8.24216C39.3705 8.25788 39.3892 8.26425 39.4075 8.2751C39.4472 8.35257 39.4865 8.43042 39.5251 8.50827C39.0744 8.60371 38.6609 8.64563 38.1739 8.60857C37.6739 8.5704 36.5298 8.59622 36.2292 8.15084C35.7622 7.45882 37.0676 7.56698 37.4718 7.61414C38.0867 7.686 38.872 7.80988 39.3529 8.24216ZM37.0672 5.22593C36.3857 5.34719 35.7348 5.58336 35.0342 5.64474C34.1446 5.72258 32.7381 5.83449 31.9555 5.3835C31.0321 4.85129 32.1501 4.54438 32.7081 4.43023C33.3171 4.30598 33.9181 4.26219 34.5304 4.3464C35.2966 4.45194 36.3707 4.7652 37.0672 5.22593ZM23.162 11.6226C22.8701 11.2255 22.6066 10.8272 22.3648 10.426C23.0505 9.40801 24.823 5.85957 22.7675 5.28357C21.8199 5.01821 21.263 6.18556 21.1077 6.92848C21.0684 7.11711 21.047 7.31173 21.0336 7.50822C20.6507 6.31543 20.4235 5.05938 20.3191 3.69217C23.7343 2.26322 27.4605 1.43421 31.3664 1.31931C31.3682 1.3369 31.3701 1.35449 31.3716 1.37208C31.3765 1.42485 31.4023 1.4548 31.4495 1.47463C33.304 2.25349 35.0043 3.19889 36.443 4.45231C35.5627 4.13044 34.5458 3.99384 33.7119 3.9463C32.9971 3.90626 30.5722 3.89727 30.5288 5.04927C30.4831 6.25891 32.7807 6.28698 33.4975 6.35585C34.7078 6.47187 36.4489 6.43931 37.5194 5.78509C37.5822 5.74654 37.6197 5.69863 37.6455 5.64848C38.0751 6.13653 38.4715 6.66462 38.83 7.238C38.3427 7.05798 37.8057 6.99585 37.2765 6.96553C36.7008 6.9326 35.5383 6.92698 35.3819 7.67066C35.1921 8.57564 36.4957 8.89077 37.117 8.99931C38.0265 9.15875 38.8667 9.14191 39.7496 8.9675C40.792 11.227 41.4002 13.6945 41.6943 16.1404C42.0233 18.8804 41.7834 21.5467 42.7026 24.2175C42.715 24.2526 42.7292 24.2848 42.7415 24.3196C42.0881 23.7219 41.4619 23.0909 40.8249 22.4419C40.5996 21.4583 40.6935 19.9721 40.6467 19.3901C40.5618 18.328 40.3443 17.3294 39.9375 16.3447C39.4132 15.0767 38.5894 12.9205 37.4422 12.1095C37.2798 11.9946 37.1035 12.1836 37.135 12.3456C37.3517 13.4647 37.7514 14.5168 37.8528 15.6725C37.9471 16.7459 37.9715 17.8721 38.1837 18.9328C38.2686 19.3587 38.391 19.77 38.5426 20.1694C38.4681 20.099 38.3933 20.0301 38.3184 19.9609C38.315 19.953 38.3139 19.9456 38.3094 19.9377C37.7727 19.0922 37.1024 18.331 36.6065 17.463C36.2367 16.8155 36.0451 16.0827 35.7064 15.4214C35.0638 14.1665 34.2797 12.9104 33.362 11.8434C31.0598 9.16474 27.2378 8.04268 25.158 5.20235C25.0869 5.08782 25.0109 4.97517 24.9301 4.86364C24.8575 4.75211 24.7811 4.64432 24.7137 4.52717C24.6804 4.46953 24.6288 4.4366 24.5726 4.42387C24.5352 4.38233 24.5012 4.33966 24.4619 4.29887C24.2354 4.06195 23.8608 4.36399 24.0157 4.64319C25.3309 7.01643 25.1348 9.91889 26.636 12.233C27.5275 13.6069 28.7637 14.7395 30.1388 15.6037C31.8739 16.6943 33.8081 17.3549 35.5181 18.4926C35.9736 18.7958 36.3932 19.1285 36.7985 19.474C34.1603 18.3223 31.1429 17.7755 28.6627 16.4199C26.5757 15.2788 24.5633 13.5283 23.162 11.6226ZM22.0254 9.65166C21.8001 9.02439 21.6878 8.33536 21.6642 7.68525C21.6496 7.28179 21.5935 6.52202 21.9101 6.21026C22.891 5.96623 23.2642 6.26677 23.0295 7.11075C22.9996 7.23089 22.9637 7.34916 22.921 7.46555C22.7739 8.05428 22.4692 8.61643 22.2409 9.17859C22.1882 9.30846 22.1017 9.47538 22.0254 9.65166ZM16.1868 5.79482C17.4383 5.03393 18.749 4.36137 20.1087 3.78088C19.9515 6.19716 20.5448 8.30055 21.635 10.4092C21.644 10.4264 21.6511 10.4455 21.6601 10.4627C21.6623 10.4676 21.6664 10.4698 21.6691 10.4743C21.7417 10.6132 21.809 10.7516 21.8858 10.8909C22.1025 11.2831 22.3469 11.6828 22.6137 12.0818C21.5392 11.4792 20.4085 10.9459 19.3314 10.4208C17.3496 9.45442 16.634 7.77882 16.1868 5.79482ZM17.3818 10.2265C16.7976 10.3796 16.2156 10.526 15.5999 10.5589C15.2451 10.578 13.9269 10.6495 13.7361 10.1506C13.5201 9.58504 15.4446 9.50832 15.8791 9.58541C16.3997 9.67786 16.8256 9.90841 17.2781 10.1225C17.3126 10.1573 17.3466 10.1932 17.3818 10.2265ZM49.7022 26.7584C49.6704 27.1607 49.6595 27.4957 49.6794 27.7872C49.3275 27.3894 48.9986 26.9504 48.7351 26.4915C47.9001 25.0379 47.3731 23.4337 47.003 21.8068C46.3267 18.8381 46.3019 15.5932 45.3326 12.7195C45.9438 13.4935 46.6115 14.2335 47.1856 14.9839C48.5491 16.7658 49.6812 18.6528 50.1128 20.8895C50.4997 22.8974 49.8575 24.7774 49.7022 26.7584ZM60.6877 29.4842C59.5848 29.2274 58.5679 28.8576 57.6599 28.035C56.3915 26.8856 55.543 25.3781 54.9251 23.7998C54.467 22.6283 54.3656 21.4381 54.1092 20.2218C54.0594 19.9852 54.0153 19.7165 53.9415 19.4631C54.0029 19.5118 54.0635 19.5604 54.1219 19.6095C56.1269 21.2944 58.0851 23.5505 58.9627 26.0405C59.4927 27.5443 59.7607 28.6118 60.6877 29.4842ZM57.1131 30.9184C57.2504 30.9259 57.3938 30.9326 57.5405 30.939C55.9607 31.7335 54.5115 32.9495 53.0133 33.731C51.4133 34.5656 49.4802 35.0462 47.686 35.1869C46.3746 35.2895 43.9729 35.4017 42.5289 34.749C44.4811 34.6659 46.3798 34.2988 48.244 33.6573C50.5978 32.8477 52.5594 30.9244 55.1223 30.7391C55.7878 30.8184 56.454 30.8824 57.1131 30.9184ZM63.1935 29.2338C62.8166 29.4396 62.4045 29.5998 61.9692 29.7222C60.9613 28.8281 60.6035 28.0017 60.1615 26.6723C59.8183 25.6397 59.5226 24.698 58.8961 23.8028C57.3706 21.6223 55.5135 20.1035 53.4587 18.4634C53.2839 18.3238 53.0654 18.5357 53.2117 18.7105C53.2858 18.7988 53.3468 18.8961 53.403 18.9972C53.3981 18.999 53.3928 19.0009 53.3887 18.9968C53.3977 19.0054 53.4074 19.0136 53.4164 19.0222C53.9958 20.1024 53.6541 21.8278 53.833 22.9696C54.0269 24.204 54.4606 25.3391 55.089 26.423C56.2437 28.4156 57.6782 29.4598 59.5376 30.0647C58.4088 30.1025 57.2763 30.0119 56.3073 29.9011C54.4984 29.6941 52.7278 29.3588 50.9915 28.8154C50.2291 27.5335 51.0043 25.5356 51.1888 24.1565C51.4635 22.1013 51.1057 20.1739 50.1902 18.3126C48.7946 15.4742 46.4842 12.5706 44.2263 10.365C44.1548 10.2512 44.0878 10.136 44.0107 10.0241C43.7955 9.71229 43.2891 9.99599 43.4957 10.325C44.8371 12.4628 44.9576 14.6291 45.1821 17.0914C45.3809 19.2659 45.6859 21.4774 46.2915 23.5793C46.653 24.8335 47.2077 26.2015 48.0008 27.2258C48.256 27.5556 48.5139 27.8149 48.7777 28.038C47.6546 27.5986 46.555 27.0844 45.5373 26.4597C44.8116 25.9181 44.2334 25.2358 43.8812 24.2758C43.3579 22.8488 43.0963 21.2821 43.0226 19.7726C42.947 18.2235 42.8489 16.8088 42.6169 15.4001C42.8549 13.1357 43.0125 10.8602 42.743 8.60595C43.6604 7.80988 45.4239 5.2656 44.1005 4.42649C43.4081 3.9871 42.7718 4.67875 42.4702 5.24614C42.3489 5.47369 42.2598 5.72745 42.1951 5.99468C41.7303 4.55599 40.9637 3.18803 39.8447 2.22467C52.3696 5.35393 61.8828 16.0846 63.1935 29.2338ZM32.2946 0.351074C14.6216 0.351074 0.294556 14.6777 0.294556 32.3511C0.294556 36.5017 1.09362 40.4637 2.53194 44.1031C2.53006 44.1608 2.55177 44.218 2.59369 44.2596C3.39725 46.2615 4.39467 48.1639 5.56726 49.9421C5.55566 49.9447 5.5448 49.9488 5.5332 49.9511C5.4939 49.9601 5.51037 50.0218 5.55004 50.0121C5.56763 50.008 5.58447 50.0009 5.60206 49.9964C11.3306 58.6446 21.1443 64.3511 32.2946 64.3511C49.9679 64.3511 64.2946 50.0241 64.2946 32.3511C64.2946 14.6777 49.9679 0.351074 32.2946 0.351074Z" fill="#308415"/>
</svg>
