<svg width="64" height="64" viewBox="0 0 64 64" fill="none" xmlns="http://www.w3.org/2000/svg">
<path fill-rule="evenodd" clip-rule="evenodd" d="M15.9435 15.2575C15.9319 15.3252 15.936 15.3982 15.976 15.4757C17.4237 18.2651 19.2007 21.0291 22.6496 21.272C25.2212 21.4531 28.8262 19.7764 29.3786 16.9982C29.9056 16.6292 30.3435 16.1827 30.6305 15.64C30.729 15.4532 30.5654 15.2118 30.3491 15.2743C30.0411 15.3634 29.7555 15.4906 29.4789 15.6347C28.6181 14.0119 27.1476 13.0489 25.277 13.345C24.3022 13.4991 23.4753 13.9519 22.6363 14.4114C22.3894 14.5466 22.1414 14.6824 21.8884 14.8113C19.8673 15.8402 18.0622 16.0127 16.1624 14.5696C15.8548 14.3356 15.439 14.8682 15.7459 15.1096C15.8011 15.1531 15.8572 15.1942 15.9134 15.2354L15.9435 15.2575ZM20.7543 16.2639C21.4953 16.074 22.1709 15.7334 22.8474 15.3923C23.2511 15.1888 23.655 14.9851 24.0733 14.8132C26.0645 13.9958 27.5623 14.4827 29.0081 15.8971C28.8866 15.9693 28.7658 16.0433 28.6448 16.1174C28.2965 16.3307 27.9462 16.5453 27.5713 16.7227C26.2516 17.3474 24.7912 17.6741 23.333 17.6786C21.5736 17.6842 19.8939 17.1932 18.3934 16.35C19.1513 16.4911 19.9433 16.4716 20.7543 16.2639ZM26.4698 19.2011C25.2609 19.9721 23.8499 20.3041 22.4292 20.1312C20.0234 19.8378 18.511 18.1019 17.2568 16.2077C18.9152 17.4791 20.8857 18.2658 23.025 18.4253C24.4413 18.5308 26.4073 18.3523 28.0357 17.7071C27.5739 18.252 27.1139 18.7902 26.4698 19.2011Z" fill="currentColor"/>
<path fill-rule="evenodd" clip-rule="evenodd" d="M6.96573 19.8502C6.95312 19.8569 6.94049 19.8637 6.92808 19.871C6.50365 20.1244 6.1219 19.4661 6.5422 19.2104C8.84995 17.8058 11.9444 17.957 14.1578 19.5252C15.8825 20.7472 16.6639 22.9591 15.3809 24.7062C15.7495 24.8104 16.1318 24.8696 16.5184 24.9294C16.8843 24.9861 17.2542 25.0434 17.6202 25.14C17.8182 25.192 17.7804 25.4387 17.6202 25.5053C16.8282 25.8346 15.8776 25.7852 15.013 25.4948C14.9962 25.5124 14.9782 25.5292 14.9569 25.5449C13.7222 26.4466 12.005 26.597 10.7149 25.6894C9.74317 25.0061 9.40969 23.9048 9.08231 22.8237C8.7041 21.5748 8.33402 20.3526 6.99731 19.8328C6.98692 19.8388 6.9763 19.8445 6.96573 19.8502ZM14.7889 24.4854C15.9712 22.4482 14.4438 20.4197 12.5391 19.5989C11.148 18.9993 9.63816 18.8732 8.23615 19.2946C9.47311 19.423 10.5753 19.9403 11.5903 20.889C12.0823 21.3489 12.4592 21.9017 12.8346 22.4524C13.1998 22.988 13.5637 23.5217 14.031 23.9663C14.2701 24.1935 14.5242 24.3585 14.7889 24.4854ZM9.77076 22.348C9.98111 23.2557 10.1936 24.1726 10.9148 24.8424C11.8452 25.707 13.166 25.7201 14.2147 25.1434C13.9213 24.9813 13.65 24.7923 13.4164 24.5812C12.9341 24.1441 12.5706 23.6009 12.2066 23.0568C11.8933 22.5884 11.5795 22.1194 11.1891 21.7169C10.4975 21.0039 9.67746 20.4182 8.76985 20.0814C9.17631 20.529 9.45589 21.093 9.63404 21.7805C9.68263 21.9677 9.72665 22.1576 9.77076 22.348Z" fill="currentColor"/>
<path fill-rule="evenodd" clip-rule="evenodd" d="M11.1913 31.2694C11.8807 31.1893 12.5638 30.9752 13.2157 30.5954C13.3647 30.5085 13.2591 30.3068 13.105 30.3326C12.4736 30.4382 11.8601 30.5007 11.265 30.5183C11.2804 29.4059 10.512 28.6248 9.51533 28.1802C8.78569 27.8547 8.04518 27.8224 7.31678 27.7907C6.33582 27.748 5.37683 27.7062 4.496 26.9503C4.46044 26.92 4.42264 26.9043 4.38409 26.8957C4.16178 26.7722 3.82194 26.9298 3.91289 27.2441C4.02692 27.6377 4.12504 28.0661 4.22609 28.5072C4.63213 30.2797 5.08548 32.2588 6.80899 33.0191C8.58452 33.8029 10.2762 32.7964 11.1913 31.2694ZM4.93427 28.48C6.355 30.1268 8.51528 31.348 10.6744 31.3057C9.63285 32.5925 7.64211 33.1206 6.33666 31.8218C5.57239 31.0616 5.25273 29.7684 4.95642 28.5696L4.93427 28.48ZM8.8016 28.5129C9.70172 28.7648 10.7452 29.5029 10.6894 30.519C8.54934 30.4674 6.67724 29.7469 5.16519 28.0507C5.55818 28.2517 5.98597 28.3613 6.5455 28.3752C6.75053 28.3803 6.95404 28.3774 7.15664 28.3746C7.70775 28.3668 8.25207 28.3591 8.8016 28.5129Z" fill="currentColor"/>
<path fill-rule="evenodd" clip-rule="evenodd" d="M34.839 19.359C34.6448 19.5525 34.3686 19.3018 34.476 19.0899C34.4139 19.0192 34.3914 18.9182 34.4576 18.813C34.8748 18.1504 35.0258 17.4005 35.1779 16.6453C35.322 15.9301 35.467 15.2103 35.8398 14.5557C36.4349 13.5107 37.3025 12.6229 38.304 11.9609C40.3138 10.6318 42.8431 10.9163 43.9487 13.1911C43.9888 13.2738 43.9944 13.3516 43.9869 13.4258C44.6913 13.4617 45.4241 13.6028 46.188 13.8696C46.3703 13.9329 46.3411 14.2009 46.1423 14.2072C45.663 14.2223 45.1973 14.1775 44.7342 14.1329C44.6118 14.1211 44.4897 14.1093 44.3675 14.0987C45.0281 15.6137 44.4585 17.2826 42.9622 18.1243C41.9359 18.7018 40.6372 18.8426 39.483 18.9309C39.0764 18.962 38.5963 18.9291 38.0954 18.8948C37.0018 18.8199 35.8092 18.7382 35.0666 19.3014C35 19.3519 34.9285 19.3557 34.8641 19.334C34.8597 19.3383 34.8554 19.3428 34.851 19.3473C34.847 19.3512 34.8431 19.3552 34.839 19.359ZM43.1261 13.4332C41.2271 10.6139 37.941 12.1989 36.3844 14.5665C35.9152 15.2802 35.765 16.0713 35.6154 16.8592C35.5305 17.3063 35.4458 17.7524 35.3031 18.1827C37.5315 15.8372 40.0548 13.6488 43.1261 13.4332ZM37.5893 18.1451C37.8314 18.1408 38.0741 18.1366 38.3152 18.1232C41.0163 17.9746 44.3515 17.4971 43.6141 14.0598C43.2597 14.0556 42.9023 14.0762 42.5362 14.1548C41.4819 14.3816 40.3928 14.8525 39.4489 15.3618C38.0922 16.0935 36.9656 17.1958 35.8784 18.304C36.4232 18.1655 37.0043 18.1553 37.5893 18.1451Z" fill="currentColor"/>
<path fill-rule="evenodd" clip-rule="evenodd" d="M32 0C14.3266 0 0 14.327 0 32C0 49.6734 14.3266 64 32 64C49.6733 64 64 49.6734 64 32C64 14.327 49.6733 0 32 0ZM32 63.055C31.5767 63.055 31.1571 63.04 30.738 63.0232C33.7903 62.0745 36.423 60.0968 39.032 58.1369C39.2094 58.0037 39.3867 57.8705 39.564 57.7377C43.907 54.4857 49.6692 51.9538 55.2151 52.6174C49.527 59.0181 41.2369 63.055 32 63.055ZM58.3582 48.4166C55.7975 49.1932 53.3307 49.7007 50.6397 49.9103L50.2133 49.9432C47.909 50.1209 45.6323 50.2964 43.4036 50.9683C43.0596 51.072 42.7179 51.185 42.3773 51.3025C43.4172 50.5805 44.4198 49.8093 45.4243 49.0365C46.5996 48.1325 47.7777 47.2262 49.0217 46.394C52.4897 44.0743 56.8728 41.3762 61.1881 42.6251C60.4455 44.6649 59.4908 46.6017 58.3582 48.4166ZM55.8241 51.9145C53.5871 51.6113 51.1195 52.1993 48.9585 52.7218C46.4397 53.3311 44.011 54.2933 41.7972 55.6452C40.61 56.37 39.4554 57.1895 38.2977 58.0111C35.2617 60.1658 32.2048 62.3353 28.4864 62.8517C27.3703 62.726 26.2729 62.5392 25.1954 62.2982C27.4635 61.8068 29.8333 60.3123 31.3117 59.2079C32.3095 58.4623 33.2175 57.6269 34.0817 56.7478L34.2518 56.6048C35.3204 55.7065 36.3887 54.8085 37.6035 54.1129C39.7485 52.8853 42.109 51.9882 44.5107 51.4145C46.3155 50.9833 48.1432 50.8326 49.9595 50.6828C52.6828 50.4582 55.3805 50.2358 57.9372 49.0734C57.286 50.0607 56.5812 51.0099 55.8241 51.9145ZM61.364 42.1053C57.6438 41.4945 53.4153 43.0716 50.219 44.8352C48.1337 45.9856 46.2991 47.4889 44.465 48.9918C43.1956 50.0319 41.9264 51.0719 40.5745 51.9946C39.5535 52.4287 38.5576 52.9235 37.6002 53.4785C37.1147 53.7596 36.6574 54.074 36.2143 54.4064C36.7071 53.8295 37.1925 53.2454 37.6777 52.6615C38.2823 51.9339 38.8869 51.2063 39.5052 50.4937C42.2142 47.3705 45.2383 44.4003 48.8372 42.3167C52.5451 40.1703 57.7613 38.5557 61.7996 40.7388C61.6649 41.1992 61.5193 41.6543 61.364 42.1053ZM61.9797 40.1052C59.2161 38.522 55.2503 39.2732 52.4175 40.2092C48.8728 41.3811 45.7214 43.5305 42.9335 45.9767C40.8328 47.8197 39.025 49.9081 37.2119 52.0026C36.3493 52.999 35.4855 53.997 34.5884 54.9704C33.0914 56.5951 31.4723 58.109 29.5882 59.2786C27.8404 60.3636 24.4491 62.202 22.2825 61.4759C22.2581 61.4677 22.2349 61.4672 22.2118 61.4666C22.2065 61.4665 22.2013 61.4664 22.196 61.4662C18.1726 60.1282 14.5153 57.9922 11.4122 55.2413C13.8494 56.4136 16.6482 56.9259 19.2715 56.8586C24.3484 56.7291 29.2334 55.0853 33.5218 52.3988C36.0811 50.7953 38.2252 48.6982 40.3713 46.5991C42.11 44.8985 43.8502 43.1965 45.8135 41.7546C50.4563 38.3454 56.8776 34.8826 62.5564 37.5178C62.3992 38.3933 62.2083 39.2567 61.9797 40.1052ZM5.45909 15.869C7.13962 16.695 9.98185 14.9963 11.4583 14.1139C11.526 14.0735 11.5908 14.0347 11.6525 13.998C12.4336 13.5336 13.1948 13.0365 13.9471 12.5242C19.9336 9.28412 26.9814 7.14442 33.6423 6.45651C40.4738 5.75139 47.7069 6.34161 53.7547 9.84627C55.592 11.6502 57.2092 13.6777 58.5544 15.89C51.2677 15.2249 44.9407 19.0477 40.2313 24.3698C38.9411 25.8279 37.8032 27.3927 36.6655 28.9573C35.7817 30.1726 34.8981 31.3878 33.9432 32.5528C32.8047 33.9417 31.3952 35.2337 29.5964 35.6502C27.3156 36.1791 24.9518 35.2341 24.2683 33.0906C23.8634 30.8764 24.8481 28.4976 26.9099 27.764C27.1962 27.7865 27.4792 27.8407 27.7539 27.9358C28.0492 28.245 28.3067 28.5709 28.4235 29.0298C28.6159 29.7836 28.3759 30.3869 27.712 30.6867C27.2872 30.6354 26.8953 31.1706 27.2816 31.5157C28.4766 32.5839 30.2593 32.2163 30.8622 30.6691C31.3417 29.4385 30.8031 28.2191 29.873 27.438C29.2529 26.231 27.9549 25.6973 26.4975 25.6022C26.4717 25.5745 26.4387 25.5517 26.389 25.5439C23.4831 25.0734 20.462 26.0087 18.3852 28.1252C16.6756 29.8678 15.4173 33.0068 16.3791 35.4279C14.3787 33.9196 11.5623 33.6573 9.33688 35.1027C6.91836 36.6739 6.02461 39.8282 6.37118 42.5731C6.55382 44.0137 7.09389 45.3446 7.95845 46.5093C8.70213 47.5116 9.47087 48.1437 10.3122 48.677C12.5882 51.0484 16.3032 51.9983 19.6551 52.0582C26.3642 52.178 31.8529 49.0663 37.455 45.7177C39.5485 44.4662 41.5478 43.0776 43.5458 41.6899C45.3601 40.4298 47.1735 39.1703 49.0554 38.0149C53.1578 35.4964 58.1603 33.7965 62.827 35.7068C62.7698 36.1869 62.7028 36.6645 62.6242 37.138C58.9885 34.8822 54.2012 36.4602 50.6412 38.1466C46.1558 40.271 42.6949 43.4957 39.1281 46.8192C38.8914 47.0398 38.6541 47.2608 38.4161 47.482C34.3463 51.2636 29.6163 54.2716 24.1299 55.4704C21.1743 56.116 17.9054 56.3619 14.9348 55.671C13.0957 55.2436 10.8748 54.2993 9.14601 53.0204C4.05595 47.4895 0.945029 40.1093 0.945029 32C0.945029 26.0925 2.59555 20.5706 5.45909 15.869ZM32 0.945029C35.1397 0.945029 38.1683 1.41549 41.0251 2.28192C38.8843 2.07233 36.6462 2.28304 34.6004 2.54428C31.3173 2.96346 28.0975 3.84075 25.0442 5.11626C21.714 6.50742 18.6738 8.44051 15.7253 10.5024C15.3248 10.7825 14.9267 11.0681 14.5283 11.3538C13.409 12.1568 12.2867 12.9618 11.1004 13.6548C11.0095 13.708 10.908 13.7683 10.7974 13.834C9.53067 14.5869 7.07585 16.0458 5.67654 15.5299C11.1678 6.7724 20.901 0.945029 32 0.945029ZM52.6338 8.79906C46.9109 5.6975 40.0075 5.31088 33.6423 5.94227C27.6308 6.53848 21.4026 8.38475 15.8769 11.1693C16.0893 11.0172 16.3016 10.8647 16.5138 10.7122C18.0164 9.63283 19.5199 8.55276 21.0972 7.5913C24.3933 5.58185 27.9654 4.13118 31.7399 3.31191C34.8126 2.64496 38.702 2.0203 42.0195 2.60678C45.9778 3.95602 49.5764 6.07775 52.6338 8.79906ZM10.3429 47.0842C9.14114 45.199 8.87654 41.5805 10.3594 39.7032C9.54984 41.21 9.40238 43.352 9.86498 44.8176C9.8646 44.8513 9.86984 44.8861 9.88519 44.9216C9.8942 44.9423 9.90455 44.9618 9.9149 44.9812C9.92347 44.9973 9.93203 45.0134 9.93983 45.0302C9.94304 45.0391 9.94619 45.0482 9.94935 45.0573C9.9543 45.0717 9.95928 45.0861 9.96453 45.0998C11.404 48.7283 15.3544 50.4724 19.0327 50.6341C23.6078 50.8355 27.8782 49.0195 31.4985 46.3412C33.7763 44.6562 35.9776 42.8669 38.1789 41.0775C40.098 39.5175 42.0171 37.9575 43.9871 36.4665C46.687 34.4234 49.5004 32.7107 52.7128 31.592C54.2694 31.0501 55.8709 30.6145 57.4952 30.33C58.9383 30.077 60.3342 30.1155 61.7543 30.1547C62.1661 30.166 62.58 30.1774 62.9977 30.1818C63.0325 30.784 63.0549 31.3896 63.0549 32C63.0549 32.9929 63.0033 33.9731 62.9123 34.9421C58.7291 33.2205 54.0542 34.4885 50.1898 36.5275C48.4379 37.4519 46.8257 38.604 45.215 39.7551C44.5412 40.2366 43.8676 40.7179 43.1843 41.1823C40.646 42.9069 38.0257 44.4819 35.3793 46.0332C31.0553 48.5685 26.7258 50.813 21.6462 51.1536C17.6696 51.4201 12.6799 50.7501 10.3429 47.0842ZM16.9896 43.008C17.4001 42.2598 17.4959 41.3133 17.201 40.3338C16.4985 37.9992 13.7503 36.8307 11.4994 37.6178C8.83911 38.5478 7.86376 42.0405 8.27845 44.5683C8.47195 45.7477 8.88776 46.7627 9.469 47.631C9.46157 47.6234 9.45375 47.6164 9.44593 47.6095C9.43643 47.6011 9.42693 47.5927 9.4181 47.5831C8.53707 46.6418 7.77731 45.4688 7.37534 44.2382C6.67883 42.1045 6.75481 39.5696 7.87312 37.5878C9.34325 34.9825 12.5855 34.0461 15.2155 35.59C17.3114 36.8202 19.3052 41.332 16.9896 43.008ZM20.3636 32.9944C20.1914 37.7016 24.308 40.4978 28.5623 40.9499C31.0523 41.2149 33.2908 40.7987 35.3722 39.9622C31.634 41.9249 27.3991 42.7531 23.6246 40.4169C20.3254 38.3749 17.6737 34.8111 18.9893 30.781C19.6222 28.843 21.1331 27.3078 23.0505 26.621C24.1561 26.2247 26.0652 26.0356 27.5451 26.505C23.9551 26.0978 20.4938 29.4325 20.3636 32.9944ZM29.0627 29.2207C29.0249 28.989 28.9437 28.7345 28.8281 28.486C29.0863 28.7207 29.2918 29.0276 29.4415 29.4112C29.3816 30.449 29.0455 30.9374 28.4426 30.8929C28.9213 30.507 29.1787 29.9262 29.0627 29.2207ZM17.7209 48.4046C19.7599 48.2212 21.6911 47.4247 23.4315 46.3764C24.1541 45.9413 24.8784 45.3786 25.6139 44.8071C26.7763 43.904 27.9668 42.9791 29.2229 42.5016C30.0119 42.4773 30.8098 42.3721 31.6096 42.167C35.6761 41.1254 39.8709 38.4827 42.737 35.2501C42.8789 35.1341 43.0207 35.0174 43.1622 34.9002C43.3739 34.725 43.5895 34.5457 43.8088 34.3634L43.8101 34.3624C48.9333 30.1037 56.0849 24.1589 62.7836 27.9512C62.8555 28.5054 62.9131 29.0646 62.9558 29.6283C62.5009 29.6502 62.0519 29.668 61.607 29.6857C59.2463 29.7796 57.0021 29.8689 54.6223 30.5321C52.0574 31.2473 49.5472 32.2017 47.241 33.5409C42.6632 36.1981 38.3554 39.7175 34.2547 43.0676L34.0779 43.212C29.815 46.6942 25.265 49.8852 19.5297 49.8522C17.1778 49.8388 14.784 49.2415 12.9302 47.7661C14.4195 48.3825 16.1654 48.5446 17.7209 48.4046ZM11.2573 45.9542C10.9414 45.4782 10.6831 44.9658 10.5035 44.4276C11.6181 45.8408 13.8199 46.4037 15.5247 46.4243C17.6994 46.4507 19.422 45.1826 21.1516 43.9093C22.3225 43.0474 23.4965 42.1831 24.8163 41.7164C25.9769 42.1839 27.2105 42.4496 28.4777 42.4979C27.6526 42.8066 26.8992 43.2919 26.1501 43.7744C25.8959 43.9382 25.6422 44.1016 25.3863 44.2577C23.6149 45.3382 21.7611 46.4576 19.7696 47.0785C17.2957 47.8499 13.3693 47.8742 11.2573 45.9542ZM16.0187 42.5229C15.5352 43.3576 12.9905 43.8243 13.1477 42.6704C13.7057 42.8736 14.2237 42.9691 14.8196 42.6038C15.3982 42.2486 15.765 41.5854 15.8353 40.9188C15.8731 40.5565 15.8207 40.1905 15.6998 39.8451C16.3155 40.5951 16.5711 41.5693 16.0187 42.5229ZM10.2243 42.7891C10.2145 41.3612 10.9354 39.2002 12.3846 38.5467C12.657 38.5089 12.9482 38.4966 13.2626 38.5205C13.6268 38.5482 14.0029 38.6571 14.3633 38.8237C14.8312 39.2294 15.1583 39.8368 15.2492 40.4143C15.3289 40.9196 15.1901 41.4308 14.8521 41.8186C14.4393 42.292 13.5643 42.5682 13.2124 41.8388C13.0713 41.5469 12.7891 41.5712 12.59 41.7201C12.4392 41.737 12.3015 41.816 12.2277 41.9821C11.4496 43.7288 12.8247 44.6694 14.519 44.5275C15.1047 44.4781 15.6104 44.3018 16.0288 44.035C18.191 43.6334 18.929 41.4394 18.6944 39.4169C19.8767 40.2669 21.3887 40.5786 22.8416 40.6827C23.284 40.9705 23.7421 41.2287 24.2148 41.4522C23.0227 41.9614 22.0237 42.7062 21.0213 43.4534C20.1496 44.1031 19.2754 44.7548 18.2696 45.2551C16.0494 46.3596 11.2767 46.0197 10.3654 43.2165C10.3418 43.1424 10.2924 43.0989 10.2359 43.0772C10.2295 42.9818 10.225 42.8856 10.2243 42.7891ZM23.8147 34.6648C25.5933 38.5995 29.9247 39.0714 33.4507 37.2147C36.2615 35.7346 38.241 33.2779 40.2254 30.8152C41.7942 28.8682 43.3661 26.9173 45.3543 25.4424C49.4286 22.4195 56.9368 19.6828 61.638 22.7039C62.0845 24.1295 62.4292 25.6 62.6676 27.1061C59.2138 25.4679 55.232 26.4694 51.8916 28.0982C48.6855 29.6619 45.8427 31.7567 42.9956 33.8547C41.6764 34.8268 40.3561 35.7997 38.9984 36.7207C34.7726 39.5868 27.4493 41.7587 23.2567 37.5399C21.3348 35.6057 20.6716 32.3806 22.2858 30.0549C23.0037 29.0204 24.0835 28.236 25.2976 27.9197C23.3817 29.3157 22.7065 32.213 23.8147 34.6648ZM58.9496 16.576C59.8841 18.2056 60.6761 19.9265 61.3067 21.7244C58.502 20.1967 54.3558 20.7046 51.487 21.5036C47.6669 22.568 44.3737 24.7792 41.7242 27.7023C40.935 28.5733 40.1831 29.5368 39.4225 30.5115C37.1612 33.4092 34.8225 36.4062 31.1934 37.3685C28.9111 37.9733 26.691 37.2476 25.3575 35.5189C26.3781 36.2775 27.7685 36.6159 29.1963 36.4493C32.5154 36.0616 34.6247 33.198 36.2872 30.5864C38.6668 26.8493 41.2908 23.3473 44.8318 20.6233C48.9641 17.4447 53.5848 16.2272 58.7561 16.6228C58.8366 16.6291 58.8976 16.6074 58.9496 16.576ZM23.6448 25.8957C22.5576 26.1734 21.571 26.612 20.9082 27.1135C17.652 29.5777 17.1898 34.2898 19.5294 37.5197C20.2173 38.4696 21.0152 39.3027 21.8951 40.0045C20.6982 39.7305 19.5249 39.4569 18.5806 38.5396C18.5665 38.5258 18.5515 38.5179 18.5363 38.5099C18.5305 38.5068 18.5246 38.5037 18.5188 38.5003C18.3931 38.0392 18.2187 37.6036 17.9945 37.2252C17.6936 36.7188 17.3257 36.273 16.9132 35.883C15.5284 30.9584 18.9721 26.4908 23.6448 25.8957Z" fill="currentColor"/>
</svg>
