<svg width="65" height="65" viewBox="0 0 65 65" fill="none" xmlns="http://www.w3.org/2000/svg">
<path d="M30.62 63.2843C33.3248 61.3815 34.2216 57.4087 31.9052 54.7454C31.2368 53.9766 31.6051 53.7592 31.4101 52.6828C31.3427 52.3096 31.2488 51.9429 31.1253 51.588C32.1111 51.1752 33.134 50.9746 34.1033 50.4559C35.5738 49.6692 36.941 48.4427 37.8647 47.0571C39.4131 44.7348 39.8158 41.8166 38.9168 39.1631C38.8292 38.9041 38.7259 38.6451 38.6125 38.388C38.6698 38.349 38.7241 38.2985 38.7705 38.2255C39.1679 37.605 39.0538 36.5989 38.8053 35.7714C39.2102 32.988 41.6201 30.8513 44.2483 30.2132C45.9149 29.8086 48.0314 30.154 49.2668 31.4479C50.0899 32.3098 50.3814 33.5494 51.1142 34.4768C51.1412 34.5113 51.1756 34.5337 51.2093 34.5573C51.2198 34.5674 51.231 34.576 51.2422 34.585C51.2422 34.585 51.2452 34.588 51.2475 34.5891C51.4615 34.7665 51.7464 34.7864 52.1614 34.713C52.9425 34.5753 53.5945 33.988 54.3655 33.7938C55.6818 33.4626 57.5154 33.9319 58.1464 35.2707C58.5693 36.1685 57.9892 37.3374 58.4188 38.2034C58.6591 38.6874 59.1026 38.9299 59.4099 39.3783C59.9507 40.1661 60.0054 40.8581 59.8126 41.7927C59.7524 42.0854 58.8908 43.8354 58.1696 44.0495C57.4678 43.7651 57.7916 42.134 57.5251 41.4412C57.3174 40.9015 56.9944 40.497 56.5965 40.1938C54.4684 37.9456 50.4398 38.3183 47.891 39.5343C44.6899 41.0617 42.0405 43.0854 40.0542 46.0635C38.026 49.1055 36.9335 52.6805 37.2779 56.3603C37.4474 58.1722 37.9602 61.1458 39.5811 62.5073C37.2872 63.0474 34.899 63.3416 32.4404 63.3416C31.8289 63.3416 31.223 63.3191 30.62 63.2843ZM10.094 53.8396C10.0906 53.8172 10.0887 53.7951 10.0824 53.7715C9.25486 50.6599 10.1995 46.8127 12.2943 44.3321C13.4515 42.9619 15.22 41.8634 16.9532 41.4012C17.8432 41.1639 19.4582 40.8963 20.4294 41.3454C20.4328 41.3705 20.4358 41.3956 20.4395 41.4203C17.7904 40.5067 14.7764 42.6891 13.4598 44.9399C11.844 47.7024 10.771 52.4219 12.1012 55.7432C11.4039 55.138 10.7343 54.5036 10.094 53.8396ZM2.38328 24.4558C3.40166 23.656 5.09972 23.5501 6.17537 24.0871C7.02084 24.5093 7.31427 25.119 8.25107 25.0247C8.67249 24.982 8.94908 24.7069 9.41392 24.9191C9.79942 25.095 10.4742 26.1198 10.1093 26.6258C10.1018 26.6359 10.0899 26.6445 10.0812 26.6539C10.07 26.649 10.0629 26.6411 10.0509 26.637C6.36737 25.4525 3.23287 29.2876 2.7437 32.5875C2.18753 36.3328 4.44288 41.5318 7.75217 43.4829C7.77462 43.496 7.79708 43.5053 7.81916 43.5136C6.78693 44.9298 5.98 46.6529 5.90066 48.4199C3.03638 43.7179 1.38585 38.1952 1.38585 32.2866C1.38585 29.5814 1.73317 26.9574 2.38328 24.4558ZM23.0107 2.69392C22.3966 3.25682 21.8733 3.95071 21.416 4.81977C20.7348 6.11436 20.4257 7.2076 19.1449 8.03885C18.0124 8.77392 17.0535 9.8084 16.4427 11.0184C15.6781 10.1748 14.5182 9.81813 13.349 10.3724C11.9604 11.0315 11.7658 12.3725 11.4529 13.6578C9.85593 13.4122 8.21439 13.8082 6.87825 14.6578C10.7437 9.0636 16.3944 4.80068 23.0107 2.69392ZM33.954 1.2702C33.9671 1.27245 33.9776 1.27918 33.9918 1.28031C35.8276 1.39521 37.7315 2.11156 38.69 3.78791C39.1956 4.67305 39.1264 5.6993 39.9726 6.23862C40.848 6.79628 41.5906 6.68288 42.3163 7.5785C42.7673 8.13542 43.1468 8.92063 43.298 9.61565C43.6098 11.0461 43.3107 12.4822 42.5012 13.6929C42.0143 14.4209 41.4364 14.8251 41.3181 13.6327C41.2758 13.2034 41.5176 12.8134 41.4132 12.3598C41.4109 12.3493 41.4061 12.3403 41.4038 12.3299C41.3567 10.9383 41.2152 9.61453 40.1459 8.55609C38.8026 7.22669 36.7311 6.54852 34.8788 6.47366C33.1594 6.40442 31.4494 6.72068 29.9864 7.64812C29.2273 8.12905 28.4796 8.71703 27.8923 9.39371C27.5862 9.74664 27.3414 10.2332 27.0416 10.6273C25.9166 11.2377 25.0393 12.3815 24.461 13.5178C24.0965 14.2334 23.8865 14.76 23.2252 15.2462C22.815 15.5478 22.3737 15.7409 21.9826 16.0815C21.1473 16.808 20.5192 17.7392 20.1801 18.7938C19.6367 20.4852 19.621 22.4426 20.6079 23.9165C20.1944 23.7971 19.7703 23.6073 19.3773 23.5965C18.317 23.5677 17.2934 24.0883 16.4756 24.7563C15.7058 23.9105 15.656 22.4194 15.8873 21.2659C15.9258 21.1866 15.9483 21.0971 15.9475 20.9975C15.9674 20.9186 15.988 20.8418 16.01 20.7677C16.2361 20.0065 16.6332 19.2984 17.1583 18.7051C17.4188 18.4113 17.9027 18.1344 18.0794 17.7874C18.5015 16.9569 17.7758 16.2148 17.5284 15.4572C17.0142 13.8812 17.2826 12.2688 18.2339 10.9215C19.0734 9.73242 20.2576 9.45509 21.2693 8.56395C21.9998 7.92096 22.1671 6.79067 22.5856 5.94557C23.4722 4.15544 24.4539 3.05434 25.8982 1.92816C28.008 1.47567 30.1956 1.23202 32.4404 1.23202C32.9483 1.23202 33.4521 1.24625 33.954 1.2702ZM56.3622 12.4848C55.3139 11.7011 54.0814 11.2157 52.8003 11.2119C52.5024 11.2112 51.7621 11.4619 51.4934 11.3859C51.4765 11.3811 50.6516 10.4364 50.7463 10.5311C50.0633 9.84845 49.3406 9.58983 48.3634 9.46519C46.9232 9.28105 45.5762 9.73804 44.505 10.6213C44.471 9.30538 44.023 8.01977 43.213 6.97294C42.8676 6.52643 42.4765 6.175 42 5.8767C41.6426 5.65326 40.3218 5.31343 40.3312 5.32091C40.2619 5.2644 39.6728 3.48438 39.3547 3.03937C39.031 2.58613 38.6586 2.22983 38.2207 1.89373C38.1451 1.83609 38.0665 1.78856 37.9897 1.73617C45.337 3.0622 51.7879 6.9647 56.3622 12.4848ZM55.1485 32.3461C55.086 32.0579 55.129 31.5033 55.1395 31.2978C55.1807 30.4976 55.4479 29.9044 55.9696 29.3142C56.3899 28.8392 56.9622 28.3703 57.5659 28.1723C56.4423 29.0204 56.205 31.0018 56.4708 32.4019C56.0512 32.3166 55.6152 32.2979 55.1485 32.3461ZM53.6495 32.7537C53.4867 32.3158 53.3015 31.8895 53.2899 31.3884C53.2693 30.4939 53.5279 29.6293 53.9804 28.8643C54.4591 28.0548 55.0096 27.5413 55.8959 27.2404C56.7414 26.9537 58.0142 27.0487 58.8084 27.6543C58.4308 27.5319 58.018 27.5031 57.5988 27.548C56.7866 27.6345 56.1975 28.2011 55.6361 28.7584C54.9864 29.4025 54.6395 30.0451 54.5111 30.9486C54.4576 31.324 54.3741 31.967 54.4965 32.461C54.2906 32.5213 53.9852 32.6276 53.6495 32.7537ZM52.0076 33.4644C51.8579 32.802 51.6049 32.1874 51.2666 31.6335C51.0865 30.068 50.7175 28.5151 50.6711 26.9076C50.6269 25.384 50.8096 23.8629 51.3021 22.4149C51.6861 21.2846 53.5197 18.1411 55.1309 19.2856C55.1238 19.3946 55.1137 19.5057 55.0916 19.6255C54.8303 21.0121 54.9187 22.3872 56.7986 22.4542C57.2953 22.4722 57.7006 22.3094 58.0348 22.0406C58.0446 22.0451 58.0509 22.053 58.0618 22.0567C59.3347 22.5103 60.1858 24.1987 59.6487 25.5217C59.5839 25.68 59.6902 25.9027 59.8351 25.9798C60.6199 26.3982 61.1574 26.8455 61.3815 27.6738C61.4826 28.0462 61.1903 29.8838 60.5088 29.5833C60.4204 29.5444 60.2808 28.8617 60.2165 28.743C60.1173 28.5597 59.9979 28.398 59.8631 28.2599C59.0783 26.3563 56.0067 26.4181 54.5594 27.5293C53.1521 28.6102 52.0151 31.2858 52.8093 33.0879C52.4725 33.2298 52.1798 33.3653 52.0076 33.4644ZM49.6385 29.8595C49.2339 27.5735 48.9554 25.2743 49.5116 22.9767C50.0992 20.5469 51.9099 16.7694 54.8236 18.1247C54.9003 18.225 54.9655 18.3357 55.0156 18.46C53.029 17.7523 50.9978 21.2468 50.5131 22.8053C49.9072 24.7552 49.8058 26.8017 49.9667 28.8288C49.9955 29.1895 50.0277 29.7053 50.1015 30.2364C49.9532 30.1039 49.7983 29.9785 49.6385 29.8595ZM48.0078 28.971C46.9052 26.4409 47.0377 23.8083 48.2956 21.2651C48.9438 19.9545 49.9177 18.5292 51.2606 17.8612C51.536 17.7242 51.8332 17.6205 52.1352 17.5464C50.9567 18.1595 49.9881 19.4608 49.3196 20.8441C48.0452 23.4819 47.8266 26.4899 48.6497 29.2547C48.4408 29.1499 48.2275 29.0537 48.0078 28.971ZM44.8063 28.5795C44.3968 28.6281 44.0035 28.709 43.6214 28.8078C42.9787 28.5005 42.4832 27.9058 42.061 27.2613C41.8088 26.8758 41.4476 26.4016 41.5052 25.9061C41.5936 25.1471 42.3122 25.046 42.9634 25.1501C43.0165 25.1583 43.0659 25.1564 43.1131 25.1497C43.8422 25.2298 44.4537 24.8903 44.4388 23.7926C44.4167 22.1945 42.478 21.1866 41.0576 21.2524C40.1062 21.2962 39.1346 21.776 38.3891 22.3367C38.2289 22.4572 37.9721 22.818 37.7775 22.8618C37.5283 22.9175 36.7719 22.4841 36.4474 22.443C34.3833 22.1795 32.7133 23.8128 32.0377 25.6445C31.9981 25.7534 31.9977 25.8499 32.0246 25.9315C31.5662 26.0311 31.0819 26.1946 30.6926 26.0651C30.2918 25.1037 29.7356 24.4378 29.0469 23.9838C28.5499 22.4475 28.0802 20.7427 28.6371 19.2044C29.1892 17.6808 31.8472 16.3124 32.0067 19.1423C32.0291 19.5345 31.7196 19.959 31.7664 20.3916C31.9378 21.959 33.8428 21.7536 34.8376 21.0327C35.6988 20.4088 36.2602 19.2351 36.4028 18.2025C36.5529 17.116 36.1435 16.6298 35.8557 15.6826C35.5285 14.6039 35.8141 13.4227 35.356 12.4975C36.0095 11.9915 36.3482 11.4032 37.4062 11.2864C38.2233 11.1962 39.1021 11.2748 39.8251 11.7467C40.7309 12.3377 40.5887 12.6072 40.5142 13.6297C40.4659 14.2865 40.3057 15.1384 41.1699 15.4359C42.7257 15.9707 43.8519 13.7128 44.2977 12.0319C44.3175 12.0166 44.337 12.0005 44.3561 11.9799C45.148 11.1247 46.3969 10.536 47.5785 10.5487C48.3892 10.5573 49.2747 10.8668 49.8455 11.4324C50.0449 11.63 50.292 12.2498 50.5599 12.4578C51.033 12.8254 51.292 12.7565 51.8557 12.7004C53.2869 12.557 54.8371 12.6072 55.9767 13.6491C57.4562 15.0025 59.7902 19.2059 57.1246 20.4575C55.8865 21.0387 56.3637 20.1124 56.2121 19.2767C56.0931 18.6209 55.9393 18.1277 55.495 17.6224C53.1042 14.9048 49.4772 17.573 48.0179 19.844C46.3782 22.3966 45.678 25.8155 46.8528 28.651C46.1907 28.5278 45.5021 28.4971 44.8063 28.5795ZM41.3993 29.7483C40.8192 29.1727 40.3809 27.7991 40.4652 26.7231C40.4805 26.7744 40.4936 26.8275 40.5112 26.8762C40.7938 27.6618 41.6123 28.5866 42.5629 29.1574C42.1535 29.325 41.7646 29.5219 41.3993 29.7483ZM39.8555 31.0197C39.2372 30.2981 38.839 29.5193 38.8539 28.4197C38.864 27.6782 39.211 26.7512 39.7649 26.0689C39.47 27.0719 39.6522 28.3553 40.0142 29.1839C40.1407 29.4751 40.4056 29.8733 40.729 30.2203C40.4165 30.4647 40.1242 30.7304 39.8555 31.0197ZM38.0661 34.253C37.6507 33.6707 37.1536 33.1343 36.8602 32.4839C36.4466 31.5673 36.8984 30.7716 36.8344 29.8348C36.7277 28.292 35.6659 27.3313 34.4316 26.5693C33.9532 26.274 33.4903 26.0053 32.9532 25.9076C32.9547 25.9046 32.9569 25.9016 32.9581 25.8982C33.8679 23.5452 35.6404 23.1462 37.6952 23.9371C37.8464 23.9951 38.0747 23.9318 38.1784 23.8091C39.2031 22.6035 40.2885 21.5477 41.9967 22.1795C42.3152 22.297 44.142 23.5284 43.3103 24.2477C43.2987 24.2578 43.237 24.26 43.1472 24.2593C42.381 24.1029 41.4921 24.0426 40.8593 24.5875C40.8237 24.6182 40.7971 24.656 40.7653 24.6893C39.3292 25.0254 38.3037 26.5633 38.0855 27.9769C37.8703 29.3737 38.3513 30.739 39.2795 31.7252C38.7398 32.4696 38.3288 33.3192 38.0661 34.253ZM26.3657 23.1331C26.0034 21.7304 26.213 20.0971 27.0409 18.9282C27.4193 18.3938 27.9556 17.8735 28.5668 17.5311C27.3418 18.9791 27.8579 21.7487 28.4586 23.6601C27.8384 23.3768 27.1363 23.2158 26.3657 23.1331ZM24.5684 23.0601C24.0505 20.816 24.7357 18.6355 26.823 17.3233C27.4174 16.9502 28.4215 16.6074 29.4066 16.5265C28.4028 16.7997 27.5132 17.5981 26.8676 18.3994C25.698 19.85 25.5977 21.4175 25.8514 23.0886C25.6624 23.0762 25.4716 23.0661 25.2758 23.0605C25.0337 23.0538 24.7994 23.0538 24.5684 23.0601ZM30.4853 11.6898C30.9703 12.0226 31.2244 12.3497 31.7855 12.5252C31.9726 12.584 32.1938 12.3808 32.3746 12.3736C33.7541 12.3194 34.4331 12.2748 34.8114 13.6263C35.0255 14.3917 34.6614 15.0882 34.7598 15.8109C34.8721 15.9633 34.9847 16.1156 35.097 16.2679C35.5293 16.9539 35.6569 17.7032 35.4803 18.5161C35.3197 19.2235 34.2351 21.2225 33.2253 20.6701C32.3304 20.1809 33.2466 18.9525 33.1179 18.2044C33.0614 17.8784 32.9158 17.6037 32.7137 17.3769C31.8869 15.2944 28.7674 15.4748 27.0682 16.36C24.6706 17.6082 23.0523 20.4878 23.8989 23.1062C23.2903 23.1743 22.7008 23.3199 22.0915 23.604C21.9366 23.6762 21.7244 23.8409 21.5387 23.9329C19.7134 21.864 20.6038 18.3017 22.4931 16.592C23.1361 16.01 24.0018 15.7507 24.5606 15.0819C25.0894 14.449 25.2732 13.5473 25.774 12.8718C26.9327 11.3077 28.6877 10.4566 30.4853 11.6898ZM37.5328 8.52578C35.0775 8.00517 32.4506 9.17888 30.5912 10.7332C30.2046 10.5124 29.806 10.3021 29.3482 10.2253C28.9549 10.1598 28.5795 10.1651 28.2213 10.2223C28.3695 10.0154 28.5275 9.81252 28.7161 9.628C29.8801 8.48985 31.2682 7.6324 32.8881 7.37864C34.6273 7.10618 36.3924 7.30117 37.9882 8.07478C38.7693 8.45317 39.3427 8.94983 39.76 9.53668C39.1107 9.03628 38.3127 8.69121 37.5328 8.52578ZM34.6995 11.743C34.5738 11.6528 34.4368 11.566 34.2744 11.4874C33.5348 11.1307 33.064 11.3766 32.3375 11.3848C31.967 11.3889 31.6354 11.2804 31.3154 11.1284C32.9491 9.84882 35.2699 8.81546 37.3449 9.20807C38.4419 9.41579 39.3951 9.8346 40.0007 10.7665C39.8921 10.7096 39.7817 10.6557 39.6691 10.6063C37.8251 9.79156 35.7213 10.012 34.6995 11.743ZM33.3855 34.1984C32.9581 34.1849 32.7455 34.2702 32.2993 34.3062C31.1893 34.396 31.1616 34.4952 30.428 33.5745C30.1121 33.1778 29.7861 32.7971 29.392 32.4794C28.7517 31.9636 27.9997 31.7308 27.2572 31.7945C26.8908 31.7589 26.5292 31.7653 26.1602 31.8701C25.4409 32.074 25.3353 32.5011 24.8447 32.9461C22.0556 29.8213 15.1387 31.138 14.507 35.5476C14.3086 35.9013 14.2424 36.319 14.3902 36.7939C14.5721 37.3789 15.3341 37.6622 15.4112 38.2079C15.4917 38.7806 14.7525 39.126 14.1978 39.1773C11.5488 39.4239 11.3152 36.5394 11.5944 34.8739C11.7213 34.1175 11.6528 33.6508 11.3152 32.951C10.8567 32.0026 10.8702 31.5508 11.5233 30.617C12.017 29.9104 12.5641 29.5537 13.3385 29.2622C14.0721 28.9859 15.1649 28.9493 15.7361 28.3781C16.2436 27.8706 16.1676 26.987 16.6347 26.3994C17.2549 25.619 17.9076 25.3503 18.8448 25.1841C19.8373 25.0082 20.0525 25.3458 20.962 25.3922C21.593 25.424 21.7962 25.2433 22.3105 24.9858C24.4865 23.8963 27.8863 24.0171 29.3647 26.1097C29.4658 26.3485 29.5881 26.5626 29.7364 26.7463C29.7824 26.8388 29.8471 26.9046 29.9235 26.9473C30.2439 27.2497 30.6559 27.4353 31.1855 27.4522C31.7368 27.4698 32.2975 27.1951 32.8555 27.332C33.8922 27.5873 35.0016 28.6484 35.3272 29.5728C35.764 30.812 35.2471 31.9258 35.9387 33.1197C36.7588 34.536 37.8142 35.4945 37.8988 37.0702C36.8725 35.5012 35.3347 34.2598 33.3855 34.1984ZM30.4317 50.2295C30.3629 50.134 30.291 50.0416 30.2162 49.9514C31.1552 49.1489 32.1627 48.6134 32.9008 47.5325C33.4072 46.7899 33.8586 45.9987 34.155 45.1454C34.6947 43.591 34.6082 41.8234 33.7343 40.3989C31.6167 36.9463 26.5457 36.5716 24.2499 39.909C24.2144 39.9606 24.1946 40.0115 24.1871 40.0602C23.9924 40.3705 23.9333 40.7185 23.9951 41.0513C23.9711 41.2571 23.9973 41.4674 24.1006 41.6695C24.3488 42.1539 25.3709 42.3009 25.3043 42.8384C25.1467 44.1113 22.6937 42.8807 22.2914 42.4521C21.7929 41.9218 21.5215 41.3563 21.5829 40.5875C21.6099 40.2522 21.7094 39.9651 21.8041 39.6833C22.2966 39.4483 22.4359 38.9404 22.2648 38.3962C21.9995 37.553 20.9481 36.9657 21.8179 36.0986C22.5171 35.402 23.7507 34.9888 24.6474 34.6202C25.0819 34.4413 25.3784 34.329 25.6841 33.9828C25.9682 33.6613 26.131 33.2695 26.3664 32.9745C27.9896 32.2178 28.9755 34.3028 29.87 35.2186C30.6279 35.9953 31.2458 35.8714 32.2604 35.7108C35.1868 35.2475 37.4328 37.5301 38.1615 40.2484C38.8569 42.8395 38.1582 45.7094 36.3504 47.6706C34.7171 49.4424 32.8735 50.0135 30.8288 50.8867C30.7132 50.6595 30.583 50.439 30.4317 50.2295ZM26.4941 55.3828C27.5937 55.9763 28.1457 57.4813 27.9694 58.7733C27.8283 59.8047 27.359 60.5896 26.6131 61.3254C26.1677 61.7644 25.5318 61.8569 25.1403 62.306C25.0992 62.3535 25.0715 62.4022 25.0535 62.4501C24.5516 62.3277 24.0546 62.1933 23.5632 62.047C25.9884 61.1177 28.1749 57.6175 26.4941 55.3828ZM22.7476 60.42C23.6223 60.0162 24.6156 59.2359 25.1793 58.4473C25.5936 57.8675 26.0303 56.5276 25.8971 55.5834C27.0873 56.5726 26.1935 58.4132 25.4899 59.3975C24.6373 60.5903 23.8772 61.1431 22.5148 61.4519C22.4011 61.4774 22.3217 61.5447 22.2742 61.6304C21.8041 61.4676 21.34 61.294 20.8808 61.1094C21.5537 60.9672 22.2603 60.6454 22.7476 60.42ZM20.5829 50.1902C21.2906 50.5098 21.7371 51.231 21.9355 51.9967C21.1989 52.7483 20.6192 53.8011 20.5956 54.8356C20.3418 55.839 19.9122 56.6351 19.1045 57.3357C18.3818 57.963 17.6531 58.5435 16.6953 58.7605C16.5883 58.7849 16.5254 58.8537 16.4936 58.9357C16.2245 58.774 15.961 58.6045 15.6971 58.4349C18.7033 58.2687 22.5182 52.7341 20.5829 50.1902ZM29.7214 49.4349C29.6731 49.3911 29.6226 49.3518 29.5732 49.3106C31.5909 47.8147 33.1018 45.2184 32.6826 42.7313C32.1938 39.836 29.8576 38.3539 27.2329 38.6129C29.6974 37.8992 32.6852 39.3932 33.5442 42.0622C34.0607 43.6663 33.5595 45.2689 32.6886 46.6484C31.909 47.8835 30.7802 48.5445 29.7214 49.4349ZM31.1814 43.7385C31.1762 42.597 30.5395 41.366 29.6559 40.5378C29.4568 40.2518 29.1989 39.9924 28.8785 39.7724C28.5335 39.5351 28.1461 39.3461 27.7408 39.214C30.2802 39.3865 32.2522 41.4753 31.9419 44.2857C31.7451 46.0713 30.5481 47.8543 29.0473 48.9367C28.7992 48.7874 28.5406 48.6661 28.2748 48.5845C29.6331 47.3105 31.1896 45.7296 31.1814 43.7385ZM29.6944 43.7336C30.0204 43.164 30.1675 42.5622 30.1428 41.9858C30.5904 42.8698 30.7637 43.8972 30.4984 44.7397C30.3183 45.3104 29.9501 45.9284 29.6293 46.4295C29.09 47.272 28.3153 47.662 27.5922 48.2713C27.5439 47.6709 27.3152 47.1313 26.9492 46.7072C28.078 46.2027 29.2535 44.5035 29.6944 43.7336ZM22.4336 51.5192C22.3034 50.5614 21.8221 49.6707 20.9088 49.2047C20.313 48.9004 19.7999 48.9075 19.1689 48.948C18.8346 48.9693 18.5049 49.1373 18.3444 48.8937C17.9675 48.3218 19.4024 47.184 19.6419 47.0493C20.3871 46.6297 21.215 46.5631 22.0234 46.8146C22.5066 46.9647 22.916 47.3652 23.4464 47.409C24.0288 47.4569 24.4996 47.0182 25.061 47.022C25.9667 47.0276 26.5745 47.7533 26.6382 48.5958C26.3223 48.7058 26.0113 48.8836 25.7126 49.1422C25.3529 49.4528 24.6107 50.564 24.6392 50.5457C24.3836 50.71 23.7256 50.7037 23.4217 50.8403C23.0497 51.0068 22.7319 51.2508 22.4336 51.5192ZM6.42388 28.1663C4.40059 30.2906 4.34145 33.4738 5.32241 36.1191C5.78426 37.364 6.44222 38.4078 7.38127 39.3397C8.26866 40.2207 9.18412 40.6006 10.2388 41.0711C9.52845 41.582 8.87385 42.2018 8.27277 42.9327C8.24246 42.8882 8.20017 42.8481 8.14178 42.8163C5.2921 41.2556 3.31708 37.0544 3.31483 33.8679C3.31296 31.1043 5.42983 27.3755 8.40564 27.1337C7.64924 27.2714 7.11516 27.4402 6.42388 28.1663ZM10.9488 40.607C9.32372 39.8289 7.89514 39.1631 6.8513 37.5357C5.53537 35.4833 4.96948 32.4034 5.9961 30.1349C6.25022 29.5735 6.56162 29.1222 6.94562 28.7808C4.37626 32.2024 7.25663 38.8592 11.0637 40.5407C11.0255 40.5628 10.987 40.5845 10.9488 40.607ZM23.4093 33.6183C23.3453 33.649 23.2836 33.683 23.2203 33.7152C22.2708 32.9087 20.7513 32.7193 19.5858 32.8087C17.9484 32.9349 16.8458 33.4573 15.8046 34.4963C15.6878 34.5457 15.5725 34.6011 15.4614 34.6625C16.7956 31.476 22.0504 31.2244 24.4427 33.2178C24.1148 33.3757 23.7263 33.4678 23.4093 33.6183ZM20.5877 35.5794C19.5746 34.6078 18.4128 34.0625 16.8926 34.2145C17.6134 33.7167 18.4237 33.4008 19.4256 33.3099C20.395 33.2219 21.9336 33.2526 22.8483 33.9106C22.4085 34.155 21.9849 34.4278 21.5676 34.7134C21.1772 34.9806 20.8351 35.2591 20.5877 35.5794ZM13.2427 23.8869C14.3026 24.0501 14.8165 24.5726 15.5901 25.1912C15.6358 25.2279 15.6826 25.2474 15.729 25.259C15.763 25.296 15.7975 25.3323 15.8334 25.3679C15.6687 25.5539 15.5111 25.7553 15.385 25.9469C15.1271 26.3399 15.1021 27.1198 14.8375 27.4133C14.2008 28.1195 12.6877 28.0757 11.8766 28.6326C11.0319 29.212 10.1804 30.1911 9.86641 31.1833C9.43675 32.5396 10.5161 33.4674 10.4454 34.841C10.3975 35.764 10.1082 36.4713 10.3904 37.4119C10.7025 38.4497 11.4638 39.3854 12.4275 39.9022C12.1734 39.9973 11.9234 40.0999 11.6805 40.2155C10.0259 39.1953 8.53738 37.6143 7.63502 35.9189C6.40817 33.6145 6.19895 29.7117 8.61149 28.0888C8.65977 28.0843 8.70318 28.0746 8.75259 28.072C9.35815 28.0387 9.76199 28.148 10.3492 27.8789C11.2104 27.4848 11.7857 26.6 11.4473 25.6194C11.2654 25.0917 10.8799 24.589 10.4121 24.2473C11.2617 23.7589 12.2715 23.7372 13.2427 23.8869ZM8.92812 23.7933C8.56583 22.3311 10.8541 21.4646 11.932 21.3999C13.1495 21.3269 13.8367 21.9261 14.7544 22.4475C14.7615 22.9179 14.8247 23.3768 14.946 23.8072C13.3726 22.8086 11.1876 22.7379 9.67628 23.8805C9.43076 23.8154 9.17776 23.8098 8.92812 23.7933ZM7.74318 23.4108C7.32662 21.9669 8.12718 20.5982 9.61565 19.9855C10.847 19.4788 14.1769 19.4604 14.6466 21.172C14.6806 21.2951 14.7394 21.389 14.8113 21.4616C14.8026 21.529 14.7993 21.596 14.7925 21.663C14.4624 21.425 14.053 21.2487 13.7521 21.1169C12.8033 20.7019 11.7336 20.5713 10.7033 20.7883C9.42477 21.0578 7.90636 22.1971 7.9902 23.6107C7.93256 23.5665 7.85022 23.4995 7.74318 23.4108ZM4.57799 18.5697C4.58435 18.5584 4.59296 18.5502 4.5982 18.5367C4.60419 18.5206 4.61205 18.5064 4.61841 18.4903C4.80517 18.1146 4.99567 17.7407 5.19703 17.3739C6.60353 15.2312 9.11488 14.5515 11.7741 15.1728C12.2516 15.2847 12.6323 14.9565 12.6719 14.489C12.7299 13.8045 12.6532 13.2011 13.023 12.5555C13.7959 11.2067 15.1885 10.9832 15.9131 12.4908C15.9139 12.493 15.9153 12.4938 15.9161 12.4957C15.7469 13.2869 15.7342 14.1061 15.8708 14.9183C15.9767 15.5482 16.2758 16.0336 16.4577 16.6347C16.7313 17.5371 16.4966 17.5576 15.9764 18.3017C15.7073 18.6864 15.4711 19.1457 15.2776 19.6442C13.8516 18.1015 10.7265 18.1041 9.06211 19.0667C8.17958 19.5776 6.82585 21.4201 6.84681 22.8105C5.47025 22.1155 3.83769 22.2442 2.72236 23.2619C3.2149 21.6372 3.83769 20.0697 4.57799 18.5697ZM12.103 43.3882C10.0367 45.3726 8.48236 49.3218 8.82407 52.441C8.09462 51.5877 7.40746 50.6977 6.77308 49.768C6.78318 49.7444 6.79666 49.7242 6.80077 49.6972C7.15109 47.6283 7.24802 46.0335 8.49958 44.2445C9.83759 42.3331 11.5663 40.9442 13.7072 40.305C14.8416 40.4221 16.1646 39.885 16.4973 38.7353C16.7144 37.9856 16.4214 37.709 16.1717 37.0986C15.4202 35.2587 16.9925 34.7007 18.6385 35.1936C19.3594 35.4091 19.7718 35.877 20.2067 36.4219C20.1633 36.6787 20.1715 36.962 20.2464 37.2812C20.3261 37.6222 20.502 37.9287 20.6723 38.2199C20.8804 38.5755 20.9249 38.7925 20.9916 39.0433C20.8407 39.501 20.5103 39.9984 20.4403 40.433C20.4317 40.4857 20.4298 40.5404 20.4242 40.5943C17.8402 39.4557 13.8041 41.7549 12.103 43.3882ZM13.258 56.6994C12.8782 55.1144 12.3134 53.7397 12.3332 52.0237C12.3523 50.3155 12.6566 48.6268 13.3277 47.0523C14.1469 45.1304 15.3255 43.17 17.4128 42.4563C18.3503 42.1359 19.7699 41.997 20.7775 42.4361C21.0062 42.8466 21.3258 43.21 21.6847 43.5042C22.6301 44.2793 24.2185 44.5073 25.2118 43.685C25.8642 43.1445 26.0064 42.4761 25.5636 41.7897C25.3473 41.454 24.918 41.5715 24.8424 41.07C24.7938 40.7432 24.9135 40.4977 25.1254 40.3113C25.4113 40.1223 25.753 39.9902 25.9993 39.961C26.3234 39.9225 26.6965 39.9872 27.0121 40.0542C28.2385 40.3147 29.215 41.2399 28.9511 42.5468C28.7318 43.633 27.8935 44.636 27.0884 45.3643C26.8107 45.6155 26.4304 45.8075 26.1748 46.0915C25.8462 45.9201 25.4716 45.8101 25.061 45.7775C24.1474 45.7045 23.6971 45.9355 22.8023 45.6918C22.0073 45.4751 21.1465 45.4134 20.3373 45.6368C18.9447 46.0215 17.2156 47.2368 17.247 48.8626C17.2586 49.4521 17.5071 50.0711 18.1265 50.2553C18.5053 50.3683 18.8908 50.201 19.2621 50.0947C21.0462 51.0993 19.9732 53.8782 19.0259 55.1047C17.9701 56.4719 16.9633 57.3739 15.2739 57.8589C15.1653 57.89 15.1066 57.9607 15.0815 58.0408C14.4553 57.6175 13.8509 57.1658 13.258 56.6994ZM17.2017 59.3429C18.0902 59.1711 18.9151 58.5188 19.5675 57.9551C20.1947 57.4135 20.6311 56.8536 20.9433 56.1979C21.0395 56.3604 21.1622 56.5164 21.3041 56.6669C21.2842 56.6976 21.2659 56.7305 21.2524 56.7694C20.9646 57.5969 20.5967 58.2721 19.883 58.8156C19.3085 59.2523 18.7789 59.5465 18.1179 59.7984C18.103 59.8036 18.0932 59.813 18.0797 59.8197C17.7841 59.6655 17.4918 59.5065 17.2017 59.3429ZM19.0472 60.3111C19.5985 60.0753 20.1326 59.6412 20.5226 59.3388C21.2723 58.7564 21.663 58.0509 21.9744 57.1995C22.8498 57.6789 23.8072 57.4839 24.147 56.4352C23.9606 55.9704 24.0774 55.5766 24.4973 55.2544C24.5598 55.2256 24.622 55.2035 24.6841 55.1859C24.7342 55.202 24.7893 55.2095 24.8529 55.1941C24.9364 55.1743 25.0161 55.1661 25.0969 55.1541C25.1272 55.1582 25.1572 55.1616 25.1875 55.1683C25.7526 55.708 24.927 57.4929 24.711 57.7814C24.2473 58.4005 23.5328 58.9439 22.8854 59.3586C22.3943 59.673 21.5567 59.9627 20.9725 60.1337C20.4646 60.2823 19.9889 60.1839 19.6026 60.5623C19.4174 60.4781 19.2299 60.3987 19.0472 60.3111ZM25.9611 62.66C26.8721 61.9695 27.6573 61.4351 28.2337 60.3153C28.6873 59.4342 28.7999 58.2875 28.6296 57.3166C28.3422 55.6796 26.9604 54.4344 25.3424 54.4924C24.7878 54.2794 24.1627 54.2749 23.6668 54.6481C23.001 55.1492 23.0474 57.561 21.901 55.7188C20.8463 54.0238 23.2462 51.7014 24.8926 51.9893C25.2025 52.0432 25.5352 51.9548 25.6984 51.6614C25.9439 51.2198 26.2306 50.4581 26.6898 50.1965C28.0645 49.4135 29.3804 50.8818 29.8479 51.9904C30.2195 52.8718 29.8483 54.0133 30.279 54.7839C30.4692 55.1238 31.0474 55.4329 31.3124 55.687C32.077 56.4206 32.6223 57.5636 32.6179 58.6557C32.6111 60.3441 30.9348 62.3767 29.3119 63.1848C28.1753 63.0714 27.0581 62.8928 25.9611 62.66ZM40.8555 62.1784C40.8222 62.1559 40.7863 62.1361 40.7447 62.1203C38.6282 61.3299 38.2222 57.2238 38.1155 55.4003C37.9321 52.252 38.9898 49.0569 40.756 46.4737C42.3103 44.1992 44.2475 42.2407 46.7087 40.9667C48.6295 39.9722 51.4825 38.9437 53.8123 39.4842C52.4073 39.537 51.0177 40.0194 49.7568 40.7492C47.9153 41.3458 46.0504 42.5012 44.56 43.6547C42.5524 45.2086 41.6224 47.3839 41.0292 49.7979C40.4543 52.136 40.4292 54.7072 40.9992 57.046C41.4255 58.7927 42.4222 60.0278 43.569 61.2797C42.6831 61.6199 41.7777 61.9194 40.8555 62.1784ZM44.6237 60.8583C44.4096 60.5634 44.1214 60.3527 43.8474 60.0607C43.2347 59.408 42.6913 58.6359 42.2957 57.8282C41.2268 55.6447 41.3473 52.8946 41.7407 50.5528C42.1239 48.269 43.0446 45.9575 44.9201 44.5114C45.4684 44.0888 46.0706 43.6517 46.7012 43.2351C46.5822 43.3669 46.4669 43.4993 46.3565 43.633C44.4608 45.9287 43.3818 48.8207 43.4118 51.8175C43.4286 53.4875 43.612 55.1185 44.0881 56.7298C44.5009 58.1261 45.2386 59.0607 46.0141 60.2232C45.5567 60.4459 45.0934 60.6577 44.6237 60.8583ZM46.9583 59.7393C46.0968 58.6894 45.3179 57.8533 44.9036 56.5048C44.4878 55.1511 44.3508 53.7491 44.2984 52.3448C44.1794 49.1564 44.8572 46.3359 47.0167 43.9024C47.9487 42.8522 49.3522 41.7901 50.8571 41.2189C48.8398 42.8328 47.4247 45.9501 47.0283 48.107C46.5616 50.6441 46.6017 53.508 47.2899 56.0063C47.5108 56.8069 47.8731 57.5479 48.3379 58.2246C48.4973 58.4566 48.6122 58.6172 48.7159 58.7355C48.1422 59.0891 47.5557 59.423 46.9583 59.7393ZM49.6501 58.1366C48.7125 58.0236 48.083 56.2009 47.8996 55.5429C47.3532 53.5814 47.2207 51.5495 47.4606 49.5356C47.6912 47.595 48.2563 45.849 49.2706 44.1719C49.8915 43.1449 50.9177 42.1149 52.0866 41.5427C50.4813 43.4159 49.9839 46.94 50.2822 48.9367C50.5468 50.7066 51.2011 52.4006 52.5215 53.651C52.788 53.904 53.3355 54.4946 53.8123 54.806C52.5233 56.0295 51.1337 57.1471 49.6501 58.1366ZM54.5859 54.0504C54.2618 54.2839 54.3404 54.3146 53.5657 53.7292C52.3489 52.8097 51.5338 51.6071 51.1363 50.1318C50.5218 47.8487 50.9735 41.8758 53.9501 41.0932C54.0867 41.095 54.2233 41.104 54.3603 41.1239C53.4287 42.1138 53.1555 44.453 53.2914 45.5837C53.5537 47.7638 55.0145 50.3152 57.2635 50.9473C56.4397 52.0409 55.5441 53.0761 54.5859 54.0504ZM57.5954 50.4884C57.3892 50.4181 57.1729 50.3713 56.9738 50.2684C56.0246 49.7777 55.306 48.7009 54.9239 47.7503C54.6103 46.9711 54.4389 46.172 54.3737 45.3348C54.3378 44.8785 54.4194 41.6276 55.5841 41.6991C56.4322 42.4042 56.4266 43.3811 56.9292 44.0701C57.0486 44.2812 57.2148 44.4268 57.4102 44.5162C57.5704 44.6147 57.7594 44.6985 57.9914 44.7618C58.1868 44.8149 58.3253 44.7217 58.3915 44.5873C58.8399 44.4945 59.2886 44.2621 59.6071 43.9619C61.0118 42.6378 61.6675 40.2039 60.6648 38.5029C60.5039 38.2296 59.9264 37.8763 59.8197 37.6271C59.5779 37.063 59.8688 36.1947 59.7778 35.5866C59.621 34.5393 59.0499 33.7912 58.1931 33.1808C57.8679 32.9495 57.5434 32.7713 57.2141 32.6339C56.9266 31.7406 56.7968 30.568 57.2923 29.7442C57.7931 28.9111 59.0409 28.5671 59.5821 29.4351C59.7426 29.6926 59.7314 30.0541 59.9047 30.2996C60.3673 30.9542 60.9646 31.0115 61.5208 30.4026C62.1769 29.6851 62.346 28.2688 62.1477 27.3481C61.9126 26.2549 61.34 25.8945 60.5338 25.4416C61.0529 23.7421 60.1352 22.1473 58.53 21.4991C59.015 20.7958 59.2643 19.8339 59.3751 19.0708C59.5009 18.2003 59.4088 17.3043 59.1487 16.4423C61.9066 21.0818 63.4954 26.4978 63.4954 32.2866C63.4954 39.0875 61.3033 45.3733 57.5954 50.4884ZM32.4404 0.286621C14.7675 0.286621 0.440445 14.6136 0.440445 32.2866C0.440445 48.6485 12.7228 62.1323 28.5686 64.0452C28.6457 64.1212 28.7539 64.1639 28.8913 64.1231C28.9182 64.1148 28.9437 64.1047 28.971 64.0965C30.111 64.2196 31.2675 64.2866 32.4404 64.2866C50.1138 64.2866 64.4405 49.96 64.4405 32.2866C64.4405 14.6136 50.1138 0.286621 32.4404 0.286621Z" fill="currentColor"/>
</svg>
